<?xml version="1.0" encoding="UTF-8"?>
<svg xmlns="http://www.w3.org/2000/svg" xmlns:xlink="http://www.w3.org/1999/xlink" width="1138.5" height="778.5" viewBox="-51.75 -726.75 1138.5 778.5">
<defs>
<style type="text/css">
.l235d4 {stroke: #0067A5; fill: #0067A5; fill-opacity: 0.5;}
.l71d20 {stroke: #B3446C; fill: #B3446C; fill-opacity: 0.5;}
</style>
</defs>
<rect x="-51.75" y="-726.75" width="1138.5" height="778.5" fill="#222222" stroke="none"/>
<g id="my_logo" transform="scale(1 -1)">
<polygon id="0x1057750" class="l71d20" points="15.75,45 15.75,53.5 24.25,53.5 24.25,45 35,45 35,55.75 26.5,55.75 26.5,64.25 35,64.25 35,75 24.25,75 24.25,66.5 15.75,66.5 15.75,75 5,75 5,64.25 13.5,64.25 13.5,55.75 5,55.75 5,45"/>
<polygon id="0x1058310" class="l71d20" points="15.75,85 15.75,93.5 24.25,93.5 24.25,85 35,85 35,95.75 26.5,95.75 26.5,104.25 35,104.25 35,115 24.25,115 24.25,106.5 15.75,106.5 15.75,115 5,115 5,104.25 13.5,104.25 13.5,95.75 5,95.75 5,85"/>
<polygon id="0x1058470" class="l71d20" points="15.75,125 15.75,133.5 24.25,133.5 24.25,125 35,125 35,135.75 26.5,135.75 26.5,144.25 35,144.25 35,155 24.25,155 24.25,146.5 15.75,146.5 15.75,155 5,155 5,144.25 13.5,144.25 13.5,135.75 5,135.75 5,125"/>
<polygon id="0x10584e0" class="l71d20" points="15.75,165 15.75,173.5 24.25,173.5 24.25,165 35,165 35,175.75 26.5,175.75 26.5,184.25 35,184.25 35,195 24.25,195 24.25,186.5 15.75,186.5 15.75,195 5,195 5,184.25 13.5,184.25 13.5,175.75 5,175.75 5,165"/>
<polygon id="0x1058550" class="l71d20" points="15.75,205 15.75,213.5 24.25,213.5 24.25,205 35,205 35,215.75 26.5,215.75 26.5,224.25 35,224.25 35,235 24.25,235 24.25,226.5 15.75,226.5 15.75,235 5,235 5,224.25 13.5,224.25 13.5,215.75 5,215.75 5,205"/>
<polygon id="0x10585c0" class="l71d20" points="15.75,245 15.75,253.5 24.25,253.5 24.25,245 35,245 35,255.75 26.5,255.75 26.5,264.25 35,264.25 35,275 24.25,275 24.25,266.5 15.75,266.5 15.75,275 5,275 5,264.25 13.5,264.25 13.5,255.75 5,255.75 5,245"/>
<polygon id="0x1058680" class="l71d20" points="55.75,85 55.75,93.5 64.25,93.5 64.25,85 75,85 75,95.75 66.5,95.75 66.5,104.25 75,104.25 75,115 64.25,115 64.25,106.5 55.75,106.5 55.75,115 45,115 45,104.25 53.5,104.25 53.5,95.75 45,95.75 45,85"/>
<polygon id="0x10586f0" class="l71d20" points="55.75,205 55.75,213.5 64.25,213.5 64.25,205 75,205 75,215.75 66.5,215.75 66.5,224.25 75,224.25 75,235 64.25,235 64.25,226.5 55.75,226.5 55.75,235 45,235 45,224.25 53.5,224.25 53.5,215.75 45,215.75 45,205"/>
<polygon id="0x1058760" class="l71d20" points="95.75,45 95.75,53.5 104.25,53.5 104.25,45 115,45 115,55.75 106.5,55.75 106.5,64.25 115,64.25 115,75 104.25,75 104.25,66.5 95.75,66.5 95.75,75 85,75 85,64.25 93.5,64.25 93.5,55.75 85,55.75 85,45"/>
<polygon id="0x10587d0" class="l71d20" points="95.75,125 95.75,133.5 104.25,133.5 104.25,125 115,125 115,135.75 106.5,135.75 106.5,144.25 115,144.25 115,155 104.25,155 104.25,146.5 95.75,146.5 95.75,155 85,155 85,144.25 93.5,144.25 93.5,135.75 85,135.75 85,125"/>
<polygon id="0x1058990" class="l71d20" points="95.75,165 95.75,173.5 104.25,173.5 104.25,165 115,165 115,175.75 106.5,175.75 106.5,184.25 115,184.25 115,195 104.25,195 104.25,186.5 95.75,186.5 95.75,195 85,195 85,184.25 93.5,184.25 93.5,175.75 85,175.75 85,165"/>
<polygon id="0x1058b50" class="l71d20" points="95.75,245 95.75,253.5 104.25,253.5 104.25,245 115,245 115,255.75 106.5,255.75 106.5,264.25 115,264.25 115,275 104.25,275 104.25,266.5 95.75,266.5 95.75,275 85,275 85,264.25 93.5,264.25 93.5,255.75 85,255.75 85,245"/>
<polygon id="0x1058d10" class="l71d20" points="135.75,45 135.75,53.5 144.25,53.5 144.25,45 155,45 155,55.75 146.5,55.75 146.5,64.25 155,64.25 155,75 144.25,75 144.25,66.5 135.75,66.5 135.75,75 125,75 125,64.25 133.5,64.25 133.5,55.75 125,55.75 125,45"/>
<polygon id="0x1058ed0" class="l71d20" points="135.75,85 135.75,93.5 144.25,93.5 144.25,85 155,85 155,95.75 146.5,95.75 146.5,104.25 155,104.25 155,115 144.25,115 144.25,106.5 135.75,106.5 135.75,115 125,115 125,104.25 133.5,104.25 133.5,95.75 125,95.75 125,85"/>
<polygon id="0x1059090" class="l71d20" points="135.75,125 135.75,133.5 144.25,133.5 144.25,125 155,125 155,135.75 146.5,135.75 146.5,144.25 155,144.25 155,155 144.25,155 144.25,146.5 135.75,146.5 135.75,155 125,155 125,144.25 133.5,144.25 133.5,135.75 125,135.75 125,125"/>
<polygon id="0x1059250" class="l71d20" points="135.75,165 135.75,173.5 144.25,173.5 144.25,165 155,165 155,175.75 146.5,175.75 146.5,184.25 155,184.25 155,195 144.25,195 144.25,186.5 135.75,186.5 135.75,195 125,195 125,184.25 133.5,184.25 133.5,175.75 125,175.75 125,165"/>
<polygon id="0x1059410" class="l71d20" points="135.75,205 135.75,213.5 144.25,213.5 144.25,205 155,205 155,215.75 146.5,215.75 146.5,224.25 155,224.25 155,235 144.25,235 144.25,226.5 135.75,226.5 135.75,235 125,235 125,224.25 133.5,224.25 133.5,215.75 125,215.75 125,205"/>
<polygon id="0x10595d0" class="l71d20" points="135.75,245 135.75,253.5 144.25,253.5 144.25,245 155,245 155,255.75 146.5,255.75 146.5,264.25 155,264.25 155,275 144.25,275 144.25,266.5 135.75,266.5 135.75,275 125,275 125,264.25 133.5,264.25 133.5,255.75 125,255.75 125,245"/>
<polygon id="0x1059790" class="l71d20" points="175.75,45 175.75,53.5 184.25,53.5 184.25,45 195,45 195,55.75 186.5,55.75 186.5,64.25 195,64.25 195,75 184.25,75 184.25,66.5 175.75,66.5 175.75,75 165,75 165,64.25 173.5,64.25 173.5,55.75 165,55.75 165,45"/>
<polygon id="0x1059950" class="l71d20" points="175.75,85 175.75,93.5 184.25,93.5 184.25,85 195,85 195,95.75 186.5,95.75 186.5,104.25 195,104.25 195,115 184.25,115 184.25,106.5 175.75,106.5 175.75,115 165,115 165,104.25 173.5,104.25 173.5,95.75 165,95.75 165,85"/>
<polygon id="0x1059b10" class="l71d20" points="175.75,125 175.75,133.5 184.25,133.5 184.25,125 195,125 195,135.75 186.5,135.75 186.5,144.25 195,144.25 195,155 184.25,155 184.25,146.5 175.75,146.5 175.75,155 165,155 165,144.25 173.5,144.25 173.5,135.75 165,135.75 165,125"/>
<polygon id="0x1059cd0" class="l71d20" points="175.75,165 175.75,173.5 184.25,173.5 184.25,165 195,165 195,175.75 186.5,175.75 186.5,184.25 195,184.25 195,195 184.25,195 184.25,186.5 175.75,186.5 175.75,195 165,195 165,184.25 173.5,184.25 173.5,175.75 165,175.75 165,165"/>
<polygon id="0x1059e90" class="l71d20" points="175.75,205 175.75,213.5 184.25,213.5 184.25,205 195,205 195,215.75 186.5,215.75 186.5,224.25 195,224.25 195,235 184.25,235 184.25,226.5 175.75,226.5 175.75,235 165,235 165,224.25 173.5,224.25 173.5,215.75 165,215.75 165,205"/>
<polygon id="0x105a050" class="l71d20" points="175.75,245 175.75,253.5 184.25,253.5 184.25,245 195,245 195,255.75 186.5,255.75 186.5,264.25 195,264.25 195,275 184.25,275 184.25,266.5 175.75,266.5 175.75,275 165,275 165,264.25 173.5,264.25 173.5,255.75 165,255.75 165,245"/>
<polygon id="0x105a210" class="l71d20" points="215.75,45 215.75,53.5 224.25,53.5 224.25,45 235,45 235,55.75 226.5,55.75 226.5,64.25 235,64.25 235,75 224.25,75 224.25,66.5 215.75,66.5 215.75,75 205,75 205,64.25 213.5,64.25 213.5,55.75 205,55.75 205,45"/>
<polygon id="0x105a3d0" class="l71d20" points="215.75,125 215.75,133.5 224.25,133.5 224.25,125 235,125 235,135.75 226.5,135.75 226.5,144.25 235,144.25 235,155 224.25,155 224.25,146.5 215.75,146.5 215.75,155 205,155 205,144.25 213.5,144.25 213.5,135.75 205,135.75 205,125"/>
<polygon id="0x105a590" class="l71d20" points="215.75,165 215.75,173.5 224.25,173.5 224.25,165 235,165 235,175.75 226.5,175.75 226.5,184.25 235,184.25 235,195 224.25,195 224.25,186.5 215.75,186.5 215.75,195 205,195 205,184.25 213.5,184.25 213.5,175.75 205,175.75 205,165"/>
<polygon id="0x105a750" class="l71d20" points="215.75,245 215.75,253.5 224.25,253.5 224.25,245 235,245 235,255.75 226.5,255.75 226.5,264.25 235,264.25 235,275 224.25,275 224.25,266.5 215.75,266.5 215.75,275 205,275 205,264.25 213.5,264.25 213.5,255.75 205,255.75 205,245"/>
<polygon id="0x105a910" class="l71d20" points="255.75,85 255.75,93.5 264.25,93.5 264.25,85 275,85 275,95.75 266.5,95.75 266.5,104.25 275,104.25 275,115 264.25,115 264.25,106.5 255.75,106.5 255.75,115 245,115 245,104.25 253.5,104.25 253.5,95.75 245,95.75 245,85"/>
<polygon id="0x105aad0" class="l71d20" points="255.75,205 255.75,213.5 264.25,213.5 264.25,205 275,205 275,215.75 266.5,215.75 266.5,224.25 275,224.25 275,235 264.25,235 264.25,226.5 255.75,226.5 255.75,235 245,235 245,224.25 253.5,224.25 253.5,215.75 245,215.75 245,205"/>
<polygon id="0x105ac90" class="l71d20" points="295.75,45 295.75,53.5 304.25,53.5 304.25,45 315,45 315,55.75 306.5,55.75 306.5,64.25 315,64.25 315,75 304.25,75 304.25,66.5 295.75,66.5 295.75,75 285,75 285,64.25 293.5,64.25 293.5,55.75 285,55.75 285,45"/>
<polygon id="0x105ae50" class="l71d20" points="295.75,85 295.75,93.5 304.25,93.5 304.25,85 315,85 315,95.75 306.5,95.75 306.5,104.25 315,104.25 315,115 304.25,115 304.25,106.5 295.75,106.5 295.75,115 285,115 285,104.25 293.5,104.25 293.5,95.75 285,95.75 285,85"/>
<polygon id="0x105b010" class="l71d20" points="295.75,125 295.75,133.5 304.25,133.5 304.25,125 315,125 315,135.75 306.5,135.75 306.5,144.25 315,144.25 315,155 304.25,155 304.25,146.5 295.75,146.5 295.75,155 285,155 285,144.25 293.5,144.25 293.5,135.75 285,135.75 285,125"/>
<polygon id="0x105b1d0" class="l71d20" points="295.75,165 295.75,173.5 304.25,173.5 304.25,165 315,165 315,175.75 306.5,175.75 306.5,184.25 315,184.25 315,195 304.25,195 304.25,186.5 295.75,186.5 295.75,195 285,195 285,184.25 293.5,184.25 293.5,175.75 285,175.75 285,165"/>
<polygon id="0x105b390" class="l71d20" points="295.75,205 295.75,213.5 304.25,213.5 304.25,205 315,205 315,215.75 306.5,215.75 306.5,224.25 315,224.25 315,235 304.25,235 304.25,226.5 295.75,226.5 295.75,235 285,235 285,224.25 293.5,224.25 293.5,215.75 285,215.75 285,205"/>
<polygon id="0x105b550" class="l71d20" points="295.75,245 295.75,253.5 304.25,253.5 304.25,245 315,245 315,255.75 306.5,255.75 306.5,264.25 315,264.25 315,275 304.25,275 304.25,266.5 295.75,266.5 295.75,275 285,275 285,264.25 293.5,264.25 293.5,255.75 285,255.75 285,245"/>
<polygon id="0x105b710" class="l71d20" points="15.75,365 15.75,373.5 24.25,373.5 24.25,365 35,365 35,375.75 26.5,375.75 26.5,384.25 35,384.25 35,395 24.25,395 24.25,386.5 15.75,386.5 15.75,395 5,395 5,384.25 13.5,384.25 13.5,375.75 5,375.75 5,365"/>
<polygon id="0x105b8d0" class="l71d20" points="15.75,405 15.75,413.5 24.25,413.5 24.25,405 35,405 35,415.75 26.5,415.75 26.5,424.25 35,424.25 35,435 24.25,435 24.25,426.5 15.75,426.5 15.75,435 5,435 5,424.25 13.5,424.25 13.5,415.75 5,415.75 5,405"/>
<polygon id="0x105ba90" class="l71d20" points="15.75,605 15.75,613.5 24.25,613.5 24.25,605 35,605 35,615.75 26.5,615.75 26.5,624.25 35,624.25 35,635 24.25,635 24.25,626.5 15.75,626.5 15.75,635 5,635 5,624.25 13.5,624.25 13.5,615.75 5,615.75 5,605"/>
<polygon id="0x105bc50" class="l71d20" points="15.75,645 15.75,653.5 24.25,653.5 24.25,645 35,645 35,655.75 26.5,655.75 26.5,664.25 35,664.25 35,675 24.25,675 24.25,666.5 15.75,666.5 15.75,675 5,675 5,664.25 13.5,664.25 13.5,655.75 5,655.75 5,645"/>
<polygon id="0x105be10" class="l71d20" points="55.75,405 55.75,413.5 64.25,413.5 64.25,405 75,405 75,415.75 66.5,415.75 66.5,424.25 75,424.25 75,435 64.25,435 64.25,426.5 55.75,426.5 55.75,435 45,435 45,424.25 53.5,424.25 53.5,415.75 45,415.75 45,405"/>
<polygon id="0x105bfd0" class="l71d20" points="55.75,605 55.75,613.5 64.25,613.5 64.25,605 75,605 75,615.75 66.5,615.75 66.5,624.25 75,624.25 75,635 64.25,635 64.25,626.5 55.75,626.5 55.75,635 45,635 45,624.25 53.5,624.25 53.5,615.75 45,615.75 45,605"/>
<polygon id="0x105c190" class="l71d20" points="95.75,365 95.75,373.5 104.25,373.5 104.25,365 115,365 115,375.75 106.5,375.75 106.5,384.25 115,384.25 115,395 104.25,395 104.25,386.5 95.75,386.5 95.75,395 85,395 85,384.25 93.5,384.25 93.5,375.75 85,375.75 85,365"/>
<polygon id="0x105c350" class="l71d20" points="95.75,405 95.75,413.5 104.25,413.5 104.25,405 115,405 115,415.75 106.5,415.75 106.5,424.25 115,424.25 115,435 104.25,435 104.25,426.5 95.75,426.5 95.75,435 85,435 85,424.25 93.5,424.25 93.5,415.75 85,415.75 85,405"/>
<polygon id="0x105c510" class="l71d20" points="95.75,605 95.75,613.5 104.25,613.5 104.25,605 115,605 115,615.75 106.5,615.75 106.5,624.25 115,624.25 115,635 104.25,635 104.25,626.5 95.75,626.5 95.75,635 85,635 85,624.25 93.5,624.25 93.5,615.75 85,615.75 85,605"/>
<polygon id="0x105c6d0" class="l71d20" points="95.75,645 95.75,653.5 104.25,653.5 104.25,645 115,645 115,655.75 106.5,655.75 106.5,664.25 115,664.25 115,675 104.25,675 104.25,666.5 95.75,666.5 95.75,675 85,675 85,664.25 93.5,664.25 93.5,655.75 85,655.75 85,645"/>
<polygon id="0x105c890" class="l71d20" points="135.75,485 135.75,493.5 144.25,493.5 144.25,485 155,485 155,495.75 146.5,495.75 146.5,504.25 155,504.25 155,515 144.25,515 144.25,506.5 135.75,506.5 135.75,515 125,515 125,504.25 133.5,504.25 133.5,495.75 125,495.75 125,485"/>
<polygon id="0x105ca50" class="l71d20" points="135.75,525 135.75,533.5 144.25,533.5 144.25,525 155,525 155,535.75 146.5,535.75 146.5,544.25 155,544.25 155,555 144.25,555 144.25,546.5 135.75,546.5 135.75,555 125,555 125,544.25 133.5,544.25 133.5,535.75 125,535.75 125,525"/>
<polygon id="0x105cc10" class="l71d20" points="175.75,485 175.75,493.5 184.25,493.5 184.25,485 195,485 195,495.75 186.5,495.75 186.5,504.25 195,504.25 195,515 184.25,515 184.25,506.5 175.75,506.5 175.75,515 165,515 165,504.25 173.5,504.25 173.5,495.75 165,495.75 165,485"/>
<polygon id="0x105cdd0" class="l71d20" points="175.75,525 175.75,533.5 184.25,533.5 184.25,525 195,525 195,535.75 186.5,535.75 186.5,544.25 195,544.25 195,555 184.25,555 184.25,546.5 175.75,546.5 175.75,555 165,555 165,544.25 173.5,544.25 173.5,535.75 165,535.75 165,525"/>
<polygon id="0x105cf90" class="l71d20" points="215.75,365 215.75,373.5 224.25,373.5 224.25,365 235,365 235,375.75 226.5,375.75 226.5,384.25 235,384.25 235,395 224.25,395 224.25,386.5 215.75,386.5 215.75,395 205,395 205,384.25 213.5,384.25 213.5,375.75 205,375.75 205,365"/>
<polygon id="0x105d150" class="l71d20" points="215.75,405 215.75,413.5 224.25,413.5 224.25,405 235,405 235,415.75 226.5,415.75 226.5,424.25 235,424.25 235,435 224.25,435 224.25,426.5 215.75,426.5 215.75,435 205,435 205,424.25 213.5,424.25 213.5,415.75 205,415.75 205,405"/>
<polygon id="0x105d310" class="l71d20" points="215.75,605 215.75,613.5 224.25,613.5 224.25,605 235,605 235,615.75 226.5,615.75 226.5,624.25 235,624.25 235,635 224.25,635 224.25,626.5 215.75,626.5 215.75,635 205,635 205,624.25 213.5,624.25 213.5,615.75 205,615.75 205,605"/>
<polygon id="0x105d4d0" class="l71d20" points="215.75,645 215.75,653.5 224.25,653.5 224.25,645 235,645 235,655.75 226.5,655.75 226.5,664.25 235,664.25 235,675 224.25,675 224.25,666.5 215.75,666.5 215.75,675 205,675 205,664.25 213.5,664.25 213.5,655.75 205,655.75 205,645"/>
<polygon id="0x105d690" class="l71d20" points="255.75,405 255.75,413.5 264.25,413.5 264.25,405 275,405 275,415.75 266.5,415.75 266.5,424.25 275,424.25 275,435 264.25,435 264.25,426.5 255.75,426.5 255.75,435 245,435 245,424.25 253.5,424.25 253.5,415.75 245,415.75 245,405"/>
<polygon id="0x105d850" class="l71d20" points="255.75,605 255.75,613.5 264.25,613.5 264.25,605 275,605 275,615.75 266.5,615.75 266.5,624.25 275,624.25 275,635 264.25,635 264.25,626.5 255.75,626.5 255.75,635 245,635 245,624.25 253.5,624.25 253.5,615.75 245,615.75 245,605"/>
<polygon id="0x105da10" class="l71d20" points="295.75,365 295.75,373.5 304.25,373.5 304.25,365 315,365 315,375.75 306.5,375.75 306.5,384.25 315,384.25 315,395 304.25,395 304.25,386.5 295.75,386.5 295.75,395 285,395 285,384.25 293.5,384.25 293.5,375.75 285,375.75 285,365"/>
<polygon id="0x105dbd0" class="l71d20" points="295.75,405 295.75,413.5 304.25,413.5 304.25,405 315,405 315,415.75 306.5,415.75 306.5,424.25 315,424.25 315,435 304.25,435 304.25,426.5 295.75,426.5 295.75,435 285,435 285,424.25 293.5,424.25 293.5,415.75 285,415.75 285,405"/>
<polygon id="0x105dd90" class="l71d20" points="295.75,605 295.75,613.5 304.25,613.5 304.25,605 315,605 315,615.75 306.5,615.75 306.5,624.25 315,624.25 315,635 304.25,635 304.25,626.5 295.75,626.5 295.75,635 285,635 285,624.25 293.5,624.25 293.5,615.75 285,615.75 285,605"/>
<polygon id="0x105df50" class="l71d20" points="295.75,645 295.75,653.5 304.25,653.5 304.25,645 315,645 315,655.75 306.5,655.75 306.5,664.25 315,664.25 315,675 304.25,675 304.25,666.5 295.75,666.5 295.75,675 285,675 285,664.25 293.5,664.25 293.5,655.75 285,655.75 285,645"/>
<polygon id="0x105e110" class="l71d20" points="375.75,5 375.75,13.5 384.25,13.5 384.25,5 395,5 395,15.75 386.5,15.75 386.5,24.25 395,24.25 395,35 384.25,35 384.25,26.5 375.75,26.5 375.75,35 365,35 365,24.25 373.5,24.25 373.5,15.75 365,15.75 365,5"/>
<polygon id="0x1025300" class="l71d20" points="375.75,45 375.75,53.5 384.25,53.5 384.25,45 395,45 395,55.75 386.5,55.75 386.5,64.25 395,64.25 395,75 384.25,75 384.25,66.5 375.75,66.5 375.75,75 365,75 365,64.25 373.5,64.25 373.5,55.75 365,55.75 365,45"/>
<polygon id="0x1037fb0" class="l71d20" points="375.75,125 375.75,133.5 384.25,133.5 384.25,125 395,125 395,135.75 386.5,135.75 386.5,144.25 395,144.25 395,155 384.25,155 384.25,146.5 375.75,146.5 375.75,155 365,155 365,144.25 373.5,144.25 373.5,135.75 365,135.75 365,125"/>
<polygon id="0x105e8e0" class="l71d20" points="375.75,165 375.75,173.5 384.25,173.5 384.25,165 395,165 395,175.75 386.5,175.75 386.5,184.25 395,184.25 395,195 384.25,195 384.25,186.5 375.75,186.5 375.75,195 365,195 365,184.25 373.5,184.25 373.5,175.75 365,175.75 365,165"/>
<polygon id="0xfa9d00" class="l71d20" points="375.75,245 375.75,253.5 384.25,253.5 384.25,245 395,245 395,255.75 386.5,255.75 386.5,264.25 395,264.25 395,275 384.25,275 384.25,266.5 375.75,266.5 375.75,275 365,275 365,264.25 373.5,264.25 373.5,255.75 365,255.75 365,245"/>
<polygon id="0x1020700" class="l71d20" points="375.75,285 375.75,293.5 384.25,293.5 384.25,285 395,285 395,295.75 386.5,295.75 386.5,304.25 395,304.25 395,315 384.25,315 384.25,306.5 375.75,306.5 375.75,315 365,315 365,304.25 373.5,304.25 373.5,295.75 365,295.75 365,285"/>
<polygon id="0xd6c430" class="l71d20" points="415.75,5 415.75,13.5 424.25,13.5 424.25,5 435,5 435,15.75 426.5,15.75 426.5,24.25 435,24.25 435,35 424.25,35 424.25,26.5 415.75,26.5 415.75,35 405,35 405,24.25 413.5,24.25 413.5,15.75 405,15.75 405,5"/>
<polygon id="0xd96270" class="l71d20" points="415.75,45 415.75,53.5 424.25,53.5 424.25,45 435,45 435,55.75 426.5,55.75 426.5,64.25 435,64.25 435,75 424.25,75 424.25,66.5 415.75,66.5 415.75,75 405,75 405,64.25 413.5,64.25 413.5,55.75 405,55.75 405,45"/>
<polygon id="0x1058260" class="l71d20" points="415.75,245 415.75,253.5 424.25,253.5 424.25,245 435,245 435,255.75 426.5,255.75 426.5,264.25 435,264.25 435,275 424.25,275 424.25,266.5 415.75,266.5 415.75,275 405,275 405,264.25 413.5,264.25 413.5,255.75 405,255.75 405,245"/>
<polygon id="0x1057df0" class="l71d20" points="415.75,285 415.75,293.5 424.25,293.5 424.25,285 435,285 435,295.75 426.5,295.75 426.5,304.25 435,304.25 435,315 424.25,315 424.25,306.5 415.75,306.5 415.75,315 405,315 405,304.25 413.5,304.25 413.5,295.75 405,295.75 405,285"/>
<polygon id="0xe20cf0" class="l71d20" points="455.75,45 455.75,53.5 464.25,53.5 464.25,45 475,45 475,55.75 466.5,55.75 466.5,64.25 475,64.25 475,75 464.25,75 464.25,66.5 455.75,66.5 455.75,75 445,75 445,64.25 453.5,64.25 453.5,55.75 445,55.75 445,45"/>
<polygon id="0xe7e9d0" class="l71d20" points="455.75,245 455.75,253.5 464.25,253.5 464.25,245 475,245 475,255.75 466.5,255.75 466.5,264.25 475,264.25 475,275 464.25,275 464.25,266.5 455.75,266.5 455.75,275 445,275 445,264.25 453.5,264.25 453.5,255.75 445,255.75 445,245"/>
<polygon id="0xe8b430" class="l71d20" points="495.75,5 495.75,13.5 504.25,13.5 504.25,5 515,5 515,15.75 506.5,15.75 506.5,24.25 515,24.25 515,35 504.25,35 504.25,26.5 495.75,26.5 495.75,35 485,35 485,24.25 493.5,24.25 493.5,15.75 485,15.75 485,5"/>
<polygon id="0xeb9b70" class="l71d20" points="495.75,85 495.75,93.5 504.25,93.5 504.25,85 515,85 515,95.75 506.5,95.75 506.5,104.25 515,104.25 515,115 504.25,115 504.25,106.5 495.75,106.5 495.75,115 485,115 485,104.25 493.5,104.25 493.5,95.75 485,95.75 485,85"/>
<polygon id="0xdc0b30" class="l71d20" points="495.75,125 495.75,133.5 504.25,133.5 504.25,125 515,125 515,135.75 506.5,135.75 506.5,144.25 515,144.25 515,155 504.25,155 504.25,146.5 495.75,146.5 495.75,155 485,155 485,144.25 493.5,144.25 493.5,135.75 485,135.75 485,125"/>
<polygon id="0xf643f0" class="l71d20" points="495.75,165 495.75,173.5 504.25,173.5 504.25,165 515,165 515,175.75 506.5,175.75 506.5,184.25 515,184.25 515,195 504.25,195 504.25,186.5 495.75,186.5 495.75,195 485,195 485,184.25 493.5,184.25 493.5,175.75 485,175.75 485,165"/>
<polygon id="0xfc4810" class="l71d20" points="495.75,205 495.75,213.5 504.25,213.5 504.25,205 515,205 515,215.75 506.5,215.75 506.5,224.25 515,224.25 515,235 504.25,235 504.25,226.5 495.75,226.5 495.75,235 485,235 485,224.25 493.5,224.25 493.5,215.75 485,215.75 485,205"/>
<polygon id="0x1006960" class="l71d20" points="495.75,285 495.75,293.5 504.25,293.5 504.25,285 515,285 515,295.75 506.5,295.75 506.5,304.25 515,304.25 515,315 504.25,315 504.25,306.5 495.75,306.5 495.75,315 485,315 485,304.25 493.5,304.25 493.5,295.75 485,295.75 485,285"/>
<polygon id="0xf42d70" class="l71d20" points="535.75,5 535.75,13.5 544.25,13.5 544.25,5 555,5 555,15.75 546.5,15.75 546.5,24.25 555,24.25 555,35 544.25,35 544.25,26.5 535.75,26.5 535.75,35 525,35 525,24.25 533.5,24.25 533.5,15.75 525,15.75 525,5"/>
<polygon id="0xf42de0" class="l71d20" points="535.75,85 535.75,93.5 544.25,93.5 544.25,85 555,85 555,95.75 546.5,95.75 546.5,104.25 555,104.25 555,115 544.25,115 544.25,106.5 535.75,106.5 535.75,115 525,115 525,104.25 533.5,104.25 533.5,95.75 525,95.75 525,85"/>
<polygon id="0xf57180" class="l71d20" points="535.75,125 535.75,133.5 544.25,133.5 544.25,125 555,125 555,135.75 546.5,135.75 546.5,144.25 555,144.25 555,155 544.25,155 544.25,146.5 535.75,146.5 535.75,155 525,155 525,144.25 533.5,144.25 533.5,135.75 525,135.75 525,125"/>
<polygon id="0xf571f0" class="l71d20" points="535.75,165 535.75,173.5 544.25,173.5 544.25,165 555,165 555,175.75 546.5,175.75 546.5,184.25 555,184.25 555,195 544.25,195 544.25,186.5 535.75,186.5 535.75,195 525,195 525,184.25 533.5,184.25 533.5,175.75 525,175.75 525,165"/>
<polygon id="0xf80390" class="l71d20" points="535.75,205 535.75,213.5 544.25,213.5 544.25,205 555,205 555,215.75 546.5,215.75 546.5,224.25 555,224.25 555,235 544.25,235 544.25,226.5 535.75,226.5 535.75,235 525,235 525,224.25 533.5,224.25 533.5,215.75 525,215.75 525,205"/>
<polygon id="0xf80400" class="l71d20" points="535.75,285 535.75,293.5 544.25,293.5 544.25,285 555,285 555,295.75 546.5,295.75 546.5,304.25 555,304.25 555,315 544.25,315 544.25,306.5 535.75,306.5 535.75,315 525,315 525,304.25 533.5,304.25 533.5,295.75 525,295.75 525,285"/>
<polygon id="0x10045c0" class="l71d20" points="575.75,45 575.75,53.5 584.25,53.5 584.25,45 595,45 595,55.75 586.5,55.75 586.5,64.25 595,64.25 595,75 584.25,75 584.25,66.5 575.75,66.5 575.75,75 565,75 565,64.25 573.5,64.25 573.5,55.75 565,55.75 565,45"/>
<polygon id="0x1004630" class="l71d20" points="575.75,245 575.75,253.5 584.25,253.5 584.25,245 595,245 595,255.75 586.5,255.75 586.5,264.25 595,264.25 595,275 584.25,275 584.25,266.5 575.75,266.5 575.75,275 565,275 565,264.25 573.5,264.25 573.5,255.75 565,255.75 565,245"/>
<polygon id="0x1039100" class="l71d20" points="615.75,5 615.75,13.5 624.25,13.5 624.25,5 635,5 635,15.75 626.5,15.75 626.5,24.25 635,24.25 635,35 624.25,35 624.25,26.5 615.75,26.5 615.75,35 605,35 605,24.25 613.5,24.25 613.5,15.75 605,15.75 605,5"/>
<polygon id="0x1039170" class="l71d20" points="615.75,45 615.75,53.5 624.25,53.5 624.25,45 635,45 635,55.75 626.5,55.75 626.5,64.25 635,64.25 635,75 624.25,75 624.25,66.5 615.75,66.5 615.75,75 605,75 605,64.25 613.5,64.25 613.5,55.75 605,55.75 605,45"/>
<polygon id="0x103fdb0" class="l71d20" points="615.75,245 615.75,253.5 624.25,253.5 624.25,245 635,245 635,255.75 626.5,255.75 626.5,264.25 635,264.25 635,275 624.25,275 624.25,266.5 615.75,266.5 615.75,275 605,275 605,264.25 613.5,264.25 613.5,255.75 605,255.75 605,245"/>
<polygon id="0x103fe20" class="l71d20" points="615.75,285 615.75,293.5 624.25,293.5 624.25,285 635,285 635,295.75 626.5,295.75 626.5,304.25 635,304.25 635,315 624.25,315 624.25,306.5 615.75,306.5 615.75,315 605,315 605,304.25 613.5,304.25 613.5,295.75 605,295.75 605,285"/>
<polygon id="0xe092a0" class="l71d20" points="655.75,5 655.75,13.5 664.25,13.5 664.25,5 675,5 675,15.75 666.5,15.75 666.5,24.25 675,24.25 675,35 664.25,35 664.25,26.5 655.75,26.5 655.75,35 645,35 645,24.25 653.5,24.25 653.5,15.75 645,15.75 645,5"/>
<polygon id="0xe73650" class="l71d20" points="655.75,45 655.75,53.5 664.25,53.5 664.25,45 675,45 675,55.75 666.5,55.75 666.5,64.25 675,64.25 675,75 664.25,75 664.25,66.5 655.75,66.5 655.75,75 645,75 645,64.25 653.5,64.25 653.5,55.75 645,55.75 645,45"/>
<polygon id="0xf39f60" class="l71d20" points="655.75,125 655.75,133.5 664.25,133.5 664.25,125 675,125 675,135.75 666.5,135.75 666.5,144.25 675,144.25 675,155 664.25,155 664.25,146.5 655.75,146.5 655.75,155 645,155 645,144.25 653.5,144.25 653.5,135.75 645,135.75 645,125"/>
<polygon id="0xff8fa0" class="l71d20" points="655.75,165 655.75,173.5 664.25,173.5 664.25,165 675,165 675,175.75 666.5,175.75 666.5,184.25 675,184.25 675,195 664.25,195 664.25,186.5 655.75,186.5 655.75,195 645,195 645,184.25 653.5,184.25 653.5,175.75 645,175.75 645,165"/>
<polygon id="0xfbdc90" class="l71d20" points="655.75,245 655.75,253.5 664.25,253.5 664.25,245 675,245 675,255.75 666.5,255.75 666.5,264.25 675,264.25 675,275 664.25,275 664.25,266.5 655.75,266.5 655.75,275 645,275 645,264.25 653.5,264.25 653.5,255.75 645,255.75 645,245"/>
<polygon id="0xe75d70" class="l71d20" points="655.75,285 655.75,293.5 664.25,293.5 664.25,285 675,285 675,295.75 666.5,295.75 666.5,304.25 675,304.25 675,315 664.25,315 664.25,306.5 655.75,306.5 655.75,315 645,315 645,304.25 653.5,304.25 653.5,295.75 645,295.75 645,285"/>
<polygon id="0xe75de0" class="l71d20" points="375.75,365 375.75,373.5 384.25,373.5 384.25,365 395,365 395,375.75 386.5,375.75 386.5,384.25 395,384.25 395,395 384.25,395 384.25,386.5 375.75,386.5 375.75,395 365,395 365,384.25 373.5,384.25 373.5,375.75 365,375.75 365,365"/>
<polygon id="0xea60d0" class="l71d20" points="375.75,485 375.75,493.5 384.25,493.5 384.25,485 395,485 395,495.75 386.5,495.75 386.5,504.25 395,504.25 395,515 384.25,515 384.25,506.5 375.75,506.5 375.75,515 365,515 365,504.25 373.5,504.25 373.5,495.75 365,495.75 365,485"/>
<polygon id="0xea6140" class="l71d20" points="375.75,525 375.75,533.5 384.25,533.5 384.25,525 395,525 395,535.75 386.5,535.75 386.5,544.25 395,544.25 395,555 384.25,555 384.25,546.5 375.75,546.5 375.75,555 365,555 365,544.25 373.5,544.25 373.5,535.75 365,535.75 365,525"/>
<polygon id="0xeb86a0" class="l71d20" points="375.75,645 375.75,653.5 384.25,653.5 384.25,645 395,645 395,655.75 386.5,655.75 386.5,664.25 395,664.25 395,675 384.25,675 384.25,666.5 375.75,666.5 375.75,675 365,675 365,664.25 373.5,664.25 373.5,655.75 365,655.75 365,645"/>
<polygon id="0xeb8710" class="l71d20" points="415.75,365 415.75,373.5 424.25,373.5 424.25,365 435,365 435,375.75 426.5,375.75 426.5,384.25 435,384.25 435,395 424.25,395 424.25,386.5 415.75,386.5 415.75,395 405,395 405,384.25 413.5,384.25 413.5,375.75 405,375.75 405,365"/>
<polygon id="0xf83060" class="l71d20" points="415.75,445 415.75,453.5 424.25,453.5 424.25,445 435,445 435,455.75 426.5,455.75 426.5,464.25 435,464.25 435,475 424.25,475 424.25,466.5 415.75,466.5 415.75,475 405,475 405,464.25 413.5,464.25 413.5,455.75 405,455.75 405,445"/>
<polygon id="0xf830d0" class="l71d20" points="415.75,565 415.75,573.5 424.25,573.5 424.25,565 435,565 435,575.75 426.5,575.75 426.5,584.25 435,584.25 435,595 424.25,595 424.25,586.5 415.75,586.5 415.75,595 405,595 405,584.25 413.5,584.25 413.5,575.75 405,575.75 405,565"/>
<polygon id="0xfd4530" class="l71d20" points="415.75,645 415.75,653.5 424.25,653.5 424.25,645 435,645 435,655.75 426.5,655.75 426.5,664.25 435,664.25 435,675 424.25,675 424.25,666.5 415.75,666.5 415.75,675 405,675 405,664.25 413.5,664.25 413.5,655.75 405,655.75 405,645"/>
<polygon id="0xfd45a0" class="l71d20" points="455.75,405 455.75,413.5 464.25,413.5 464.25,405 475,405 475,415.75 466.5,415.75 466.5,424.25 475,424.25 475,435 464.25,435 464.25,426.5 455.75,426.5 455.75,435 445,435 445,424.25 453.5,424.25 453.5,415.75 445,415.75 445,405"/>
<polygon id="0xf9e960" class="l71d20" points="455.75,445 455.75,453.5 464.25,453.5 464.25,445 475,445 475,455.75 466.5,455.75 466.5,464.25 475,464.25 475,475 464.25,475 464.25,466.5 455.75,466.5 455.75,475 445,475 445,464.25 453.5,464.25 453.5,455.75 445,455.75 445,445"/>
<polygon id="0xf9e9d0" class="l71d20" points="455.75,485 455.75,493.5 464.25,493.5 464.25,485 475,485 475,495.75 466.5,495.75 466.5,504.25 475,504.25 475,515 464.25,515 464.25,506.5 455.75,506.5 455.75,515 445,515 445,504.25 453.5,504.25 453.5,495.75 445,495.75 445,485"/>
<polygon id="0xd619b0" class="l71d20" points="455.75,525 455.75,533.5 464.25,533.5 464.25,525 475,525 475,535.75 466.5,535.75 466.5,544.25 475,544.25 475,555 464.25,555 464.25,546.5 455.75,546.5 455.75,555 445,555 445,544.25 453.5,544.25 453.5,535.75 445,535.75 445,525"/>
<polygon id="0xd61a20" class="l71d20" points="455.75,565 455.75,573.5 464.25,573.5 464.25,565 475,565 475,575.75 466.5,575.75 466.5,584.25 475,584.25 475,595 464.25,595 464.25,586.5 455.75,586.5 455.75,595 445,595 445,584.25 453.5,584.25 453.5,575.75 445,575.75 445,565"/>
<polygon id="0xe97170" class="l71d20" points="455.75,605 455.75,613.5 464.25,613.5 464.25,605 475,605 475,615.75 466.5,615.75 466.5,624.25 475,624.25 475,635 464.25,635 464.25,626.5 455.75,626.5 455.75,635 445,635 445,624.25 453.5,624.25 453.5,615.75 445,615.75 445,605"/>
<polygon id="0xe971e0" class="l71d20" points="495.75,365 495.75,373.5 504.25,373.5 504.25,365 515,365 515,375.75 506.5,375.75 506.5,384.25 515,384.25 515,395 504.25,395 504.25,386.5 495.75,386.5 495.75,395 485,395 485,384.25 493.5,384.25 493.5,375.75 485,375.75 485,365"/>
<polygon id="0xf85ac0" class="l71d20" points="495.75,405 495.75,413.5 504.25,413.5 504.25,405 515,405 515,415.75 506.5,415.75 506.5,424.25 515,424.25 515,435 504.25,435 504.25,426.5 495.75,426.5 495.75,435 485,435 485,424.25 493.5,424.25 493.5,415.75 485,415.75 485,405"/>
<polygon id="0xecf4d0" class="l71d20" points="495.75,605 495.75,613.5 504.25,613.5 504.25,605 515,605 515,615.75 506.5,615.75 506.5,624.25 515,624.25 515,635 504.25,635 504.25,626.5 495.75,626.5 495.75,635 485,635 485,624.25 493.5,624.25 493.5,615.75 485,615.75 485,605"/>
<polygon id="0xeb7c20" class="l71d20" points="495.75,645 495.75,653.5 504.25,653.5 504.25,645 515,645 515,655.75 506.5,655.75 506.5,664.25 515,664.25 515,675 504.25,675 504.25,666.5 495.75,666.5 495.75,675 485,675 485,664.25 493.5,664.25 493.5,655.75 485,655.75 485,645"/>
<polygon id="0xf119a0" class="l71d20" points="535.75,365 535.75,373.5 544.25,373.5 544.25,365 555,365 555,375.75 546.5,375.75 546.5,384.25 555,384.25 555,395 544.25,395 544.25,386.5 535.75,386.5 535.75,395 525,395 525,384.25 533.5,384.25 533.5,375.75 525,375.75 525,365"/>
<polygon id="0xf6bb60" class="l71d20" points="535.75,405 535.75,413.5 544.25,413.5 544.25,405 555,405 555,415.75 546.5,415.75 546.5,424.25 555,424.25 555,435 544.25,435 544.25,426.5 535.75,426.5 535.75,435 525,435 525,424.25 533.5,424.25 533.5,415.75 525,415.75 525,405"/>
<polygon id="0xf48ec0" class="l71d20" points="535.75,605 535.75,613.5 544.25,613.5 544.25,605 555,605 555,615.75 546.5,615.75 546.5,624.25 555,624.25 555,635 544.25,635 544.25,626.5 535.75,626.5 535.75,635 525,635 525,624.25 533.5,624.25 533.5,615.75 525,615.75 525,605"/>
<polygon id="0xf8a990" class="l71d20" points="535.75,645 535.75,653.5 544.25,653.5 544.25,645 555,645 555,655.75 546.5,655.75 546.5,664.25 555,664.25 555,675 544.25,675 544.25,666.5 535.75,666.5 535.75,675 525,675 525,664.25 533.5,664.25 533.5,655.75 525,655.75 525,645"/>
<polygon id="0xf85b30" class="l71d20" points="575.75,405 575.75,413.5 584.25,413.5 584.25,405 595,405 595,415.75 586.5,415.75 586.5,424.25 595,424.25 595,435 584.25,435 584.25,426.5 575.75,426.5 575.75,435 565,435 565,424.25 573.5,424.25 573.5,415.75 565,415.75 565,405"/>
<polygon id="0xf9dcf0" class="l71d20" points="575.75,445 575.75,453.5 584.25,453.5 584.25,445 595,445 595,455.75 586.5,455.75 586.5,464.25 595,464.25 595,475 584.25,475 584.25,466.5 575.75,466.5 575.75,475 565,475 565,464.25 573.5,464.25 573.5,455.75 565,455.75 565,445"/>
<polygon id="0xf9dd60" class="l71d20" points="575.75,485 575.75,493.5 584.25,493.5 584.25,485 595,485 595,495.75 586.5,495.75 586.5,504.25 595,504.25 595,515 584.25,515 584.25,506.5 575.75,506.5 575.75,515 565,515 565,504.25 573.5,504.25 573.5,495.75 565,495.75 565,485"/>
<polygon id="0xfc32e0" class="l71d20" points="575.75,525 575.75,533.5 584.25,533.5 584.25,525 595,525 595,535.75 586.5,535.75 586.5,544.25 595,544.25 595,555 584.25,555 584.25,546.5 575.75,546.5 575.75,555 565,555 565,544.25 573.5,544.25 573.5,535.75 565,535.75 565,525"/>
<polygon id="0xed7de0" class="l71d20" points="575.75,565 575.75,573.5 584.25,573.5 584.25,565 595,565 595,575.75 586.5,575.75 586.5,584.25 595,584.25 595,595 584.25,595 584.25,586.5 575.75,586.5 575.75,595 565,595 565,584.25 573.5,584.25 573.5,575.75 565,575.75 565,565"/>
<polygon id="0xf3dc30" class="l71d20" points="575.75,605 575.75,613.5 584.25,613.5 584.25,605 595,605 595,615.75 586.5,615.75 586.5,624.25 595,624.25 595,635 584.25,635 584.25,626.5 575.75,626.5 575.75,635 565,635 565,624.25 573.5,624.25 573.5,615.75 565,615.75 565,605"/>
<polygon id="0xfa5910" class="l71d20" points="615.75,365 615.75,373.5 624.25,373.5 624.25,365 635,365 635,375.75 626.5,375.75 626.5,384.25 635,384.25 635,395 624.25,395 624.25,386.5 615.75,386.5 615.75,395 605,395 605,384.25 613.5,384.25 613.5,375.75 605,375.75 605,365"/>
<polygon id="0xfad0a0" class="l71d20" points="615.75,445 615.75,453.5 624.25,453.5 624.25,445 635,445 635,455.75 626.5,455.75 626.5,464.25 635,464.25 635,475 624.25,475 624.25,466.5 615.75,466.5 615.75,475 605,475 605,464.25 613.5,464.25 613.5,455.75 605,455.75 605,445"/>
<polygon id="0x1031590" class="l71d20" points="615.75,565 615.75,573.5 624.25,573.5 624.25,565 635,565 635,575.75 626.5,575.75 626.5,584.25 635,584.25 635,595 624.25,595 624.25,586.5 615.75,586.5 615.75,595 605,595 605,584.25 613.5,584.25 613.5,575.75 605,575.75 605,565"/>
<polygon id="0xd96cf0" class="l71d20" points="615.75,645 615.75,653.5 624.25,653.5 624.25,645 635,645 635,655.75 626.5,655.75 626.5,664.25 635,664.25 635,675 624.25,675 624.25,666.5 615.75,666.5 615.75,675 605,675 605,664.25 613.5,664.25 613.5,655.75 605,655.75 605,645"/>
<polygon id="0xdf4ea0" class="l71d20" points="655.75,365 655.75,373.5 664.25,373.5 664.25,365 675,365 675,375.75 666.5,375.75 666.5,384.25 675,384.25 675,395 664.25,395 664.25,386.5 655.75,386.5 655.75,395 645,395 645,384.25 653.5,384.25 653.5,375.75 645,375.75 645,365"/>
<polygon id="0xe8c560" class="l71d20" points="655.75,485 655.75,493.5 664.25,493.5 664.25,485 675,485 675,495.75 666.5,495.75 666.5,504.25 675,504.25 675,515 664.25,515 664.25,506.5 655.75,506.5 655.75,515 645,515 645,504.25 653.5,504.25 653.5,495.75 645,495.75 645,485"/>
<polygon id="0xe9ad00" class="l71d20" points="655.75,525 655.75,533.5 664.25,533.5 664.25,525 675,525 675,535.75 666.5,535.75 666.5,544.25 675,544.25 675,555 664.25,555 664.25,546.5 655.75,546.5 655.75,555 645,555 645,544.25 653.5,544.25 653.5,535.75 645,535.75 645,525"/>
<polygon id="0xf523b0" class="l71d20" points="655.75,645 655.75,653.5 664.25,653.5 664.25,645 675,645 675,655.75 666.5,655.75 666.5,664.25 675,664.25 675,675 664.25,675 664.25,666.5 655.75,666.5 655.75,675 645,675 645,664.25 653.5,664.25 653.5,655.75 645,655.75 645,645"/>
<polygon id="0xea8ab0" class="l71d20" points="735.75,5 735.75,13.5 744.25,13.5 744.25,5 755,5 755,15.75 746.5,15.75 746.5,24.25 755,24.25 755,35 744.25,35 744.25,26.5 735.75,26.5 735.75,35 725,35 725,24.25 733.5,24.25 733.5,15.75 725,15.75 725,5"/>
<polygon id="0xdc12b0" class="l71d20" points="735.75,45 735.75,53.5 744.25,53.5 744.25,45 755,45 755,55.75 746.5,55.75 746.5,64.25 755,64.25 755,75 744.25,75 744.25,66.5 735.75,66.5 735.75,75 725,75 725,64.25 733.5,64.25 733.5,55.75 725,55.75 725,45"/>
<polygon id="0xfc3350" class="l71d20" points="735.75,125 735.75,133.5 744.25,133.5 744.25,125 755,125 755,135.75 746.5,135.75 746.5,144.25 755,144.25 755,155 744.25,155 744.25,146.5 735.75,146.5 735.75,155 725,155 725,144.25 733.5,144.25 733.5,135.75 725,135.75 725,125"/>
<polygon id="0xff54f0" class="l71d20" points="735.75,165 735.75,173.5 744.25,173.5 744.25,165 755,165 755,175.75 746.5,175.75 746.5,184.25 755,184.25 755,195 744.25,195 744.25,186.5 735.75,186.5 735.75,195 725,195 725,184.25 733.5,184.25 733.5,175.75 725,175.75 725,165"/>
<polygon id="0xff5560" class="l71d20" points="735.75,245 735.75,253.5 744.25,253.5 744.25,245 755,245 755,255.75 746.5,255.75 746.5,264.25 755,264.25 755,275 744.25,275 744.25,266.5 735.75,266.5 735.75,275 725,275 725,264.25 733.5,264.25 733.5,255.75 725,255.75 725,245"/>
<polygon id="0x1038810" class="l71d20" points="735.75,285 735.75,293.5 744.25,293.5 744.25,285 755,285 755,295.75 746.5,295.75 746.5,304.25 755,304.25 755,315 744.25,315 744.25,306.5 735.75,306.5 735.75,315 725,315 725,304.25 733.5,304.25 733.5,295.75 725,295.75 725,285"/>
<polygon id="0x1038880" class="l71d20" points="815.75,5 815.75,13.5 824.25,13.5 824.25,5 835,5 835,15.75 826.5,15.75 826.5,24.25 835,24.25 835,35 824.25,35 824.25,26.5 815.75,26.5 815.75,35 805,35 805,24.25 813.5,24.25 813.5,15.75 805,15.75 805,5"/>
<polygon id="0x105f820" class="l71d20" points="815.75,125 815.75,133.5 824.25,133.5 824.25,125 835,125 835,135.75 826.5,135.75 826.5,144.25 835,144.25 835,155 824.25,155 824.25,146.5 815.75,146.5 815.75,155 805,155 805,144.25 813.5,144.25 813.5,135.75 805,135.75 805,125"/>
<polygon id="0x105f890" class="l71d20" points="815.75,165 815.75,173.5 824.25,173.5 824.25,165 835,165 835,175.75 826.5,175.75 826.5,184.25 835,184.25 835,195 824.25,195 824.25,186.5 815.75,186.5 815.75,195 805,195 805,184.25 813.5,184.25 813.5,175.75 805,175.75 805,165"/>
<polygon id="0xe04870" class="l71d20" points="815.75,285 815.75,293.5 824.25,293.5 824.25,285 835,285 835,295.75 826.5,295.75 826.5,304.25 835,304.25 835,315 824.25,315 824.25,306.5 815.75,306.5 815.75,315 805,315 805,304.25 813.5,304.25 813.5,295.75 805,295.75 805,285"/>
<polygon id="0xe048e0" class="l71d20" points="935.75,5 935.75,13.5 944.25,13.5 944.25,5 955,5 955,15.75 946.5,15.75 946.5,24.25 955,24.25 955,35 944.25,35 944.25,26.5 935.75,26.5 935.75,35 925,35 925,24.25 933.5,24.25 933.5,15.75 925,15.75 925,5"/>
<polygon id="0xd9ba80" class="l71d20" points="935.75,125 935.75,133.5 944.25,133.5 944.25,125 955,125 955,135.75 946.5,135.75 946.5,144.25 955,144.25 955,155 944.25,155 944.25,146.5 935.75,146.5 935.75,155 925,155 925,144.25 933.5,144.25 933.5,135.75 925,135.75 925,125"/>
<polygon id="0xd9baf0" class="l71d20" points="935.75,165 935.75,173.5 944.25,173.5 944.25,165 955,165 955,175.75 946.5,175.75 946.5,184.25 955,184.25 955,195 944.25,195 944.25,186.5 935.75,186.5 935.75,195 925,195 925,184.25 933.5,184.25 933.5,175.75 925,175.75 925,165"/>
<polygon id="0xe22ea0" class="l71d20" points="935.75,285 935.75,293.5 944.25,293.5 944.25,285 955,285 955,295.75 946.5,295.75 946.5,304.25 955,304.25 955,315 944.25,315 944.25,306.5 935.75,306.5 935.75,315 925,315 925,304.25 933.5,304.25 933.5,295.75 925,295.75 925,285"/>
<polygon id="0xe22f10" class="l71d20" points="1015.75,5 1015.75,13.5 1024.25,13.5 1024.25,5 1035,5 1035,15.75 1026.5,15.75 1026.5,24.25 1035,24.25 1035,35 1024.25,35 1024.25,26.5 1015.75,26.5 1015.75,35 1005,35 1005,24.25 1013.5,24.25 1013.5,15.75 1005,15.75 1005,5"/>
<polygon id="0xe3ac90" class="l71d20" points="1015.75,45 1015.75,53.5 1024.25,53.5 1024.25,45 1035,45 1035,55.75 1026.5,55.75 1026.5,64.25 1035,64.25 1035,75 1024.25,75 1024.25,66.5 1015.75,66.5 1015.75,75 1005,75 1005,64.25 1013.5,64.25 1013.5,55.75 1005,55.75 1005,45"/>
<polygon id="0xe3ad00" class="l71d20" points="1015.75,125 1015.75,133.5 1024.25,133.5 1024.25,125 1035,125 1035,135.75 1026.5,135.75 1026.5,144.25 1035,144.25 1035,155 1024.25,155 1024.25,146.5 1015.75,146.5 1015.75,155 1005,155 1005,144.25 1013.5,144.25 1013.5,135.75 1005,135.75 1005,125"/>
<polygon id="0xe5d580" class="l71d20" points="1015.75,165 1015.75,173.5 1024.25,173.5 1024.25,165 1035,165 1035,175.75 1026.5,175.75 1026.5,184.25 1035,184.25 1035,195 1024.25,195 1024.25,186.5 1015.75,186.5 1015.75,195 1005,195 1005,184.25 1013.5,184.25 1013.5,175.75 1005,175.75 1005,165"/>
<polygon id="0xe5d5f0" class="l71d20" points="1015.75,245 1015.75,253.5 1024.25,253.5 1024.25,245 1035,245 1035,255.75 1026.5,255.75 1026.5,264.25 1035,264.25 1035,275 1024.25,275 1024.25,266.5 1015.75,266.5 1015.75,275 1005,275 1005,264.25 1013.5,264.25 1013.5,255.75 1005,255.75 1005,245"/>
<polygon id="0xe63c70" class="l71d20" points="1015.75,285 1015.75,293.5 1024.25,293.5 1024.25,285 1035,285 1035,295.75 1026.5,295.75 1026.5,304.25 1035,304.25 1035,315 1024.25,315 1024.25,306.5 1015.75,306.5 1015.75,315 1005,315 1005,304.25 1013.5,304.25 1013.5,295.75 1005,295.75 1005,285"/>
<polygon id="0xe63ce0" class="l71d20" points="735.75,365 735.75,373.5 744.25,373.5 744.25,365 755,365 755,375.75 746.5,375.75 746.5,384.25 755,384.25 755,395 744.25,395 744.25,386.5 735.75,386.5 735.75,395 725,395 725,384.25 733.5,384.25 733.5,375.75 725,375.75 725,365"/>
<polygon id="0xebc390" class="l71d20" points="735.75,405 735.75,413.5 744.25,413.5 744.25,405 755,405 755,415.75 746.5,415.75 746.5,424.25 755,424.25 755,435 744.25,435 744.25,426.5 735.75,426.5 735.75,435 725,435 725,424.25 733.5,424.25 733.5,415.75 725,415.75 725,405"/>
<polygon id="0xebc400" class="l71d20" points="735.75,445 735.75,453.5 744.25,453.5 744.25,445 755,445 755,455.75 746.5,455.75 746.5,464.25 755,464.25 755,475 744.25,475 744.25,466.5 735.75,466.5 735.75,475 725,475 725,464.25 733.5,464.25 733.5,455.75 725,455.75 725,445"/>
<polygon id="0xea29e0" class="l71d20" points="735.75,565 735.75,573.5 744.25,573.5 744.25,565 755,565 755,575.75 746.5,575.75 746.5,584.25 755,584.25 755,595 744.25,595 744.25,586.5 735.75,586.5 735.75,595 725,595 725,584.25 733.5,584.25 733.5,575.75 725,575.75 725,565"/>
<polygon id="0xea2a50" class="l71d20" points="735.75,605 735.75,613.5 744.25,613.5 744.25,605 755,605 755,615.75 746.5,615.75 746.5,624.25 755,624.25 755,635 744.25,635 744.25,626.5 735.75,626.5 735.75,635 725,635 725,624.25 733.5,624.25 733.5,615.75 725,615.75 725,605"/>
<polygon id="0xf6c160" class="l71d20" points="735.75,645 735.75,653.5 744.25,653.5 744.25,645 755,645 755,655.75 746.5,655.75 746.5,664.25 755,664.25 755,675 744.25,675 744.25,666.5 735.75,666.5 735.75,675 725,675 725,664.25 733.5,664.25 733.5,655.75 725,655.75 725,645"/>
<polygon id="0xf6c1d0" class="l71d20" points="775.75,445 775.75,453.5 784.25,453.5 784.25,445 795,445 795,455.75 786.5,455.75 786.5,464.25 795,464.25 795,475 784.25,475 784.25,466.5 775.75,466.5 775.75,475 765,475 765,464.25 773.5,464.25 773.5,455.75 765,455.75 765,445"/>
<polygon id="0xf72940" class="l71d20" points="775.75,485 775.75,493.5 784.25,493.5 784.25,485 795,485 795,495.75 786.5,495.75 786.5,504.25 795,504.25 795,515 784.25,515 784.25,506.5 775.75,506.5 775.75,515 765,515 765,504.25 773.5,504.25 773.5,495.75 765,495.75 765,485"/>
<polygon id="0xf729b0" class="l71d20" points="775.75,525 775.75,533.5 784.25,533.5 784.25,525 795,525 795,535.75 786.5,535.75 786.5,544.25 795,544.25 795,555 784.25,555 784.25,546.5 775.75,546.5 775.75,555 765,555 765,544.25 773.5,544.25 773.5,535.75 765,535.75 765,525"/>
<polygon id="0xfa50d0" class="l71d20" points="775.75,565 775.75,573.5 784.25,573.5 784.25,565 795,565 795,575.75 786.5,575.75 786.5,584.25 795,584.25 795,595 784.25,595 784.25,586.5 775.75,586.5 775.75,595 765,595 765,584.25 773.5,584.25 773.5,575.75 765,575.75 765,565"/>
<polygon id="0xfa5140" class="l71d20" points="815.75,405 815.75,413.5 824.25,413.5 824.25,405 835,405 835,415.75 826.5,415.75 826.5,424.25 835,424.25 835,435 824.25,435 824.25,426.5 815.75,426.5 815.75,435 805,435 805,424.25 813.5,424.25 813.5,415.75 805,415.75 805,405"/>
<polygon id="0xfc0aa0" class="l71d20" points="815.75,445 815.75,453.5 824.25,453.5 824.25,445 835,445 835,455.75 826.5,455.75 826.5,464.25 835,464.25 835,475 824.25,475 824.25,466.5 815.75,466.5 815.75,475 805,475 805,464.25 813.5,464.25 813.5,455.75 805,455.75 805,445"/>
<polygon id="0xfc0b10" class="l71d20" points="815.75,565 815.75,573.5 824.25,573.5 824.25,565 835,565 835,575.75 826.5,575.75 826.5,584.25 835,584.25 835,595 824.25,595 824.25,586.5 815.75,586.5 815.75,595 805,595 805,584.25 813.5,584.25 813.5,575.75 805,575.75 805,565"/>
<polygon id="0x1012360" class="l71d20" points="815.75,605 815.75,613.5 824.25,613.5 824.25,605 835,605 835,615.75 826.5,615.75 826.5,624.25 835,624.25 835,635 824.25,635 824.25,626.5 815.75,626.5 815.75,635 805,635 805,624.25 813.5,624.25 813.5,615.75 805,615.75 805,605"/>
<polygon id="0x10123d0" class="l71d20" points="855.75,365 855.75,373.5 864.25,373.5 864.25,365 875,365 875,375.75 866.5,375.75 866.5,384.25 875,384.25 875,395 864.25,395 864.25,386.5 855.75,386.5 855.75,395 845,395 845,384.25 853.5,384.25 853.5,375.75 845,375.75 845,365"/>
<polygon id="0x1027e30" class="l71d20" points="855.75,445 855.75,453.5 864.25,453.5 864.25,445 875,445 875,455.75 866.5,455.75 866.5,464.25 875,464.25 875,475 864.25,475 864.25,466.5 855.75,466.5 855.75,475 845,475 845,464.25 853.5,464.25 853.5,455.75 845,455.75 845,445"/>
<polygon id="0x1027ea0" class="l71d20" points="855.75,565 855.75,573.5 864.25,573.5 864.25,565 875,565 875,575.75 866.5,575.75 866.5,584.25 875,584.25 875,595 864.25,595 864.25,586.5 855.75,586.5 855.75,595 845,595 845,584.25 853.5,584.25 853.5,575.75 845,575.75 845,565"/>
<polygon id="0xd947a0" class="l71d20" points="855.75,645 855.75,653.5 864.25,653.5 864.25,645 875,645 875,655.75 866.5,655.75 866.5,664.25 875,664.25 875,675 864.25,675 864.25,666.5 855.75,666.5 855.75,675 845,675 845,664.25 853.5,664.25 853.5,655.75 845,655.75 845,645"/>
<polygon id="0xd94810" class="l71d20" points="895.75,365 895.75,373.5 904.25,373.5 904.25,365 915,365 915,375.75 906.5,375.75 906.5,384.25 915,384.25 915,395 904.25,395 904.25,386.5 895.75,386.5 895.75,395 885,395 885,384.25 893.5,384.25 893.5,375.75 885,375.75 885,365"/>
<polygon id="0xdab510" class="l71d20" points="895.75,445 895.75,453.5 904.25,453.5 904.25,445 915,445 915,455.75 906.5,455.75 906.5,464.25 915,464.25 915,475 904.25,475 904.25,466.5 895.75,466.5 895.75,475 885,475 885,464.25 893.5,464.25 893.5,455.75 885,455.75 885,445"/>
<polygon id="0xdab580" class="l71d20" points="895.75,565 895.75,573.5 904.25,573.5 904.25,565 915,565 915,575.75 906.5,575.75 906.5,584.25 915,584.25 915,595 904.25,595 904.25,586.5 895.75,586.5 895.75,595 885,595 885,584.25 893.5,584.25 893.5,575.75 885,575.75 885,565"/>
<polygon id="0xe0c210" class="l71d20" points="895.75,645 895.75,653.5 904.25,653.5 904.25,645 915,645 915,655.75 906.5,655.75 906.5,664.25 915,664.25 915,675 904.25,675 904.25,666.5 895.75,666.5 895.75,675 885,675 885,664.25 893.5,664.25 893.5,655.75 885,655.75 885,645"/>
<polygon id="0xe0c280" class="l71d20" points="935.75,405 935.75,413.5 944.25,413.5 944.25,405 955,405 955,415.75 946.5,415.75 946.5,424.25 955,424.25 955,435 944.25,435 944.25,426.5 935.75,426.5 935.75,435 925,435 925,424.25 933.5,424.25 933.5,415.75 925,415.75 925,405"/>
<polygon id="0xe2dd20" class="l71d20" points="935.75,445 935.75,453.5 944.25,453.5 944.25,445 955,445 955,455.75 946.5,455.75 946.5,464.25 955,464.25 955,475 944.25,475 944.25,466.5 935.75,466.5 935.75,475 925,475 925,464.25 933.5,464.25 933.5,455.75 925,455.75 925,445"/>
<polygon id="0xe2dd90" class="l71d20" points="935.75,565 935.75,573.5 944.25,573.5 944.25,565 955,565 955,575.75 946.5,575.75 946.5,584.25 955,584.25 955,595 944.25,595 944.25,586.5 935.75,586.5 935.75,595 925,595 925,584.25 933.5,584.25 933.5,575.75 925,575.75 925,565"/>
<polygon id="0xeba600" class="l71d20" points="935.75,605 935.75,613.5 944.25,613.5 944.25,605 955,605 955,615.75 946.5,615.75 946.5,624.25 955,624.25 955,635 944.25,635 944.25,626.5 935.75,626.5 935.75,635 925,635 925,624.25 933.5,624.25 933.5,615.75 925,615.75 925,605"/>
<polygon id="0xeba670" class="l71d20" points="975.75,445 975.75,453.5 984.25,453.5 984.25,445 995,445 995,455.75 986.5,455.75 986.5,464.25 995,464.25 995,475 984.25,475 984.25,466.5 975.75,466.5 975.75,475 965,475 965,464.25 973.5,464.25 973.5,455.75 965,455.75 965,445"/>
<polygon id="0xec8c70" class="l71d20" points="975.75,485 975.75,493.5 984.25,493.5 984.25,485 995,485 995,495.75 986.5,495.75 986.5,504.25 995,504.25 995,515 984.25,515 984.25,506.5 975.75,506.5 975.75,515 965,515 965,504.25 973.5,504.25 973.5,495.75 965,495.75 965,485"/>
<polygon id="0xec8ce0" class="l71d20" points="975.75,525 975.75,533.5 984.25,533.5 984.25,525 995,525 995,535.75 986.5,535.75 986.5,544.25 995,544.25 995,555 984.25,555 984.25,546.5 975.75,546.5 975.75,555 965,555 965,544.25 973.5,544.25 973.5,535.75 965,535.75 965,525"/>
<polygon id="0xf33700" class="l71d20" points="975.75,565 975.75,573.5 984.25,573.5 984.25,565 995,565 995,575.75 986.5,575.75 986.5,584.25 995,584.25 995,595 984.25,595 984.25,586.5 975.75,586.5 975.75,595 965,595 965,584.25 973.5,584.25 973.5,575.75 965,575.75 965,565"/>
<polygon id="0xf33770" class="l71d20" points="1015.75,365 1015.75,373.5 1024.25,373.5 1024.25,365 1035,365 1035,375.75 1026.5,375.75 1026.5,384.25 1035,384.25 1035,395 1024.25,395 1024.25,386.5 1015.75,386.5 1015.75,395 1005,395 1005,384.25 1013.5,384.25 1013.5,375.75 1005,375.75 1005,365"/>
<polygon id="0xf31180" class="l71d20" points="1015.75,405 1015.75,413.5 1024.25,413.5 1024.25,405 1035,405 1035,415.75 1026.5,415.75 1026.5,424.25 1035,424.25 1035,435 1024.25,435 1024.25,426.5 1015.75,426.5 1015.75,435 1005,435 1005,424.25 1013.5,424.25 1013.5,415.75 1005,415.75 1005,405"/>
<polygon id="0xf311f0" class="l71d20" points="1015.75,445 1015.75,453.5 1024.25,453.5 1024.25,445 1035,445 1035,455.75 1026.5,455.75 1026.5,464.25 1035,464.25 1035,475 1024.25,475 1024.25,466.5 1015.75,466.5 1015.75,475 1005,475 1005,464.25 1013.5,464.25 1013.5,455.75 1005,455.75 1005,445"/>
<polygon id="0xf9ff50" class="l71d20" points="1015.75,565 1015.75,573.5 1024.25,573.5 1024.25,565 1035,565 1035,575.75 1026.5,575.75 1026.5,584.25 1035,584.25 1035,595 1024.25,595 1024.25,586.5 1015.75,586.5 1015.75,595 1005,595 1005,584.25 1013.5,584.25 1013.5,575.75 1005,575.75 1005,565"/>
<polygon id="0xf9ffc0" class="l71d20" points="1015.75,605 1015.75,613.5 1024.25,613.5 1024.25,605 1035,605 1035,615.75 1026.5,615.75 1026.5,624.25 1035,624.25 1035,635 1024.25,635 1024.25,626.5 1015.75,626.5 1015.75,635 1005,635 1005,624.25 1013.5,624.25 1013.5,615.75 1005,615.75 1005,605"/>
<polygon id="0xdaf7d0" class="l71d20" points="1015.75,645 1015.75,653.5 1024.25,653.5 1024.25,645 1035,645 1035,655.75 1026.5,655.75 1026.5,664.25 1035,664.25 1035,675 1024.25,675 1024.25,666.5 1015.75,666.5 1015.75,675 1005,675 1005,664.25 1013.5,664.25 1013.5,655.75 1005,655.75 1005,645"/>
<polygon id="0xe76bb0" class="l235d4" points="0,0 40,0 40,40 0,40"/>
</g>
</svg>