<?xml version="1.0" encoding="UTF-8"?>
<svg xmlns="http://www.w3.org/2000/svg" xmlns:xlink="http://www.w3.org/1999/xlink" width="346.5" height="346.5" viewBox="-15.75 -330.75 346.5 346.5">
<defs>
<style type="text/css">
.l235d4 {stroke: #0067A5; fill: #0067A5; fill-opacity: 0.5;}
.l71d20 {stroke: #B3446C; fill: #B3446C; fill-opacity: 0.5;}
</style>
</defs>
<rect x="-15.75" y="-330.75" width="346.5" height="346.5" fill="#222222" stroke="none"/>
<g id="my_logo" transform="scale(1 -1)">
<polygon id="0x2155220" class="l71d20" points="15.75,125 15.75,133.5 24.25,133.5 24.25,125 35,125 35,135.75 26.5,135.75 26.5,144.25 35,144.25 35,155 24.25,155 24.25,146.5 15.75,146.5 15.75,155 5,155 5,144.25 13.5,144.25 13.5,135.75 5,135.75 5,125"/>
<polygon id="0x2155fa0" class="l71d20" points="15.75,165 15.75,173.5 24.25,173.5 24.25,165 35,165 35,175.75 26.5,175.75 26.5,184.25 35,184.25 35,195 24.25,195 24.25,186.5 15.75,186.5 15.75,195 5,195 5,184.25 13.5,184.25 13.5,175.75 5,175.75 5,165"/>
<polygon id="0x2156130" class="l71d20" points="55.75,45 55.75,53.5 64.25,53.5 64.25,45 75,45 75,55.75 66.5,55.75 66.5,64.25 75,64.25 75,75 64.25,75 64.25,66.5 55.75,66.5 55.75,75 45,75 45,64.25 53.5,64.25 53.5,55.75 45,55.75 45,45"/>
<polygon id="0x21561a0" class="l71d20" points="55.75,85 55.75,93.5 64.25,93.5 64.25,85 75,85 75,95.75 66.5,95.75 66.5,104.25 75,104.25 75,115 64.25,115 64.25,106.5 55.75,106.5 55.75,115 45,115 45,104.25 53.5,104.25 53.5,95.75 45,95.75 45,85"/>
<polygon id="0x2156210" class="l71d20" points="55.75,125 55.75,133.5 64.25,133.5 64.25,125 75,125 75,135.75 66.5,135.75 66.5,144.25 75,144.25 75,155 64.25,155 64.25,146.5 55.75,146.5 55.75,155 45,155 45,144.25 53.5,144.25 53.5,135.75 45,135.75 45,125"/>
<polygon id="0x2156280" class="l71d20" points="55.75,165 55.75,173.5 64.25,173.5 64.25,165 75,165 75,175.75 66.5,175.75 66.5,184.25 75,184.25 75,195 64.25,195 64.25,186.5 55.75,186.5 55.75,195 45,195 45,184.25 53.5,184.25 53.5,175.75 45,175.75 45,165"/>
<polygon id="0x2156340" class="l71d20" points="55.75,205 55.75,213.5 64.25,213.5 64.25,205 75,205 75,215.75 66.5,215.75 66.5,224.25 75,224.25 75,235 64.25,235 64.25,226.5 55.75,226.5 55.75,235 45,235 45,224.25 53.5,224.25 53.5,215.75 45,215.75 45,205"/>
<polygon id="0x21563b0" class="l71d20" points="55.75,245 55.75,253.5 64.25,253.5 64.25,245 75,245 75,255.75 66.5,255.75 66.5,264.25 75,264.25 75,275 64.25,275 64.25,266.5 55.75,266.5 55.75,275 45,275 45,264.25 53.5,264.25 53.5,255.75 45,255.75 45,245"/>
<polygon id="0x2156570" class="l71d20" points="95.75,85 95.75,93.5 104.25,93.5 104.25,85 115,85 115,95.75 106.5,95.75 106.5,104.25 115,104.25 115,115 104.25,115 104.25,106.5 95.75,106.5 95.75,115 85,115 85,104.25 93.5,104.25 93.5,95.75 85,95.75 85,85"/>
<polygon id="0x2156730" class="l71d20" points="95.75,125 95.75,133.5 104.25,133.5 104.25,125 115,125 115,135.75 106.5,135.75 106.5,144.25 115,144.25 115,155 104.25,155 104.25,146.5 95.75,146.5 95.75,155 85,155 85,144.25 93.5,144.25 93.5,135.75 85,135.75 85,125"/>
<polygon id="0x21568f0" class="l71d20" points="95.75,165 95.75,173.5 104.25,173.5 104.25,165 115,165 115,175.75 106.5,175.75 106.5,184.25 115,184.25 115,195 104.25,195 104.25,186.5 95.75,186.5 95.75,195 85,195 85,184.25 93.5,184.25 93.5,175.75 85,175.75 85,165"/>
<polygon id="0x2156ab0" class="l71d20" points="95.75,205 95.75,213.5 104.25,213.5 104.25,205 115,205 115,215.75 106.5,215.75 106.5,224.25 115,224.25 115,235 104.25,235 104.25,226.5 95.75,226.5 95.75,235 85,235 85,224.25 93.5,224.25 93.5,215.75 85,215.75 85,205"/>
<polygon id="0x2156c70" class="l71d20" points="135.75,5 135.75,13.5 144.25,13.5 144.25,5 155,5 155,15.75 146.5,15.75 146.5,24.25 155,24.25 155,35 144.25,35 144.25,26.5 135.75,26.5 135.75,35 125,35 125,24.25 133.5,24.25 133.5,15.75 125,15.75 125,5"/>
<polygon id="0x2156e30" class="l71d20" points="135.75,85 135.75,93.5 144.25,93.5 144.25,85 155,85 155,95.75 146.5,95.75 146.5,104.25 155,104.25 155,115 144.25,115 144.25,106.5 135.75,106.5 135.75,115 125,115 125,104.25 133.5,104.25 133.5,95.75 125,95.75 125,85"/>
<polygon id="0x2156ff0" class="l71d20" points="135.75,125 135.75,133.5 144.25,133.5 144.25,125 155,125 155,135.75 146.5,135.75 146.5,144.25 155,144.25 155,155 144.25,155 144.25,146.5 135.75,146.5 135.75,155 125,155 125,144.25 133.5,144.25 133.5,135.75 125,135.75 125,125"/>
<polygon id="0x21571b0" class="l71d20" points="135.75,165 135.75,173.5 144.25,173.5 144.25,165 155,165 155,175.75 146.5,175.75 146.5,184.25 155,184.25 155,195 144.25,195 144.25,186.5 135.75,186.5 135.75,195 125,195 125,184.25 133.5,184.25 133.5,175.75 125,175.75 125,165"/>
<polygon id="0x2157370" class="l71d20" points="135.75,205 135.75,213.5 144.25,213.5 144.25,205 155,205 155,215.75 146.5,215.75 146.5,224.25 155,224.25 155,235 144.25,235 144.25,226.5 135.75,226.5 135.75,235 125,235 125,224.25 133.5,224.25 133.5,215.75 125,215.75 125,205"/>
<polygon id="0x2157530" class="l71d20" points="135.75,285 135.75,293.5 144.25,293.5 144.25,285 155,285 155,295.75 146.5,295.75 146.5,304.25 155,304.25 155,315 144.25,315 144.25,306.5 135.75,306.5 135.75,315 125,315 125,304.25 133.5,304.25 133.5,295.75 125,295.75 125,285"/>
<polygon id="0x21576f0" class="l71d20" points="175.75,5 175.75,13.5 184.25,13.5 184.25,5 195,5 195,15.75 186.5,15.75 186.5,24.25 195,24.25 195,35 184.25,35 184.25,26.5 175.75,26.5 175.75,35 165,35 165,24.25 173.5,24.25 173.5,15.75 165,15.75 165,5"/>
<polygon id="0x21578b0" class="l71d20" points="175.75,85 175.75,93.5 184.25,93.5 184.25,85 195,85 195,95.75 186.5,95.75 186.5,104.25 195,104.25 195,115 184.25,115 184.25,106.5 175.75,106.5 175.75,115 165,115 165,104.25 173.5,104.25 173.5,95.75 165,95.75 165,85"/>
<polygon id="0x2157a70" class="l71d20" points="175.75,125 175.75,133.5 184.25,133.5 184.25,125 195,125 195,135.75 186.5,135.75 186.5,144.25 195,144.25 195,155 184.25,155 184.25,146.5 175.75,146.5 175.75,155 165,155 165,144.25 173.5,144.25 173.5,135.75 165,135.75 165,125"/>
<polygon id="0x2157c30" class="l71d20" points="175.75,165 175.75,173.5 184.25,173.5 184.25,165 195,165 195,175.75 186.5,175.75 186.5,184.25 195,184.25 195,195 184.25,195 184.25,186.5 175.75,186.5 175.75,195 165,195 165,184.25 173.5,184.25 173.5,175.75 165,175.75 165,165"/>
<polygon id="0x2157df0" class="l71d20" points="175.75,205 175.75,213.5 184.25,213.5 184.25,205 195,205 195,215.75 186.5,215.75 186.5,224.25 195,224.25 195,235 184.25,235 184.25,226.5 175.75,226.5 175.75,235 165,235 165,224.25 173.5,224.25 173.5,215.75 165,215.75 165,205"/>
<polygon id="0x2157fb0" class="l71d20" points="175.75,285 175.75,293.5 184.25,293.5 184.25,285 195,285 195,295.75 186.5,295.75 186.5,304.25 195,304.25 195,315 184.25,315 184.25,306.5 175.75,306.5 175.75,315 165,315 165,304.25 173.5,304.25 173.5,295.75 165,295.75 165,285"/>
<polygon id="0x2158170" class="l71d20" points="215.75,85 215.75,93.5 224.25,93.5 224.25,85 235,85 235,95.75 226.5,95.75 226.5,104.25 235,104.25 235,115 224.25,115 224.25,106.5 215.75,106.5 215.75,115 205,115 205,104.25 213.5,104.25 213.5,95.75 205,95.75 205,85"/>
<polygon id="0x2158330" class="l71d20" points="215.75,125 215.75,133.5 224.25,133.5 224.25,125 235,125 235,135.75 226.5,135.75 226.5,144.25 235,144.25 235,155 224.25,155 224.25,146.5 215.75,146.5 215.75,155 205,155 205,144.25 213.5,144.25 213.5,135.75 205,135.75 205,125"/>
<polygon id="0x21584f0" class="l71d20" points="215.75,165 215.75,173.5 224.25,173.5 224.25,165 235,165 235,175.75 226.5,175.75 226.5,184.25 235,184.25 235,195 224.25,195 224.25,186.5 215.75,186.5 215.75,195 205,195 205,184.25 213.5,184.25 213.5,175.75 205,175.75 205,165"/>
<polygon id="0x21586b0" class="l71d20" points="215.75,205 215.75,213.5 224.25,213.5 224.25,205 235,205 235,215.75 226.5,215.75 226.5,224.25 235,224.25 235,235 224.25,235 224.25,226.5 215.75,226.5 215.75,235 205,235 205,224.25 213.5,224.25 213.5,215.75 205,215.75 205,205"/>
<polygon id="0x2158870" class="l71d20" points="255.75,45 255.75,53.5 264.25,53.5 264.25,45 275,45 275,55.75 266.5,55.75 266.5,64.25 275,64.25 275,75 264.25,75 264.25,66.5 255.75,66.5 255.75,75 245,75 245,64.25 253.5,64.25 253.5,55.75 245,55.75 245,45"/>
<polygon id="0x2158a30" class="l71d20" points="255.75,85 255.75,93.5 264.25,93.5 264.25,85 275,85 275,95.75 266.5,95.75 266.5,104.25 275,104.25 275,115 264.25,115 264.25,106.5 255.75,106.5 255.75,115 245,115 245,104.25 253.5,104.25 253.5,95.75 245,95.75 245,85"/>
<polygon id="0x2158bf0" class="l71d20" points="255.75,125 255.75,133.5 264.25,133.5 264.25,125 275,125 275,135.75 266.5,135.75 266.5,144.25 275,144.25 275,155 264.25,155 264.25,146.5 255.75,146.5 255.75,155 245,155 245,144.25 253.5,144.25 253.5,135.75 245,135.75 245,125"/>
<polygon id="0x2158db0" class="l71d20" points="255.75,165 255.75,173.5 264.25,173.5 264.25,165 275,165 275,175.75 266.5,175.75 266.5,184.25 275,184.25 275,195 264.25,195 264.25,186.5 255.75,186.5 255.75,195 245,195 245,184.25 253.5,184.25 253.5,175.75 245,175.75 245,165"/>
<polygon id="0x2158f70" class="l71d20" points="255.75,205 255.75,213.5 264.25,213.5 264.25,205 275,205 275,215.75 266.5,215.75 266.5,224.25 275,224.25 275,235 264.25,235 264.25,226.5 255.75,226.5 255.75,235 245,235 245,224.25 253.5,224.25 253.5,215.75 245,215.75 245,205"/>
<polygon id="0x2159340" class="l71d20" points="255.75,245 255.75,253.5 264.25,253.5 264.25,245 275,245 275,255.75 266.5,255.75 266.5,264.25 275,264.25 275,275 264.25,275 264.25,266.5 255.75,266.5 255.75,275 245,275 245,264.25 253.5,264.25 253.5,255.75 245,255.75 245,245"/>
<polygon id="0x2159500" class="l71d20" points="295.75,125 295.75,133.5 304.25,133.5 304.25,125 315,125 315,135.75 306.5,135.75 306.5,144.25 315,144.25 315,155 304.25,155 304.25,146.5 295.75,146.5 295.75,155 285,155 285,144.25 293.5,144.25 293.5,135.75 285,135.75 285,125"/>
<polygon id="0x21596c0" class="l71d20" points="295.75,165 295.75,173.5 304.25,173.5 304.25,165 315,165 315,175.75 306.5,175.75 306.5,184.25 315,184.25 315,195 304.25,195 304.25,186.5 295.75,186.5 295.75,195 285,195 285,184.25 293.5,184.25 293.5,175.75 285,175.75 285,165"/>
<polygon id="0x2132b20" class="l235d4" points="0,0 40,0 40,40 0,40"/>
</g>
</svg>