<?xml version="1.0" encoding="UTF-8"?>
<svg xmlns="http://www.w3.org/2000/svg" xmlns:xlink="http://www.w3.org/1999/xlink" width="309.448" height="349.448" viewBox="-15.884 -333.564 309.448 349.448">
<defs>
<style type="text/css">
.l235d4 {stroke: #0067A5; fill: #0067A5; fill-opacity: 0.5;}
.l71d20 {stroke: #B3446C; fill: #B3446C; fill-opacity: 0.5;}
</style>
</defs>
<rect x="-15.884" y="-333.564" width="309.448" height="349.448" fill="#222222" stroke="none"/>
<g id="my_logo" transform="scale(1 -1)">
<polygon id="0x26558e0" class="l71d20" points="77.68,49.39 67.07,60 77.68,70.61 70.61,77.68 60,67.07 49.39,77.68 42.32,70.61 52.93,60 42.32,49.39 49.39,42.32 60,52.93 70.61,42.32"/>
<polygon id="0x28b9020" class="l71d20" points="77.68,89.39 67.07,100 77.68,110.61 70.61,117.68 60,107.07 49.39,117.68 42.32,110.61 52.93,100 42.32,89.39 49.39,82.32 60,92.93 70.61,82.32"/>
<polygon id="0x28ae3c0" class="l71d20" points="77.68,209.39 67.07,220 77.68,230.61 70.61,237.68 60,227.07 49.39,237.68 42.32,230.61 52.93,220 42.32,209.39 49.39,202.32 60,212.93 70.61,202.32"/>
<polygon id="0x2750ed0" class="l71d20" points="77.68,249.39 67.07,260 77.68,270.61 70.61,277.68 60,267.07 49.39,277.68 42.32,270.61 52.93,260 42.32,249.39 49.39,242.32 60,252.93 70.61,242.32"/>
<polygon id="0x28e5b70" class="l71d20" points="117.68,9.39 107.07,20 117.68,30.61 110.61,37.68 100,27.07 89.39,37.68 82.32,30.61 92.93,20 82.32,9.39 89.39,2.32 100,12.93 110.61,2.32"/>
<polygon id="0x295d200" class="l71d20" points="117.68,89.39 107.07,100 117.68,110.61 110.61,117.68 100,107.07 89.39,117.68 82.32,110.61 92.93,100 82.32,89.39 89.39,82.32 100,92.93 110.61,82.32"/>
<polygon id="0x29509c0" class="l71d20" points="117.68,129.39 107.07,140 117.68,150.61 110.61,157.68 100,147.07 89.39,157.68 82.32,150.61 92.93,140 82.32,129.39 89.39,122.32 100,132.93 110.61,122.32"/>
<polygon id="0x297ec30" class="l71d20" points="117.68,169.39 107.07,180 117.68,190.61 110.61,197.68 100,187.07 89.39,197.68 82.32,190.61 92.93,180 82.32,169.39 89.39,162.32 100,172.93 110.61,162.32"/>
<polygon id="0x29915e0" class="l71d20" points="117.68,209.39 107.07,220 117.68,230.61 110.61,237.68 100,227.07 89.39,237.68 82.32,230.61 92.93,220 82.32,209.39 89.39,202.32 100,212.93 110.61,202.32"/>
<polygon id="0x2923ea0" class="l71d20" points="117.68,289.39 107.07,300 117.68,310.61 110.61,317.68 100,307.07 89.39,317.68 82.32,310.61 92.93,300 82.32,289.39 89.39,282.32 100,292.93 110.61,282.32"/>
<polygon id="0x2939710" class="l71d20" points="157.68,129.39 147.07,140 157.68,150.61 150.61,157.68 140,147.07 129.39,157.68 122.32,150.61 132.93,140 122.32,129.39 129.39,122.32 140,132.93 150.61,122.32"/>
<polygon id="0x28e23f0" class="l71d20" points="157.68,169.39 147.07,180 157.68,190.61 150.61,197.68 140,187.07 129.39,197.68 122.32,190.61 132.93,180 122.32,169.39 129.39,162.32 140,172.93 150.61,162.32"/>
<polygon id="0x2906380" class="l71d20" points="197.68,129.39 187.07,140 197.68,150.61 190.61,157.68 180,147.07 169.39,157.68 162.32,150.61 172.93,140 162.32,129.39 169.39,122.32 180,132.93 190.61,122.32"/>
<polygon id="0x296d4d0" class="l71d20" points="197.68,169.39 187.07,180 197.68,190.61 190.61,197.68 180,187.07 169.39,197.68 162.32,190.61 172.93,180 162.32,169.39 169.39,162.32 180,172.93 190.61,162.32"/>
<polygon id="0x27ce720" class="l71d20" points="237.68,9.39 227.07,20 237.68,30.61 230.61,37.68 220,27.07 209.39,37.68 202.32,30.61 212.93,20 202.32,9.39 209.39,2.32 220,12.93 230.61,2.32"/>
<polygon id="0x28c7d50" class="l71d20" points="237.68,89.39 227.07,100 237.68,110.61 230.61,117.68 220,107.07 209.39,117.68 202.32,110.61 212.93,100 202.32,89.39 209.39,82.32 220,92.93 230.61,82.32"/>
<polygon id="0x297a030" class="l71d20" points="237.68,129.39 227.07,140 237.68,150.61 230.61,157.68 220,147.07 209.39,157.68 202.32,150.61 212.93,140 202.32,129.39 209.39,122.32 220,132.93 230.61,122.32"/>
<polygon id="0x26e9490" class="l71d20" points="237.68,169.39 227.07,180 237.68,190.61 230.61,197.68 220,187.07 209.39,197.68 202.32,190.61 212.93,180 202.32,169.39 209.39,162.32 220,172.93 230.61,162.32"/>
<polygon id="0x26786c0" class="l71d20" points="237.68,209.39 227.07,220 237.68,230.61 230.61,237.68 220,227.07 209.39,237.68 202.32,230.61 212.93,220 202.32,209.39 209.39,202.32 220,212.93 230.61,202.32"/>
<polygon id="0x28f8520" class="l71d20" points="237.68,289.39 227.07,300 237.68,310.61 230.61,317.68 220,307.07 209.39,317.68 202.32,310.61 212.93,300 202.32,289.39 209.39,282.32 220,292.93 230.61,282.32"/>
<polygon id="0x290ba60" class="l71d20" points="277.68,49.39 267.07,60 277.68,70.61 270.61,77.68 260,67.07 249.39,77.68 242.32,70.61 252.93,60 242.32,49.39 249.39,42.32 260,52.93 270.61,42.32"/>
<polygon id="0x295c280" class="l71d20" points="277.68,89.39 267.07,100 277.68,110.61 270.61,117.68 260,107.07 249.39,117.68 242.32,110.61 252.93,100 242.32,89.39 249.39,82.32 260,92.93 270.61,82.32"/>
<polygon id="0x26e8300" class="l71d20" points="277.68,209.39 267.07,220 277.68,230.61 270.61,237.68 260,227.07 249.39,237.68 242.32,230.61 252.93,220 242.32,209.39 249.39,202.32 260,212.93 270.61,202.32"/>
<polygon id="0x2812740" class="l71d20" points="277.68,249.39 267.07,260 277.68,270.61 270.61,277.68 260,267.07 249.39,277.68 242.32,270.61 252.93,260 242.32,249.39 249.39,242.32 260,252.93 270.61,242.32"/>
<polygon id="0x27b9b60" class="l235d4" points="0,0 40,0 40,40 0,40"/>
</g>
</svg>