<?xml version="1.0" encoding="UTF-8"?>
<svg xmlns="http://www.w3.org/2000/svg" xmlns:xlink="http://www.w3.org/1999/xlink" width="1590.6" height="950.6" viewBox="-75.3 -875.3 1590.6 950.6">
<defs>
<style type="text/css">
.l235d4 {stroke: #0067A5; fill: #0067A5; fill-opacity: 0.5;}
.l72d10 {stroke: #BE0032; fill: #BE0032; fill-opacity: 0.5;}
</style>
</defs>
<rect x="-75.3" y="-875.3" width="1590.6" height="950.6" fill="#222222" stroke="none"/>
<g id="my_logo" transform="scale(1 -1)">
<polygon id="0x1ab3120" class="l72d10" points="-3,20 243,20 243,60 -3,60"/>
<polygon id="0x1b0c0e0" class="l72d10" points="397,20 483,20 483,60 397,60"/>
<polygon id="0x1af4120" class="l72d10" points="557,20 643,20 643,60 557,60"/>
<polygon id="0x1bae0b0" class="l72d10" points="797,20 1043,20 1043,60 797,60"/>
<polygon id="0x19f3c10" class="l72d10" points="1117,20 1283,20 1283,60 1117,60"/>
<polygon id="0x1afcfa0" class="l72d10" points="-3,100 83,100 83,140 -3,140"/>
<polygon id="0x1a76da0" class="l72d10" points="237,100 323,100 323,140 237,140"/>
<polygon id="0x1a86f80" class="l72d10" points="397,100 483,100 483,140 397,140"/>
<polygon id="0x1c671c0" class="l72d10" points="557,100 963,100 963,140 557,140"/>
<polygon id="0x1bdb810" class="l72d10" points="1037,100 1123,100 1123,140 1037,140"/>
<polygon id="0x1bdd820" class="l72d10" points="1277,100 1363,100 1363,140 1277,140"/>
<polygon id="0x1c16230" class="l72d10" points="-3,180 83,180 83,220 -3,220"/>
<polygon id="0x1c59730" class="l72d10" points="317,180 563,180 563,220 317,220"/>
<polygon id="0x1c6a980" class="l72d10" points="637,180 1123,180 1123,220 637,220"/>
<polygon id="0x1c90de0" class="l72d10" points="1277,180 1363,180 1363,220 1277,220"/>
<polygon id="0x1c20d00" class="l72d10" points="-3,260 163,260 163,300 -3,300"/>
<polygon id="0x1c3b760" class="l72d10" points="237,260 323,260 323,300 237,300"/>
<polygon id="0x1b6d720" class="l72d10" points="477,260 563,260 563,300 477,300"/>
<polygon id="0x1c53860" class="l72d10" points="717,260 883,260 883,300 717,300"/>
<polygon id="0x1c72c70" class="l72d10" points="1037,260 1283,260 1283,300 1037,300"/>
<polygon id="0x1bdf6e0" class="l72d10" points="-3,340 403,340 403,380 -3,380"/>
<polygon id="0x1be4de0" class="l72d10" points="637,340 883,340 883,380 637,380"/>
<polygon id="0x1c26ba0" class="l72d10" points="1117,340 1203,340 1203,380 1117,380"/>
<polygon id="0x1c37310" class="l72d10" points="1357,340 1443,340 1443,380 1357,380"/>
<polygon id="0x1c2a9e0" class="l72d10" points="77,420 563,420 563,460 77,460"/>
<polygon id="0x19c3160" class="l72d10" points="637,420 803,420 803,460 637,460"/>
<polygon id="0x1a66340" class="l72d10" points="957,420 1203,420 1203,460 957,460"/>
<polygon id="0x1aa8550" class="l72d10" points="-3,500 403,500 403,540 -3,540"/>
<polygon id="0x19f2870" class="l72d10" points="797,500 883,500 883,540 797,540"/>
<polygon id="0x1b96120" class="l72d10" points="957,500 1043,500 1043,540 957,540"/>
<polygon id="0x1bc3ca0" class="l72d10" points="-3,580 163,580 163,620 -3,620"/>
<polygon id="0x1bf6540" class="l72d10" points="237,580 323,580 323,620 237,620"/>
<polygon id="0x1b88eb0" class="l72d10" points="397,580 483,580 483,620 397,620"/>
<polygon id="0x1c89630" class="l72d10" points="1037,580 1203,580 1203,620 1037,620"/>
<polygon id="0x1c896f0" class="l72d10" points="1277,580 1443,580 1443,620 1277,620"/>
<polygon id="0x1c897b0" class="l72d10" points="157,660 243,660 243,700 157,700"/>
<polygon id="0x1c89870" class="l72d10" points="477,660 563,660 563,700 477,700"/>
<polygon id="0x1c89930" class="l72d10" points="877,660 963,660 963,700 877,700"/>
<polygon id="0x1c899f0" class="l72d10" points="1037,660 1283,660 1283,700 1037,700"/>
<polygon id="0x1c89ab0" class="l72d10" points="-3,740 243,740 243,780 -3,780"/>
<polygon id="0x1c89b70" class="l72d10" points="317,740 403,740 403,780 317,780"/>
<polygon id="0x1c89c30" class="l72d10" points="557,740 1123,740 1123,780 557,780"/>
<polygon id="0x1c89cf0" class="l72d10" points="1277,740 1443,740 1443,780 1277,780"/>
<polygon id="0x1c89db0" class="l72d10" points="20,397 60,397 60,483 20,483"/>
<polygon id="0x1c89e70" class="l72d10" points="20,637 60,637 60,723 20,723"/>
<polygon id="0x1c89f30" class="l72d10" points="100,77 140,77 140,243 100,243"/>
<polygon id="0x1c89ff0" class="l72d10" points="100,637 140,637 140,723 100,723"/>
<polygon id="0x1c8a0b0" class="l72d10" points="180,77 220,77 220,323 180,323"/>
<polygon id="0x1c8a170" class="l72d10" points="180,557 220,557 220,643 180,643"/>
<polygon id="0x1c8a230" class="l72d10" points="260,-3 300,-3 300,83 260,83"/>
<polygon id="0x1c8a2f0" class="l72d10" points="260,157 300,157 300,243 260,243"/>
<polygon id="0x1c8a3b0" class="l72d10" points="260,637 300,637 300,803 260,803"/>
<polygon id="0x1c8a470" class="l72d10" points="340,-3 380,-3 380,163 340,163"/>
<polygon id="0x1c8a530" class="l72d10" points="340,237 380,237 380,323 340,323"/>
<polygon id="0x1c8a5f0" class="l72d10" points="340,557 380,557 380,723 340,723"/>
<polygon id="0x1c8a6b0" class="l72d10" points="420,237 460,237 460,403 420,403"/>
<polygon id="0x1c8a770" class="l72d10" points="420,477 460,477 460,563 420,563"/>
<polygon id="0x1c8a830" class="l72d10" points="420,637 460,637 460,803 420,803"/>
<polygon id="0x1c8a8f0" class="l72d10" points="500,-3 540,-3 540,163 500,163"/>
<polygon id="0x1c8a9b0" class="l72d10" points="500,317 540,317 540,403 500,403"/>
<polygon id="0x1c8aa70" class="l72d10" points="500,477 540,477 540,643 500,643"/>
<polygon id="0x1c8ab30" class="l72d10" points="500,717 540,717 540,803 500,803"/>
<polygon id="0x1c8abf0" class="l72d10" points="580,157 620,157 620,723 580,723"/>
<polygon id="0x1c8acb0" class="l72d10" points="660,-3 700,-3 700,83 660,83"/>
<polygon id="0x1c8ad70" class="l72d10" points="660,237 700,237 700,323 660,323"/>
<polygon id="0x1bb20c0" class="l72d10" points="660,477 700,477 700,723 660,723"/>
<polygon id="0x1bfe1d0" class="l72d10" points="740,-3 780,-3 780,83 740,83"/>
<polygon id="0x1c24e30" class="l72d10" points="740,477 780,477 780,723 740,723"/>
<polygon id="0x1c6bad0" class="l72d10" points="820,397 860,397 860,483 820,483"/>
<polygon id="0x1a3ada0" class="l72d10" points="820,557 860,557 860,723 820,723"/>
<polygon id="0x1a4ee70" class="l72d10" points="900,237 940,237 940,643 900,643"/>
<polygon id="0x1a8d780" class="l72d10" points="980,77 1020,77 1020,163 980,163"/>
<polygon id="0x1a92800" class="l72d10" points="980,237 1020,237 1020,403 980,403"/>
<polygon id="0x1aa5e00" class="l72d10" points="980,557 1020,557 1020,723 980,723"/>
<polygon id="0x1b6bc90" class="l72d10" points="1060,-3 1100,-3 1100,83 1060,83"/>
<polygon id="0x1c3a3e0" class="l72d10" points="1060,317 1100,317 1100,403 1060,403"/>
<polygon id="0x1bef4e0" class="l72d10" points="1060,477 1100,477 1100,563 1060,563"/>
<polygon id="0x1a36380" class="l72d10" points="1140,77 1180,77 1180,243 1140,243"/>
<polygon id="0x1bb4d90" class="l72d10" points="1140,477 1180,477 1180,563 1140,563"/>
<polygon id="0x1bb7800" class="l72d10" points="1140,717 1180,717 1180,803 1140,803"/>
<polygon id="0x1bd04f0" class="l72d10" points="1220,77 1260,77 1260,243 1220,243"/>
<polygon id="0x1be6560" class="l72d10" points="1220,317 1260,317 1260,643 1220,643"/>
<polygon id="0x1c61f60" class="l72d10" points="1220,717 1260,717 1260,803 1220,803"/>
<polygon id="0x1ad7420" class="l72d10" points="1300,-3 1340,-3 1340,83 1300,83"/>
<polygon id="0x1af9e40" class="l72d10" points="1300,237 1340,237 1340,563 1300,563"/>
<polygon id="0x1af9eb0" class="l72d10" points="1300,637 1340,637 1340,723 1300,723"/>
<polygon id="0x1b62710" class="l72d10" points="1380,-3 1420,-3 1420,323 1380,323"/>
<polygon id="0x1bcf5d0" class="l72d10" points="1380,397 1420,397 1420,563 1380,563"/>
<polygon id="0x1be9690" class="l72d10" points="1380,637 1420,637 1420,723 1380,723"/>
<polygon id="0x1be9700" class="l235d4" points="0,0 1440,0 1440,800 0,800"/>
</g>
</svg>