<?xml version="1.0" encoding="UTF-8"?>
<svg xmlns="http://www.w3.org/2000/svg" xmlns:xlink="http://www.w3.org/1999/xlink" width="886.6" height="486.6" viewBox="-43.3 -443.3 886.6 486.6">
<defs>
<style type="text/css">
.l235d4 {stroke: #0067A5; fill: #0067A5; fill-opacity: 0.5;}
.l71d20 {stroke: #B3446C; fill: #B3446C; fill-opacity: 0.5;}
</style>
</defs>
<rect x="-43.3" y="-443.3" width="886.6" height="486.6" fill="#222222" stroke="none"/>
<g id="my_logo" transform="scale(1 -1)">
<polygon id="0x2180a80" class="l71d20" points="-3,20 83,20 83,60 -3,60"/>
<polygon id="0x21b6980" class="l71d20" points="157,20 243,20 243,60 157,60"/>
<polygon id="0x1fda510" class="l71d20" points="317,20 483,20 483,60 317,60"/>
<polygon id="0x22587f0" class="l71d20" points="637,20 723,20 723,60 637,60"/>
<polygon id="0x209eff0" class="l71d20" points="-3,100 163,100 163,140 -3,140"/>
<polygon id="0x21566f0" class="l71d20" points="237,100 323,100 323,140 237,140"/>
<polygon id="0x215d310" class="l71d20" points="397,100 563,100 563,140 397,140"/>
<polygon id="0x2269800" class="l71d20" points="157,180 323,180 323,220 157,220"/>
<polygon id="0x22cb210" class="l71d20" points="557,180 643,180 643,220 557,220"/>
<polygon id="0x233b240" class="l71d20" points="717,180 803,180 803,220 717,220"/>
<polygon id="0x22bdbf0" class="l71d20" points="157,260 323,260 323,300 157,300"/>
<polygon id="0x230a790" class="l71d20" points="397,260 483,260 483,300 397,300"/>
<polygon id="0x227bbd0" class="l71d20" points="557,260 643,260 643,300 557,300"/>
<polygon id="0x206dfb0" class="l71d20" points="717,260 803,260 803,300 717,300"/>
<polygon id="0x228e400" class="l71d20" points="317,340 803,340 803,380 317,380"/>
<polygon id="0x22dfd70" class="l71d20" points="20,157 60,157 60,403 20,403"/>
<polygon id="0x206ce20" class="l71d20" points="100,-3 140,-3 140,83 100,83"/>
<polygon id="0x22d4fa0" class="l71d20" points="100,157 140,157 140,403 100,403"/>
<polygon id="0x2195910" class="l71d20" points="180,77 220,77 220,163 180,163"/>
<polygon id="0x209dca0" class="l71d20" points="180,317 220,317 220,403 180,403"/>
<polygon id="0x22410c0" class="l71d20" points="260,-3 300,-3 300,83 260,83"/>
<polygon id="0x229fb90" class="l71d20" points="260,317 300,317 300,403 260,403"/>
<polygon id="0x22d2910" class="l71d20" points="340,77 380,77 380,323 340,323"/>
<polygon id="0x20ede70" class="l71d20" points="420,157 460,157 460,243 420,243"/>
<polygon id="0x2107110" class="l71d20" points="500,-3 540,-3 540,83 500,83"/>
<polygon id="0x2106d20" class="l71d20" points="500,157 540,157 540,323 500,323"/>
<polygon id="0x2134280" class="l71d20" points="580,-3 620,-3 620,163 580,163"/>
<polygon id="0x2153210" class="l71d20" points="660,77 700,77 700,323 660,323"/>
<polygon id="0x21765e0" class="l71d20" points="740,-3 780,-3 780,163 740,163"/>
<polygon id="0x219f930" class="l235d4" points="0,0 80,0 80,80 0,80"/>
</g>
</svg>