<?xml version="1.0" encoding="UTF-8"?>
<svg xmlns="http://www.w3.org/2000/svg" xmlns:xlink="http://www.w3.org/1999/xlink" width="346.5" height="346.5" viewBox="-15.75 -330.75 346.5 346.5">
<defs>
<style type="text/css">
.l235d4 {stroke: #0067A5; fill: #0067A5; fill-opacity: 0.5;}
.l71d20 {stroke: #B3446C; fill: #B3446C; fill-opacity: 0.5;}
</style>
</defs>
<rect x="-15.75" y="-330.75" width="346.5" height="346.5" fill="#222222" stroke="none"/>
<g id="my_logo" transform="scale(1 -1)">
<polygon id="0xe13590" class="l71d20" points="5,85 35,85 35,115 5,115"/>
<polygon id="0xe1a520" class="l71d20" points="5,125 35,125 35,155 5,155"/>
<polygon id="0xcb0f80" class="l71d20" points="5,165 35,165 35,195 5,195"/>
<polygon id="0xca1b60" class="l71d20" points="5,205 35,205 35,235 5,235"/>
<polygon id="0xcec7f0" class="l71d20" points="45,5 75,5 75,35 45,35"/>
<polygon id="0xd46e50" class="l71d20" points="45,125 75,125 75,155 45,155"/>
<polygon id="0xcf5d40" class="l71d20" points="45,165 75,165 75,195 45,195"/>
<polygon id="0xdd53d0" class="l71d20" points="45,285 75,285 75,315 45,315"/>
<polygon id="0xed43c0" class="l71d20" points="85,45 115,45 115,75 85,75"/>
<polygon id="0xfb0f70" class="l71d20" points="85,85 115,85 115,115 85,115"/>
<polygon id="0xf8c650" class="l71d20" points="85,205 115,205 115,235 85,235"/>
<polygon id="0xfc2b90" class="l71d20" points="85,245 115,245 115,275 85,275"/>
<polygon id="0xffb8f0" class="l71d20" points="125,45 155,45 155,75 125,75"/>
<polygon id="0xf278a0" class="l71d20" points="125,125 155,125 155,155 125,155"/>
<polygon id="0xfcb7b0" class="l71d20" points="125,165 155,165 155,195 125,195"/>
<polygon id="0xdccb80" class="l71d20" points="125,245 155,245 155,275 125,275"/>
<polygon id="0xf3d010" class="l71d20" points="165,45 195,45 195,75 165,75"/>
<polygon id="0xe772c0" class="l71d20" points="165,125 195,125 195,155 165,155"/>
<polygon id="0xdc9f80" class="l71d20" points="165,165 195,165 195,195 165,195"/>
<polygon id="0xf4f840" class="l71d20" points="165,245 195,245 195,275 165,275"/>
<polygon id="0xf91510" class="l71d20" points="205,45 235,45 235,75 205,75"/>
<polygon id="0xfa0db0" class="l71d20" points="205,85 235,85 235,115 205,115"/>
<polygon id="0xd2e7d0" class="l71d20" points="205,205 235,205 235,235 205,235"/>
<polygon id="0xdbdc50" class="l71d20" points="205,245 235,245 235,275 205,275"/>
<polygon id="0xe566f0" class="l71d20" points="245,5 275,5 275,35 245,35"/>
<polygon id="0xe5ded0" class="l71d20" points="245,125 275,125 275,155 245,155"/>
<polygon id="0xd5efd0" class="l71d20" points="245,165 275,165 275,195 245,195"/>
<polygon id="0xf01a50" class="l71d20" points="245,285 275,285 275,315 245,315"/>
<polygon id="0xdad920" class="l71d20" points="285,85 315,85 315,115 285,115"/>
<polygon id="0xd9b660" class="l71d20" points="285,125 315,125 315,155 285,155"/>
<polygon id="0xdcf940" class="l71d20" points="285,165 315,165 315,195 285,195"/>
<polygon id="0xde16f0" class="l71d20" points="285,205 315,205 315,235 285,235"/>
<polygon id="0xe0d880" class="l235d4" points="0,0 40,0 40,40 0,40"/>
</g>
</svg>