<?xml version="1.0" encoding="UTF-8"?>
<svg xmlns="http://www.w3.org/2000/svg" xmlns:xlink="http://www.w3.org/1999/xlink" width="1590.6" height="950.6" viewBox="-75.3 -875.3 1590.6 950.6">
<defs>
<style type="text/css">
.l235d4 {stroke: #0067A5; fill: #0067A5; fill-opacity: 0.5;}
.l72d10 {stroke: #BE0032; fill: #BE0032; fill-opacity: 0.5;}
</style>
</defs>
<rect x="-75.3" y="-875.3" width="1590.6" height="950.6" fill="#222222" stroke="none"/>
<g id="my_logo" transform="scale(1 -1)">
<polygon id="0x11c6770" class="l72d10" points="157,20 243,20 243,60 157,60"/>
<polygon id="0x1209630" class="l72d10" points="397,20 723,20 723,60 397,60"/>
<polygon id="0x1128410" class="l72d10" points="797,20 883,20 883,60 797,60"/>
<polygon id="0x11fc300" class="l72d10" points="1037,20 1123,20 1123,60 1037,60"/>
<polygon id="0x1314030" class="l72d10" points="1277,20 1443,20 1443,60 1277,60"/>
<polygon id="0x1364fc0" class="l72d10" points="77,100 323,100 323,140 77,140"/>
<polygon id="0x12d9610" class="l72d10" points="397,100 563,100 563,140 397,140"/>
<polygon id="0x12db620" class="l72d10" points="637,100 803,100 803,140 637,140"/>
<polygon id="0x13100e0" class="l72d10" points="877,100 1043,100 1043,140 877,140"/>
<polygon id="0x12f3170" class="l72d10" points="1277,100 1443,100 1443,140 1277,140"/>
<polygon id="0x1329d80" class="l72d10" points="-3,180 83,180 83,220 -3,220"/>
<polygon id="0x1368780" class="l72d10" points="157,180 403,180 403,220 157,220"/>
<polygon id="0x138ebe0" class="l72d10" points="557,180 643,180 643,220 557,220"/>
<polygon id="0x131eb00" class="l72d10" points="717,180 883,180 883,220 717,220"/>
<polygon id="0x1339560" class="l72d10" points="957,180 1043,180 1043,220 957,220"/>
<polygon id="0x1351660" class="l72d10" points="-3,260 163,260 163,300 -3,300"/>
<polygon id="0x1354900" class="l72d10" points="317,260 403,260 403,300 317,300"/>
<polygon id="0x12fac50" class="l72d10" points="477,260 723,260 723,300 477,300"/>
<polygon id="0x12dd4e0" class="l72d10" points="957,260 1443,260 1443,300 957,300"/>
<polygon id="0x12e2be0" class="l72d10" points="77,340 163,340 163,380 77,380"/>
<polygon id="0x13249a0" class="l72d10" points="237,340 483,340 483,380 237,380"/>
<polygon id="0x1335110" class="l72d10" points="637,340 883,340 883,380 637,380"/>
<polygon id="0x13287e0" class="l72d10" points="957,340 1043,340 1043,380 957,380"/>
<polygon id="0x10c05b0" class="l72d10" points="1117,340 1203,340 1203,380 1117,380"/>
<polygon id="0x11e8860" class="l72d10" points="1277,340 1363,340 1363,380 1277,380"/>
<polygon id="0x11f4890" class="l72d10" points="77,420 163,420 163,460 77,460"/>
<polygon id="0x10f0aa0" class="l72d10" points="237,420 563,420 563,460 237,460"/>
<polygon id="0x1294850" class="l72d10" points="717,420 803,420 803,460 717,460"/>
<polygon id="0x12c1aa0" class="l72d10" points="957,420 1283,420 1283,460 957,460"/>
<polygon id="0x12f4340" class="l72d10" points="-3,500 83,500 83,540 -3,540"/>
<polygon id="0x1033840" class="l72d10" points="157,500 323,500 323,540 157,540"/>
<polygon id="0x1140720" class="l72d10" points="397,500 483,500 483,540 397,540"/>
<polygon id="0x1186a40" class="l72d10" points="557,500 643,500 643,540 557,540"/>
<polygon id="0x1387430" class="l72d10" points="797,500 883,500 883,540 797,540"/>
<polygon id="0x13874f0" class="l72d10" points="1357,500 1443,500 1443,540 1357,540"/>
<polygon id="0x13875b0" class="l72d10" points="397,580 643,580 643,620 397,620"/>
<polygon id="0x1387670" class="l72d10" points="797,580 883,580 883,620 797,620"/>
<polygon id="0x1387730" class="l72d10" points="957,580 1283,580 1283,620 957,620"/>
<polygon id="0x13877f0" class="l72d10" points="1357,580 1443,580 1443,620 1357,620"/>
<polygon id="0x13878b0" class="l72d10" points="-3,660 83,660 83,700 -3,700"/>
<polygon id="0x1387970" class="l72d10" points="877,660 1363,660 1363,700 877,700"/>
<polygon id="0x1387a30" class="l72d10" points="-3,740 163,740 163,780 -3,780"/>
<polygon id="0x1387af0" class="l72d10" points="477,740 643,740 643,780 477,780"/>
<polygon id="0x1387bb0" class="l72d10" points="717,740 883,740 883,780 717,780"/>
<polygon id="0x1387c70" class="l72d10" points="957,740 1203,740 1203,780 957,780"/>
<polygon id="0x1387d30" class="l72d10" points="1277,740 1363,740 1363,780 1277,780"/>
<polygon id="0x1387df0" class="l72d10" points="20,-3 60,-3 60,163 20,163"/>
<polygon id="0x1387eb0" class="l72d10" points="20,317 60,317 60,483 20,483"/>
<polygon id="0x1387f70" class="l72d10" points="20,557 60,557 60,643 20,643"/>
<polygon id="0x1388030" class="l72d10" points="100,-3 140,-3 140,83 100,83"/>
<polygon id="0x13880f0" class="l72d10" points="100,157 140,157 140,243 100,243"/>
<polygon id="0x13881b0" class="l72d10" points="100,477 140,477 140,723 100,723"/>
<polygon id="0x1388270" class="l72d10" points="180,237 220,237 220,483 180,483"/>
<polygon id="0x1388330" class="l72d10" points="180,557 220,557 220,803 180,803"/>
<polygon id="0x13883f0" class="l72d10" points="260,-3 300,-3 300,83 260,83"/>
<polygon id="0x13884b0" class="l72d10" points="260,237 300,237 300,323 260,323"/>
<polygon id="0x1388570" class="l72d10" points="260,557 300,557 300,803 260,803"/>
<polygon id="0x1388630" class="l72d10" points="340,-3 380,-3 380,163 340,163"/>
<polygon id="0x13886f0" class="l72d10" points="340,477 380,477 380,803 340,803"/>
<polygon id="0x13887b0" class="l72d10" points="420,157 460,157 460,323 420,323"/>
<polygon id="0x1388870" class="l72d10" points="420,637 460,637 460,803 420,803"/>
<polygon id="0x1388930" class="l72d10" points="500,157 540,157 540,243 500,243"/>
<polygon id="0x13889f0" class="l72d10" points="500,317 540,317 540,403 500,403"/>
<polygon id="0x1388ab0" class="l72d10" points="500,477 540,477 540,563 500,563"/>
<polygon id="0x1388b70" class="l72d10" points="500,637 540,637 540,723 500,723"/>
<polygon id="0x11a59d0" class="l72d10" points="580,77 620,77 620,163 580,163"/>
<polygon id="0x11c93c0" class="l72d10" points="580,317 620,317 620,483 580,483"/>
<polygon id="0x11ea130" class="l72d10" points="580,637 620,637 620,723 580,723"/>
<polygon id="0x12875e0" class="l72d10" points="660,157 700,157 700,243 660,243"/>
<polygon id="0x12b0280" class="l72d10" points="660,397 700,397 700,803 660,803"/>
<polygon id="0x12fbfd0" class="l72d10" points="740,-3 780,-3 780,83 740,83"/>
<polygon id="0x1322c30" class="l72d10" points="740,237 780,237 780,323 740,323"/>
<polygon id="0x13698d0" class="l72d10" points="740,477 780,477 780,723 740,723"/>
<polygon id="0x1139210" class="l72d10" points="820,77 860,77 860,163 820,163"/>
<polygon id="0x11a2890" class="l72d10" points="820,237 860,237 860,323 820,323"/>
<polygon id="0x126a370" class="l72d10" points="820,397 860,397 860,483 820,483"/>
<polygon id="0x13381e0" class="l72d10" points="820,637 860,637 860,723 820,723"/>
<polygon id="0x12ed2e0" class="l72d10" points="900,-3 940,-3 940,83 900,83"/>
<polygon id="0x115eb50" class="l72d10" points="900,157 940,157 940,643 900,643"/>
<polygon id="0x11d4c60" class="l72d10" points="900,717 940,717 940,803 900,803"/>
<polygon id="0x11e9140" class="l72d10" points="980,-3 1020,-3 1020,83 980,83"/>
<polygon id="0x12b2f50" class="l72d10" points="980,477 1020,477 1020,563 980,563"/>
<polygon id="0x12b59c0" class="l72d10" points="1060,77 1100,77 1100,243 1060,243"/>
<polygon id="0x12ce2f0" class="l72d10" points="1060,317 1100,317 1100,403 1060,403"/>
<polygon id="0x12e4360" class="l72d10" points="1060,477 1100,477 1100,563 1060,563"/>
<polygon id="0x135fd60" class="l72d10" points="1140,-3 1180,-3 1180,243 1140,243"/>
<polygon id="0x1263520" class="l72d10" points="1140,477 1180,477 1180,563 1140,563"/>
<polygon id="0x12cd3d0" class="l72d10" points="1220,-3 1260,-3 1260,243 1220,243"/>
<polygon id="0x12cd440" class="l72d10" points="1220,317 1260,317 1260,403 1220,403"/>
<polygon id="0x12e74e0" class="l72d10" points="1220,477 1260,477 1260,563 1220,563"/>
<polygon id="0x1334730" class="l72d10" points="1220,717 1260,717 1260,803 1220,803"/>
<polygon id="0x132aaa0" class="l72d10" points="1300,157 1340,157 1340,243 1300,243"/>
<polygon id="0x132ab10" class="l72d10" points="1300,397 1340,397 1340,643 1300,643"/>
<polygon id="0x1369030" class="l72d10" points="1380,157 1420,157 1420,243 1380,243"/>
<polygon id="0x11347e0" class="l72d10" points="1380,317 1420,317 1420,483 1380,483"/>
<polygon id="0x114e1e0" class="l72d10" points="1380,637 1420,637 1420,803 1380,803"/>
<polygon id="0x114e250" class="l235d4" points="0,0 1440,0 1440,800 0,800"/>
</g>
</svg>