<?xml version="1.0" encoding="UTF-8"?>
<svg xmlns="http://www.w3.org/2000/svg" xmlns:xlink="http://www.w3.org/1999/xlink" width="347.886" height="347.886" viewBox="-15.813 -332.073 347.886 347.886">
<defs>
<style type="text/css">
.l235d4 {stroke: #0067A5; fill: #0067A5; fill-opacity: 0.5;}
.l71d20 {stroke: #B3446C; fill: #B3446C; fill-opacity: 0.5;}
</style>
</defs>
<rect x="-15.813" y="-332.073" width="347.886" height="347.886" fill="#222222" stroke="none"/>
<g id="my_logo" transform="scale(1 -1)">
<polygon id="0x1882450" class="l71d20" points="36.26,90.81 27.07,100 36.26,109.19 29.19,116.26 20,107.07 10.81,116.26 3.74,109.19 12.93,100 3.74,90.81 10.81,83.74 20,92.93 29.19,83.74"/>
<polygon id="0x1883030" class="l71d20" points="36.26,130.81 27.07,140 36.26,149.19 29.19,156.26 20,147.07 10.81,156.26 3.74,149.19 12.93,140 3.74,130.81 10.81,123.74 20,132.93 29.19,123.74"/>
<polygon id="0x198bc20" class="l71d20" points="36.26,170.81 27.07,180 36.26,189.19 29.19,196.26 20,187.07 10.81,196.26 3.74,189.19 12.93,180 3.74,170.81 10.81,163.74 20,172.93 29.19,163.74"/>
<polygon id="0x1a9fdb0" class="l71d20" points="36.26,210.81 27.07,220 36.26,229.19 29.19,236.26 20,227.07 10.81,236.26 3.74,229.19 12.93,220 3.74,210.81 10.81,203.74 20,212.93 29.19,203.74"/>
<polygon id="0x1a6bc50" class="l71d20" points="76.26,90.81 67.07,100 76.26,109.19 69.19,116.26 60,107.07 50.81,116.26 43.74,109.19 52.93,100 43.74,90.81 50.81,83.74 60,92.93 69.19,83.74"/>
<polygon id="0x1abbee0" class="l71d20" points="76.26,210.81 67.07,220 76.26,229.19 69.19,236.26 60,227.07 50.81,236.26 43.74,229.19 52.93,220 43.74,210.81 50.81,203.74 60,212.93 69.19,203.74"/>
<polygon id="0x1aee720" class="l71d20" points="116.26,10.81 107.07,20 116.26,29.19 109.19,36.26 100,27.07 90.81,36.26 83.74,29.19 92.93,20 83.74,10.81 90.81,3.74 100,12.93 109.19,3.74"/>
<polygon id="0x1aeda10" class="l71d20" points="116.26,130.81 107.07,140 116.26,149.19 109.19,156.26 100,147.07 90.81,156.26 83.74,149.19 92.93,140 83.74,130.81 90.81,123.74 100,132.93 109.19,123.74"/>
<polygon id="0x1a5f410" class="l71d20" points="116.26,170.81 107.07,180 116.26,189.19 109.19,196.26 100,187.07 90.81,196.26 83.74,189.19 92.93,180 83.74,170.81 90.81,163.74 100,172.93 109.19,163.74"/>
<polygon id="0x1ab31e0" class="l71d20" points="116.26,290.81 107.07,300 116.26,309.19 109.19,316.26 100,307.07 90.81,316.26 83.74,309.19 92.93,300 83.74,290.81 90.81,283.74 100,292.93 109.19,283.74"/>
<polygon id="0x1ab9120" class="l71d20" points="156.26,10.81 147.07,20 156.26,29.19 149.19,36.26 140,27.07 130.81,36.26 123.74,29.19 132.93,20 123.74,10.81 130.81,3.74 140,12.93 149.19,3.74"/>
<polygon id="0x1af33c0" class="l71d20" points="156.26,50.81 147.07,60 156.26,69.19 149.19,76.26 140,67.07 130.81,76.26 123.74,69.19 132.93,60 123.74,50.81 130.81,43.74 140,52.93 149.19,43.74"/>
<polygon id="0x1af5ae0" class="l71d20" points="156.26,90.81 147.07,100 156.26,109.19 149.19,116.26 140,107.07 130.81,116.26 123.74,109.19 132.93,100 123.74,90.81 130.81,83.74 140,92.93 149.19,83.74"/>
<polygon id="0x1a2fa20" class="l71d20" points="156.26,130.81 147.07,140 156.26,149.19 149.19,156.26 140,147.07 130.81,156.26 123.74,149.19 132.93,140 123.74,130.81 130.81,123.74 140,132.93 149.19,123.74"/>
<polygon id="0x1a61320" class="l71d20" points="156.26,170.81 147.07,180 156.26,189.19 149.19,196.26 140,187.07 130.81,196.26 123.74,189.19 132.93,180 123.74,170.81 130.81,163.74 140,172.93 149.19,163.74"/>
<polygon id="0x1a6d710" class="l71d20" points="156.26,210.81 147.07,220 156.26,229.19 149.19,236.26 140,227.07 130.81,236.26 123.74,229.19 132.93,220 123.74,210.81 130.81,203.74 140,212.93 149.19,203.74"/>
<polygon id="0x1a72b20" class="l71d20" points="156.26,250.81 147.07,260 156.26,269.19 149.19,276.26 140,267.07 130.81,276.26 123.74,269.19 132.93,260 123.74,250.81 130.81,243.74 140,252.93 149.19,243.74"/>
<polygon id="0x1ac54c0" class="l71d20" points="156.26,290.81 147.07,300 156.26,309.19 149.19,316.26 140,307.07 130.81,316.26 123.74,309.19 132.93,300 123.74,290.81 130.81,283.74 140,292.93 149.19,283.74"/>
<polygon id="0x1ac7920" class="l71d20" points="196.26,10.81 187.07,20 196.26,29.19 189.19,36.26 180,27.07 170.81,36.26 163.74,29.19 172.93,20 163.74,10.81 170.81,3.74 180,12.93 189.19,3.74"/>
<polygon id="0x1851640" class="l71d20" points="196.26,50.81 187.07,60 196.26,69.19 189.19,76.26 180,67.07 170.81,76.26 163.74,69.19 172.93,60 163.74,50.81 170.81,43.74 180,52.93 189.19,43.74"/>
<polygon id="0x1a42880" class="l71d20" points="196.26,90.81 187.07,100 196.26,109.19 189.19,116.26 180,107.07 170.81,116.26 163.74,109.19 172.93,100 163.74,90.81 170.81,83.74 180,92.93 189.19,83.74"/>
<polygon id="0x1a428f0" class="l71d20" points="196.26,130.81 187.07,140 196.26,149.19 189.19,156.26 180,147.07 170.81,156.26 163.74,149.19 172.93,140 163.74,130.81 170.81,123.74 180,132.93 189.19,123.74"/>
<polygon id="0x1a80c20" class="l71d20" points="196.26,170.81 187.07,180 196.26,189.19 189.19,196.26 180,187.07 170.81,196.26 163.74,189.19 172.93,180 163.74,170.81 170.81,163.74 180,172.93 189.19,163.74"/>
<polygon id="0x1a80c90" class="l71d20" points="196.26,210.81 187.07,220 196.26,229.19 189.19,236.26 180,227.07 170.81,236.26 163.74,229.19 172.93,220 163.74,210.81 170.81,203.74 180,212.93 189.19,203.74"/>
<polygon id="0x19f0b50" class="l71d20" points="196.26,250.81 187.07,260 196.26,269.19 189.19,276.26 180,267.07 170.81,276.26 163.74,269.19 172.93,260 163.74,250.81 170.81,243.74 180,252.93 189.19,243.74"/>
<polygon id="0x19f0bc0" class="l71d20" points="196.26,290.81 187.07,300 196.26,309.19 189.19,316.26 180,307.07 170.81,316.26 163.74,309.19 172.93,300 163.74,290.81 170.81,283.74 180,292.93 189.19,283.74"/>
<polygon id="0x1ac4ae0" class="l71d20" points="236.26,10.81 227.07,20 236.26,29.19 229.19,36.26 220,27.07 210.81,36.26 203.74,29.19 212.93,20 203.74,10.81 210.81,3.74 220,12.93 229.19,3.74"/>
<polygon id="0x1ac4b50" class="l71d20" points="236.26,130.81 227.07,140 236.26,149.19 229.19,156.26 220,147.07 210.81,156.26 203.74,149.19 212.93,140 203.74,130.81 210.81,123.74 220,132.93 229.19,123.74"/>
<polygon id="0x1b1f390" class="l71d20" points="236.26,170.81 227.07,180 236.26,189.19 229.19,196.26 220,187.07 210.81,196.26 203.74,189.19 212.93,180 203.74,170.81 210.81,163.74 220,172.93 229.19,163.74"/>
<polygon id="0x1b1f400" class="l71d20" points="236.26,290.81 227.07,300 236.26,309.19 229.19,316.26 220,307.07 210.81,316.26 203.74,309.19 212.93,300 203.74,290.81 210.81,283.74 220,292.93 229.19,283.74"/>
<polygon id="0x1924220" class="l71d20" points="276.26,90.81 267.07,100 276.26,109.19 269.19,116.26 260,107.07 250.81,116.26 243.74,109.19 252.93,100 243.74,90.81 250.81,83.74 260,92.93 269.19,83.74"/>
<polygon id="0x1924290" class="l71d20" points="276.26,210.81 267.07,220 276.26,229.19 269.19,236.26 260,227.07 250.81,236.26 243.74,229.19 252.93,220 243.74,210.81 250.81,203.74 260,212.93 269.19,203.74"/>
<polygon id="0x1a64510" class="l71d20" points="316.26,90.81 307.07,100 316.26,109.19 309.19,116.26 300,107.07 290.81,116.26 283.74,109.19 292.93,100 283.74,90.81 290.81,83.74 300,92.93 309.19,83.74"/>
<polygon id="0x1b16ca0" class="l71d20" points="316.26,130.81 307.07,140 316.26,149.19 309.19,156.26 300,147.07 290.81,156.26 283.74,149.19 292.93,140 283.74,130.81 290.81,123.74 300,132.93 309.19,123.74"/>
<polygon id="0x1b16de0" class="l71d20" points="316.26,170.81 307.07,180 316.26,189.19 309.19,196.26 300,187.07 290.81,196.26 283.74,189.19 292.93,180 283.74,170.81 290.81,163.74 300,172.93 309.19,163.74"/>
<polygon id="0x1b16f20" class="l71d20" points="316.26,210.81 307.07,220 316.26,229.19 309.19,236.26 300,227.07 290.81,236.26 283.74,229.19 292.93,220 283.74,210.81 290.81,203.74 300,212.93 309.19,203.74"/>
<polygon id="0x1937160" class="l235d4" points="0,0 40,0 40,40 0,40"/>
</g>
</svg>