<?xml version="1.0" encoding="UTF-8"?>
<svg xmlns="http://www.w3.org/2000/svg" xmlns:xlink="http://www.w3.org/1999/xlink" width="886.6" height="486.6" viewBox="-43.3 -443.3 886.6 486.6">
<defs>
<style type="text/css">
.l235d4 {stroke: #0067A5; fill: #0067A5; fill-opacity: 0.5;}
.l71d20 {stroke: #B3446C; fill: #B3446C; fill-opacity: 0.5;}
</style>
</defs>
<rect x="-43.3" y="-443.3" width="886.6" height="486.6" fill="#222222" stroke="none"/>
<g id="my_logo" transform="scale(1 -1)">
<polygon id="0xdb4030" class="l71d20" points="157,20 403,20 403,60 157,60"/>
<polygon id="0xcd3040" class="l71d20" points="557,20 643,20 643,60 557,60"/>
<polygon id="0xbd82a0" class="l71d20" points="717,20 803,20 803,60 717,60"/>
<polygon id="0xc9ca70" class="l71d20" points="-3,100 83,100 83,140 -3,140"/>
<polygon id="0xdafb20" class="l71d20" points="157,100 243,100 243,140 157,140"/>
<polygon id="0xd1ef00" class="l71d20" points="397,100 483,100 483,140 397,140"/>
<polygon id="0xd0c8d0" class="l71d20" points="557,100 723,100 723,140 557,140"/>
<polygon id="0xd51150" class="l71d20" points="157,180 243,180 243,220 157,220"/>
<polygon id="0xf1b060" class="l71d20" points="477,180 563,180 563,220 477,220"/>
<polygon id="0xf0f570" class="l71d20" points="637,180 723,180 723,220 637,220"/>
<polygon id="0xecb0d0" class="l71d20" points="-3,260 83,260 83,300 -3,300"/>
<polygon id="0xe86fd0" class="l71d20" points="157,260 403,260 403,300 157,300"/>
<polygon id="0xe64a70" class="l71d20" points="717,260 803,260 803,300 717,300"/>
<polygon id="0xe2fef0" class="l71d20" points="-3,340 323,340 323,380 -3,380"/>
<polygon id="0xeee3a0" class="l71d20" points="397,340 483,340 483,380 397,380"/>
<polygon id="0xf12ae0" class="l71d20" points="557,340 643,340 643,380 557,380"/>
<polygon id="0xf39190" class="l71d20" points="717,340 803,340 803,380 717,380"/>
<polygon id="0xea5960" class="l71d20" points="20,-3 60,-3 60,83 20,83"/>
<polygon id="0xef81e0" class="l71d20" points="20,157 60,157 60,243 20,243"/>
<polygon id="0xed99e0" class="l71d20" points="100,-3 140,-3 140,323 100,323"/>
<polygon id="0xed5010" class="l71d20" points="260,77 300,77 300,243 260,243"/>
<polygon id="0xefea60" class="l71d20" points="340,77 380,77 380,243 340,243"/>
<polygon id="0xe8db50" class="l71d20" points="340,317 380,317 380,403 340,403"/>
<polygon id="0xecebc0" class="l71d20" points="420,-3 460,-3 460,83 420,83"/>
<polygon id="0xed3ef0" class="l71d20" points="420,157 460,157 460,323 420,323"/>
<polygon id="0xc6b1d0" class="l71d20" points="500,-3 540,-3 540,163 500,163"/>
<polygon id="0xe3eb80" class="l71d20" points="500,237 540,237 540,403 500,403"/>
<polygon id="0xe9f060" class="l71d20" points="580,157 620,157 620,323 580,323"/>
<polygon id="0xe92c40" class="l71d20" points="660,-3 700,-3 700,83 660,83"/>
<polygon id="0xceb350" class="l71d20" points="660,237 700,237 700,403 660,403"/>
<polygon id="0xd170a0" class="l71d20" points="740,77 780,77 780,243 740,243"/>
<polygon id="0xd206e0" class="l235d4" points="0,0 80,0 80,80 0,80"/>
</g>
</svg>