<?xml version="1.0" encoding="UTF-8"?>
<svg xmlns="http://www.w3.org/2000/svg" xmlns:xlink="http://www.w3.org/1999/xlink" width="446.6" height="446.6" viewBox="-23.3 -423.3 446.6 446.6">
<defs>
<style type="text/css">
.l28d0 {stroke: #F99379; fill: #F99379; fill-opacity: 0.5;}
</style>
</defs>
<rect x="-23.3" y="-423.3" width="446.6" height="446.6" fill="#222222" stroke="none"/>
<g id="my_logo" transform="scale(1 -1)">
<polygon id="0x16b4080" class="l28d0" points="157,20 243,20 243,60 157,60"/>
<polygon id="0x16be9a0" class="l28d0" points="-3,100 83,100 83,140 -3,140"/>
<polygon id="0x16581d0" class="l28d0" points="157,100 403,100 403,140 157,140"/>
<polygon id="0x15f98a0" class="l28d0" points="77,180 243,180 243,220 77,220"/>
<polygon id="0x16f7c50" class="l28d0" points="-3,260 163,260 163,300 -3,300"/>
<polygon id="0x170caf0" class="l28d0" points="237,260 323,260 323,300 237,300"/>
<polygon id="0x16948e0" class="l28d0" points="77,340 403,340 403,380 77,380"/>
<polygon id="0x1711000" class="l28d0" points="20,-3 60,-3 60,83 20,83"/>
<polygon id="0x186c620" class="l28d0" points="20,157 60,157 60,243 20,243"/>
<polygon id="0x18279a0" class="l28d0" points="20,317 60,317 60,403 20,403"/>
<polygon id="0x17c0a00" class="l28d0" points="100,-3 140,-3 140,163 100,163"/>
<polygon id="0x181f570" class="l28d0" points="180,237 220,237 220,323 180,323"/>
<polygon id="0x17c0f70" class="l28d0" points="260,-3 300,-3 300,83 260,83"/>
<polygon id="0x178c2b0" class="l28d0" points="260,157 300,157 300,243 260,243"/>
<polygon id="0x1855ef0" class="l28d0" points="340,-3 380,-3 380,83 340,83"/>
<polygon id="0x1831f00" class="l28d0" points="340,157 380,157 380,323 340,323"/>
</g>
</svg>