<?xml version="1.0" encoding="UTF-8"?>
<svg xmlns="http://www.w3.org/2000/svg" xmlns:xlink="http://www.w3.org/1999/xlink" width="1129.048241" height="898.817236" viewBox="-51.320375 -847.496862 1129.048241 898.817236">
<defs>
<style type="text/css">
.l1d22 {stroke: #0067A5; fill: #0067A5; fill-opacity: 0.5;}
.l235d4 {stroke: #0067A5; fill: #0067A5; fill-opacity: 0.5;}
</style>
</defs>
<rect x="-51.320375" y="-847.496862" width="1129.048241" height="898.817236" fill="#222222" stroke="none"/>
<g id="my_logo" transform="scale(1 -1)">
<polygon id="0x2be6b00" class="l1d22" points="62.713521,87.016939 64.998362,89.143518 66.295508,91.982575 66.407492,95.101917 65.317265,98.02668 54.345072,115.797064 53.152078,120 54.345072,124.202936 65.317265,141.97332 66.407492,144.898083 66.295508,148.017425 64.998362,150.856482 62.713521,152.983061 59.307913,155.086054 56.382786,156.176487 53.263035,156.064392 50.42371,154.766837 48.297162,152.481403 46.223737,149.122453 44.193895,146.972132 41.478524,145.801279 38.521476,145.801279 35.806105,146.972132 33.776263,149.122453 31.702838,152.481403 29.57629,154.766837 26.736965,156.064392 23.617214,156.176487 20.692087,155.086054 17.286479,152.983061 15.001638,150.856482 13.704492,148.017425 13.592508,144.898083 14.682735,141.97332 25.654928,124.202936 26.847922,120 25.654928,115.797064 14.682735,98.02668 13.592508,95.101917 13.704492,91.982575 15.001638,89.143518 17.286479,87.016939 20.692087,84.913946 23.617214,83.823513 26.736965,83.935608 29.57629,85.233163 31.702838,87.518597 33.776263,90.877547 35.806105,93.027868 38.521476,94.198721 41.478524,94.198721 44.193895,93.027868 46.223737,90.877547 48.297162,87.518597 50.42371,85.233163 53.263035,83.935608 56.382786,83.823513 59.307913,84.913946"/>
<polygon id="0x2ce8110" class="l1d22" points="62.713521,167.016939 64.998362,169.143518 66.295508,171.982575 66.407492,175.101917 65.317265,178.02668 54.345072,195.797064 53.152078,200 54.345072,204.202936 65.317265,221.97332 66.407492,224.898083 66.295508,228.017425 64.998362,230.856482 62.713521,232.983061 59.307913,235.086054 56.382786,236.176487 53.263035,236.064392 50.42371,234.766837 48.297162,232.481403 46.223737,229.122453 44.193895,226.972132 41.478524,225.801279 38.521476,225.801279 35.806105,226.972132 33.776263,229.122453 31.702838,232.481403 29.57629,234.766837 26.736965,236.064392 23.617214,236.176487 20.692087,235.086054 17.286479,232.983061 15.001638,230.856482 13.704492,228.017425 13.592508,224.898083 14.682735,221.97332 25.654928,204.202936 26.847922,200 25.654928,195.797064 14.682735,178.02668 13.592508,175.101917 13.704492,171.982575 15.001638,169.143518 17.286479,167.016939 20.692087,164.913946 23.617214,163.823513 26.736965,163.935608 29.57629,165.233163 31.702838,167.518597 33.776263,170.877547 35.806105,173.027868 38.521476,174.198721 41.478524,174.198721 44.193895,173.027868 46.223737,170.877547 48.297162,167.518597 50.42371,165.233163 53.263035,163.935608 56.382786,163.823513 59.307913,164.913946"/>
<polygon id="0x2c96260" class="l1d22" points="62.713521,247.016939 64.998362,249.143518 66.295508,251.982575 66.407492,255.101917 65.317265,258.02668 54.345072,275.797064 53.152078,280 54.345072,284.202936 65.317265,301.97332 66.407492,304.898083 66.295508,308.017425 64.998362,310.856482 62.713521,312.983061 59.307913,315.086054 56.382786,316.176487 53.263035,316.064392 50.42371,314.766837 48.297162,312.481403 46.223737,309.122453 44.193895,306.972132 41.478524,305.801279 38.521476,305.801279 35.806105,306.972132 33.776263,309.122453 31.702838,312.481403 29.57629,314.766837 26.736965,316.064392 23.617214,316.176487 20.692087,315.086054 17.286479,312.983061 15.001638,310.856482 13.704492,308.017425 13.592508,304.898083 14.682735,301.97332 25.654928,284.202936 26.847922,280 25.654928,275.797064 14.682735,258.02668 13.592508,255.101917 13.704492,251.982575 15.001638,249.143518 17.286479,247.016939 20.692087,244.913946 23.617214,243.823513 26.736965,243.935608 29.57629,245.233163 31.702838,247.518597 33.776263,250.877547 35.806105,253.027868 38.521476,254.198721 41.478524,254.198721 44.193895,253.027868 46.223737,250.877547 48.297162,247.518597 50.42371,245.233163 53.263035,243.935608 56.382786,243.823513 59.307913,244.913946"/>
<polygon id="0x2cb63b0" class="l1d22" points="62.713521,487.016939 64.998362,489.143518 66.295508,491.982575 66.407492,495.101917 65.317265,498.02668 54.345072,515.797064 53.152078,520 54.345072,524.202936 65.317265,541.97332 66.407492,544.898083 66.295508,548.017425 64.998362,550.856482 62.713521,552.983061 59.307913,555.086054 56.382786,556.176487 53.263035,556.064392 50.42371,554.766837 48.297162,552.481403 46.223737,549.122453 44.193895,546.972132 41.478524,545.801279 38.521476,545.801279 35.806105,546.972132 33.776263,549.122453 31.702838,552.481403 29.57629,554.766837 26.736965,556.064392 23.617214,556.176487 20.692087,555.086054 17.286479,552.983061 15.001638,550.856482 13.704492,548.017425 13.592508,544.898083 14.682735,541.97332 25.654928,524.202936 26.847922,520 25.654928,515.797064 14.682735,498.02668 13.592508,495.101917 13.704492,491.982575 15.001638,489.143518 17.286479,487.016939 20.692087,484.913946 23.617214,483.823513 26.736965,483.935608 29.57629,485.233163 31.702838,487.518597 33.776263,490.877547 35.806105,493.027868 38.521476,494.198721 41.478524,494.198721 44.193895,493.027868 46.223737,490.877547 48.297162,487.518597 50.42371,485.233163 53.263035,483.935608 56.382786,483.823513 59.307913,484.913946"/>
<polygon id="0x2cc9000" class="l1d22" points="62.713521,567.016939 64.998362,569.143518 66.295508,571.982575 66.407492,575.101917 65.317265,578.02668 54.345072,595.797064 53.152078,600 54.345072,604.202936 65.317265,621.97332 66.407492,624.898083 66.295508,628.017425 64.998362,630.856482 62.713521,632.983061 59.307913,635.086054 56.382786,636.176487 53.263035,636.064392 50.42371,634.766837 48.297162,632.481403 46.223737,629.122453 44.193895,626.972132 41.478524,625.801279 38.521476,625.801279 35.806105,626.972132 33.776263,629.122453 31.702838,632.481403 29.57629,634.766837 26.736965,636.064392 23.617214,636.176487 20.692087,635.086054 17.286479,632.983061 15.001638,630.856482 13.704492,628.017425 13.592508,624.898083 14.682735,621.97332 25.654928,604.202936 26.847922,600 25.654928,595.797064 14.682735,578.02668 13.592508,575.101917 13.704492,571.982575 15.001638,569.143518 17.286479,567.016939 20.692087,564.913946 23.617214,563.823513 26.736965,563.935608 29.57629,565.233163 31.702838,567.518597 33.776263,570.877547 35.806105,573.027868 38.521476,574.198721 41.478524,574.198721 44.193895,573.027868 46.223737,570.877547 48.297162,567.518597 50.42371,565.233163 53.263035,563.935608 56.382786,563.823513 59.307913,564.913946"/>
<polygon id="0x2c5c3c0" class="l1d22" points="62.713521,727.016939 64.998362,729.143518 66.295508,731.982575 66.407492,735.101917 65.317265,738.02668 54.345072,755.797064 53.152078,760 54.345072,764.202936 65.317265,781.97332 66.407492,784.898083 66.295508,788.017425 64.998362,790.856482 62.713521,792.983061 59.307913,795.086054 56.382786,796.176487 53.263035,796.064392 50.42371,794.766837 48.297162,792.481403 46.223737,789.122453 44.193895,786.972132 41.478524,785.801279 38.521476,785.801279 35.806105,786.972132 33.776263,789.122453 31.702838,792.481403 29.57629,794.766837 26.736965,796.064392 23.617214,796.176487 20.692087,795.086054 17.286479,792.983061 15.001638,790.856482 13.704492,788.017425 13.592508,784.898083 14.682735,781.97332 25.654928,764.202936 26.847922,760 25.654928,755.797064 14.682735,738.02668 13.592508,735.101917 13.704492,731.982575 15.001638,729.143518 17.286479,727.016939 20.692087,724.913946 23.617214,723.823513 26.736965,723.935608 29.57629,725.233163 31.702838,727.518597 33.776263,730.877547 35.806105,733.027868 38.521476,734.198721 41.478524,734.198721 44.193895,733.027868 46.223737,730.877547 48.297162,727.518597 50.42371,725.233163 53.263035,723.935608 56.382786,723.823513 59.307913,724.913946"/>
<polygon id="0x2c71840" class="l1d22" points="142.713521,247.016939 144.998362,249.143518 146.295508,251.982575 146.407492,255.101917 145.317265,258.02668 134.345072,275.797064 133.152078,280 134.345072,284.202936 145.317265,301.97332 146.407492,304.898083 146.295508,308.017425 144.998362,310.856482 142.713521,312.983061 139.307913,315.086054 136.382786,316.176487 133.263035,316.064392 130.42371,314.766837 128.297162,312.481403 126.223737,309.122453 124.193895,306.972132 121.478524,305.801279 118.521476,305.801279 115.806105,306.972132 113.776263,309.122453 111.702838,312.481403 109.57629,314.766837 106.736965,316.064392 103.617214,316.176487 100.692087,315.086054 97.286479,312.983061 95.001638,310.856482 93.704492,308.017425 93.592508,304.898083 94.682735,301.97332 105.654928,284.202936 106.847922,280 105.654928,275.797064 94.682735,258.02668 93.592508,255.101917 93.704492,251.982575 95.001638,249.143518 97.286479,247.016939 100.692087,244.913946 103.617214,243.823513 106.736965,243.935608 109.57629,245.233163 111.702838,247.518597 113.776263,250.877547 115.806105,253.027868 118.521476,254.198721 121.478524,254.198721 124.193895,253.027868 126.223737,250.877547 128.297162,247.518597 130.42371,245.233163 133.263035,243.935608 136.382786,243.823513 139.307913,244.913946"/>
<polygon id="0x2cbece0" class="l1d22" points="142.713521,487.016939 144.998362,489.143518 146.295508,491.982575 146.407492,495.101917 145.317265,498.02668 134.345072,515.797064 133.152078,520 134.345072,524.202936 145.317265,541.97332 146.407492,544.898083 146.295508,548.017425 144.998362,550.856482 142.713521,552.983061 139.307913,555.086054 136.382786,556.176487 133.263035,556.064392 130.42371,554.766837 128.297162,552.481403 126.223737,549.122453 124.193895,546.972132 121.478524,545.801279 118.521476,545.801279 115.806105,546.972132 113.776263,549.122453 111.702838,552.481403 109.57629,554.766837 106.736965,556.064392 103.617214,556.176487 100.692087,555.086054 97.286479,552.983061 95.001638,550.856482 93.704492,548.017425 93.592508,544.898083 94.682735,541.97332 105.654928,524.202936 106.847922,520 105.654928,515.797064 94.682735,498.02668 93.592508,495.101917 93.704492,491.982575 95.001638,489.143518 97.286479,487.016939 100.692087,484.913946 103.617214,483.823513 106.736965,483.935608 109.57629,485.233163 111.702838,487.518597 113.776263,490.877547 115.806105,493.027868 118.521476,494.198721 121.478524,494.198721 124.193895,493.027868 126.223737,490.877547 128.297162,487.518597 130.42371,485.233163 133.263035,483.935608 136.382786,483.823513 139.307913,484.913946"/>
<polygon id="0x2c00a90" class="l1d22" points="222.713521,247.016939 224.998362,249.143518 226.295508,251.982575 226.407492,255.101917 225.317265,258.02668 214.345072,275.797064 213.152078,280 214.345072,284.202936 225.317265,301.97332 226.407492,304.898083 226.295508,308.017425 224.998362,310.856482 222.713521,312.983061 219.307913,315.086054 216.382786,316.176487 213.263035,316.064392 210.42371,314.766837 208.297162,312.481403 206.223737,309.122453 204.193895,306.972132 201.478524,305.801279 198.521476,305.801279 195.806105,306.972132 193.776263,309.122453 191.702838,312.481403 189.57629,314.766837 186.736965,316.064392 183.617214,316.176487 180.692087,315.086054 177.286479,312.983061 175.001638,310.856482 173.704492,308.017425 173.592508,304.898083 174.682735,301.97332 185.654928,284.202936 186.847922,280 185.654928,275.797064 174.682735,258.02668 173.592508,255.101917 173.704492,251.982575 175.001638,249.143518 177.286479,247.016939 180.692087,244.913946 183.617214,243.823513 186.736965,243.935608 189.57629,245.233163 191.702838,247.518597 193.776263,250.877547 195.806105,253.027868 198.521476,254.198721 201.478524,254.198721 204.193895,253.027868 206.223737,250.877547 208.297162,247.518597 210.42371,245.233163 213.263035,243.935608 216.382786,243.823513 219.307913,244.913946"/>
<polygon id="0x2c63b90" class="l1d22" points="222.713521,327.016939 224.998362,329.143518 226.295508,331.982575 226.407492,335.101917 225.317265,338.02668 214.345072,355.797064 213.152078,360 214.345072,364.202936 225.317265,381.97332 226.407492,384.898083 226.295508,388.017425 224.998362,390.856482 222.713521,392.983061 219.307913,395.086054 216.382786,396.176487 213.263035,396.064392 210.42371,394.766837 208.297162,392.481403 206.223737,389.122453 204.193895,386.972132 201.478524,385.801279 198.521476,385.801279 195.806105,386.972132 193.776263,389.122453 191.702838,392.481403 189.57629,394.766837 186.736965,396.064392 183.617214,396.176487 180.692087,395.086054 177.286479,392.983061 175.001638,390.856482 173.704492,388.017425 173.592508,384.898083 174.682735,381.97332 185.654928,364.202936 186.847922,360 185.654928,355.797064 174.682735,338.02668 173.592508,335.101917 173.704492,331.982575 175.001638,329.143518 177.286479,327.016939 180.692087,324.913946 183.617214,323.823513 186.736965,323.935608 189.57629,325.233163 191.702838,327.518597 193.776263,330.877547 195.806105,333.027868 198.521476,334.198721 201.478524,334.198721 204.193895,333.027868 206.223737,330.877547 208.297162,327.518597 210.42371,325.233163 213.263035,323.935608 216.382786,323.823513 219.307913,324.913946"/>
<polygon id="0x2c85b30" class="l1d22" points="222.713521,487.016939 224.998362,489.143518 226.295508,491.982575 226.407492,495.101917 225.317265,498.02668 214.345072,515.797064 213.152078,520 214.345072,524.202936 225.317265,541.97332 226.407492,544.898083 226.295508,548.017425 224.998362,550.856482 222.713521,552.983061 219.307913,555.086054 216.382786,556.176487 213.263035,556.064392 210.42371,554.766837 208.297162,552.481403 206.223737,549.122453 204.193895,546.972132 201.478524,545.801279 198.521476,545.801279 195.806105,546.972132 193.776263,549.122453 191.702838,552.481403 189.57629,554.766837 186.736965,556.064392 183.617214,556.176487 180.692087,555.086054 177.286479,552.983061 175.001638,550.856482 173.704492,548.017425 173.592508,544.898083 174.682735,541.97332 185.654928,524.202936 186.847922,520 185.654928,515.797064 174.682735,498.02668 173.592508,495.101917 173.704492,491.982575 175.001638,489.143518 177.286479,487.016939 180.692087,484.913946 183.617214,483.823513 186.736965,483.935608 189.57629,485.233163 191.702838,487.518597 193.776263,490.877547 195.806105,493.027868 198.521476,494.198721 201.478524,494.198721 204.193895,493.027868 206.223737,490.877547 208.297162,487.518597 210.42371,485.233163 213.263035,483.935608 216.382786,483.823513 219.307913,484.913946"/>
<polygon id="0x2cb1ce0" class="l1d22" points="222.713521,567.016939 224.998362,569.143518 226.295508,571.982575 226.407492,575.101917 225.317265,578.02668 214.345072,595.797064 213.152078,600 214.345072,604.202936 225.317265,621.97332 226.407492,624.898083 226.295508,628.017425 224.998362,630.856482 222.713521,632.983061 219.307913,635.086054 216.382786,636.176487 213.263035,636.064392 210.42371,634.766837 208.297162,632.481403 206.223737,629.122453 204.193895,626.972132 201.478524,625.801279 198.521476,625.801279 195.806105,626.972132 193.776263,629.122453 191.702838,632.481403 189.57629,634.766837 186.736965,636.064392 183.617214,636.176487 180.692087,635.086054 177.286479,632.983061 175.001638,630.856482 173.704492,628.017425 173.592508,624.898083 174.682735,621.97332 185.654928,604.202936 186.847922,600 185.654928,595.797064 174.682735,578.02668 173.592508,575.101917 173.704492,571.982575 175.001638,569.143518 177.286479,567.016939 180.692087,564.913946 183.617214,563.823513 186.736965,563.935608 189.57629,565.233163 191.702838,567.518597 193.776263,570.877547 195.806105,573.027868 198.521476,574.198721 201.478524,574.198721 204.193895,573.027868 206.223737,570.877547 208.297162,567.518597 210.42371,565.233163 213.263035,563.935608 216.382786,563.823513 219.307913,564.913946"/>
<polygon id="0x2c325c0" class="l1d22" points="222.713521,647.016939 224.998362,649.143518 226.295508,651.982575 226.407492,655.101917 225.317265,658.02668 214.345072,675.797064 213.152078,680 214.345072,684.202936 225.317265,701.97332 226.407492,704.898083 226.295508,708.017425 224.998362,710.856482 222.713521,712.983061 219.307913,715.086054 216.382786,716.176487 213.263035,716.064392 210.42371,714.766837 208.297162,712.481403 206.223737,709.122453 204.193895,706.972132 201.478524,705.801279 198.521476,705.801279 195.806105,706.972132 193.776263,709.122453 191.702838,712.481403 189.57629,714.766837 186.736965,716.064392 183.617214,716.176487 180.692087,715.086054 177.286479,712.983061 175.001638,710.856482 173.704492,708.017425 173.592508,704.898083 174.682735,701.97332 185.654928,684.202936 186.847922,680 185.654928,675.797064 174.682735,658.02668 173.592508,655.101917 173.704492,651.982575 175.001638,649.143518 177.286479,647.016939 180.692087,644.913946 183.617214,643.823513 186.736965,643.935608 189.57629,645.233163 191.702838,647.518597 193.776263,650.877547 195.806105,653.027868 198.521476,654.198721 201.478524,654.198721 204.193895,653.027868 206.223737,650.877547 208.297162,647.518597 210.42371,645.233163 213.263035,643.935608 216.382786,643.823513 219.307913,644.913946"/>
<polygon id="0x2c43a00" class="l1d22" points="222.713521,727.016939 224.998362,729.143518 226.295508,731.982575 226.407492,735.101917 225.317265,738.02668 214.345072,755.797064 213.152078,760 214.345072,764.202936 225.317265,781.97332 226.407492,784.898083 226.295508,788.017425 224.998362,790.856482 222.713521,792.983061 219.307913,795.086054 216.382786,796.176487 213.263035,796.064392 210.42371,794.766837 208.297162,792.481403 206.223737,789.122453 204.193895,786.972132 201.478524,785.801279 198.521476,785.801279 195.806105,786.972132 193.776263,789.122453 191.702838,792.481403 189.57629,794.766837 186.736965,796.064392 183.617214,796.176487 180.692087,795.086054 177.286479,792.983061 175.001638,790.856482 173.704492,788.017425 173.592508,784.898083 174.682735,781.97332 185.654928,764.202936 186.847922,760 185.654928,755.797064 174.682735,738.02668 173.592508,735.101917 173.704492,731.982575 175.001638,729.143518 177.286479,727.016939 180.692087,724.913946 183.617214,723.823513 186.736965,723.935608 189.57629,725.233163 191.702838,727.518597 193.776263,730.877547 195.806105,733.027868 198.521476,734.198721 201.478524,734.198721 204.193895,733.027868 206.223737,730.877547 208.297162,727.518597 210.42371,725.233163 213.263035,723.935608 216.382786,723.823513 219.307913,724.913946"/>
<polygon id="0x2c843c0" class="l1d22" points="302.713521,87.016939 304.998362,89.143518 306.295508,91.982575 306.407492,95.101917 305.317265,98.02668 294.345072,115.797064 293.152078,120 294.345072,124.202936 305.317265,141.97332 306.407492,144.898083 306.295508,148.017425 304.998362,150.856482 302.713521,152.983061 299.307913,155.086054 296.382786,156.176487 293.263035,156.064392 290.42371,154.766837 288.297162,152.481403 286.223737,149.122453 284.193895,146.972132 281.478524,145.801279 278.521476,145.801279 275.806105,146.972132 273.776263,149.122453 271.702838,152.481403 269.57629,154.766837 266.736965,156.064392 263.617214,156.176487 260.692087,155.086054 257.286479,152.983061 255.001638,150.856482 253.704492,148.017425 253.592508,144.898083 254.682735,141.97332 265.654928,124.202936 266.847922,120 265.654928,115.797064 254.682735,98.02668 253.592508,95.101917 253.704492,91.982575 255.001638,89.143518 257.286479,87.016939 260.692087,84.913946 263.617214,83.823513 266.736965,83.935608 269.57629,85.233163 271.702838,87.518597 273.776263,90.877547 275.806105,93.027868 278.521476,94.198721 281.478524,94.198721 284.193895,93.027868 286.223737,90.877547 288.297162,87.518597 290.42371,85.233163 293.263035,83.935608 296.382786,83.823513 299.307913,84.913946"/>
<polygon id="0x2c8f4e0" class="l1d22" points="302.713521,167.016939 304.998362,169.143518 306.295508,171.982575 306.407492,175.101917 305.317265,178.02668 294.345072,195.797064 293.152078,200 294.345072,204.202936 305.317265,221.97332 306.407492,224.898083 306.295508,228.017425 304.998362,230.856482 302.713521,232.983061 299.307913,235.086054 296.382786,236.176487 293.263035,236.064392 290.42371,234.766837 288.297162,232.481403 286.223737,229.122453 284.193895,226.972132 281.478524,225.801279 278.521476,225.801279 275.806105,226.972132 273.776263,229.122453 271.702838,232.481403 269.57629,234.766837 266.736965,236.064392 263.617214,236.176487 260.692087,235.086054 257.286479,232.983061 255.001638,230.856482 253.704492,228.017425 253.592508,224.898083 254.682735,221.97332 265.654928,204.202936 266.847922,200 265.654928,195.797064 254.682735,178.02668 253.592508,175.101917 253.704492,171.982575 255.001638,169.143518 257.286479,167.016939 260.692087,164.913946 263.617214,163.823513 266.736965,163.935608 269.57629,165.233163 271.702838,167.518597 273.776263,170.877547 275.806105,173.027868 278.521476,174.198721 281.478524,174.198721 284.193895,173.027868 286.223737,170.877547 288.297162,167.518597 290.42371,165.233163 293.263035,163.935608 296.382786,163.823513 299.307913,164.913946"/>
<polygon id="0x2c950b0" class="l1d22" points="302.713521,327.016939 304.998362,329.143518 306.295508,331.982575 306.407492,335.101917 305.317265,338.02668 294.345072,355.797064 293.152078,360 294.345072,364.202936 305.317265,381.97332 306.407492,384.898083 306.295508,388.017425 304.998362,390.856482 302.713521,392.983061 299.307913,395.086054 296.382786,396.176487 293.263035,396.064392 290.42371,394.766837 288.297162,392.481403 286.223737,389.122453 284.193895,386.972132 281.478524,385.801279 278.521476,385.801279 275.806105,386.972132 273.776263,389.122453 271.702838,392.481403 269.57629,394.766837 266.736965,396.064392 263.617214,396.176487 260.692087,395.086054 257.286479,392.983061 255.001638,390.856482 253.704492,388.017425 253.592508,384.898083 254.682735,381.97332 265.654928,364.202936 266.847922,360 265.654928,355.797064 254.682735,338.02668 253.592508,335.101917 253.704492,331.982575 255.001638,329.143518 257.286479,327.016939 260.692087,324.913946 263.617214,323.823513 266.736965,323.935608 269.57629,325.233163 271.702838,327.518597 273.776263,330.877547 275.806105,333.027868 278.521476,334.198721 281.478524,334.198721 284.193895,333.027868 286.223737,330.877547 288.297162,327.518597 290.42371,325.233163 293.263035,323.935608 296.382786,323.823513 299.307913,324.913946"/>
<polygon id="0x2a1fa10" class="l1d22" points="302.713521,407.016939 304.998362,409.143518 306.295508,411.982575 306.407492,415.101917 305.317265,418.02668 294.345072,435.797064 293.152078,440 294.345072,444.202936 305.317265,461.97332 306.407492,464.898083 306.295508,468.017425 304.998362,470.856482 302.713521,472.983061 299.307913,475.086054 296.382786,476.176487 293.263035,476.064392 290.42371,474.766837 288.297162,472.481403 286.223737,469.122453 284.193895,466.972132 281.478524,465.801279 278.521476,465.801279 275.806105,466.972132 273.776263,469.122453 271.702838,472.481403 269.57629,474.766837 266.736965,476.064392 263.617214,476.176487 260.692087,475.086054 257.286479,472.983061 255.001638,470.856482 253.704492,468.017425 253.592508,464.898083 254.682735,461.97332 265.654928,444.202936 266.847922,440 265.654928,435.797064 254.682735,418.02668 253.592508,415.101917 253.704492,411.982575 255.001638,409.143518 257.286479,407.016939 260.692087,404.913946 263.617214,403.823513 266.736965,403.935608 269.57629,405.233163 271.702838,407.518597 273.776263,410.877547 275.806105,413.027868 278.521476,414.198721 281.478524,414.198721 284.193895,413.027868 286.223737,410.877547 288.297162,407.518597 290.42371,405.233163 293.263035,403.935608 296.382786,403.823513 299.307913,404.913946"/>
<polygon id="0x2c83870" class="l1d22" points="302.713521,487.016939 304.998362,489.143518 306.295508,491.982575 306.407492,495.101917 305.317265,498.02668 294.345072,515.797064 293.152078,520 294.345072,524.202936 305.317265,541.97332 306.407492,544.898083 306.295508,548.017425 304.998362,550.856482 302.713521,552.983061 299.307913,555.086054 296.382786,556.176487 293.263035,556.064392 290.42371,554.766837 288.297162,552.481403 286.223737,549.122453 284.193895,546.972132 281.478524,545.801279 278.521476,545.801279 275.806105,546.972132 273.776263,549.122453 271.702838,552.481403 269.57629,554.766837 266.736965,556.064392 263.617214,556.176487 260.692087,555.086054 257.286479,552.983061 255.001638,550.856482 253.704492,548.017425 253.592508,544.898083 254.682735,541.97332 265.654928,524.202936 266.847922,520 265.654928,515.797064 254.682735,498.02668 253.592508,495.101917 253.704492,491.982575 255.001638,489.143518 257.286479,487.016939 260.692087,484.913946 263.617214,483.823513 266.736965,483.935608 269.57629,485.233163 271.702838,487.518597 273.776263,490.877547 275.806105,493.027868 278.521476,494.198721 281.478524,494.198721 284.193895,493.027868 286.223737,490.877547 288.297162,487.518597 290.42371,485.233163 293.263035,483.935608 296.382786,483.823513 299.307913,484.913946"/>
<polygon id="0x2c838e0" class="l1d22" points="302.713521,647.016939 304.998362,649.143518 306.295508,651.982575 306.407492,655.101917 305.317265,658.02668 294.345072,675.797064 293.152078,680 294.345072,684.202936 305.317265,701.97332 306.407492,704.898083 306.295508,708.017425 304.998362,710.856482 302.713521,712.983061 299.307913,715.086054 296.382786,716.176487 293.263035,716.064392 290.42371,714.766837 288.297162,712.481403 286.223737,709.122453 284.193895,706.972132 281.478524,705.801279 278.521476,705.801279 275.806105,706.972132 273.776263,709.122453 271.702838,712.481403 269.57629,714.766837 266.736965,716.064392 263.617214,716.176487 260.692087,715.086054 257.286479,712.983061 255.001638,710.856482 253.704492,708.017425 253.592508,704.898083 254.682735,701.97332 265.654928,684.202936 266.847922,680 265.654928,675.797064 254.682735,658.02668 253.592508,655.101917 253.704492,651.982575 255.001638,649.143518 257.286479,647.016939 260.692087,644.913946 263.617214,643.823513 266.736965,643.935608 269.57629,645.233163 271.702838,647.518597 273.776263,650.877547 275.806105,653.027868 278.521476,654.198721 281.478524,654.198721 284.193895,653.027868 286.223737,650.877547 288.297162,647.518597 290.42371,645.233163 293.263035,643.935608 296.382786,643.823513 299.307913,644.913946"/>
<polygon id="0x2be8180" class="l1d22" points="302.713521,727.016939 304.998362,729.143518 306.295508,731.982575 306.407492,735.101917 305.317265,738.02668 294.345072,755.797064 293.152078,760 294.345072,764.202936 305.317265,781.97332 306.407492,784.898083 306.295508,788.017425 304.998362,790.856482 302.713521,792.983061 299.307913,795.086054 296.382786,796.176487 293.263035,796.064392 290.42371,794.766837 288.297162,792.481403 286.223737,789.122453 284.193895,786.972132 281.478524,785.801279 278.521476,785.801279 275.806105,786.972132 273.776263,789.122453 271.702838,792.481403 269.57629,794.766837 266.736965,796.064392 263.617214,796.176487 260.692087,795.086054 257.286479,792.983061 255.001638,790.856482 253.704492,788.017425 253.592508,784.898083 254.682735,781.97332 265.654928,764.202936 266.847922,760 265.654928,755.797064 254.682735,738.02668 253.592508,735.101917 253.704492,731.982575 255.001638,729.143518 257.286479,727.016939 260.692087,724.913946 263.617214,723.823513 266.736965,723.935608 269.57629,725.233163 271.702838,727.518597 273.776263,730.877547 275.806105,733.027868 278.521476,734.198721 281.478524,734.198721 284.193895,733.027868 286.223737,730.877547 288.297162,727.518597 290.42371,725.233163 293.263035,723.935608 296.382786,723.823513 299.307913,724.913946"/>
<polygon id="0x2be81f0" class="l1d22" points="382.713521,7.016939 384.998362,9.143518 386.295508,11.982575 386.407492,15.101917 385.317265,18.02668 374.345072,35.797064 373.152078,40 374.345072,44.202936 385.317265,61.97332 386.407492,64.898083 386.295508,68.017425 384.998362,70.856482 382.713521,72.983061 379.307913,75.086054 376.382786,76.176487 373.263035,76.064392 370.42371,74.766837 368.297162,72.481403 366.223737,69.122453 364.193895,66.972132 361.478524,65.801279 358.521476,65.801279 355.806105,66.972132 353.776263,69.122453 351.702838,72.481403 349.57629,74.766837 346.736965,76.064392 343.617214,76.176487 340.692087,75.086054 337.286479,72.983061 335.001638,70.856482 333.704492,68.017425 333.592508,64.898083 334.682735,61.97332 345.654928,44.202936 346.847922,40 345.654928,35.797064 334.682735,18.02668 333.592508,15.101917 333.704492,11.982575 335.001638,9.143518 337.286479,7.016939 340.692087,4.913946 343.617214,3.823513 346.736965,3.935608 349.57629,5.233163 351.702838,7.518597 353.776263,10.877547 355.806105,13.027868 358.521476,14.198721 361.478524,14.198721 364.193895,13.027868 366.223737,10.877547 368.297162,7.518597 370.42371,5.233163 373.263035,3.935608 376.382786,3.823513 379.307913,4.913946"/>
<polygon id="0x2bd3cd0" class="l1d22" points="382.713521,87.016939 384.998362,89.143518 386.295508,91.982575 386.407492,95.101917 385.317265,98.02668 374.345072,115.797064 373.152078,120 374.345072,124.202936 385.317265,141.97332 386.407492,144.898083 386.295508,148.017425 384.998362,150.856482 382.713521,152.983061 379.307913,155.086054 376.382786,156.176487 373.263035,156.064392 370.42371,154.766837 368.297162,152.481403 366.223737,149.122453 364.193895,146.972132 361.478524,145.801279 358.521476,145.801279 355.806105,146.972132 353.776263,149.122453 351.702838,152.481403 349.57629,154.766837 346.736965,156.064392 343.617214,156.176487 340.692087,155.086054 337.286479,152.983061 335.001638,150.856482 333.704492,148.017425 333.592508,144.898083 334.682735,141.97332 345.654928,124.202936 346.847922,120 345.654928,115.797064 334.682735,98.02668 333.592508,95.101917 333.704492,91.982575 335.001638,89.143518 337.286479,87.016939 340.692087,84.913946 343.617214,83.823513 346.736965,83.935608 349.57629,85.233163 351.702838,87.518597 353.776263,90.877547 355.806105,93.027868 358.521476,94.198721 361.478524,94.198721 364.193895,93.027868 366.223737,90.877547 368.297162,87.518597 370.42371,85.233163 373.263035,83.935608 376.382786,83.823513 379.307913,84.913946"/>
<polygon id="0x2bd3d40" class="l1d22" points="382.713521,327.016939 384.998362,329.143518 386.295508,331.982575 386.407492,335.101917 385.317265,338.02668 374.345072,355.797064 373.152078,360 374.345072,364.202936 385.317265,381.97332 386.407492,384.898083 386.295508,388.017425 384.998362,390.856482 382.713521,392.983061 379.307913,395.086054 376.382786,396.176487 373.263035,396.064392 370.42371,394.766837 368.297162,392.481403 366.223737,389.122453 364.193895,386.972132 361.478524,385.801279 358.521476,385.801279 355.806105,386.972132 353.776263,389.122453 351.702838,392.481403 349.57629,394.766837 346.736965,396.064392 343.617214,396.176487 340.692087,395.086054 337.286479,392.983061 335.001638,390.856482 333.704492,388.017425 333.592508,384.898083 334.682735,381.97332 345.654928,364.202936 346.847922,360 345.654928,355.797064 334.682735,338.02668 333.592508,335.101917 333.704492,331.982575 335.001638,329.143518 337.286479,327.016939 340.692087,324.913946 343.617214,323.823513 346.736965,323.935608 349.57629,325.233163 351.702838,327.518597 353.776263,330.877547 355.806105,333.027868 358.521476,334.198721 361.478524,334.198721 364.193895,333.027868 366.223737,330.877547 368.297162,327.518597 370.42371,325.233163 373.263035,323.935608 376.382786,323.823513 379.307913,324.913946"/>
<polygon id="0x2c10ff0" class="l1d22" points="382.713521,567.016939 384.998362,569.143518 386.295508,571.982575 386.407492,575.101917 385.317265,578.02668 374.345072,595.797064 373.152078,600 374.345072,604.202936 385.317265,621.97332 386.407492,624.898083 386.295508,628.017425 384.998362,630.856482 382.713521,632.983061 379.307913,635.086054 376.382786,636.176487 373.263035,636.064392 370.42371,634.766837 368.297162,632.481403 366.223737,629.122453 364.193895,626.972132 361.478524,625.801279 358.521476,625.801279 355.806105,626.972132 353.776263,629.122453 351.702838,632.481403 349.57629,634.766837 346.736965,636.064392 343.617214,636.176487 340.692087,635.086054 337.286479,632.983061 335.001638,630.856482 333.704492,628.017425 333.592508,624.898083 334.682735,621.97332 345.654928,604.202936 346.847922,600 345.654928,595.797064 334.682735,578.02668 333.592508,575.101917 333.704492,571.982575 335.001638,569.143518 337.286479,567.016939 340.692087,564.913946 343.617214,563.823513 346.736965,563.935608 349.57629,565.233163 351.702838,567.518597 353.776263,570.877547 355.806105,573.027868 358.521476,574.198721 361.478524,574.198721 364.193895,573.027868 366.223737,570.877547 368.297162,567.518597 370.42371,565.233163 373.263035,563.935608 376.382786,563.823513 379.307913,564.913946"/>
<polygon id="0x2c11060" class="l1d22" points="382.713521,727.016939 384.998362,729.143518 386.295508,731.982575 386.407492,735.101917 385.317265,738.02668 374.345072,755.797064 373.152078,760 374.345072,764.202936 385.317265,781.97332 386.407492,784.898083 386.295508,788.017425 384.998362,790.856482 382.713521,792.983061 379.307913,795.086054 376.382786,796.176487 373.263035,796.064392 370.42371,794.766837 368.297162,792.481403 366.223737,789.122453 364.193895,786.972132 361.478524,785.801279 358.521476,785.801279 355.806105,786.972132 353.776263,789.122453 351.702838,792.481403 349.57629,794.766837 346.736965,796.064392 343.617214,796.176487 340.692087,795.086054 337.286479,792.983061 335.001638,790.856482 333.704492,788.017425 333.592508,784.898083 334.682735,781.97332 345.654928,764.202936 346.847922,760 345.654928,755.797064 334.682735,738.02668 333.592508,735.101917 333.704492,731.982575 335.001638,729.143518 337.286479,727.016939 340.692087,724.913946 343.617214,723.823513 346.736965,723.935608 349.57629,725.233163 351.702838,727.518597 353.776263,730.877547 355.806105,733.027868 358.521476,734.198721 361.478524,734.198721 364.193895,733.027868 366.223737,730.877547 368.297162,727.518597 370.42371,725.233163 373.263035,723.935608 376.382786,723.823513 379.307913,724.913946"/>
<polygon id="0x2cca150" class="l1d22" points="462.713521,7.016939 464.998362,9.143518 466.295508,11.982575 466.407492,15.101917 465.317265,18.02668 454.345072,35.797064 453.152078,40 454.345072,44.202936 465.317265,61.97332 466.407492,64.898083 466.295508,68.017425 464.998362,70.856482 462.713521,72.983061 459.307913,75.086054 456.382786,76.176487 453.263035,76.064392 450.42371,74.766837 448.297162,72.481403 446.223737,69.122453 444.193895,66.972132 441.478524,65.801279 438.521476,65.801279 435.806105,66.972132 433.776263,69.122453 431.702838,72.481403 429.57629,74.766837 426.736965,76.064392 423.617214,76.176487 420.692087,75.086054 417.286479,72.983061 415.001638,70.856482 413.704492,68.017425 413.592508,64.898083 414.682735,61.97332 425.654928,44.202936 426.847922,40 425.654928,35.797064 414.682735,18.02668 413.592508,15.101917 413.704492,11.982575 415.001638,9.143518 417.286479,7.016939 420.692087,4.913946 423.617214,3.823513 426.736965,3.935608 429.57629,5.233163 431.702838,7.518597 433.776263,10.877547 435.806105,13.027868 438.521476,14.198721 441.478524,14.198721 444.193895,13.027868 446.223737,10.877547 448.297162,7.518597 450.42371,5.233163 453.263035,3.935608 456.382786,3.823513 459.307913,4.913946"/>
<polygon id="0x2cca1c0" class="l1d22" points="462.713521,567.016939 464.998362,569.143518 466.295508,571.982575 466.407492,575.101917 465.317265,578.02668 454.345072,595.797064 453.152078,600 454.345072,604.202936 465.317265,621.97332 466.407492,624.898083 466.295508,628.017425 464.998362,630.856482 462.713521,632.983061 459.307913,635.086054 456.382786,636.176487 453.263035,636.064392 450.42371,634.766837 448.297162,632.481403 446.223737,629.122453 444.193895,626.972132 441.478524,625.801279 438.521476,625.801279 435.806105,626.972132 433.776263,629.122453 431.702838,632.481403 429.57629,634.766837 426.736965,636.064392 423.617214,636.176487 420.692087,635.086054 417.286479,632.983061 415.001638,630.856482 413.704492,628.017425 413.592508,624.898083 414.682735,621.97332 425.654928,604.202936 426.847922,600 425.654928,595.797064 414.682735,578.02668 413.592508,575.101917 413.704492,571.982575 415.001638,569.143518 417.286479,567.016939 420.692087,564.913946 423.617214,563.823513 426.736965,563.935608 429.57629,565.233163 431.702838,567.518597 433.776263,570.877547 435.806105,573.027868 438.521476,574.198721 441.478524,574.198721 444.193895,573.027868 446.223737,570.877547 448.297162,567.518597 450.42371,565.233163 453.263035,563.935608 456.382786,563.823513 459.307913,564.913946"/>
<polygon id="0x2bcb160" class="l1d22" points="462.713521,647.016939 464.998362,649.143518 466.295508,651.982575 466.407492,655.101917 465.317265,658.02668 454.345072,675.797064 453.152078,680 454.345072,684.202936 465.317265,701.97332 466.407492,704.898083 466.295508,708.017425 464.998362,710.856482 462.713521,712.983061 459.307913,715.086054 456.382786,716.176487 453.263035,716.064392 450.42371,714.766837 448.297162,712.481403 446.223737,709.122453 444.193895,706.972132 441.478524,705.801279 438.521476,705.801279 435.806105,706.972132 433.776263,709.122453 431.702838,712.481403 429.57629,714.766837 426.736965,716.064392 423.617214,716.176487 420.692087,715.086054 417.286479,712.983061 415.001638,710.856482 413.704492,708.017425 413.592508,704.898083 414.682735,701.97332 425.654928,684.202936 426.847922,680 425.654928,675.797064 414.682735,658.02668 413.592508,655.101917 413.704492,651.982575 415.001638,649.143518 417.286479,647.016939 420.692087,644.913946 423.617214,643.823513 426.736965,643.935608 429.57629,645.233163 431.702838,647.518597 433.776263,650.877547 435.806105,653.027868 438.521476,654.198721 441.478524,654.198721 444.193895,653.027868 446.223737,650.877547 448.297162,647.518597 450.42371,645.233163 453.263035,643.935608 456.382786,643.823513 459.307913,644.913946"/>
<polygon id="0x2bcb1d0" class="l1d22" points="542.713521,7.016939 544.998362,9.143518 546.295508,11.982575 546.407492,15.101917 545.317265,18.02668 534.345072,35.797064 533.152078,40 534.345072,44.202936 545.317265,61.97332 546.407492,64.898083 546.295508,68.017425 544.998362,70.856482 542.713521,72.983061 539.307913,75.086054 536.382786,76.176487 533.263035,76.064392 530.42371,74.766837 528.297162,72.481403 526.223737,69.122453 524.193895,66.972132 521.478524,65.801279 518.521476,65.801279 515.806105,66.972132 513.776263,69.122453 511.702838,72.481403 509.57629,74.766837 506.736965,76.064392 503.617214,76.176487 500.692087,75.086054 497.286479,72.983061 495.001638,70.856482 493.704492,68.017425 493.592508,64.898083 494.682735,61.97332 505.654928,44.202936 506.847922,40 505.654928,35.797064 494.682735,18.02668 493.592508,15.101917 493.704492,11.982575 495.001638,9.143518 497.286479,7.016939 500.692087,4.913946 503.617214,3.823513 506.736965,3.935608 509.57629,5.233163 511.702838,7.518597 513.776263,10.877547 515.806105,13.027868 518.521476,14.198721 521.478524,14.198721 524.193895,13.027868 526.223737,10.877547 528.297162,7.518597 530.42371,5.233163 533.263035,3.935608 536.382786,3.823513 539.307913,4.913946"/>
<polygon id="0x2c4e5b0" class="l1d22" points="542.713521,87.016939 544.998362,89.143518 546.295508,91.982575 546.407492,95.101917 545.317265,98.02668 534.345072,115.797064 533.152078,120 534.345072,124.202936 545.317265,141.97332 546.407492,144.898083 546.295508,148.017425 544.998362,150.856482 542.713521,152.983061 539.307913,155.086054 536.382786,156.176487 533.263035,156.064392 530.42371,154.766837 528.297162,152.481403 526.223737,149.122453 524.193895,146.972132 521.478524,145.801279 518.521476,145.801279 515.806105,146.972132 513.776263,149.122453 511.702838,152.481403 509.57629,154.766837 506.736965,156.064392 503.617214,156.176487 500.692087,155.086054 497.286479,152.983061 495.001638,150.856482 493.704492,148.017425 493.592508,144.898083 494.682735,141.97332 505.654928,124.202936 506.847922,120 505.654928,115.797064 494.682735,98.02668 493.592508,95.101917 493.704492,91.982575 495.001638,89.143518 497.286479,87.016939 500.692087,84.913946 503.617214,83.823513 506.736965,83.935608 509.57629,85.233163 511.702838,87.518597 513.776263,90.877547 515.806105,93.027868 518.521476,94.198721 521.478524,94.198721 524.193895,93.027868 526.223737,90.877547 528.297162,87.518597 530.42371,85.233163 533.263035,83.935608 536.382786,83.823513 539.307913,84.913946"/>
<polygon id="0x2c4e620" class="l1d22" points="542.713521,167.016939 544.998362,169.143518 546.295508,171.982575 546.407492,175.101917 545.317265,178.02668 534.345072,195.797064 533.152078,200 534.345072,204.202936 545.317265,221.97332 546.407492,224.898083 546.295508,228.017425 544.998362,230.856482 542.713521,232.983061 539.307913,235.086054 536.382786,236.176487 533.263035,236.064392 530.42371,234.766837 528.297162,232.481403 526.223737,229.122453 524.193895,226.972132 521.478524,225.801279 518.521476,225.801279 515.806105,226.972132 513.776263,229.122453 511.702838,232.481403 509.57629,234.766837 506.736965,236.064392 503.617214,236.176487 500.692087,235.086054 497.286479,232.983061 495.001638,230.856482 493.704492,228.017425 493.592508,224.898083 494.682735,221.97332 505.654928,204.202936 506.847922,200 505.654928,195.797064 494.682735,178.02668 493.592508,175.101917 493.704492,171.982575 495.001638,169.143518 497.286479,167.016939 500.692087,164.913946 503.617214,163.823513 506.736965,163.935608 509.57629,165.233163 511.702838,167.518597 513.776263,170.877547 515.806105,173.027868 518.521476,174.198721 521.478524,174.198721 524.193895,173.027868 526.223737,170.877547 528.297162,167.518597 530.42371,165.233163 533.263035,163.935608 536.382786,163.823513 539.307913,164.913946"/>
<polygon id="0x2b04310" class="l1d22" points="542.713521,247.016939 544.998362,249.143518 546.295508,251.982575 546.407492,255.101917 545.317265,258.02668 534.345072,275.797064 533.152078,280 534.345072,284.202936 545.317265,301.97332 546.407492,304.898083 546.295508,308.017425 544.998362,310.856482 542.713521,312.983061 539.307913,315.086054 536.382786,316.176487 533.263035,316.064392 530.42371,314.766837 528.297162,312.481403 526.223737,309.122453 524.193895,306.972132 521.478524,305.801279 518.521476,305.801279 515.806105,306.972132 513.776263,309.122453 511.702838,312.481403 509.57629,314.766837 506.736965,316.064392 503.617214,316.176487 500.692087,315.086054 497.286479,312.983061 495.001638,310.856482 493.704492,308.017425 493.592508,304.898083 494.682735,301.97332 505.654928,284.202936 506.847922,280 505.654928,275.797064 494.682735,258.02668 493.592508,255.101917 493.704492,251.982575 495.001638,249.143518 497.286479,247.016939 500.692087,244.913946 503.617214,243.823513 506.736965,243.935608 509.57629,245.233163 511.702838,247.518597 513.776263,250.877547 515.806105,253.027868 518.521476,254.198721 521.478524,254.198721 524.193895,253.027868 526.223737,250.877547 528.297162,247.518597 530.42371,245.233163 533.263035,243.935608 536.382786,243.823513 539.307913,244.913946"/>
<polygon id="0x2b04380" class="l1d22" points="542.713521,327.016939 544.998362,329.143518 546.295508,331.982575 546.407492,335.101917 545.317265,338.02668 534.345072,355.797064 533.152078,360 534.345072,364.202936 545.317265,381.97332 546.407492,384.898083 546.295508,388.017425 544.998362,390.856482 542.713521,392.983061 539.307913,395.086054 536.382786,396.176487 533.263035,396.064392 530.42371,394.766837 528.297162,392.481403 526.223737,389.122453 524.193895,386.972132 521.478524,385.801279 518.521476,385.801279 515.806105,386.972132 513.776263,389.122453 511.702838,392.481403 509.57629,394.766837 506.736965,396.064392 503.617214,396.176487 500.692087,395.086054 497.286479,392.983061 495.001638,390.856482 493.704492,388.017425 493.592508,384.898083 494.682735,381.97332 505.654928,364.202936 506.847922,360 505.654928,355.797064 494.682735,338.02668 493.592508,335.101917 493.704492,331.982575 495.001638,329.143518 497.286479,327.016939 500.692087,324.913946 503.617214,323.823513 506.736965,323.935608 509.57629,325.233163 511.702838,327.518597 513.776263,330.877547 515.806105,333.027868 518.521476,334.198721 521.478524,334.198721 524.193895,333.027868 526.223737,330.877547 528.297162,327.518597 530.42371,325.233163 533.263035,323.935608 536.382786,323.823513 539.307913,324.913946"/>
<polygon id="0x2cba4a0" class="l1d22" points="542.713521,407.016939 544.998362,409.143518 546.295508,411.982575 546.407492,415.101917 545.317265,418.02668 534.345072,435.797064 533.152078,440 534.345072,444.202936 545.317265,461.97332 546.407492,464.898083 546.295508,468.017425 544.998362,470.856482 542.713521,472.983061 539.307913,475.086054 536.382786,476.176487 533.263035,476.064392 530.42371,474.766837 528.297162,472.481403 526.223737,469.122453 524.193895,466.972132 521.478524,465.801279 518.521476,465.801279 515.806105,466.972132 513.776263,469.122453 511.702838,472.481403 509.57629,474.766837 506.736965,476.064392 503.617214,476.176487 500.692087,475.086054 497.286479,472.983061 495.001638,470.856482 493.704492,468.017425 493.592508,464.898083 494.682735,461.97332 505.654928,444.202936 506.847922,440 505.654928,435.797064 494.682735,418.02668 493.592508,415.101917 493.704492,411.982575 495.001638,409.143518 497.286479,407.016939 500.692087,404.913946 503.617214,403.823513 506.736965,403.935608 509.57629,405.233163 511.702838,407.518597 513.776263,410.877547 515.806105,413.027868 518.521476,414.198721 521.478524,414.198721 524.193895,413.027868 526.223737,410.877547 528.297162,407.518597 530.42371,405.233163 533.263035,403.935608 536.382786,403.823513 539.307913,404.913946"/>
<polygon id="0x2cba510" class="l1d22" points="542.713521,487.016939 544.998362,489.143518 546.295508,491.982575 546.407492,495.101917 545.317265,498.02668 534.345072,515.797064 533.152078,520 534.345072,524.202936 545.317265,541.97332 546.407492,544.898083 546.295508,548.017425 544.998362,550.856482 542.713521,552.983061 539.307913,555.086054 536.382786,556.176487 533.263035,556.064392 530.42371,554.766837 528.297162,552.481403 526.223737,549.122453 524.193895,546.972132 521.478524,545.801279 518.521476,545.801279 515.806105,546.972132 513.776263,549.122453 511.702838,552.481403 509.57629,554.766837 506.736965,556.064392 503.617214,556.176487 500.692087,555.086054 497.286479,552.983061 495.001638,550.856482 493.704492,548.017425 493.592508,544.898083 494.682735,541.97332 505.654928,524.202936 506.847922,520 505.654928,515.797064 494.682735,498.02668 493.592508,495.101917 493.704492,491.982575 495.001638,489.143518 497.286479,487.016939 500.692087,484.913946 503.617214,483.823513 506.736965,483.935608 509.57629,485.233163 511.702838,487.518597 513.776263,490.877547 515.806105,493.027868 518.521476,494.198721 521.478524,494.198721 524.193895,493.027868 526.223737,490.877547 528.297162,487.518597 530.42371,485.233163 533.263035,483.935608 536.382786,483.823513 539.307913,484.913946"/>
<polygon id="0x2ca1f00" class="l1d22" points="622.713521,87.016939 624.998362,89.143518 626.295508,91.982575 626.407492,95.101917 625.317265,98.02668 614.345072,115.797064 613.152078,120 614.345072,124.202936 625.317265,141.97332 626.407492,144.898083 626.295508,148.017425 624.998362,150.856482 622.713521,152.983061 619.307913,155.086054 616.382786,156.176487 613.263035,156.064392 610.42371,154.766837 608.297162,152.481403 606.223737,149.122453 604.193895,146.972132 601.478524,145.801279 598.521476,145.801279 595.806105,146.972132 593.776263,149.122453 591.702838,152.481403 589.57629,154.766837 586.736965,156.064392 583.617214,156.176487 580.692087,155.086054 577.286479,152.983061 575.001638,150.856482 573.704492,148.017425 573.592508,144.898083 574.682735,141.97332 585.654928,124.202936 586.847922,120 585.654928,115.797064 574.682735,98.02668 573.592508,95.101917 573.704492,91.982575 575.001638,89.143518 577.286479,87.016939 580.692087,84.913946 583.617214,83.823513 586.736965,83.935608 589.57629,85.233163 591.702838,87.518597 593.776263,90.877547 595.806105,93.027868 598.521476,94.198721 601.478524,94.198721 604.193895,93.027868 606.223737,90.877547 608.297162,87.518597 610.42371,85.233163 613.263035,83.935608 616.382786,83.823513 619.307913,84.913946"/>
<polygon id="0x2ca1f70" class="l1d22" points="622.713521,327.016939 624.998362,329.143518 626.295508,331.982575 626.407492,335.101917 625.317265,338.02668 614.345072,355.797064 613.152078,360 614.345072,364.202936 625.317265,381.97332 626.407492,384.898083 626.295508,388.017425 624.998362,390.856482 622.713521,392.983061 619.307913,395.086054 616.382786,396.176487 613.263035,396.064392 610.42371,394.766837 608.297162,392.481403 606.223737,389.122453 604.193895,386.972132 601.478524,385.801279 598.521476,385.801279 595.806105,386.972132 593.776263,389.122453 591.702838,392.481403 589.57629,394.766837 586.736965,396.064392 583.617214,396.176487 580.692087,395.086054 577.286479,392.983061 575.001638,390.856482 573.704492,388.017425 573.592508,384.898083 574.682735,381.97332 585.654928,364.202936 586.847922,360 585.654928,355.797064 574.682735,338.02668 573.592508,335.101917 573.704492,331.982575 575.001638,329.143518 577.286479,327.016939 580.692087,324.913946 583.617214,323.823513 586.736965,323.935608 589.57629,325.233163 591.702838,327.518597 593.776263,330.877547 595.806105,333.027868 598.521476,334.198721 601.478524,334.198721 604.193895,333.027868 606.223737,330.877547 608.297162,327.518597 610.42371,325.233163 613.263035,323.935608 616.382786,323.823513 619.307913,324.913946"/>
<polygon id="0x2a9a460" class="l1d22" points="622.713521,407.016939 624.998362,409.143518 626.295508,411.982575 626.407492,415.101917 625.317265,418.02668 614.345072,435.797064 613.152078,440 614.345072,444.202936 625.317265,461.97332 626.407492,464.898083 626.295508,468.017425 624.998362,470.856482 622.713521,472.983061 619.307913,475.086054 616.382786,476.176487 613.263035,476.064392 610.42371,474.766837 608.297162,472.481403 606.223737,469.122453 604.193895,466.972132 601.478524,465.801279 598.521476,465.801279 595.806105,466.972132 593.776263,469.122453 591.702838,472.481403 589.57629,474.766837 586.736965,476.064392 583.617214,476.176487 580.692087,475.086054 577.286479,472.983061 575.001638,470.856482 573.704492,468.017425 573.592508,464.898083 574.682735,461.97332 585.654928,444.202936 586.847922,440 585.654928,435.797064 574.682735,418.02668 573.592508,415.101917 573.704492,411.982575 575.001638,409.143518 577.286479,407.016939 580.692087,404.913946 583.617214,403.823513 586.736965,403.935608 589.57629,405.233163 591.702838,407.518597 593.776263,410.877547 595.806105,413.027868 598.521476,414.198721 601.478524,414.198721 604.193895,413.027868 606.223737,410.877547 608.297162,407.518597 610.42371,405.233163 613.263035,403.935608 616.382786,403.823513 619.307913,404.913946"/>
<polygon id="0x2a9a4d0" class="l1d22" points="622.713521,487.016939 624.998362,489.143518 626.295508,491.982575 626.407492,495.101917 625.317265,498.02668 614.345072,515.797064 613.152078,520 614.345072,524.202936 625.317265,541.97332 626.407492,544.898083 626.295508,548.017425 624.998362,550.856482 622.713521,552.983061 619.307913,555.086054 616.382786,556.176487 613.263035,556.064392 610.42371,554.766837 608.297162,552.481403 606.223737,549.122453 604.193895,546.972132 601.478524,545.801279 598.521476,545.801279 595.806105,546.972132 593.776263,549.122453 591.702838,552.481403 589.57629,554.766837 586.736965,556.064392 583.617214,556.176487 580.692087,555.086054 577.286479,552.983061 575.001638,550.856482 573.704492,548.017425 573.592508,544.898083 574.682735,541.97332 585.654928,524.202936 586.847922,520 585.654928,515.797064 574.682735,498.02668 573.592508,495.101917 573.704492,491.982575 575.001638,489.143518 577.286479,487.016939 580.692087,484.913946 583.617214,483.823513 586.736965,483.935608 589.57629,485.233163 591.702838,487.518597 593.776263,490.877547 595.806105,493.027868 598.521476,494.198721 601.478524,494.198721 604.193895,493.027868 606.223737,490.877547 608.297162,487.518597 610.42371,485.233163 613.263035,483.935608 616.382786,483.823513 619.307913,484.913946"/>
<polygon id="0x2c88bb0" class="l1d22" points="622.713521,567.016939 624.998362,569.143518 626.295508,571.982575 626.407492,575.101917 625.317265,578.02668 614.345072,595.797064 613.152078,600 614.345072,604.202936 625.317265,621.97332 626.407492,624.898083 626.295508,628.017425 624.998362,630.856482 622.713521,632.983061 619.307913,635.086054 616.382786,636.176487 613.263035,636.064392 610.42371,634.766837 608.297162,632.481403 606.223737,629.122453 604.193895,626.972132 601.478524,625.801279 598.521476,625.801279 595.806105,626.972132 593.776263,629.122453 591.702838,632.481403 589.57629,634.766837 586.736965,636.064392 583.617214,636.176487 580.692087,635.086054 577.286479,632.983061 575.001638,630.856482 573.704492,628.017425 573.592508,624.898083 574.682735,621.97332 585.654928,604.202936 586.847922,600 585.654928,595.797064 574.682735,578.02668 573.592508,575.101917 573.704492,571.982575 575.001638,569.143518 577.286479,567.016939 580.692087,564.913946 583.617214,563.823513 586.736965,563.935608 589.57629,565.233163 591.702838,567.518597 593.776263,570.877547 595.806105,573.027868 598.521476,574.198721 601.478524,574.198721 604.193895,573.027868 606.223737,570.877547 608.297162,567.518597 610.42371,565.233163 613.263035,563.935608 616.382786,563.823513 619.307913,564.913946"/>
<polygon id="0x2c88c20" class="l1d22" points="702.713521,87.016939 704.998362,89.143518 706.295508,91.982575 706.407492,95.101917 705.317265,98.02668 694.345072,115.797064 693.152078,120 694.345072,124.202936 705.317265,141.97332 706.407492,144.898083 706.295508,148.017425 704.998362,150.856482 702.713521,152.983061 699.307913,155.086054 696.382786,156.176487 693.263035,156.064392 690.42371,154.766837 688.297162,152.481403 686.223737,149.122453 684.193895,146.972132 681.478524,145.801279 678.521476,145.801279 675.806105,146.972132 673.776263,149.122453 671.702838,152.481403 669.57629,154.766837 666.736965,156.064392 663.617214,156.176487 660.692087,155.086054 657.286479,152.983061 655.001638,150.856482 653.704492,148.017425 653.592508,144.898083 654.682735,141.97332 665.654928,124.202936 666.847922,120 665.654928,115.797064 654.682735,98.02668 653.592508,95.101917 653.704492,91.982575 655.001638,89.143518 657.286479,87.016939 660.692087,84.913946 663.617214,83.823513 666.736965,83.935608 669.57629,85.233163 671.702838,87.518597 673.776263,90.877547 675.806105,93.027868 678.521476,94.198721 681.478524,94.198721 684.193895,93.027868 686.223737,90.877547 688.297162,87.518597 690.42371,85.233163 693.263035,83.935608 696.382786,83.823513 699.307913,84.913946"/>
<polygon id="0x2c13c40" class="l1d22" points="702.713521,247.016939 704.998362,249.143518 706.295508,251.982575 706.407492,255.101917 705.317265,258.02668 694.345072,275.797064 693.152078,280 694.345072,284.202936 705.317265,301.97332 706.407492,304.898083 706.295508,308.017425 704.998362,310.856482 702.713521,312.983061 699.307913,315.086054 696.382786,316.176487 693.263035,316.064392 690.42371,314.766837 688.297162,312.481403 686.223737,309.122453 684.193895,306.972132 681.478524,305.801279 678.521476,305.801279 675.806105,306.972132 673.776263,309.122453 671.702838,312.481403 669.57629,314.766837 666.736965,316.064392 663.617214,316.176487 660.692087,315.086054 657.286479,312.983061 655.001638,310.856482 653.704492,308.017425 653.592508,304.898083 654.682735,301.97332 665.654928,284.202936 666.847922,280 665.654928,275.797064 654.682735,258.02668 653.592508,255.101917 653.704492,251.982575 655.001638,249.143518 657.286479,247.016939 660.692087,244.913946 663.617214,243.823513 666.736965,243.935608 669.57629,245.233163 671.702838,247.518597 673.776263,250.877547 675.806105,253.027868 678.521476,254.198721 681.478524,254.198721 684.193895,253.027868 686.223737,250.877547 688.297162,247.518597 690.42371,245.233163 693.263035,243.935608 696.382786,243.823513 699.307913,244.913946"/>
<polygon id="0x2c13cb0" class="l1d22" points="702.713521,327.016939 704.998362,329.143518 706.295508,331.982575 706.407492,335.101917 705.317265,338.02668 694.345072,355.797064 693.152078,360 694.345072,364.202936 705.317265,381.97332 706.407492,384.898083 706.295508,388.017425 704.998362,390.856482 702.713521,392.983061 699.307913,395.086054 696.382786,396.176487 693.263035,396.064392 690.42371,394.766837 688.297162,392.481403 686.223737,389.122453 684.193895,386.972132 681.478524,385.801279 678.521476,385.801279 675.806105,386.972132 673.776263,389.122453 671.702838,392.481403 669.57629,394.766837 666.736965,396.064392 663.617214,396.176487 660.692087,395.086054 657.286479,392.983061 655.001638,390.856482 653.704492,388.017425 653.592508,384.898083 654.682735,381.97332 665.654928,364.202936 666.847922,360 665.654928,355.797064 654.682735,338.02668 653.592508,335.101917 653.704492,331.982575 655.001638,329.143518 657.286479,327.016939 660.692087,324.913946 663.617214,323.823513 666.736965,323.935608 669.57629,325.233163 671.702838,327.518597 673.776263,330.877547 675.806105,333.027868 678.521476,334.198721 681.478524,334.198721 684.193895,333.027868 686.223737,330.877547 688.297162,327.518597 690.42371,325.233163 693.263035,323.935608 696.382786,323.823513 699.307913,324.913946"/>
<polygon id="0x2ca2ac0" class="l1d22" points="782.713521,247.016939 784.998362,249.143518 786.295508,251.982575 786.407492,255.101917 785.317265,258.02668 774.345072,275.797064 773.152078,280 774.345072,284.202936 785.317265,301.97332 786.407492,304.898083 786.295508,308.017425 784.998362,310.856482 782.713521,312.983061 779.307913,315.086054 776.382786,316.176487 773.263035,316.064392 770.42371,314.766837 768.297162,312.481403 766.223737,309.122453 764.193895,306.972132 761.478524,305.801279 758.521476,305.801279 755.806105,306.972132 753.776263,309.122453 751.702838,312.481403 749.57629,314.766837 746.736965,316.064392 743.617214,316.176487 740.692087,315.086054 737.286479,312.983061 735.001638,310.856482 733.704492,308.017425 733.592508,304.898083 734.682735,301.97332 745.654928,284.202936 746.847922,280 745.654928,275.797064 734.682735,258.02668 733.592508,255.101917 733.704492,251.982575 735.001638,249.143518 737.286479,247.016939 740.692087,244.913946 743.617214,243.823513 746.736965,243.935608 749.57629,245.233163 751.702838,247.518597 753.776263,250.877547 755.806105,253.027868 758.521476,254.198721 761.478524,254.198721 764.193895,253.027868 766.223737,250.877547 768.297162,247.518597 770.42371,245.233163 773.263035,243.935608 776.382786,243.823513 779.307913,244.913946"/>
<polygon id="0x2ca2b30" class="l1d22" points="782.713521,407.016939 784.998362,409.143518 786.295508,411.982575 786.407492,415.101917 785.317265,418.02668 774.345072,435.797064 773.152078,440 774.345072,444.202936 785.317265,461.97332 786.407492,464.898083 786.295508,468.017425 784.998362,470.856482 782.713521,472.983061 779.307913,475.086054 776.382786,476.176487 773.263035,476.064392 770.42371,474.766837 768.297162,472.481403 766.223737,469.122453 764.193895,466.972132 761.478524,465.801279 758.521476,465.801279 755.806105,466.972132 753.776263,469.122453 751.702838,472.481403 749.57629,474.766837 746.736965,476.064392 743.617214,476.176487 740.692087,475.086054 737.286479,472.983061 735.001638,470.856482 733.704492,468.017425 733.592508,464.898083 734.682735,461.97332 745.654928,444.202936 746.847922,440 745.654928,435.797064 734.682735,418.02668 733.592508,415.101917 733.704492,411.982575 735.001638,409.143518 737.286479,407.016939 740.692087,404.913946 743.617214,403.823513 746.736965,403.935608 749.57629,405.233163 751.702838,407.518597 753.776263,410.877547 755.806105,413.027868 758.521476,414.198721 761.478524,414.198721 764.193895,413.027868 766.223737,410.877547 768.297162,407.518597 770.42371,405.233163 773.263035,403.935608 776.382786,403.823513 779.307913,404.913946"/>
<polygon id="0x2b48ee0" class="l1d22" points="782.713521,567.016939 784.998362,569.143518 786.295508,571.982575 786.407492,575.101917 785.317265,578.02668 774.345072,595.797064 773.152078,600 774.345072,604.202936 785.317265,621.97332 786.407492,624.898083 786.295508,628.017425 784.998362,630.856482 782.713521,632.983061 779.307913,635.086054 776.382786,636.176487 773.263035,636.064392 770.42371,634.766837 768.297162,632.481403 766.223737,629.122453 764.193895,626.972132 761.478524,625.801279 758.521476,625.801279 755.806105,626.972132 753.776263,629.122453 751.702838,632.481403 749.57629,634.766837 746.736965,636.064392 743.617214,636.176487 740.692087,635.086054 737.286479,632.983061 735.001638,630.856482 733.704492,628.017425 733.592508,624.898083 734.682735,621.97332 745.654928,604.202936 746.847922,600 745.654928,595.797064 734.682735,578.02668 733.592508,575.101917 733.704492,571.982575 735.001638,569.143518 737.286479,567.016939 740.692087,564.913946 743.617214,563.823513 746.736965,563.935608 749.57629,565.233163 751.702838,567.518597 753.776263,570.877547 755.806105,573.027868 758.521476,574.198721 761.478524,574.198721 764.193895,573.027868 766.223737,570.877547 768.297162,567.518597 770.42371,565.233163 773.263035,563.935608 776.382786,563.823513 779.307913,564.913946"/>
<polygon id="0x2b48f50" class="l1d22" points="862.713521,7.016939 864.998362,9.143518 866.295508,11.982575 866.407492,15.101917 865.317265,18.02668 854.345072,35.797064 853.152078,40 854.345072,44.202936 865.317265,61.97332 866.407492,64.898083 866.295508,68.017425 864.998362,70.856482 862.713521,72.983061 859.307913,75.086054 856.382786,76.176487 853.263035,76.064392 850.42371,74.766837 848.297162,72.481403 846.223737,69.122453 844.193895,66.972132 841.478524,65.801279 838.521476,65.801279 835.806105,66.972132 833.776263,69.122453 831.702838,72.481403 829.57629,74.766837 826.736965,76.064392 823.617214,76.176487 820.692087,75.086054 817.286479,72.983061 815.001638,70.856482 813.704492,68.017425 813.592508,64.898083 814.682735,61.97332 825.654928,44.202936 826.847922,40 825.654928,35.797064 814.682735,18.02668 813.592508,15.101917 813.704492,11.982575 815.001638,9.143518 817.286479,7.016939 820.692087,4.913946 823.617214,3.823513 826.736965,3.935608 829.57629,5.233163 831.702838,7.518597 833.776263,10.877547 835.806105,13.027868 838.521476,14.198721 841.478524,14.198721 844.193895,13.027868 846.223737,10.877547 848.297162,7.518597 850.42371,5.233163 853.263035,3.935608 856.382786,3.823513 859.307913,4.913946"/>
<polygon id="0x29ea310" class="l1d22" points="862.713521,167.016939 864.998362,169.143518 866.295508,171.982575 866.407492,175.101917 865.317265,178.02668 854.345072,195.797064 853.152078,200 854.345072,204.202936 865.317265,221.97332 866.407492,224.898083 866.295508,228.017425 864.998362,230.856482 862.713521,232.983061 859.307913,235.086054 856.382786,236.176487 853.263035,236.064392 850.42371,234.766837 848.297162,232.481403 846.223737,229.122453 844.193895,226.972132 841.478524,225.801279 838.521476,225.801279 835.806105,226.972132 833.776263,229.122453 831.702838,232.481403 829.57629,234.766837 826.736965,236.064392 823.617214,236.176487 820.692087,235.086054 817.286479,232.983061 815.001638,230.856482 813.704492,228.017425 813.592508,224.898083 814.682735,221.97332 825.654928,204.202936 826.847922,200 825.654928,195.797064 814.682735,178.02668 813.592508,175.101917 813.704492,171.982575 815.001638,169.143518 817.286479,167.016939 820.692087,164.913946 823.617214,163.823513 826.736965,163.935608 829.57629,165.233163 831.702838,167.518597 833.776263,170.877547 835.806105,173.027868 838.521476,174.198721 841.478524,174.198721 844.193895,173.027868 846.223737,170.877547 848.297162,167.518597 850.42371,165.233163 853.263035,163.935608 856.382786,163.823513 859.307913,164.913946"/>
<polygon id="0x29ea380" class="l1d22" points="862.713521,247.016939 864.998362,249.143518 866.295508,251.982575 866.407492,255.101917 865.317265,258.02668 854.345072,275.797064 853.152078,280 854.345072,284.202936 865.317265,301.97332 866.407492,304.898083 866.295508,308.017425 864.998362,310.856482 862.713521,312.983061 859.307913,315.086054 856.382786,316.176487 853.263035,316.064392 850.42371,314.766837 848.297162,312.481403 846.223737,309.122453 844.193895,306.972132 841.478524,305.801279 838.521476,305.801279 835.806105,306.972132 833.776263,309.122453 831.702838,312.481403 829.57629,314.766837 826.736965,316.064392 823.617214,316.176487 820.692087,315.086054 817.286479,312.983061 815.001638,310.856482 813.704492,308.017425 813.592508,304.898083 814.682735,301.97332 825.654928,284.202936 826.847922,280 825.654928,275.797064 814.682735,258.02668 813.592508,255.101917 813.704492,251.982575 815.001638,249.143518 817.286479,247.016939 820.692087,244.913946 823.617214,243.823513 826.736965,243.935608 829.57629,245.233163 831.702838,247.518597 833.776263,250.877547 835.806105,253.027868 838.521476,254.198721 841.478524,254.198721 844.193895,253.027868 846.223737,250.877547 848.297162,247.518597 850.42371,245.233163 853.263035,243.935608 856.382786,243.823513 859.307913,244.913946"/>
<polygon id="0x2c2f770" class="l1d22" points="862.713521,487.016939 864.998362,489.143518 866.295508,491.982575 866.407492,495.101917 865.317265,498.02668 854.345072,515.797064 853.152078,520 854.345072,524.202936 865.317265,541.97332 866.407492,544.898083 866.295508,548.017425 864.998362,550.856482 862.713521,552.983061 859.307913,555.086054 856.382786,556.176487 853.263035,556.064392 850.42371,554.766837 848.297162,552.481403 846.223737,549.122453 844.193895,546.972132 841.478524,545.801279 838.521476,545.801279 835.806105,546.972132 833.776263,549.122453 831.702838,552.481403 829.57629,554.766837 826.736965,556.064392 823.617214,556.176487 820.692087,555.086054 817.286479,552.983061 815.001638,550.856482 813.704492,548.017425 813.592508,544.898083 814.682735,541.97332 825.654928,524.202936 826.847922,520 825.654928,515.797064 814.682735,498.02668 813.592508,495.101917 813.704492,491.982575 815.001638,489.143518 817.286479,487.016939 820.692087,484.913946 823.617214,483.823513 826.736965,483.935608 829.57629,485.233163 831.702838,487.518597 833.776263,490.877547 835.806105,493.027868 838.521476,494.198721 841.478524,494.198721 844.193895,493.027868 846.223737,490.877547 848.297162,487.518597 850.42371,485.233163 853.263035,483.935608 856.382786,483.823513 859.307913,484.913946"/>
<polygon id="0x2c2f7e0" class="l1d22" points="862.713521,647.016939 864.998362,649.143518 866.295508,651.982575 866.407492,655.101917 865.317265,658.02668 854.345072,675.797064 853.152078,680 854.345072,684.202936 865.317265,701.97332 866.407492,704.898083 866.295508,708.017425 864.998362,710.856482 862.713521,712.983061 859.307913,715.086054 856.382786,716.176487 853.263035,716.064392 850.42371,714.766837 848.297162,712.481403 846.223737,709.122453 844.193895,706.972132 841.478524,705.801279 838.521476,705.801279 835.806105,706.972132 833.776263,709.122453 831.702838,712.481403 829.57629,714.766837 826.736965,716.064392 823.617214,716.176487 820.692087,715.086054 817.286479,712.983061 815.001638,710.856482 813.704492,708.017425 813.592508,704.898083 814.682735,701.97332 825.654928,684.202936 826.847922,680 825.654928,675.797064 814.682735,658.02668 813.592508,655.101917 813.704492,651.982575 815.001638,649.143518 817.286479,647.016939 820.692087,644.913946 823.617214,643.823513 826.736965,643.935608 829.57629,645.233163 831.702838,647.518597 833.776263,650.877547 835.806105,653.027868 838.521476,654.198721 841.478524,654.198721 844.193895,653.027868 846.223737,650.877547 848.297162,647.518597 850.42371,645.233163 853.263035,643.935608 856.382786,643.823513 859.307913,644.913946"/>
<polygon id="0x29bc680" class="l1d22" points="942.713521,7.016939 944.998362,9.143518 946.295508,11.982575 946.407492,15.101917 945.317265,18.02668 934.345072,35.797064 933.152078,40 934.345072,44.202936 945.317265,61.97332 946.407492,64.898083 946.295508,68.017425 944.998362,70.856482 942.713521,72.983061 939.307913,75.086054 936.382786,76.176487 933.263035,76.064392 930.42371,74.766837 928.297162,72.481403 926.223737,69.122453 924.193895,66.972132 921.478524,65.801279 918.521476,65.801279 915.806105,66.972132 913.776263,69.122453 911.702838,72.481403 909.57629,74.766837 906.736965,76.064392 903.617214,76.176487 900.692087,75.086054 897.286479,72.983061 895.001638,70.856482 893.704492,68.017425 893.592508,64.898083 894.682735,61.97332 905.654928,44.202936 906.847922,40 905.654928,35.797064 894.682735,18.02668 893.592508,15.101917 893.704492,11.982575 895.001638,9.143518 897.286479,7.016939 900.692087,4.913946 903.617214,3.823513 906.736965,3.935608 909.57629,5.233163 911.702838,7.518597 913.776263,10.877547 915.806105,13.027868 918.521476,14.198721 921.478524,14.198721 924.193895,13.027868 926.223737,10.877547 928.297162,7.518597 930.42371,5.233163 933.263035,3.935608 936.382786,3.823513 939.307913,4.913946"/>
<polygon id="0x29bc6f0" class="l1d22" points="942.713521,87.016939 944.998362,89.143518 946.295508,91.982575 946.407492,95.101917 945.317265,98.02668 934.345072,115.797064 933.152078,120 934.345072,124.202936 945.317265,141.97332 946.407492,144.898083 946.295508,148.017425 944.998362,150.856482 942.713521,152.983061 939.307913,155.086054 936.382786,156.176487 933.263035,156.064392 930.42371,154.766837 928.297162,152.481403 926.223737,149.122453 924.193895,146.972132 921.478524,145.801279 918.521476,145.801279 915.806105,146.972132 913.776263,149.122453 911.702838,152.481403 909.57629,154.766837 906.736965,156.064392 903.617214,156.176487 900.692087,155.086054 897.286479,152.983061 895.001638,150.856482 893.704492,148.017425 893.592508,144.898083 894.682735,141.97332 905.654928,124.202936 906.847922,120 905.654928,115.797064 894.682735,98.02668 893.592508,95.101917 893.704492,91.982575 895.001638,89.143518 897.286479,87.016939 900.692087,84.913946 903.617214,83.823513 906.736965,83.935608 909.57629,85.233163 911.702838,87.518597 913.776263,90.877547 915.806105,93.027868 918.521476,94.198721 921.478524,94.198721 924.193895,93.027868 926.223737,90.877547 928.297162,87.518597 930.42371,85.233163 933.263035,83.935608 936.382786,83.823513 939.307913,84.913946"/>
<polygon id="0x2c16450" class="l1d22" points="942.713521,567.016939 944.998362,569.143518 946.295508,571.982575 946.407492,575.101917 945.317265,578.02668 934.345072,595.797064 933.152078,600 934.345072,604.202936 945.317265,621.97332 946.407492,624.898083 946.295508,628.017425 944.998362,630.856482 942.713521,632.983061 939.307913,635.086054 936.382786,636.176487 933.263035,636.064392 930.42371,634.766837 928.297162,632.481403 926.223737,629.122453 924.193895,626.972132 921.478524,625.801279 918.521476,625.801279 915.806105,626.972132 913.776263,629.122453 911.702838,632.481403 909.57629,634.766837 906.736965,636.064392 903.617214,636.176487 900.692087,635.086054 897.286479,632.983061 895.001638,630.856482 893.704492,628.017425 893.592508,624.898083 894.682735,621.97332 905.654928,604.202936 906.847922,600 905.654928,595.797064 894.682735,578.02668 893.592508,575.101917 893.704492,571.982575 895.001638,569.143518 897.286479,567.016939 900.692087,564.913946 903.617214,563.823513 906.736965,563.935608 909.57629,565.233163 911.702838,567.518597 913.776263,570.877547 915.806105,573.027868 918.521476,574.198721 921.478524,574.198721 924.193895,573.027868 926.223737,570.877547 928.297162,567.518597 930.42371,565.233163 933.263035,563.935608 936.382786,563.823513 939.307913,564.913946"/>
<polygon id="0x2c164c0" class="l1d22" points="1022.713521,7.016939 1024.998362,9.143518 1026.295508,11.982575 1026.407492,15.101917 1025.317265,18.02668 1014.345072,35.797064 1013.152078,40 1014.345072,44.202936 1025.317265,61.97332 1026.407492,64.898083 1026.295508,68.017425 1024.998362,70.856482 1022.713521,72.983061 1019.307913,75.086054 1016.382786,76.176487 1013.263035,76.064392 1010.42371,74.766837 1008.297162,72.481403 1006.223737,69.122453 1004.193895,66.972132 1001.478524,65.801279 998.521476,65.801279 995.806105,66.972132 993.776263,69.122453 991.702838,72.481403 989.57629,74.766837 986.736965,76.064392 983.617214,76.176487 980.692087,75.086054 977.286479,72.983061 975.001638,70.856482 973.704492,68.017425 973.592508,64.898083 974.682735,61.97332 985.654928,44.202936 986.847922,40 985.654928,35.797064 974.682735,18.02668 973.592508,15.101917 973.704492,11.982575 975.001638,9.143518 977.286479,7.016939 980.692087,4.913946 983.617214,3.823513 986.736965,3.935608 989.57629,5.233163 991.702838,7.518597 993.776263,10.877547 995.806105,13.027868 998.521476,14.198721 1001.478524,14.198721 1004.193895,13.027868 1006.223737,10.877547 1008.297162,7.518597 1010.42371,5.233163 1013.263035,3.935608 1016.382786,3.823513 1019.307913,4.913946"/>
<polygon id="0x2b51b50" class="l1d22" points="1022.713521,87.016939 1024.998362,89.143518 1026.295508,91.982575 1026.407492,95.101917 1025.317265,98.02668 1014.345072,115.797064 1013.152078,120 1014.345072,124.202936 1025.317265,141.97332 1026.407492,144.898083 1026.295508,148.017425 1024.998362,150.856482 1022.713521,152.983061 1019.307913,155.086054 1016.382786,156.176487 1013.263035,156.064392 1010.42371,154.766837 1008.297162,152.481403 1006.223737,149.122453 1004.193895,146.972132 1001.478524,145.801279 998.521476,145.801279 995.806105,146.972132 993.776263,149.122453 991.702838,152.481403 989.57629,154.766837 986.736965,156.064392 983.617214,156.176487 980.692087,155.086054 977.286479,152.983061 975.001638,150.856482 973.704492,148.017425 973.592508,144.898083 974.682735,141.97332 985.654928,124.202936 986.847922,120 985.654928,115.797064 974.682735,98.02668 973.592508,95.101917 973.704492,91.982575 975.001638,89.143518 977.286479,87.016939 980.692087,84.913946 983.617214,83.823513 986.736965,83.935608 989.57629,85.233163 991.702838,87.518597 993.776263,90.877547 995.806105,93.027868 998.521476,94.198721 1001.478524,94.198721 1004.193895,93.027868 1006.223737,90.877547 1008.297162,87.518597 1010.42371,85.233163 1013.263035,83.935608 1016.382786,83.823513 1019.307913,84.913946"/>
<polygon id="0x2b51bc0" class="l1d22" points="1022.713521,407.016939 1024.998362,409.143518 1026.295508,411.982575 1026.407492,415.101917 1025.317265,418.02668 1014.345072,435.797064 1013.152078,440 1014.345072,444.202936 1025.317265,461.97332 1026.407492,464.898083 1026.295508,468.017425 1024.998362,470.856482 1022.713521,472.983061 1019.307913,475.086054 1016.382786,476.176487 1013.263035,476.064392 1010.42371,474.766837 1008.297162,472.481403 1006.223737,469.122453 1004.193895,466.972132 1001.478524,465.801279 998.521476,465.801279 995.806105,466.972132 993.776263,469.122453 991.702838,472.481403 989.57629,474.766837 986.736965,476.064392 983.617214,476.176487 980.692087,475.086054 977.286479,472.983061 975.001638,470.856482 973.704492,468.017425 973.592508,464.898083 974.682735,461.97332 985.654928,444.202936 986.847922,440 985.654928,435.797064 974.682735,418.02668 973.592508,415.101917 973.704492,411.982575 975.001638,409.143518 977.286479,407.016939 980.692087,404.913946 983.617214,403.823513 986.736965,403.935608 989.57629,405.233163 991.702838,407.518597 993.776263,410.877547 995.806105,413.027868 998.521476,414.198721 1001.478524,414.198721 1004.193895,413.027868 1006.223737,410.877547 1008.297162,407.518597 1010.42371,405.233163 1013.263035,403.935608 1016.382786,403.823513 1019.307913,404.913946"/>
<polygon id="0x2c53c30" class="l1d22" points="1022.713521,647.016939 1024.998362,649.143518 1026.295508,651.982575 1026.407492,655.101917 1025.317265,658.02668 1014.345072,675.797064 1013.152078,680 1014.345072,684.202936 1025.317265,701.97332 1026.407492,704.898083 1026.295508,708.017425 1024.998362,710.856482 1022.713521,712.983061 1019.307913,715.086054 1016.382786,716.176487 1013.263035,716.064392 1010.42371,714.766837 1008.297162,712.481403 1006.223737,709.122453 1004.193895,706.972132 1001.478524,705.801279 998.521476,705.801279 995.806105,706.972132 993.776263,709.122453 991.702838,712.481403 989.57629,714.766837 986.736965,716.064392 983.617214,716.176487 980.692087,715.086054 977.286479,712.983061 975.001638,710.856482 973.704492,708.017425 973.592508,704.898083 974.682735,701.97332 985.654928,684.202936 986.847922,680 985.654928,675.797064 974.682735,658.02668 973.592508,655.101917 973.704492,651.982575 975.001638,649.143518 977.286479,647.016939 980.692087,644.913946 983.617214,643.823513 986.736965,643.935608 989.57629,645.233163 991.702838,647.518597 993.776263,650.877547 995.806105,653.027868 998.521476,654.198721 1001.478524,654.198721 1004.193895,653.027868 1006.223737,650.877547 1008.297162,647.518597 1010.42371,645.233163 1013.263035,643.935608 1016.382786,643.823513 1019.307913,644.913946"/>
<polygon id="0x2b07870" class="l235d4" points="0,0 80,0 80,80 0,80"/>
</g>
</svg>