<?xml version="1.0" encoding="UTF-8"?>
<svg xmlns="http://www.w3.org/2000/svg" xmlns:xlink="http://www.w3.org/1999/xlink" width="1140.48" height="780.48" viewBox="-53.64 -726.84 1140.48 780.48">
<defs>
<style type="text/css">
.l65d20 {stroke: #008856; fill: #008856; fill-opacity: 0.5;}
.l66d20 {stroke: #E68FAC; fill: #E68FAC; fill-opacity: 0.5;}
.l71d20 {stroke: #B3446C; fill: #B3446C; fill-opacity: 0.5;}
.l235d4 {stroke: #0067A5; fill: #0067A5; fill-opacity: 0.5;}
</style>
</defs>
<rect x="-53.64" y="-726.84" width="1140.48" height="780.48" fill="#222222" stroke="none"/>
<g id="my_logo" transform="scale(1 -1)">
<polygon id="0x20b7f80" class="l71d20" points="15.75,85 15.75,93.5 24.25,93.5 24.25,85 35,85 35,95.75 26.5,95.75 26.5,104.25 35,104.25 35,115 24.25,115 24.25,106.5 15.75,106.5 15.75,115 5,115 5,104.25 13.5,104.25 13.5,95.75 5,95.75 5,85"/>
<polygon id="0x1e20690" class="l71d20" points="15.75,125 15.75,133.5 24.25,133.5 24.25,125 35,125 35,135.75 26.5,135.75 26.5,144.25 35,144.25 35,155 24.25,155 24.25,146.5 15.75,146.5 15.75,155 5,155 5,144.25 13.5,144.25 13.5,135.75 5,135.75 5,125"/>
<polygon id="0x20d84d0" class="l71d20" points="15.75,165 15.75,173.5 24.25,173.5 24.25,165 35,165 35,175.75 26.5,175.75 26.5,184.25 35,184.25 35,195 24.25,195 24.25,186.5 15.75,186.5 15.75,195 5,195 5,184.25 13.5,184.25 13.5,175.75 5,175.75 5,165"/>
<polygon id="0x2162790" class="l71d20" points="15.75,205 15.75,213.5 24.25,213.5 24.25,205 35,205 35,215.75 26.5,215.75 26.5,224.25 35,224.25 35,235 24.25,235 24.25,226.5 15.75,226.5 15.75,235 5,235 5,224.25 13.5,224.25 13.5,215.75 5,215.75 5,205"/>
<polygon id="0x21864b0" class="l71d20" points="55.75,5 55.75,13.5 64.25,13.5 64.25,5 75,5 75,15.75 66.5,15.75 66.5,24.25 75,24.25 75,35 64.25,35 64.25,26.5 55.75,26.5 55.75,35 45,35 45,24.25 53.5,24.25 53.5,15.75 45,15.75 45,5"/>
<polygon id="0x2186520" class="l71d20" points="55.75,85 55.75,93.5 64.25,93.5 64.25,85 75,85 75,95.75 66.5,95.75 66.5,104.25 75,104.25 75,115 64.25,115 64.25,106.5 55.75,106.5 55.75,115 45,115 45,104.25 53.5,104.25 53.5,95.75 45,95.75 45,85"/>
<polygon id="0x21865e0" class="l71d20" points="55.75,125 55.75,133.5 64.25,133.5 64.25,125 75,125 75,135.75 66.5,135.75 66.5,144.25 75,144.25 75,155 64.25,155 64.25,146.5 55.75,146.5 55.75,155 45,155 45,144.25 53.5,144.25 53.5,135.75 45,135.75 45,125"/>
<polygon id="0x2186650" class="l71d20" points="55.75,165 55.75,173.5 64.25,173.5 64.25,165 75,165 75,175.75 66.5,175.75 66.5,184.25 75,184.25 75,195 64.25,195 64.25,186.5 55.75,186.5 55.75,195 45,195 45,184.25 53.5,184.25 53.5,175.75 45,175.75 45,165"/>
<polygon id="0x21866c0" class="l71d20" points="55.75,205 55.75,213.5 64.25,213.5 64.25,205 75,205 75,215.75 66.5,215.75 66.5,224.25 75,224.25 75,235 64.25,235 64.25,226.5 55.75,226.5 55.75,235 45,235 45,224.25 53.5,224.25 53.5,215.75 45,215.75 45,205"/>
<polygon id="0x2186730" class="l71d20" points="55.75,285 55.75,293.5 64.25,293.5 64.25,285 75,285 75,295.75 66.5,295.75 66.5,304.25 75,304.25 75,315 64.25,315 64.25,306.5 55.75,306.5 55.75,315 45,315 45,304.25 53.5,304.25 53.5,295.75 45,295.75 45,285"/>
<polygon id="0x21868f0" class="l71d20" points="95.75,45 95.75,53.5 104.25,53.5 104.25,45 115,45 115,55.75 106.5,55.75 106.5,64.25 115,64.25 115,75 104.25,75 104.25,66.5 95.75,66.5 95.75,75 85,75 85,64.25 93.5,64.25 93.5,55.75 85,55.75 85,45"/>
<polygon id="0x2186ab0" class="l71d20" points="95.75,125 95.75,133.5 104.25,133.5 104.25,125 115,125 115,135.75 106.5,135.75 106.5,144.25 115,144.25 115,155 104.25,155 104.25,146.5 95.75,146.5 95.75,155 85,155 85,144.25 93.5,144.25 93.5,135.75 85,135.75 85,125"/>
<polygon id="0x2186c70" class="l71d20" points="95.75,165 95.75,173.5 104.25,173.5 104.25,165 115,165 115,175.75 106.5,175.75 106.5,184.25 115,184.25 115,195 104.25,195 104.25,186.5 95.75,186.5 95.75,195 85,195 85,184.25 93.5,184.25 93.5,175.75 85,175.75 85,165"/>
<polygon id="0x2186e30" class="l71d20" points="95.75,245 95.75,253.5 104.25,253.5 104.25,245 115,245 115,255.75 106.5,255.75 106.5,264.25 115,264.25 115,275 104.25,275 104.25,266.5 95.75,266.5 95.75,275 85,275 85,264.25 93.5,264.25 93.5,255.75 85,255.75 85,245"/>
<polygon id="0x2186ff0" class="l71d20" points="135.75,5 135.75,13.5 144.25,13.5 144.25,5 155,5 155,15.75 146.5,15.75 146.5,24.25 155,24.25 155,35 144.25,35 144.25,26.5 135.75,26.5 135.75,35 125,35 125,24.25 133.5,24.25 133.5,15.75 125,15.75 125,5"/>
<polygon id="0x21871b0" class="l71d20" points="135.75,45 135.75,53.5 144.25,53.5 144.25,45 155,45 155,55.75 146.5,55.75 146.5,64.25 155,64.25 155,75 144.25,75 144.25,66.5 135.75,66.5 135.75,75 125,75 125,64.25 133.5,64.25 133.5,55.75 125,55.75 125,45"/>
<polygon id="0x2187370" class="l71d20" points="135.75,85 135.75,93.5 144.25,93.5 144.25,85 155,85 155,95.75 146.5,95.75 146.5,104.25 155,104.25 155,115 144.25,115 144.25,106.5 135.75,106.5 135.75,115 125,115 125,104.25 133.5,104.25 133.5,95.75 125,95.75 125,85"/>
<polygon id="0x2187530" class="l71d20" points="135.75,125 135.75,133.5 144.25,133.5 144.25,125 155,125 155,135.75 146.5,135.75 146.5,144.25 155,144.25 155,155 144.25,155 144.25,146.5 135.75,146.5 135.75,155 125,155 125,144.25 133.5,144.25 133.5,135.75 125,135.75 125,125"/>
<polygon id="0x21876f0" class="l71d20" points="135.75,165 135.75,173.5 144.25,173.5 144.25,165 155,165 155,175.75 146.5,175.75 146.5,184.25 155,184.25 155,195 144.25,195 144.25,186.5 135.75,186.5 135.75,195 125,195 125,184.25 133.5,184.25 133.5,175.75 125,175.75 125,165"/>
<polygon id="0x21878b0" class="l71d20" points="135.75,205 135.75,213.5 144.25,213.5 144.25,205 155,205 155,215.75 146.5,215.75 146.5,224.25 155,224.25 155,235 144.25,235 144.25,226.5 135.75,226.5 135.75,235 125,235 125,224.25 133.5,224.25 133.5,215.75 125,215.75 125,205"/>
<polygon id="0x2187a70" class="l71d20" points="135.75,245 135.75,253.5 144.25,253.5 144.25,245 155,245 155,255.75 146.5,255.75 146.5,264.25 155,264.25 155,275 144.25,275 144.25,266.5 135.75,266.5 135.75,275 125,275 125,264.25 133.5,264.25 133.5,255.75 125,255.75 125,245"/>
<polygon id="0x2187c30" class="l71d20" points="135.75,285 135.75,293.5 144.25,293.5 144.25,285 155,285 155,295.75 146.5,295.75 146.5,304.25 155,304.25 155,315 144.25,315 144.25,306.5 135.75,306.5 135.75,315 125,315 125,304.25 133.5,304.25 133.5,295.75 125,295.75 125,285"/>
<polygon id="0x2187df0" class="l71d20" points="175.75,5 175.75,13.5 184.25,13.5 184.25,5 195,5 195,15.75 186.5,15.75 186.5,24.25 195,24.25 195,35 184.25,35 184.25,26.5 175.75,26.5 175.75,35 165,35 165,24.25 173.5,24.25 173.5,15.75 165,15.75 165,5"/>
<polygon id="0x2187fb0" class="l71d20" points="175.75,45 175.75,53.5 184.25,53.5 184.25,45 195,45 195,55.75 186.5,55.75 186.5,64.25 195,64.25 195,75 184.25,75 184.25,66.5 175.75,66.5 175.75,75 165,75 165,64.25 173.5,64.25 173.5,55.75 165,55.75 165,45"/>
<polygon id="0x2188170" class="l71d20" points="175.75,85 175.75,93.5 184.25,93.5 184.25,85 195,85 195,95.75 186.5,95.75 186.5,104.25 195,104.25 195,115 184.25,115 184.25,106.5 175.75,106.5 175.75,115 165,115 165,104.25 173.5,104.25 173.5,95.75 165,95.75 165,85"/>
<polygon id="0x2188330" class="l71d20" points="175.75,125 175.75,133.5 184.25,133.5 184.25,125 195,125 195,135.75 186.5,135.75 186.5,144.25 195,144.25 195,155 184.25,155 184.25,146.5 175.75,146.5 175.75,155 165,155 165,144.25 173.5,144.25 173.5,135.75 165,135.75 165,125"/>
<polygon id="0x21884f0" class="l71d20" points="175.75,165 175.75,173.5 184.25,173.5 184.25,165 195,165 195,175.75 186.5,175.75 186.5,184.25 195,184.25 195,195 184.25,195 184.25,186.5 175.75,186.5 175.75,195 165,195 165,184.25 173.5,184.25 173.5,175.75 165,175.75 165,165"/>
<polygon id="0x21886b0" class="l71d20" points="175.75,205 175.75,213.5 184.25,213.5 184.25,205 195,205 195,215.75 186.5,215.75 186.5,224.25 195,224.25 195,235 184.25,235 184.25,226.5 175.75,226.5 175.75,235 165,235 165,224.25 173.5,224.25 173.5,215.75 165,215.75 165,205"/>
<polygon id="0x2188870" class="l71d20" points="175.75,245 175.75,253.5 184.25,253.5 184.25,245 195,245 195,255.75 186.5,255.75 186.5,264.25 195,264.25 195,275 184.25,275 184.25,266.5 175.75,266.5 175.75,275 165,275 165,264.25 173.5,264.25 173.5,255.75 165,255.75 165,245"/>
<polygon id="0x2188a30" class="l71d20" points="175.75,285 175.75,293.5 184.25,293.5 184.25,285 195,285 195,295.75 186.5,295.75 186.5,304.25 195,304.25 195,315 184.25,315 184.25,306.5 175.75,306.5 175.75,315 165,315 165,304.25 173.5,304.25 173.5,295.75 165,295.75 165,285"/>
<polygon id="0x2188bf0" class="l71d20" points="215.75,45 215.75,53.5 224.25,53.5 224.25,45 235,45 235,55.75 226.5,55.75 226.5,64.25 235,64.25 235,75 224.25,75 224.25,66.5 215.75,66.5 215.75,75 205,75 205,64.25 213.5,64.25 213.5,55.75 205,55.75 205,45"/>
<polygon id="0x2188db0" class="l71d20" points="215.75,125 215.75,133.5 224.25,133.5 224.25,125 235,125 235,135.75 226.5,135.75 226.5,144.25 235,144.25 235,155 224.25,155 224.25,146.5 215.75,146.5 215.75,155 205,155 205,144.25 213.5,144.25 213.5,135.75 205,135.75 205,125"/>
<polygon id="0x2188f70" class="l71d20" points="215.75,165 215.75,173.5 224.25,173.5 224.25,165 235,165 235,175.75 226.5,175.75 226.5,184.25 235,184.25 235,195 224.25,195 224.25,186.5 215.75,186.5 215.75,195 205,195 205,184.25 213.5,184.25 213.5,175.75 205,175.75 205,165"/>
<polygon id="0x2189340" class="l71d20" points="215.75,245 215.75,253.5 224.25,253.5 224.25,245 235,245 235,255.75 226.5,255.75 226.5,264.25 235,264.25 235,275 224.25,275 224.25,266.5 215.75,266.5 215.75,275 205,275 205,264.25 213.5,264.25 213.5,255.75 205,255.75 205,245"/>
<polygon id="0x2189500" class="l71d20" points="255.75,5 255.75,13.5 264.25,13.5 264.25,5 275,5 275,15.75 266.5,15.75 266.5,24.25 275,24.25 275,35 264.25,35 264.25,26.5 255.75,26.5 255.75,35 245,35 245,24.25 253.5,24.25 253.5,15.75 245,15.75 245,5"/>
<polygon id="0x21896c0" class="l71d20" points="255.75,85 255.75,93.5 264.25,93.5 264.25,85 275,85 275,95.75 266.5,95.75 266.5,104.25 275,104.25 275,115 264.25,115 264.25,106.5 255.75,106.5 255.75,115 245,115 245,104.25 253.5,104.25 253.5,95.75 245,95.75 245,85"/>
<polygon id="0x2189880" class="l71d20" points="255.75,125 255.75,133.5 264.25,133.5 264.25,125 275,125 275,135.75 266.5,135.75 266.5,144.25 275,144.25 275,155 264.25,155 264.25,146.5 255.75,146.5 255.75,155 245,155 245,144.25 253.5,144.25 253.5,135.75 245,135.75 245,125"/>
<polygon id="0x2189a40" class="l71d20" points="255.75,165 255.75,173.5 264.25,173.5 264.25,165 275,165 275,175.75 266.5,175.75 266.5,184.25 275,184.25 275,195 264.25,195 264.25,186.5 255.75,186.5 255.75,195 245,195 245,184.25 253.5,184.25 253.5,175.75 245,175.75 245,165"/>
<polygon id="0x2189c00" class="l71d20" points="255.75,205 255.75,213.5 264.25,213.5 264.25,205 275,205 275,215.75 266.5,215.75 266.5,224.25 275,224.25 275,235 264.25,235 264.25,226.5 255.75,226.5 255.75,235 245,235 245,224.25 253.5,224.25 253.5,215.75 245,215.75 245,205"/>
<polygon id="0x2189dc0" class="l71d20" points="255.75,285 255.75,293.5 264.25,293.5 264.25,285 275,285 275,295.75 266.5,295.75 266.5,304.25 275,304.25 275,315 264.25,315 264.25,306.5 255.75,306.5 255.75,315 245,315 245,304.25 253.5,304.25 253.5,295.75 245,295.75 245,285"/>
<polygon id="0x2189f80" class="l71d20" points="295.75,85 295.75,93.5 304.25,93.5 304.25,85 315,85 315,95.75 306.5,95.75 306.5,104.25 315,104.25 315,115 304.25,115 304.25,106.5 295.75,106.5 295.75,115 285,115 285,104.25 293.5,104.25 293.5,95.75 285,95.75 285,85"/>
<polygon id="0x218a140" class="l71d20" points="295.75,125 295.75,133.5 304.25,133.5 304.25,125 315,125 315,135.75 306.5,135.75 306.5,144.25 315,144.25 315,155 304.25,155 304.25,146.5 295.75,146.5 295.75,155 285,155 285,144.25 293.5,144.25 293.5,135.75 285,135.75 285,125"/>
<polygon id="0x218a300" class="l71d20" points="295.75,165 295.75,173.5 304.25,173.5 304.25,165 315,165 315,175.75 306.5,175.75 306.5,184.25 315,184.25 315,195 304.25,195 304.25,186.5 295.75,186.5 295.75,195 285,195 285,184.25 293.5,184.25 293.5,175.75 285,175.75 285,165"/>
<polygon id="0x218a4c0" class="l71d20" points="295.75,205 295.75,213.5 304.25,213.5 304.25,205 315,205 315,215.75 306.5,215.75 306.5,224.25 315,224.25 315,235 304.25,235 304.25,226.5 295.75,226.5 295.75,235 285,235 285,224.25 293.5,224.25 293.5,215.75 285,215.75 285,205"/>
<polygon id="0x218a680" class="l71d20" points="15.75,405 15.75,413.5 24.25,413.5 24.25,405 35,405 35,415.75 26.5,415.75 26.5,424.25 35,424.25 35,435 24.25,435 24.25,426.5 15.75,426.5 15.75,435 5,435 5,424.25 13.5,424.25 13.5,415.75 5,415.75 5,405"/>
<polygon id="0x218a840" class="l71d20" points="15.75,445 15.75,453.5 24.25,453.5 24.25,445 35,445 35,455.75 26.5,455.75 26.5,464.25 35,464.25 35,475 24.25,475 24.25,466.5 15.75,466.5 15.75,475 5,475 5,464.25 13.5,464.25 13.5,455.75 5,455.75 5,445"/>
<polygon id="0x218aa00" class="l71d20" points="15.75,565 15.75,573.5 24.25,573.5 24.25,565 35,565 35,575.75 26.5,575.75 26.5,584.25 35,584.25 35,595 24.25,595 24.25,586.5 15.75,586.5 15.75,595 5,595 5,584.25 13.5,584.25 13.5,575.75 5,575.75 5,565"/>
<polygon id="0x218abc0" class="l71d20" points="15.75,605 15.75,613.5 24.25,613.5 24.25,605 35,605 35,615.75 26.5,615.75 26.5,624.25 35,624.25 35,635 24.25,635 24.25,626.5 15.75,626.5 15.75,635 5,635 5,624.25 13.5,624.25 13.5,615.75 5,615.75 5,605"/>
<polygon id="0x218ad80" class="l71d20" points="55.75,405 55.75,413.5 64.25,413.5 64.25,405 75,405 75,415.75 66.5,415.75 66.5,424.25 75,424.25 75,435 64.25,435 64.25,426.5 55.75,426.5 55.75,435 45,435 45,424.25 53.5,424.25 53.5,415.75 45,415.75 45,405"/>
<polygon id="0x218af40" class="l71d20" points="55.75,605 55.75,613.5 64.25,613.5 64.25,605 75,605 75,615.75 66.5,615.75 66.5,624.25 75,624.25 75,635 64.25,635 64.25,626.5 55.75,626.5 55.75,635 45,635 45,624.25 53.5,624.25 53.5,615.75 45,615.75 45,605"/>
<polygon id="0x218b100" class="l71d20" points="95.75,485 95.75,493.5 104.25,493.5 104.25,485 115,485 115,495.75 106.5,495.75 106.5,504.25 115,504.25 115,515 104.25,515 104.25,506.5 95.75,506.5 95.75,515 85,515 85,504.25 93.5,504.25 93.5,495.75 85,495.75 85,485"/>
<polygon id="0x218b2c0" class="l71d20" points="95.75,525 95.75,533.5 104.25,533.5 104.25,525 115,525 115,535.75 106.5,535.75 106.5,544.25 115,544.25 115,555 104.25,555 104.25,546.5 95.75,546.5 95.75,555 85,555 85,544.25 93.5,544.25 93.5,535.75 85,535.75 85,525"/>
<polygon id="0x218b480" class="l71d20" points="215.75,485 215.75,493.5 224.25,493.5 224.25,485 235,485 235,495.75 226.5,495.75 226.5,504.25 235,504.25 235,515 224.25,515 224.25,506.5 215.75,506.5 215.75,515 205,515 205,504.25 213.5,504.25 213.5,495.75 205,495.75 205,485"/>
<polygon id="0x218b640" class="l71d20" points="215.75,525 215.75,533.5 224.25,533.5 224.25,525 235,525 235,535.75 226.5,535.75 226.5,544.25 235,544.25 235,555 224.25,555 224.25,546.5 215.75,546.5 215.75,555 205,555 205,544.25 213.5,544.25 213.5,535.75 205,535.75 205,525"/>
<polygon id="0x218b800" class="l71d20" points="255.75,405 255.75,413.5 264.25,413.5 264.25,405 275,405 275,415.75 266.5,415.75 266.5,424.25 275,424.25 275,435 264.25,435 264.25,426.5 255.75,426.5 255.75,435 245,435 245,424.25 253.5,424.25 253.5,415.75 245,415.75 245,405"/>
<polygon id="0x218b9c0" class="l71d20" points="255.75,605 255.75,613.5 264.25,613.5 264.25,605 275,605 275,615.75 266.5,615.75 266.5,624.25 275,624.25 275,635 264.25,635 264.25,626.5 255.75,626.5 255.75,635 245,635 245,624.25 253.5,624.25 253.5,615.75 245,615.75 245,605"/>
<polygon id="0x218bb80" class="l71d20" points="295.75,405 295.75,413.5 304.25,413.5 304.25,405 315,405 315,415.75 306.5,415.75 306.5,424.25 315,424.25 315,435 304.25,435 304.25,426.5 295.75,426.5 295.75,435 285,435 285,424.25 293.5,424.25 293.5,415.75 285,415.75 285,405"/>
<polygon id="0x218bd40" class="l71d20" points="295.75,445 295.75,453.5 304.25,453.5 304.25,445 315,445 315,455.75 306.5,455.75 306.5,464.25 315,464.25 315,475 304.25,475 304.25,466.5 295.75,466.5 295.75,475 285,475 285,464.25 293.5,464.25 293.5,455.75 285,455.75 285,445"/>
<polygon id="0x2137e30" class="l71d20" points="295.75,565 295.75,573.5 304.25,573.5 304.25,565 315,565 315,575.75 306.5,575.75 306.5,584.25 315,584.25 315,595 304.25,595 304.25,586.5 295.75,586.5 295.75,595 285,595 285,584.25 293.5,584.25 293.5,575.75 285,575.75 285,565"/>
<polygon id="0x21246f0" class="l71d20" points="295.75,605 295.75,613.5 304.25,613.5 304.25,605 315,605 315,615.75 306.5,615.75 306.5,624.25 315,624.25 315,635 304.25,635 304.25,626.5 295.75,626.5 295.75,635 285,635 285,624.25 293.5,624.25 293.5,615.75 285,615.75 285,605"/>
<polygon id="0x2133840" class="l71d20" points="375.75,5 375.75,13.5 384.25,13.5 384.25,5 395,5 395,15.75 386.5,15.75 386.5,24.25 395,24.25 395,35 384.25,35 384.25,26.5 375.75,26.5 375.75,35 365,35 365,24.25 373.5,24.25 373.5,15.75 365,15.75 365,5"/>
<polygon id="0x2153340" class="l71d20" points="375.75,85 375.75,93.5 384.25,93.5 384.25,85 395,85 395,95.75 386.5,95.75 386.5,104.25 395,104.25 395,115 384.25,115 384.25,106.5 375.75,106.5 375.75,115 365,115 365,104.25 373.5,104.25 373.5,95.75 365,95.75 365,85"/>
<polygon id="0x2166410" class="l71d20" points="375.75,205 375.75,213.5 384.25,213.5 384.25,205 395,205 395,215.75 386.5,215.75 386.5,224.25 395,224.25 395,235 384.25,235 384.25,226.5 375.75,226.5 375.75,235 365,235 365,224.25 373.5,224.25 373.5,215.75 365,215.75 365,205"/>
<polygon id="0x218c620" class="l71d20" points="375.75,285 375.75,293.5 384.25,293.5 384.25,285 395,285 395,295.75 386.5,295.75 386.5,304.25 395,304.25 395,315 384.25,315 384.25,306.5 375.75,306.5 375.75,315 365,315 365,304.25 373.5,304.25 373.5,295.75 365,295.75 365,285"/>
<polygon id="0x20f8e70" class="l71d20" points="415.75,85 415.75,93.5 424.25,93.5 424.25,85 435,85 435,95.75 426.5,95.75 426.5,104.25 435,104.25 435,115 424.25,115 424.25,106.5 415.75,106.5 415.75,115 405,115 405,104.25 413.5,104.25 413.5,95.75 405,95.75 405,85"/>
<polygon id="0x2185f10" class="l71d20" points="415.75,205 415.75,213.5 424.25,213.5 424.25,205 435,205 435,215.75 426.5,215.75 426.5,224.25 435,224.25 435,235 424.25,235 424.25,226.5 415.75,226.5 415.75,235 405,235 405,224.25 413.5,224.25 413.5,215.75 405,215.75 405,205"/>
<polygon id="0x1ec6e80" class="l71d20" points="455.75,5 455.75,13.5 464.25,13.5 464.25,5 475,5 475,15.75 466.5,15.75 466.5,24.25 475,24.25 475,35 464.25,35 464.25,26.5 455.75,26.5 455.75,35 445,35 445,24.25 453.5,24.25 453.5,15.75 445,15.75 445,5"/>
<polygon id="0x1fac940" class="l71d20" points="455.75,285 455.75,293.5 464.25,293.5 464.25,285 475,285 475,295.75 466.5,295.75 466.5,304.25 475,304.25 475,315 464.25,315 464.25,306.5 455.75,306.5 455.75,315 445,315 445,304.25 453.5,304.25 453.5,295.75 445,295.75 445,285"/>
<polygon id="0x1fb9990" class="l71d20" points="495.75,125 495.75,133.5 504.25,133.5 504.25,125 515,125 515,135.75 506.5,135.75 506.5,144.25 515,144.25 515,155 504.25,155 504.25,146.5 495.75,146.5 495.75,155 485,155 485,144.25 493.5,144.25 493.5,135.75 485,135.75 485,125"/>
<polygon id="0x1fe7e60" class="l71d20" points="495.75,165 495.75,173.5 504.25,173.5 504.25,165 515,165 515,175.75 506.5,175.75 506.5,184.25 515,184.25 515,195 504.25,195 504.25,186.5 495.75,186.5 495.75,195 485,195 485,184.25 493.5,184.25 493.5,175.75 485,175.75 485,165"/>
<polygon id="0x20f2570" class="l71d20" points="535.75,125 535.75,133.5 544.25,133.5 544.25,125 555,125 555,135.75 546.5,135.75 546.5,144.25 555,144.25 555,155 544.25,155 544.25,146.5 535.75,146.5 535.75,155 525,155 525,144.25 533.5,144.25 533.5,135.75 525,135.75 525,125"/>
<polygon id="0x20e6360" class="l71d20" points="535.75,165 535.75,173.5 544.25,173.5 544.25,165 555,165 555,175.75 546.5,175.75 546.5,184.25 555,184.25 555,195 544.25,195 544.25,186.5 535.75,186.5 535.75,195 525,195 525,184.25 533.5,184.25 533.5,175.75 525,175.75 525,165"/>
<polygon id="0x1f3e6f0" class="l71d20" points="575.75,5 575.75,13.5 584.25,13.5 584.25,5 595,5 595,15.75 586.5,15.75 586.5,24.25 595,24.25 595,35 584.25,35 584.25,26.5 575.75,26.5 575.75,35 565,35 565,24.25 573.5,24.25 573.5,15.75 565,15.75 565,5"/>
<polygon id="0x1f3e760" class="l71d20" points="575.75,285 575.75,293.5 584.25,293.5 584.25,285 595,285 595,295.75 586.5,295.75 586.5,304.25 595,304.25 595,315 584.25,315 584.25,306.5 575.75,306.5 575.75,315 565,315 565,304.25 573.5,304.25 573.5,295.75 565,295.75 565,285"/>
<polygon id="0x1f2c430" class="l71d20" points="615.75,85 615.75,93.5 624.25,93.5 624.25,85 635,85 635,95.75 626.5,95.75 626.5,104.25 635,104.25 635,115 624.25,115 624.25,106.5 615.75,106.5 615.75,115 605,115 605,104.25 613.5,104.25 613.5,95.75 605,95.75 605,85"/>
<polygon id="0x1f2c4a0" class="l71d20" points="615.75,205 615.75,213.5 624.25,213.5 624.25,205 635,205 635,215.75 626.5,215.75 626.5,224.25 635,224.25 635,235 624.25,235 624.25,226.5 615.75,226.5 615.75,235 605,235 605,224.25 613.5,224.25 613.5,215.75 605,215.75 605,205"/>
<polygon id="0x1f60710" class="l71d20" points="655.75,5 655.75,13.5 664.25,13.5 664.25,5 675,5 675,15.75 666.5,15.75 666.5,24.25 675,24.25 675,35 664.25,35 664.25,26.5 655.75,26.5 655.75,35 645,35 645,24.25 653.5,24.25 653.5,15.75 645,15.75 645,5"/>
<polygon id="0x1f60780" class="l71d20" points="655.75,85 655.75,93.5 664.25,93.5 664.25,85 675,85 675,95.75 666.5,95.75 666.5,104.25 675,104.25 675,115 664.25,115 664.25,106.5 655.75,106.5 655.75,115 645,115 645,104.25 653.5,104.25 653.5,95.75 645,95.75 645,85"/>
<polygon id="0x1fa46d0" class="l71d20" points="655.75,205 655.75,213.5 664.25,213.5 664.25,205 675,205 675,215.75 666.5,215.75 666.5,224.25 675,224.25 675,235 664.25,235 664.25,226.5 655.75,226.5 655.75,235 645,235 645,224.25 653.5,224.25 653.5,215.75 645,215.75 645,205"/>
<polygon id="0x1fa4740" class="l71d20" points="655.75,285 655.75,293.5 664.25,293.5 664.25,285 675,285 675,295.75 666.5,295.75 666.5,304.25 675,304.25 675,315 664.25,315 664.25,306.5 655.75,306.5 655.75,315 645,315 645,304.25 653.5,304.25 653.5,295.75 645,295.75 645,285"/>
<polygon id="0x1fc8470" class="l71d20" points="375.75,405 375.75,413.5 384.25,413.5 384.25,405 395,405 395,415.75 386.5,415.75 386.5,424.25 395,424.25 395,435 384.25,435 384.25,426.5 375.75,426.5 375.75,435 365,435 365,424.25 373.5,424.25 373.5,415.75 365,415.75 365,405"/>
<polygon id="0x1fc84e0" class="l71d20" points="375.75,445 375.75,453.5 384.25,453.5 384.25,445 395,445 395,455.75 386.5,455.75 386.5,464.25 395,464.25 395,475 384.25,475 384.25,466.5 375.75,466.5 375.75,475 365,475 365,464.25 373.5,464.25 373.5,455.75 365,455.75 365,445"/>
<polygon id="0x1ff3ae0" class="l71d20" points="375.75,485 375.75,493.5 384.25,493.5 384.25,485 395,485 395,495.75 386.5,495.75 386.5,504.25 395,504.25 395,515 384.25,515 384.25,506.5 375.75,506.5 375.75,515 365,515 365,504.25 373.5,504.25 373.5,495.75 365,495.75 365,485"/>
<polygon id="0x1ff3b50" class="l71d20" points="375.75,525 375.75,533.5 384.25,533.5 384.25,525 395,525 395,535.75 386.5,535.75 386.5,544.25 395,544.25 395,555 384.25,555 384.25,546.5 375.75,546.5 375.75,555 365,555 365,544.25 373.5,544.25 373.5,535.75 365,535.75 365,525"/>
<polygon id="0x2084c50" class="l71d20" points="375.75,565 375.75,573.5 384.25,573.5 384.25,565 395,565 395,575.75 386.5,575.75 386.5,584.25 395,584.25 395,595 384.25,595 384.25,586.5 375.75,586.5 375.75,595 365,595 365,584.25 373.5,584.25 373.5,575.75 365,575.75 365,565"/>
<polygon id="0x2084cc0" class="l71d20" points="375.75,605 375.75,613.5 384.25,613.5 384.25,605 395,605 395,615.75 386.5,615.75 386.5,624.25 395,624.25 395,635 384.25,635 384.25,626.5 375.75,626.5 375.75,635 365,635 365,624.25 373.5,624.25 373.5,615.75 365,615.75 365,605"/>
<polygon id="0x20add80" class="l71d20" points="415.75,485 415.75,493.5 424.25,493.5 424.25,485 435,485 435,495.75 426.5,495.75 426.5,504.25 435,504.25 435,515 424.25,515 424.25,506.5 415.75,506.5 415.75,515 405,515 405,504.25 413.5,504.25 413.5,495.75 405,495.75 405,485"/>
<polygon id="0x20addf0" class="l71d20" points="415.75,525 415.75,533.5 424.25,533.5 424.25,525 435,525 435,535.75 426.5,535.75 426.5,544.25 435,544.25 435,555 424.25,555 424.25,546.5 415.75,546.5 415.75,555 405,555 405,544.25 413.5,544.25 413.5,535.75 405,535.75 405,525"/>
<polygon id="0x2120910" class="l71d20" points="455.75,365 455.75,373.5 464.25,373.5 464.25,365 475,365 475,375.75 466.5,375.75 466.5,384.25 475,384.25 475,395 464.25,395 464.25,386.5 455.75,386.5 455.75,395 445,395 445,384.25 453.5,384.25 453.5,375.75 445,375.75 445,365"/>
<polygon id="0x2120980" class="l71d20" points="455.75,445 455.75,453.5 464.25,453.5 464.25,445 475,445 475,455.75 466.5,455.75 466.5,464.25 475,464.25 475,475 464.25,475 464.25,466.5 455.75,466.5 455.75,475 445,475 445,464.25 453.5,464.25 453.5,455.75 445,455.75 445,445"/>
<polygon id="0x2167560" class="l71d20" points="455.75,485 455.75,493.5 464.25,493.5 464.25,485 475,485 475,495.75 466.5,495.75 466.5,504.25 475,504.25 475,515 464.25,515 464.25,506.5 455.75,506.5 455.75,515 445,515 445,504.25 453.5,504.25 453.5,495.75 445,495.75 445,485"/>
<polygon id="0x21675d0" class="l71d20" points="455.75,525 455.75,533.5 464.25,533.5 464.25,525 475,525 475,535.75 466.5,535.75 466.5,544.25 475,544.25 475,555 464.25,555 464.25,546.5 455.75,546.5 455.75,555 445,555 445,544.25 453.5,544.25 453.5,535.75 445,535.75 445,525"/>
<polygon id="0x1f371e0" class="l71d20" points="455.75,565 455.75,573.5 464.25,573.5 464.25,565 475,565 475,575.75 466.5,575.75 466.5,584.25 475,584.25 475,595 464.25,595 464.25,586.5 455.75,586.5 455.75,595 445,595 445,584.25 453.5,584.25 453.5,575.75 445,575.75 445,565"/>
<polygon id="0x1fa1590" class="l71d20" points="455.75,645 455.75,653.5 464.25,653.5 464.25,645 475,645 475,655.75 466.5,655.75 466.5,664.25 475,664.25 475,675 464.25,675 464.25,666.5 455.75,666.5 455.75,675 445,675 445,664.25 453.5,664.25 453.5,655.75 445,655.75 445,645"/>
<polygon id="0x206f260" class="l71d20" points="495.75,405 495.75,413.5 504.25,413.5 504.25,405 515,405 515,415.75 506.5,415.75 506.5,424.25 515,424.25 515,435 504.25,435 504.25,426.5 495.75,426.5 495.75,435 485,435 485,424.25 493.5,424.25 493.5,415.75 485,415.75 485,405"/>
<polygon id="0x20eb970" class="l71d20" points="495.75,445 495.75,453.5 504.25,453.5 504.25,445 515,445 515,455.75 506.5,455.75 506.5,464.25 515,464.25 515,475 504.25,475 504.25,466.5 495.75,466.5 495.75,475 485,475 485,464.25 493.5,464.25 493.5,455.75 485,455.75 485,445"/>
<polygon id="0x2156f60" class="l71d20" points="495.75,485 495.75,493.5 504.25,493.5 504.25,485 515,485 515,495.75 506.5,495.75 506.5,504.25 515,504.25 515,515 504.25,515 504.25,506.5 495.75,506.5 495.75,515 485,515 485,504.25 493.5,504.25 493.5,495.75 485,495.75 485,485"/>
<polygon id="0x2185cd0" class="l71d20" points="495.75,525 495.75,533.5 504.25,533.5 504.25,525 515,525 515,535.75 506.5,535.75 506.5,544.25 515,544.25 515,555 504.25,555 504.25,546.5 495.75,546.5 495.75,555 485,555 485,544.25 493.5,544.25 493.5,535.75 485,535.75 485,525"/>
<polygon id="0x2185df0" class="l71d20" points="495.75,565 495.75,573.5 504.25,573.5 504.25,565 515,565 515,575.75 506.5,575.75 506.5,584.25 515,584.25 515,595 504.25,595 504.25,586.5 495.75,586.5 495.75,595 485,595 485,584.25 493.5,584.25 493.5,575.75 485,575.75 485,565"/>
<polygon id="0x1ffd8f0" class="l71d20" points="495.75,605 495.75,613.5 504.25,613.5 504.25,605 515,605 515,615.75 506.5,615.75 506.5,624.25 515,624.25 515,635 504.25,635 504.25,626.5 495.75,626.5 495.75,635 485,635 485,624.25 493.5,624.25 493.5,615.75 485,615.75 485,605"/>
<polygon id="0x1fe5f10" class="l71d20" points="535.75,405 535.75,413.5 544.25,413.5 544.25,405 555,405 555,415.75 546.5,415.75 546.5,424.25 555,424.25 555,435 544.25,435 544.25,426.5 535.75,426.5 535.75,435 525,435 525,424.25 533.5,424.25 533.5,415.75 525,415.75 525,405"/>
<polygon id="0x203fdc0" class="l71d20" points="535.75,445 535.75,453.5 544.25,453.5 544.25,445 555,445 555,455.75 546.5,455.75 546.5,464.25 555,464.25 555,475 544.25,475 544.25,466.5 535.75,466.5 535.75,475 525,475 525,464.25 533.5,464.25 533.5,455.75 525,455.75 525,445"/>
<polygon id="0x20925d0" class="l71d20" points="535.75,485 535.75,493.5 544.25,493.5 544.25,485 555,485 555,495.75 546.5,495.75 546.5,504.25 555,504.25 555,515 544.25,515 544.25,506.5 535.75,506.5 535.75,515 525,515 525,504.25 533.5,504.25 533.5,495.75 525,495.75 525,485"/>
<polygon id="0x2073760" class="l71d20" points="535.75,525 535.75,533.5 544.25,533.5 544.25,525 555,525 555,535.75 546.5,535.75 546.5,544.25 555,544.25 555,555 544.25,555 544.25,546.5 535.75,546.5 535.75,555 525,555 525,544.25 533.5,544.25 533.5,535.75 525,535.75 525,525"/>
<polygon id="0x1fc5fc0" class="l71d20" points="535.75,565 535.75,573.5 544.25,573.5 544.25,565 555,565 555,575.75 546.5,575.75 546.5,584.25 555,584.25 555,595 544.25,595 544.25,586.5 535.75,586.5 535.75,595 525,595 525,584.25 533.5,584.25 533.5,575.75 525,575.75 525,565"/>
<polygon id="0x2186340" class="l71d20" points="535.75,605 535.75,613.5 544.25,613.5 544.25,605 555,605 555,615.75 546.5,615.75 546.5,624.25 555,624.25 555,635 544.25,635 544.25,626.5 535.75,626.5 535.75,635 525,635 525,624.25 533.5,624.25 533.5,615.75 525,615.75 525,605"/>
<polygon id="0x211eb00" class="l71d20" points="575.75,365 575.75,373.5 584.25,373.5 584.25,365 595,365 595,375.75 586.5,375.75 586.5,384.25 595,384.25 595,395 584.25,395 584.25,386.5 575.75,386.5 575.75,395 565,395 565,384.25 573.5,384.25 573.5,375.75 565,375.75 565,365"/>
<polygon id="0x2006200" class="l71d20" points="575.75,445 575.75,453.5 584.25,453.5 584.25,445 595,445 595,455.75 586.5,455.75 586.5,464.25 595,464.25 595,475 584.25,475 584.25,466.5 575.75,466.5 575.75,475 565,475 565,464.25 573.5,464.25 573.5,455.75 565,455.75 565,445"/>
<polygon id="0x206c0f0" class="l71d20" points="575.75,485 575.75,493.5 584.25,493.5 584.25,485 595,485 595,495.75 586.5,495.75 586.5,504.25 595,504.25 595,515 584.25,515 584.25,506.5 575.75,506.5 575.75,515 565,515 565,504.25 573.5,504.25 573.5,495.75 565,495.75 565,485"/>
<polygon id="0x20ccd80" class="l71d20" points="575.75,525 575.75,533.5 584.25,533.5 584.25,525 595,525 595,535.75 586.5,535.75 586.5,544.25 595,544.25 595,555 584.25,555 584.25,546.5 575.75,546.5 575.75,555 565,555 565,544.25 573.5,544.25 573.5,535.75 565,535.75 565,525"/>
<polygon id="0x20d3ce0" class="l71d20" points="575.75,565 575.75,573.5 584.25,573.5 584.25,565 595,565 595,575.75 586.5,575.75 586.5,584.25 595,584.25 595,595 584.25,595 584.25,586.5 575.75,586.5 575.75,595 565,595 565,584.25 573.5,584.25 573.5,575.75 565,575.75 565,565"/>
<polygon id="0x20db850" class="l71d20" points="575.75,645 575.75,653.5 584.25,653.5 584.25,645 595,645 595,655.75 586.5,655.75 586.5,664.25 595,664.25 595,675 584.25,675 584.25,666.5 575.75,666.5 575.75,675 565,675 565,664.25 573.5,664.25 573.5,655.75 565,655.75 565,645"/>
<polygon id="0x2141db0" class="l71d20" points="615.75,485 615.75,493.5 624.25,493.5 624.25,485 635,485 635,495.75 626.5,495.75 626.5,504.25 635,504.25 635,515 624.25,515 624.25,506.5 615.75,506.5 615.75,515 605,515 605,504.25 613.5,504.25 613.5,495.75 605,495.75 605,485"/>
<polygon id="0x1ec7900" class="l71d20" points="615.75,525 615.75,533.5 624.25,533.5 624.25,525 635,525 635,535.75 626.5,535.75 626.5,544.25 635,544.25 635,555 624.25,555 624.25,546.5 615.75,546.5 615.75,555 605,555 605,544.25 613.5,544.25 613.5,535.75 605,535.75 605,525"/>
<polygon id="0x1f22de0" class="l71d20" points="655.75,405 655.75,413.5 664.25,413.5 664.25,405 675,405 675,415.75 666.5,415.75 666.5,424.25 675,424.25 675,435 664.25,435 664.25,426.5 655.75,426.5 655.75,435 645,435 645,424.25 653.5,424.25 653.5,415.75 645,415.75 645,405"/>
<polygon id="0x1fbaac0" class="l71d20" points="655.75,445 655.75,453.5 664.25,453.5 664.25,445 675,445 675,455.75 666.5,455.75 666.5,464.25 675,464.25 675,475 664.25,475 664.25,466.5 655.75,466.5 655.75,475 645,475 645,464.25 653.5,464.25 653.5,455.75 645,455.75 645,445"/>
<polygon id="0x1fc9260" class="l71d20" points="655.75,485 655.75,493.5 664.25,493.5 664.25,485 675,485 675,495.75 666.5,495.75 666.5,504.25 675,504.25 675,515 664.25,515 664.25,506.5 655.75,506.5 655.75,515 645,515 645,504.25 653.5,504.25 653.5,495.75 645,495.75 645,485"/>
<polygon id="0x207fe80" class="l71d20" points="655.75,525 655.75,533.5 664.25,533.5 664.25,525 675,525 675,535.75 666.5,535.75 666.5,544.25 675,544.25 675,555 664.25,555 664.25,546.5 655.75,546.5 655.75,555 645,555 645,544.25 653.5,544.25 653.5,535.75 645,535.75 645,525"/>
<polygon id="0x1fd6da0" class="l71d20" points="655.75,565 655.75,573.5 664.25,573.5 664.25,565 675,565 675,575.75 666.5,575.75 666.5,584.25 675,584.25 675,595 664.25,595 664.25,586.5 655.75,586.5 655.75,595 645,595 645,584.25 653.5,584.25 653.5,575.75 645,575.75 645,565"/>
<polygon id="0x2076750" class="l71d20" points="655.75,605 655.75,613.5 664.25,613.5 664.25,605 675,605 675,615.75 666.5,615.75 666.5,624.25 675,624.25 675,635 664.25,635 664.25,626.5 655.75,626.5 655.75,635 645,635 645,624.25 653.5,624.25 653.5,615.75 645,615.75 645,605"/>
<polygon id="0x21179a0" class="l71d20" points="735.75,5 735.75,13.5 744.25,13.5 744.25,5 755,5 755,15.75 746.5,15.75 746.5,24.25 755,24.25 755,35 744.25,35 744.25,26.5 735.75,26.5 735.75,35 725,35 725,24.25 733.5,24.25 733.5,15.75 725,15.75 725,5"/>
<polygon id="0x20dbd90" class="l71d20" points="735.75,85 735.75,93.5 744.25,93.5 744.25,85 755,85 755,95.75 746.5,95.75 746.5,104.25 755,104.25 755,115 744.25,115 744.25,106.5 735.75,106.5 735.75,115 725,115 725,104.25 733.5,104.25 733.5,95.75 725,95.75 725,85"/>
<polygon id="0x2152ab0" class="l71d20" points="735.75,205 735.75,213.5 744.25,213.5 744.25,205 755,205 755,215.75 746.5,215.75 746.5,224.25 755,224.25 755,235 744.25,235 744.25,226.5 735.75,226.5 735.75,235 725,235 725,224.25 733.5,224.25 733.5,215.75 725,215.75 725,205"/>
<polygon id="0x2186170" class="l71d20" points="735.75,285 735.75,293.5 744.25,293.5 744.25,285 755,285 755,295.75 746.5,295.75 746.5,304.25 755,304.25 755,315 744.25,315 744.25,306.5 735.75,306.5 735.75,315 725,315 725,304.25 733.5,304.25 733.5,295.75 725,295.75 725,285"/>
<polygon id="0x21861e0" class="l71d20" points="775.75,45 775.75,53.5 784.25,53.5 784.25,45 795,45 795,55.75 786.5,55.75 786.5,64.25 795,64.25 795,75 784.25,75 784.25,66.5 775.75,66.5 775.75,75 765,75 765,64.25 773.5,64.25 773.5,55.75 765,55.75 765,45"/>
<polygon id="0x2063340" class="l71d20" points="775.75,245 775.75,253.5 784.25,253.5 784.25,245 795,245 795,255.75 786.5,255.75 786.5,264.25 795,264.25 795,275 784.25,275 784.25,266.5 775.75,266.5 775.75,275 765,275 765,264.25 773.5,264.25 773.5,255.75 765,255.75 765,245"/>
<polygon id="0x1fa3cb0" class="l71d20" points="815.75,125 815.75,133.5 824.25,133.5 824.25,125 835,125 835,135.75 826.5,135.75 826.5,144.25 835,144.25 835,155 824.25,155 824.25,146.5 815.75,146.5 815.75,155 805,155 805,144.25 813.5,144.25 813.5,135.75 805,135.75 805,125"/>
<polygon id="0x1fa3d20" class="l71d20" points="815.75,165 815.75,173.5 824.25,173.5 824.25,165 835,165 835,175.75 826.5,175.75 826.5,184.25 835,184.25 835,195 824.25,195 824.25,186.5 815.75,186.5 815.75,195 805,195 805,184.25 813.5,184.25 813.5,175.75 805,175.75 805,165"/>
<polygon id="0x1fd43c0" class="l71d20" points="855.75,5 855.75,13.5 864.25,13.5 864.25,5 875,5 875,15.75 866.5,15.75 866.5,24.25 875,24.25 875,35 864.25,35 864.25,26.5 855.75,26.5 855.75,35 845,35 845,24.25 853.5,24.25 853.5,15.75 845,15.75 845,5"/>
<polygon id="0x210f1a0" class="l71d20" points="855.75,45 855.75,53.5 864.25,53.5 864.25,45 875,45 875,55.75 866.5,55.75 866.5,64.25 875,64.25 875,75 864.25,75 864.25,66.5 855.75,66.5 855.75,75 845,75 845,64.25 853.5,64.25 853.5,55.75 845,55.75 845,45"/>
<polygon id="0x20c2330" class="l71d20" points="855.75,85 855.75,93.5 864.25,93.5 864.25,85 875,85 875,95.75 866.5,95.75 866.5,104.25 875,104.25 875,115 864.25,115 864.25,106.5 855.75,106.5 855.75,115 845,115 845,104.25 853.5,104.25 853.5,95.75 845,95.75 845,85"/>
<polygon id="0x2156fd0" class="l71d20" points="855.75,125 855.75,133.5 864.25,133.5 864.25,125 875,125 875,135.75 866.5,135.75 866.5,144.25 875,144.25 875,155 864.25,155 864.25,146.5 855.75,146.5 855.75,155 845,155 845,144.25 853.5,144.25 853.5,135.75 845,135.75 845,125"/>
<polygon id="0x206f2d0" class="l71d20" points="855.75,165 855.75,173.5 864.25,173.5 864.25,165 875,165 875,175.75 866.5,175.75 866.5,184.25 875,184.25 875,195 864.25,195 864.25,186.5 855.75,186.5 855.75,195 845,195 845,184.25 853.5,184.25 853.5,175.75 845,175.75 845,165"/>
<polygon id="0x1fd4430" class="l71d20" points="855.75,205 855.75,213.5 864.25,213.5 864.25,205 875,205 875,215.75 866.5,215.75 866.5,224.25 875,224.25 875,235 864.25,235 864.25,226.5 855.75,226.5 855.75,235 845,235 845,224.25 853.5,224.25 853.5,215.75 845,215.75 845,205"/>
<polygon id="0x211d1f0" class="l71d20" points="855.75,245 855.75,253.5 864.25,253.5 864.25,245 875,245 875,255.75 866.5,255.75 866.5,264.25 875,264.25 875,275 864.25,275 864.25,266.5 855.75,266.5 855.75,275 845,275 845,264.25 853.5,264.25 853.5,255.75 845,255.75 845,245"/>
<polygon id="0x2185e60" class="l71d20" points="855.75,285 855.75,293.5 864.25,293.5 864.25,285 875,285 875,295.75 866.5,295.75 866.5,304.25 875,304.25 875,315 864.25,315 864.25,306.5 855.75,306.5 855.75,315 845,315 845,304.25 853.5,304.25 853.5,295.75 845,295.75 845,285"/>
<polygon id="0x212fa50" class="l71d20" points="895.75,5 895.75,13.5 904.25,13.5 904.25,5 915,5 915,15.75 906.5,15.75 906.5,24.25 915,24.25 915,35 904.25,35 904.25,26.5 895.75,26.5 895.75,35 885,35 885,24.25 893.5,24.25 893.5,15.75 885,15.75 885,5"/>
<polygon id="0x2123540" class="l71d20" points="895.75,45 895.75,53.5 904.25,53.5 904.25,45 915,45 915,55.75 906.5,55.75 906.5,64.25 915,64.25 915,75 904.25,75 904.25,66.5 895.75,66.5 895.75,75 885,75 885,64.25 893.5,64.25 893.5,55.75 885,55.75 885,45"/>
<polygon id="0x20e1060" class="l71d20" points="895.75,85 895.75,93.5 904.25,93.5 904.25,85 915,85 915,95.75 906.5,95.75 906.5,104.25 915,104.25 915,115 904.25,115 904.25,106.5 895.75,106.5 895.75,115 885,115 885,104.25 893.5,104.25 893.5,95.75 885,95.75 885,85"/>
<polygon id="0x216e230" class="l71d20" points="895.75,125 895.75,133.5 904.25,133.5 904.25,125 915,125 915,135.75 906.5,135.75 906.5,144.25 915,144.25 915,155 904.25,155 904.25,146.5 895.75,146.5 895.75,155 885,155 885,144.25 893.5,144.25 893.5,135.75 885,135.75 885,125"/>
<polygon id="0x1fe6990" class="l71d20" points="895.75,165 895.75,173.5 904.25,173.5 904.25,165 915,165 915,175.75 906.5,175.75 906.5,184.25 915,184.25 915,195 904.25,195 904.25,186.5 895.75,186.5 895.75,195 885,195 885,184.25 893.5,184.25 893.5,175.75 885,175.75 885,165"/>
<polygon id="0x1fe6a00" class="l71d20" points="895.75,205 895.75,213.5 904.25,213.5 904.25,205 915,205 915,215.75 906.5,215.75 906.5,224.25 915,224.25 915,235 904.25,235 904.25,226.5 895.75,226.5 895.75,235 885,235 885,224.25 893.5,224.25 893.5,215.75 885,215.75 885,205"/>
<polygon id="0x20b0a50" class="l71d20" points="895.75,245 895.75,253.5 904.25,253.5 904.25,245 915,245 915,255.75 906.5,255.75 906.5,264.25 915,264.25 915,275 904.25,275 904.25,266.5 895.75,266.5 895.75,275 885,275 885,264.25 893.5,264.25 893.5,255.75 885,255.75 885,245"/>
<polygon id="0x20b0ac0" class="l71d20" points="895.75,285 895.75,293.5 904.25,293.5 904.25,285 915,285 915,295.75 906.5,295.75 906.5,304.25 915,304.25 915,315 904.25,315 904.25,306.5 895.75,306.5 895.75,315 885,315 885,304.25 893.5,304.25 893.5,295.75 885,295.75 885,285"/>
<polygon id="0x2104bb0" class="l71d20" points="935.75,125 935.75,133.5 944.25,133.5 944.25,125 955,125 955,135.75 946.5,135.75 946.5,144.25 955,144.25 955,155 944.25,155 944.25,146.5 935.75,146.5 935.75,155 925,155 925,144.25 933.5,144.25 933.5,135.75 925,135.75 925,125"/>
<polygon id="0x2104c20" class="l71d20" points="935.75,165 935.75,173.5 944.25,173.5 944.25,165 955,165 955,175.75 946.5,175.75 946.5,184.25 955,184.25 955,195 944.25,195 944.25,186.5 935.75,186.5 935.75,195 925,195 925,184.25 933.5,184.25 933.5,175.75 925,175.75 925,165"/>
<polygon id="0x20e29f0" class="l71d20" points="975.75,45 975.75,53.5 984.25,53.5 984.25,45 995,45 995,55.75 986.5,55.75 986.5,64.25 995,64.25 995,75 984.25,75 984.25,66.5 975.75,66.5 975.75,75 965,75 965,64.25 973.5,64.25 973.5,55.75 965,55.75 965,45"/>
<polygon id="0x20e2a60" class="l71d20" points="975.75,245 975.75,253.5 984.25,253.5 984.25,245 995,245 995,255.75 986.5,255.75 986.5,264.25 995,264.25 995,275 984.25,275 984.25,266.5 975.75,266.5 975.75,275 965,275 965,264.25 973.5,264.25 973.5,255.75 965,255.75 965,245"/>
<polygon id="0x1e78c20" class="l71d20" points="1015.75,5 1015.75,13.5 1024.25,13.5 1024.25,5 1035,5 1035,15.75 1026.5,15.75 1026.5,24.25 1035,24.25 1035,35 1024.25,35 1024.25,26.5 1015.75,26.5 1015.75,35 1005,35 1005,24.25 1013.5,24.25 1013.5,15.75 1005,15.75 1005,5"/>
<polygon id="0x1e78c90" class="l71d20" points="1015.75,85 1015.75,93.5 1024.25,93.5 1024.25,85 1035,85 1035,95.75 1026.5,95.75 1026.5,104.25 1035,104.25 1035,115 1024.25,115 1024.25,106.5 1015.75,106.5 1015.75,115 1005,115 1005,104.25 1013.5,104.25 1013.5,95.75 1005,95.75 1005,85"/>
<polygon id="0x21863b0" class="l71d20" points="1015.75,205 1015.75,213.5 1024.25,213.5 1024.25,205 1035,205 1035,215.75 1026.5,215.75 1026.5,224.25 1035,224.25 1035,235 1024.25,235 1024.25,226.5 1015.75,226.5 1015.75,235 1005,235 1005,224.25 1013.5,224.25 1013.5,215.75 1005,215.75 1005,205"/>
<polygon id="0x2186420" class="l71d20" points="1015.75,285 1015.75,293.5 1024.25,293.5 1024.25,285 1035,285 1035,295.75 1026.5,295.75 1026.5,304.25 1035,304.25 1035,315 1024.25,315 1024.25,306.5 1015.75,306.5 1015.75,315 1005,315 1005,304.25 1013.5,304.25 1013.5,295.75 1005,295.75 1005,285"/>
<polygon id="0x1f89060" class="l71d20" points="775.75,365 775.75,373.5 784.25,373.5 784.25,365 795,365 795,375.75 786.5,375.75 786.5,384.25 795,384.25 795,395 784.25,395 784.25,386.5 775.75,386.5 775.75,395 765,395 765,384.25 773.5,384.25 773.5,375.75 765,375.75 765,365"/>
<polygon id="0x1f890d0" class="l71d20" points="775.75,405 775.75,413.5 784.25,413.5 784.25,405 795,405 795,415.75 786.5,415.75 786.5,424.25 795,424.25 795,435 784.25,435 784.25,426.5 775.75,426.5 775.75,435 765,435 765,424.25 773.5,424.25 773.5,415.75 765,415.75 765,405"/>
<polygon id="0x1fc56d0" class="l71d20" points="775.75,445 775.75,453.5 784.25,453.5 784.25,445 795,445 795,455.75 786.5,455.75 786.5,464.25 795,464.25 795,475 784.25,475 784.25,466.5 775.75,466.5 775.75,475 765,475 765,464.25 773.5,464.25 773.5,455.75 765,455.75 765,445"/>
<polygon id="0x1fc5740" class="l71d20" points="775.75,485 775.75,493.5 784.25,493.5 784.25,485 795,485 795,495.75 786.5,495.75 786.5,504.25 795,504.25 795,515 784.25,515 784.25,506.5 775.75,506.5 775.75,515 765,515 765,504.25 773.5,504.25 773.5,495.75 765,495.75 765,485"/>
<polygon id="0x205ed20" class="l71d20" points="775.75,525 775.75,533.5 784.25,533.5 784.25,525 795,525 795,535.75 786.5,535.75 786.5,544.25 795,544.25 795,555 784.25,555 784.25,546.5 775.75,546.5 775.75,555 765,555 765,544.25 773.5,544.25 773.5,535.75 765,535.75 765,525"/>
<polygon id="0x205ed90" class="l71d20" points="775.75,565 775.75,573.5 784.25,573.5 784.25,565 795,565 795,575.75 786.5,575.75 786.5,584.25 795,584.25 795,595 784.25,595 784.25,586.5 775.75,586.5 775.75,595 765,595 765,584.25 773.5,584.25 773.5,575.75 765,575.75 765,565"/>
<polygon id="0x20be420" class="l71d20" points="775.75,605 775.75,613.5 784.25,613.5 784.25,605 795,605 795,615.75 786.5,615.75 786.5,624.25 795,624.25 795,635 784.25,635 784.25,626.5 775.75,626.5 775.75,635 765,635 765,624.25 773.5,624.25 773.5,615.75 765,615.75 765,605"/>
<polygon id="0x20be490" class="l71d20" points="775.75,645 775.75,653.5 784.25,653.5 784.25,645 795,645 795,655.75 786.5,655.75 786.5,664.25 795,664.25 795,675 784.25,675 784.25,666.5 775.75,666.5 775.75,675 765,675 765,664.25 773.5,664.25 773.5,655.75 765,655.75 765,645"/>
<polygon id="0x20caed0" class="l71d20" points="815.75,365 815.75,373.5 824.25,373.5 824.25,365 835,365 835,375.75 826.5,375.75 826.5,384.25 835,384.25 835,395 824.25,395 824.25,386.5 815.75,386.5 815.75,395 805,395 805,384.25 813.5,384.25 813.5,375.75 805,375.75 805,365"/>
<polygon id="0x20caf40" class="l71d20" points="815.75,485 815.75,493.5 824.25,493.5 824.25,485 835,485 835,495.75 826.5,495.75 826.5,504.25 835,504.25 835,515 824.25,515 824.25,506.5 815.75,506.5 815.75,515 805,515 805,504.25 813.5,504.25 813.5,495.75 805,495.75 805,485"/>
<polygon id="0x2122b60" class="l71d20" points="815.75,525 815.75,533.5 824.25,533.5 824.25,525 835,525 835,535.75 826.5,535.75 826.5,544.25 835,544.25 835,555 824.25,555 824.25,546.5 815.75,546.5 815.75,555 805,555 805,544.25 813.5,544.25 813.5,535.75 805,535.75 805,525"/>
<polygon id="0x2122bd0" class="l71d20" points="815.75,645 815.75,653.5 824.25,653.5 824.25,645 835,645 835,655.75 826.5,655.75 826.5,664.25 835,664.25 835,675 824.25,675 824.25,666.5 815.75,666.5 815.75,675 805,675 805,664.25 813.5,664.25 813.5,655.75 805,655.75 805,645"/>
<polygon id="0x2135960" class="l71d20" points="855.75,365 855.75,373.5 864.25,373.5 864.25,365 875,365 875,375.75 866.5,375.75 866.5,384.25 875,384.25 875,395 864.25,395 864.25,386.5 855.75,386.5 855.75,395 845,395 845,384.25 853.5,384.25 853.5,375.75 845,375.75 845,365"/>
<polygon id="0x21359d0" class="l71d20" points="855.75,645 855.75,653.5 864.25,653.5 864.25,645 875,645 875,655.75 866.5,655.75 866.5,664.25 875,664.25 875,675 864.25,675 864.25,666.5 855.75,666.5 855.75,675 845,675 845,664.25 853.5,664.25 853.5,655.75 845,655.75 845,645"/>
<polygon id="0x2166c70" class="l71d20" points="895.75,365 895.75,373.5 904.25,373.5 904.25,365 915,365 915,375.75 906.5,375.75 906.5,384.25 915,384.25 915,395 904.25,395 904.25,386.5 895.75,386.5 895.75,395 885,395 885,384.25 893.5,384.25 893.5,375.75 885,375.75 885,365"/>
<polygon id="0x2166ce0" class="l71d20" points="895.75,645 895.75,653.5 904.25,653.5 904.25,645 915,645 915,655.75 906.5,655.75 906.5,664.25 915,664.25 915,675 904.25,675 904.25,666.5 895.75,666.5 895.75,675 885,675 885,664.25 893.5,664.25 893.5,655.75 885,655.75 885,645"/>
<polygon id="0x1e6a5e0" class="l71d20" points="935.75,365 935.75,373.5 944.25,373.5 944.25,365 955,365 955,375.75 946.5,375.75 946.5,384.25 955,384.25 955,395 944.25,395 944.25,386.5 935.75,386.5 935.75,395 925,395 925,384.25 933.5,384.25 933.5,375.75 925,375.75 925,365"/>
<polygon id="0x1e6a650" class="l71d20" points="935.75,485 935.75,493.5 944.25,493.5 944.25,485 955,485 955,495.75 946.5,495.75 946.5,504.25 955,504.25 955,515 944.25,515 944.25,506.5 935.75,506.5 935.75,515 925,515 925,504.25 933.5,504.25 933.5,495.75 925,495.75 925,485"/>
<polygon id="0x1f327b0" class="l71d20" points="935.75,525 935.75,533.5 944.25,533.5 944.25,525 955,525 955,535.75 946.5,535.75 946.5,544.25 955,544.25 955,555 944.25,555 944.25,546.5 935.75,546.5 935.75,555 925,555 925,544.25 933.5,544.25 933.5,535.75 925,535.75 925,525"/>
<polygon id="0x1f32820" class="l71d20" points="935.75,645 935.75,653.5 944.25,653.5 944.25,645 955,645 955,655.75 946.5,655.75 946.5,664.25 955,664.25 955,675 944.25,675 944.25,666.5 935.75,666.5 935.75,675 925,675 925,664.25 933.5,664.25 933.5,655.75 925,655.75 925,645"/>
<polygon id="0x1f50de0" class="l71d20" points="975.75,365 975.75,373.5 984.25,373.5 984.25,365 995,365 995,375.75 986.5,375.75 986.5,384.25 995,384.25 995,395 984.25,395 984.25,386.5 975.75,386.5 975.75,395 965,395 965,384.25 973.5,384.25 973.5,375.75 965,375.75 965,365"/>
<polygon id="0x1f50e50" class="l71d20" points="975.75,405 975.75,413.5 984.25,413.5 984.25,405 995,405 995,415.75 986.5,415.75 986.5,424.25 995,424.25 995,435 984.25,435 984.25,426.5 975.75,426.5 975.75,435 965,435 965,424.25 973.5,424.25 973.5,415.75 965,415.75 965,405"/>
<polygon id="0x1f68bd0" class="l71d20" points="975.75,445 975.75,453.5 984.25,453.5 984.25,445 995,445 995,455.75 986.5,455.75 986.5,464.25 995,464.25 995,475 984.25,475 984.25,466.5 975.75,466.5 975.75,475 965,475 965,464.25 973.5,464.25 973.5,455.75 965,455.75 965,445"/>
<polygon id="0x1f68c40" class="l71d20" points="975.75,485 975.75,493.5 984.25,493.5 984.25,485 995,485 995,495.75 986.5,495.75 986.5,504.25 995,504.25 995,515 984.25,515 984.25,506.5 975.75,506.5 975.75,515 965,515 965,504.25 973.5,504.25 973.5,495.75 965,495.75 965,485"/>
<polygon id="0x1f91bb0" class="l71d20" points="975.75,525 975.75,533.5 984.25,533.5 984.25,525 995,525 995,535.75 986.5,535.75 986.5,544.25 995,544.25 995,555 984.25,555 984.25,546.5 975.75,546.5 975.75,555 965,555 965,544.25 973.5,544.25 973.5,535.75 965,535.75 965,525"/>
<polygon id="0x1f91c20" class="l71d20" points="975.75,565 975.75,573.5 984.25,573.5 984.25,565 995,565 995,575.75 986.5,575.75 986.5,584.25 995,584.25 995,595 984.25,595 984.25,586.5 975.75,586.5 975.75,595 965,595 965,584.25 973.5,584.25 973.5,575.75 965,575.75 965,565"/>
<polygon id="0x1feaa50" class="l71d20" points="975.75,605 975.75,613.5 984.25,613.5 984.25,605 995,605 995,615.75 986.5,615.75 986.5,624.25 995,624.25 995,635 984.25,635 984.25,626.5 975.75,626.5 975.75,635 965,635 965,624.25 973.5,624.25 973.5,615.75 965,615.75 965,605"/>
<polygon id="0x1feaac0" class="l71d20" points="975.75,645 975.75,653.5 984.25,653.5 984.25,645 995,645 995,655.75 986.5,655.75 986.5,664.25 995,664.25 995,675 984.25,675 984.25,666.5 975.75,666.5 975.75,675 965,675 965,664.25 973.5,664.25 973.5,655.75 965,655.75 965,645"/>
<polygon id="0x20a9d70" class="l235d4" points="0,0 40,0 40,40 0,40"/>
<polygon id="0x20da4e0" class="l65d20" points="0,0 30,0 30,30 0,30"/>
<polygon id="0x1f75c30" class="l66d20" points="-1.8,-1.8 31.8,-1.8 31.8,31.8 -1.8,31.8"/>
<polygon id="0x1f5fc70" class="l65d20" points="0,48 30,48 30,78 0,78"/>
<polygon id="0x20088c0" class="l66d20" points="-1.8,46.2 31.8,46.2 31.8,79.8 -1.8,79.8"/>
<polygon id="0x1e5b610" class="l65d20" points="0,96 30,96 30,126 0,126"/>
<polygon id="0x1fd0f40" class="l66d20" points="-1.8,94.2 31.8,94.2 31.8,127.8 -1.8,127.8"/>
<polygon id="0x1fd0fb0" class="l65d20" points="0,144 30,144 30,174 0,174"/>
<polygon id="0x20a0a20" class="l66d20" points="-1.8,142.2 31.8,142.2 31.8,175.8 -1.8,175.8"/>
<polygon id="0x20a0a90" class="l65d20" points="0,192 30,192 30,222 0,222"/>
<polygon id="0x20b8880" class="l66d20" points="-1.8,190.2 31.8,190.2 31.8,223.8 -1.8,223.8"/>
<polygon id="0x20b88f0" class="l65d20" points="0,240 30,240 30,270 0,270"/>
<polygon id="0x20d34a0" class="l66d20" points="-1.8,238.2 31.8,238.2 31.8,271.8 -1.8,271.8"/>
<polygon id="0x20d3510" class="l65d20" points="0,288 30,288 30,318 0,318"/>
<polygon id="0x212dd80" class="l66d20" points="-1.8,286.2 31.8,286.2 31.8,319.8 -1.8,319.8"/>
<polygon id="0x212ddf0" class="l65d20" points="0,336 30,336 30,366 0,366"/>
<polygon id="0x213fd70" class="l66d20" points="-1.8,334.2 31.8,334.2 31.8,367.8 -1.8,367.8"/>
<polygon id="0x213fde0" class="l65d20" points="0,384 30,384 30,414 0,414"/>
<polygon id="0x1f192a0" class="l66d20" points="-1.8,382.2 31.8,382.2 31.8,415.8 -1.8,415.8"/>
<polygon id="0x1f19310" class="l65d20" points="0,432 30,432 30,462 0,462"/>
<polygon id="0x1f3a150" class="l66d20" points="-1.8,430.2 31.8,430.2 31.8,463.8 -1.8,463.8"/>
<polygon id="0x1f3a210" class="l65d20" points="0,480 30,480 30,510 0,510"/>
<polygon id="0x1f5bc60" class="l66d20" points="-1.8,478.2 31.8,478.2 31.8,511.8 -1.8,511.8"/>
<polygon id="0x1f5bd20" class="l65d20" points="0,528 30,528 30,558 0,558"/>
<polygon id="0x1f83df0" class="l66d20" points="-1.8,526.2 31.8,526.2 31.8,559.8 -1.8,559.8"/>
<polygon id="0x1f83eb0" class="l65d20" points="48,0 78,0 78,30 48,30"/>
<polygon id="0x1fe88f0" class="l66d20" points="46.2,-1.8 79.8,-1.8 79.8,31.8 46.2,31.8"/>
<polygon id="0x1fe89b0" class="l65d20" points="48,48 78,48 78,78 48,78"/>
<polygon id="0x1ff7330" class="l66d20" points="46.2,46.2 79.8,46.2 79.8,79.8 46.2,79.8"/>
<polygon id="0x1ff73f0" class="l65d20" points="48,96 78,96 78,126 48,126"/>
<polygon id="0x21639a0" class="l66d20" points="46.2,94.2 79.8,94.2 79.8,127.8 46.2,127.8"/>
<polygon id="0x2163a60" class="l65d20" points="48,144 78,144 78,174 48,174"/>
<polygon id="0x1f52520" class="l66d20" points="46.2,142.2 79.8,142.2 79.8,175.8 46.2,175.8"/>
<polygon id="0x1f525e0" class="l65d20" points="48,192 78,192 78,222 48,222"/>
<polygon id="0x20af5e0" class="l66d20" points="46.2,190.2 79.8,190.2 79.8,223.8 46.2,223.8"/>
<polygon id="0x20af6a0" class="l65d20" points="48,240 78,240 78,270 48,270"/>
<polygon id="0x2193db0" class="l66d20" points="46.2,238.2 79.8,238.2 79.8,271.8 46.2,271.8"/>
<polygon id="0x2193e20" class="l65d20" points="48,288 78,288 78,318 48,318"/>
<polygon id="0x2193e90" class="l66d20" points="46.2,286.2 79.8,286.2 79.8,319.8 46.2,319.8"/>
<polygon id="0x2193f00" class="l65d20" points="48,336 78,336 78,366 48,366"/>
<polygon id="0x2193fc0" class="l66d20" points="46.2,334.2 79.8,334.2 79.8,367.8 46.2,367.8"/>
<polygon id="0x2194080" class="l65d20" points="48,384 78,384 78,414 48,414"/>
<polygon id="0x2194140" class="l66d20" points="46.2,382.2 79.8,382.2 79.8,415.8 46.2,415.8"/>
<polygon id="0x2194200" class="l65d20" points="48,432 78,432 78,462 48,462"/>
<polygon id="0x21942c0" class="l66d20" points="46.2,430.2 79.8,430.2 79.8,463.8 46.2,463.8"/>
<polygon id="0x2194380" class="l65d20" points="48,480 78,480 78,510 48,510"/>
<polygon id="0x2194440" class="l66d20" points="46.2,478.2 79.8,478.2 79.8,511.8 46.2,511.8"/>
<polygon id="0x2194500" class="l65d20" points="48,528 78,528 78,558 48,558"/>
<polygon id="0x21945c0" class="l66d20" points="46.2,526.2 79.8,526.2 79.8,559.8 46.2,559.8"/>
<polygon id="0x2194680" class="l65d20" points="96,0 126,0 126,30 96,30"/>
<polygon id="0x2194740" class="l66d20" points="94.2,-1.8 127.8,-1.8 127.8,31.8 94.2,31.8"/>
<polygon id="0x2194800" class="l65d20" points="96,48 126,48 126,78 96,78"/>
<polygon id="0x21948c0" class="l66d20" points="94.2,46.2 127.8,46.2 127.8,79.8 94.2,79.8"/>
<polygon id="0x2194980" class="l65d20" points="96,96 126,96 126,126 96,126"/>
<polygon id="0x2194a40" class="l66d20" points="94.2,94.2 127.8,94.2 127.8,127.8 94.2,127.8"/>
<polygon id="0x2194b00" class="l65d20" points="96,144 126,144 126,174 96,174"/>
<polygon id="0x2194bc0" class="l66d20" points="94.2,142.2 127.8,142.2 127.8,175.8 94.2,175.8"/>
<polygon id="0x2194c80" class="l65d20" points="96,192 126,192 126,222 96,222"/>
<polygon id="0x2194d40" class="l66d20" points="94.2,190.2 127.8,190.2 127.8,223.8 94.2,223.8"/>
<polygon id="0x2194e00" class="l65d20" points="96,240 126,240 126,270 96,270"/>
<polygon id="0x2194ec0" class="l66d20" points="94.2,238.2 127.8,238.2 127.8,271.8 94.2,271.8"/>
<polygon id="0x2194f80" class="l65d20" points="96,288 126,288 126,318 96,318"/>
<polygon id="0x2195040" class="l66d20" points="94.2,286.2 127.8,286.2 127.8,319.8 94.2,319.8"/>
<polygon id="0x2195100" class="l65d20" points="96,336 126,336 126,366 96,366"/>
<polygon id="0x21951c0" class="l66d20" points="94.2,334.2 127.8,334.2 127.8,367.8 94.2,367.8"/>
<polygon id="0x2195280" class="l65d20" points="96,384 126,384 126,414 96,414"/>
<polygon id="0x2195340" class="l66d20" points="94.2,382.2 127.8,382.2 127.8,415.8 94.2,415.8"/>
<polygon id="0x2195400" class="l65d20" points="96,432 126,432 126,462 96,462"/>
<polygon id="0x21954c0" class="l66d20" points="94.2,430.2 127.8,430.2 127.8,463.8 94.2,463.8"/>
<polygon id="0x2195580" class="l65d20" points="96,480 126,480 126,510 96,510"/>
<polygon id="0x2195640" class="l66d20" points="94.2,478.2 127.8,478.2 127.8,511.8 94.2,511.8"/>
<polygon id="0x2195700" class="l65d20" points="96,528 126,528 126,558 96,558"/>
<polygon id="0x21957c0" class="l66d20" points="94.2,526.2 127.8,526.2 127.8,559.8 94.2,559.8"/>
<polygon id="0x2195880" class="l65d20" points="144,0 174,0 174,30 144,30"/>
<polygon id="0x2195940" class="l66d20" points="142.2,-1.8 175.8,-1.8 175.8,31.8 142.2,31.8"/>
<polygon id="0x2195a00" class="l65d20" points="144,48 174,48 174,78 144,78"/>
<polygon id="0x2195ac0" class="l66d20" points="142.2,46.2 175.8,46.2 175.8,79.8 142.2,79.8"/>
<polygon id="0x1fa1600" class="l65d20" points="144,96 174,96 174,126 144,126"/>
<polygon id="0x20eb9e0" class="l66d20" points="142.2,94.2 175.8,94.2 175.8,127.8 142.2,127.8"/>
<polygon id="0x2185d40" class="l65d20" points="144,144 174,144 174,174 144,174"/>
<polygon id="0x20633b0" class="l66d20" points="142.2,142.2 175.8,142.2 175.8,175.8 142.2,175.8"/>
<polygon id="0x218f2b0" class="l65d20" points="144,192 174,192 174,222 144,222"/>
<polygon id="0x218f370" class="l66d20" points="142.2,190.2 175.8,190.2 175.8,223.8 142.2,223.8"/>
<polygon id="0x218f430" class="l65d20" points="144,240 174,240 174,270 144,270"/>
<polygon id="0x218f4f0" class="l66d20" points="142.2,238.2 175.8,238.2 175.8,271.8 142.2,271.8"/>
<polygon id="0x218f5b0" class="l65d20" points="144,288 174,288 174,318 144,318"/>
<polygon id="0x218f670" class="l66d20" points="142.2,286.2 175.8,286.2 175.8,319.8 142.2,319.8"/>
<polygon id="0x218f730" class="l65d20" points="144,336 174,336 174,366 144,366"/>
<polygon id="0x218f7f0" class="l66d20" points="142.2,334.2 175.8,334.2 175.8,367.8 142.2,367.8"/>
<polygon id="0x218f8b0" class="l65d20" points="144,384 174,384 174,414 144,414"/>
<polygon id="0x218f970" class="l66d20" points="142.2,382.2 175.8,382.2 175.8,415.8 142.2,415.8"/>
<polygon id="0x218fa30" class="l65d20" points="144,432 174,432 174,462 144,462"/>
<polygon id="0x2196b90" class="l66d20" points="142.2,430.2 175.8,430.2 175.8,463.8 142.2,463.8"/>
<polygon id="0x2196c50" class="l65d20" points="144,480 174,480 174,510 144,510"/>
<polygon id="0x2196d10" class="l66d20" points="142.2,478.2 175.8,478.2 175.8,511.8 142.2,511.8"/>
<polygon id="0x2196dd0" class="l65d20" points="144,528 174,528 174,558 144,558"/>
<polygon id="0x2196e90" class="l66d20" points="142.2,526.2 175.8,526.2 175.8,559.8 142.2,559.8"/>
<polygon id="0x2196f50" class="l65d20" points="192,0 222,0 222,30 192,30"/>
<polygon id="0x2197010" class="l66d20" points="190.2,-1.8 223.8,-1.8 223.8,31.8 190.2,31.8"/>
<polygon id="0x21970d0" class="l65d20" points="192,48 222,48 222,78 192,78"/>
<polygon id="0x2197190" class="l66d20" points="190.2,46.2 223.8,46.2 223.8,79.8 190.2,79.8"/>
<polygon id="0x2197250" class="l65d20" points="192,96 222,96 222,126 192,126"/>
<polygon id="0x2197310" class="l66d20" points="190.2,94.2 223.8,94.2 223.8,127.8 190.2,127.8"/>
<polygon id="0x21973d0" class="l65d20" points="192,144 222,144 222,174 192,174"/>
<polygon id="0x2197490" class="l66d20" points="190.2,142.2 223.8,142.2 223.8,175.8 190.2,175.8"/>
<polygon id="0x2197550" class="l65d20" points="192,192 222,192 222,222 192,222"/>
<polygon id="0x2197610" class="l66d20" points="190.2,190.2 223.8,190.2 223.8,223.8 190.2,223.8"/>
<polygon id="0x21976d0" class="l65d20" points="192,240 222,240 222,270 192,270"/>
<polygon id="0x2197790" class="l66d20" points="190.2,238.2 223.8,238.2 223.8,271.8 190.2,271.8"/>
<polygon id="0x2197850" class="l65d20" points="192,288 222,288 222,318 192,318"/>
<polygon id="0x2197910" class="l66d20" points="190.2,286.2 223.8,286.2 223.8,319.8 190.2,319.8"/>
<polygon id="0x21979d0" class="l65d20" points="192,336 222,336 222,366 192,366"/>
<polygon id="0x2197a90" class="l66d20" points="190.2,334.2 223.8,334.2 223.8,367.8 190.2,367.8"/>
<polygon id="0x2197b50" class="l65d20" points="192,384 222,384 222,414 192,414"/>
<polygon id="0x2197c10" class="l66d20" points="190.2,382.2 223.8,382.2 223.8,415.8 190.2,415.8"/>
<polygon id="0x2197cd0" class="l65d20" points="192,432 222,432 222,462 192,462"/>
<polygon id="0x2197d90" class="l66d20" points="190.2,430.2 223.8,430.2 223.8,463.8 190.2,463.8"/>
<polygon id="0x2197e50" class="l65d20" points="192,480 222,480 222,510 192,510"/>
<polygon id="0x2197f10" class="l66d20" points="190.2,478.2 223.8,478.2 223.8,511.8 190.2,511.8"/>
<polygon id="0x2197fd0" class="l65d20" points="192,528 222,528 222,558 192,558"/>
<polygon id="0x2198090" class="l66d20" points="190.2,526.2 223.8,526.2 223.8,559.8 190.2,559.8"/>
<polygon id="0x2198150" class="l65d20" points="240,0 270,0 270,30 240,30"/>
<polygon id="0x2198210" class="l66d20" points="238.2,-1.8 271.8,-1.8 271.8,31.8 238.2,31.8"/>
<polygon id="0x21982d0" class="l65d20" points="240,48 270,48 270,78 240,78"/>
<polygon id="0x2198390" class="l66d20" points="238.2,46.2 271.8,46.2 271.8,79.8 238.2,79.8"/>
<polygon id="0x2198450" class="l65d20" points="240,96 270,96 270,126 240,126"/>
<polygon id="0x2198510" class="l66d20" points="238.2,94.2 271.8,94.2 271.8,127.8 238.2,127.8"/>
<polygon id="0x21985d0" class="l65d20" points="240,144 270,144 270,174 240,174"/>
<polygon id="0x2198690" class="l66d20" points="238.2,142.2 271.8,142.2 271.8,175.8 238.2,175.8"/>
<polygon id="0x2198750" class="l65d20" points="240,192 270,192 270,222 240,222"/>
<polygon id="0x2198810" class="l66d20" points="238.2,190.2 271.8,190.2 271.8,223.8 238.2,223.8"/>
<polygon id="0x21988d0" class="l65d20" points="240,240 270,240 270,270 240,270"/>
<polygon id="0x2198990" class="l66d20" points="238.2,238.2 271.8,238.2 271.8,271.8 238.2,271.8"/>
<polygon id="0x2198a50" class="l65d20" points="240,288 270,288 270,318 240,318"/>
<polygon id="0x2198b10" class="l66d20" points="238.2,286.2 271.8,286.2 271.8,319.8 238.2,319.8"/>
<polygon id="0x2198bd0" class="l65d20" points="240,336 270,336 270,366 240,366"/>
<polygon id="0x2198c90" class="l66d20" points="238.2,334.2 271.8,334.2 271.8,367.8 238.2,367.8"/>
<polygon id="0x2198d50" class="l65d20" points="240,384 270,384 270,414 240,414"/>
<polygon id="0x2198e10" class="l66d20" points="238.2,382.2 271.8,382.2 271.8,415.8 238.2,415.8"/>
<polygon id="0x2198ed0" class="l65d20" points="240,432 270,432 270,462 240,462"/>
<polygon id="0x2198f90" class="l66d20" points="238.2,430.2 271.8,430.2 271.8,463.8 238.2,463.8"/>
<polygon id="0x2199050" class="l65d20" points="240,480 270,480 270,510 240,510"/>
<polygon id="0x2199110" class="l66d20" points="238.2,478.2 271.8,478.2 271.8,511.8 238.2,511.8"/>
<polygon id="0x21991d0" class="l65d20" points="240,528 270,528 270,558 240,558"/>
<polygon id="0x2199290" class="l66d20" points="238.2,526.2 271.8,526.2 271.8,559.8 238.2,559.8"/>
<polygon id="0x2199350" class="l65d20" points="288,0 318,0 318,30 288,30"/>
<polygon id="0x2199410" class="l66d20" points="286.2,-1.8 319.8,-1.8 319.8,31.8 286.2,31.8"/>
<polygon id="0x21994d0" class="l65d20" points="288,48 318,48 318,78 288,78"/>
<polygon id="0x2199590" class="l66d20" points="286.2,46.2 319.8,46.2 319.8,79.8 286.2,79.8"/>
<polygon id="0x2199650" class="l65d20" points="288,96 318,96 318,126 288,126"/>
<polygon id="0x2199710" class="l66d20" points="286.2,94.2 319.8,94.2 319.8,127.8 286.2,127.8"/>
<polygon id="0x21997d0" class="l65d20" points="288,144 318,144 318,174 288,174"/>
<polygon id="0x2199890" class="l66d20" points="286.2,142.2 319.8,142.2 319.8,175.8 286.2,175.8"/>
<polygon id="0x2199950" class="l65d20" points="288,192 318,192 318,222 288,222"/>
<polygon id="0x2199a10" class="l66d20" points="286.2,190.2 319.8,190.2 319.8,223.8 286.2,223.8"/>
<polygon id="0x2199ad0" class="l65d20" points="288,240 318,240 318,270 288,270"/>
<polygon id="0x2199b90" class="l66d20" points="286.2,238.2 319.8,238.2 319.8,271.8 286.2,271.8"/>
<polygon id="0x2199c50" class="l65d20" points="288,288 318,288 318,318 288,318"/>
<polygon id="0x2199d10" class="l66d20" points="286.2,286.2 319.8,286.2 319.8,319.8 286.2,319.8"/>
<polygon id="0x2199dd0" class="l65d20" points="288,336 318,336 318,366 288,366"/>
<polygon id="0x2199e90" class="l66d20" points="286.2,334.2 319.8,334.2 319.8,367.8 286.2,367.8"/>
<polygon id="0x2199f50" class="l65d20" points="288,384 318,384 318,414 288,414"/>
<polygon id="0x219a010" class="l66d20" points="286.2,382.2 319.8,382.2 319.8,415.8 286.2,415.8"/>
<polygon id="0x219a0d0" class="l65d20" points="288,432 318,432 318,462 288,462"/>
<polygon id="0x219a190" class="l66d20" points="286.2,430.2 319.8,430.2 319.8,463.8 286.2,463.8"/>
<polygon id="0x219a250" class="l65d20" points="288,480 318,480 318,510 288,510"/>
<polygon id="0x219a310" class="l66d20" points="286.2,478.2 319.8,478.2 319.8,511.8 286.2,511.8"/>
<polygon id="0x219a3d0" class="l65d20" points="288,528 318,528 318,558 288,558"/>
<polygon id="0x219a490" class="l66d20" points="286.2,526.2 319.8,526.2 319.8,559.8 286.2,559.8"/>
<polygon id="0x219a550" class="l65d20" points="336,0 366,0 366,30 336,30"/>
<polygon id="0x219a610" class="l66d20" points="334.2,-1.8 367.8,-1.8 367.8,31.8 334.2,31.8"/>
<polygon id="0x219a6d0" class="l65d20" points="336,48 366,48 366,78 336,78"/>
<polygon id="0x219a790" class="l66d20" points="334.2,46.2 367.8,46.2 367.8,79.8 334.2,79.8"/>
<polygon id="0x219a850" class="l65d20" points="336,96 366,96 366,126 336,126"/>
<polygon id="0x219a910" class="l66d20" points="334.2,94.2 367.8,94.2 367.8,127.8 334.2,127.8"/>
<polygon id="0x219a9d0" class="l65d20" points="336,144 366,144 366,174 336,174"/>
<polygon id="0x219aa90" class="l66d20" points="334.2,142.2 367.8,142.2 367.8,175.8 334.2,175.8"/>
<polygon id="0x219ab50" class="l65d20" points="336,192 366,192 366,222 336,222"/>
<polygon id="0x219ac10" class="l66d20" points="334.2,190.2 367.8,190.2 367.8,223.8 334.2,223.8"/>
<polygon id="0x219acd0" class="l65d20" points="336,240 366,240 366,270 336,270"/>
<polygon id="0x219ad90" class="l66d20" points="334.2,238.2 367.8,238.2 367.8,271.8 334.2,271.8"/>
<polygon id="0x219ae50" class="l65d20" points="336,288 366,288 366,318 336,318"/>
<polygon id="0x219af10" class="l66d20" points="334.2,286.2 367.8,286.2 367.8,319.8 334.2,319.8"/>
<polygon id="0x219afd0" class="l65d20" points="336,336 366,336 366,366 336,366"/>
<polygon id="0x219b090" class="l66d20" points="334.2,334.2 367.8,334.2 367.8,367.8 334.2,367.8"/>
<polygon id="0x219b150" class="l65d20" points="336,384 366,384 366,414 336,414"/>
<polygon id="0x219b210" class="l66d20" points="334.2,382.2 367.8,382.2 367.8,415.8 334.2,415.8"/>
<polygon id="0x219b2d0" class="l65d20" points="336,432 366,432 366,462 336,462"/>
<polygon id="0x219b390" class="l66d20" points="334.2,430.2 367.8,430.2 367.8,463.8 334.2,463.8"/>
<polygon id="0x219b450" class="l65d20" points="336,480 366,480 366,510 336,510"/>
<polygon id="0x219b510" class="l66d20" points="334.2,478.2 367.8,478.2 367.8,511.8 334.2,511.8"/>
<polygon id="0x219b5d0" class="l65d20" points="336,528 366,528 366,558 336,558"/>
<polygon id="0x219b690" class="l66d20" points="334.2,526.2 367.8,526.2 367.8,559.8 334.2,559.8"/>
<polygon id="0x219b750" class="l65d20" points="384,0 414,0 414,30 384,30"/>
<polygon id="0x219b810" class="l66d20" points="382.2,-1.8 415.8,-1.8 415.8,31.8 382.2,31.8"/>
<polygon id="0x219b8d0" class="l65d20" points="384,48 414,48 414,78 384,78"/>
<polygon id="0x219b990" class="l66d20" points="382.2,46.2 415.8,46.2 415.8,79.8 382.2,79.8"/>
<polygon id="0x219ba50" class="l65d20" points="384,96 414,96 414,126 384,126"/>
<polygon id="0x219bb10" class="l66d20" points="382.2,94.2 415.8,94.2 415.8,127.8 382.2,127.8"/>
<polygon id="0x219bbd0" class="l65d20" points="384,144 414,144 414,174 384,174"/>
<polygon id="0x219bc90" class="l66d20" points="382.2,142.2 415.8,142.2 415.8,175.8 382.2,175.8"/>
<polygon id="0x219bd50" class="l65d20" points="384,192 414,192 414,222 384,222"/>
<polygon id="0x219be10" class="l66d20" points="382.2,190.2 415.8,190.2 415.8,223.8 382.2,223.8"/>
<polygon id="0x219bed0" class="l65d20" points="384,240 414,240 414,270 384,270"/>
<polygon id="0x219bf90" class="l66d20" points="382.2,238.2 415.8,238.2 415.8,271.8 382.2,271.8"/>
<polygon id="0x219c050" class="l65d20" points="384,288 414,288 414,318 384,318"/>
<polygon id="0x219c110" class="l66d20" points="382.2,286.2 415.8,286.2 415.8,319.8 382.2,319.8"/>
<polygon id="0x219c1d0" class="l65d20" points="384,336 414,336 414,366 384,366"/>
<polygon id="0x219c290" class="l66d20" points="382.2,334.2 415.8,334.2 415.8,367.8 382.2,367.8"/>
<polygon id="0x219c350" class="l65d20" points="384,384 414,384 414,414 384,414"/>
<polygon id="0x219c410" class="l66d20" points="382.2,382.2 415.8,382.2 415.8,415.8 382.2,415.8"/>
<polygon id="0x219c4d0" class="l65d20" points="384,432 414,432 414,462 384,462"/>
<polygon id="0x219c590" class="l66d20" points="382.2,430.2 415.8,430.2 415.8,463.8 382.2,463.8"/>
<polygon id="0x219c650" class="l65d20" points="384,480 414,480 414,510 384,510"/>
<polygon id="0x219c710" class="l66d20" points="382.2,478.2 415.8,478.2 415.8,511.8 382.2,511.8"/>
<polygon id="0x219c7d0" class="l65d20" points="384,528 414,528 414,558 384,558"/>
<polygon id="0x219c890" class="l66d20" points="382.2,526.2 415.8,526.2 415.8,559.8 382.2,559.8"/>
<polygon id="0x219c950" class="l65d20" points="432,0 462,0 462,30 432,30"/>
<polygon id="0x219ca10" class="l66d20" points="430.2,-1.8 463.8,-1.8 463.8,31.8 430.2,31.8"/>
<polygon id="0x219cad0" class="l65d20" points="432,48 462,48 462,78 432,78"/>
<polygon id="0x219cb90" class="l66d20" points="430.2,46.2 463.8,46.2 463.8,79.8 430.2,79.8"/>
<polygon id="0x219cc50" class="l65d20" points="432,96 462,96 462,126 432,126"/>
<polygon id="0x219cd10" class="l66d20" points="430.2,94.2 463.8,94.2 463.8,127.8 430.2,127.8"/>
<polygon id="0x219cdd0" class="l65d20" points="432,144 462,144 462,174 432,174"/>
<polygon id="0x219ce90" class="l66d20" points="430.2,142.2 463.8,142.2 463.8,175.8 430.2,175.8"/>
<polygon id="0x219cf50" class="l65d20" points="432,192 462,192 462,222 432,222"/>
<polygon id="0x219d010" class="l66d20" points="430.2,190.2 463.8,190.2 463.8,223.8 430.2,223.8"/>
<polygon id="0x219d0d0" class="l65d20" points="432,240 462,240 462,270 432,270"/>
<polygon id="0x219d190" class="l66d20" points="430.2,238.2 463.8,238.2 463.8,271.8 430.2,271.8"/>
<polygon id="0x219d250" class="l65d20" points="432,288 462,288 462,318 432,318"/>
<polygon id="0x219d310" class="l66d20" points="430.2,286.2 463.8,286.2 463.8,319.8 430.2,319.8"/>
<polygon id="0x219d3d0" class="l65d20" points="432,336 462,336 462,366 432,366"/>
<polygon id="0x219d490" class="l66d20" points="430.2,334.2 463.8,334.2 463.8,367.8 430.2,367.8"/>
<polygon id="0x219d550" class="l65d20" points="432,384 462,384 462,414 432,414"/>
<polygon id="0x219d610" class="l66d20" points="430.2,382.2 463.8,382.2 463.8,415.8 430.2,415.8"/>
<polygon id="0x219d6d0" class="l65d20" points="432,432 462,432 462,462 432,462"/>
<polygon id="0x219d790" class="l66d20" points="430.2,430.2 463.8,430.2 463.8,463.8 430.2,463.8"/>
<polygon id="0x219d850" class="l65d20" points="432,480 462,480 462,510 432,510"/>
<polygon id="0x219d910" class="l66d20" points="430.2,478.2 463.8,478.2 463.8,511.8 430.2,511.8"/>
<polygon id="0x219d9d0" class="l65d20" points="432,528 462,528 462,558 432,558"/>
<polygon id="0x219da90" class="l66d20" points="430.2,526.2 463.8,526.2 463.8,559.8 430.2,559.8"/>
<polygon id="0x219db50" class="l65d20" points="480,0 510,0 510,30 480,30"/>
<polygon id="0x219dc10" class="l66d20" points="478.2,-1.8 511.8,-1.8 511.8,31.8 478.2,31.8"/>
<polygon id="0x219dcd0" class="l65d20" points="480,48 510,48 510,78 480,78"/>
<polygon id="0x219dd90" class="l66d20" points="478.2,46.2 511.8,46.2 511.8,79.8 478.2,79.8"/>
<polygon id="0x219de50" class="l65d20" points="480,96 510,96 510,126 480,126"/>
<polygon id="0x219df10" class="l66d20" points="478.2,94.2 511.8,94.2 511.8,127.8 478.2,127.8"/>
<polygon id="0x219dfd0" class="l65d20" points="480,144 510,144 510,174 480,174"/>
<polygon id="0x219e090" class="l66d20" points="478.2,142.2 511.8,142.2 511.8,175.8 478.2,175.8"/>
<polygon id="0x219e150" class="l65d20" points="480,192 510,192 510,222 480,222"/>
<polygon id="0x219e210" class="l66d20" points="478.2,190.2 511.8,190.2 511.8,223.8 478.2,223.8"/>
<polygon id="0x219e2d0" class="l65d20" points="480,240 510,240 510,270 480,270"/>
<polygon id="0x219e390" class="l66d20" points="478.2,238.2 511.8,238.2 511.8,271.8 478.2,271.8"/>
<polygon id="0x219e450" class="l65d20" points="480,288 510,288 510,318 480,318"/>
<polygon id="0x219e510" class="l66d20" points="478.2,286.2 511.8,286.2 511.8,319.8 478.2,319.8"/>
<polygon id="0x219e5d0" class="l65d20" points="480,336 510,336 510,366 480,366"/>
<polygon id="0x219e690" class="l66d20" points="478.2,334.2 511.8,334.2 511.8,367.8 478.2,367.8"/>
<polygon id="0x219e750" class="l65d20" points="480,384 510,384 510,414 480,414"/>
<polygon id="0x219e810" class="l66d20" points="478.2,382.2 511.8,382.2 511.8,415.8 478.2,415.8"/>
<polygon id="0x219e8d0" class="l65d20" points="480,432 510,432 510,462 480,462"/>
<polygon id="0x219e990" class="l66d20" points="478.2,430.2 511.8,430.2 511.8,463.8 478.2,463.8"/>
<polygon id="0x219ea50" class="l65d20" points="480,480 510,480 510,510 480,510"/>
<polygon id="0x219eb10" class="l66d20" points="478.2,478.2 511.8,478.2 511.8,511.8 478.2,511.8"/>
<polygon id="0x219ebd0" class="l65d20" points="480,528 510,528 510,558 480,558"/>
<polygon id="0x219ec90" class="l66d20" points="478.2,526.2 511.8,526.2 511.8,559.8 478.2,559.8"/>
<polygon id="0x219ed50" class="l65d20" points="528,0 558,0 558,30 528,30"/>
<polygon id="0x219ee10" class="l66d20" points="526.2,-1.8 559.8,-1.8 559.8,31.8 526.2,31.8"/>
<polygon id="0x219eed0" class="l65d20" points="528,48 558,48 558,78 528,78"/>
<polygon id="0x219ef90" class="l66d20" points="526.2,46.2 559.8,46.2 559.8,79.8 526.2,79.8"/>
<polygon id="0x219f050" class="l65d20" points="528,96 558,96 558,126 528,126"/>
<polygon id="0x219f110" class="l66d20" points="526.2,94.2 559.8,94.2 559.8,127.8 526.2,127.8"/>
<polygon id="0x219f1d0" class="l65d20" points="528,144 558,144 558,174 528,174"/>
<polygon id="0x219f290" class="l66d20" points="526.2,142.2 559.8,142.2 559.8,175.8 526.2,175.8"/>
<polygon id="0x219f350" class="l65d20" points="528,192 558,192 558,222 528,222"/>
<polygon id="0x219f410" class="l66d20" points="526.2,190.2 559.8,190.2 559.8,223.8 526.2,223.8"/>
<polygon id="0x219f4d0" class="l65d20" points="528,240 558,240 558,270 528,270"/>
<polygon id="0x219f590" class="l66d20" points="526.2,238.2 559.8,238.2 559.8,271.8 526.2,271.8"/>
<polygon id="0x219f650" class="l65d20" points="528,288 558,288 558,318 528,318"/>
<polygon id="0x219f710" class="l66d20" points="526.2,286.2 559.8,286.2 559.8,319.8 526.2,319.8"/>
<polygon id="0x219f7d0" class="l65d20" points="528,336 558,336 558,366 528,366"/>
<polygon id="0x219f890" class="l66d20" points="526.2,334.2 559.8,334.2 559.8,367.8 526.2,367.8"/>
<polygon id="0x219f950" class="l65d20" points="528,384 558,384 558,414 528,414"/>
<polygon id="0x219fa10" class="l66d20" points="526.2,382.2 559.8,382.2 559.8,415.8 526.2,415.8"/>
<polygon id="0x219fad0" class="l65d20" points="528,432 558,432 558,462 528,462"/>
<polygon id="0x219fb90" class="l66d20" points="526.2,430.2 559.8,430.2 559.8,463.8 526.2,463.8"/>
<polygon id="0x219fc50" class="l65d20" points="528,480 558,480 558,510 528,510"/>
<polygon id="0x219fd10" class="l66d20" points="526.2,478.2 559.8,478.2 559.8,511.8 526.2,511.8"/>
<polygon id="0x219fdd0" class="l65d20" points="528,528 558,528 558,558 528,558"/>
<polygon id="0x219fe90" class="l66d20" points="526.2,526.2 559.8,526.2 559.8,559.8 526.2,559.8"/>
<polygon id="0x219ff50" class="l65d20" points="576,0 606,0 606,30 576,30"/>
<polygon id="0x21a0010" class="l66d20" points="574.2,-1.8 607.8,-1.8 607.8,31.8 574.2,31.8"/>
<polygon id="0x21a00d0" class="l65d20" points="576,48 606,48 606,78 576,78"/>
<polygon id="0x21a0190" class="l66d20" points="574.2,46.2 607.8,46.2 607.8,79.8 574.2,79.8"/>
<polygon id="0x21a0250" class="l65d20" points="576,96 606,96 606,126 576,126"/>
<polygon id="0x21a0310" class="l66d20" points="574.2,94.2 607.8,94.2 607.8,127.8 574.2,127.8"/>
<polygon id="0x21a03d0" class="l65d20" points="576,144 606,144 606,174 576,174"/>
<polygon id="0x21a0490" class="l66d20" points="574.2,142.2 607.8,142.2 607.8,175.8 574.2,175.8"/>
<polygon id="0x21a0550" class="l65d20" points="576,192 606,192 606,222 576,222"/>
<polygon id="0x21a0610" class="l66d20" points="574.2,190.2 607.8,190.2 607.8,223.8 574.2,223.8"/>
<polygon id="0x21a06d0" class="l65d20" points="576,240 606,240 606,270 576,270"/>
<polygon id="0x21a0790" class="l66d20" points="574.2,238.2 607.8,238.2 607.8,271.8 574.2,271.8"/>
<polygon id="0x21a0850" class="l65d20" points="576,288 606,288 606,318 576,318"/>
<polygon id="0x21a0910" class="l66d20" points="574.2,286.2 607.8,286.2 607.8,319.8 574.2,319.8"/>
<polygon id="0x21a09d0" class="l65d20" points="576,336 606,336 606,366 576,366"/>
<polygon id="0x21a0a90" class="l66d20" points="574.2,334.2 607.8,334.2 607.8,367.8 574.2,367.8"/>
<polygon id="0x21a0b50" class="l65d20" points="576,384 606,384 606,414 576,414"/>
<polygon id="0x21a0c10" class="l66d20" points="574.2,382.2 607.8,382.2 607.8,415.8 574.2,415.8"/>
<polygon id="0x21a0cd0" class="l65d20" points="576,432 606,432 606,462 576,462"/>
<polygon id="0x21a0d90" class="l66d20" points="574.2,430.2 607.8,430.2 607.8,463.8 574.2,463.8"/>
<polygon id="0x21a0e50" class="l65d20" points="576,480 606,480 606,510 576,510"/>
<polygon id="0x21a0f10" class="l66d20" points="574.2,478.2 607.8,478.2 607.8,511.8 574.2,511.8"/>
<polygon id="0x21a0fd0" class="l65d20" points="576,528 606,528 606,558 576,558"/>
<polygon id="0x21a1090" class="l66d20" points="574.2,526.2 607.8,526.2 607.8,559.8 574.2,559.8"/>
<polygon id="0x21a1150" class="l65d20" points="624,0 654,0 654,30 624,30"/>
<polygon id="0x21a1210" class="l66d20" points="622.2,-1.8 655.8,-1.8 655.8,31.8 622.2,31.8"/>
<polygon id="0x21a12d0" class="l65d20" points="624,48 654,48 654,78 624,78"/>
<polygon id="0x21a1390" class="l66d20" points="622.2,46.2 655.8,46.2 655.8,79.8 622.2,79.8"/>
<polygon id="0x21a1450" class="l65d20" points="624,96 654,96 654,126 624,126"/>
<polygon id="0x21a1510" class="l66d20" points="622.2,94.2 655.8,94.2 655.8,127.8 622.2,127.8"/>
<polygon id="0x21a15d0" class="l65d20" points="624,144 654,144 654,174 624,174"/>
<polygon id="0x21a1690" class="l66d20" points="622.2,142.2 655.8,142.2 655.8,175.8 622.2,175.8"/>
<polygon id="0x21a1750" class="l65d20" points="624,192 654,192 654,222 624,222"/>
<polygon id="0x21a1810" class="l66d20" points="622.2,190.2 655.8,190.2 655.8,223.8 622.2,223.8"/>
<polygon id="0x21a18d0" class="l65d20" points="624,240 654,240 654,270 624,270"/>
<polygon id="0x21a1990" class="l66d20" points="622.2,238.2 655.8,238.2 655.8,271.8 622.2,271.8"/>
<polygon id="0x21a1a50" class="l65d20" points="624,288 654,288 654,318 624,318"/>
<polygon id="0x21a1b10" class="l66d20" points="622.2,286.2 655.8,286.2 655.8,319.8 622.2,319.8"/>
<polygon id="0x21a1bd0" class="l65d20" points="624,336 654,336 654,366 624,366"/>
<polygon id="0x21a1c90" class="l66d20" points="622.2,334.2 655.8,334.2 655.8,367.8 622.2,367.8"/>
<polygon id="0x21a1d50" class="l65d20" points="624,384 654,384 654,414 624,414"/>
<polygon id="0x21a1e10" class="l66d20" points="622.2,382.2 655.8,382.2 655.8,415.8 622.2,415.8"/>
<polygon id="0x21a1ed0" class="l65d20" points="624,432 654,432 654,462 624,462"/>
<polygon id="0x21a1f90" class="l66d20" points="622.2,430.2 655.8,430.2 655.8,463.8 622.2,463.8"/>
<polygon id="0x2195b80" class="l65d20" points="624,480 654,480 654,510 624,510"/>
<polygon id="0x2195c40" class="l66d20" points="622.2,478.2 655.8,478.2 655.8,511.8 622.2,511.8"/>
<polygon id="0x2195d00" class="l65d20" points="624,528 654,528 654,558 624,558"/>
<polygon id="0x2195dc0" class="l66d20" points="622.2,526.2 655.8,526.2 655.8,559.8 622.2,559.8"/>
<polygon id="0x2195e80" class="l65d20" points="672,0 702,0 702,30 672,30"/>
<polygon id="0x2195f40" class="l66d20" points="670.2,-1.8 703.8,-1.8 703.8,31.8 670.2,31.8"/>
<polygon id="0x2196000" class="l65d20" points="672,48 702,48 702,78 672,78"/>
<polygon id="0x21960c0" class="l66d20" points="670.2,46.2 703.8,46.2 703.8,79.8 670.2,79.8"/>
<polygon id="0x2196180" class="l65d20" points="672,96 702,96 702,126 672,126"/>
<polygon id="0x2196240" class="l66d20" points="670.2,94.2 703.8,94.2 703.8,127.8 670.2,127.8"/>
<polygon id="0x2196300" class="l65d20" points="672,144 702,144 702,174 672,174"/>
<polygon id="0x21963c0" class="l66d20" points="670.2,142.2 703.8,142.2 703.8,175.8 670.2,175.8"/>
<polygon id="0x2196480" class="l65d20" points="672,192 702,192 702,222 672,222"/>
<polygon id="0x2196540" class="l66d20" points="670.2,190.2 703.8,190.2 703.8,223.8 670.2,223.8"/>
<polygon id="0x2196600" class="l65d20" points="672,240 702,240 702,270 672,270"/>
<polygon id="0x21966c0" class="l66d20" points="670.2,238.2 703.8,238.2 703.8,271.8 670.2,271.8"/>
<polygon id="0x2196780" class="l65d20" points="672,288 702,288 702,318 672,318"/>
<polygon id="0x2196840" class="l66d20" points="670.2,286.2 703.8,286.2 703.8,319.8 670.2,319.8"/>
<polygon id="0x2196900" class="l65d20" points="672,336 702,336 702,366 672,366"/>
<polygon id="0x21969c0" class="l66d20" points="670.2,334.2 703.8,334.2 703.8,367.8 670.2,367.8"/>
<polygon id="0x2196a80" class="l65d20" points="672,384 702,384 702,414 672,414"/>
<polygon id="0x21a4060" class="l66d20" points="670.2,382.2 703.8,382.2 703.8,415.8 670.2,415.8"/>
<polygon id="0x21a40d0" class="l65d20" points="672,432 702,432 702,462 672,462"/>
<polygon id="0x21a4190" class="l66d20" points="670.2,430.2 703.8,430.2 703.8,463.8 670.2,463.8"/>
<polygon id="0x21a4250" class="l65d20" points="672,480 702,480 702,510 672,510"/>
<polygon id="0x21a4310" class="l66d20" points="670.2,478.2 703.8,478.2 703.8,511.8 670.2,511.8"/>
<polygon id="0x21a43d0" class="l65d20" points="672,528 702,528 702,558 672,558"/>
<polygon id="0x21a4490" class="l66d20" points="670.2,526.2 703.8,526.2 703.8,559.8 670.2,559.8"/>
<polygon id="0x21a4550" class="l65d20" points="720,0 750,0 750,30 720,30"/>
<polygon id="0x21a4610" class="l66d20" points="718.2,-1.8 751.8,-1.8 751.8,31.8 718.2,31.8"/>
<polygon id="0x21a46d0" class="l65d20" points="720,48 750,48 750,78 720,78"/>
<polygon id="0x21a4790" class="l66d20" points="718.2,46.2 751.8,46.2 751.8,79.8 718.2,79.8"/>
<polygon id="0x21a4850" class="l65d20" points="720,96 750,96 750,126 720,126"/>
<polygon id="0x21a4910" class="l66d20" points="718.2,94.2 751.8,94.2 751.8,127.8 718.2,127.8"/>
<polygon id="0x21a49d0" class="l65d20" points="720,144 750,144 750,174 720,174"/>
<polygon id="0x21a4a90" class="l66d20" points="718.2,142.2 751.8,142.2 751.8,175.8 718.2,175.8"/>
<polygon id="0x21a4b50" class="l65d20" points="720,192 750,192 750,222 720,222"/>
<polygon id="0x21a4c10" class="l66d20" points="718.2,190.2 751.8,190.2 751.8,223.8 718.2,223.8"/>
<polygon id="0x21a4cd0" class="l65d20" points="720,240 750,240 750,270 720,270"/>
<polygon id="0x21a4d90" class="l66d20" points="718.2,238.2 751.8,238.2 751.8,271.8 718.2,271.8"/>
<polygon id="0x21a4e50" class="l65d20" points="720,288 750,288 750,318 720,318"/>
<polygon id="0x21a4f10" class="l66d20" points="718.2,286.2 751.8,286.2 751.8,319.8 718.2,319.8"/>
<polygon id="0x21a4fd0" class="l65d20" points="720,336 750,336 750,366 720,366"/>
<polygon id="0x21a5090" class="l66d20" points="718.2,334.2 751.8,334.2 751.8,367.8 718.2,367.8"/>
<polygon id="0x21a5150" class="l65d20" points="720,384 750,384 750,414 720,414"/>
<polygon id="0x21a5210" class="l66d20" points="718.2,382.2 751.8,382.2 751.8,415.8 718.2,415.8"/>
<polygon id="0x21a52d0" class="l65d20" points="720,432 750,432 750,462 720,462"/>
<polygon id="0x21a5390" class="l66d20" points="718.2,430.2 751.8,430.2 751.8,463.8 718.2,463.8"/>
<polygon id="0x21a5450" class="l65d20" points="720,480 750,480 750,510 720,510"/>
<polygon id="0x21a5510" class="l66d20" points="718.2,478.2 751.8,478.2 751.8,511.8 718.2,511.8"/>
<polygon id="0x21a55d0" class="l65d20" points="720,528 750,528 750,558 720,558"/>
<polygon id="0x21a5690" class="l66d20" points="718.2,526.2 751.8,526.2 751.8,559.8 718.2,559.8"/>
<polygon id="0x21a5750" class="l65d20" points="768,0 798,0 798,30 768,30"/>
<polygon id="0x21a5810" class="l66d20" points="766.2,-1.8 799.8,-1.8 799.8,31.8 766.2,31.8"/>
<polygon id="0x21a58d0" class="l65d20" points="768,48 798,48 798,78 768,78"/>
<polygon id="0x21a5990" class="l66d20" points="766.2,46.2 799.8,46.2 799.8,79.8 766.2,79.8"/>
<polygon id="0x21a5a50" class="l65d20" points="768,96 798,96 798,126 768,126"/>
<polygon id="0x21a5b10" class="l66d20" points="766.2,94.2 799.8,94.2 799.8,127.8 766.2,127.8"/>
<polygon id="0x21a5bd0" class="l65d20" points="768,144 798,144 798,174 768,174"/>
<polygon id="0x21a5c90" class="l66d20" points="766.2,142.2 799.8,142.2 799.8,175.8 766.2,175.8"/>
<polygon id="0x21a5d50" class="l65d20" points="768,192 798,192 798,222 768,222"/>
<polygon id="0x21a5e10" class="l66d20" points="766.2,190.2 799.8,190.2 799.8,223.8 766.2,223.8"/>
<polygon id="0x21a5ed0" class="l65d20" points="768,240 798,240 798,270 768,270"/>
<polygon id="0x21a5f90" class="l66d20" points="766.2,238.2 799.8,238.2 799.8,271.8 766.2,271.8"/>
<polygon id="0x21a6050" class="l65d20" points="768,288 798,288 798,318 768,318"/>
<polygon id="0x21a6110" class="l66d20" points="766.2,286.2 799.8,286.2 799.8,319.8 766.2,319.8"/>
<polygon id="0x21a61d0" class="l65d20" points="768,336 798,336 798,366 768,366"/>
<polygon id="0x21a6290" class="l66d20" points="766.2,334.2 799.8,334.2 799.8,367.8 766.2,367.8"/>
<polygon id="0x21a6350" class="l65d20" points="768,384 798,384 798,414 768,414"/>
<polygon id="0x21a6410" class="l66d20" points="766.2,382.2 799.8,382.2 799.8,415.8 766.2,415.8"/>
<polygon id="0x21a64d0" class="l65d20" points="768,432 798,432 798,462 768,462"/>
<polygon id="0x21a6590" class="l66d20" points="766.2,430.2 799.8,430.2 799.8,463.8 766.2,463.8"/>
<polygon id="0x21a6650" class="l65d20" points="768,480 798,480 798,510 768,510"/>
<polygon id="0x21a6710" class="l66d20" points="766.2,478.2 799.8,478.2 799.8,511.8 766.2,511.8"/>
<polygon id="0x21a67d0" class="l65d20" points="768,528 798,528 798,558 768,558"/>
<polygon id="0x21a6890" class="l66d20" points="766.2,526.2 799.8,526.2 799.8,559.8 766.2,559.8"/>
<polygon id="0x21a6950" class="l65d20" points="816,0 846,0 846,30 816,30"/>
<polygon id="0x21a6a10" class="l66d20" points="814.2,-1.8 847.8,-1.8 847.8,31.8 814.2,31.8"/>
<polygon id="0x21a6ad0" class="l65d20" points="816,48 846,48 846,78 816,78"/>
<polygon id="0x21a6b90" class="l66d20" points="814.2,46.2 847.8,46.2 847.8,79.8 814.2,79.8"/>
<polygon id="0x21a6c50" class="l65d20" points="816,96 846,96 846,126 816,126"/>
<polygon id="0x21a6d10" class="l66d20" points="814.2,94.2 847.8,94.2 847.8,127.8 814.2,127.8"/>
<polygon id="0x21a6dd0" class="l65d20" points="816,144 846,144 846,174 816,174"/>
<polygon id="0x21a6e90" class="l66d20" points="814.2,142.2 847.8,142.2 847.8,175.8 814.2,175.8"/>
<polygon id="0x21a6f50" class="l65d20" points="816,192 846,192 846,222 816,222"/>
<polygon id="0x21a7010" class="l66d20" points="814.2,190.2 847.8,190.2 847.8,223.8 814.2,223.8"/>
<polygon id="0x21a70d0" class="l65d20" points="816,240 846,240 846,270 816,270"/>
<polygon id="0x21a7190" class="l66d20" points="814.2,238.2 847.8,238.2 847.8,271.8 814.2,271.8"/>
<polygon id="0x21a7250" class="l65d20" points="816,288 846,288 846,318 816,318"/>
<polygon id="0x21a7310" class="l66d20" points="814.2,286.2 847.8,286.2 847.8,319.8 814.2,319.8"/>
<polygon id="0x21a73d0" class="l65d20" points="816,336 846,336 846,366 816,366"/>
<polygon id="0x21a7490" class="l66d20" points="814.2,334.2 847.8,334.2 847.8,367.8 814.2,367.8"/>
<polygon id="0x21a7550" class="l65d20" points="816,384 846,384 846,414 816,414"/>
<polygon id="0x21a7610" class="l66d20" points="814.2,382.2 847.8,382.2 847.8,415.8 814.2,415.8"/>
<polygon id="0x21a76d0" class="l65d20" points="816,432 846,432 846,462 816,462"/>
<polygon id="0x21a7790" class="l66d20" points="814.2,430.2 847.8,430.2 847.8,463.8 814.2,463.8"/>
<polygon id="0x21a7850" class="l65d20" points="816,480 846,480 846,510 816,510"/>
<polygon id="0x21a7910" class="l66d20" points="814.2,478.2 847.8,478.2 847.8,511.8 814.2,511.8"/>
<polygon id="0x21a79d0" class="l65d20" points="816,528 846,528 846,558 816,558"/>
<polygon id="0x21a7a90" class="l66d20" points="814.2,526.2 847.8,526.2 847.8,559.8 814.2,559.8"/>
<polygon id="0x21a7b50" class="l65d20" points="864,0 894,0 894,30 864,30"/>
<polygon id="0x21a7c10" class="l66d20" points="862.2,-1.8 895.8,-1.8 895.8,31.8 862.2,31.8"/>
<polygon id="0x21a7cd0" class="l65d20" points="864,48 894,48 894,78 864,78"/>
<polygon id="0x21a7d90" class="l66d20" points="862.2,46.2 895.8,46.2 895.8,79.8 862.2,79.8"/>
<polygon id="0x21a7e50" class="l65d20" points="864,96 894,96 894,126 864,126"/>
<polygon id="0x21a7f10" class="l66d20" points="862.2,94.2 895.8,94.2 895.8,127.8 862.2,127.8"/>
<polygon id="0x21a7fd0" class="l65d20" points="864,144 894,144 894,174 864,174"/>
<polygon id="0x21a8090" class="l66d20" points="862.2,142.2 895.8,142.2 895.8,175.8 862.2,175.8"/>
<polygon id="0x21a8150" class="l65d20" points="864,192 894,192 894,222 864,222"/>
<polygon id="0x21a8210" class="l66d20" points="862.2,190.2 895.8,190.2 895.8,223.8 862.2,223.8"/>
<polygon id="0x21a82d0" class="l65d20" points="864,240 894,240 894,270 864,270"/>
<polygon id="0x21a8390" class="l66d20" points="862.2,238.2 895.8,238.2 895.8,271.8 862.2,271.8"/>
<polygon id="0x21a8450" class="l65d20" points="864,288 894,288 894,318 864,318"/>
<polygon id="0x21a8510" class="l66d20" points="862.2,286.2 895.8,286.2 895.8,319.8 862.2,319.8"/>
<polygon id="0x21a85d0" class="l65d20" points="864,336 894,336 894,366 864,366"/>
<polygon id="0x21a8690" class="l66d20" points="862.2,334.2 895.8,334.2 895.8,367.8 862.2,367.8"/>
<polygon id="0x21a8750" class="l65d20" points="864,384 894,384 894,414 864,414"/>
<polygon id="0x21a8810" class="l66d20" points="862.2,382.2 895.8,382.2 895.8,415.8 862.2,415.8"/>
<polygon id="0x21a88d0" class="l65d20" points="864,432 894,432 894,462 864,462"/>
<polygon id="0x21a8990" class="l66d20" points="862.2,430.2 895.8,430.2 895.8,463.8 862.2,463.8"/>
<polygon id="0x21a8a50" class="l65d20" points="864,480 894,480 894,510 864,510"/>
<polygon id="0x21a8b10" class="l66d20" points="862.2,478.2 895.8,478.2 895.8,511.8 862.2,511.8"/>
<polygon id="0x21a8bd0" class="l65d20" points="864,528 894,528 894,558 864,558"/>
<polygon id="0x21a8c90" class="l66d20" points="862.2,526.2 895.8,526.2 895.8,559.8 862.2,559.8"/>
<polygon id="0x21a8d50" class="l65d20" points="912,0 942,0 942,30 912,30"/>
<polygon id="0x21a8e10" class="l66d20" points="910.2,-1.8 943.8,-1.8 943.8,31.8 910.2,31.8"/>
<polygon id="0x21a8ed0" class="l65d20" points="912,48 942,48 942,78 912,78"/>
<polygon id="0x21a8f90" class="l66d20" points="910.2,46.2 943.8,46.2 943.8,79.8 910.2,79.8"/>
<polygon id="0x21a9050" class="l65d20" points="912,96 942,96 942,126 912,126"/>
<polygon id="0x21a9110" class="l66d20" points="910.2,94.2 943.8,94.2 943.8,127.8 910.2,127.8"/>
<polygon id="0x21a91d0" class="l65d20" points="912,144 942,144 942,174 912,174"/>
<polygon id="0x21a9290" class="l66d20" points="910.2,142.2 943.8,142.2 943.8,175.8 910.2,175.8"/>
<polygon id="0x21a9350" class="l65d20" points="912,192 942,192 942,222 912,222"/>
<polygon id="0x21a9410" class="l66d20" points="910.2,190.2 943.8,190.2 943.8,223.8 910.2,223.8"/>
<polygon id="0x21a94d0" class="l65d20" points="912,240 942,240 942,270 912,270"/>
<polygon id="0x21a9590" class="l66d20" points="910.2,238.2 943.8,238.2 943.8,271.8 910.2,271.8"/>
<polygon id="0x21a9650" class="l65d20" points="912,288 942,288 942,318 912,318"/>
<polygon id="0x21a9710" class="l66d20" points="910.2,286.2 943.8,286.2 943.8,319.8 910.2,319.8"/>
<polygon id="0x21a97d0" class="l65d20" points="912,336 942,336 942,366 912,366"/>
<polygon id="0x21a9890" class="l66d20" points="910.2,334.2 943.8,334.2 943.8,367.8 910.2,367.8"/>
<polygon id="0x21a9950" class="l65d20" points="912,384 942,384 942,414 912,414"/>
<polygon id="0x21a9a10" class="l66d20" points="910.2,382.2 943.8,382.2 943.8,415.8 910.2,415.8"/>
<polygon id="0x21a9ad0" class="l65d20" points="912,432 942,432 942,462 912,462"/>
<polygon id="0x21a9b90" class="l66d20" points="910.2,430.2 943.8,430.2 943.8,463.8 910.2,463.8"/>
<polygon id="0x21a9c50" class="l65d20" points="912,480 942,480 942,510 912,510"/>
<polygon id="0x21a9d10" class="l66d20" points="910.2,478.2 943.8,478.2 943.8,511.8 910.2,511.8"/>
<polygon id="0x21a9dd0" class="l65d20" points="912,528 942,528 942,558 912,558"/>
<polygon id="0x21a9e90" class="l66d20" points="910.2,526.2 943.8,526.2 943.8,559.8 910.2,559.8"/>
</g>
</svg>