<?xml version="1.0" encoding="UTF-8"?>
<svg xmlns="http://www.w3.org/2000/svg" xmlns:xlink="http://www.w3.org/1999/xlink" width="742.5" height="382.5" viewBox="-33.75 -348.75 742.5 382.5">
<defs>
<style type="text/css">
.l235d4 {stroke: #0067A5; fill: #0067A5; fill-opacity: 0.5;}
.l71d20 {stroke: #B3446C; fill: #B3446C; fill-opacity: 0.5;}
</style>
</defs>
<rect x="-33.75" y="-348.75" width="742.5" height="382.5" fill="#222222" stroke="none"/>
<g id="my_logo" transform="scale(1 -1)">
<polygon id="0x17fae30" class="l71d20" points="15.75,45 15.75,53.5 24.25,53.5 24.25,45 35,45 35,55.75 26.5,55.75 26.5,64.25 35,64.25 35,75 24.25,75 24.25,66.5 15.75,66.5 15.75,75 5,75 5,64.25 13.5,64.25 13.5,55.75 5,55.75 5,45"/>
<polygon id="0x17fba20" class="l71d20" points="15.75,125 15.75,133.5 24.25,133.5 24.25,125 35,125 35,135.75 26.5,135.75 26.5,144.25 35,144.25 35,155 24.25,155 24.25,146.5 15.75,146.5 15.75,155 5,155 5,144.25 13.5,144.25 13.5,135.75 5,135.75 5,125"/>
<polygon id="0x17fbb10" class="l71d20" points="15.75,165 15.75,173.5 24.25,173.5 24.25,165 35,165 35,175.75 26.5,175.75 26.5,184.25 35,184.25 35,195 24.25,195 24.25,186.5 15.75,186.5 15.75,195 5,195 5,184.25 13.5,184.25 13.5,175.75 5,175.75 5,165"/>
<polygon id="0x17fbb80" class="l71d20" points="15.75,245 15.75,253.5 24.25,253.5 24.25,245 35,245 35,255.75 26.5,255.75 26.5,264.25 35,264.25 35,275 24.25,275 24.25,266.5 15.75,266.5 15.75,275 5,275 5,264.25 13.5,264.25 13.5,255.75 5,255.75 5,245"/>
<polygon id="0x17fbbf0" class="l71d20" points="55.75,125 55.75,133.5 64.25,133.5 64.25,125 75,125 75,135.75 66.5,135.75 66.5,144.25 75,144.25 75,155 64.25,155 64.25,146.5 55.75,146.5 55.75,155 45,155 45,144.25 53.5,144.25 53.5,135.75 45,135.75 45,125"/>
<polygon id="0x17fbc60" class="l71d20" points="55.75,165 55.75,173.5 64.25,173.5 64.25,165 75,165 75,175.75 66.5,175.75 66.5,184.25 75,184.25 75,195 64.25,195 64.25,186.5 55.75,186.5 55.75,195 45,195 45,184.25 53.5,184.25 53.5,175.75 45,175.75 45,165"/>
<polygon id="0x17fbd20" class="l71d20" points="95.75,5 95.75,13.5 104.25,13.5 104.25,5 115,5 115,15.75 106.5,15.75 106.5,24.25 115,24.25 115,35 104.25,35 104.25,26.5 95.75,26.5 95.75,35 85,35 85,24.25 93.5,24.25 93.5,15.75 85,15.75 85,5"/>
<polygon id="0x17fbd90" class="l71d20" points="95.75,45 95.75,53.5 104.25,53.5 104.25,45 115,45 115,55.75 106.5,55.75 106.5,64.25 115,64.25 115,75 104.25,75 104.25,66.5 95.75,66.5 95.75,75 85,75 85,64.25 93.5,64.25 93.5,55.75 85,55.75 85,45"/>
<polygon id="0x17fbe00" class="l71d20" points="95.75,85 95.75,93.5 104.25,93.5 104.25,85 115,85 115,95.75 106.5,95.75 106.5,104.25 115,104.25 115,115 104.25,115 104.25,106.5 95.75,106.5 95.75,115 85,115 85,104.25 93.5,104.25 93.5,95.75 85,95.75 85,85"/>
<polygon id="0x17fc050" class="l71d20" points="95.75,205 95.75,213.5 104.25,213.5 104.25,205 115,205 115,215.75 106.5,215.75 106.5,224.25 115,224.25 115,235 104.25,235 104.25,226.5 95.75,226.5 95.75,235 85,235 85,224.25 93.5,224.25 93.5,215.75 85,215.75 85,205"/>
<polygon id="0x17fc210" class="l71d20" points="95.75,245 95.75,253.5 104.25,253.5 104.25,245 115,245 115,255.75 106.5,255.75 106.5,264.25 115,264.25 115,275 104.25,275 104.25,266.5 95.75,266.5 95.75,275 85,275 85,264.25 93.5,264.25 93.5,255.75 85,255.75 85,245"/>
<polygon id="0x17fc3d0" class="l71d20" points="95.75,285 95.75,293.5 104.25,293.5 104.25,285 115,285 115,295.75 106.5,295.75 106.5,304.25 115,304.25 115,315 104.25,315 104.25,306.5 95.75,306.5 95.75,315 85,315 85,304.25 93.5,304.25 93.5,295.75 85,295.75 85,285"/>
<polygon id="0x17fc590" class="l71d20" points="215.75,5 215.75,13.5 224.25,13.5 224.25,5 235,5 235,15.75 226.5,15.75 226.5,24.25 235,24.25 235,35 224.25,35 224.25,26.5 215.75,26.5 215.75,35 205,35 205,24.25 213.5,24.25 213.5,15.75 205,15.75 205,5"/>
<polygon id="0x17fc750" class="l71d20" points="215.75,45 215.75,53.5 224.25,53.5 224.25,45 235,45 235,55.75 226.5,55.75 226.5,64.25 235,64.25 235,75 224.25,75 224.25,66.5 215.75,66.5 215.75,75 205,75 205,64.25 213.5,64.25 213.5,55.75 205,55.75 205,45"/>
<polygon id="0x17fc910" class="l71d20" points="215.75,85 215.75,93.5 224.25,93.5 224.25,85 235,85 235,95.75 226.5,95.75 226.5,104.25 235,104.25 235,115 224.25,115 224.25,106.5 215.75,106.5 215.75,115 205,115 205,104.25 213.5,104.25 213.5,95.75 205,95.75 205,85"/>
<polygon id="0x17fcad0" class="l71d20" points="215.75,205 215.75,213.5 224.25,213.5 224.25,205 235,205 235,215.75 226.5,215.75 226.5,224.25 235,224.25 235,235 224.25,235 224.25,226.5 215.75,226.5 215.75,235 205,235 205,224.25 213.5,224.25 213.5,215.75 205,215.75 205,205"/>
<polygon id="0x17fcc90" class="l71d20" points="215.75,245 215.75,253.5 224.25,253.5 224.25,245 235,245 235,255.75 226.5,255.75 226.5,264.25 235,264.25 235,275 224.25,275 224.25,266.5 215.75,266.5 215.75,275 205,275 205,264.25 213.5,264.25 213.5,255.75 205,255.75 205,245"/>
<polygon id="0x17fce50" class="l71d20" points="215.75,285 215.75,293.5 224.25,293.5 224.25,285 235,285 235,295.75 226.5,295.75 226.5,304.25 235,304.25 235,315 224.25,315 224.25,306.5 215.75,306.5 215.75,315 205,315 205,304.25 213.5,304.25 213.5,295.75 205,295.75 205,285"/>
<polygon id="0x17fd010" class="l71d20" points="255.75,125 255.75,133.5 264.25,133.5 264.25,125 275,125 275,135.75 266.5,135.75 266.5,144.25 275,144.25 275,155 264.25,155 264.25,146.5 255.75,146.5 255.75,155 245,155 245,144.25 253.5,144.25 253.5,135.75 245,135.75 245,125"/>
<polygon id="0x17fd1d0" class="l71d20" points="255.75,165 255.75,173.5 264.25,173.5 264.25,165 275,165 275,175.75 266.5,175.75 266.5,184.25 275,184.25 275,195 264.25,195 264.25,186.5 255.75,186.5 255.75,195 245,195 245,184.25 253.5,184.25 253.5,175.75 245,175.75 245,165"/>
<polygon id="0x17fd390" class="l71d20" points="295.75,45 295.75,53.5 304.25,53.5 304.25,45 315,45 315,55.75 306.5,55.75 306.5,64.25 315,64.25 315,75 304.25,75 304.25,66.5 295.75,66.5 295.75,75 285,75 285,64.25 293.5,64.25 293.5,55.75 285,55.75 285,45"/>
<polygon id="0x17fd550" class="l71d20" points="295.75,125 295.75,133.5 304.25,133.5 304.25,125 315,125 315,135.75 306.5,135.75 306.5,144.25 315,144.25 315,155 304.25,155 304.25,146.5 295.75,146.5 295.75,155 285,155 285,144.25 293.5,144.25 293.5,135.75 285,135.75 285,125"/>
<polygon id="0x17fd710" class="l71d20" points="295.75,165 295.75,173.5 304.25,173.5 304.25,165 315,165 315,175.75 306.5,175.75 306.5,184.25 315,184.25 315,195 304.25,195 304.25,186.5 295.75,186.5 295.75,195 285,195 285,184.25 293.5,184.25 293.5,175.75 285,175.75 285,165"/>
<polygon id="0x17fd8d0" class="l71d20" points="295.75,245 295.75,253.5 304.25,253.5 304.25,245 315,245 315,255.75 306.5,255.75 306.5,264.25 315,264.25 315,275 304.25,275 304.25,266.5 295.75,266.5 295.75,275 285,275 285,264.25 293.5,264.25 293.5,255.75 285,255.75 285,245"/>
<polygon id="0x17fda90" class="l71d20" points="375.75,5 375.75,13.5 384.25,13.5 384.25,5 395,5 395,15.75 386.5,15.75 386.5,24.25 395,24.25 395,35 384.25,35 384.25,26.5 375.75,26.5 375.75,35 365,35 365,24.25 373.5,24.25 373.5,15.75 365,15.75 365,5"/>
<polygon id="0x17fdc50" class="l71d20" points="375.75,285 375.75,293.5 384.25,293.5 384.25,285 395,285 395,295.75 386.5,295.75 386.5,304.25 395,304.25 395,315 384.25,315 384.25,306.5 375.75,306.5 375.75,315 365,315 365,304.25 373.5,304.25 373.5,295.75 365,295.75 365,285"/>
<polygon id="0x17fde10" class="l71d20" points="415.75,45 415.75,53.5 424.25,53.5 424.25,45 435,45 435,55.75 426.5,55.75 426.5,64.25 435,64.25 435,75 424.25,75 424.25,66.5 415.75,66.5 415.75,75 405,75 405,64.25 413.5,64.25 413.5,55.75 405,55.75 405,45"/>
<polygon id="0x17fdfd0" class="l71d20" points="415.75,245 415.75,253.5 424.25,253.5 424.25,245 435,245 435,255.75 426.5,255.75 426.5,264.25 435,264.25 435,275 424.25,275 424.25,266.5 415.75,266.5 415.75,275 405,275 405,264.25 413.5,264.25 413.5,255.75 405,255.75 405,245"/>
<polygon id="0x17fe190" class="l71d20" points="455.75,5 455.75,13.5 464.25,13.5 464.25,5 475,5 475,15.75 466.5,15.75 466.5,24.25 475,24.25 475,35 464.25,35 464.25,26.5 455.75,26.5 455.75,35 445,35 445,24.25 453.5,24.25 453.5,15.75 445,15.75 445,5"/>
<polygon id="0x17fe350" class="l71d20" points="455.75,85 455.75,93.5 464.25,93.5 464.25,85 475,85 475,95.75 466.5,95.75 466.5,104.25 475,104.25 475,115 464.25,115 464.25,106.5 455.75,106.5 455.75,115 445,115 445,104.25 453.5,104.25 453.5,95.75 445,95.75 445,85"/>
<polygon id="0x17fe510" class="l71d20" points="455.75,125 455.75,133.5 464.25,133.5 464.25,125 475,125 475,135.75 466.5,135.75 466.5,144.25 475,144.25 475,155 464.25,155 464.25,146.5 455.75,146.5 455.75,155 445,155 445,144.25 453.5,144.25 453.5,135.75 445,135.75 445,125"/>
<polygon id="0x17fe6d0" class="l71d20" points="455.75,165 455.75,173.5 464.25,173.5 464.25,165 475,165 475,175.75 466.5,175.75 466.5,184.25 475,184.25 475,195 464.25,195 464.25,186.5 455.75,186.5 455.75,195 445,195 445,184.25 453.5,184.25 453.5,175.75 445,175.75 445,165"/>
<polygon id="0x17fe890" class="l71d20" points="455.75,205 455.75,213.5 464.25,213.5 464.25,205 475,205 475,215.75 466.5,215.75 466.5,224.25 475,224.25 475,235 464.25,235 464.25,226.5 455.75,226.5 455.75,235 445,235 445,224.25 453.5,224.25 453.5,215.75 445,215.75 445,205"/>
<polygon id="0x17fec60" class="l71d20" points="455.75,285 455.75,293.5 464.25,293.5 464.25,285 475,285 475,295.75 466.5,295.75 466.5,304.25 475,304.25 475,315 464.25,315 464.25,306.5 455.75,306.5 455.75,315 445,315 445,304.25 453.5,304.25 453.5,295.75 445,295.75 445,285"/>
<polygon id="0x17fee20" class="l71d20" points="495.75,5 495.75,13.5 504.25,13.5 504.25,5 515,5 515,15.75 506.5,15.75 506.5,24.25 515,24.25 515,35 504.25,35 504.25,26.5 495.75,26.5 495.75,35 485,35 485,24.25 493.5,24.25 493.5,15.75 485,15.75 485,5"/>
<polygon id="0x17fefe0" class="l71d20" points="495.75,85 495.75,93.5 504.25,93.5 504.25,85 515,85 515,95.75 506.5,95.75 506.5,104.25 515,104.25 515,115 504.25,115 504.25,106.5 495.75,106.5 495.75,115 485,115 485,104.25 493.5,104.25 493.5,95.75 485,95.75 485,85"/>
<polygon id="0x17ff1a0" class="l71d20" points="495.75,125 495.75,133.5 504.25,133.5 504.25,125 515,125 515,135.75 506.5,135.75 506.5,144.25 515,144.25 515,155 504.25,155 504.25,146.5 495.75,146.5 495.75,155 485,155 485,144.25 493.5,144.25 493.5,135.75 485,135.75 485,125"/>
<polygon id="0x17ff360" class="l71d20" points="495.75,165 495.75,173.5 504.25,173.5 504.25,165 515,165 515,175.75 506.5,175.75 506.5,184.25 515,184.25 515,195 504.25,195 504.25,186.5 495.75,186.5 495.75,195 485,195 485,184.25 493.5,184.25 493.5,175.75 485,175.75 485,165"/>
<polygon id="0x17ff520" class="l71d20" points="495.75,205 495.75,213.5 504.25,213.5 504.25,205 515,205 515,215.75 506.5,215.75 506.5,224.25 515,224.25 515,235 504.25,235 504.25,226.5 495.75,226.5 495.75,235 485,235 485,224.25 493.5,224.25 493.5,215.75 485,215.75 485,205"/>
<polygon id="0x17ff6e0" class="l71d20" points="495.75,285 495.75,293.5 504.25,293.5 504.25,285 515,285 515,295.75 506.5,295.75 506.5,304.25 515,304.25 515,315 504.25,315 504.25,306.5 495.75,306.5 495.75,315 485,315 485,304.25 493.5,304.25 493.5,295.75 485,295.75 485,285"/>
<polygon id="0x17ff8a0" class="l71d20" points="535.75,5 535.75,13.5 544.25,13.5 544.25,5 555,5 555,15.75 546.5,15.75 546.5,24.25 555,24.25 555,35 544.25,35 544.25,26.5 535.75,26.5 535.75,35 525,35 525,24.25 533.5,24.25 533.5,15.75 525,15.75 525,5"/>
<polygon id="0x17ffa60" class="l71d20" points="535.75,85 535.75,93.5 544.25,93.5 544.25,85 555,85 555,95.75 546.5,95.75 546.5,104.25 555,104.25 555,115 544.25,115 544.25,106.5 535.75,106.5 535.75,115 525,115 525,104.25 533.5,104.25 533.5,95.75 525,95.75 525,85"/>
<polygon id="0x17ffc20" class="l71d20" points="535.75,125 535.75,133.5 544.25,133.5 544.25,125 555,125 555,135.75 546.5,135.75 546.5,144.25 555,144.25 555,155 544.25,155 544.25,146.5 535.75,146.5 535.75,155 525,155 525,144.25 533.5,144.25 533.5,135.75 525,135.75 525,125"/>
<polygon id="0x17ffde0" class="l71d20" points="535.75,165 535.75,173.5 544.25,173.5 544.25,165 555,165 555,175.75 546.5,175.75 546.5,184.25 555,184.25 555,195 544.25,195 544.25,186.5 535.75,186.5 535.75,195 525,195 525,184.25 533.5,184.25 533.5,175.75 525,175.75 525,165"/>
<polygon id="0x17fffa0" class="l71d20" points="535.75,205 535.75,213.5 544.25,213.5 544.25,205 555,205 555,215.75 546.5,215.75 546.5,224.25 555,224.25 555,235 544.25,235 544.25,226.5 535.75,226.5 535.75,235 525,235 525,224.25 533.5,224.25 533.5,215.75 525,215.75 525,205"/>
<polygon id="0x1800160" class="l71d20" points="535.75,285 535.75,293.5 544.25,293.5 544.25,285 555,285 555,295.75 546.5,295.75 546.5,304.25 555,304.25 555,315 544.25,315 544.25,306.5 535.75,306.5 535.75,315 525,315 525,304.25 533.5,304.25 533.5,295.75 525,295.75 525,285"/>
<polygon id="0x1800320" class="l71d20" points="575.75,5 575.75,13.5 584.25,13.5 584.25,5 595,5 595,15.75 586.5,15.75 586.5,24.25 595,24.25 595,35 584.25,35 584.25,26.5 575.75,26.5 575.75,35 565,35 565,24.25 573.5,24.25 573.5,15.75 565,15.75 565,5"/>
<polygon id="0x18004e0" class="l71d20" points="575.75,85 575.75,93.5 584.25,93.5 584.25,85 595,85 595,95.75 586.5,95.75 586.5,104.25 595,104.25 595,115 584.25,115 584.25,106.5 575.75,106.5 575.75,115 565,115 565,104.25 573.5,104.25 573.5,95.75 565,95.75 565,85"/>
<polygon id="0x18006a0" class="l71d20" points="575.75,125 575.75,133.5 584.25,133.5 584.25,125 595,125 595,135.75 586.5,135.75 586.5,144.25 595,144.25 595,155 584.25,155 584.25,146.5 575.75,146.5 575.75,155 565,155 565,144.25 573.5,144.25 573.5,135.75 565,135.75 565,125"/>
<polygon id="0x1800860" class="l71d20" points="575.75,165 575.75,173.5 584.25,173.5 584.25,165 595,165 595,175.75 586.5,175.75 586.5,184.25 595,184.25 595,195 584.25,195 584.25,186.5 575.75,186.5 575.75,195 565,195 565,184.25 573.5,184.25 573.5,175.75 565,175.75 565,165"/>
<polygon id="0x1800a20" class="l71d20" points="575.75,205 575.75,213.5 584.25,213.5 584.25,205 595,205 595,215.75 586.5,215.75 586.5,224.25 595,224.25 595,235 584.25,235 584.25,226.5 575.75,226.5 575.75,235 565,235 565,224.25 573.5,224.25 573.5,215.75 565,215.75 565,205"/>
<polygon id="0x1800be0" class="l71d20" points="575.75,285 575.75,293.5 584.25,293.5 584.25,285 595,285 595,295.75 586.5,295.75 586.5,304.25 595,304.25 595,315 584.25,315 584.25,306.5 575.75,306.5 575.75,315 565,315 565,304.25 573.5,304.25 573.5,295.75 565,295.75 565,285"/>
<polygon id="0x1800da0" class="l71d20" points="615.75,45 615.75,53.5 624.25,53.5 624.25,45 635,45 635,55.75 626.5,55.75 626.5,64.25 635,64.25 635,75 624.25,75 624.25,66.5 615.75,66.5 615.75,75 605,75 605,64.25 613.5,64.25 613.5,55.75 605,55.75 605,45"/>
<polygon id="0x1800f60" class="l71d20" points="615.75,245 615.75,253.5 624.25,253.5 624.25,245 635,245 635,255.75 626.5,255.75 626.5,264.25 635,264.25 635,275 624.25,275 624.25,266.5 615.75,266.5 615.75,275 605,275 605,264.25 613.5,264.25 613.5,255.75 605,255.75 605,245"/>
<polygon id="0x1801120" class="l71d20" points="655.75,5 655.75,13.5 664.25,13.5 664.25,5 675,5 675,15.75 666.5,15.75 666.5,24.25 675,24.25 675,35 664.25,35 664.25,26.5 655.75,26.5 655.75,35 645,35 645,24.25 653.5,24.25 653.5,15.75 645,15.75 645,5"/>
<polygon id="0x18012e0" class="l71d20" points="655.75,285 655.75,293.5 664.25,293.5 664.25,285 675,285 675,295.75 666.5,295.75 666.5,304.25 675,304.25 675,315 664.25,315 664.25,306.5 655.75,306.5 655.75,315 645,315 645,304.25 653.5,304.25 653.5,295.75 645,295.75 645,285"/>
<polygon id="0x15fba40" class="l235d4" points="0,0 40,0 40,40 0,40"/>
</g>
</svg>