<?xml version="1.0" encoding="UTF-8"?>
<svg xmlns="http://www.w3.org/2000/svg" xmlns:xlink="http://www.w3.org/1999/xlink" width="1150.6" height="910.6" viewBox="-55.3 -855.3 1150.6 910.6">
<defs>
<style type="text/css">
.l235d4 {stroke: #0067A5; fill: #0067A5; fill-opacity: 0.5;}
.l71d20 {stroke: #B3446C; fill: #B3446C; fill-opacity: 0.5;}
</style>
</defs>
<rect x="-55.3" y="-855.3" width="1150.6" height="910.6" fill="#222222" stroke="none"/>
<g id="my_logo" transform="scale(1 -1)">
<polygon id="0x1479a30" class="l71d20" points="77,20 323,20 323,60 77,60"/>
<polygon id="0x14964c0" class="l71d20" points="637,20 723,20 723,60 637,60"/>
<polygon id="0x12ef2a0" class="l71d20" points="157,100 243,100 243,140 157,140"/>
<polygon id="0x1527650" class="l71d20" points="317,100 403,100 403,140 317,140"/>
<polygon id="0x13b3dd0" class="l71d20" points="717,100 803,100 803,140 717,140"/>
<polygon id="0x144f5f0" class="l71d20" points="-3,180 83,180 83,220 -3,220"/>
<polygon id="0x1439450" class="l71d20" points="157,180 323,180 323,220 157,220"/>
<polygon id="0x16265e0" class="l71d20" points="397,180 563,180 563,220 397,220"/>
<polygon id="0x13ea380" class="l71d20" points="877,180 1043,180 1043,220 877,220"/>
<polygon id="0x16175b0" class="l71d20" points="317,260 403,260 403,300 317,300"/>
<polygon id="0x162a010" class="l71d20" points="477,260 563,260 563,300 477,300"/>
<polygon id="0x15d3220" class="l71d20" points="637,260 723,260 723,300 637,300"/>
<polygon id="0x161ffe0" class="l71d20" points="797,260 883,260 883,300 797,300"/>
<polygon id="0x14c13b0" class="l71d20" points="77,340 563,340 563,380 77,380"/>
<polygon id="0x1591200" class="l71d20" points="637,340 803,340 803,380 637,380"/>
<polygon id="0x16129b0" class="l71d20" points="77,420 243,420 243,460 77,460"/>
<polygon id="0x1526200" class="l71d20" points="397,420 563,420 563,460 397,460"/>
<polygon id="0x15e0840" class="l71d20" points="637,420 723,420 723,460 637,460"/>
<polygon id="0x15a3a30" class="l71d20" points="957,420 1043,420 1043,460 957,460"/>
<polygon id="0x15f55c0" class="l71d20" points="-3,500 163,500 163,540 -3,540"/>
<polygon id="0x13829e0" class="l71d20" points="317,500 483,500 483,540 317,540"/>
<polygon id="0x14129e0" class="l71d20" points="797,500 1043,500 1043,540 797,540"/>
<polygon id="0x141b830" class="l71d20" points="-3,580 83,580 83,620 -3,620"/>
<polygon id="0x14ab300" class="l71d20" points="157,580 243,580 243,620 157,620"/>
<polygon id="0x13b2a30" class="l71d20" points="477,580 563,580 563,620 477,620"/>
<polygon id="0x15b5170" class="l71d20" points="637,580 803,580 803,620 637,620"/>
<polygon id="0x15e8110" class="l71d20" points="957,580 1043,580 1043,620 957,620"/>
<polygon id="0x1534850" class="l71d20" points="-3,660 83,660 83,700 -3,700"/>
<polygon id="0x1548850" class="l71d20" points="317,660 723,660 723,700 317,700"/>
<polygon id="0x1571eb0" class="l71d20" points="797,660 883,660 883,700 797,700"/>
<polygon id="0x15be2a0" class="l71d20" points="957,660 1043,660 1043,700 957,700"/>
<polygon id="0x15e4630" class="l71d20" points="-3,740 83,740 83,780 -3,780"/>
<polygon id="0x15e5dd0" class="l71d20" points="157,740 243,740 243,780 157,780"/>
<polygon id="0x15fafa0" class="l71d20" points="397,740 483,740 483,780 397,780"/>
<polygon id="0x15e6e20" class="l71d20" points="717,740 803,740 803,780 717,780"/>
<polygon id="0x16237f0" class="l71d20" points="20,-3 60,-3 60,163 20,163"/>
<polygon id="0x162b160" class="l71d20" points="20,237 60,237 60,483 20,483"/>
<polygon id="0x13fb1a0" class="l71d20" points="100,77 140,77 140,323 100,323"/>
<polygon id="0x1464c50" class="l71d20" points="100,557 140,557 140,803 100,803"/>
<polygon id="0x152bce0" class="l71d20" points="180,237 220,237 220,323 180,323"/>
<polygon id="0x1532880" class="l71d20" points="180,477 220,477 220,563 180,563"/>
<polygon id="0x15c1c40" class="l71d20" points="180,637 220,637 220,723 180,723"/>
<polygon id="0x15b7db0" class="l71d20" points="260,77 300,77 300,163 260,163"/>
<polygon id="0x15af740" class="l71d20" points="260,237 300,237 300,323 260,323"/>
<polygon id="0x1470410" class="l71d20" points="260,397 300,397 300,803 260,803"/>
<polygon id="0x1497870" class="l71d20" points="340,-3 380,-3 380,83 340,83"/>
<polygon id="0x1574b00" class="l71d20" points="340,157 380,157 380,243 340,243"/>
<polygon id="0x1496a70" class="l71d20" points="340,397 380,397 380,483 340,483"/>
<polygon id="0x14ba5d0" class="l71d20" points="340,557 380,557 380,643 340,643"/>
<polygon id="0x14ba640" class="l71d20" points="340,717 380,717 380,803 340,803"/>
<polygon id="0x1523470" class="l71d20" points="420,-3 460,-3 460,163 420,163"/>
<polygon id="0x15824d0" class="l71d20" points="420,237 460,237 460,323 420,323"/>
<polygon id="0x158eea0" class="l71d20" points="420,557 460,557 460,643 420,643"/>
<polygon id="0x158ef10" class="l71d20" points="500,-3 540,-3 540,163 500,163"/>
<polygon id="0x15a9940" class="l71d20" points="500,477 540,477 540,563 500,563"/>
<polygon id="0x15f4be0" class="l71d20" points="500,717 540,717 540,803 500,803"/>
<polygon id="0x160fe30" class="l71d20" points="580,-3 620,-3 620,643 580,643"/>
<polygon id="0x160fea0" class="l71d20" points="580,717 620,717 620,803 580,803"/>
<polygon id="0x162a8c0" class="l71d20" points="660,77 700,77 700,243 660,243"/>
<polygon id="0x1651720" class="l71d20" points="660,477 700,477 700,563 660,563"/>
<polygon id="0x13f6770" class="l71d20" points="660,717 700,717 700,803 660,803"/>
<polygon id="0x13f67e0" class="l71d20" points="740,-3 780,-3 780,83 740,83"/>
<polygon id="0x14101c0" class="l71d20" points="740,157 780,157 780,323 740,323"/>
<polygon id="0x1414b90" class="l71d20" points="740,397 780,397 780,563 740,563"/>
<polygon id="0x144d3a0" class="l71d20" points="740,637 780,637 780,723 740,723"/>
<polygon id="0x1452f00" class="l71d20" points="820,-3 860,-3 860,243 820,243"/>
<polygon id="0x15646c0" class="l71d20" points="820,317 860,317 860,483 820,483"/>
<polygon id="0x15d8180" class="l71d20" points="820,557 860,557 860,643 820,643"/>
<polygon id="0x1597690" class="l71d20" points="820,717 860,717 860,803 820,803"/>
<polygon id="0x15f1aa0" class="l71d20" points="900,-3 940,-3 940,163 900,163"/>
<polygon id="0x16045a0" class="l71d20" points="900,237 940,237 940,483 900,483"/>
<polygon id="0x161a0e0" class="l71d20" points="900,557 940,557 940,803 900,803"/>
<polygon id="0x13fe110" class="l71d20" points="980,-3 1020,-3 1020,163 980,163"/>
<polygon id="0x13fe1d0" class="l71d20" points="980,237 1020,237 1020,403 980,403"/>
<polygon id="0x141fa10" class="l71d20" points="980,717 1020,717 1020,803 980,803"/>
<polygon id="0x141fad0" class="l235d4" points="0,0 80,0 80,80 0,80"/>
</g>
</svg>