<?xml version="1.0" encoding="UTF-8"?>
<svg xmlns="http://www.w3.org/2000/svg" xmlns:xlink="http://www.w3.org/1999/xlink" width="338.4004" height="268.169772" viewBox="-15.381836 -252.787936 338.4004 268.169772">
<defs>
<style type="text/css">
.l235d4 {stroke: #0067A5; fill: #0067A5; fill-opacity: 0.5;}
.l71d20 {stroke: #B3446C; fill: #B3446C; fill-opacity: 0.5;}
</style>
</defs>
<rect x="-15.381836" y="-252.787936" width="338.4004" height="268.169772" fill="#222222" stroke="none"/>
<g id="my_logo" transform="scale(1 -1)">
<polygon id="0xed8550" class="l71d20" points="65.265951,88.593087 67.041083,90.476498 67.636727,92.995136 66.893291,95.474175 53.37192,117.373165 52.626299,120 53.37192,122.626835 66.893291,144.525825 67.636727,147.004864 67.041083,149.523502 65.265951,151.406913 56.754946,156.662534 54.275591,157.406099 51.756657,156.810232 49.873226,155.034627 44.254681,145.932582 42.436008,144.192481 40,143.558929 37.563992,144.192481 35.745319,145.932582 30.126774,155.034627 28.243343,156.810232 25.724409,157.406099 23.245054,156.662534 14.734049,151.406913 12.958917,149.523502 12.363273,147.004864 13.106709,144.525825 26.62808,122.626835 27.373701,120 26.62808,117.373165 13.106709,95.474175 12.363273,92.995136 12.958917,90.476498 14.734049,88.593087 23.245054,83.337466 25.724409,82.593901 28.243343,83.189768 30.126774,84.965373 35.745319,94.067418 37.563992,95.807519 40,96.441071 42.436008,95.807519 44.254681,94.067418 49.873226,84.965373 51.756657,83.189768 54.275591,82.593901 56.754946,83.337466"/>
<polygon id="0xe4a6a0" class="l71d20" points="65.265951,168.593087 67.041083,170.476498 67.636727,172.995136 66.893291,175.474175 53.37192,197.373165 52.626299,200 53.37192,202.626835 66.893291,224.525825 67.636727,227.004864 67.041083,229.523502 65.265951,231.406913 56.754946,236.662534 54.275591,237.406099 51.756657,236.810232 49.873226,235.034627 44.254681,225.932582 42.436008,224.192481 40,223.558929 37.563992,224.192481 35.745319,225.932582 30.126774,235.034627 28.243343,236.810232 25.724409,237.406099 23.245054,236.662534 14.734049,231.406913 12.958917,229.523502 12.363273,227.004864 13.106709,224.525825 26.62808,202.626835 27.373701,200 26.62808,197.373165 13.106709,175.474175 12.363273,172.995136 12.958917,170.476498 14.734049,168.593087 23.245054,163.337466 25.724409,162.593901 28.243343,163.189768 30.126774,164.965373 35.745319,174.067418 37.563992,175.807519 40,176.441071 42.436008,175.807519 44.254681,174.067418 49.873226,164.965373 51.756657,163.189768 54.275591,162.593901 56.754946,163.337466"/>
<polygon id="0xe346e0" class="l71d20" points="305.265951,88.593087 307.041083,90.476498 307.636727,92.995136 306.893291,95.474175 293.37192,117.373165 292.626299,120 293.37192,122.626835 306.893291,144.525825 307.636727,147.004864 307.041083,149.523502 305.265951,151.406913 296.754946,156.662534 294.275591,157.406099 291.756657,156.810232 289.873226,155.034627 284.254681,145.932582 282.436008,144.192481 280,143.558929 277.563992,144.192481 275.745319,145.932582 270.126774,155.034627 268.243343,156.810232 265.724409,157.406099 263.245054,156.662534 254.734049,151.406913 252.958917,149.523502 252.363273,147.004864 253.106709,144.525825 266.62808,122.626835 267.373701,120 266.62808,117.373165 253.106709,95.474175 252.363273,92.995136 252.958917,90.476498 254.734049,88.593087 263.245054,83.337466 265.724409,82.593901 268.243343,83.189768 270.126774,84.965373 275.745319,94.067418 277.563992,95.807519 280,96.441071 282.436008,95.807519 284.254681,94.067418 289.873226,84.965373 291.756657,83.189768 294.275591,82.593901 296.754946,83.337466"/>
<polygon id="0xdfae30" class="l71d20" points="305.265951,168.593087 307.041083,170.476498 307.636727,172.995136 306.893291,175.474175 293.37192,197.373165 292.626299,200 293.37192,202.626835 306.893291,224.525825 307.636727,227.004864 307.041083,229.523502 305.265951,231.406913 296.754946,236.662534 294.275591,237.406099 291.756657,236.810232 289.873226,235.034627 284.254681,225.932582 282.436008,224.192481 280,223.558929 277.563992,224.192481 275.745319,225.932582 270.126774,235.034627 268.243343,236.810232 265.724409,237.406099 263.245054,236.662534 254.734049,231.406913 252.958917,229.523502 252.363273,227.004864 253.106709,224.525825 266.62808,202.626835 267.373701,200 266.62808,197.373165 253.106709,175.474175 252.363273,172.995136 252.958917,170.476498 254.734049,168.593087 263.245054,163.337466 265.724409,162.593901 268.243343,163.189768 270.126774,164.965373 275.745319,174.067418 277.563992,175.807519 280,176.441071 282.436008,175.807519 284.254681,174.067418 289.873226,164.965373 291.756657,163.189768 294.275591,162.593901 296.754946,163.337466"/>
<polygon id="0xe5b560" class="l235d4" points="0,0 80,0 80,80 0,80"/>
</g>
</svg>