<?xml version="1.0" encoding="UTF-8"?>
<svg xmlns="http://www.w3.org/2000/svg" xmlns:xlink="http://www.w3.org/1999/xlink" width="1326.6" height="526.6" viewBox="-63.3 -463.3 1326.6 526.6">
<defs>
<style type="text/css">
.l235d4 {stroke: #0067A5; fill: #0067A5; fill-opacity: 0.5;}
.l71d20 {stroke: #B3446C; fill: #B3446C; fill-opacity: 0.5;}
</style>
</defs>
<rect x="-63.3" y="-463.3" width="1326.6" height="526.6" fill="#222222" stroke="none"/>
<g id="my_logo" transform="scale(1 -1)">
<polygon id="0x12711e0" class="l71d20" points="-3,20 83,20 83,60 -3,60"/>
<polygon id="0x1280b30" class="l71d20" points="237,20 643,20 643,60 237,60"/>
<polygon id="0x128dc70" class="l71d20" points="797,20 1203,20 1203,60 797,60"/>
<polygon id="0x1365140" class="l71d20" points="-3,100 83,100 83,140 -3,140"/>
<polygon id="0x131eb70" class="l71d20" points="477,100 563,100 563,140 477,140"/>
<polygon id="0x11abb00" class="l71d20" points="717,100 803,100 803,140 717,140"/>
<polygon id="0x1204200" class="l71d20" points="1037,100 1123,100 1123,140 1037,140"/>
<polygon id="0x13eefa0" class="l71d20" points="77,180 323,180 323,220 77,220"/>
<polygon id="0x141dd40" class="l71d20" points="477,180 563,180 563,220 477,220"/>
<polygon id="0x13838d0" class="l71d20" points="637,180 723,180 723,220 637,220"/>
<polygon id="0x140ed10" class="l71d20" points="797,180 1203,180 1203,220 797,220"/>
<polygon id="0x14481f0" class="l71d20" points="-3,260 83,260 83,300 -3,300"/>
<polygon id="0x1417740" class="l71d20" points="317,260 563,260 563,300 317,300"/>
<polygon id="0x1313e00" class="l71d20" points="717,260 803,260 803,300 717,300"/>
<polygon id="0x117b0e0" class="l71d20" points="1037,260 1203,260 1203,300 1037,300"/>
<polygon id="0x13880d0" class="l71d20" points="77,340 163,340 163,380 77,380"/>
<polygon id="0x139c150" class="l71d20" points="237,340 483,340 483,380 237,380"/>
<polygon id="0x13b4200" class="l71d20" points="637,340 803,340 803,380 637,380"/>
<polygon id="0x13ecd70" class="l71d20" points="877,340 1043,340 1043,380 877,380"/>
<polygon id="0x1179fa0" class="l71d20" points="1117,340 1203,340 1203,380 1117,380"/>
<polygon id="0x1222370" class="l71d20" points="20,157 60,157 60,243 20,243"/>
<polygon id="0x12a2b00" class="l71d20" points="20,317 60,317 60,403 20,403"/>
<polygon id="0x13ad900" class="l71d20" points="100,-3 140,-3 140,163 100,163"/>
<polygon id="0x13df8c0" class="l71d20" points="100,237 140,237 140,323 100,323"/>
<polygon id="0x11fa430" class="l71d20" points="180,-3 220,-3 220,163 180,163"/>
<polygon id="0x125fcf0" class="l71d20" points="180,237 220,237 220,403 180,403"/>
<polygon id="0x12837d0" class="l71d20" points="260,77 300,77 300,163 260,163"/>
<polygon id="0x12acb20" class="l71d20" points="260,237 300,237 300,323 260,323"/>
<polygon id="0x13dbde0" class="l71d20" points="340,77 380,77 380,243 340,243"/>
<polygon id="0x13dd580" class="l71d20" points="420,77 460,77 460,243 420,243"/>
<polygon id="0x13f2750" class="l71d20" points="500,317 540,317 540,403 500,403"/>
<polygon id="0x13de5d0" class="l71d20" points="580,77 620,77 620,403 580,403"/>
<polygon id="0x141afa0" class="l71d20" points="660,-3 700,-3 700,163 660,163"/>
<polygon id="0x1422910" class="l71d20" points="660,237 700,237 700,323 660,323"/>
<polygon id="0x11c7970" class="l71d20" points="740,-3 780,-3 780,83 740,83"/>
<polygon id="0x11f2f20" class="l71d20" points="740,157 780,157 780,243 740,243"/>
<polygon id="0x1268a20" class="l71d20" points="820,77 860,77 860,163 820,163"/>
<polygon id="0x125cbb0" class="l71d20" points="820,237 860,237 860,403 820,403"/>
<polygon id="0x13234a0" class="l71d20" points="900,77 940,77 940,163 900,163"/>
<polygon id="0x1329f80" class="l71d20" points="900,237 940,237 940,323 900,323"/>
<polygon id="0x13e50d0" class="l71d20" points="980,77 1020,77 1020,163 980,163"/>
<polygon id="0x13a6ca0" class="l71d20" points="980,237 1020,237 1020,323 980,323"/>
<polygon id="0x128f070" class="l71d20" points="1060,317 1100,317 1100,403 1060,403"/>
<polygon id="0x136be30" class="l71d20" points="1140,77 1180,77 1180,163 1140,163"/>
<polygon id="0x13d0c60" class="l235d4" points="0,0 80,0 80,80 0,80"/>
</g>
</svg>