<?xml version="1.0" encoding="UTF-8"?>
<svg xmlns="http://www.w3.org/2000/svg" xmlns:xlink="http://www.w3.org/1999/xlink" width="1326.6" height="686.6" viewBox="-63.3 -623.3 1326.6 686.6">
<defs>
<style type="text/css">
.l235d4 {stroke: #0067A5; fill: #0067A5; fill-opacity: 0.5;}
.l72d10 {stroke: #BE0032; fill: #BE0032; fill-opacity: 0.5;}
</style>
</defs>
<rect x="-63.3" y="-623.3" width="1326.6" height="686.6" fill="#222222" stroke="none"/>
<g id="my_logo" transform="scale(1 -1)">
<polygon id="0x13b8850" class="l72d10" points="77,20 243,20 243,60 77,60"/>
<polygon id="0x13fb710" class="l72d10" points="317,20 403,20 403,60 317,60"/>
<polygon id="0x131a4f0" class="l72d10" points="477,20 563,20 563,60 477,60"/>
<polygon id="0x13ee3e0" class="l72d10" points="717,20 883,20 883,60 717,60"/>
<polygon id="0x1506110" class="l72d10" points="1117,20 1203,20 1203,60 1117,60"/>
<polygon id="0x15570a0" class="l72d10" points="-3,100 163,100 163,140 -3,140"/>
<polygon id="0x14cb6f0" class="l72d10" points="237,100 323,100 323,140 237,140"/>
<polygon id="0x14cd700" class="l72d10" points="397,100 483,100 483,140 397,140"/>
<polygon id="0x14bcde0" class="l72d10" points="637,100 723,100 723,140 637,140"/>
<polygon id="0x1549610" class="l72d10" points="957,100 1043,100 1043,140 957,140"/>
<polygon id="0x15480c0" class="l72d10" points="1117,100 1203,100 1203,140 1117,140"/>
<polygon id="0x1581c80" class="l72d10" points="-3,180 83,180 83,220 -3,220"/>
<polygon id="0x1540970" class="l72d10" points="637,180 803,180 803,220 637,220"/>
<polygon id="0x152b640" class="l72d10" points="957,180 1203,180 1203,220 957,220"/>
<polygon id="0x151c530" class="l72d10" points="157,260 243,260 243,300 157,300"/>
<polygon id="0x15469e0" class="l72d10" points="317,260 403,260 403,300 317,300"/>
<polygon id="0x1562b50" class="l72d10" points="477,260 563,260 563,300 477,300"/>
<polygon id="0x14cf610" class="l72d10" points="957,260 1043,260 1043,300 957,300"/>
<polygon id="0x14d4cc0" class="l72d10" points="1117,260 1203,260 1203,300 1117,300"/>
<polygon id="0x1516a80" class="l72d10" points="157,340 483,340 483,380 157,380"/>
<polygon id="0x15271f0" class="l72d10" points="557,340 643,340 643,380 557,380"/>
<polygon id="0x151a8c0" class="l72d10" points="717,340 1043,340 1043,380 717,380"/>
<polygon id="0x12b2690" class="l72d10" points="-3,420 323,420 323,460 -3,460"/>
<polygon id="0x135a510" class="l72d10" points="557,420 643,420 643,460 557,460"/>
<polygon id="0x13da940" class="l72d10" points="717,420 803,420 803,460 717,460"/>
<polygon id="0x13e6970" class="l72d10" points="877,420 1203,420 1203,460 877,460"/>
<polygon id="0x12e2b80" class="l72d10" points="77,500 243,500 243,540 77,540"/>
<polygon id="0x1486930" class="l72d10" points="397,500 803,500 803,540 397,540"/>
<polygon id="0x14b3b80" class="l72d10" points="877,500 963,500 963,540 877,540"/>
<polygon id="0x14e6420" class="l72d10" points="1117,500 1203,500 1203,540 1117,540"/>
<polygon id="0x1332800" class="l72d10" points="20,-3 60,-3 60,83 20,83"/>
<polygon id="0x1378b20" class="l72d10" points="20,237 60,237 60,403 20,403"/>
<polygon id="0x1397ab0" class="l72d10" points="20,477 60,477 60,563 20,563"/>
<polygon id="0x1579510" class="l72d10" points="100,157 140,157 140,403 100,403"/>
<polygon id="0x15795d0" class="l72d10" points="180,77 220,77 220,243 180,243"/>
<polygon id="0x1579690" class="l72d10" points="260,-3 300,-3 300,83 260,83"/>
<polygon id="0x1579750" class="l72d10" points="260,157 300,157 300,323 260,323"/>
<polygon id="0x1579810" class="l72d10" points="260,477 300,477 300,563 260,563"/>
<polygon id="0x15798d0" class="l72d10" points="340,77 380,77 380,243 340,243"/>
<polygon id="0x1579990" class="l72d10" points="340,397 380,397 380,563 340,563"/>
<polygon id="0x1579a50" class="l72d10" points="420,-3 460,-3 460,83 420,83"/>
<polygon id="0x1579b10" class="l72d10" points="420,157 460,157 460,323 420,323"/>
<polygon id="0x1579bd0" class="l72d10" points="420,397 460,397 460,483 420,483"/>
<polygon id="0x1579c90" class="l72d10" points="500,77 540,77 540,243 500,243"/>
<polygon id="0x1579d50" class="l72d10" points="500,317 540,317 540,483 500,483"/>
<polygon id="0x1579e10" class="l72d10" points="580,-3 620,-3 620,323 580,323"/>
<polygon id="0x1579ed0" class="l72d10" points="660,-3 700,-3 700,83 660,83"/>
<polygon id="0x1579f90" class="l72d10" points="660,237 700,237 700,483 660,483"/>
<polygon id="0x157a050" class="l72d10" points="740,77 780,77 780,163 740,163"/>
<polygon id="0x157a110" class="l72d10" points="740,237 780,237 780,323 740,323"/>
<polygon id="0x157a1d0" class="l72d10" points="820,77 860,77 860,323 820,323"/>
<polygon id="0x157a290" class="l72d10" points="820,397 860,397 860,563 820,563"/>
<polygon id="0x157a350" class="l72d10" points="900,-3 940,-3 940,323 900,323"/>
<polygon id="0x157a410" class="l72d10" points="980,-3 1020,-3 1020,83 980,83"/>
<polygon id="0x157a4d0" class="l72d10" points="980,477 1020,477 1020,563 980,563"/>
<polygon id="0x157a590" class="l72d10" points="1060,-3 1100,-3 1100,163 1060,163"/>
<polygon id="0x157a650" class="l72d10" points="1060,237 1100,237 1100,403 1060,403"/>
<polygon id="0x157a710" class="l72d10" points="1060,477 1100,477 1100,563 1060,563"/>
<polygon id="0x157a7d0" class="l72d10" points="1140,317 1180,317 1180,403 1140,403"/>
<polygon id="0x157a890" class="l235d4" points="0,0 1200,0 1200,560 0,560"/>
</g>
</svg>