<?xml version="1.0" encoding="UTF-8"?>
<svg xmlns="http://www.w3.org/2000/svg" xmlns:xlink="http://www.w3.org/1999/xlink" width="1326.6" height="526.6" viewBox="-63.3 -463.3 1326.6 526.6">
<defs>
<style type="text/css">
.l235d4 {stroke: #0067A5; fill: #0067A5; fill-opacity: 0.5;}
.l71d20 {stroke: #B3446C; fill: #B3446C; fill-opacity: 0.5;}
</style>
</defs>
<rect x="-63.3" y="-463.3" width="1326.6" height="526.6" fill="#222222" stroke="none"/>
<g id="my_logo" transform="scale(1 -1)">
<polygon id="0x1cb0780" class="l71d20" points="-3,20 83,20 83,60 -3,60"/>
<polygon id="0x1cf3640" class="l71d20" points="317,20 483,20 483,60 317,60"/>
<polygon id="0x1c12420" class="l71d20" points="637,20 883,20 883,60 637,60"/>
<polygon id="0x1ce6310" class="l71d20" points="1117,20 1203,20 1203,60 1117,60"/>
<polygon id="0x1dfe040" class="l71d20" points="77,100 323,100 323,140 77,140"/>
<polygon id="0x1e4efd0" class="l71d20" points="557,100 723,100 723,140 557,140"/>
<polygon id="0x1dc3620" class="l71d20" points="877,100 1043,100 1043,140 877,140"/>
<polygon id="0x1dc5630" class="l71d20" points="1117,100 1203,100 1203,140 1117,140"/>
<polygon id="0x1dfa0f0" class="l71d20" points="-3,180 243,180 243,220 -3,220"/>
<polygon id="0x1ddd180" class="l71d20" points="317,180 403,180 403,220 317,220"/>
<polygon id="0x1e13d90" class="l71d20" points="637,180 803,180 803,220 637,220"/>
<polygon id="0x1e52790" class="l71d20" points="877,180 1043,180 1043,220 877,220"/>
<polygon id="0x1e78bf0" class="l71d20" points="1117,180 1203,180 1203,220 1117,220"/>
<polygon id="0x1e08b10" class="l71d20" points="77,260 323,260 323,300 77,300"/>
<polygon id="0x1e23570" class="l71d20" points="557,260 643,260 643,300 557,300"/>
<polygon id="0x1e3b670" class="l71d20" points="717,260 883,260 883,300 717,300"/>
<polygon id="0x1e3e910" class="l71d20" points="957,260 1203,260 1203,300 957,300"/>
<polygon id="0x1de4c60" class="l71d20" points="-3,340 83,340 83,380 -3,380"/>
<polygon id="0x1dc74f0" class="l71d20" points="237,340 403,340 403,380 237,380"/>
<polygon id="0x1dccbf0" class="l71d20" points="957,340 1123,340 1123,380 957,380"/>
<polygon id="0x1e0e9b0" class="l71d20" points="20,77 60,77 60,163 20,163"/>
<polygon id="0x1e1f120" class="l71d20" points="20,237 60,237 60,323 20,323"/>
<polygon id="0x1e127f0" class="l71d20" points="100,-3 140,-3 140,83 100,83"/>
<polygon id="0x1baa5c0" class="l71d20" points="100,317 140,317 140,403 100,403"/>
<polygon id="0x1cd2870" class="l71d20" points="180,-3 220,-3 220,83 180,83"/>
<polygon id="0x1cde8a0" class="l71d20" points="180,317 220,317 220,403 180,403"/>
<polygon id="0x1bdaab0" class="l71d20" points="260,-3 300,-3 300,83 260,83"/>
<polygon id="0x1d7e860" class="l71d20" points="260,157 300,157 300,243 260,243"/>
<polygon id="0x1dabab0" class="l71d20" points="340,77 380,77 380,163 340,163"/>
<polygon id="0x1dde350" class="l71d20" points="340,237 380,237 380,323 340,323"/>
<polygon id="0x1c2a730" class="l71d20" points="420,77 460,77 460,403 420,403"/>
<polygon id="0x1c70a50" class="l71d20" points="500,-3 540,-3 540,403 500,403"/>
<polygon id="0x1c8f9e0" class="l71d20" points="580,-3 620,-3 620,83 580,83"/>
<polygon id="0x1e71440" class="l71d20" points="580,157 620,157 620,243 580,243"/>
<polygon id="0x1e71500" class="l71d20" points="580,317 620,317 620,403 580,403"/>
<polygon id="0x1e715c0" class="l71d20" points="660,237 700,237 700,403 660,403"/>
<polygon id="0x1e71680" class="l71d20" points="740,77 780,77 780,163 740,163"/>
<polygon id="0x1e71740" class="l71d20" points="740,317 780,317 780,403 740,403"/>
<polygon id="0x1e71800" class="l71d20" points="820,77 860,77 860,243 820,243"/>
<polygon id="0x1e718c0" class="l71d20" points="820,317 860,317 860,403 820,403"/>
<polygon id="0x1e71980" class="l71d20" points="900,-3 940,-3 940,83 900,83"/>
<polygon id="0x1e71a40" class="l71d20" points="900,237 940,237 940,403 900,403"/>
<polygon id="0x1e71b00" class="l71d20" points="980,-3 1020,-3 1020,83 980,83"/>
<polygon id="0x1e71bc0" class="l71d20" points="1060,-3 1100,-3 1100,243 1060,243"/>
<polygon id="0x1e71c80" class="l71d20" points="1140,317 1180,317 1180,403 1140,403"/>
<polygon id="0x1e71d40" class="l235d4" points="0,0 1200,0 1200,400 0,400"/>
</g>
</svg>