<?xml version="1.0" encoding="UTF-8"?>
<svg xmlns="http://www.w3.org/2000/svg" xmlns:xlink="http://www.w3.org/1999/xlink" width="1326.6" height="926.6" viewBox="-63.3 -863.3 1326.6 926.6">
<defs>
<style type="text/css">
.l235d4 {stroke: #0067A5; fill: #0067A5; fill-opacity: 0.5;}
.l71d20 {stroke: #B3446C; fill: #B3446C; fill-opacity: 0.5;}
</style>
</defs>
<rect x="-63.3" y="-863.3" width="1326.6" height="926.6" fill="#222222" stroke="none"/>
<g id="my_logo" transform="scale(1 -1)">
<polygon id="0x14dbdf0" class="l71d20" points="-3,20 163,20 163,60 -3,60"/>
<polygon id="0x14eb740" class="l71d20" points="477,20 563,20 563,60 477,60"/>
<polygon id="0x152e600" class="l71d20" points="797,20 883,20 883,60 797,60"/>
<polygon id="0x15212d0" class="l71d20" points="957,20 1043,20 1043,60 957,60"/>
<polygon id="0x1639000" class="l71d20" points="-3,100 163,100 163,140 -3,140"/>
<polygon id="0x1689f90" class="l71d20" points="317,100 403,100 403,140 317,140"/>
<polygon id="0x15fe5e0" class="l71d20" points="557,100 643,100 643,140 557,140"/>
<polygon id="0x16005f0" class="l71d20" points="1037,100 1203,100 1203,140 1037,140"/>
<polygon id="0x15e2090" class="l71d20" points="77,180 163,180 163,220 77,220"/>
<polygon id="0x15efcd0" class="l71d20" points="237,180 643,180 643,220 237,220"/>
<polygon id="0x167c500" class="l71d20" points="717,180 883,180 883,220 717,220"/>
<polygon id="0x168d750" class="l71d20" points="957,180 1203,180 1203,220 957,220"/>
<polygon id="0x16b3bb0" class="l71d20" points="-3,260 243,260 243,300 -3,300"/>
<polygon id="0x1643ad0" class="l71d20" points="317,260 403,260 403,300 317,300"/>
<polygon id="0x165e530" class="l71d20" points="477,260 643,260 643,300 477,300"/>
<polygon id="0x1676630" class="l71d20" points="717,260 803,260 803,300 717,300"/>
<polygon id="0x16798d0" class="l71d20" points="877,260 963,260 963,300 877,300"/>
<polygon id="0x161fc20" class="l71d20" points="1037,260 1203,260 1203,300 1037,300"/>
<polygon id="0x16024b0" class="l71d20" points="-3,340 83,340 83,380 -3,380"/>
<polygon id="0x1607bb0" class="l71d20" points="157,340 483,340 483,380 157,380"/>
<polygon id="0x1649970" class="l71d20" points="637,340 723,340 723,380 637,380"/>
<polygon id="0x165a0e0" class="l71d20" points="957,340 1043,340 1043,380 957,380"/>
<polygon id="0x164d7b0" class="l71d20" points="1117,340 1203,340 1203,380 1117,380"/>
<polygon id="0x13e5580" class="l71d20" points="-3,420 83,420 83,460 -3,460"/>
<polygon id="0x150d830" class="l71d20" points="637,420 723,420 723,460 637,460"/>
<polygon id="0x1519860" class="l71d20" points="1037,420 1123,420 1123,460 1037,460"/>
<polygon id="0x1415a70" class="l71d20" points="77,500 323,500 323,540 77,540"/>
<polygon id="0x15b9820" class="l71d20" points="557,500 803,500 803,540 557,540"/>
<polygon id="0x15e6a70" class="l71d20" points="1037,500 1203,500 1203,540 1037,540"/>
<polygon id="0x1619310" class="l71d20" points="-3,580 83,580 83,620 -3,620"/>
<polygon id="0x14656f0" class="l71d20" points="237,580 323,580 323,620 237,620"/>
<polygon id="0x14aba10" class="l71d20" points="957,580 1203,580 1203,620 957,620"/>
<polygon id="0x14ca9a0" class="l71d20" points="157,660 243,660 243,700 157,700"/>
<polygon id="0x16ac400" class="l71d20" points="317,660 483,660 483,700 317,700"/>
<polygon id="0x16ac4c0" class="l71d20" points="717,660 883,660 883,700 717,700"/>
<polygon id="0x16ac580" class="l71d20" points="1037,660 1123,660 1123,700 1037,700"/>
<polygon id="0x16ac640" class="l71d20" points="-3,740 83,740 83,780 -3,780"/>
<polygon id="0x16ac700" class="l71d20" points="397,740 483,740 483,780 397,780"/>
<polygon id="0x16ac7c0" class="l71d20" points="637,740 803,740 803,780 637,780"/>
<polygon id="0x16ac880" class="l71d20" points="877,740 1043,740 1043,780 877,780"/>
<polygon id="0x16ac940" class="l71d20" points="1117,740 1203,740 1203,780 1117,780"/>
<polygon id="0x16aca00" class="l71d20" points="20,157 60,157 60,243 20,243"/>
<polygon id="0x16acac0" class="l71d20" points="20,477 60,477 60,563 20,563"/>
<polygon id="0x16acb80" class="l71d20" points="20,637 60,637 60,723 20,723"/>
<polygon id="0x16acc40" class="l71d20" points="100,317 140,317 140,483 100,483"/>
<polygon id="0x16acd00" class="l71d20" points="100,557 140,557 140,803 100,803"/>
<polygon id="0x16acdc0" class="l71d20" points="180,-3 220,-3 220,243 180,243"/>
<polygon id="0x16ace80" class="l71d20" points="180,397 220,397 220,483 180,483"/>
<polygon id="0x16acf40" class="l71d20" points="180,557 220,557 220,643 180,643"/>
<polygon id="0x16ad000" class="l71d20" points="180,717 220,717 220,803 180,803"/>
<polygon id="0x16ad0c0" class="l71d20" points="260,-3 300,-3 300,163 260,163"/>
<polygon id="0x16ad180" class="l71d20" points="260,237 300,237 300,323 260,323"/>
<polygon id="0x16ad240" class="l71d20" points="260,397 300,397 300,483 260,483"/>
<polygon id="0x16ad300" class="l71d20" points="260,637 300,637 300,803 260,803"/>
<polygon id="0x16ad3c0" class="l71d20" points="340,-3 380,-3 380,83 340,83"/>
<polygon id="0x16ad480" class="l71d20" points="340,397 380,397 380,643 340,643"/>
<polygon id="0x16ad540" class="l71d20" points="340,717 380,717 380,803 340,803"/>
<polygon id="0x16ad600" class="l71d20" points="420,-3 460,-3 460,163 420,163"/>
<polygon id="0x16ad6c0" class="l71d20" points="420,237 460,237 460,323 420,323"/>
<polygon id="0x16ad780" class="l71d20" points="420,397 460,397 460,643 420,643"/>
<polygon id="0x16ad840" class="l71d20" points="500,77 540,77 540,163 500,163"/>
<polygon id="0x16ad900" class="l71d20" points="500,317 540,317 540,803 500,803"/>
<polygon id="0x16ad9c0" class="l71d20" points="580,-3 620,-3 620,83 580,83"/>
<polygon id="0x16ada80" class="l71d20" points="580,317 620,317 620,483 580,483"/>
<polygon id="0x16adb40" class="l71d20" points="580,557 620,557 620,803 580,803"/>
<polygon id="0x14ee390" class="l71d20" points="660,-3 700,-3 700,323 660,323"/>
<polygon id="0x150f100" class="l71d20" points="660,557 700,557 700,723 660,723"/>
<polygon id="0x15ac5b0" class="l71d20" points="740,-3 780,-3 780,163 740,163"/>
<polygon id="0x15d5250" class="l71d20" points="740,317 780,317 780,483 740,483"/>
<polygon id="0x1620fa0" class="l71d20" points="740,557 780,557 780,643 740,643"/>
<polygon id="0x1647c00" class="l71d20" points="820,77 860,77 860,163 820,163"/>
<polygon id="0x168e8a0" class="l71d20" points="820,237 860,237 860,643 820,643"/>
<polygon id="0x145e1e0" class="l71d20" points="820,717 860,717 860,803 820,803"/>
<polygon id="0x14c7860" class="l71d20" points="900,-3 940,-3 940,243 900,243"/>
<polygon id="0x158f340" class="l71d20" points="900,317 940,317 940,723 900,723"/>
<polygon id="0x165d1b0" class="l71d20" points="980,77 1020,77 1020,163 980,163"/>
<polygon id="0x16122b0" class="l71d20" points="980,237 1020,237 1020,323 980,323"/>
<polygon id="0x1483b20" class="l71d20" points="980,397 1020,397 1020,563 980,563"/>
<polygon id="0x14f9c30" class="l71d20" points="980,637 1020,637 1020,723 980,723"/>
<polygon id="0x150e110" class="l71d20" points="1060,-3 1100,-3 1100,83 1060,83"/>
<polygon id="0x15d7f20" class="l71d20" points="1060,317 1100,317 1100,403 1060,403"/>
<polygon id="0x15da990" class="l71d20" points="1060,717 1100,717 1100,803 1060,803"/>
<polygon id="0x15f32c0" class="l71d20" points="1140,-3 1180,-3 1180,83 1140,83"/>
<polygon id="0x1609330" class="l71d20" points="1140,397 1180,397 1180,483 1140,483"/>
<polygon id="0x1684d30" class="l71d20" points="1140,637 1180,637 1180,723 1140,723"/>
<polygon id="0x15884f0" class="l235d4" points="0,0 1200,0 1200,800 0,800"/>
</g>
</svg>