<?xml version="1.0" encoding="UTF-8"?>
<svg xmlns="http://www.w3.org/2000/svg" xmlns:xlink="http://www.w3.org/1999/xlink" width="1138.5" height="778.5" viewBox="-51.75 -726.75 1138.5 778.5">
<defs>
<style type="text/css">
.l235d4 {stroke: #0067A5; fill: #0067A5; fill-opacity: 0.5;}
.l71d20 {stroke: #B3446C; fill: #B3446C; fill-opacity: 0.5;}
</style>
</defs>
<rect x="-51.75" y="-726.75" width="1138.5" height="778.5" fill="#222222" stroke="none"/>
<g id="my_logo" transform="scale(1 -1)">
<polygon id="0x2a51210" class="l71d20" points="15.75,5 15.75,13.5 24.25,13.5 24.25,5 35,5 35,15.75 26.5,15.75 26.5,24.25 35,24.25 35,35 24.25,35 24.25,26.5 15.75,26.5 15.75,35 5,35 5,24.25 13.5,24.25 13.5,15.75 5,15.75 5,5"/>
<polygon id="0x2c21580" class="l71d20" points="15.75,85 15.75,93.5 24.25,93.5 24.25,85 35,85 35,95.75 26.5,95.75 26.5,104.25 35,104.25 35,115 24.25,115 24.25,106.5 15.75,106.5 15.75,115 5,115 5,104.25 13.5,104.25 13.5,95.75 5,95.75 5,85"/>
<polygon id="0x2c21690" class="l71d20" points="15.75,125 15.75,133.5 24.25,133.5 24.25,125 35,125 35,135.75 26.5,135.75 26.5,144.25 35,144.25 35,155 24.25,155 24.25,146.5 15.75,146.5 15.75,155 5,155 5,144.25 13.5,144.25 13.5,135.75 5,135.75 5,125"/>
<polygon id="0x2c21700" class="l71d20" points="15.75,165 15.75,173.5 24.25,173.5 24.25,165 35,165 35,175.75 26.5,175.75 26.5,184.25 35,184.25 35,195 24.25,195 24.25,186.5 15.75,186.5 15.75,195 5,195 5,184.25 13.5,184.25 13.5,175.75 5,175.75 5,165"/>
<polygon id="0x2c21770" class="l71d20" points="15.75,205 15.75,213.5 24.25,213.5 24.25,205 35,205 35,215.75 26.5,215.75 26.5,224.25 35,224.25 35,235 24.25,235 24.25,226.5 15.75,226.5 15.75,235 5,235 5,224.25 13.5,224.25 13.5,215.75 5,215.75 5,205"/>
<polygon id="0x2c217e0" class="l71d20" points="15.75,285 15.75,293.5 24.25,293.5 24.25,285 35,285 35,295.75 26.5,295.75 26.5,304.25 35,304.25 35,315 24.25,315 24.25,306.5 15.75,306.5 15.75,315 5,315 5,304.25 13.5,304.25 13.5,295.75 5,295.75 5,285"/>
<polygon id="0x2c218a0" class="l71d20" points="55.75,5 55.75,13.5 64.25,13.5 64.25,5 75,5 75,15.75 66.5,15.75 66.5,24.25 75,24.25 75,35 64.25,35 64.25,26.5 55.75,26.5 55.75,35 45,35 45,24.25 53.5,24.25 53.5,15.75 45,15.75 45,5"/>
<polygon id="0x2c21910" class="l71d20" points="55.75,45 55.75,53.5 64.25,53.5 64.25,45 75,45 75,55.75 66.5,55.75 66.5,64.25 75,64.25 75,75 64.25,75 64.25,66.5 55.75,66.5 55.75,75 45,75 45,64.25 53.5,64.25 53.5,55.75 45,55.75 45,45"/>
<polygon id="0x2c21980" class="l71d20" points="55.75,85 55.75,93.5 64.25,93.5 64.25,85 75,85 75,95.75 66.5,95.75 66.5,104.25 75,104.25 75,115 64.25,115 64.25,106.5 55.75,106.5 55.75,115 45,115 45,104.25 53.5,104.25 53.5,95.75 45,95.75 45,85"/>
<polygon id="0x2c219f0" class="l71d20" points="55.75,205 55.75,213.5 64.25,213.5 64.25,205 75,205 75,215.75 66.5,215.75 66.5,224.25 75,224.25 75,235 64.25,235 64.25,226.5 55.75,226.5 55.75,235 45,235 45,224.25 53.5,224.25 53.5,215.75 45,215.75 45,205"/>
<polygon id="0x2c21a60" class="l71d20" points="55.75,245 55.75,253.5 64.25,253.5 64.25,245 75,245 75,255.75 66.5,255.75 66.5,264.25 75,264.25 75,275 64.25,275 64.25,266.5 55.75,266.5 55.75,275 45,275 45,264.25 53.5,264.25 53.5,255.75 45,255.75 45,245"/>
<polygon id="0x2c21ad0" class="l71d20" points="55.75,285 55.75,293.5 64.25,293.5 64.25,285 75,285 75,295.75 66.5,295.75 66.5,304.25 75,304.25 75,315 64.25,315 64.25,306.5 55.75,306.5 55.75,315 45,315 45,304.25 53.5,304.25 53.5,295.75 45,295.75 45,285"/>
<polygon id="0x2c21c90" class="l71d20" points="95.75,5 95.75,13.5 104.25,13.5 104.25,5 115,5 115,15.75 106.5,15.75 106.5,24.25 115,24.25 115,35 104.25,35 104.25,26.5 95.75,26.5 95.75,35 85,35 85,24.25 93.5,24.25 93.5,15.75 85,15.75 85,5"/>
<polygon id="0x2c21e50" class="l71d20" points="95.75,45 95.75,53.5 104.25,53.5 104.25,45 115,45 115,55.75 106.5,55.75 106.5,64.25 115,64.25 115,75 104.25,75 104.25,66.5 95.75,66.5 95.75,75 85,75 85,64.25 93.5,64.25 93.5,55.75 85,55.75 85,45"/>
<polygon id="0x2c22010" class="l71d20" points="95.75,245 95.75,253.5 104.25,253.5 104.25,245 115,245 115,255.75 106.5,255.75 106.5,264.25 115,264.25 115,275 104.25,275 104.25,266.5 95.75,266.5 95.75,275 85,275 85,264.25 93.5,264.25 93.5,255.75 85,255.75 85,245"/>
<polygon id="0x2c221d0" class="l71d20" points="95.75,285 95.75,293.5 104.25,293.5 104.25,285 115,285 115,295.75 106.5,295.75 106.5,304.25 115,304.25 115,315 104.25,315 104.25,306.5 95.75,306.5 95.75,315 85,315 85,304.25 93.5,304.25 93.5,295.75 85,295.75 85,285"/>
<polygon id="0x2c22390" class="l71d20" points="215.75,5 215.75,13.5 224.25,13.5 224.25,5 235,5 235,15.75 226.5,15.75 226.5,24.25 235,24.25 235,35 224.25,35 224.25,26.5 215.75,26.5 215.75,35 205,35 205,24.25 213.5,24.25 213.5,15.75 205,15.75 205,5"/>
<polygon id="0x2c22550" class="l71d20" points="215.75,45 215.75,53.5 224.25,53.5 224.25,45 235,45 235,55.75 226.5,55.75 226.5,64.25 235,64.25 235,75 224.25,75 224.25,66.5 215.75,66.5 215.75,75 205,75 205,64.25 213.5,64.25 213.5,55.75 205,55.75 205,45"/>
<polygon id="0x2c22710" class="l71d20" points="215.75,245 215.75,253.5 224.25,253.5 224.25,245 235,245 235,255.75 226.5,255.75 226.5,264.25 235,264.25 235,275 224.25,275 224.25,266.5 215.75,266.5 215.75,275 205,275 205,264.25 213.5,264.25 213.5,255.75 205,255.75 205,245"/>
<polygon id="0x2c228d0" class="l71d20" points="215.75,285 215.75,293.5 224.25,293.5 224.25,285 235,285 235,295.75 226.5,295.75 226.5,304.25 235,304.25 235,315 224.25,315 224.25,306.5 215.75,306.5 215.75,315 205,315 205,304.25 213.5,304.25 213.5,295.75 205,295.75 205,285"/>
<polygon id="0x2c22a90" class="l71d20" points="255.75,5 255.75,13.5 264.25,13.5 264.25,5 275,5 275,15.75 266.5,15.75 266.5,24.25 275,24.25 275,35 264.25,35 264.25,26.5 255.75,26.5 255.75,35 245,35 245,24.25 253.5,24.25 253.5,15.75 245,15.75 245,5"/>
<polygon id="0x2c22c50" class="l71d20" points="255.75,45 255.75,53.5 264.25,53.5 264.25,45 275,45 275,55.75 266.5,55.75 266.5,64.25 275,64.25 275,75 264.25,75 264.25,66.5 255.75,66.5 255.75,75 245,75 245,64.25 253.5,64.25 253.5,55.75 245,55.75 245,45"/>
<polygon id="0x2c22e10" class="l71d20" points="255.75,85 255.75,93.5 264.25,93.5 264.25,85 275,85 275,95.75 266.5,95.75 266.5,104.25 275,104.25 275,115 264.25,115 264.25,106.5 255.75,106.5 255.75,115 245,115 245,104.25 253.5,104.25 253.5,95.75 245,95.75 245,85"/>
<polygon id="0x2c22fd0" class="l71d20" points="255.75,205 255.75,213.5 264.25,213.5 264.25,205 275,205 275,215.75 266.5,215.75 266.5,224.25 275,224.25 275,235 264.25,235 264.25,226.5 255.75,226.5 255.75,235 245,235 245,224.25 253.5,224.25 253.5,215.75 245,215.75 245,205"/>
<polygon id="0x2c23190" class="l71d20" points="255.75,245 255.75,253.5 264.25,253.5 264.25,245 275,245 275,255.75 266.5,255.75 266.5,264.25 275,264.25 275,275 264.25,275 264.25,266.5 255.75,266.5 255.75,275 245,275 245,264.25 253.5,264.25 253.5,255.75 245,255.75 245,245"/>
<polygon id="0x2c23350" class="l71d20" points="255.75,285 255.75,293.5 264.25,293.5 264.25,285 275,285 275,295.75 266.5,295.75 266.5,304.25 275,304.25 275,315 264.25,315 264.25,306.5 255.75,306.5 255.75,315 245,315 245,304.25 253.5,304.25 253.5,295.75 245,295.75 245,285"/>
<polygon id="0x2c23510" class="l71d20" points="295.75,5 295.75,13.5 304.25,13.5 304.25,5 315,5 315,15.75 306.5,15.75 306.5,24.25 315,24.25 315,35 304.25,35 304.25,26.5 295.75,26.5 295.75,35 285,35 285,24.25 293.5,24.25 293.5,15.75 285,15.75 285,5"/>
<polygon id="0x2c236d0" class="l71d20" points="295.75,85 295.75,93.5 304.25,93.5 304.25,85 315,85 315,95.75 306.5,95.75 306.5,104.25 315,104.25 315,115 304.25,115 304.25,106.5 295.75,106.5 295.75,115 285,115 285,104.25 293.5,104.25 293.5,95.75 285,95.75 285,85"/>
<polygon id="0x2c23890" class="l71d20" points="295.75,125 295.75,133.5 304.25,133.5 304.25,125 315,125 315,135.75 306.5,135.75 306.5,144.25 315,144.25 315,155 304.25,155 304.25,146.5 295.75,146.5 295.75,155 285,155 285,144.25 293.5,144.25 293.5,135.75 285,135.75 285,125"/>
<polygon id="0x2c23a50" class="l71d20" points="295.75,165 295.75,173.5 304.25,173.5 304.25,165 315,165 315,175.75 306.5,175.75 306.5,184.25 315,184.25 315,195 304.25,195 304.25,186.5 295.75,186.5 295.75,195 285,195 285,184.25 293.5,184.25 293.5,175.75 285,175.75 285,165"/>
<polygon id="0x2c23c10" class="l71d20" points="295.75,205 295.75,213.5 304.25,213.5 304.25,205 315,205 315,215.75 306.5,215.75 306.5,224.25 315,224.25 315,235 304.25,235 304.25,226.5 295.75,226.5 295.75,235 285,235 285,224.25 293.5,224.25 293.5,215.75 285,215.75 285,205"/>
<polygon id="0x2c23dd0" class="l71d20" points="295.75,285 295.75,293.5 304.25,293.5 304.25,285 315,285 315,295.75 306.5,295.75 306.5,304.25 315,304.25 315,315 304.25,315 304.25,306.5 295.75,306.5 295.75,315 285,315 285,304.25 293.5,304.25 293.5,295.75 285,295.75 285,285"/>
<polygon id="0x2c23f90" class="l71d20" points="15.75,445 15.75,453.5 24.25,453.5 24.25,445 35,445 35,455.75 26.5,455.75 26.5,464.25 35,464.25 35,475 24.25,475 24.25,466.5 15.75,466.5 15.75,475 5,475 5,464.25 13.5,464.25 13.5,455.75 5,455.75 5,445"/>
<polygon id="0x2c24150" class="l71d20" points="15.75,485 15.75,493.5 24.25,493.5 24.25,485 35,485 35,495.75 26.5,495.75 26.5,504.25 35,504.25 35,515 24.25,515 24.25,506.5 15.75,506.5 15.75,515 5,515 5,504.25 13.5,504.25 13.5,495.75 5,495.75 5,485"/>
<polygon id="0x2c24310" class="l71d20" points="15.75,525 15.75,533.5 24.25,533.5 24.25,525 35,525 35,535.75 26.5,535.75 26.5,544.25 35,544.25 35,555 24.25,555 24.25,546.5 15.75,546.5 15.75,555 5,555 5,544.25 13.5,544.25 13.5,535.75 5,535.75 5,525"/>
<polygon id="0x2c244d0" class="l71d20" points="15.75,565 15.75,573.5 24.25,573.5 24.25,565 35,565 35,575.75 26.5,575.75 26.5,584.25 35,584.25 35,595 24.25,595 24.25,586.5 15.75,586.5 15.75,595 5,595 5,584.25 13.5,584.25 13.5,575.75 5,575.75 5,565"/>
<polygon id="0x2c24690" class="l71d20" points="95.75,365 95.75,373.5 104.25,373.5 104.25,365 115,365 115,375.75 106.5,375.75 106.5,384.25 115,384.25 115,395 104.25,395 104.25,386.5 95.75,386.5 95.75,395 85,395 85,384.25 93.5,384.25 93.5,375.75 85,375.75 85,365"/>
<polygon id="0x2c24850" class="l71d20" points="95.75,645 95.75,653.5 104.25,653.5 104.25,645 115,645 115,655.75 106.5,655.75 106.5,664.25 115,664.25 115,675 104.25,675 104.25,666.5 95.75,666.5 95.75,675 85,675 85,664.25 93.5,664.25 93.5,655.75 85,655.75 85,645"/>
<polygon id="0x2c24a10" class="l71d20" points="135.75,365 135.75,373.5 144.25,373.5 144.25,365 155,365 155,375.75 146.5,375.75 146.5,384.25 155,384.25 155,395 144.25,395 144.25,386.5 135.75,386.5 135.75,395 125,395 125,384.25 133.5,384.25 133.5,375.75 125,375.75 125,365"/>
<polygon id="0x2c24bd0" class="l71d20" points="135.75,405 135.75,413.5 144.25,413.5 144.25,405 155,405 155,415.75 146.5,415.75 146.5,424.25 155,424.25 155,435 144.25,435 144.25,426.5 135.75,426.5 135.75,435 125,435 125,424.25 133.5,424.25 133.5,415.75 125,415.75 125,405"/>
<polygon id="0x2c24d90" class="l71d20" points="135.75,485 135.75,493.5 144.25,493.5 144.25,485 155,485 155,495.75 146.5,495.75 146.5,504.25 155,504.25 155,515 144.25,515 144.25,506.5 135.75,506.5 135.75,515 125,515 125,504.25 133.5,504.25 133.5,495.75 125,495.75 125,485"/>
<polygon id="0x2c24f50" class="l71d20" points="135.75,525 135.75,533.5 144.25,533.5 144.25,525 155,525 155,535.75 146.5,535.75 146.5,544.25 155,544.25 155,555 144.25,555 144.25,546.5 135.75,546.5 135.75,555 125,555 125,544.25 133.5,544.25 133.5,535.75 125,535.75 125,525"/>
<polygon id="0x2c25110" class="l71d20" points="135.75,605 135.75,613.5 144.25,613.5 144.25,605 155,605 155,615.75 146.5,615.75 146.5,624.25 155,624.25 155,635 144.25,635 144.25,626.5 135.75,626.5 135.75,635 125,635 125,624.25 133.5,624.25 133.5,615.75 125,615.75 125,605"/>
<polygon id="0x2c252d0" class="l71d20" points="135.75,645 135.75,653.5 144.25,653.5 144.25,645 155,645 155,655.75 146.5,655.75 146.5,664.25 155,664.25 155,675 144.25,675 144.25,666.5 135.75,666.5 135.75,675 125,675 125,664.25 133.5,664.25 133.5,655.75 125,655.75 125,645"/>
<polygon id="0x2c25490" class="l71d20" points="175.75,365 175.75,373.5 184.25,373.5 184.25,365 195,365 195,375.75 186.5,375.75 186.5,384.25 195,384.25 195,395 184.25,395 184.25,386.5 175.75,386.5 175.75,395 165,395 165,384.25 173.5,384.25 173.5,375.75 165,375.75 165,365"/>
<polygon id="0x2c25650" class="l71d20" points="175.75,405 175.75,413.5 184.25,413.5 184.25,405 195,405 195,415.75 186.5,415.75 186.5,424.25 195,424.25 195,435 184.25,435 184.25,426.5 175.75,426.5 175.75,435 165,435 165,424.25 173.5,424.25 173.5,415.75 165,415.75 165,405"/>
<polygon id="0x2c25810" class="l71d20" points="175.75,485 175.75,493.5 184.25,493.5 184.25,485 195,485 195,495.75 186.5,495.75 186.5,504.25 195,504.25 195,515 184.25,515 184.25,506.5 175.75,506.5 175.75,515 165,515 165,504.25 173.5,504.25 173.5,495.75 165,495.75 165,485"/>
<polygon id="0x2c259d0" class="l71d20" points="175.75,525 175.75,533.5 184.25,533.5 184.25,525 195,525 195,535.75 186.5,535.75 186.5,544.25 195,544.25 195,555 184.25,555 184.25,546.5 175.75,546.5 175.75,555 165,555 165,544.25 173.5,544.25 173.5,535.75 165,535.75 165,525"/>
<polygon id="0x2c25b90" class="l71d20" points="175.75,605 175.75,613.5 184.25,613.5 184.25,605 195,605 195,615.75 186.5,615.75 186.5,624.25 195,624.25 195,635 184.25,635 184.25,626.5 175.75,626.5 175.75,635 165,635 165,624.25 173.5,624.25 173.5,615.75 165,615.75 165,605"/>
<polygon id="0x2c25d50" class="l71d20" points="175.75,645 175.75,653.5 184.25,653.5 184.25,645 195,645 195,655.75 186.5,655.75 186.5,664.25 195,664.25 195,675 184.25,675 184.25,666.5 175.75,666.5 175.75,675 165,675 165,664.25 173.5,664.25 173.5,655.75 165,655.75 165,645"/>
<polygon id="0x2c25f10" class="l71d20" points="215.75,365 215.75,373.5 224.25,373.5 224.25,365 235,365 235,375.75 226.5,375.75 226.5,384.25 235,384.25 235,395 224.25,395 224.25,386.5 215.75,386.5 215.75,395 205,395 205,384.25 213.5,384.25 213.5,375.75 205,375.75 205,365"/>
<polygon id="0x2c260d0" class="l71d20" points="215.75,645 215.75,653.5 224.25,653.5 224.25,645 235,645 235,655.75 226.5,655.75 226.5,664.25 235,664.25 235,675 224.25,675 224.25,666.5 215.75,666.5 215.75,675 205,675 205,664.25 213.5,664.25 213.5,655.75 205,655.75 205,645"/>
<polygon id="0x2c26290" class="l71d20" points="295.75,445 295.75,453.5 304.25,453.5 304.25,445 315,445 315,455.75 306.5,455.75 306.5,464.25 315,464.25 315,475 304.25,475 304.25,466.5 295.75,466.5 295.75,475 285,475 285,464.25 293.5,464.25 293.5,455.75 285,455.75 285,445"/>
<polygon id="0x2c26450" class="l71d20" points="295.75,485 295.75,493.5 304.25,493.5 304.25,485 315,485 315,495.75 306.5,495.75 306.5,504.25 315,504.25 315,515 304.25,515 304.25,506.5 295.75,506.5 295.75,515 285,515 285,504.25 293.5,504.25 293.5,495.75 285,495.75 285,485"/>
<polygon id="0x2c26610" class="l71d20" points="295.75,525 295.75,533.5 304.25,533.5 304.25,525 315,525 315,535.75 306.5,535.75 306.5,544.25 315,544.25 315,555 304.25,555 304.25,546.5 295.75,546.5 295.75,555 285,555 285,544.25 293.5,544.25 293.5,535.75 285,535.75 285,525"/>
<polygon id="0x2c267d0" class="l71d20" points="295.75,565 295.75,573.5 304.25,573.5 304.25,565 315,565 315,575.75 306.5,575.75 306.5,584.25 315,584.25 315,595 304.25,595 304.25,586.5 295.75,586.5 295.75,595 285,595 285,584.25 293.5,584.25 293.5,575.75 285,575.75 285,565"/>
<polygon id="0x2c26990" class="l71d20" points="375.75,5 375.75,13.5 384.25,13.5 384.25,5 395,5 395,15.75 386.5,15.75 386.5,24.25 395,24.25 395,35 384.25,35 384.25,26.5 375.75,26.5 375.75,35 365,35 365,24.25 373.5,24.25 373.5,15.75 365,15.75 365,5"/>
<polygon id="0x2c26b50" class="l71d20" points="375.75,85 375.75,93.5 384.25,93.5 384.25,85 395,85 395,95.75 386.5,95.75 386.5,104.25 395,104.25 395,115 384.25,115 384.25,106.5 375.75,106.5 375.75,115 365,115 365,104.25 373.5,104.25 373.5,95.75 365,95.75 365,85"/>
<polygon id="0x2c26d10" class="l71d20" points="375.75,205 375.75,213.5 384.25,213.5 384.25,205 395,205 395,215.75 386.5,215.75 386.5,224.25 395,224.25 395,235 384.25,235 384.25,226.5 375.75,226.5 375.75,235 365,235 365,224.25 373.5,224.25 373.5,215.75 365,215.75 365,205"/>
<polygon id="0x2c26ed0" class="l71d20" points="375.75,285 375.75,293.5 384.25,293.5 384.25,285 395,285 395,295.75 386.5,295.75 386.5,304.25 395,304.25 395,315 384.25,315 384.25,306.5 375.75,306.5 375.75,315 365,315 365,304.25 373.5,304.25 373.5,295.75 365,295.75 365,285"/>
<polygon id="0x2c27090" class="l71d20" points="415.75,5 415.75,13.5 424.25,13.5 424.25,5 435,5 435,15.75 426.5,15.75 426.5,24.25 435,24.25 435,35 424.25,35 424.25,26.5 415.75,26.5 415.75,35 405,35 405,24.25 413.5,24.25 413.5,15.75 405,15.75 405,5"/>
<polygon id="0x2c27250" class="l71d20" points="415.75,285 415.75,293.5 424.25,293.5 424.25,285 435,285 435,295.75 426.5,295.75 426.5,304.25 435,304.25 435,315 424.25,315 424.25,306.5 415.75,306.5 415.75,315 405,315 405,304.25 413.5,304.25 413.5,295.75 405,295.75 405,285"/>
<polygon id="0x2c27410" class="l71d20" points="455.75,5 455.75,13.5 464.25,13.5 464.25,5 475,5 475,15.75 466.5,15.75 466.5,24.25 475,24.25 475,35 464.25,35 464.25,26.5 455.75,26.5 455.75,35 445,35 445,24.25 453.5,24.25 453.5,15.75 445,15.75 445,5"/>
<polygon id="0x2bee5b0" class="l71d20" points="455.75,85 455.75,93.5 464.25,93.5 464.25,85 475,85 475,95.75 466.5,95.75 466.5,104.25 475,104.25 475,115 464.25,115 464.25,106.5 455.75,106.5 455.75,115 445,115 445,104.25 453.5,104.25 453.5,95.75 445,95.75 445,85"/>
<polygon id="0x2c01260" class="l71d20" points="455.75,205 455.75,213.5 464.25,213.5 464.25,205 475,205 475,215.75 466.5,215.75 466.5,224.25 475,224.25 475,235 464.25,235 464.25,226.5 455.75,226.5 455.75,235 445,235 445,224.25 453.5,224.25 453.5,215.75 445,215.75 445,205"/>
<polygon id="0x2bf6fe0" class="l71d20" points="455.75,285 455.75,293.5 464.25,293.5 464.25,285 475,285 475,295.75 466.5,295.75 466.5,304.25 475,304.25 475,315 464.25,315 464.25,306.5 455.75,306.5 455.75,315 445,315 445,304.25 453.5,304.25 453.5,295.75 445,295.75 445,285"/>
<polygon id="0x2b38650" class="l71d20" points="495.75,5 495.75,13.5 504.25,13.5 504.25,5 515,5 515,15.75 506.5,15.75 506.5,24.25 515,24.25 515,35 504.25,35 504.25,26.5 495.75,26.5 495.75,35 485,35 485,24.25 493.5,24.25 493.5,15.75 485,15.75 485,5"/>
<polygon id="0x2b2f530" class="l71d20" points="495.75,285 495.75,293.5 504.25,293.5 504.25,285 515,285 515,295.75 506.5,295.75 506.5,304.25 515,304.25 515,315 504.25,315 504.25,306.5 495.75,306.5 495.75,315 485,315 485,304.25 493.5,304.25 493.5,295.75 485,295.75 485,285"/>
<polygon id="0x2b68e20" class="l71d20" points="535.75,5 535.75,13.5 544.25,13.5 544.25,5 555,5 555,15.75 546.5,15.75 546.5,24.25 555,24.25 555,35 544.25,35 544.25,26.5 535.75,26.5 535.75,35 525,35 525,24.25 533.5,24.25 533.5,15.75 525,15.75 525,5"/>
<polygon id="0x2b7c360" class="l71d20" points="535.75,285 535.75,293.5 544.25,293.5 544.25,285 555,285 555,295.75 546.5,295.75 546.5,304.25 555,304.25 555,315 544.25,315 544.25,306.5 535.75,306.5 535.75,315 525,315 525,304.25 533.5,304.25 533.5,295.75 525,295.75 525,285"/>
<polygon id="0x2bbf180" class="l71d20" points="575.75,5 575.75,13.5 584.25,13.5 584.25,5 595,5 595,15.75 586.5,15.75 586.5,24.25 595,24.25 595,35 584.25,35 584.25,26.5 575.75,26.5 575.75,35 565,35 565,24.25 573.5,24.25 573.5,15.75 565,15.75 565,5"/>
<polygon id="0x2c09080" class="l71d20" points="575.75,85 575.75,93.5 584.25,93.5 584.25,85 595,85 595,95.75 586.5,95.75 586.5,104.25 595,104.25 595,115 584.25,115 584.25,106.5 575.75,106.5 575.75,115 565,115 565,104.25 573.5,104.25 573.5,95.75 565,95.75 565,85"/>
<polygon id="0x29612a0" class="l71d20" points="575.75,205 575.75,213.5 584.25,213.5 584.25,205 595,205 595,215.75 586.5,215.75 586.5,224.25 595,224.25 595,235 584.25,235 584.25,226.5 575.75,226.5 575.75,235 565,235 565,224.25 573.5,224.25 573.5,215.75 565,215.75 565,205"/>
<polygon id="0x2c214a0" class="l71d20" points="575.75,285 575.75,293.5 584.25,293.5 584.25,285 595,285 595,295.75 586.5,295.75 586.5,304.25 595,304.25 595,315 584.25,315 584.25,306.5 575.75,306.5 575.75,315 565,315 565,304.25 573.5,304.25 573.5,295.75 565,295.75 565,285"/>
<polygon id="0x2c21060" class="l71d20" points="615.75,5 615.75,13.5 624.25,13.5 624.25,5 635,5 635,15.75 626.5,15.75 626.5,24.25 635,24.25 635,35 624.25,35 624.25,26.5 615.75,26.5 615.75,35 605,35 605,24.25 613.5,24.25 613.5,15.75 605,15.75 605,5"/>
<polygon id="0x2a02960" class="l71d20" points="615.75,285 615.75,293.5 624.25,293.5 624.25,285 635,285 635,295.75 626.5,295.75 626.5,304.25 635,304.25 635,315 624.25,315 624.25,306.5 615.75,306.5 615.75,315 605,315 605,304.25 613.5,304.25 613.5,295.75 605,295.75 605,285"/>
<polygon id="0x2a82af0" class="l71d20" points="655.75,5 655.75,13.5 664.25,13.5 664.25,5 675,5 675,15.75 666.5,15.75 666.5,24.25 675,24.25 675,35 664.25,35 664.25,26.5 655.75,26.5 655.75,35 645,35 645,24.25 653.5,24.25 653.5,15.75 645,15.75 645,5"/>
<polygon id="0x2a91f10" class="l71d20" points="655.75,85 655.75,93.5 664.25,93.5 664.25,85 675,85 675,95.75 666.5,95.75 666.5,104.25 675,104.25 675,115 664.25,115 664.25,106.5 655.75,106.5 655.75,115 645,115 645,104.25 653.5,104.25 653.5,95.75 645,95.75 645,85"/>
<polygon id="0x2a8a2d0" class="l71d20" points="655.75,205 655.75,213.5 664.25,213.5 664.25,205 675,205 675,215.75 666.5,215.75 666.5,224.25 675,224.25 675,235 664.25,235 664.25,226.5 655.75,226.5 655.75,235 645,235 645,224.25 653.5,224.25 653.5,215.75 645,215.75 645,205"/>
<polygon id="0x2b8d870" class="l71d20" points="655.75,285 655.75,293.5 664.25,293.5 664.25,285 675,285 675,295.75 666.5,295.75 666.5,304.25 675,304.25 675,315 664.25,315 664.25,306.5 655.75,306.5 655.75,315 645,315 645,304.25 653.5,304.25 653.5,295.75 645,295.75 645,285"/>
<polygon id="0x2bcfc10" class="l71d20" points="375.75,365 375.75,373.5 384.25,373.5 384.25,365 395,365 395,375.75 386.5,375.75 386.5,384.25 395,384.25 395,395 384.25,395 384.25,386.5 375.75,386.5 375.75,395 365,395 365,384.25 373.5,384.25 373.5,375.75 365,375.75 365,365"/>
<polygon id="0x2b1ffb0" class="l71d20" points="375.75,405 375.75,413.5 384.25,413.5 384.25,405 395,405 395,415.75 386.5,415.75 386.5,424.25 395,424.25 395,435 384.25,435 384.25,426.5 375.75,426.5 375.75,435 365,435 365,424.25 373.5,424.25 373.5,415.75 365,415.75 365,405"/>
<polygon id="0x2b20020" class="l71d20" points="375.75,445 375.75,453.5 384.25,453.5 384.25,445 395,445 395,455.75 386.5,455.75 386.5,464.25 395,464.25 395,475 384.25,475 384.25,466.5 375.75,466.5 375.75,475 365,475 365,464.25 373.5,464.25 373.5,455.75 365,455.75 365,445"/>
<polygon id="0x2b49640" class="l71d20" points="375.75,485 375.75,493.5 384.25,493.5 384.25,485 395,485 395,495.75 386.5,495.75 386.5,504.25 395,504.25 395,515 384.25,515 384.25,506.5 375.75,506.5 375.75,515 365,515 365,504.25 373.5,504.25 373.5,495.75 365,495.75 365,485"/>
<polygon id="0x2b496b0" class="l71d20" points="375.75,525 375.75,533.5 384.25,533.5 384.25,525 395,525 395,535.75 386.5,535.75 386.5,544.25 395,544.25 395,555 384.25,555 384.25,546.5 375.75,546.5 375.75,555 365,555 365,544.25 373.5,544.25 373.5,535.75 365,535.75 365,525"/>
<polygon id="0x2b4a860" class="l71d20" points="375.75,565 375.75,573.5 384.25,573.5 384.25,565 395,565 395,575.75 386.5,575.75 386.5,584.25 395,584.25 395,595 384.25,595 384.25,586.5 375.75,586.5 375.75,595 365,595 365,584.25 373.5,584.25 373.5,575.75 365,575.75 365,565"/>
<polygon id="0x2b4a8d0" class="l71d20" points="375.75,605 375.75,613.5 384.25,613.5 384.25,605 395,605 395,615.75 386.5,615.75 386.5,624.25 395,624.25 395,635 384.25,635 384.25,626.5 375.75,626.5 375.75,635 365,635 365,624.25 373.5,624.25 373.5,615.75 365,615.75 365,605"/>
<polygon id="0x2bcd870" class="l71d20" points="375.75,645 375.75,653.5 384.25,653.5 384.25,645 395,645 395,655.75 386.5,655.75 386.5,664.25 395,664.25 395,675 384.25,675 384.25,666.5 375.75,666.5 375.75,675 365,675 365,664.25 373.5,664.25 373.5,655.75 365,655.75 365,645"/>
<polygon id="0x2bcd8e0" class="l71d20" points="415.75,365 415.75,373.5 424.25,373.5 424.25,365 435,365 435,375.75 426.5,375.75 426.5,384.25 435,384.25 435,395 424.25,395 424.25,386.5 415.75,386.5 415.75,395 405,395 405,384.25 413.5,384.25 413.5,375.75 405,375.75 405,365"/>
<polygon id="0x2c023b0" class="l71d20" points="415.75,445 415.75,453.5 424.25,453.5 424.25,445 435,445 435,455.75 426.5,455.75 426.5,464.25 435,464.25 435,475 424.25,475 424.25,466.5 415.75,466.5 415.75,475 405,475 405,464.25 413.5,464.25 413.5,455.75 405,455.75 405,445"/>
<polygon id="0x2c02420" class="l71d20" points="415.75,565 415.75,573.5 424.25,573.5 424.25,565 435,565 435,575.75 426.5,575.75 426.5,584.25 435,584.25 435,595 424.25,595 424.25,586.5 415.75,586.5 415.75,595 405,595 405,584.25 413.5,584.25 413.5,575.75 405,575.75 405,565"/>
<polygon id="0x29d34b0" class="l71d20" points="415.75,645 415.75,653.5 424.25,653.5 424.25,645 435,645 435,655.75 426.5,655.75 426.5,664.25 435,664.25 435,675 424.25,675 424.25,666.5 415.75,666.5 415.75,675 405,675 405,664.25 413.5,664.25 413.5,655.75 405,655.75 405,645"/>
<polygon id="0x2a3cc80" class="l71d20" points="455.75,405 455.75,413.5 464.25,413.5 464.25,405 475,405 475,415.75 466.5,415.75 466.5,424.25 475,424.25 475,435 464.25,435 464.25,426.5 455.75,426.5 455.75,435 445,435 445,424.25 453.5,424.25 453.5,415.75 445,415.75 445,405"/>
<polygon id="0x2adb080" class="l71d20" points="455.75,445 455.75,453.5 464.25,453.5 464.25,445 475,445 475,455.75 466.5,455.75 466.5,464.25 475,464.25 475,475 464.25,475 464.25,466.5 455.75,466.5 455.75,475 445,475 445,464.25 453.5,464.25 453.5,455.75 445,455.75 445,445"/>
<polygon id="0x2b033a0" class="l71d20" points="455.75,565 455.75,573.5 464.25,573.5 464.25,565 475,565 475,575.75 466.5,575.75 466.5,584.25 475,584.25 475,595 464.25,595 464.25,586.5 455.75,586.5 455.75,595 445,595 445,584.25 453.5,584.25 453.5,575.75 445,575.75 445,565"/>
<polygon id="0x2b09e80" class="l71d20" points="455.75,605 455.75,613.5 464.25,613.5 464.25,605 475,605 475,615.75 466.5,615.75 466.5,624.25 475,624.25 475,635 464.25,635 464.25,626.5 455.75,626.5 455.75,635 445,635 445,624.25 453.5,624.25 453.5,615.75 445,615.75 445,605"/>
<polygon id="0x2bc2250" class="l71d20" points="495.75,445 495.75,453.5 504.25,453.5 504.25,445 515,445 515,455.75 506.5,455.75 506.5,464.25 515,464.25 515,475 504.25,475 504.25,466.5 495.75,466.5 495.75,475 485,475 485,464.25 493.5,464.25 493.5,455.75 485,455.75 485,445"/>
<polygon id="0x2b86f40" class="l71d20" points="495.75,565 495.75,573.5 504.25,573.5 504.25,565 515,565 515,575.75 506.5,575.75 506.5,584.25 515,584.25 515,595 504.25,595 504.25,586.5 495.75,586.5 495.75,595 485,595 485,584.25 493.5,584.25 493.5,575.75 485,575.75 485,565"/>
<polygon id="0x29f9000" class="l71d20" points="535.75,445 535.75,453.5 544.25,453.5 544.25,445 555,445 555,455.75 546.5,455.75 546.5,464.25 555,464.25 555,475 544.25,475 544.25,466.5 535.75,466.5 535.75,475 525,475 525,464.25 533.5,464.25 533.5,455.75 525,455.75 525,445"/>
<polygon id="0x29f9070" class="l71d20" points="535.75,565 535.75,573.5 544.25,573.5 544.25,565 555,565 555,575.75 546.5,575.75 546.5,584.25 555,584.25 555,595 544.25,595 544.25,586.5 535.75,586.5 535.75,595 525,595 525,584.25 533.5,584.25 533.5,575.75 525,575.75 525,565"/>
<polygon id="0x2a6f050" class="l71d20" points="575.75,405 575.75,413.5 584.25,413.5 584.25,405 595,405 595,415.75 586.5,415.75 586.5,424.25 595,424.25 595,435 584.25,435 584.25,426.5 575.75,426.5 575.75,435 565,435 565,424.25 573.5,424.25 573.5,415.75 565,415.75 565,405"/>
<polygon id="0x2a6f0c0" class="l71d20" points="575.75,445 575.75,453.5 584.25,453.5 584.25,445 595,445 595,455.75 586.5,455.75 586.5,464.25 595,464.25 595,475 584.25,475 584.25,466.5 575.75,466.5 575.75,475 565,475 565,464.25 573.5,464.25 573.5,455.75 565,455.75 565,445"/>
<polygon id="0x2b4c310" class="l71d20" points="575.75,565 575.75,573.5 584.25,573.5 584.25,565 595,565 595,575.75 586.5,575.75 586.5,584.25 595,584.25 595,595 584.25,595 584.25,586.5 575.75,586.5 575.75,595 565,595 565,584.25 573.5,584.25 573.5,575.75 565,575.75 565,565"/>
<polygon id="0x2b4c380" class="l71d20" points="575.75,605 575.75,613.5 584.25,613.5 584.25,605 595,605 595,615.75 586.5,615.75 586.5,624.25 595,624.25 595,635 584.25,635 584.25,626.5 575.75,626.5 575.75,635 565,635 565,624.25 573.5,624.25 573.5,615.75 565,615.75 565,605"/>
<polygon id="0x2b9d7e0" class="l71d20" points="615.75,365 615.75,373.5 624.25,373.5 624.25,365 635,365 635,375.75 626.5,375.75 626.5,384.25 635,384.25 635,395 624.25,395 624.25,386.5 615.75,386.5 615.75,395 605,395 605,384.25 613.5,384.25 613.5,375.75 605,375.75 605,365"/>
<polygon id="0x2b9d850" class="l71d20" points="615.75,445 615.75,453.5 624.25,453.5 624.25,445 635,445 635,455.75 626.5,455.75 626.5,464.25 635,464.25 635,475 624.25,475 624.25,466.5 615.75,466.5 615.75,475 605,475 605,464.25 613.5,464.25 613.5,455.75 605,455.75 605,445"/>
<polygon id="0x2b67c10" class="l71d20" points="615.75,565 615.75,573.5 624.25,573.5 624.25,565 635,565 635,575.75 626.5,575.75 626.5,584.25 635,584.25 635,595 624.25,595 624.25,586.5 615.75,586.5 615.75,595 605,595 605,584.25 613.5,584.25 613.5,575.75 605,575.75 605,565"/>
<polygon id="0x2b67c80" class="l71d20" points="615.75,645 615.75,653.5 624.25,653.5 624.25,645 635,645 635,655.75 626.5,655.75 626.5,664.25 635,664.25 635,675 624.25,675 624.25,666.5 615.75,666.5 615.75,675 605,675 605,664.25 613.5,664.25 613.5,655.75 605,655.75 605,645"/>
<polygon id="0x292b8c0" class="l71d20" points="655.75,365 655.75,373.5 664.25,373.5 664.25,365 675,365 675,375.75 666.5,375.75 666.5,384.25 675,384.25 675,395 664.25,395 664.25,386.5 655.75,386.5 655.75,395 645,395 645,384.25 653.5,384.25 653.5,375.75 645,375.75 645,365"/>
<polygon id="0x292b930" class="l71d20" points="655.75,405 655.75,413.5 664.25,413.5 664.25,405 675,405 675,415.75 666.5,415.75 666.5,424.25 675,424.25 675,435 664.25,435 664.25,426.5 655.75,426.5 655.75,435 645,435 645,424.25 653.5,424.25 653.5,415.75 645,415.75 645,405"/>
<polygon id="0x2a80ba0" class="l71d20" points="655.75,445 655.75,453.5 664.25,453.5 664.25,445 675,445 675,455.75 666.5,455.75 666.5,464.25 675,464.25 675,475 664.25,475 664.25,466.5 655.75,466.5 655.75,475 645,475 645,464.25 653.5,464.25 653.5,455.75 645,455.75 645,445"/>
<polygon id="0x2b2d640" class="l71d20" points="655.75,485 655.75,493.5 664.25,493.5 664.25,485 675,485 675,495.75 666.5,495.75 666.5,504.25 675,504.25 675,515 664.25,515 664.25,506.5 655.75,506.5 655.75,515 645,515 645,504.25 653.5,504.25 653.5,495.75 645,495.75 645,485"/>
<polygon id="0x2b53c40" class="l71d20" points="655.75,525 655.75,533.5 664.25,533.5 664.25,525 675,525 675,535.75 666.5,535.75 666.5,544.25 675,544.25 675,555 664.25,555 664.25,546.5 655.75,546.5 655.75,555 645,555 645,544.25 653.5,544.25 653.5,535.75 645,535.75 645,525"/>
<polygon id="0x2a6e250" class="l71d20" points="655.75,565 655.75,573.5 664.25,573.5 664.25,565 675,565 675,575.75 666.5,575.75 666.5,584.25 675,584.25 675,595 664.25,595 664.25,586.5 655.75,586.5 655.75,595 645,595 645,584.25 653.5,584.25 653.5,575.75 645,575.75 645,565"/>
<polygon id="0x2a6e2c0" class="l71d20" points="655.75,605 655.75,613.5 664.25,613.5 664.25,605 675,605 675,615.75 666.5,615.75 666.5,624.25 675,624.25 675,635 664.25,635 664.25,626.5 655.75,626.5 655.75,635 645,635 645,624.25 653.5,624.25 653.5,615.75 645,615.75 645,605"/>
<polygon id="0x2afa880" class="l71d20" points="655.75,645 655.75,653.5 664.25,653.5 664.25,645 675,645 675,655.75 666.5,655.75 666.5,664.25 675,664.25 675,675 664.25,675 664.25,666.5 655.75,666.5 655.75,675 645,675 645,664.25 653.5,664.25 653.5,655.75 645,655.75 645,645"/>
<polygon id="0x2afa8f0" class="l71d20" points="775.75,5 775.75,13.5 784.25,13.5 784.25,5 795,5 795,15.75 786.5,15.75 786.5,24.25 795,24.25 795,35 784.25,35 784.25,26.5 775.75,26.5 775.75,35 765,35 765,24.25 773.5,24.25 773.5,15.75 765,15.75 765,5"/>
<polygon id="0x2a14a50" class="l71d20" points="775.75,125 775.75,133.5 784.25,133.5 784.25,125 795,125 795,135.75 786.5,135.75 786.5,144.25 795,144.25 795,155 784.25,155 784.25,146.5 775.75,146.5 775.75,155 765,155 765,144.25 773.5,144.25 773.5,135.75 765,135.75 765,125"/>
<polygon id="0x2aa1020" class="l71d20" points="775.75,165 775.75,173.5 784.25,173.5 784.25,165 795,165 795,175.75 786.5,175.75 786.5,184.25 795,184.25 795,195 784.25,195 784.25,186.5 775.75,186.5 775.75,195 765,195 765,184.25 773.5,184.25 773.5,175.75 765,175.75 765,165"/>
<polygon id="0x2b06d10" class="l71d20" points="775.75,285 775.75,293.5 784.25,293.5 784.25,285 795,285 795,295.75 786.5,295.75 786.5,304.25 795,304.25 795,315 784.25,315 784.25,306.5 775.75,306.5 775.75,315 765,315 765,304.25 773.5,304.25 773.5,295.75 765,295.75 765,285"/>
<polygon id="0x2b6ebc0" class="l71d20" points="815.75,5 815.75,13.5 824.25,13.5 824.25,5 835,5 835,15.75 826.5,15.75 826.5,24.25 835,24.25 835,35 824.25,35 824.25,26.5 815.75,26.5 815.75,35 805,35 805,24.25 813.5,24.25 813.5,15.75 805,15.75 805,5"/>
<polygon id="0x2b762b0" class="l71d20" points="815.75,45 815.75,53.5 824.25,53.5 824.25,45 835,45 835,55.75 826.5,55.75 826.5,64.25 835,64.25 835,75 824.25,75 824.25,66.5 815.75,66.5 815.75,75 805,75 805,64.25 813.5,64.25 813.5,55.75 805,55.75 805,45"/>
<polygon id="0x2bfa840" class="l71d20" points="815.75,85 815.75,93.5 824.25,93.5 824.25,85 835,85 835,95.75 826.5,95.75 826.5,104.25 835,104.25 835,115 824.25,115 824.25,106.5 815.75,106.5 815.75,115 805,115 805,104.25 813.5,104.25 813.5,95.75 805,95.75 805,85"/>
<polygon id="0x2961d20" class="l71d20" points="815.75,125 815.75,133.5 824.25,133.5 824.25,125 835,125 835,135.75 826.5,135.75 826.5,144.25 835,144.25 835,155 824.25,155 824.25,146.5 815.75,146.5 815.75,155 805,155 805,144.25 813.5,144.25 813.5,135.75 805,135.75 805,125"/>
<polygon id="0x29bf0b0" class="l71d20" points="815.75,165 815.75,173.5 824.25,173.5 824.25,165 835,165 835,175.75 826.5,175.75 826.5,184.25 835,184.25 835,195 824.25,195 824.25,186.5 815.75,186.5 815.75,195 805,195 805,184.25 813.5,184.25 813.5,175.75 805,175.75 805,165"/>
<polygon id="0x2a48030" class="l71d20" points="815.75,205 815.75,213.5 824.25,213.5 824.25,205 835,205 835,215.75 826.5,215.75 826.5,224.25 835,224.25 835,235 824.25,235 824.25,226.5 815.75,226.5 815.75,235 805,235 805,224.25 813.5,224.25 813.5,215.75 805,215.75 805,205"/>
<polygon id="0x2a55b90" class="l71d20" points="815.75,245 815.75,253.5 824.25,253.5 824.25,245 835,245 835,255.75 826.5,255.75 826.5,264.25 835,264.25 835,275 824.25,275 824.25,266.5 815.75,266.5 815.75,275 805,275 805,264.25 813.5,264.25 813.5,255.75 805,255.75 805,245"/>
<polygon id="0x2a645a0" class="l71d20" points="815.75,285 815.75,293.5 824.25,293.5 824.25,285 835,285 835,295.75 826.5,295.75 826.5,304.25 835,304.25 835,315 824.25,315 824.25,306.5 815.75,306.5 815.75,315 805,315 805,304.25 813.5,304.25 813.5,295.75 805,295.75 805,285"/>
<polygon id="0x2b1b1e0" class="l71d20" points="855.75,85 855.75,93.5 864.25,93.5 864.25,85 875,85 875,95.75 866.5,95.75 866.5,104.25 875,104.25 875,115 864.25,115 864.25,106.5 855.75,106.5 855.75,115 845,115 845,104.25 853.5,104.25 853.5,95.75 845,95.75 845,85"/>
<polygon id="0x2a71a30" class="l71d20" points="855.75,125 855.75,133.5 864.25,133.5 864.25,125 875,125 875,135.75 866.5,135.75 866.5,144.25 875,144.25 875,155 864.25,155 864.25,146.5 855.75,146.5 855.75,155 845,155 845,144.25 853.5,144.25 853.5,135.75 845,135.75 845,125"/>
<polygon id="0x2b4ed70" class="l71d20" points="855.75,165 855.75,173.5 864.25,173.5 864.25,165 875,165 875,175.75 866.5,175.75 866.5,184.25 875,184.25 875,195 864.25,195 864.25,186.5 855.75,186.5 855.75,195 845,195 845,184.25 853.5,184.25 853.5,175.75 845,175.75 845,165"/>
<polygon id="0x2b4ede0" class="l71d20" points="855.75,205 855.75,213.5 864.25,213.5 864.25,205 875,205 875,215.75 866.5,215.75 866.5,224.25 875,224.25 875,235 864.25,235 864.25,226.5 855.75,226.5 855.75,235 845,235 845,224.25 853.5,224.25 853.5,215.75 845,215.75 845,205"/>
<polygon id="0x2b66fa0" class="l71d20" points="895.75,85 895.75,93.5 904.25,93.5 904.25,85 915,85 915,95.75 906.5,95.75 906.5,104.25 915,104.25 915,115 904.25,115 904.25,106.5 895.75,106.5 895.75,115 885,115 885,104.25 893.5,104.25 893.5,95.75 885,95.75 885,85"/>
<polygon id="0x2b67010" class="l71d20" points="895.75,125 895.75,133.5 904.25,133.5 904.25,125 915,125 915,135.75 906.5,135.75 906.5,144.25 915,144.25 915,155 904.25,155 904.25,146.5 895.75,146.5 895.75,155 885,155 885,144.25 893.5,144.25 893.5,135.75 885,135.75 885,125"/>
<polygon id="0x2b8c590" class="l71d20" points="895.75,165 895.75,173.5 904.25,173.5 904.25,165 915,165 915,175.75 906.5,175.75 906.5,184.25 915,184.25 915,195 904.25,195 904.25,186.5 895.75,186.5 895.75,195 885,195 885,184.25 893.5,184.25 893.5,175.75 885,175.75 885,165"/>
<polygon id="0x2b8c600" class="l71d20" points="895.75,205 895.75,213.5 904.25,213.5 904.25,205 915,205 915,215.75 906.5,215.75 906.5,224.25 915,224.25 915,235 904.25,235 904.25,226.5 895.75,226.5 895.75,235 885,235 885,224.25 893.5,224.25 893.5,215.75 885,215.75 885,205"/>
<polygon id="0x2bbe7a0" class="l71d20" points="935.75,5 935.75,13.5 944.25,13.5 944.25,5 955,5 955,15.75 946.5,15.75 946.5,24.25 955,24.25 955,35 944.25,35 944.25,26.5 935.75,26.5 935.75,35 925,35 925,24.25 933.5,24.25 933.5,15.75 925,15.75 925,5"/>
<polygon id="0x2bbe810" class="l71d20" points="935.75,45 935.75,53.5 944.25,53.5 944.25,45 955,45 955,55.75 946.5,55.75 946.5,64.25 955,64.25 955,75 944.25,75 944.25,66.5 935.75,66.5 935.75,75 925,75 925,64.25 933.5,64.25 933.5,55.75 925,55.75 925,45"/>
<polygon id="0x2c01ac0" class="l71d20" points="935.75,85 935.75,93.5 944.25,93.5 944.25,85 955,85 955,95.75 946.5,95.75 946.5,104.25 955,104.25 955,115 944.25,115 944.25,106.5 935.75,106.5 935.75,115 925,115 925,104.25 933.5,104.25 933.5,95.75 925,95.75 925,85"/>
<polygon id="0x2c01b30" class="l71d20" points="935.75,125 935.75,133.5 944.25,133.5 944.25,125 955,125 955,135.75 946.5,135.75 946.5,144.25 955,144.25 955,155 944.25,155 944.25,146.5 935.75,146.5 935.75,155 925,155 925,144.25 933.5,144.25 933.5,135.75 925,135.75 925,125"/>
<polygon id="0x2c28ad0" class="l71d20" points="935.75,165 935.75,173.5 944.25,173.5 944.25,165 955,165 955,175.75 946.5,175.75 946.5,184.25 955,184.25 955,195 944.25,195 944.25,186.5 935.75,186.5 935.75,195 925,195 925,184.25 933.5,184.25 933.5,175.75 925,175.75 925,165"/>
<polygon id="0x2c28b40" class="l71d20" points="935.75,205 935.75,213.5 944.25,213.5 944.25,205 955,205 955,215.75 946.5,215.75 946.5,224.25 955,224.25 955,235 944.25,235 944.25,226.5 935.75,226.5 935.75,235 925,235 925,224.25 933.5,224.25 933.5,215.75 925,215.75 925,205"/>
<polygon id="0x29cea80" class="l71d20" points="935.75,245 935.75,253.5 944.25,253.5 944.25,245 955,245 955,255.75 946.5,255.75 946.5,264.25 955,264.25 955,275 944.25,275 944.25,266.5 935.75,266.5 935.75,275 925,275 925,264.25 933.5,264.25 933.5,255.75 925,255.75 925,245"/>
<polygon id="0x29ceaf0" class="l71d20" points="935.75,285 935.75,293.5 944.25,293.5 944.25,285 955,285 955,295.75 946.5,295.75 946.5,304.25 955,304.25 955,315 944.25,315 944.25,306.5 935.75,306.5 935.75,315 925,315 925,304.25 933.5,304.25 933.5,295.75 925,295.75 925,285"/>
<polygon id="0x28d7700" class="l71d20" points="975.75,5 975.75,13.5 984.25,13.5 984.25,5 995,5 995,15.75 986.5,15.75 986.5,24.25 995,24.25 995,35 984.25,35 984.25,26.5 975.75,26.5 975.75,35 965,35 965,24.25 973.5,24.25 973.5,15.75 965,15.75 965,5"/>
<polygon id="0x28d7770" class="l71d20" points="975.75,125 975.75,133.5 984.25,133.5 984.25,125 995,125 995,135.75 986.5,135.75 986.5,144.25 995,144.25 995,155 984.25,155 984.25,146.5 975.75,146.5 975.75,155 965,155 965,144.25 973.5,144.25 973.5,135.75 965,135.75 965,125"/>
<polygon id="0x29e98e0" class="l71d20" points="975.75,165 975.75,173.5 984.25,173.5 984.25,165 995,165 995,175.75 986.5,175.75 986.5,184.25 995,184.25 995,195 984.25,195 984.25,186.5 975.75,186.5 975.75,195 965,195 965,184.25 973.5,184.25 973.5,175.75 965,175.75 965,165"/>
<polygon id="0x29e9950" class="l71d20" points="975.75,285 975.75,293.5 984.25,293.5 984.25,285 995,285 995,295.75 986.5,295.75 986.5,304.25 995,304.25 995,315 984.25,315 984.25,306.5 975.75,306.5 975.75,315 965,315 965,304.25 973.5,304.25 973.5,295.75 965,295.75 965,285"/>
<polygon id="0x2a04680" class="l71d20" points="735.75,405 735.75,413.5 744.25,413.5 744.25,405 755,405 755,415.75 746.5,415.75 746.5,424.25 755,424.25 755,435 744.25,435 744.25,426.5 735.75,426.5 735.75,435 725,435 725,424.25 733.5,424.25 733.5,415.75 725,415.75 725,405"/>
<polygon id="0x2a046f0" class="l71d20" points="735.75,445 735.75,453.5 744.25,453.5 744.25,445 755,445 755,455.75 746.5,455.75 746.5,464.25 755,464.25 755,475 744.25,475 744.25,466.5 735.75,466.5 735.75,475 725,475 725,464.25 733.5,464.25 733.5,455.75 725,455.75 725,445"/>
<polygon id="0x2a2d2a0" class="l71d20" points="735.75,485 735.75,493.5 744.25,493.5 744.25,485 755,485 755,495.75 746.5,495.75 746.5,504.25 755,504.25 755,515 744.25,515 744.25,506.5 735.75,506.5 735.75,515 725,515 725,504.25 733.5,504.25 733.5,495.75 725,495.75 725,485"/>
<polygon id="0x2a2d310" class="l71d20" points="735.75,525 735.75,533.5 744.25,533.5 744.25,525 755,525 755,535.75 746.5,535.75 746.5,544.25 755,544.25 755,555 744.25,555 744.25,546.5 735.75,546.5 735.75,555 725,555 725,544.25 733.5,544.25 733.5,535.75 725,535.75 725,525"/>
<polygon id="0x2a85310" class="l71d20" points="735.75,565 735.75,573.5 744.25,573.5 744.25,565 755,565 755,575.75 746.5,575.75 746.5,584.25 755,584.25 755,595 744.25,595 744.25,586.5 735.75,586.5 735.75,595 725,595 725,584.25 733.5,584.25 733.5,575.75 725,575.75 725,565"/>
<polygon id="0x2a85380" class="l71d20" points="735.75,605 735.75,613.5 744.25,613.5 744.25,605 755,605 755,615.75 746.5,615.75 746.5,624.25 755,624.25 755,635 744.25,635 744.25,626.5 735.75,626.5 735.75,635 725,635 725,624.25 733.5,624.25 733.5,615.75 725,615.75 725,605"/>
<polygon id="0x2a6c010" class="l71d20" points="775.75,365 775.75,373.5 784.25,373.5 784.25,365 795,365 795,375.75 786.5,375.75 786.5,384.25 795,384.25 795,395 784.25,395 784.25,386.5 775.75,386.5 775.75,395 765,395 765,384.25 773.5,384.25 773.5,375.75 765,375.75 765,365"/>
<polygon id="0x2a6c080" class="l71d20" points="775.75,405 775.75,413.5 784.25,413.5 784.25,405 795,405 795,415.75 786.5,415.75 786.5,424.25 795,424.25 795,435 784.25,435 784.25,426.5 775.75,426.5 775.75,435 765,435 765,424.25 773.5,424.25 773.5,415.75 765,415.75 765,405"/>
<polygon id="0x2b3ba70" class="l71d20" points="775.75,445 775.75,453.5 784.25,453.5 784.25,445 795,445 795,455.75 786.5,455.75 786.5,464.25 795,464.25 795,475 784.25,475 784.25,466.5 775.75,466.5 775.75,475 765,475 765,464.25 773.5,464.25 773.5,455.75 765,455.75 765,445"/>
<polygon id="0x2b3bae0" class="l71d20" points="775.75,565 775.75,573.5 784.25,573.5 784.25,565 795,565 795,575.75 786.5,575.75 786.5,584.25 795,584.25 795,595 784.25,595 784.25,586.5 775.75,586.5 775.75,595 765,595 765,584.25 773.5,584.25 773.5,575.75 765,575.75 765,565"/>
<polygon id="0x2b6e380" class="l71d20" points="775.75,605 775.75,613.5 784.25,613.5 784.25,605 795,605 795,615.75 786.5,615.75 786.5,624.25 795,624.25 795,635 784.25,635 784.25,626.5 775.75,626.5 775.75,635 765,635 765,624.25 773.5,624.25 773.5,615.75 765,615.75 765,605"/>
<polygon id="0x2b6e3f0" class="l71d20" points="775.75,645 775.75,653.5 784.25,653.5 784.25,645 795,645 795,655.75 786.5,655.75 786.5,664.25 795,664.25 795,675 784.25,675 784.25,666.5 775.75,666.5 775.75,675 765,675 765,664.25 773.5,664.25 773.5,655.75 765,655.75 765,645"/>
<polygon id="0x2b89d50" class="l71d20" points="815.75,405 815.75,413.5 824.25,413.5 824.25,405 835,405 835,415.75 826.5,415.75 826.5,424.25 835,424.25 835,435 824.25,435 824.25,426.5 815.75,426.5 815.75,435 805,435 805,424.25 813.5,424.25 813.5,415.75 805,415.75 805,405"/>
<polygon id="0x2b89dc0" class="l71d20" points="815.75,445 815.75,453.5 824.25,453.5 824.25,445 835,445 835,455.75 826.5,455.75 826.5,464.25 835,464.25 835,475 824.25,475 824.25,466.5 815.75,466.5 815.75,475 805,475 805,464.25 813.5,464.25 813.5,455.75 805,455.75 805,445"/>
<polygon id="0x2bdb610" class="l71d20" points="815.75,485 815.75,493.5 824.25,493.5 824.25,485 835,485 835,495.75 826.5,495.75 826.5,504.25 835,504.25 835,515 824.25,515 824.25,506.5 815.75,506.5 815.75,515 805,515 805,504.25 813.5,504.25 813.5,495.75 805,495.75 805,485"/>
<polygon id="0x2bdb680" class="l71d20" points="815.75,525 815.75,533.5 824.25,533.5 824.25,525 835,525 835,535.75 826.5,535.75 826.5,544.25 835,544.25 835,555 824.25,555 824.25,546.5 815.75,546.5 815.75,555 805,555 805,544.25 813.5,544.25 813.5,535.75 805,535.75 805,525"/>
<polygon id="0x2bf10e0" class="l71d20" points="815.75,565 815.75,573.5 824.25,573.5 824.25,565 835,565 835,575.75 826.5,575.75 826.5,584.25 835,584.25 835,595 824.25,595 824.25,586.5 815.75,586.5 815.75,595 805,595 805,584.25 813.5,584.25 813.5,575.75 805,575.75 805,565"/>
<polygon id="0x2bf1150" class="l71d20" points="815.75,605 815.75,613.5 824.25,613.5 824.25,605 835,605 835,615.75 826.5,615.75 826.5,624.25 835,624.25 835,635 824.25,635 824.25,626.5 815.75,626.5 815.75,635 805,635 805,624.25 813.5,624.25 813.5,615.75 805,615.75 805,605"/>
<polygon id="0x2c21350" class="l71d20" points="855.75,485 855.75,493.5 864.25,493.5 864.25,485 875,485 875,495.75 866.5,495.75 866.5,504.25 875,504.25 875,515 864.25,515 864.25,506.5 855.75,506.5 855.75,515 845,515 845,504.25 853.5,504.25 853.5,495.75 845,495.75 845,485"/>
<polygon id="0x2c213c0" class="l71d20" points="855.75,525 855.75,533.5 864.25,533.5 864.25,525 875,525 875,535.75 866.5,535.75 866.5,544.25 875,544.25 875,555 864.25,555 864.25,546.5 855.75,546.5 855.75,555 845,555 845,544.25 853.5,544.25 853.5,535.75 845,535.75 845,525"/>
<polygon id="0x29d6420" class="l71d20" points="895.75,485 895.75,493.5 904.25,493.5 904.25,485 915,485 915,495.75 906.5,495.75 906.5,504.25 915,504.25 915,515 904.25,515 904.25,506.5 895.75,506.5 895.75,515 885,515 885,504.25 893.5,504.25 893.5,495.75 885,495.75 885,485"/>
<polygon id="0x29d6490" class="l71d20" points="895.75,525 895.75,533.5 904.25,533.5 904.25,525 915,525 915,535.75 906.5,535.75 906.5,544.25 915,544.25 915,555 904.25,555 904.25,546.5 895.75,546.5 895.75,555 885,555 885,544.25 893.5,544.25 893.5,535.75 885,535.75 885,525"/>
<polygon id="0x29ee710" class="l71d20" points="935.75,405 935.75,413.5 944.25,413.5 944.25,405 955,405 955,415.75 946.5,415.75 946.5,424.25 955,424.25 955,435 944.25,435 944.25,426.5 935.75,426.5 935.75,435 925,435 925,424.25 933.5,424.25 933.5,415.75 925,415.75 925,405"/>
<polygon id="0x29ee780" class="l71d20" points="935.75,445 935.75,453.5 944.25,453.5 944.25,445 955,445 955,455.75 946.5,455.75 946.5,464.25 955,464.25 955,475 944.25,475 944.25,466.5 935.75,466.5 935.75,475 925,475 925,464.25 933.5,464.25 933.5,455.75 925,455.75 925,445"/>
<polygon id="0x2a8aaa0" class="l71d20" points="935.75,485 935.75,493.5 944.25,493.5 944.25,485 955,485 955,495.75 946.5,495.75 946.5,504.25 955,504.25 955,515 944.25,515 944.25,506.5 935.75,506.5 935.75,515 925,515 925,504.25 933.5,504.25 933.5,495.75 925,495.75 925,485"/>
<polygon id="0x2a8ab10" class="l71d20" points="935.75,525 935.75,533.5 944.25,533.5 944.25,525 955,525 955,535.75 946.5,535.75 946.5,544.25 955,544.25 955,555 944.25,555 944.25,546.5 935.75,546.5 935.75,555 925,555 925,544.25 933.5,544.25 933.5,535.75 925,535.75 925,525"/>
<polygon id="0x2a815f0" class="l71d20" points="935.75,565 935.75,573.5 944.25,573.5 944.25,565 955,565 955,575.75 946.5,575.75 946.5,584.25 955,584.25 955,595 944.25,595 944.25,586.5 935.75,586.5 935.75,595 925,595 925,584.25 933.5,584.25 933.5,575.75 925,575.75 925,565"/>
<polygon id="0x2a81660" class="l71d20" points="935.75,605 935.75,613.5 944.25,613.5 944.25,605 955,605 955,615.75 946.5,615.75 946.5,624.25 955,624.25 955,635 944.25,635 944.25,626.5 935.75,626.5 935.75,635 925,635 925,624.25 933.5,624.25 933.5,615.75 925,615.75 925,605"/>
<polygon id="0x2a83580" class="l71d20" points="975.75,365 975.75,373.5 984.25,373.5 984.25,365 995,365 995,375.75 986.5,375.75 986.5,384.25 995,384.25 995,395 984.25,395 984.25,386.5 975.75,386.5 975.75,395 965,395 965,384.25 973.5,384.25 973.5,375.75 965,375.75 965,365"/>
<polygon id="0x2a835f0" class="l71d20" points="975.75,405 975.75,413.5 984.25,413.5 984.25,405 995,405 995,415.75 986.5,415.75 986.5,424.25 995,424.25 995,435 984.25,435 984.25,426.5 975.75,426.5 975.75,435 965,435 965,424.25 973.5,424.25 973.5,415.75 965,415.75 965,405"/>
<polygon id="0x2b69200" class="l71d20" points="975.75,445 975.75,453.5 984.25,453.5 984.25,445 995,445 995,455.75 986.5,455.75 986.5,464.25 995,464.25 995,475 984.25,475 984.25,466.5 975.75,466.5 975.75,475 965,475 965,464.25 973.5,464.25 973.5,455.75 965,455.75 965,445"/>
<polygon id="0x2b69270" class="l71d20" points="975.75,565 975.75,573.5 984.25,573.5 984.25,565 995,565 995,575.75 986.5,575.75 986.5,584.25 995,584.25 995,595 984.25,595 984.25,586.5 975.75,586.5 975.75,595 965,595 965,584.25 973.5,584.25 973.5,575.75 965,575.75 965,565"/>
<polygon id="0x2a46a40" class="l71d20" points="975.75,605 975.75,613.5 984.25,613.5 984.25,605 995,605 995,615.75 986.5,615.75 986.5,624.25 995,624.25 995,635 984.25,635 984.25,626.5 975.75,626.5 975.75,635 965,635 965,624.25 973.5,624.25 973.5,615.75 965,615.75 965,605"/>
<polygon id="0x2a46ab0" class="l71d20" points="975.75,645 975.75,653.5 984.25,653.5 984.25,645 995,645 995,655.75 986.5,655.75 986.5,664.25 995,664.25 995,675 984.25,675 984.25,666.5 975.75,666.5 975.75,675 965,675 965,664.25 973.5,664.25 973.5,655.75 965,655.75 965,645"/>
<polygon id="0x2a91410" class="l71d20" points="1015.75,405 1015.75,413.5 1024.25,413.5 1024.25,405 1035,405 1035,415.75 1026.5,415.75 1026.5,424.25 1035,424.25 1035,435 1024.25,435 1024.25,426.5 1015.75,426.5 1015.75,435 1005,435 1005,424.25 1013.5,424.25 1013.5,415.75 1005,415.75 1005,405"/>
<polygon id="0x2a91480" class="l71d20" points="1015.75,445 1015.75,453.5 1024.25,453.5 1024.25,445 1035,445 1035,455.75 1026.5,455.75 1026.5,464.25 1035,464.25 1035,475 1024.25,475 1024.25,466.5 1015.75,466.5 1015.75,475 1005,475 1005,464.25 1013.5,464.25 1013.5,455.75 1005,455.75 1005,445"/>
<polygon id="0x2b4aea0" class="l71d20" points="1015.75,485 1015.75,493.5 1024.25,493.5 1024.25,485 1035,485 1035,495.75 1026.5,495.75 1026.5,504.25 1035,504.25 1035,515 1024.25,515 1024.25,506.5 1015.75,506.5 1015.75,515 1005,515 1005,504.25 1013.5,504.25 1013.5,495.75 1005,495.75 1005,485"/>
<polygon id="0x2b4af10" class="l71d20" points="1015.75,525 1015.75,533.5 1024.25,533.5 1024.25,525 1035,525 1035,535.75 1026.5,535.75 1026.5,544.25 1035,544.25 1035,555 1024.25,555 1024.25,546.5 1015.75,546.5 1015.75,555 1005,555 1005,544.25 1013.5,544.25 1013.5,535.75 1005,535.75 1005,525"/>
<polygon id="0x2c2f620" class="l71d20" points="1015.75,565 1015.75,573.5 1024.25,573.5 1024.25,565 1035,565 1035,575.75 1026.5,575.75 1026.5,584.25 1035,584.25 1035,595 1024.25,595 1024.25,586.5 1015.75,586.5 1015.75,595 1005,595 1005,584.25 1013.5,584.25 1013.5,575.75 1005,575.75 1005,565"/>
<polygon id="0x2c2f7e0" class="l71d20" points="1015.75,605 1015.75,613.5 1024.25,613.5 1024.25,605 1035,605 1035,615.75 1026.5,615.75 1026.5,624.25 1035,624.25 1035,635 1024.25,635 1024.25,626.5 1015.75,626.5 1015.75,635 1005,635 1005,624.25 1013.5,624.25 1013.5,615.75 1005,615.75 1005,605"/>
<polygon id="0x2aa36e0" class="l235d4" points="0,0 40,0 40,40 0,40"/>
</g>
</svg>