<?xml version="1.0" encoding="UTF-8"?>
<svg xmlns="http://www.w3.org/2000/svg" xmlns:xlink="http://www.w3.org/1999/xlink" width="1140.48" height="780.48" viewBox="-53.64 -726.84 1140.48 780.48">
<defs>
<style type="text/css">
.l65d20 {stroke: #008856; fill: #008856; fill-opacity: 0.5;}
.l66d20 {stroke: #E68FAC; fill: #E68FAC; fill-opacity: 0.5;}
.l71d20 {stroke: #B3446C; fill: #B3446C; fill-opacity: 0.5;}
.l235d4 {stroke: #0067A5; fill: #0067A5; fill-opacity: 0.5;}
</style>
</defs>
<rect x="-53.64" y="-726.84" width="1140.48" height="780.48" fill="#222222" stroke="none"/>
<g id="my_logo" transform="scale(1 -1)">
<polygon id="0x1776320" class="l71d20" points="15.75,45 15.75,53.5 24.25,53.5 24.25,45 35,45 35,55.75 26.5,55.75 26.5,64.25 35,64.25 35,75 24.25,75 24.25,66.5 15.75,66.5 15.75,75 5,75 5,64.25 13.5,64.25 13.5,55.75 5,55.75 5,45"/>
<polygon id="0x1776e60" class="l71d20" points="15.75,245 15.75,253.5 24.25,253.5 24.25,245 35,245 35,255.75 26.5,255.75 26.5,264.25 35,264.25 35,275 24.25,275 24.25,266.5 15.75,266.5 15.75,275 5,275 5,264.25 13.5,264.25 13.5,255.75 5,255.75 5,245"/>
<polygon id="0x1776fa0" class="l71d20" points="55.75,5 55.75,13.5 64.25,13.5 64.25,5 75,5 75,15.75 66.5,15.75 66.5,24.25 75,24.25 75,35 64.25,35 64.25,26.5 55.75,26.5 55.75,35 45,35 45,24.25 53.5,24.25 53.5,15.75 45,15.75 45,5"/>
<polygon id="0x1777010" class="l71d20" points="55.75,45 55.75,53.5 64.25,53.5 64.25,45 75,45 75,55.75 66.5,55.75 66.5,64.25 75,64.25 75,75 64.25,75 64.25,66.5 55.75,66.5 55.75,75 45,75 45,64.25 53.5,64.25 53.5,55.75 45,55.75 45,45"/>
<polygon id="0x1777080" class="l71d20" points="55.75,85 55.75,93.5 64.25,93.5 64.25,85 75,85 75,95.75 66.5,95.75 66.5,104.25 75,104.25 75,115 64.25,115 64.25,106.5 55.75,106.5 55.75,115 45,115 45,104.25 53.5,104.25 53.5,95.75 45,95.75 45,85"/>
<polygon id="0x17770f0" class="l71d20" points="55.75,205 55.75,213.5 64.25,213.5 64.25,205 75,205 75,215.75 66.5,215.75 66.5,224.25 75,224.25 75,235 64.25,235 64.25,226.5 55.75,226.5 55.75,235 45,235 45,224.25 53.5,224.25 53.5,215.75 45,215.75 45,205"/>
<polygon id="0x17771b0" class="l71d20" points="55.75,245 55.75,253.5 64.25,253.5 64.25,245 75,245 75,255.75 66.5,255.75 66.5,264.25 75,264.25 75,275 64.25,275 64.25,266.5 55.75,266.5 55.75,275 45,275 45,264.25 53.5,264.25 53.5,255.75 45,255.75 45,245"/>
<polygon id="0x1777220" class="l71d20" points="55.75,285 55.75,293.5 64.25,293.5 64.25,285 75,285 75,295.75 66.5,295.75 66.5,304.25 75,304.25 75,315 64.25,315 64.25,306.5 55.75,306.5 55.75,315 45,315 45,304.25 53.5,304.25 53.5,295.75 45,295.75 45,285"/>
<polygon id="0x1777290" class="l71d20" points="95.75,85 95.75,93.5 104.25,93.5 104.25,85 115,85 115,95.75 106.5,95.75 106.5,104.25 115,104.25 115,115 104.25,115 104.25,106.5 95.75,106.5 95.75,115 85,115 85,104.25 93.5,104.25 93.5,95.75 85,95.75 85,85"/>
<polygon id="0x1777450" class="l71d20" points="95.75,125 95.75,133.5 104.25,133.5 104.25,125 115,125 115,135.75 106.5,135.75 106.5,144.25 115,144.25 115,155 104.25,155 104.25,146.5 95.75,146.5 95.75,155 85,155 85,144.25 93.5,144.25 93.5,135.75 85,135.75 85,125"/>
<polygon id="0x1777610" class="l71d20" points="95.75,165 95.75,173.5 104.25,173.5 104.25,165 115,165 115,175.75 106.5,175.75 106.5,184.25 115,184.25 115,195 104.25,195 104.25,186.5 95.75,186.5 95.75,195 85,195 85,184.25 93.5,184.25 93.5,175.75 85,175.75 85,165"/>
<polygon id="0x17777d0" class="l71d20" points="95.75,205 95.75,213.5 104.25,213.5 104.25,205 115,205 115,215.75 106.5,215.75 106.5,224.25 115,224.25 115,235 104.25,235 104.25,226.5 95.75,226.5 95.75,235 85,235 85,224.25 93.5,224.25 93.5,215.75 85,215.75 85,205"/>
<polygon id="0x1777990" class="l71d20" points="135.75,45 135.75,53.5 144.25,53.5 144.25,45 155,45 155,55.75 146.5,55.75 146.5,64.25 155,64.25 155,75 144.25,75 144.25,66.5 135.75,66.5 135.75,75 125,75 125,64.25 133.5,64.25 133.5,55.75 125,55.75 125,45"/>
<polygon id="0x1777b50" class="l71d20" points="135.75,125 135.75,133.5 144.25,133.5 144.25,125 155,125 155,135.75 146.5,135.75 146.5,144.25 155,144.25 155,155 144.25,155 144.25,146.5 135.75,146.5 135.75,155 125,155 125,144.25 133.5,144.25 133.5,135.75 125,135.75 125,125"/>
<polygon id="0x1777d10" class="l71d20" points="135.75,165 135.75,173.5 144.25,173.5 144.25,165 155,165 155,175.75 146.5,175.75 146.5,184.25 155,184.25 155,195 144.25,195 144.25,186.5 135.75,186.5 135.75,195 125,195 125,184.25 133.5,184.25 133.5,175.75 125,175.75 125,165"/>
<polygon id="0x1777ed0" class="l71d20" points="135.75,245 135.75,253.5 144.25,253.5 144.25,245 155,245 155,255.75 146.5,255.75 146.5,264.25 155,264.25 155,275 144.25,275 144.25,266.5 135.75,266.5 135.75,275 125,275 125,264.25 133.5,264.25 133.5,255.75 125,255.75 125,245"/>
<polygon id="0x1778090" class="l71d20" points="175.75,45 175.75,53.5 184.25,53.5 184.25,45 195,45 195,55.75 186.5,55.75 186.5,64.25 195,64.25 195,75 184.25,75 184.25,66.5 175.75,66.5 175.75,75 165,75 165,64.25 173.5,64.25 173.5,55.75 165,55.75 165,45"/>
<polygon id="0x1778250" class="l71d20" points="175.75,125 175.75,133.5 184.25,133.5 184.25,125 195,125 195,135.75 186.5,135.75 186.5,144.25 195,144.25 195,155 184.25,155 184.25,146.5 175.75,146.5 175.75,155 165,155 165,144.25 173.5,144.25 173.5,135.75 165,135.75 165,125"/>
<polygon id="0x1778410" class="l71d20" points="175.75,165 175.75,173.5 184.25,173.5 184.25,165 195,165 195,175.75 186.5,175.75 186.5,184.25 195,184.25 195,195 184.25,195 184.25,186.5 175.75,186.5 175.75,195 165,195 165,184.25 173.5,184.25 173.5,175.75 165,175.75 165,165"/>
<polygon id="0x17785d0" class="l71d20" points="175.75,245 175.75,253.5 184.25,253.5 184.25,245 195,245 195,255.75 186.5,255.75 186.5,264.25 195,264.25 195,275 184.25,275 184.25,266.5 175.75,266.5 175.75,275 165,275 165,264.25 173.5,264.25 173.5,255.75 165,255.75 165,245"/>
<polygon id="0x1778790" class="l71d20" points="215.75,85 215.75,93.5 224.25,93.5 224.25,85 235,85 235,95.75 226.5,95.75 226.5,104.25 235,104.25 235,115 224.25,115 224.25,106.5 215.75,106.5 215.75,115 205,115 205,104.25 213.5,104.25 213.5,95.75 205,95.75 205,85"/>
<polygon id="0x1778950" class="l71d20" points="215.75,125 215.75,133.5 224.25,133.5 224.25,125 235,125 235,135.75 226.5,135.75 226.5,144.25 235,144.25 235,155 224.25,155 224.25,146.5 215.75,146.5 215.75,155 205,155 205,144.25 213.5,144.25 213.5,135.75 205,135.75 205,125"/>
<polygon id="0x1778b10" class="l71d20" points="215.75,165 215.75,173.5 224.25,173.5 224.25,165 235,165 235,175.75 226.5,175.75 226.5,184.25 235,184.25 235,195 224.25,195 224.25,186.5 215.75,186.5 215.75,195 205,195 205,184.25 213.5,184.25 213.5,175.75 205,175.75 205,165"/>
<polygon id="0x1778cd0" class="l71d20" points="215.75,205 215.75,213.5 224.25,213.5 224.25,205 235,205 235,215.75 226.5,215.75 226.5,224.25 235,224.25 235,235 224.25,235 224.25,226.5 215.75,226.5 215.75,235 205,235 205,224.25 213.5,224.25 213.5,215.75 205,215.75 205,205"/>
<polygon id="0x1778e90" class="l71d20" points="255.75,5 255.75,13.5 264.25,13.5 264.25,5 275,5 275,15.75 266.5,15.75 266.5,24.25 275,24.25 275,35 264.25,35 264.25,26.5 255.75,26.5 255.75,35 245,35 245,24.25 253.5,24.25 253.5,15.75 245,15.75 245,5"/>
<polygon id="0x1779050" class="l71d20" points="255.75,45 255.75,53.5 264.25,53.5 264.25,45 275,45 275,55.75 266.5,55.75 266.5,64.25 275,64.25 275,75 264.25,75 264.25,66.5 255.75,66.5 255.75,75 245,75 245,64.25 253.5,64.25 253.5,55.75 245,55.75 245,45"/>
<polygon id="0x1779210" class="l71d20" points="255.75,85 255.75,93.5 264.25,93.5 264.25,85 275,85 275,95.75 266.5,95.75 266.5,104.25 275,104.25 275,115 264.25,115 264.25,106.5 255.75,106.5 255.75,115 245,115 245,104.25 253.5,104.25 253.5,95.75 245,95.75 245,85"/>
<polygon id="0x17793d0" class="l71d20" points="255.75,205 255.75,213.5 264.25,213.5 264.25,205 275,205 275,215.75 266.5,215.75 266.5,224.25 275,224.25 275,235 264.25,235 264.25,226.5 255.75,226.5 255.75,235 245,235 245,224.25 253.5,224.25 253.5,215.75 245,215.75 245,205"/>
<polygon id="0x1779590" class="l71d20" points="255.75,245 255.75,253.5 264.25,253.5 264.25,245 275,245 275,255.75 266.5,255.75 266.5,264.25 275,264.25 275,275 264.25,275 264.25,266.5 255.75,266.5 255.75,275 245,275 245,264.25 253.5,264.25 253.5,255.75 245,255.75 245,245"/>
<polygon id="0x1779750" class="l71d20" points="255.75,285 255.75,293.5 264.25,293.5 264.25,285 275,285 275,295.75 266.5,295.75 266.5,304.25 275,304.25 275,315 264.25,315 264.25,306.5 255.75,306.5 255.75,315 245,315 245,304.25 253.5,304.25 253.5,295.75 245,295.75 245,285"/>
<polygon id="0x1779910" class="l71d20" points="295.75,45 295.75,53.5 304.25,53.5 304.25,45 315,45 315,55.75 306.5,55.75 306.5,64.25 315,64.25 315,75 304.25,75 304.25,66.5 295.75,66.5 295.75,75 285,75 285,64.25 293.5,64.25 293.5,55.75 285,55.75 285,45"/>
<polygon id="0x1779ad0" class="l71d20" points="295.75,245 295.75,253.5 304.25,253.5 304.25,245 315,245 315,255.75 306.5,255.75 306.5,264.25 315,264.25 315,275 304.25,275 304.25,266.5 295.75,266.5 295.75,275 285,275 285,264.25 293.5,264.25 293.5,255.75 285,255.75 285,245"/>
<polygon id="0x1779c90" class="l71d20" points="15.75,365 15.75,373.5 24.25,373.5 24.25,365 35,365 35,375.75 26.5,375.75 26.5,384.25 35,384.25 35,395 24.25,395 24.25,386.5 15.75,386.5 15.75,395 5,395 5,384.25 13.5,384.25 13.5,375.75 5,375.75 5,365"/>
<polygon id="0x1779e50" class="l71d20" points="15.75,485 15.75,493.5 24.25,493.5 24.25,485 35,485 35,495.75 26.5,495.75 26.5,504.25 35,504.25 35,515 24.25,515 24.25,506.5 15.75,506.5 15.75,515 5,515 5,504.25 13.5,504.25 13.5,495.75 5,495.75 5,485"/>
<polygon id="0x177a010" class="l71d20" points="15.75,525 15.75,533.5 24.25,533.5 24.25,525 35,525 35,535.75 26.5,535.75 26.5,544.25 35,544.25 35,555 24.25,555 24.25,546.5 15.75,546.5 15.75,555 5,555 5,544.25 13.5,544.25 13.5,535.75 5,535.75 5,525"/>
<polygon id="0x177a1d0" class="l71d20" points="15.75,645 15.75,653.5 24.25,653.5 24.25,645 35,645 35,655.75 26.5,655.75 26.5,664.25 35,664.25 35,675 24.25,675 24.25,666.5 15.75,666.5 15.75,675 5,675 5,664.25 13.5,664.25 13.5,655.75 5,655.75 5,645"/>
<polygon id="0x177a390" class="l71d20" points="55.75,365 55.75,373.5 64.25,373.5 64.25,365 75,365 75,375.75 66.5,375.75 66.5,384.25 75,384.25 75,395 64.25,395 64.25,386.5 55.75,386.5 55.75,395 45,395 45,384.25 53.5,384.25 53.5,375.75 45,375.75 45,365"/>
<polygon id="0x177a550" class="l71d20" points="55.75,445 55.75,453.5 64.25,453.5 64.25,445 75,445 75,455.75 66.5,455.75 66.5,464.25 75,464.25 75,475 64.25,475 64.25,466.5 55.75,466.5 55.75,475 45,475 45,464.25 53.5,464.25 53.5,455.75 45,455.75 45,445"/>
<polygon id="0x177a710" class="l71d20" points="55.75,565 55.75,573.5 64.25,573.5 64.25,565 75,565 75,575.75 66.5,575.75 66.5,584.25 75,584.25 75,595 64.25,595 64.25,586.5 55.75,586.5 55.75,595 45,595 45,584.25 53.5,584.25 53.5,575.75 45,575.75 45,565"/>
<polygon id="0x177a8d0" class="l71d20" points="55.75,645 55.75,653.5 64.25,653.5 64.25,645 75,645 75,655.75 66.5,655.75 66.5,664.25 75,664.25 75,675 64.25,675 64.25,666.5 55.75,666.5 55.75,675 45,675 45,664.25 53.5,664.25 53.5,655.75 45,655.75 45,645"/>
<polygon id="0x177aa90" class="l71d20" points="95.75,405 95.75,413.5 104.25,413.5 104.25,405 115,405 115,415.75 106.5,415.75 106.5,424.25 115,424.25 115,435 104.25,435 104.25,426.5 95.75,426.5 95.75,435 85,435 85,424.25 93.5,424.25 93.5,415.75 85,415.75 85,405"/>
<polygon id="0x177ac50" class="l71d20" points="95.75,445 95.75,453.5 104.25,453.5 104.25,445 115,445 115,455.75 106.5,455.75 106.5,464.25 115,464.25 115,475 104.25,475 104.25,466.5 95.75,466.5 95.75,475 85,475 85,464.25 93.5,464.25 93.5,455.75 85,455.75 85,445"/>
<polygon id="0x177ae10" class="l71d20" points="95.75,485 95.75,493.5 104.25,493.5 104.25,485 115,485 115,495.75 106.5,495.75 106.5,504.25 115,504.25 115,515 104.25,515 104.25,506.5 95.75,506.5 95.75,515 85,515 85,504.25 93.5,504.25 93.5,495.75 85,495.75 85,485"/>
<polygon id="0x177afd0" class="l71d20" points="95.75,525 95.75,533.5 104.25,533.5 104.25,525 115,525 115,535.75 106.5,535.75 106.5,544.25 115,544.25 115,555 104.25,555 104.25,546.5 95.75,546.5 95.75,555 85,555 85,544.25 93.5,544.25 93.5,535.75 85,535.75 85,525"/>
<polygon id="0x177b190" class="l71d20" points="95.75,565 95.75,573.5 104.25,573.5 104.25,565 115,565 115,575.75 106.5,575.75 106.5,584.25 115,584.25 115,595 104.25,595 104.25,586.5 95.75,586.5 95.75,595 85,595 85,584.25 93.5,584.25 93.5,575.75 85,575.75 85,565"/>
<polygon id="0x177b350" class="l71d20" points="95.75,605 95.75,613.5 104.25,613.5 104.25,605 115,605 115,615.75 106.5,615.75 106.5,624.25 115,624.25 115,635 104.25,635 104.25,626.5 95.75,626.5 95.75,635 85,635 85,624.25 93.5,624.25 93.5,615.75 85,615.75 85,605"/>
<polygon id="0x177b510" class="l71d20" points="135.75,405 135.75,413.5 144.25,413.5 144.25,405 155,405 155,415.75 146.5,415.75 146.5,424.25 155,424.25 155,435 144.25,435 144.25,426.5 135.75,426.5 135.75,435 125,435 125,424.25 133.5,424.25 133.5,415.75 125,415.75 125,405"/>
<polygon id="0x177b6d0" class="l71d20" points="135.75,605 135.75,613.5 144.25,613.5 144.25,605 155,605 155,615.75 146.5,615.75 146.5,624.25 155,624.25 155,635 144.25,635 144.25,626.5 135.75,626.5 135.75,635 125,635 125,624.25 133.5,624.25 133.5,615.75 125,615.75 125,605"/>
<polygon id="0x177b890" class="l71d20" points="175.75,405 175.75,413.5 184.25,413.5 184.25,405 195,405 195,415.75 186.5,415.75 186.5,424.25 195,424.25 195,435 184.25,435 184.25,426.5 175.75,426.5 175.75,435 165,435 165,424.25 173.5,424.25 173.5,415.75 165,415.75 165,405"/>
<polygon id="0x177ba50" class="l71d20" points="175.75,605 175.75,613.5 184.25,613.5 184.25,605 195,605 195,615.75 186.5,615.75 186.5,624.25 195,624.25 195,635 184.25,635 184.25,626.5 175.75,626.5 175.75,635 165,635 165,624.25 173.5,624.25 173.5,615.75 165,615.75 165,605"/>
<polygon id="0x177bc10" class="l71d20" points="215.75,405 215.75,413.5 224.25,413.5 224.25,405 235,405 235,415.75 226.5,415.75 226.5,424.25 235,424.25 235,435 224.25,435 224.25,426.5 215.75,426.5 215.75,435 205,435 205,424.25 213.5,424.25 213.5,415.75 205,415.75 205,405"/>
<polygon id="0x177bdd0" class="l71d20" points="215.75,445 215.75,453.5 224.25,453.5 224.25,445 235,445 235,455.75 226.5,455.75 226.5,464.25 235,464.25 235,475 224.25,475 224.25,466.5 215.75,466.5 215.75,475 205,475 205,464.25 213.5,464.25 213.5,455.75 205,455.75 205,445"/>
<polygon id="0x177bf90" class="l71d20" points="215.75,485 215.75,493.5 224.25,493.5 224.25,485 235,485 235,495.75 226.5,495.75 226.5,504.25 235,504.25 235,515 224.25,515 224.25,506.5 215.75,506.5 215.75,515 205,515 205,504.25 213.5,504.25 213.5,495.75 205,495.75 205,485"/>
<polygon id="0x177c150" class="l71d20" points="215.75,525 215.75,533.5 224.25,533.5 224.25,525 235,525 235,535.75 226.5,535.75 226.5,544.25 235,544.25 235,555 224.25,555 224.25,546.5 215.75,546.5 215.75,555 205,555 205,544.25 213.5,544.25 213.5,535.75 205,535.75 205,525"/>
<polygon id="0x177c310" class="l71d20" points="215.75,565 215.75,573.5 224.25,573.5 224.25,565 235,565 235,575.75 226.5,575.75 226.5,584.25 235,584.25 235,595 224.25,595 224.25,586.5 215.75,586.5 215.75,595 205,595 205,584.25 213.5,584.25 213.5,575.75 205,575.75 205,565"/>
<polygon id="0x177c4d0" class="l71d20" points="215.75,605 215.75,613.5 224.25,613.5 224.25,605 235,605 235,615.75 226.5,615.75 226.5,624.25 235,624.25 235,635 224.25,635 224.25,626.5 215.75,626.5 215.75,635 205,635 205,624.25 213.5,624.25 213.5,615.75 205,615.75 205,605"/>
<polygon id="0x177c690" class="l71d20" points="255.75,365 255.75,373.5 264.25,373.5 264.25,365 275,365 275,375.75 266.5,375.75 266.5,384.25 275,384.25 275,395 264.25,395 264.25,386.5 255.75,386.5 255.75,395 245,395 245,384.25 253.5,384.25 253.5,375.75 245,375.75 245,365"/>
<polygon id="0x177c850" class="l71d20" points="255.75,445 255.75,453.5 264.25,453.5 264.25,445 275,445 275,455.75 266.5,455.75 266.5,464.25 275,464.25 275,475 264.25,475 264.25,466.5 255.75,466.5 255.75,475 245,475 245,464.25 253.5,464.25 253.5,455.75 245,455.75 245,445"/>
<polygon id="0x177ca10" class="l71d20" points="255.75,565 255.75,573.5 264.25,573.5 264.25,565 275,565 275,575.75 266.5,575.75 266.5,584.25 275,584.25 275,595 264.25,595 264.25,586.5 255.75,586.5 255.75,595 245,595 245,584.25 253.5,584.25 253.5,575.75 245,575.75 245,565"/>
<polygon id="0x177cbd0" class="l71d20" points="255.75,645 255.75,653.5 264.25,653.5 264.25,645 275,645 275,655.75 266.5,655.75 266.5,664.25 275,664.25 275,675 264.25,675 264.25,666.5 255.75,666.5 255.75,675 245,675 245,664.25 253.5,664.25 253.5,655.75 245,655.75 245,645"/>
<polygon id="0x177d4b0" class="l71d20" points="295.75,365 295.75,373.5 304.25,373.5 304.25,365 315,365 315,375.75 306.5,375.75 306.5,384.25 315,384.25 315,395 304.25,395 304.25,386.5 295.75,386.5 295.75,395 285,395 285,384.25 293.5,384.25 293.5,375.75 285,375.75 285,365"/>
<polygon id="0x1716520" class="l71d20" points="295.75,485 295.75,493.5 304.25,493.5 304.25,485 315,485 315,495.75 306.5,495.75 306.5,504.25 315,504.25 315,515 304.25,515 304.25,506.5 295.75,506.5 295.75,515 285,515 285,504.25 293.5,504.25 293.5,495.75 285,495.75 285,485"/>
<polygon id="0x16e9a00" class="l71d20" points="295.75,525 295.75,533.5 304.25,533.5 304.25,525 315,525 315,535.75 306.5,535.75 306.5,544.25 315,544.25 315,555 304.25,555 304.25,546.5 295.75,546.5 295.75,555 285,555 285,544.25 293.5,544.25 293.5,535.75 285,535.75 285,525"/>
<polygon id="0x16ff270" class="l71d20" points="295.75,645 295.75,653.5 304.25,653.5 304.25,645 315,645 315,655.75 306.5,655.75 306.5,664.25 315,664.25 315,675 304.25,675 304.25,666.5 295.75,666.5 295.75,675 285,675 285,664.25 293.5,664.25 293.5,655.75 285,655.75 285,645"/>
<polygon id="0x16a7f50" class="l71d20" points="375.75,5 375.75,13.5 384.25,13.5 384.25,5 395,5 395,15.75 386.5,15.75 386.5,24.25 395,24.25 395,35 384.25,35 384.25,26.5 375.75,26.5 375.75,35 365,35 365,24.25 373.5,24.25 373.5,15.75 365,15.75 365,5"/>
<polygon id="0x16be080" class="l71d20" points="375.75,45 375.75,53.5 384.25,53.5 384.25,45 395,45 395,55.75 386.5,55.75 386.5,64.25 395,64.25 395,75 384.25,75 384.25,66.5 375.75,66.5 375.75,75 365,75 365,64.25 373.5,64.25 373.5,55.75 365,55.75 365,45"/>
<polygon id="0x16d15c0" class="l71d20" points="375.75,125 375.75,133.5 384.25,133.5 384.25,125 395,125 395,135.75 386.5,135.75 386.5,144.25 395,144.25 395,155 384.25,155 384.25,146.5 375.75,146.5 375.75,155 365,155 365,144.25 373.5,144.25 373.5,135.75 365,135.75 365,125"/>
<polygon id="0x14b6a90" class="l71d20" points="375.75,165 375.75,173.5 384.25,173.5 384.25,165 395,165 395,175.75 386.5,175.75 386.5,184.25 395,184.25 395,195 384.25,195 384.25,186.5 375.75,186.5 375.75,195 365,195 365,184.25 373.5,184.25 373.5,175.75 365,175.75 365,165"/>
<polygon id="0x13d4b90" class="l71d20" points="375.75,245 375.75,253.5 384.25,253.5 384.25,245 395,245 395,255.75 386.5,255.75 386.5,264.25 395,264.25 395,275 384.25,275 384.25,266.5 375.75,266.5 375.75,275 365,275 365,264.25 373.5,264.25 373.5,255.75 365,255.75 365,245"/>
<polygon id="0x153f2d0" class="l71d20" points="375.75,285 375.75,293.5 384.25,293.5 384.25,285 395,285 395,295.75 386.5,295.75 386.5,304.25 395,304.25 395,315 384.25,315 384.25,306.5 375.75,306.5 375.75,315 365,315 365,304.25 373.5,304.25 373.5,295.75 365,295.75 365,285"/>
<polygon id="0x154baf0" class="l71d20" points="415.75,85 415.75,93.5 424.25,93.5 424.25,85 435,85 435,95.75 426.5,95.75 426.5,104.25 435,104.25 435,115 424.25,115 424.25,106.5 415.75,106.5 415.75,115 405,115 405,104.25 413.5,104.25 413.5,95.75 405,95.75 405,85"/>
<polygon id="0x14df680" class="l71d20" points="415.75,125 415.75,133.5 424.25,133.5 424.25,125 435,125 435,135.75 426.5,135.75 426.5,144.25 435,144.25 435,155 424.25,155 424.25,146.5 415.75,146.5 415.75,155 405,155 405,144.25 413.5,144.25 413.5,135.75 405,135.75 405,125"/>
<polygon id="0x1682a10" class="l71d20" points="415.75,165 415.75,173.5 424.25,173.5 424.25,165 435,165 435,175.75 426.5,175.75 426.5,184.25 435,184.25 435,195 424.25,195 424.25,186.5 415.75,186.5 415.75,195 405,195 405,184.25 413.5,184.25 413.5,175.75 405,175.75 405,165"/>
<polygon id="0x16610f0" class="l71d20" points="415.75,205 415.75,213.5 424.25,213.5 424.25,205 435,205 435,215.75 426.5,215.75 426.5,224.25 435,224.25 435,235 424.25,235 424.25,226.5 415.75,226.5 415.75,235 405,235 405,224.25 413.5,224.25 413.5,215.75 405,215.75 405,205"/>
<polygon id="0x1661160" class="l71d20" points="455.75,5 455.75,13.5 464.25,13.5 464.25,5 475,5 475,15.75 466.5,15.75 466.5,24.25 475,24.25 475,35 464.25,35 464.25,26.5 455.75,26.5 455.75,35 445,35 445,24.25 453.5,24.25 453.5,15.75 445,15.75 445,5"/>
<polygon id="0x16755a0" class="l71d20" points="455.75,285 455.75,293.5 464.25,293.5 464.25,285 475,285 475,295.75 466.5,295.75 466.5,304.25 475,304.25 475,315 464.25,315 464.25,306.5 455.75,306.5 455.75,315 445,315 445,304.25 453.5,304.25 453.5,295.75 445,295.75 445,285"/>
<polygon id="0x1675610" class="l71d20" points="495.75,5 495.75,13.5 504.25,13.5 504.25,5 515,5 515,15.75 506.5,15.75 506.5,24.25 515,24.25 515,35 504.25,35 504.25,26.5 495.75,26.5 495.75,35 485,35 485,24.25 493.5,24.25 493.5,15.75 485,15.75 485,5"/>
<polygon id="0x169e8a0" class="l71d20" points="495.75,285 495.75,293.5 504.25,293.5 504.25,285 515,285 515,295.75 506.5,295.75 506.5,304.25 515,304.25 515,315 504.25,315 504.25,306.5 495.75,306.5 495.75,315 485,315 485,304.25 493.5,304.25 493.5,295.75 485,295.75 485,285"/>
<polygon id="0x169e910" class="l71d20" points="535.75,5 535.75,13.5 544.25,13.5 544.25,5 555,5 555,15.75 546.5,15.75 546.5,24.25 555,24.25 555,35 544.25,35 544.25,26.5 535.75,26.5 535.75,35 525,35 525,24.25 533.5,24.25 533.5,15.75 525,15.75 525,5"/>
<polygon id="0x169fac0" class="l71d20" points="535.75,285 535.75,293.5 544.25,293.5 544.25,285 555,285 555,295.75 546.5,295.75 546.5,304.25 555,304.25 555,315 544.25,315 544.25,306.5 535.75,306.5 535.75,315 525,315 525,304.25 533.5,304.25 533.5,295.75 525,295.75 525,285"/>
<polygon id="0x169fb30" class="l71d20" points="575.75,5 575.75,13.5 584.25,13.5 584.25,5 595,5 595,15.75 586.5,15.75 586.5,24.25 595,24.25 595,35 584.25,35 584.25,26.5 575.75,26.5 575.75,35 565,35 565,24.25 573.5,24.25 573.5,15.75 565,15.75 565,5"/>
<polygon id="0x16d2d60" class="l71d20" points="575.75,285 575.75,293.5 584.25,293.5 584.25,285 595,285 595,295.75 586.5,295.75 586.5,304.25 595,304.25 595,315 584.25,315 584.25,306.5 575.75,306.5 575.75,315 565,315 565,304.25 573.5,304.25 573.5,295.75 565,295.75 565,285"/>
<polygon id="0x16d2dd0" class="l71d20" points="615.75,85 615.75,93.5 624.25,93.5 624.25,85 635,85 635,95.75 626.5,95.75 626.5,104.25 635,104.25 635,115 624.25,115 624.25,106.5 615.75,106.5 615.75,115 605,115 605,104.25 613.5,104.25 613.5,95.75 605,95.75 605,85"/>
<polygon id="0x1711510" class="l71d20" points="615.75,125 615.75,133.5 624.25,133.5 624.25,125 635,125 635,135.75 626.5,135.75 626.5,144.25 635,144.25 635,155 624.25,155 624.25,146.5 615.75,146.5 615.75,155 605,155 605,144.25 613.5,144.25 613.5,135.75 605,135.75 605,125"/>
<polygon id="0x1711580" class="l71d20" points="615.75,165 615.75,173.5 624.25,173.5 624.25,165 635,165 635,175.75 626.5,175.75 626.5,184.25 635,184.25 635,195 624.25,195 624.25,186.5 615.75,186.5 615.75,195 605,195 605,184.25 613.5,184.25 613.5,175.75 605,175.75 605,165"/>
<polygon id="0x1712cb0" class="l71d20" points="615.75,205 615.75,213.5 624.25,213.5 624.25,205 635,205 635,215.75 626.5,215.75 626.5,224.25 635,224.25 635,235 624.25,235 624.25,226.5 615.75,226.5 615.75,235 605,235 605,224.25 613.5,224.25 613.5,215.75 605,215.75 605,205"/>
<polygon id="0x1712d20" class="l71d20" points="655.75,5 655.75,13.5 664.25,13.5 664.25,5 675,5 675,15.75 666.5,15.75 666.5,24.25 675,24.25 675,35 664.25,35 664.25,26.5 655.75,26.5 655.75,35 645,35 645,24.25 653.5,24.25 653.5,15.75 645,15.75 645,5"/>
<polygon id="0x1727e80" class="l71d20" points="655.75,45 655.75,53.5 664.25,53.5 664.25,45 675,45 675,55.75 666.5,55.75 666.5,64.25 675,64.25 675,75 664.25,75 664.25,66.5 655.75,66.5 655.75,75 645,75 645,64.25 653.5,64.25 653.5,55.75 645,55.75 645,45"/>
<polygon id="0x1727ef0" class="l71d20" points="655.75,125 655.75,133.5 664.25,133.5 664.25,125 675,125 675,135.75 666.5,135.75 666.5,144.25 675,144.25 675,155 664.25,155 664.25,146.5 655.75,146.5 655.75,155 645,155 645,144.25 653.5,144.25 653.5,135.75 645,135.75 645,125"/>
<polygon id="0x1758290" class="l71d20" points="655.75,165 655.75,173.5 664.25,173.5 664.25,165 675,165 675,175.75 666.5,175.75 666.5,184.25 675,184.25 675,195 664.25,195 664.25,186.5 655.75,186.5 655.75,195 645,195 645,184.25 653.5,184.25 653.5,175.75 645,175.75 645,165"/>
<polygon id="0x1758300" class="l71d20" points="655.75,245 655.75,253.5 664.25,253.5 664.25,245 675,245 675,255.75 666.5,255.75 666.5,264.25 675,264.25 675,275 664.25,275 664.25,266.5 655.75,266.5 655.75,275 645,275 645,264.25 653.5,264.25 653.5,255.75 645,255.75 645,245"/>
<polygon id="0x14fc5a0" class="l71d20" points="655.75,285 655.75,293.5 664.25,293.5 664.25,285 675,285 675,295.75 666.5,295.75 666.5,304.25 675,304.25 675,315 664.25,315 664.25,306.5 655.75,306.5 655.75,315 645,315 645,304.25 653.5,304.25 653.5,295.75 645,295.75 645,285"/>
<polygon id="0x1527880" class="l71d20" points="375.75,365 375.75,373.5 384.25,373.5 384.25,365 395,365 395,375.75 386.5,375.75 386.5,384.25 395,384.25 395,395 384.25,395 384.25,386.5 375.75,386.5 375.75,395 365,395 365,384.25 373.5,384.25 373.5,375.75 365,375.75 365,365"/>
<polygon id="0x1591730" class="l71d20" points="375.75,445 375.75,453.5 384.25,453.5 384.25,445 395,445 395,455.75 386.5,455.75 386.5,464.25 395,464.25 395,475 384.25,475 384.25,466.5 375.75,466.5 375.75,475 365,475 365,464.25 373.5,464.25 373.5,455.75 365,455.75 365,445"/>
<polygon id="0x1658580" class="l71d20" points="375.75,565 375.75,573.5 384.25,573.5 384.25,565 395,565 395,575.75 386.5,575.75 386.5,584.25 395,584.25 395,595 384.25,595 384.25,586.5 375.75,586.5 375.75,595 365,595 365,584.25 373.5,584.25 373.5,575.75 365,575.75 365,565"/>
<polygon id="0x1724c80" class="l71d20" points="375.75,645 375.75,653.5 384.25,653.5 384.25,645 395,645 395,655.75 386.5,655.75 386.5,664.25 395,664.25 395,675 384.25,675 384.25,666.5 375.75,666.5 375.75,675 365,675 365,664.25 373.5,664.25 373.5,655.75 365,655.75 365,645"/>
<polygon id="0x1716a70" class="l71d20" points="415.75,365 415.75,373.5 424.25,373.5 424.25,365 435,365 435,375.75 426.5,375.75 426.5,384.25 435,384.25 435,395 424.25,395 424.25,386.5 415.75,386.5 415.75,395 405,395 405,384.25 413.5,384.25 413.5,375.75 405,375.75 405,365"/>
<polygon id="0x1548180" class="l71d20" points="415.75,445 415.75,453.5 424.25,453.5 424.25,445 435,445 435,455.75 426.5,455.75 426.5,464.25 435,464.25 435,475 424.25,475 424.25,466.5 415.75,466.5 415.75,475 405,475 405,464.25 413.5,464.25 413.5,455.75 405,455.75 405,445"/>
<polygon id="0x15ed130" class="l71d20" points="415.75,485 415.75,493.5 424.25,493.5 424.25,485 435,485 435,495.75 426.5,495.75 426.5,504.25 435,504.25 435,515 424.25,515 424.25,506.5 415.75,506.5 415.75,515 405,515 405,504.25 413.5,504.25 413.5,495.75 405,495.75 405,485"/>
<polygon id="0x162ff60" class="l71d20" points="415.75,525 415.75,533.5 424.25,533.5 424.25,525 435,525 435,535.75 426.5,535.75 426.5,544.25 435,544.25 435,555 424.25,555 424.25,546.5 415.75,546.5 415.75,555 405,555 405,544.25 413.5,544.25 413.5,535.75 405,535.75 405,525"/>
<polygon id="0x1689ef0" class="l71d20" points="415.75,565 415.75,573.5 424.25,573.5 424.25,565 435,565 435,575.75 426.5,575.75 426.5,584.25 435,584.25 435,595 424.25,595 424.25,586.5 415.75,586.5 415.75,595 405,595 405,584.25 413.5,584.25 413.5,575.75 405,575.75 405,565"/>
<polygon id="0x16672e0" class="l71d20" points="415.75,645 415.75,653.5 424.25,653.5 424.25,645 435,645 435,655.75 426.5,655.75 426.5,664.25 435,664.25 435,675 424.25,675 424.25,666.5 415.75,666.5 415.75,675 405,675 405,664.25 413.5,664.25 413.5,655.75 405,655.75 405,645"/>
<polygon id="0x16a8ea0" class="l71d20" points="455.75,405 455.75,413.5 464.25,413.5 464.25,405 475,405 475,415.75 466.5,415.75 466.5,424.25 475,424.25 475,435 464.25,435 464.25,426.5 455.75,426.5 455.75,435 445,435 445,424.25 453.5,424.25 453.5,415.75 445,415.75 445,405"/>
<polygon id="0x16b2e50" class="l71d20" points="455.75,485 455.75,493.5 464.25,493.5 464.25,485 475,485 475,495.75 466.5,495.75 466.5,504.25 475,504.25 475,515 464.25,515 464.25,506.5 455.75,506.5 455.75,515 445,515 445,504.25 453.5,504.25 453.5,495.75 445,495.75 445,485"/>
<polygon id="0x1732600" class="l71d20" points="455.75,525 455.75,533.5 464.25,533.5 464.25,525 475,525 475,535.75 466.5,535.75 466.5,544.25 475,544.25 475,555 464.25,555 464.25,546.5 455.75,546.5 455.75,555 445,555 445,544.25 453.5,544.25 453.5,535.75 445,535.75 445,525"/>
<polygon id="0x170f010" class="l71d20" points="455.75,605 455.75,613.5 464.25,613.5 464.25,605 475,605 475,615.75 466.5,615.75 466.5,624.25 475,624.25 475,635 464.25,635 464.25,626.5 455.75,626.5 455.75,635 445,635 445,624.25 453.5,624.25 453.5,615.75 445,615.75 445,605"/>
<polygon id="0x15f5a40" class="l71d20" points="495.75,485 495.75,493.5 504.25,493.5 504.25,485 515,485 515,495.75 506.5,495.75 506.5,504.25 515,504.25 515,515 504.25,515 504.25,506.5 495.75,506.5 495.75,515 485,515 485,504.25 493.5,504.25 493.5,495.75 485,495.75 485,485"/>
<polygon id="0x165bfb0" class="l71d20" points="495.75,525 495.75,533.5 504.25,533.5 504.25,525 515,525 515,535.75 506.5,535.75 506.5,544.25 515,544.25 515,555 504.25,555 504.25,546.5 495.75,546.5 495.75,555 485,555 485,544.25 493.5,544.25 493.5,535.75 485,535.75 485,525"/>
<polygon id="0x16c3e20" class="l71d20" points="535.75,485 535.75,493.5 544.25,493.5 544.25,485 555,485 555,495.75 546.5,495.75 546.5,504.25 555,504.25 555,515 544.25,515 544.25,506.5 535.75,506.5 535.75,515 525,515 525,504.25 533.5,504.25 533.5,495.75 525,495.75 525,485"/>
<polygon id="0x16cb510" class="l71d20" points="535.75,525 535.75,533.5 544.25,533.5 544.25,525 555,525 555,535.75 546.5,535.75 546.5,544.25 555,544.25 555,555 544.25,555 544.25,546.5 535.75,546.5 535.75,555 525,555 525,544.25 533.5,544.25 533.5,535.75 525,535.75 525,525"/>
<polygon id="0x171a860" class="l71d20" points="575.75,405 575.75,413.5 584.25,413.5 584.25,405 595,405 595,415.75 586.5,415.75 586.5,424.25 595,424.25 595,435 584.25,435 584.25,426.5 575.75,426.5 575.75,435 565,435 565,424.25 573.5,424.25 573.5,415.75 565,415.75 565,405"/>
<polygon id="0x17334f0" class="l71d20" points="575.75,485 575.75,493.5 584.25,493.5 584.25,485 595,485 595,495.75 586.5,495.75 586.5,504.25 595,504.25 595,515 584.25,515 584.25,506.5 575.75,506.5 575.75,515 565,515 565,504.25 573.5,504.25 573.5,495.75 565,495.75 565,485"/>
<polygon id="0x17506a0" class="l71d20" points="575.75,525 575.75,533.5 584.25,533.5 584.25,525 595,525 595,535.75 586.5,535.75 586.5,544.25 595,544.25 595,555 584.25,555 584.25,546.5 575.75,546.5 575.75,555 565,555 565,544.25 573.5,544.25 573.5,535.75 565,535.75 565,525"/>
<polygon id="0x14b74e0" class="l71d20" points="575.75,605 575.75,613.5 584.25,613.5 584.25,605 595,605 595,615.75 586.5,615.75 586.5,624.25 595,624.25 595,635 584.25,635 584.25,626.5 575.75,626.5 575.75,635 565,635 565,624.25 573.5,624.25 573.5,615.75 565,615.75 565,605"/>
<polygon id="0x1776d60" class="l71d20" points="615.75,365 615.75,373.5 624.25,373.5 624.25,365 635,365 635,375.75 626.5,375.75 626.5,384.25 635,384.25 635,395 624.25,395 624.25,386.5 615.75,386.5 615.75,395 605,395 605,384.25 613.5,384.25 613.5,375.75 605,375.75 605,365"/>
<polygon id="0x1513480" class="l71d20" points="615.75,445 615.75,453.5 624.25,453.5 624.25,445 635,445 635,455.75 626.5,455.75 626.5,464.25 635,464.25 635,475 624.25,475 624.25,466.5 615.75,466.5 615.75,475 605,475 605,464.25 613.5,464.25 613.5,455.75 605,455.75 605,445"/>
<polygon id="0x157eb20" class="l71d20" points="615.75,485 615.75,493.5 624.25,493.5 624.25,485 635,485 635,495.75 626.5,495.75 626.5,504.25 635,504.25 635,515 624.25,515 624.25,506.5 615.75,506.5 615.75,515 605,515 605,504.25 613.5,504.25 613.5,495.75 605,495.75 605,485"/>
<polygon id="0x15aa840" class="l71d20" points="615.75,525 615.75,533.5 624.25,533.5 624.25,525 635,525 635,535.75 626.5,535.75 626.5,544.25 635,544.25 635,555 624.25,555 624.25,546.5 615.75,546.5 615.75,555 605,555 605,544.25 613.5,544.25 613.5,535.75 605,535.75 605,525"/>
<polygon id="0x15b94c0" class="l71d20" points="615.75,565 615.75,573.5 624.25,573.5 624.25,565 635,565 635,575.75 626.5,575.75 626.5,584.25 635,584.25 635,595 624.25,595 624.25,586.5 615.75,586.5 615.75,595 605,595 605,584.25 613.5,584.25 613.5,575.75 605,575.75 605,565"/>
<polygon id="0x16707d0" class="l71d20" points="615.75,645 615.75,653.5 624.25,653.5 624.25,645 635,645 635,655.75 626.5,655.75 626.5,664.25 635,664.25 635,675 624.25,675 624.25,666.5 615.75,666.5 615.75,675 605,675 605,664.25 613.5,664.25 613.5,655.75 605,655.75 605,645"/>
<polygon id="0x16df720" class="l71d20" points="655.75,365 655.75,373.5 664.25,373.5 664.25,365 675,365 675,375.75 666.5,375.75 666.5,384.25 675,384.25 675,395 664.25,395 664.25,386.5 655.75,386.5 655.75,395 645,395 645,384.25 653.5,384.25 653.5,375.75 645,375.75 645,365"/>
<polygon id="0x175f1d0" class="l71d20" points="655.75,445 655.75,453.5 664.25,453.5 664.25,445 675,445 675,455.75 666.5,455.75 666.5,464.25 675,464.25 675,475 664.25,475 664.25,466.5 655.75,466.5 655.75,475 645,475 645,464.25 653.5,464.25 653.5,455.75 645,455.75 645,445"/>
<polygon id="0x15502d0" class="l71d20" points="655.75,565 655.75,573.5 664.25,573.5 664.25,565 675,565 675,575.75 666.5,575.75 666.5,584.25 675,584.25 675,595 664.25,595 664.25,586.5 655.75,586.5 655.75,595 645,595 645,584.25 653.5,584.25 653.5,575.75 645,575.75 645,565"/>
<polygon id="0x15c6950" class="l71d20" points="655.75,645 655.75,653.5 664.25,653.5 664.25,645 675,645 675,655.75 666.5,655.75 666.5,664.25 675,664.25 675,675 664.25,675 664.25,666.5 655.75,666.5 655.75,675 645,675 645,664.25 653.5,664.25 653.5,655.75 645,655.75 645,645"/>
<polygon id="0x16c62a0" class="l71d20" points="735.75,5 735.75,13.5 744.25,13.5 744.25,5 755,5 755,15.75 746.5,15.75 746.5,24.25 755,24.25 755,35 744.25,35 744.25,26.5 735.75,26.5 735.75,35 725,35 725,24.25 733.5,24.25 733.5,15.75 725,15.75 725,5"/>
<polygon id="0x16dbcc0" class="l71d20" points="735.75,85 735.75,93.5 744.25,93.5 744.25,85 755,85 755,95.75 746.5,95.75 746.5,104.25 755,104.25 755,115 744.25,115 744.25,106.5 735.75,106.5 735.75,115 725,115 725,104.25 733.5,104.25 733.5,95.75 725,95.75 725,85"/>
<polygon id="0x17768c0" class="l71d20" points="735.75,125 735.75,133.5 744.25,133.5 744.25,125 755,125 755,135.75 746.5,135.75 746.5,144.25 755,144.25 755,155 744.25,155 744.25,146.5 735.75,146.5 735.75,155 725,155 725,144.25 733.5,144.25 733.5,135.75 725,135.75 725,125"/>
<polygon id="0x17769e0" class="l71d20" points="735.75,165 735.75,173.5 744.25,173.5 744.25,165 755,165 755,175.75 746.5,175.75 746.5,184.25 755,184.25 755,195 744.25,195 744.25,186.5 735.75,186.5 735.75,195 725,195 725,184.25 733.5,184.25 733.5,175.75 725,175.75 725,165"/>
<polygon id="0x15d6300" class="l71d20" points="735.75,205 735.75,213.5 744.25,213.5 744.25,205 755,205 755,215.75 746.5,215.75 746.5,224.25 755,224.25 755,235 744.25,235 744.25,226.5 735.75,226.5 735.75,235 725,235 725,224.25 733.5,224.25 733.5,215.75 725,215.75 725,205"/>
<polygon id="0x16b9b30" class="l71d20" points="735.75,285 735.75,293.5 744.25,293.5 744.25,285 755,285 755,295.75 746.5,295.75 746.5,304.25 755,304.25 755,315 744.25,315 744.25,306.5 735.75,306.5 735.75,315 725,315 725,304.25 733.5,304.25 733.5,295.75 725,295.75 725,285"/>
<polygon id="0x16dbd30" class="l71d20" points="775.75,5 775.75,13.5 784.25,13.5 784.25,5 795,5 795,15.75 786.5,15.75 786.5,24.25 795,24.25 795,35 784.25,35 784.25,26.5 775.75,26.5 775.75,35 765,35 765,24.25 773.5,24.25 773.5,15.75 765,15.75 765,5"/>
<polygon id="0x16a84e0" class="l71d20" points="775.75,45 775.75,53.5 784.25,53.5 784.25,45 795,45 795,55.75 786.5,55.75 786.5,64.25 795,64.25 795,75 784.25,75 784.25,66.5 775.75,66.5 775.75,75 765,75 765,64.25 773.5,64.25 773.5,55.75 765,55.75 765,45"/>
<polygon id="0x1724cf0" class="l71d20" points="775.75,85 775.75,93.5 784.25,93.5 784.25,85 795,85 795,95.75 786.5,95.75 786.5,104.25 795,104.25 795,115 784.25,115 784.25,106.5 775.75,106.5 775.75,115 765,115 765,104.25 773.5,104.25 773.5,95.75 765,95.75 765,85"/>
<polygon id="0x15917a0" class="l71d20" points="775.75,125 775.75,133.5 784.25,133.5 784.25,125 795,125 795,135.75 786.5,135.75 786.5,144.25 795,144.25 795,155 784.25,155 784.25,146.5 775.75,146.5 775.75,155 765,155 765,144.25 773.5,144.25 773.5,135.75 765,135.75 765,125"/>
<polygon id="0x15d6370" class="l71d20" points="775.75,165 775.75,173.5 784.25,173.5 784.25,165 795,165 795,175.75 786.5,175.75 786.5,184.25 795,184.25 795,195 784.25,195 784.25,186.5 775.75,186.5 775.75,195 765,195 765,184.25 773.5,184.25 773.5,175.75 765,175.75 765,165"/>
<polygon id="0x1516a60" class="l71d20" points="775.75,205 775.75,213.5 784.25,213.5 784.25,205 795,205 795,215.75 786.5,215.75 786.5,224.25 795,224.25 795,235 784.25,235 784.25,226.5 775.75,226.5 775.75,235 765,235 765,224.25 773.5,224.25 773.5,215.75 765,215.75 765,205"/>
<polygon id="0x1733030" class="l71d20" points="775.75,245 775.75,253.5 784.25,253.5 784.25,245 795,245 795,255.75 786.5,255.75 786.5,264.25 795,264.25 795,275 784.25,275 784.25,266.5 775.75,266.5 775.75,275 765,275 765,264.25 773.5,264.25 773.5,255.75 765,255.75 765,245"/>
<polygon id="0x168d8b0" class="l71d20" points="775.75,285 775.75,293.5 784.25,293.5 784.25,285 795,285 795,295.75 786.5,295.75 786.5,304.25 795,304.25 795,315 784.25,315 784.25,306.5 775.75,306.5 775.75,315 765,315 765,304.25 773.5,304.25 773.5,295.75 765,295.75 765,285"/>
<polygon id="0x173fb90" class="l71d20" points="815.75,5 815.75,13.5 824.25,13.5 824.25,5 835,5 835,15.75 826.5,15.75 826.5,24.25 835,24.25 835,35 824.25,35 824.25,26.5 815.75,26.5 815.75,35 805,35 805,24.25 813.5,24.25 813.5,15.75 805,15.75 805,5"/>
<polygon id="0x1776a50" class="l71d20" points="815.75,285 815.75,293.5 824.25,293.5 824.25,285 835,285 835,295.75 826.5,295.75 826.5,304.25 835,304.25 835,315 824.25,315 824.25,306.5 815.75,306.5 815.75,315 805,315 805,304.25 813.5,304.25 813.5,295.75 805,295.75 805,285"/>
<polygon id="0x16a1570" class="l71d20" points="855.75,45 855.75,53.5 864.25,53.5 864.25,45 875,45 875,55.75 866.5,55.75 866.5,64.25 875,64.25 875,75 864.25,75 864.25,66.5 855.75,66.5 855.75,75 845,75 845,64.25 853.5,64.25 853.5,55.75 845,55.75 845,45"/>
<polygon id="0x16a15e0" class="l71d20" points="855.75,85 855.75,93.5 864.25,93.5 864.25,85 875,85 875,95.75 866.5,95.75 866.5,104.25 875,104.25 875,115 864.25,115 864.25,106.5 855.75,106.5 855.75,115 845,115 845,104.25 853.5,104.25 853.5,95.75 845,95.75 845,85"/>
<polygon id="0x16f2a40" class="l71d20" points="855.75,125 855.75,133.5 864.25,133.5 864.25,125 875,125 875,135.75 866.5,135.75 866.5,144.25 875,144.25 875,155 864.25,155 864.25,146.5 855.75,146.5 855.75,155 845,155 845,144.25 853.5,144.25 853.5,135.75 845,135.75 845,125"/>
<polygon id="0x16f2ab0" class="l71d20" points="855.75,165 855.75,173.5 864.25,173.5 864.25,165 875,165 875,175.75 866.5,175.75 866.5,184.25 875,184.25 875,195 864.25,195 864.25,186.5 855.75,186.5 855.75,195 845,195 845,184.25 853.5,184.25 853.5,175.75 845,175.75 845,165"/>
<polygon id="0x16bce70" class="l71d20" points="855.75,205 855.75,213.5 864.25,213.5 864.25,205 875,205 875,215.75 866.5,215.75 866.5,224.25 875,224.25 875,235 864.25,235 864.25,226.5 855.75,226.5 855.75,235 845,235 845,224.25 853.5,224.25 853.5,215.75 845,215.75 845,205"/>
<polygon id="0x16bcee0" class="l71d20" points="855.75,245 855.75,253.5 864.25,253.5 864.25,245 875,245 875,255.75 866.5,255.75 866.5,264.25 875,264.25 875,275 864.25,275 864.25,266.5 855.75,266.5 855.75,275 845,275 845,264.25 853.5,264.25 853.5,255.75 845,255.75 845,245"/>
<polygon id="0x1577950" class="l71d20" points="895.75,45 895.75,53.5 904.25,53.5 904.25,45 915,45 915,55.75 906.5,55.75 906.5,64.25 915,64.25 915,75 904.25,75 904.25,66.5 895.75,66.5 895.75,75 885,75 885,64.25 893.5,64.25 893.5,55.75 885,55.75 885,45"/>
<polygon id="0x15779c0" class="l71d20" points="895.75,85 895.75,93.5 904.25,93.5 904.25,85 915,85 915,95.75 906.5,95.75 906.5,104.25 915,104.25 915,115 904.25,115 904.25,106.5 895.75,106.5 895.75,115 885,115 885,104.25 893.5,104.25 893.5,95.75 885,95.75 885,85"/>
<polygon id="0x15c3170" class="l71d20" points="895.75,125 895.75,133.5 904.25,133.5 904.25,125 915,125 915,135.75 906.5,135.75 906.5,144.25 915,144.25 915,155 904.25,155 904.25,146.5 895.75,146.5 895.75,155 885,155 885,144.25 893.5,144.25 893.5,135.75 885,135.75 885,125"/>
<polygon id="0x15c31e0" class="l71d20" points="895.75,165 895.75,173.5 904.25,173.5 904.25,165 915,165 915,175.75 906.5,175.75 906.5,184.25 915,184.25 915,195 904.25,195 904.25,186.5 895.75,186.5 895.75,195 885,195 885,184.25 893.5,184.25 893.5,175.75 885,175.75 885,165"/>
<polygon id="0x15d7ec0" class="l71d20" points="895.75,205 895.75,213.5 904.25,213.5 904.25,205 915,205 915,215.75 906.5,215.75 906.5,224.25 915,224.25 915,235 904.25,235 904.25,226.5 895.75,226.5 895.75,235 885,235 885,224.25 893.5,224.25 893.5,215.75 885,215.75 885,205"/>
<polygon id="0x15d7f30" class="l71d20" points="895.75,245 895.75,253.5 904.25,253.5 904.25,245 915,245 915,255.75 906.5,255.75 906.5,264.25 915,264.25 915,275 904.25,275 904.25,266.5 895.75,266.5 895.75,275 885,275 885,264.25 893.5,264.25 893.5,255.75 885,255.75 885,245"/>
<polygon id="0x15def70" class="l71d20" points="935.75,5 935.75,13.5 944.25,13.5 944.25,5 955,5 955,15.75 946.5,15.75 946.5,24.25 955,24.25 955,35 944.25,35 944.25,26.5 935.75,26.5 935.75,35 925,35 925,24.25 933.5,24.25 933.5,15.75 925,15.75 925,5"/>
<polygon id="0x15defe0" class="l71d20" points="935.75,285 935.75,293.5 944.25,293.5 944.25,285 955,285 955,295.75 946.5,295.75 946.5,304.25 955,304.25 955,315 944.25,315 944.25,306.5 935.75,306.5 935.75,315 925,315 925,304.25 933.5,304.25 933.5,295.75 925,295.75 925,285"/>
<polygon id="0x164efb0" class="l71d20" points="975.75,5 975.75,13.5 984.25,13.5 984.25,5 995,5 995,15.75 986.5,15.75 986.5,24.25 995,24.25 995,35 984.25,35 984.25,26.5 975.75,26.5 975.75,35 965,35 965,24.25 973.5,24.25 973.5,15.75 965,15.75 965,5"/>
<polygon id="0x164f020" class="l71d20" points="975.75,45 975.75,53.5 984.25,53.5 984.25,45 995,45 995,55.75 986.5,55.75 986.5,64.25 995,64.25 995,75 984.25,75 984.25,66.5 975.75,66.5 975.75,75 965,75 965,64.25 973.5,64.25 973.5,55.75 965,55.75 965,45"/>
<polygon id="0x16a3fd0" class="l71d20" points="975.75,85 975.75,93.5 984.25,93.5 984.25,85 995,85 995,95.75 986.5,95.75 986.5,104.25 995,104.25 995,115 984.25,115 984.25,106.5 975.75,106.5 975.75,115 965,115 965,104.25 973.5,104.25 973.5,95.75 965,95.75 965,85"/>
<polygon id="0x16a4040" class="l71d20" points="975.75,125 975.75,133.5 984.25,133.5 984.25,125 995,125 995,135.75 986.5,135.75 986.5,144.25 995,144.25 995,155 984.25,155 984.25,146.5 975.75,146.5 975.75,155 965,155 965,144.25 973.5,144.25 973.5,135.75 965,135.75 965,125"/>
<polygon id="0x16bc200" class="l71d20" points="975.75,165 975.75,173.5 984.25,173.5 984.25,165 995,165 995,175.75 986.5,175.75 986.5,184.25 995,184.25 995,195 984.25,195 984.25,186.5 975.75,186.5 975.75,195 965,195 965,184.25 973.5,184.25 973.5,175.75 965,175.75 965,165"/>
<polygon id="0x16bc270" class="l71d20" points="975.75,205 975.75,213.5 984.25,213.5 984.25,205 995,205 995,215.75 986.5,215.75 986.5,224.25 995,224.25 995,235 984.25,235 984.25,226.5 975.75,226.5 975.75,235 965,235 965,224.25 973.5,224.25 973.5,215.75 965,215.75 965,205"/>
<polygon id="0x16e29b0" class="l71d20" points="975.75,245 975.75,253.5 984.25,253.5 984.25,245 995,245 995,255.75 986.5,255.75 986.5,264.25 995,264.25 995,275 984.25,275 984.25,266.5 975.75,266.5 975.75,275 965,275 965,264.25 973.5,264.25 973.5,255.75 965,255.75 965,245"/>
<polygon id="0x16e2a20" class="l71d20" points="975.75,285 975.75,293.5 984.25,293.5 984.25,285 995,285 995,295.75 986.5,295.75 986.5,304.25 995,304.25 995,315 984.25,315 984.25,306.5 975.75,306.5 975.75,315 965,315 965,304.25 973.5,304.25 973.5,295.75 965,295.75 965,285"/>
<polygon id="0x16d5e70" class="l71d20" points="1015.75,5 1015.75,13.5 1024.25,13.5 1024.25,5 1035,5 1035,15.75 1026.5,15.75 1026.5,24.25 1035,24.25 1035,35 1024.25,35 1024.25,26.5 1015.75,26.5 1015.75,35 1005,35 1005,24.25 1013.5,24.25 1013.5,15.75 1005,15.75 1005,5"/>
<polygon id="0x16d5ee0" class="l71d20" points="1015.75,85 1015.75,93.5 1024.25,93.5 1024.25,85 1035,85 1035,95.75 1026.5,95.75 1026.5,104.25 1035,104.25 1035,115 1024.25,115 1024.25,106.5 1015.75,106.5 1015.75,115 1005,115 1005,104.25 1013.5,104.25 1013.5,95.75 1005,95.75 1005,85"/>
<polygon id="0x1721400" class="l71d20" points="1015.75,125 1015.75,133.5 1024.25,133.5 1024.25,125 1035,125 1035,135.75 1026.5,135.75 1026.5,144.25 1035,144.25 1035,155 1024.25,155 1024.25,146.5 1015.75,146.5 1015.75,155 1005,155 1005,144.25 1013.5,144.25 1013.5,135.75 1005,135.75 1005,125"/>
<polygon id="0x1721470" class="l71d20" points="1015.75,165 1015.75,173.5 1024.25,173.5 1024.25,165 1035,165 1035,175.75 1026.5,175.75 1026.5,184.25 1035,184.25 1035,195 1024.25,195 1024.25,186.5 1015.75,186.5 1015.75,195 1005,195 1005,184.25 1013.5,184.25 1013.5,175.75 1005,175.75 1005,165"/>
<polygon id="0x17579a0" class="l71d20" points="1015.75,205 1015.75,213.5 1024.25,213.5 1024.25,205 1035,205 1035,215.75 1026.5,215.75 1026.5,224.25 1035,224.25 1035,235 1024.25,235 1024.25,226.5 1015.75,226.5 1015.75,235 1005,235 1005,224.25 1013.5,224.25 1013.5,215.75 1005,215.75 1005,205"/>
<polygon id="0x1757a10" class="l71d20" points="1015.75,285 1015.75,293.5 1024.25,293.5 1024.25,285 1035,285 1035,295.75 1026.5,295.75 1026.5,304.25 1035,304.25 1035,315 1024.25,315 1024.25,306.5 1015.75,306.5 1015.75,315 1005,315 1005,304.25 1013.5,304.25 1013.5,295.75 1005,295.75 1005,285"/>
<polygon id="0x145a6f0" class="l71d20" points="735.75,365 735.75,373.5 744.25,373.5 744.25,365 755,365 755,375.75 746.5,375.75 746.5,384.25 755,384.25 755,395 744.25,395 744.25,386.5 735.75,386.5 735.75,395 725,395 725,384.25 733.5,384.25 733.5,375.75 725,375.75 725,365"/>
<polygon id="0x145a760" class="l71d20" points="735.75,645 735.75,653.5 744.25,653.5 744.25,645 755,645 755,655.75 746.5,655.75 746.5,664.25 755,664.25 755,675 744.25,675 744.25,666.5 735.75,666.5 735.75,675 725,675 725,664.25 733.5,664.25 733.5,655.75 725,655.75 725,645"/>
<polygon id="0x1468d20" class="l71d20" points="775.75,485 775.75,493.5 784.25,493.5 784.25,485 795,485 795,495.75 786.5,495.75 786.5,504.25 795,504.25 795,515 784.25,515 784.25,506.5 775.75,506.5 775.75,515 765,515 765,504.25 773.5,504.25 773.5,495.75 765,495.75 765,485"/>
<polygon id="0x1468d90" class="l71d20" points="775.75,525 775.75,533.5 784.25,533.5 784.25,525 795,525 795,535.75 786.5,535.75 786.5,544.25 795,544.25 795,555 784.25,555 784.25,546.5 775.75,546.5 775.75,555 765,555 765,544.25 773.5,544.25 773.5,535.75 765,535.75 765,525"/>
<polygon id="0x177e3f0" class="l71d20" points="815.75,365 815.75,373.5 824.25,373.5 824.25,365 835,365 835,375.75 826.5,375.75 826.5,384.25 835,384.25 835,395 824.25,395 824.25,386.5 815.75,386.5 815.75,395 805,395 805,384.25 813.5,384.25 813.5,375.75 805,375.75 805,365"/>
<polygon id="0x177e460" class="l71d20" points="815.75,405 815.75,413.5 824.25,413.5 824.25,405 835,405 835,415.75 826.5,415.75 826.5,424.25 835,424.25 835,435 824.25,435 824.25,426.5 815.75,426.5 815.75,435 805,435 805,424.25 813.5,424.25 813.5,415.75 805,415.75 805,405"/>
<polygon id="0x1522e50" class="l71d20" points="815.75,445 815.75,453.5 824.25,453.5 824.25,445 835,445 835,455.75 826.5,455.75 826.5,464.25 835,464.25 835,475 824.25,475 824.25,466.5 815.75,466.5 815.75,475 805,475 805,464.25 813.5,464.25 813.5,455.75 805,455.75 805,445"/>
<polygon id="0x1522ec0" class="l71d20" points="815.75,485 815.75,493.5 824.25,493.5 824.25,485 835,485 835,495.75 826.5,495.75 826.5,504.25 835,504.25 835,515 824.25,515 824.25,506.5 815.75,506.5 815.75,515 805,515 805,504.25 813.5,504.25 813.5,495.75 805,495.75 805,485"/>
<polygon id="0x1541480" class="l71d20" points="815.75,525 815.75,533.5 824.25,533.5 824.25,525 835,525 835,535.75 826.5,535.75 826.5,544.25 835,544.25 835,555 824.25,555 824.25,546.5 815.75,546.5 815.75,555 805,555 805,544.25 813.5,544.25 813.5,535.75 805,535.75 805,525"/>
<polygon id="0x15414f0" class="l71d20" points="815.75,565 815.75,573.5 824.25,573.5 824.25,565 835,565 835,575.75 826.5,575.75 826.5,584.25 835,584.25 835,595 824.25,595 824.25,586.5 815.75,586.5 815.75,595 805,595 805,584.25 813.5,584.25 813.5,575.75 805,575.75 805,565"/>
<polygon id="0x1559270" class="l71d20" points="815.75,605 815.75,613.5 824.25,613.5 824.25,605 835,605 835,615.75 826.5,615.75 826.5,624.25 835,624.25 835,635 824.25,635 824.25,626.5 815.75,626.5 815.75,635 805,635 805,624.25 813.5,624.25 813.5,615.75 805,615.75 805,605"/>
<polygon id="0x15592e0" class="l71d20" points="815.75,645 815.75,653.5 824.25,653.5 824.25,645 835,645 835,655.75 826.5,655.75 826.5,664.25 835,664.25 835,675 824.25,675 824.25,666.5 815.75,666.5 815.75,675 805,675 805,664.25 813.5,664.25 813.5,655.75 805,655.75 805,645"/>
<polygon id="0x157a0e0" class="l71d20" points="855.75,445 855.75,453.5 864.25,453.5 864.25,445 875,445 875,455.75 866.5,455.75 866.5,464.25 875,464.25 875,475 864.25,475 864.25,466.5 855.75,466.5 855.75,475 845,475 845,464.25 853.5,464.25 853.5,455.75 845,455.75 845,445"/>
<polygon id="0x157a150" class="l71d20" points="855.75,485 855.75,493.5 864.25,493.5 864.25,485 875,485 875,495.75 866.5,495.75 866.5,504.25 875,504.25 875,515 864.25,515 864.25,506.5 855.75,506.5 855.75,515 845,515 845,504.25 853.5,504.25 853.5,495.75 845,495.75 845,485"/>
<polygon id="0x15821c0" class="l71d20" points="855.75,525 855.75,533.5 864.25,533.5 864.25,525 875,525 875,535.75 866.5,535.75 866.5,544.25 875,544.25 875,555 864.25,555 864.25,546.5 855.75,546.5 855.75,555 845,555 845,544.25 853.5,544.25 853.5,535.75 845,535.75 845,525"/>
<polygon id="0x1582230" class="l71d20" points="855.75,565 855.75,573.5 864.25,573.5 864.25,565 875,565 875,575.75 866.5,575.75 866.5,584.25 875,584.25 875,595 864.25,595 864.25,586.5 855.75,586.5 855.75,595 845,595 845,584.25 853.5,584.25 853.5,575.75 845,575.75 845,565"/>
<polygon id="0x15d9ff0" class="l71d20" points="895.75,445 895.75,453.5 904.25,453.5 904.25,445 915,445 915,455.75 906.5,455.75 906.5,464.25 915,464.25 915,475 904.25,475 904.25,466.5 895.75,466.5 895.75,475 885,475 885,464.25 893.5,464.25 893.5,455.75 885,455.75 885,445"/>
<polygon id="0x15da060" class="l71d20" points="895.75,485 895.75,493.5 904.25,493.5 904.25,485 915,485 915,495.75 906.5,495.75 906.5,504.25 915,504.25 915,515 904.25,515 904.25,506.5 895.75,506.5 895.75,515 885,515 885,504.25 893.5,504.25 893.5,495.75 885,495.75 885,485"/>
<polygon id="0x15d57d0" class="l71d20" points="895.75,525 895.75,533.5 904.25,533.5 904.25,525 915,525 915,535.75 906.5,535.75 906.5,544.25 915,544.25 915,555 904.25,555 904.25,546.5 895.75,546.5 895.75,555 885,555 885,544.25 893.5,544.25 893.5,535.75 885,535.75 885,525"/>
<polygon id="0x15d5840" class="l71d20" points="895.75,565 895.75,573.5 904.25,573.5 904.25,565 915,565 915,575.75 906.5,575.75 906.5,584.25 915,584.25 915,595 904.25,595 904.25,586.5 895.75,586.5 895.75,595 885,595 885,584.25 893.5,584.25 893.5,575.75 885,575.75 885,565"/>
<polygon id="0x15c13d0" class="l71d20" points="935.75,365 935.75,373.5 944.25,373.5 944.25,365 955,365 955,375.75 946.5,375.75 946.5,384.25 955,384.25 955,395 944.25,395 944.25,386.5 935.75,386.5 935.75,395 925,395 925,384.25 933.5,384.25 933.5,375.75 925,375.75 925,365"/>
<polygon id="0x15c1440" class="l71d20" points="935.75,405 935.75,413.5 944.25,413.5 944.25,405 955,405 955,415.75 946.5,415.75 946.5,424.25 955,424.25 955,435 944.25,435 944.25,426.5 935.75,426.5 935.75,435 925,435 925,424.25 933.5,424.25 933.5,415.75 925,415.75 925,405"/>
<polygon id="0x1690cd0" class="l71d20" points="935.75,445 935.75,453.5 944.25,453.5 944.25,445 955,445 955,455.75 946.5,455.75 946.5,464.25 955,464.25 955,475 944.25,475 944.25,466.5 935.75,466.5 935.75,475 925,475 925,464.25 933.5,464.25 933.5,455.75 925,455.75 925,445"/>
<polygon id="0x1690d40" class="l71d20" points="935.75,485 935.75,493.5 944.25,493.5 944.25,485 955,485 955,495.75 946.5,495.75 946.5,504.25 955,504.25 955,515 944.25,515 944.25,506.5 935.75,506.5 935.75,515 925,515 925,504.25 933.5,504.25 933.5,495.75 925,495.75 925,485"/>
<polygon id="0x16c35e0" class="l71d20" points="935.75,525 935.75,533.5 944.25,533.5 944.25,525 955,525 955,535.75 946.5,535.75 946.5,544.25 955,544.25 955,555 944.25,555 944.25,546.5 935.75,546.5 935.75,555 925,555 925,544.25 933.5,544.25 933.5,535.75 925,535.75 925,525"/>
<polygon id="0x16c3650" class="l71d20" points="935.75,565 935.75,573.5 944.25,573.5 944.25,565 955,565 955,575.75 946.5,575.75 946.5,584.25 955,584.25 955,595 944.25,595 944.25,586.5 935.75,586.5 935.75,595 925,595 925,584.25 933.5,584.25 933.5,575.75 925,575.75 925,565"/>
<polygon id="0x171e980" class="l71d20" points="935.75,605 935.75,613.5 944.25,613.5 944.25,605 955,605 955,615.75 946.5,615.75 946.5,624.25 955,624.25 955,635 944.25,635 944.25,626.5 935.75,626.5 935.75,635 925,635 925,624.25 933.5,624.25 933.5,615.75 925,615.75 925,605"/>
<polygon id="0x171e9f0" class="l71d20" points="935.75,645 935.75,653.5 944.25,653.5 944.25,645 955,645 955,655.75 946.5,655.75 946.5,664.25 955,664.25 955,675 944.25,675 944.25,666.5 935.75,666.5 935.75,675 925,675 925,664.25 933.5,664.25 933.5,655.75 925,655.75 925,645"/>
<polygon id="0x1730e40" class="l71d20" points="975.75,485 975.75,493.5 984.25,493.5 984.25,485 995,485 995,495.75 986.5,495.75 986.5,504.25 995,504.25 995,515 984.25,515 984.25,506.5 975.75,506.5 975.75,515 965,515 965,504.25 973.5,504.25 973.5,495.75 965,495.75 965,485"/>
<polygon id="0x1730eb0" class="l71d20" points="975.75,525 975.75,533.5 984.25,533.5 984.25,525 995,525 995,535.75 986.5,535.75 986.5,544.25 995,544.25 995,555 984.25,555 984.25,546.5 975.75,546.5 975.75,555 965,555 965,544.25 973.5,544.25 973.5,535.75 965,535.75 965,525"/>
<polygon id="0x17472c0" class="l71d20" points="1015.75,365 1015.75,373.5 1024.25,373.5 1024.25,365 1035,365 1035,375.75 1026.5,375.75 1026.5,384.25 1035,384.25 1035,395 1024.25,395 1024.25,386.5 1015.75,386.5 1015.75,395 1005,395 1005,384.25 1013.5,384.25 1013.5,375.75 1005,375.75 1005,365"/>
<polygon id="0x1747330" class="l71d20" points="1015.75,645 1015.75,653.5 1024.25,653.5 1024.25,645 1035,645 1035,655.75 1026.5,655.75 1026.5,664.25 1035,664.25 1035,675 1024.25,675 1024.25,666.5 1015.75,666.5 1015.75,675 1005,675 1005,664.25 1013.5,664.25 1013.5,655.75 1005,655.75 1005,645"/>
<polygon id="0x14101a0" class="l235d4" points="0,0 40,0 40,40 0,40"/>
<polygon id="0x169a400" class="l65d20" points="0,0 30,0 30,30 0,30"/>
<polygon id="0x1753710" class="l66d20" points="-1.8,-1.8 31.8,-1.8 31.8,31.8 -1.8,31.8"/>
<polygon id="0x1732ad0" class="l65d20" points="0,55 30,55 30,85 0,85"/>
<polygon id="0x15a6130" class="l66d20" points="-1.8,53.2 31.8,53.2 31.8,86.8 -1.8,86.8"/>
<polygon id="0x1776df0" class="l65d20" points="0,110 30,110 30,140 0,140"/>
<polygon id="0x152a7f0" class="l66d20" points="-1.8,108.2 31.8,108.2 31.8,141.8 -1.8,141.8"/>
<polygon id="0x152a860" class="l65d20" points="0,165 30,165 30,195 0,195"/>
<polygon id="0x154c300" class="l66d20" points="-1.8,163.2 31.8,163.2 31.8,196.8 -1.8,196.8"/>
<polygon id="0x154c370" class="l65d20" points="0,220 30,220 30,250 0,250"/>
<polygon id="0x15d8260" class="l66d20" points="-1.8,218.2 31.8,218.2 31.8,251.8 -1.8,251.8"/>
<polygon id="0x15d82d0" class="l65d20" points="0,275 30,275 30,305 0,305"/>
<polygon id="0x15e68d0" class="l66d20" points="-1.8,273.2 31.8,273.2 31.8,306.8 -1.8,306.8"/>
<polygon id="0x15e6940" class="l65d20" points="0,330 30,330 30,360 0,360"/>
<polygon id="0x1651a80" class="l66d20" points="-1.8,328.2 31.8,328.2 31.8,361.8 -1.8,361.8"/>
<polygon id="0x1651af0" class="l65d20" points="0,385 30,385 30,415 0,415"/>
<polygon id="0x164f500" class="l66d20" points="-1.8,383.2 31.8,383.2 31.8,416.8 -1.8,416.8"/>
<polygon id="0x164f570" class="l65d20" points="0,440 30,440 30,470 0,470"/>
<polygon id="0x16be460" class="l66d20" points="-1.8,438.2 31.8,438.2 31.8,471.8 -1.8,471.8"/>
<polygon id="0x16be4d0" class="l65d20" points="0,495 30,495 30,525 0,525"/>
<polygon id="0x1542bc0" class="l66d20" points="-1.8,493.2 31.8,493.2 31.8,526.8 -1.8,526.8"/>
<polygon id="0x1542c30" class="l65d20" points="55,0 85,0 85,30 55,30"/>
<polygon id="0x159b8a0" class="l66d20" points="53.2,-1.8 86.8,-1.8 86.8,31.8 53.2,31.8"/>
<polygon id="0x159b960" class="l65d20" points="55,55 85,55 85,85 55,85"/>
<polygon id="0x16a0100" class="l66d20" points="53.2,53.2 86.8,53.2 86.8,86.8 53.2,86.8"/>
<polygon id="0x16a01c0" class="l65d20" points="55,110 85,110 85,140 55,140"/>
<polygon id="0x1786e90" class="l66d20" points="53.2,108.2 86.8,108.2 86.8,141.8 53.2,141.8"/>
<polygon id="0x1786f00" class="l65d20" points="55,165 85,165 85,195 55,195"/>
<polygon id="0x1786f70" class="l66d20" points="53.2,163.2 86.8,163.2 86.8,196.8 53.2,196.8"/>
<polygon id="0x1786fe0" class="l65d20" points="55,220 85,220 85,250 55,250"/>
<polygon id="0x1787050" class="l66d20" points="53.2,218.2 86.8,218.2 86.8,251.8 53.2,251.8"/>
<polygon id="0x17870c0" class="l65d20" points="55,275 85,275 85,305 55,305"/>
<polygon id="0x1787130" class="l66d20" points="53.2,273.2 86.8,273.2 86.8,306.8 53.2,306.8"/>
<polygon id="0x17871a0" class="l65d20" points="55,330 85,330 85,360 55,360"/>
<polygon id="0x1787210" class="l66d20" points="53.2,328.2 86.8,328.2 86.8,361.8 53.2,361.8"/>
<polygon id="0x1787280" class="l65d20" points="55,385 85,385 85,415 55,415"/>
<polygon id="0x17872f0" class="l66d20" points="53.2,383.2 86.8,383.2 86.8,416.8 53.2,416.8"/>
<polygon id="0x17873b0" class="l65d20" points="55,440 85,440 85,470 55,470"/>
<polygon id="0x1787470" class="l66d20" points="53.2,438.2 86.8,438.2 86.8,471.8 53.2,471.8"/>
<polygon id="0x1787530" class="l65d20" points="55,495 85,495 85,525 55,525"/>
<polygon id="0x17875f0" class="l66d20" points="53.2,493.2 86.8,493.2 86.8,526.8 53.2,526.8"/>
<polygon id="0x17876b0" class="l65d20" points="110,0 140,0 140,30 110,30"/>
<polygon id="0x1787770" class="l66d20" points="108.2,-1.8 141.8,-1.8 141.8,31.8 108.2,31.8"/>
<polygon id="0x1787830" class="l65d20" points="110,55 140,55 140,85 110,85"/>
<polygon id="0x17878f0" class="l66d20" points="108.2,53.2 141.8,53.2 141.8,86.8 108.2,86.8"/>
<polygon id="0x17879b0" class="l65d20" points="110,110 140,110 140,140 110,140"/>
<polygon id="0x1787a70" class="l66d20" points="108.2,108.2 141.8,108.2 141.8,141.8 108.2,141.8"/>
<polygon id="0x1787b30" class="l65d20" points="110,165 140,165 140,195 110,195"/>
<polygon id="0x1787bf0" class="l66d20" points="108.2,163.2 141.8,163.2 141.8,196.8 108.2,196.8"/>
<polygon id="0x1787cb0" class="l65d20" points="110,220 140,220 140,250 110,250"/>
<polygon id="0x1787d70" class="l66d20" points="108.2,218.2 141.8,218.2 141.8,251.8 108.2,251.8"/>
<polygon id="0x1787e30" class="l65d20" points="110,275 140,275 140,305 110,305"/>
<polygon id="0x1787ef0" class="l66d20" points="108.2,273.2 141.8,273.2 141.8,306.8 108.2,306.8"/>
<polygon id="0x1787fb0" class="l65d20" points="110,330 140,330 140,360 110,360"/>
<polygon id="0x1788070" class="l66d20" points="108.2,328.2 141.8,328.2 141.8,361.8 108.2,361.8"/>
<polygon id="0x1788130" class="l65d20" points="110,385 140,385 140,415 110,415"/>
<polygon id="0x17881f0" class="l66d20" points="108.2,383.2 141.8,383.2 141.8,416.8 108.2,416.8"/>
<polygon id="0x1776ac0" class="l65d20" points="110,440 140,440 140,470 110,470"/>
<polygon id="0x15d7bc0" class="l66d20" points="108.2,438.2 141.8,438.2 141.8,471.8 108.2,471.8"/>
<polygon id="0x16585f0" class="l65d20" points="110,495 140,495 140,525 110,525"/>
<polygon id="0x1732670" class="l66d20" points="108.2,493.2 141.8,493.2 141.8,526.8 108.2,526.8"/>
<polygon id="0x1776930" class="l65d20" points="165,0 195,0 195,30 165,30"/>
<polygon id="0x17809a0" class="l66d20" points="163.2,-1.8 196.8,-1.8 196.8,31.8 163.2,31.8"/>
<polygon id="0x1780a60" class="l65d20" points="165,55 195,55 195,85 165,85"/>
<polygon id="0x1780b20" class="l66d20" points="163.2,53.2 196.8,53.2 196.8,86.8 163.2,86.8"/>
<polygon id="0x1780be0" class="l65d20" points="165,110 195,110 195,140 165,140"/>
<polygon id="0x1780ca0" class="l66d20" points="163.2,108.2 196.8,108.2 196.8,141.8 163.2,141.8"/>
<polygon id="0x1780d60" class="l65d20" points="165,165 195,165 195,195 165,195"/>
<polygon id="0x1780e20" class="l66d20" points="163.2,163.2 196.8,163.2 196.8,196.8 163.2,196.8"/>
<polygon id="0x1780ee0" class="l65d20" points="165,220 195,220 195,250 165,250"/>
<polygon id="0x1780fa0" class="l66d20" points="163.2,218.2 196.8,218.2 196.8,251.8 163.2,251.8"/>
<polygon id="0x1781060" class="l65d20" points="165,275 195,275 195,305 165,305"/>
<polygon id="0x17892c0" class="l66d20" points="163.2,273.2 196.8,273.2 196.8,306.8 163.2,306.8"/>
<polygon id="0x1789380" class="l65d20" points="165,330 195,330 195,360 165,360"/>
<polygon id="0x1789440" class="l66d20" points="163.2,328.2 196.8,328.2 196.8,361.8 163.2,361.8"/>
<polygon id="0x1789500" class="l65d20" points="165,385 195,385 195,415 165,415"/>
<polygon id="0x17895c0" class="l66d20" points="163.2,383.2 196.8,383.2 196.8,416.8 163.2,416.8"/>
<polygon id="0x1789680" class="l65d20" points="165,440 195,440 195,470 165,470"/>
<polygon id="0x1789740" class="l66d20" points="163.2,438.2 196.8,438.2 196.8,471.8 163.2,471.8"/>
<polygon id="0x1789800" class="l65d20" points="165,495 195,495 195,525 165,525"/>
<polygon id="0x17898c0" class="l66d20" points="163.2,493.2 196.8,493.2 196.8,526.8 163.2,526.8"/>
<polygon id="0x1789980" class="l65d20" points="220,0 250,0 250,30 220,30"/>
<polygon id="0x1789a40" class="l66d20" points="218.2,-1.8 251.8,-1.8 251.8,31.8 218.2,31.8"/>
<polygon id="0x1789b00" class="l65d20" points="220,55 250,55 250,85 220,85"/>
<polygon id="0x1789bc0" class="l66d20" points="218.2,53.2 251.8,53.2 251.8,86.8 218.2,86.8"/>
<polygon id="0x1789c80" class="l65d20" points="220,110 250,110 250,140 220,140"/>
<polygon id="0x1789d40" class="l66d20" points="218.2,108.2 251.8,108.2 251.8,141.8 218.2,141.8"/>
<polygon id="0x1789e00" class="l65d20" points="220,165 250,165 250,195 220,195"/>
<polygon id="0x1789ec0" class="l66d20" points="218.2,163.2 251.8,163.2 251.8,196.8 218.2,196.8"/>
<polygon id="0x1789f80" class="l65d20" points="220,220 250,220 250,250 220,250"/>
<polygon id="0x178a040" class="l66d20" points="218.2,218.2 251.8,218.2 251.8,251.8 218.2,251.8"/>
<polygon id="0x178a100" class="l65d20" points="220,275 250,275 250,305 220,305"/>
<polygon id="0x178a1c0" class="l66d20" points="218.2,273.2 251.8,273.2 251.8,306.8 218.2,306.8"/>
<polygon id="0x178a280" class="l65d20" points="220,330 250,330 250,360 220,360"/>
<polygon id="0x178a340" class="l66d20" points="218.2,328.2 251.8,328.2 251.8,361.8 218.2,361.8"/>
<polygon id="0x178a400" class="l65d20" points="220,385 250,385 250,415 220,415"/>
<polygon id="0x178a4c0" class="l66d20" points="218.2,383.2 251.8,383.2 251.8,416.8 218.2,416.8"/>
<polygon id="0x178a580" class="l65d20" points="220,440 250,440 250,470 220,470"/>
<polygon id="0x178a640" class="l66d20" points="218.2,438.2 251.8,438.2 251.8,471.8 218.2,471.8"/>
<polygon id="0x178a700" class="l65d20" points="220,495 250,495 250,525 220,525"/>
<polygon id="0x178a7c0" class="l66d20" points="218.2,493.2 251.8,493.2 251.8,526.8 218.2,526.8"/>
<polygon id="0x178a880" class="l65d20" points="275,0 305,0 305,30 275,30"/>
<polygon id="0x178a940" class="l66d20" points="273.2,-1.8 306.8,-1.8 306.8,31.8 273.2,31.8"/>
<polygon id="0x178aa00" class="l65d20" points="275,55 305,55 305,85 275,85"/>
<polygon id="0x178aac0" class="l66d20" points="273.2,53.2 306.8,53.2 306.8,86.8 273.2,86.8"/>
<polygon id="0x178ab80" class="l65d20" points="275,110 305,110 305,140 275,140"/>
<polygon id="0x178ac40" class="l66d20" points="273.2,108.2 306.8,108.2 306.8,141.8 273.2,141.8"/>
<polygon id="0x178ad00" class="l65d20" points="275,165 305,165 305,195 275,195"/>
<polygon id="0x178adc0" class="l66d20" points="273.2,163.2 306.8,163.2 306.8,196.8 273.2,196.8"/>
<polygon id="0x178ae80" class="l65d20" points="275,220 305,220 305,250 275,250"/>
<polygon id="0x178af40" class="l66d20" points="273.2,218.2 306.8,218.2 306.8,251.8 273.2,251.8"/>
<polygon id="0x178b000" class="l65d20" points="275,275 305,275 305,305 275,305"/>
<polygon id="0x178b0c0" class="l66d20" points="273.2,273.2 306.8,273.2 306.8,306.8 273.2,306.8"/>
<polygon id="0x178b180" class="l65d20" points="275,330 305,330 305,360 275,360"/>
<polygon id="0x178b240" class="l66d20" points="273.2,328.2 306.8,328.2 306.8,361.8 273.2,361.8"/>
<polygon id="0x178b300" class="l65d20" points="275,385 305,385 305,415 275,415"/>
<polygon id="0x178b3c0" class="l66d20" points="273.2,383.2 306.8,383.2 306.8,416.8 273.2,416.8"/>
<polygon id="0x178b480" class="l65d20" points="275,440 305,440 305,470 275,470"/>
<polygon id="0x178b540" class="l66d20" points="273.2,438.2 306.8,438.2 306.8,471.8 273.2,471.8"/>
<polygon id="0x178b600" class="l65d20" points="275,495 305,495 305,525 275,525"/>
<polygon id="0x178b6c0" class="l66d20" points="273.2,493.2 306.8,493.2 306.8,526.8 273.2,526.8"/>
<polygon id="0x178b780" class="l65d20" points="330,0 360,0 360,30 330,30"/>
<polygon id="0x178b840" class="l66d20" points="328.2,-1.8 361.8,-1.8 361.8,31.8 328.2,31.8"/>
<polygon id="0x178b900" class="l65d20" points="330,55 360,55 360,85 330,85"/>
<polygon id="0x178b9c0" class="l66d20" points="328.2,53.2 361.8,53.2 361.8,86.8 328.2,86.8"/>
<polygon id="0x178ba80" class="l65d20" points="330,110 360,110 360,140 330,140"/>
<polygon id="0x178bb40" class="l66d20" points="328.2,108.2 361.8,108.2 361.8,141.8 328.2,141.8"/>
<polygon id="0x178bc00" class="l65d20" points="330,165 360,165 360,195 330,195"/>
<polygon id="0x178bcc0" class="l66d20" points="328.2,163.2 361.8,163.2 361.8,196.8 328.2,196.8"/>
<polygon id="0x178bd80" class="l65d20" points="330,220 360,220 360,250 330,250"/>
<polygon id="0x178be40" class="l66d20" points="328.2,218.2 361.8,218.2 361.8,251.8 328.2,251.8"/>
<polygon id="0x178bf00" class="l65d20" points="330,275 360,275 360,305 330,305"/>
<polygon id="0x178bfc0" class="l66d20" points="328.2,273.2 361.8,273.2 361.8,306.8 328.2,306.8"/>
<polygon id="0x178c080" class="l65d20" points="330,330 360,330 360,360 330,360"/>
<polygon id="0x178c140" class="l66d20" points="328.2,328.2 361.8,328.2 361.8,361.8 328.2,361.8"/>
<polygon id="0x178c200" class="l65d20" points="330,385 360,385 360,415 330,415"/>
<polygon id="0x178c2c0" class="l66d20" points="328.2,383.2 361.8,383.2 361.8,416.8 328.2,416.8"/>
<polygon id="0x178c380" class="l65d20" points="330,440 360,440 360,470 330,470"/>
<polygon id="0x178c440" class="l66d20" points="328.2,438.2 361.8,438.2 361.8,471.8 328.2,471.8"/>
<polygon id="0x178c500" class="l65d20" points="330,495 360,495 360,525 330,525"/>
<polygon id="0x178c5c0" class="l66d20" points="328.2,493.2 361.8,493.2 361.8,526.8 328.2,526.8"/>
<polygon id="0x178c680" class="l65d20" points="385,0 415,0 415,30 385,30"/>
<polygon id="0x178c740" class="l66d20" points="383.2,-1.8 416.8,-1.8 416.8,31.8 383.2,31.8"/>
<polygon id="0x178c800" class="l65d20" points="385,55 415,55 415,85 385,85"/>
<polygon id="0x178c8c0" class="l66d20" points="383.2,53.2 416.8,53.2 416.8,86.8 383.2,86.8"/>
<polygon id="0x178c980" class="l65d20" points="385,110 415,110 415,140 385,140"/>
<polygon id="0x178ca40" class="l66d20" points="383.2,108.2 416.8,108.2 416.8,141.8 383.2,141.8"/>
<polygon id="0x178cb00" class="l65d20" points="385,165 415,165 415,195 385,195"/>
<polygon id="0x178cbc0" class="l66d20" points="383.2,163.2 416.8,163.2 416.8,196.8 383.2,196.8"/>
<polygon id="0x178cc80" class="l65d20" points="385,220 415,220 415,250 385,250"/>
<polygon id="0x178cd40" class="l66d20" points="383.2,218.2 416.8,218.2 416.8,251.8 383.2,251.8"/>
<polygon id="0x178ce00" class="l65d20" points="385,275 415,275 415,305 385,305"/>
<polygon id="0x178cec0" class="l66d20" points="383.2,273.2 416.8,273.2 416.8,306.8 383.2,306.8"/>
<polygon id="0x178cf80" class="l65d20" points="385,330 415,330 415,360 385,360"/>
<polygon id="0x178d040" class="l66d20" points="383.2,328.2 416.8,328.2 416.8,361.8 383.2,361.8"/>
<polygon id="0x178d100" class="l65d20" points="385,385 415,385 415,415 385,415"/>
<polygon id="0x178d1c0" class="l66d20" points="383.2,383.2 416.8,383.2 416.8,416.8 383.2,416.8"/>
<polygon id="0x178d280" class="l65d20" points="385,440 415,440 415,470 385,470"/>
<polygon id="0x178d340" class="l66d20" points="383.2,438.2 416.8,438.2 416.8,471.8 383.2,471.8"/>
<polygon id="0x178d400" class="l65d20" points="385,495 415,495 415,525 385,525"/>
<polygon id="0x178d4c0" class="l66d20" points="383.2,493.2 416.8,493.2 416.8,526.8 383.2,526.8"/>
<polygon id="0x178d580" class="l65d20" points="440,0 470,0 470,30 440,30"/>
<polygon id="0x178d640" class="l66d20" points="438.2,-1.8 471.8,-1.8 471.8,31.8 438.2,31.8"/>
<polygon id="0x178d700" class="l65d20" points="440,55 470,55 470,85 440,85"/>
<polygon id="0x178d7c0" class="l66d20" points="438.2,53.2 471.8,53.2 471.8,86.8 438.2,86.8"/>
<polygon id="0x178d880" class="l65d20" points="440,110 470,110 470,140 440,140"/>
<polygon id="0x178d940" class="l66d20" points="438.2,108.2 471.8,108.2 471.8,141.8 438.2,141.8"/>
<polygon id="0x178da00" class="l65d20" points="440,165 470,165 470,195 440,195"/>
<polygon id="0x178dac0" class="l66d20" points="438.2,163.2 471.8,163.2 471.8,196.8 438.2,196.8"/>
<polygon id="0x178db80" class="l65d20" points="440,220 470,220 470,250 440,250"/>
<polygon id="0x178dc40" class="l66d20" points="438.2,218.2 471.8,218.2 471.8,251.8 438.2,251.8"/>
<polygon id="0x178dd00" class="l65d20" points="440,275 470,275 470,305 440,305"/>
<polygon id="0x178ddc0" class="l66d20" points="438.2,273.2 471.8,273.2 471.8,306.8 438.2,306.8"/>
<polygon id="0x178de80" class="l65d20" points="440,330 470,330 470,360 440,360"/>
<polygon id="0x178df40" class="l66d20" points="438.2,328.2 471.8,328.2 471.8,361.8 438.2,361.8"/>
<polygon id="0x178e000" class="l65d20" points="440,385 470,385 470,415 440,415"/>
<polygon id="0x178e0c0" class="l66d20" points="438.2,383.2 471.8,383.2 471.8,416.8 438.2,416.8"/>
<polygon id="0x178e180" class="l65d20" points="440,440 470,440 470,470 440,470"/>
<polygon id="0x178e240" class="l66d20" points="438.2,438.2 471.8,438.2 471.8,471.8 438.2,471.8"/>
<polygon id="0x178e300" class="l65d20" points="440,495 470,495 470,525 440,525"/>
<polygon id="0x178e3c0" class="l66d20" points="438.2,493.2 471.8,493.2 471.8,526.8 438.2,526.8"/>
<polygon id="0x178e480" class="l65d20" points="495,0 525,0 525,30 495,30"/>
<polygon id="0x178e540" class="l66d20" points="493.2,-1.8 526.8,-1.8 526.8,31.8 493.2,31.8"/>
<polygon id="0x178e600" class="l65d20" points="495,55 525,55 525,85 495,85"/>
<polygon id="0x178e6c0" class="l66d20" points="493.2,53.2 526.8,53.2 526.8,86.8 493.2,86.8"/>
<polygon id="0x178e780" class="l65d20" points="495,110 525,110 525,140 495,140"/>
<polygon id="0x178e840" class="l66d20" points="493.2,108.2 526.8,108.2 526.8,141.8 493.2,141.8"/>
<polygon id="0x178e900" class="l65d20" points="495,165 525,165 525,195 495,195"/>
<polygon id="0x178e9c0" class="l66d20" points="493.2,163.2 526.8,163.2 526.8,196.8 493.2,196.8"/>
<polygon id="0x178ea80" class="l65d20" points="495,220 525,220 525,250 495,250"/>
<polygon id="0x178eb40" class="l66d20" points="493.2,218.2 526.8,218.2 526.8,251.8 493.2,251.8"/>
<polygon id="0x178ec00" class="l65d20" points="495,275 525,275 525,305 495,305"/>
<polygon id="0x178ecc0" class="l66d20" points="493.2,273.2 526.8,273.2 526.8,306.8 493.2,306.8"/>
<polygon id="0x178ed80" class="l65d20" points="495,330 525,330 525,360 495,360"/>
<polygon id="0x178ee40" class="l66d20" points="493.2,328.2 526.8,328.2 526.8,361.8 493.2,361.8"/>
<polygon id="0x178ef00" class="l65d20" points="495,385 525,385 525,415 495,415"/>
<polygon id="0x178efc0" class="l66d20" points="493.2,383.2 526.8,383.2 526.8,416.8 493.2,416.8"/>
<polygon id="0x178f080" class="l65d20" points="495,440 525,440 525,470 495,470"/>
<polygon id="0x178f140" class="l66d20" points="493.2,438.2 526.8,438.2 526.8,471.8 493.2,471.8"/>
<polygon id="0x178f200" class="l65d20" points="495,495 525,495 525,525 495,525"/>
<polygon id="0x178f2c0" class="l66d20" points="493.2,493.2 526.8,493.2 526.8,526.8 493.2,526.8"/>
<polygon id="0x178f380" class="l65d20" points="550,0 580,0 580,30 550,30"/>
<polygon id="0x178f440" class="l66d20" points="548.2,-1.8 581.8,-1.8 581.8,31.8 548.2,31.8"/>
<polygon id="0x178f500" class="l65d20" points="550,55 580,55 580,85 550,85"/>
<polygon id="0x178f5c0" class="l66d20" points="548.2,53.2 581.8,53.2 581.8,86.8 548.2,86.8"/>
<polygon id="0x178f680" class="l65d20" points="550,110 580,110 580,140 550,140"/>
<polygon id="0x178f740" class="l66d20" points="548.2,108.2 581.8,108.2 581.8,141.8 548.2,141.8"/>
<polygon id="0x178f800" class="l65d20" points="550,165 580,165 580,195 550,195"/>
<polygon id="0x178f8c0" class="l66d20" points="548.2,163.2 581.8,163.2 581.8,196.8 548.2,196.8"/>
<polygon id="0x178f980" class="l65d20" points="550,220 580,220 580,250 550,250"/>
<polygon id="0x178fa40" class="l66d20" points="548.2,218.2 581.8,218.2 581.8,251.8 548.2,251.8"/>
<polygon id="0x178fb00" class="l65d20" points="550,275 580,275 580,305 550,305"/>
<polygon id="0x178fbc0" class="l66d20" points="548.2,273.2 581.8,273.2 581.8,306.8 548.2,306.8"/>
<polygon id="0x178fc80" class="l65d20" points="550,330 580,330 580,360 550,360"/>
<polygon id="0x178fd40" class="l66d20" points="548.2,328.2 581.8,328.2 581.8,361.8 548.2,361.8"/>
<polygon id="0x178fe00" class="l65d20" points="550,385 580,385 580,415 550,415"/>
<polygon id="0x178fec0" class="l66d20" points="548.2,383.2 581.8,383.2 581.8,416.8 548.2,416.8"/>
<polygon id="0x178ff80" class="l65d20" points="550,440 580,440 580,470 550,470"/>
<polygon id="0x1790040" class="l66d20" points="548.2,438.2 581.8,438.2 581.8,471.8 548.2,471.8"/>
<polygon id="0x1790100" class="l65d20" points="550,495 580,495 580,525 550,525"/>
<polygon id="0x17901c0" class="l66d20" points="548.2,493.2 581.8,493.2 581.8,526.8 548.2,526.8"/>
<polygon id="0x1790280" class="l65d20" points="605,0 635,0 635,30 605,30"/>
<polygon id="0x1790340" class="l66d20" points="603.2,-1.8 636.8,-1.8 636.8,31.8 603.2,31.8"/>
<polygon id="0x1790400" class="l65d20" points="605,55 635,55 635,85 605,85"/>
<polygon id="0x17904c0" class="l66d20" points="603.2,53.2 636.8,53.2 636.8,86.8 603.2,86.8"/>
<polygon id="0x1790580" class="l65d20" points="605,110 635,110 635,140 605,140"/>
<polygon id="0x1790640" class="l66d20" points="603.2,108.2 636.8,108.2 636.8,141.8 603.2,141.8"/>
<polygon id="0x1790700" class="l65d20" points="605,165 635,165 635,195 605,195"/>
<polygon id="0x17907c0" class="l66d20" points="603.2,163.2 636.8,163.2 636.8,196.8 603.2,196.8"/>
<polygon id="0x1790880" class="l65d20" points="605,220 635,220 635,250 605,250"/>
<polygon id="0x1790940" class="l66d20" points="603.2,218.2 636.8,218.2 636.8,251.8 603.2,251.8"/>
<polygon id="0x1790a00" class="l65d20" points="605,275 635,275 635,305 605,305"/>
<polygon id="0x1790ac0" class="l66d20" points="603.2,273.2 636.8,273.2 636.8,306.8 603.2,306.8"/>
<polygon id="0x1790b80" class="l65d20" points="605,330 635,330 635,360 605,360"/>
<polygon id="0x1790c40" class="l66d20" points="603.2,328.2 636.8,328.2 636.8,361.8 603.2,361.8"/>
<polygon id="0x1790d00" class="l65d20" points="605,385 635,385 635,415 605,415"/>
<polygon id="0x1790dc0" class="l66d20" points="603.2,383.2 636.8,383.2 636.8,416.8 603.2,416.8"/>
<polygon id="0x1790e80" class="l65d20" points="605,440 635,440 635,470 605,470"/>
<polygon id="0x1790f40" class="l66d20" points="603.2,438.2 636.8,438.2 636.8,471.8 603.2,471.8"/>
<polygon id="0x1791000" class="l65d20" points="605,495 635,495 635,525 605,525"/>
<polygon id="0x17910c0" class="l66d20" points="603.2,493.2 636.8,493.2 636.8,526.8 603.2,526.8"/>
<polygon id="0x1791180" class="l65d20" points="660,0 690,0 690,30 660,30"/>
<polygon id="0x1791240" class="l66d20" points="658.2,-1.8 691.8,-1.8 691.8,31.8 658.2,31.8"/>
<polygon id="0x1791300" class="l65d20" points="660,55 690,55 690,85 660,85"/>
<polygon id="0x17913c0" class="l66d20" points="658.2,53.2 691.8,53.2 691.8,86.8 658.2,86.8"/>
<polygon id="0x1791480" class="l65d20" points="660,110 690,110 690,140 660,140"/>
<polygon id="0x1791540" class="l66d20" points="658.2,108.2 691.8,108.2 691.8,141.8 658.2,141.8"/>
<polygon id="0x1791600" class="l65d20" points="660,165 690,165 690,195 660,195"/>
<polygon id="0x17916c0" class="l66d20" points="658.2,163.2 691.8,163.2 691.8,196.8 658.2,196.8"/>
<polygon id="0x1791780" class="l65d20" points="660,220 690,220 690,250 660,250"/>
<polygon id="0x1791840" class="l66d20" points="658.2,218.2 691.8,218.2 691.8,251.8 658.2,251.8"/>
<polygon id="0x1791900" class="l65d20" points="660,275 690,275 690,305 660,305"/>
<polygon id="0x17919c0" class="l66d20" points="658.2,273.2 691.8,273.2 691.8,306.8 658.2,306.8"/>
<polygon id="0x1791a80" class="l65d20" points="660,330 690,330 690,360 660,360"/>
<polygon id="0x1791b40" class="l66d20" points="658.2,328.2 691.8,328.2 691.8,361.8 658.2,361.8"/>
<polygon id="0x1791c00" class="l65d20" points="660,385 690,385 690,415 660,415"/>
<polygon id="0x1791cc0" class="l66d20" points="658.2,383.2 691.8,383.2 691.8,416.8 658.2,416.8"/>
<polygon id="0x1791d80" class="l65d20" points="660,440 690,440 690,470 660,470"/>
<polygon id="0x1791e40" class="l66d20" points="658.2,438.2 691.8,438.2 691.8,471.8 658.2,471.8"/>
<polygon id="0x1791f00" class="l65d20" points="660,495 690,495 690,525 660,525"/>
<polygon id="0x1791fc0" class="l66d20" points="658.2,493.2 691.8,493.2 691.8,526.8 658.2,526.8"/>
<polygon id="0x1792080" class="l65d20" points="715,0 745,0 745,30 715,30"/>
<polygon id="0x1792140" class="l66d20" points="713.2,-1.8 746.8,-1.8 746.8,31.8 713.2,31.8"/>
<polygon id="0x1792200" class="l65d20" points="715,55 745,55 745,85 715,85"/>
<polygon id="0x17922c0" class="l66d20" points="713.2,53.2 746.8,53.2 746.8,86.8 713.2,86.8"/>
<polygon id="0x1792380" class="l65d20" points="715,110 745,110 745,140 715,140"/>
<polygon id="0x1792440" class="l66d20" points="713.2,108.2 746.8,108.2 746.8,141.8 713.2,141.8"/>
<polygon id="0x1792500" class="l65d20" points="715,165 745,165 745,195 715,195"/>
<polygon id="0x17925c0" class="l66d20" points="713.2,163.2 746.8,163.2 746.8,196.8 713.2,196.8"/>
<polygon id="0x1792680" class="l65d20" points="715,220 745,220 745,250 715,250"/>
<polygon id="0x1792740" class="l66d20" points="713.2,218.2 746.8,218.2 746.8,251.8 713.2,251.8"/>
<polygon id="0x1792800" class="l65d20" points="715,275 745,275 745,305 715,305"/>
<polygon id="0x17928c0" class="l66d20" points="713.2,273.2 746.8,273.2 746.8,306.8 713.2,306.8"/>
<polygon id="0x1792980" class="l65d20" points="715,330 745,330 745,360 715,360"/>
<polygon id="0x1792a40" class="l66d20" points="713.2,328.2 746.8,328.2 746.8,361.8 713.2,361.8"/>
<polygon id="0x1792b00" class="l65d20" points="715,385 745,385 745,415 715,415"/>
<polygon id="0x1792bc0" class="l66d20" points="713.2,383.2 746.8,383.2 746.8,416.8 713.2,416.8"/>
<polygon id="0x1792c80" class="l65d20" points="715,440 745,440 745,470 715,470"/>
<polygon id="0x1792d40" class="l66d20" points="713.2,438.2 746.8,438.2 746.8,471.8 713.2,471.8"/>
<polygon id="0x1792e00" class="l65d20" points="715,495 745,495 745,525 715,525"/>
<polygon id="0x1792ec0" class="l66d20" points="713.2,493.2 746.8,493.2 746.8,526.8 713.2,526.8"/>
<polygon id="0x1792f80" class="l65d20" points="770,0 800,0 800,30 770,30"/>
<polygon id="0x1793040" class="l66d20" points="768.2,-1.8 801.8,-1.8 801.8,31.8 768.2,31.8"/>
<polygon id="0x1793100" class="l65d20" points="770,55 800,55 800,85 770,85"/>
<polygon id="0x17931c0" class="l66d20" points="768.2,53.2 801.8,53.2 801.8,86.8 768.2,86.8"/>
<polygon id="0x1793280" class="l65d20" points="770,110 800,110 800,140 770,140"/>
<polygon id="0x1793340" class="l66d20" points="768.2,108.2 801.8,108.2 801.8,141.8 768.2,141.8"/>
<polygon id="0x1793400" class="l65d20" points="770,165 800,165 800,195 770,195"/>
<polygon id="0x17934c0" class="l66d20" points="768.2,163.2 801.8,163.2 801.8,196.8 768.2,196.8"/>
<polygon id="0x1793580" class="l65d20" points="770,220 800,220 800,250 770,250"/>
<polygon id="0x1793640" class="l66d20" points="768.2,218.2 801.8,218.2 801.8,251.8 768.2,251.8"/>
<polygon id="0x1793700" class="l65d20" points="770,275 800,275 800,305 770,305"/>
<polygon id="0x17937c0" class="l66d20" points="768.2,273.2 801.8,273.2 801.8,306.8 768.2,306.8"/>
<polygon id="0x1793880" class="l65d20" points="770,330 800,330 800,360 770,360"/>
<polygon id="0x1793940" class="l66d20" points="768.2,328.2 801.8,328.2 801.8,361.8 768.2,361.8"/>
<polygon id="0x1793a00" class="l65d20" points="770,385 800,385 800,415 770,415"/>
<polygon id="0x1793ac0" class="l66d20" points="768.2,383.2 801.8,383.2 801.8,416.8 768.2,416.8"/>
<polygon id="0x1793b80" class="l65d20" points="770,440 800,440 800,470 770,470"/>
<polygon id="0x1793c40" class="l66d20" points="768.2,438.2 801.8,438.2 801.8,471.8 768.2,471.8"/>
<polygon id="0x1793d00" class="l65d20" points="770,495 800,495 800,525 770,525"/>
<polygon id="0x1793dc0" class="l66d20" points="768.2,493.2 801.8,493.2 801.8,526.8 768.2,526.8"/>
<polygon id="0x1793e80" class="l65d20" points="825,0 855,0 855,30 825,30"/>
<polygon id="0x1793f40" class="l66d20" points="823.2,-1.8 856.8,-1.8 856.8,31.8 823.2,31.8"/>
<polygon id="0x1794000" class="l65d20" points="825,55 855,55 855,85 825,85"/>
<polygon id="0x17940c0" class="l66d20" points="823.2,53.2 856.8,53.2 856.8,86.8 823.2,86.8"/>
<polygon id="0x1794180" class="l65d20" points="825,110 855,110 855,140 825,140"/>
<polygon id="0x1794240" class="l66d20" points="823.2,108.2 856.8,108.2 856.8,141.8 823.2,141.8"/>
<polygon id="0x1794300" class="l65d20" points="825,165 855,165 855,195 825,195"/>
<polygon id="0x17943c0" class="l66d20" points="823.2,163.2 856.8,163.2 856.8,196.8 823.2,196.8"/>
<polygon id="0x1794480" class="l65d20" points="825,220 855,220 855,250 825,250"/>
<polygon id="0x1794540" class="l66d20" points="823.2,218.2 856.8,218.2 856.8,251.8 823.2,251.8"/>
<polygon id="0x1794600" class="l65d20" points="825,275 855,275 855,305 825,305"/>
<polygon id="0x17946c0" class="l66d20" points="823.2,273.2 856.8,273.2 856.8,306.8 823.2,306.8"/>
<polygon id="0x17882b0" class="l65d20" points="825,330 855,330 855,360 825,360"/>
<polygon id="0x1788370" class="l66d20" points="823.2,328.2 856.8,328.2 856.8,361.8 823.2,361.8"/>
<polygon id="0x1788430" class="l65d20" points="825,385 855,385 855,415 825,415"/>
<polygon id="0x17884f0" class="l66d20" points="823.2,383.2 856.8,383.2 856.8,416.8 823.2,416.8"/>
<polygon id="0x17885b0" class="l65d20" points="825,440 855,440 855,470 825,470"/>
<polygon id="0x1788670" class="l66d20" points="823.2,438.2 856.8,438.2 856.8,471.8 823.2,471.8"/>
<polygon id="0x1788730" class="l65d20" points="825,495 855,495 855,525 825,525"/>
<polygon id="0x17887f0" class="l66d20" points="823.2,493.2 856.8,493.2 856.8,526.8 823.2,526.8"/>
<polygon id="0x17888b0" class="l65d20" points="880,0 910,0 910,30 880,30"/>
<polygon id="0x1788970" class="l66d20" points="878.2,-1.8 911.8,-1.8 911.8,31.8 878.2,31.8"/>
<polygon id="0x1788a30" class="l65d20" points="880,55 910,55 910,85 880,85"/>
<polygon id="0x1788af0" class="l66d20" points="878.2,53.2 911.8,53.2 911.8,86.8 878.2,86.8"/>
<polygon id="0x1788bb0" class="l65d20" points="880,110 910,110 910,140 880,140"/>
<polygon id="0x1788c70" class="l66d20" points="878.2,108.2 911.8,108.2 911.8,141.8 878.2,141.8"/>
<polygon id="0x1788d30" class="l65d20" points="880,165 910,165 910,195 880,195"/>
<polygon id="0x1788df0" class="l66d20" points="878.2,163.2 911.8,163.2 911.8,196.8 878.2,196.8"/>
<polygon id="0x1788eb0" class="l65d20" points="880,220 910,220 910,250 880,250"/>
<polygon id="0x1788f70" class="l66d20" points="878.2,218.2 911.8,218.2 911.8,251.8 878.2,251.8"/>
<polygon id="0x1789030" class="l65d20" points="880,275 910,275 910,305 880,305"/>
<polygon id="0x17890f0" class="l66d20" points="878.2,273.2 911.8,273.2 911.8,306.8 878.2,306.8"/>
<polygon id="0x17891b0" class="l65d20" points="880,330 910,330 910,360 880,360"/>
<polygon id="0x1796790" class="l66d20" points="878.2,328.2 911.8,328.2 911.8,361.8 878.2,361.8"/>
<polygon id="0x1796800" class="l65d20" points="880,385 910,385 910,415 880,415"/>
<polygon id="0x17968c0" class="l66d20" points="878.2,383.2 911.8,383.2 911.8,416.8 878.2,416.8"/>
<polygon id="0x1796980" class="l65d20" points="880,440 910,440 910,470 880,470"/>
<polygon id="0x1796a40" class="l66d20" points="878.2,438.2 911.8,438.2 911.8,471.8 878.2,471.8"/>
<polygon id="0x1796b00" class="l65d20" points="880,495 910,495 910,525 880,525"/>
<polygon id="0x1796bc0" class="l66d20" points="878.2,493.2 911.8,493.2 911.8,526.8 878.2,526.8"/>
<polygon id="0x1796c80" class="l65d20" points="935,0 965,0 965,30 935,30"/>
<polygon id="0x1796d40" class="l66d20" points="933.2,-1.8 966.8,-1.8 966.8,31.8 933.2,31.8"/>
<polygon id="0x1796e00" class="l65d20" points="935,55 965,55 965,85 935,85"/>
<polygon id="0x1796ec0" class="l66d20" points="933.2,53.2 966.8,53.2 966.8,86.8 933.2,86.8"/>
<polygon id="0x1796f80" class="l65d20" points="935,110 965,110 965,140 935,140"/>
<polygon id="0x1797040" class="l66d20" points="933.2,108.2 966.8,108.2 966.8,141.8 933.2,141.8"/>
<polygon id="0x1797100" class="l65d20" points="935,165 965,165 965,195 935,195"/>
<polygon id="0x17971c0" class="l66d20" points="933.2,163.2 966.8,163.2 966.8,196.8 933.2,196.8"/>
<polygon id="0x1797280" class="l65d20" points="935,220 965,220 965,250 935,250"/>
<polygon id="0x1797340" class="l66d20" points="933.2,218.2 966.8,218.2 966.8,251.8 933.2,251.8"/>
<polygon id="0x1797400" class="l65d20" points="935,275 965,275 965,305 935,305"/>
<polygon id="0x17974c0" class="l66d20" points="933.2,273.2 966.8,273.2 966.8,306.8 933.2,306.8"/>
<polygon id="0x1797580" class="l65d20" points="935,330 965,330 965,360 935,360"/>
<polygon id="0x1797640" class="l66d20" points="933.2,328.2 966.8,328.2 966.8,361.8 933.2,361.8"/>
<polygon id="0x1797700" class="l65d20" points="935,385 965,385 965,415 935,415"/>
<polygon id="0x17977c0" class="l66d20" points="933.2,383.2 966.8,383.2 966.8,416.8 933.2,416.8"/>
<polygon id="0x1797880" class="l65d20" points="935,440 965,440 965,470 935,470"/>
<polygon id="0x1797940" class="l66d20" points="933.2,438.2 966.8,438.2 966.8,471.8 933.2,471.8"/>
<polygon id="0x1797a00" class="l65d20" points="935,495 965,495 965,525 935,525"/>
<polygon id="0x1797ac0" class="l66d20" points="933.2,493.2 966.8,493.2 966.8,526.8 933.2,526.8"/>
</g>
</svg>