<?xml version="1.0" encoding="UTF-8"?>
<svg xmlns="http://www.w3.org/2000/svg" xmlns:xlink="http://www.w3.org/1999/xlink" width="346.896" height="346.896" viewBox="-15.768 -331.128 346.896 346.896">
<defs>
<style type="text/css">
.l235d4 {stroke: #0067A5; fill: #0067A5; fill-opacity: 0.5;}
.l71d20 {stroke: #B3446C; fill: #B3446C; fill-opacity: 0.5;}
</style>
</defs>
<rect x="-15.768" y="-331.128" width="346.896" height="346.896" fill="#222222" stroke="none"/>
<g id="my_logo" transform="scale(1 -1)">
<polygon id="0x2a568b0" class="l71d20" points="75.36,18.79 54.15,40 75.36,61.21 61.21,75.36 40,54.15 18.79,75.36 4.64,61.21 25.85,40 4.64,18.79 18.79,4.64 40,25.85 61.21,4.64"/>
<polygon id="0x29abb60" class="l71d20" points="75.36,98.79 54.15,120 75.36,141.21 61.21,155.36 40,134.15 18.79,155.36 4.64,141.21 25.85,120 4.64,98.79 18.79,84.64 40,105.85 61.21,84.64"/>
<polygon id="0x294d200" class="l71d20" points="75.36,178.79 54.15,200 75.36,221.21 61.21,235.36 40,214.15 18.79,235.36 4.64,221.21 25.85,200 4.64,178.79 18.79,164.64 40,185.85 61.21,164.64"/>
<polygon id="0x2bf3c60" class="l71d20" points="75.36,258.79 54.15,280 75.36,301.21 61.21,315.36 40,294.15 18.79,315.36 4.64,301.21 25.85,280 4.64,258.79 18.79,244.64 40,265.85 61.21,244.64"/>
<polygon id="0x2c85ce0" class="l71d20" points="155.36,98.79 134.15,120 155.36,141.21 141.21,155.36 120,134.15 98.79,155.36 84.64,141.21 105.85,120 84.64,98.79 98.79,84.64 120,105.85 141.21,84.64"/>
<polygon id="0x2c85a40" class="l71d20" points="155.36,178.79 134.15,200 155.36,221.21 141.21,235.36 120,214.15 98.79,235.36 84.64,221.21 105.85,200 84.64,178.79 98.79,164.64 120,185.85 141.21,164.64"/>
<polygon id="0x2b88690" class="l71d20" points="235.36,98.79 214.15,120 235.36,141.21 221.21,155.36 200,134.15 178.79,155.36 164.64,141.21 185.85,120 164.64,98.79 178.79,84.64 200,105.85 221.21,84.64"/>
<polygon id="0x2c0ed50" class="l71d20" points="235.36,178.79 214.15,200 235.36,221.21 221.21,235.36 200,214.15 178.79,235.36 164.64,221.21 185.85,200 164.64,178.79 178.79,164.64 200,185.85 221.21,164.64"/>
<polygon id="0x2c040f0" class="l71d20" points="315.36,18.79 294.15,40 315.36,61.21 301.21,75.36 280,54.15 258.79,75.36 244.64,61.21 265.85,40 244.64,18.79 258.79,4.64 280,25.85 301.21,4.64"/>
<polygon id="0x2cd4500" class="l71d20" points="315.36,98.79 294.15,120 315.36,141.21 301.21,155.36 280,134.15 258.79,155.36 244.64,141.21 265.85,120 244.64,98.79 258.79,84.64 280,105.85 301.21,84.64"/>
<polygon id="0x2ce74a0" class="l71d20" points="315.36,178.79 294.15,200 315.36,221.21 301.21,235.36 280,214.15 258.79,235.36 244.64,221.21 265.85,200 244.64,178.79 258.79,164.64 280,185.85 301.21,164.64"/>
<polygon id="0x2d0dd20" class="l71d20" points="315.36,258.79 294.15,280 315.36,301.21 301.21,315.36 280,294.15 258.79,315.36 244.64,301.21 265.85,280 244.64,258.79 258.79,244.64 280,265.85 301.21,244.64"/>
<polygon id="0x2b05cc0" class="l235d4" points="0,0 80,0 80,80 0,80"/>
</g>
</svg>