<?xml version="1.0" encoding="UTF-8"?>
<svg xmlns="http://www.w3.org/2000/svg" xmlns:xlink="http://www.w3.org/1999/xlink" width="1326.6" height="686.6" viewBox="-63.3 -623.3 1326.6 686.6">
<defs>
<style type="text/css">
.l71d10 {stroke: #A1CAF1; fill: #A1CAF1; fill-opacity: 0.5;}
.l235d4 {stroke: #0067A5; fill: #0067A5; fill-opacity: 0.5;}
</style>
</defs>
<rect x="-63.3" y="-623.3" width="1326.6" height="686.6" fill="#222222" stroke="none"/>
<g id="my_logo" transform="scale(1 -1)">
<polygon id="0x290fe00" class="l71d10" points="157,20 403,20 403,60 157,60"/>
<polygon id="0x291f750" class="l71d10" points="477,20 643,20 643,60 477,60"/>
<polygon id="0x2962610" class="l71d10" points="1037,20 1203,20 1203,60 1037,60"/>
<polygon id="0x29552e0" class="l71d10" points="77,100 163,100 163,140 77,140"/>
<polygon id="0x2a6d010" class="l71d10" points="317,100 643,100 643,140 317,140"/>
<polygon id="0x2abdfa0" class="l71d10" points="717,100 963,100 963,140 717,140"/>
<polygon id="0x2a325f0" class="l71d10" points="1037,100 1123,100 1123,140 1037,140"/>
<polygon id="0x2a34600" class="l71d10" points="77,180 243,180 243,220 77,220"/>
<polygon id="0x28c1460" class="l71d10" points="397,180 483,180 483,220 397,220"/>
<polygon id="0x2a690c0" class="l71d10" points="717,180 883,180 883,220 717,220"/>
<polygon id="0x2a4c150" class="l71d10" points="957,180 1043,180 1043,220 957,220"/>
<polygon id="0x2aaefc0" class="l71d10" points="-3,260 83,260 83,300 -3,300"/>
<polygon id="0x2ae8b80" class="l71d10" points="237,260 323,260 323,300 237,300"/>
<polygon id="0x2aa7870" class="l71d10" points="397,260 563,260 563,300 397,300"/>
<polygon id="0x2a92540" class="l71d10" points="797,260 883,260 883,300 797,300"/>
<polygon id="0x2a83430" class="l71d10" points="957,260 1043,260 1043,300 957,300"/>
<polygon id="0x2aad8e0" class="l71d10" points="317,340 563,340 563,380 317,380"/>
<polygon id="0x2a53c30" class="l71d10" points="717,340 803,340 803,380 717,380"/>
<polygon id="0x2a364c0" class="l71d10" points="957,340 1123,340 1123,380 957,380"/>
<polygon id="0x2a3bbc0" class="l71d10" points="-3,420 83,420 83,460 -3,460"/>
<polygon id="0x2a7d980" class="l71d10" points="157,420 243,420 243,460 157,460"/>
<polygon id="0x2a8e0f0" class="l71d10" points="317,420 403,420 403,460 317,460"/>
<polygon id="0x2a817c0" class="l71d10" points="477,420 723,420 723,460 477,460"/>
<polygon id="0x2819590" class="l71d10" points="877,420 963,420 963,460 877,460"/>
<polygon id="0x2941840" class="l71d10" points="1037,420 1123,420 1123,460 1037,460"/>
<polygon id="0x294d870" class="l71d10" points="557,500 723,500 723,540 557,540"/>
<polygon id="0x2849a80" class="l71d10" points="1037,500 1203,500 1203,540 1037,540"/>
<polygon id="0x29ed830" class="l71d10" points="20,-3 60,-3 60,243 20,243"/>
<polygon id="0x2a1aa80" class="l71d10" points="20,317 60,317 60,403 20,403"/>
<polygon id="0x2a4d320" class="l71d10" points="20,477 60,477 60,563 20,563"/>
<polygon id="0x2899700" class="l71d10" points="100,-3 140,-3 140,83 100,83"/>
<polygon id="0x2899770" class="l71d10" points="100,237 140,237 140,563 100,563"/>
<polygon id="0x28dfa70" class="l71d10" points="180,77 220,77 220,163 180,163"/>
<polygon id="0x2ae0410" class="l71d10" points="180,237 220,237 220,403 180,403"/>
<polygon id="0x2ae04d0" class="l71d10" points="180,477 220,477 220,563 180,563"/>
<polygon id="0x2ae0590" class="l71d10" points="260,77 300,77 300,243 260,243"/>
<polygon id="0x2ae0650" class="l71d10" points="260,317 300,317 300,563 260,563"/>
<polygon id="0x2ae0710" class="l71d10" points="340,157 380,157 380,323 340,323"/>
<polygon id="0x2ae07d0" class="l71d10" points="340,477 380,477 380,563 340,563"/>
<polygon id="0x2ae0890" class="l71d10" points="420,-3 460,-3 460,83 420,83"/>
<polygon id="0x2ae0950" class="l71d10" points="420,397 460,397 460,563 420,563"/>
<polygon id="0x2ae0a10" class="l71d10" points="500,157 540,157 540,243 500,243"/>
<polygon id="0x2ae0ad0" class="l71d10" points="500,477 540,477 540,563 500,563"/>
<polygon id="0x2ae0b90" class="l71d10" points="580,157 620,157 620,403 580,403"/>
<polygon id="0x2ae0c50" class="l71d10" points="660,-3 700,-3 700,403 660,403"/>
<polygon id="0x2ae0d10" class="l71d10" points="740,-3 780,-3 780,83 740,83"/>
<polygon id="0x2ae0dd0" class="l71d10" points="740,237 780,237 780,323 740,323"/>
<polygon id="0x2ae0e90" class="l71d10" points="740,397 780,397 780,563 740,563"/>
<polygon id="0x2ae0f50" class="l71d10" points="820,-3 860,-3 860,83 820,83"/>
<polygon id="0x2ae1010" class="l71d10" points="820,317 860,317 860,563 820,563"/>
<polygon id="0x2ae10d0" class="l71d10" points="900,-3 940,-3 940,83 900,83"/>
<polygon id="0x2ae1190" class="l71d10" points="900,157 940,157 940,403 900,403"/>
<polygon id="0x2ae1250" class="l71d10" points="900,477 940,477 940,563 900,563"/>
<polygon id="0x2ae1310" class="l71d10" points="980,-3 1020,-3 1020,163 980,163"/>
<polygon id="0x2ae13d0" class="l71d10" points="980,397 1020,397 1020,563 980,563"/>
<polygon id="0x2ae1490" class="l71d10" points="1060,157 1100,157 1100,323 1060,323"/>
<polygon id="0x2ae1550" class="l71d10" points="1140,77 1180,77 1180,483 1140,483"/>
<polygon id="0x2ae1610" class="l235d4" points="0,0 1200,0 1200,560 0,560"/>
</g>
</svg>