<?xml version="1.0" encoding="UTF-8"?>
<svg xmlns="http://www.w3.org/2000/svg" xmlns:xlink="http://www.w3.org/1999/xlink" width="1326.6" height="526.6" viewBox="-63.3 -463.3 1326.6 526.6">
<defs>
<style type="text/css">
.l235d4 {stroke: #0067A5; fill: #0067A5; fill-opacity: 0.5;}
.l71d20 {stroke: #B3446C; fill: #B3446C; fill-opacity: 0.5;}
</style>
</defs>
<rect x="-63.3" y="-463.3" width="1326.6" height="526.6" fill="#222222" stroke="none"/>
<g id="my_logo" transform="scale(1 -1)">
<polygon id="0xfa26d0" class="l71d20" points="-3,20 163,20 163,60 -3,60"/>
<polygon id="0xfe5590" class="l71d20" points="557,20 883,20 883,60 557,60"/>
<polygon id="0xf04370" class="l71d20" points="-3,100 163,100 163,140 -3,140"/>
<polygon id="0xfd8260" class="l71d20" points="317,100 403,100 403,140 317,140"/>
<polygon id="0x10eff90" class="l71d20" points="477,100 883,100 883,140 477,140"/>
<polygon id="0x1140f20" class="l71d20" points="77,180 163,180 163,220 77,220"/>
<polygon id="0x10b5570" class="l71d20" points="317,180 403,180 403,220 317,220"/>
<polygon id="0x10b7580" class="l71d20" points="477,180 563,180 563,220 477,220"/>
<polygon id="0x10ec040" class="l71d20" points="637,180 723,180 723,220 637,220"/>
<polygon id="0x10cf0d0" class="l71d20" points="797,180 883,180 883,220 797,220"/>
<polygon id="0x1105ce0" class="l71d20" points="157,260 243,260 243,300 157,300"/>
<polygon id="0x11446e0" class="l71d20" points="317,260 483,260 483,300 317,300"/>
<polygon id="0x116ab40" class="l71d20" points="717,260 803,260 803,300 717,300"/>
<polygon id="0x10faa60" class="l71d20" points="77,340 163,340 163,380 77,380"/>
<polygon id="0x11154c0" class="l71d20" points="237,340 403,340 403,380 237,380"/>
<polygon id="0x112d5c0" class="l71d20" points="477,340 643,340 643,380 477,380"/>
<polygon id="0x1130860" class="l71d20" points="797,340 883,340 883,380 797,380"/>
<polygon id="0x10d6bb0" class="l71d20" points="957,340 1043,340 1043,380 957,380"/>
<polygon id="0x10b9440" class="l71d20" points="1117,340 1203,340 1203,380 1117,380"/>
<polygon id="0x10beb40" class="l71d20" points="20,157 60,157 60,403 20,403"/>
<polygon id="0x1100900" class="l71d20" points="100,237 140,237 140,323 100,323"/>
<polygon id="0x1111070" class="l71d20" points="180,-3 220,-3 220,243 180,243"/>
<polygon id="0x1104740" class="l71d20" points="180,317 220,317 220,403 180,403"/>
<polygon id="0xe9c510" class="l71d20" points="260,-3 300,-3 300,323 260,323"/>
<polygon id="0xf44390" class="l71d20" points="340,-3 380,-3 380,83 340,83"/>
<polygon id="0xfc47c0" class="l71d20" points="420,-3 460,-3 460,243 420,243"/>
<polygon id="0xfd07f0" class="l71d20" points="420,317 460,317 460,403 420,403"/>
<polygon id="0xecca00" class="l71d20" points="500,-3 540,-3 540,83 500,83"/>
<polygon id="0x10707b0" class="l71d20" points="500,237 540,237 540,323 500,323"/>
<polygon id="0x109da00" class="l71d20" points="580,157 620,157 620,323 580,323"/>
<polygon id="0x10d02a0" class="l71d20" points="660,237 700,237 700,403 660,403"/>
<polygon id="0xf1c680" class="l71d20" points="740,157 780,157 780,243 740,243"/>
<polygon id="0xf629a0" class="l71d20" points="740,317 780,317 780,403 740,403"/>
<polygon id="0x1163390" class="l71d20" points="820,237 860,237 860,323 820,323"/>
<polygon id="0x1163450" class="l71d20" points="900,-3 940,-3 940,403 900,403"/>
<polygon id="0x1163510" class="l71d20" points="980,-3 1020,-3 1020,323 980,323"/>
<polygon id="0x11635d0" class="l71d20" points="1060,-3 1100,-3 1100,403 1060,403"/>
<polygon id="0x1163690" class="l71d20" points="1140,-3 1180,-3 1180,323 1140,323"/>
<polygon id="0x1163750" class="l235d4" points="0,0 1200,0 1200,400 0,400"/>
</g>
</svg>