<?xml version="1.0" encoding="UTF-8"?>
<svg xmlns="http://www.w3.org/2000/svg" xmlns:xlink="http://www.w3.org/1999/xlink" width="720.5" height="720.5" viewBox="-32.75 -687.75 720.5 720.5">
<defs>
<style type="text/css">
.l235d4 {stroke: #0067A5; fill: #0067A5; fill-opacity: 0.5;}
.l71d20 {stroke: #B3446C; fill: #B3446C; fill-opacity: 0.5;}
</style>
</defs>
<rect x="-32.75" y="-687.75" width="720.5" height="720.5" fill="#222222" stroke="none"/>
<g id="my_logo" transform="scale(1 -1)">
<polygon id="0x21335c0" class="l71d20" points="15.75,125 15.75,133.5 24.25,133.5 24.25,125 35,125 35,135.75 26.5,135.75 26.5,144.25 35,144.25 35,155 24.25,155 24.25,146.5 15.75,146.5 15.75,155 5,155 5,144.25 13.5,144.25 13.5,135.75 5,135.75 5,125"/>
<polygon id="0x21dfeb0" class="l71d20" points="15.75,165 15.75,173.5 24.25,173.5 24.25,165 35,165 35,175.75 26.5,175.75 26.5,184.25 35,184.25 35,195 24.25,195 24.25,186.5 15.75,186.5 15.75,195 5,195 5,184.25 13.5,184.25 13.5,175.75 5,175.75 5,165"/>
<polygon id="0x21e0040" class="l71d20" points="55.75,85 55.75,93.5 64.25,93.5 64.25,85 75,85 75,95.75 66.5,95.75 66.5,104.25 75,104.25 75,115 64.25,115 64.25,106.5 55.75,106.5 55.75,115 45,115 45,104.25 53.5,104.25 53.5,95.75 45,95.75 45,85"/>
<polygon id="0x21e00b0" class="l71d20" points="55.75,205 55.75,213.5 64.25,213.5 64.25,205 75,205 75,215.75 66.5,215.75 66.5,224.25 75,224.25 75,235 64.25,235 64.25,226.5 55.75,226.5 55.75,235 45,235 45,224.25 53.5,224.25 53.5,215.75 45,215.75 45,205"/>
<polygon id="0x21e0120" class="l71d20" points="95.75,5 95.75,13.5 104.25,13.5 104.25,5 115,5 115,15.75 106.5,15.75 106.5,24.25 115,24.25 115,35 104.25,35 104.25,26.5 95.75,26.5 95.75,35 85,35 85,24.25 93.5,24.25 93.5,15.75 85,15.75 85,5"/>
<polygon id="0x21e0190" class="l71d20" points="95.75,85 95.75,93.5 104.25,93.5 104.25,85 115,85 115,95.75 106.5,95.75 106.5,104.25 115,104.25 115,115 104.25,115 104.25,106.5 95.75,106.5 95.75,115 85,115 85,104.25 93.5,104.25 93.5,95.75 85,95.75 85,85"/>
<polygon id="0x21e0250" class="l71d20" points="95.75,205 95.75,213.5 104.25,213.5 104.25,205 115,205 115,215.75 106.5,215.75 106.5,224.25 115,224.25 115,235 104.25,235 104.25,226.5 95.75,226.5 95.75,235 85,235 85,224.25 93.5,224.25 93.5,215.75 85,215.75 85,205"/>
<polygon id="0x21e02c0" class="l71d20" points="95.75,285 95.75,293.5 104.25,293.5 104.25,285 115,285 115,295.75 106.5,295.75 106.5,304.25 115,304.25 115,315 104.25,315 104.25,306.5 95.75,306.5 95.75,315 85,315 85,304.25 93.5,304.25 93.5,295.75 85,295.75 85,285"/>
<polygon id="0x21e0330" class="l71d20" points="215.75,5 215.75,13.5 224.25,13.5 224.25,5 235,5 235,15.75 226.5,15.75 226.5,24.25 235,24.25 235,35 224.25,35 224.25,26.5 215.75,26.5 215.75,35 205,35 205,24.25 213.5,24.25 213.5,15.75 205,15.75 205,5"/>
<polygon id="0x21e04f0" class="l71d20" points="215.75,85 215.75,93.5 224.25,93.5 224.25,85 235,85 235,95.75 226.5,95.75 226.5,104.25 235,104.25 235,115 224.25,115 224.25,106.5 215.75,106.5 215.75,115 205,115 205,104.25 213.5,104.25 213.5,95.75 205,95.75 205,85"/>
<polygon id="0x21e06b0" class="l71d20" points="215.75,205 215.75,213.5 224.25,213.5 224.25,205 235,205 235,215.75 226.5,215.75 226.5,224.25 235,224.25 235,235 224.25,235 224.25,226.5 215.75,226.5 215.75,235 205,235 205,224.25 213.5,224.25 213.5,215.75 205,215.75 205,205"/>
<polygon id="0x21e0870" class="l71d20" points="215.75,285 215.75,293.5 224.25,293.5 224.25,285 235,285 235,295.75 226.5,295.75 226.5,304.25 235,304.25 235,315 224.25,315 224.25,306.5 215.75,306.5 215.75,315 205,315 205,304.25 213.5,304.25 213.5,295.75 205,295.75 205,285"/>
<polygon id="0x21e0a30" class="l71d20" points="255.75,85 255.75,93.5 264.25,93.5 264.25,85 275,85 275,95.75 266.5,95.75 266.5,104.25 275,104.25 275,115 264.25,115 264.25,106.5 255.75,106.5 255.75,115 245,115 245,104.25 253.5,104.25 253.5,95.75 245,95.75 245,85"/>
<polygon id="0x21e0bf0" class="l71d20" points="255.75,205 255.75,213.5 264.25,213.5 264.25,205 275,205 275,215.75 266.5,215.75 266.5,224.25 275,224.25 275,235 264.25,235 264.25,226.5 255.75,226.5 255.75,235 245,235 245,224.25 253.5,224.25 253.5,215.75 245,215.75 245,205"/>
<polygon id="0x21e0db0" class="l71d20" points="295.75,125 295.75,133.5 304.25,133.5 304.25,125 315,125 315,135.75 306.5,135.75 306.5,144.25 315,144.25 315,155 304.25,155 304.25,146.5 295.75,146.5 295.75,155 285,155 285,144.25 293.5,144.25 293.5,135.75 285,135.75 285,125"/>
<polygon id="0x21e0f70" class="l71d20" points="295.75,165 295.75,173.5 304.25,173.5 304.25,165 315,165 315,175.75 306.5,175.75 306.5,184.25 315,184.25 315,195 304.25,195 304.25,186.5 295.75,186.5 295.75,195 285,195 285,184.25 293.5,184.25 293.5,175.75 285,175.75 285,165"/>
<polygon id="0x21e1130" class="l71d20" points="15.75,345 15.75,353.5 24.25,353.5 24.25,345 35,345 35,355.75 26.5,355.75 26.5,364.25 35,364.25 35,375 24.25,375 24.25,366.5 15.75,366.5 15.75,375 5,375 5,364.25 13.5,364.25 13.5,355.75 5,355.75 5,345"/>
<polygon id="0x21e12f0" class="l71d20" points="15.75,385 15.75,393.5 24.25,393.5 24.25,385 35,385 35,395.75 26.5,395.75 26.5,404.25 35,404.25 35,415 24.25,415 24.25,406.5 15.75,406.5 15.75,415 5,415 5,404.25 13.5,404.25 13.5,395.75 5,395.75 5,385"/>
<polygon id="0x21e14b0" class="l71d20" points="15.75,465 15.75,473.5 24.25,473.5 24.25,465 35,465 35,475.75 26.5,475.75 26.5,484.25 35,484.25 35,495 24.25,495 24.25,486.5 15.75,486.5 15.75,495 5,495 5,484.25 13.5,484.25 13.5,475.75 5,475.75 5,465"/>
<polygon id="0x21e1670" class="l71d20" points="15.75,505 15.75,513.5 24.25,513.5 24.25,505 35,505 35,515.75 26.5,515.75 26.5,524.25 35,524.25 35,535 24.25,535 24.25,526.5 15.75,526.5 15.75,535 5,535 5,524.25 13.5,524.25 13.5,515.75 5,515.75 5,505"/>
<polygon id="0x21e1830" class="l71d20" points="15.75,585 15.75,593.5 24.25,593.5 24.25,585 35,585 35,595.75 26.5,595.75 26.5,604.25 35,604.25 35,615 24.25,615 24.25,606.5 15.75,606.5 15.75,615 5,615 5,604.25 13.5,604.25 13.5,595.75 5,595.75 5,585"/>
<polygon id="0x21e19f0" class="l71d20" points="15.75,625 15.75,633.5 24.25,633.5 24.25,625 35,625 35,635.75 26.5,635.75 26.5,644.25 35,644.25 35,655 24.25,655 24.25,646.5 15.75,646.5 15.75,655 5,655 5,644.25 13.5,644.25 13.5,635.75 5,635.75 5,625"/>
<polygon id="0x21e1bb0" class="l71d20" points="55.75,345 55.75,353.5 64.25,353.5 64.25,345 75,345 75,355.75 66.5,355.75 66.5,364.25 75,364.25 75,375 64.25,375 64.25,366.5 55.75,366.5 55.75,375 45,375 45,364.25 53.5,364.25 53.5,355.75 45,355.75 45,345"/>
<polygon id="0x21e1d70" class="l71d20" points="55.75,465 55.75,473.5 64.25,473.5 64.25,465 75,465 75,475.75 66.5,475.75 66.5,484.25 75,484.25 75,495 64.25,495 64.25,486.5 55.75,486.5 55.75,495 45,495 45,484.25 53.5,484.25 53.5,475.75 45,475.75 45,465"/>
<polygon id="0x21e1f30" class="l71d20" points="55.75,505 55.75,513.5 64.25,513.5 64.25,505 75,505 75,515.75 66.5,515.75 66.5,524.25 75,524.25 75,535 64.25,535 64.25,526.5 55.75,526.5 55.75,535 45,535 45,524.25 53.5,524.25 53.5,515.75 45,515.75 45,505"/>
<polygon id="0x21e20f0" class="l71d20" points="55.75,625 55.75,633.5 64.25,633.5 64.25,625 75,625 75,635.75 66.5,635.75 66.5,644.25 75,644.25 75,655 64.25,655 64.25,646.5 55.75,646.5 55.75,655 45,655 45,644.25 53.5,644.25 53.5,635.75 45,635.75 45,625"/>
<polygon id="0x21e22b0" class="l71d20" points="95.75,345 95.75,353.5 104.25,353.5 104.25,345 115,345 115,355.75 106.5,355.75 106.5,364.25 115,364.25 115,375 104.25,375 104.25,366.5 95.75,366.5 95.75,375 85,375 85,364.25 93.5,364.25 93.5,355.75 85,355.75 85,345"/>
<polygon id="0x21e2470" class="l71d20" points="95.75,625 95.75,633.5 104.25,633.5 104.25,625 115,625 115,635.75 106.5,635.75 106.5,644.25 115,644.25 115,655 104.25,655 104.25,646.5 95.75,646.5 95.75,655 85,655 85,644.25 93.5,644.25 93.5,635.75 85,635.75 85,625"/>
<polygon id="0x21e2630" class="l71d20" points="135.75,345 135.75,353.5 144.25,353.5 144.25,345 155,345 155,355.75 146.5,355.75 146.5,364.25 155,364.25 155,375 144.25,375 144.25,366.5 135.75,366.5 135.75,375 125,375 125,364.25 133.5,364.25 133.5,355.75 125,355.75 125,345"/>
<polygon id="0x21e27f0" class="l71d20" points="135.75,385 135.75,393.5 144.25,393.5 144.25,385 155,385 155,395.75 146.5,395.75 146.5,404.25 155,404.25 155,415 144.25,415 144.25,406.5 135.75,406.5 135.75,415 125,415 125,404.25 133.5,404.25 133.5,395.75 125,395.75 125,385"/>
<polygon id="0x21e29b0" class="l71d20" points="135.75,425 135.75,433.5 144.25,433.5 144.25,425 155,425 155,435.75 146.5,435.75 146.5,444.25 155,444.25 155,455 144.25,455 144.25,446.5 135.75,446.5 135.75,455 125,455 125,444.25 133.5,444.25 133.5,435.75 125,435.75 125,425"/>
<polygon id="0x21e2b70" class="l71d20" points="135.75,465 135.75,473.5 144.25,473.5 144.25,465 155,465 155,475.75 146.5,475.75 146.5,484.25 155,484.25 155,495 144.25,495 144.25,486.5 135.75,486.5 135.75,495 125,495 125,484.25 133.5,484.25 133.5,475.75 125,475.75 125,465"/>
<polygon id="0x21e2d30" class="l71d20" points="135.75,505 135.75,513.5 144.25,513.5 144.25,505 155,505 155,515.75 146.5,515.75 146.5,524.25 155,524.25 155,535 144.25,535 144.25,526.5 135.75,526.5 135.75,535 125,535 125,524.25 133.5,524.25 133.5,515.75 125,515.75 125,505"/>
<polygon id="0x21e3100" class="l71d20" points="135.75,545 135.75,553.5 144.25,553.5 144.25,545 155,545 155,555.75 146.5,555.75 146.5,564.25 155,564.25 155,575 144.25,575 144.25,566.5 135.75,566.5 135.75,575 125,575 125,564.25 133.5,564.25 133.5,555.75 125,555.75 125,545"/>
<polygon id="0x21e32c0" class="l71d20" points="135.75,585 135.75,593.5 144.25,593.5 144.25,585 155,585 155,595.75 146.5,595.75 146.5,604.25 155,604.25 155,615 144.25,615 144.25,606.5 135.75,606.5 135.75,615 125,615 125,604.25 133.5,604.25 133.5,595.75 125,595.75 125,585"/>
<polygon id="0x21e3480" class="l71d20" points="135.75,625 135.75,633.5 144.25,633.5 144.25,625 155,625 155,635.75 146.5,635.75 146.5,644.25 155,644.25 155,655 144.25,655 144.25,646.5 135.75,646.5 135.75,655 125,655 125,644.25 133.5,644.25 133.5,635.75 125,635.75 125,625"/>
<polygon id="0x21e3640" class="l71d20" points="175.75,345 175.75,353.5 184.25,353.5 184.25,345 195,345 195,355.75 186.5,355.75 186.5,364.25 195,364.25 195,375 184.25,375 184.25,366.5 175.75,366.5 175.75,375 165,375 165,364.25 173.5,364.25 173.5,355.75 165,355.75 165,345"/>
<polygon id="0x21e3800" class="l71d20" points="175.75,385 175.75,393.5 184.25,393.5 184.25,385 195,385 195,395.75 186.5,395.75 186.5,404.25 195,404.25 195,415 184.25,415 184.25,406.5 175.75,406.5 175.75,415 165,415 165,404.25 173.5,404.25 173.5,395.75 165,395.75 165,385"/>
<polygon id="0x21e39c0" class="l71d20" points="175.75,425 175.75,433.5 184.25,433.5 184.25,425 195,425 195,435.75 186.5,435.75 186.5,444.25 195,444.25 195,455 184.25,455 184.25,446.5 175.75,446.5 175.75,455 165,455 165,444.25 173.5,444.25 173.5,435.75 165,435.75 165,425"/>
<polygon id="0x21e3b80" class="l71d20" points="175.75,465 175.75,473.5 184.25,473.5 184.25,465 195,465 195,475.75 186.5,475.75 186.5,484.25 195,484.25 195,495 184.25,495 184.25,486.5 175.75,486.5 175.75,495 165,495 165,484.25 173.5,484.25 173.5,475.75 165,475.75 165,465"/>
<polygon id="0x21e3d40" class="l71d20" points="175.75,505 175.75,513.5 184.25,513.5 184.25,505 195,505 195,515.75 186.5,515.75 186.5,524.25 195,524.25 195,535 184.25,535 184.25,526.5 175.75,526.5 175.75,535 165,535 165,524.25 173.5,524.25 173.5,515.75 165,515.75 165,505"/>
<polygon id="0x21e3f00" class="l71d20" points="175.75,545 175.75,553.5 184.25,553.5 184.25,545 195,545 195,555.75 186.5,555.75 186.5,564.25 195,564.25 195,575 184.25,575 184.25,566.5 175.75,566.5 175.75,575 165,575 165,564.25 173.5,564.25 173.5,555.75 165,555.75 165,545"/>
<polygon id="0x21e40c0" class="l71d20" points="175.75,585 175.75,593.5 184.25,593.5 184.25,585 195,585 195,595.75 186.5,595.75 186.5,604.25 195,604.25 195,615 184.25,615 184.25,606.5 175.75,606.5 175.75,615 165,615 165,604.25 173.5,604.25 173.5,595.75 165,595.75 165,585"/>
<polygon id="0x21e4280" class="l71d20" points="175.75,625 175.75,633.5 184.25,633.5 184.25,625 195,625 195,635.75 186.5,635.75 186.5,644.25 195,644.25 195,655 184.25,655 184.25,646.5 175.75,646.5 175.75,655 165,655 165,644.25 173.5,644.25 173.5,635.75 165,635.75 165,625"/>
<polygon id="0x21e4440" class="l71d20" points="215.75,345 215.75,353.5 224.25,353.5 224.25,345 235,345 235,355.75 226.5,355.75 226.5,364.25 235,364.25 235,375 224.25,375 224.25,366.5 215.75,366.5 215.75,375 205,375 205,364.25 213.5,364.25 213.5,355.75 205,355.75 205,345"/>
<polygon id="0x21e4600" class="l71d20" points="215.75,625 215.75,633.5 224.25,633.5 224.25,625 235,625 235,635.75 226.5,635.75 226.5,644.25 235,644.25 235,655 224.25,655 224.25,646.5 215.75,646.5 215.75,655 205,655 205,644.25 213.5,644.25 213.5,635.75 205,635.75 205,625"/>
<polygon id="0x21e47c0" class="l71d20" points="255.75,345 255.75,353.5 264.25,353.5 264.25,345 275,345 275,355.75 266.5,355.75 266.5,364.25 275,364.25 275,375 264.25,375 264.25,366.5 255.75,366.5 255.75,375 245,375 245,364.25 253.5,364.25 253.5,355.75 245,355.75 245,345"/>
<polygon id="0x21e4980" class="l71d20" points="255.75,465 255.75,473.5 264.25,473.5 264.25,465 275,465 275,475.75 266.5,475.75 266.5,484.25 275,484.25 275,495 264.25,495 264.25,486.5 255.75,486.5 255.75,495 245,495 245,484.25 253.5,484.25 253.5,475.75 245,475.75 245,465"/>
<polygon id="0x21e4b40" class="l71d20" points="255.75,505 255.75,513.5 264.25,513.5 264.25,505 275,505 275,515.75 266.5,515.75 266.5,524.25 275,524.25 275,535 264.25,535 264.25,526.5 255.75,526.5 255.75,535 245,535 245,524.25 253.5,524.25 253.5,515.75 245,515.75 245,505"/>
<polygon id="0x21e4d00" class="l71d20" points="255.75,625 255.75,633.5 264.25,633.5 264.25,625 275,625 275,635.75 266.5,635.75 266.5,644.25 275,644.25 275,655 264.25,655 264.25,646.5 255.75,646.5 255.75,655 245,655 245,644.25 253.5,644.25 253.5,635.75 245,635.75 245,625"/>
<polygon id="0x21e4ec0" class="l71d20" points="295.75,345 295.75,353.5 304.25,353.5 304.25,345 315,345 315,355.75 306.5,355.75 306.5,364.25 315,364.25 315,375 304.25,375 304.25,366.5 295.75,366.5 295.75,375 285,375 285,364.25 293.5,364.25 293.5,355.75 285,355.75 285,345"/>
<polygon id="0x21e5080" class="l71d20" points="295.75,385 295.75,393.5 304.25,393.5 304.25,385 315,385 315,395.75 306.5,395.75 306.5,404.25 315,404.25 315,415 304.25,415 304.25,406.5 295.75,406.5 295.75,415 285,415 285,404.25 293.5,404.25 293.5,395.75 285,395.75 285,385"/>
<polygon id="0x21e5240" class="l71d20" points="295.75,465 295.75,473.5 304.25,473.5 304.25,465 315,465 315,475.75 306.5,475.75 306.5,484.25 315,484.25 315,495 304.25,495 304.25,486.5 295.75,486.5 295.75,495 285,495 285,484.25 293.5,484.25 293.5,475.75 285,475.75 285,465"/>
<polygon id="0x21e5400" class="l71d20" points="295.75,505 295.75,513.5 304.25,513.5 304.25,505 315,505 315,515.75 306.5,515.75 306.5,524.25 315,524.25 315,535 304.25,535 304.25,526.5 295.75,526.5 295.75,535 285,535 285,524.25 293.5,524.25 293.5,515.75 285,515.75 285,505"/>
<polygon id="0x21e55c0" class="l71d20" points="295.75,585 295.75,593.5 304.25,593.5 304.25,585 315,585 315,595.75 306.5,595.75 306.5,604.25 315,604.25 315,615 304.25,615 304.25,606.5 295.75,606.5 295.75,615 285,615 285,604.25 293.5,604.25 293.5,595.75 285,595.75 285,585"/>
<polygon id="0x21e5780" class="l71d20" points="295.75,625 295.75,633.5 304.25,633.5 304.25,625 315,625 315,635.75 306.5,635.75 306.5,644.25 315,644.25 315,655 304.25,655 304.25,646.5 295.75,646.5 295.75,655 285,655 285,644.25 293.5,644.25 293.5,635.75 285,635.75 285,625"/>
<polygon id="0x21e5940" class="l71d20" points="355.75,5 355.75,13.5 364.25,13.5 364.25,5 375,5 375,15.75 366.5,15.75 366.5,24.25 375,24.25 375,35 364.25,35 364.25,26.5 355.75,26.5 355.75,35 345,35 345,24.25 353.5,24.25 353.5,15.75 345,15.75 345,5"/>
<polygon id="0x21acee0" class="l71d20" points="355.75,85 355.75,93.5 364.25,93.5 364.25,85 375,85 375,95.75 366.5,95.75 366.5,104.25 375,104.25 375,115 364.25,115 364.25,106.5 355.75,106.5 355.75,115 345,115 345,104.25 353.5,104.25 353.5,95.75 345,95.75 345,85"/>
<polygon id="0x21691a0" class="l71d20" points="355.75,125 355.75,133.5 364.25,133.5 364.25,125 375,125 375,135.75 366.5,135.75 366.5,144.25 375,144.25 375,155 364.25,155 364.25,146.5 355.75,146.5 355.75,155 345,155 345,144.25 353.5,144.25 353.5,135.75 345,135.75 345,125"/>
<polygon id="0x2111a10" class="l71d20" points="355.75,165 355.75,173.5 364.25,173.5 364.25,165 375,165 375,175.75 366.5,175.75 366.5,184.25 375,184.25 375,195 364.25,195 364.25,186.5 355.75,186.5 355.75,195 345,195 345,184.25 353.5,184.25 353.5,175.75 345,175.75 345,165"/>
<polygon id="0x21b5f60" class="l71d20" points="355.75,205 355.75,213.5 364.25,213.5 364.25,205 375,205 375,215.75 366.5,215.75 366.5,224.25 375,224.25 375,235 364.25,235 364.25,226.5 355.75,226.5 355.75,235 345,235 345,224.25 353.5,224.25 353.5,215.75 345,215.75 345,205"/>
<polygon id="0x2127180" class="l71d20" points="355.75,285 355.75,293.5 364.25,293.5 364.25,285 375,285 375,295.75 366.5,295.75 366.5,304.25 375,304.25 375,315 364.25,315 364.25,306.5 355.75,306.5 355.75,315 345,315 345,304.25 353.5,304.25 353.5,295.75 345,295.75 345,285"/>
<polygon id="0x1ff7ba0" class="l71d20" points="395.75,5 395.75,13.5 404.25,13.5 404.25,5 415,5 415,15.75 406.5,15.75 406.5,24.25 415,24.25 415,35 404.25,35 404.25,26.5 395.75,26.5 395.75,35 385,35 385,24.25 393.5,24.25 393.5,15.75 385,15.75 385,5"/>
<polygon id="0x2041030" class="l71d20" points="395.75,45 395.75,53.5 404.25,53.5 404.25,45 415,45 415,55.75 406.5,55.75 406.5,64.25 415,64.25 415,75 404.25,75 404.25,66.5 395.75,66.5 395.75,75 385,75 385,64.25 393.5,64.25 393.5,55.75 385,55.75 385,45"/>
<polygon id="0x20ca6b0" class="l71d20" points="395.75,85 395.75,93.5 404.25,93.5 404.25,85 415,85 415,95.75 406.5,95.75 406.5,104.25 415,104.25 415,115 404.25,115 404.25,106.5 395.75,106.5 395.75,115 385,115 385,104.25 393.5,104.25 393.5,95.75 385,95.75 385,85"/>
<polygon id="0x1f1efb0" class="l71d20" points="395.75,125 395.75,133.5 404.25,133.5 404.25,125 415,125 415,135.75 406.5,135.75 406.5,144.25 415,144.25 415,155 404.25,155 404.25,146.5 395.75,146.5 395.75,155 385,155 385,144.25 393.5,144.25 393.5,135.75 385,135.75 385,125"/>
<polygon id="0x1faaeb0" class="l71d20" points="395.75,165 395.75,173.5 404.25,173.5 404.25,165 415,165 415,175.75 406.5,175.75 406.5,184.25 415,184.25 415,195 404.25,195 404.25,186.5 395.75,186.5 395.75,195 385,195 385,184.25 393.5,184.25 393.5,175.75 385,175.75 385,165"/>
<polygon id="0x20ebfd0" class="l71d20" points="395.75,205 395.75,213.5 404.25,213.5 404.25,205 415,205 415,215.75 406.5,215.75 406.5,224.25 415,224.25 415,235 404.25,235 404.25,226.5 395.75,226.5 395.75,235 385,235 385,224.25 393.5,224.25 393.5,215.75 385,215.75 385,205"/>
<polygon id="0x214b0f0" class="l71d20" points="395.75,245 395.75,253.5 404.25,253.5 404.25,245 415,245 415,255.75 406.5,255.75 406.5,264.25 415,264.25 415,275 404.25,275 404.25,266.5 395.75,266.5 395.75,275 385,275 385,264.25 393.5,264.25 393.5,255.75 385,255.75 385,245"/>
<polygon id="0x217e090" class="l71d20" points="395.75,285 395.75,293.5 404.25,293.5 404.25,285 415,285 415,295.75 406.5,295.75 406.5,304.25 415,304.25 415,315 404.25,315 404.25,306.5 395.75,306.5 395.75,315 385,315 385,304.25 393.5,304.25 393.5,295.75 385,295.75 385,285"/>
<polygon id="0x20def30" class="l71d20" points="435.75,45 435.75,53.5 444.25,53.5 444.25,45 455,45 455,55.75 446.5,55.75 446.5,64.25 455,64.25 455,75 444.25,75 444.25,66.5 435.75,66.5 435.75,75 425,75 425,64.25 433.5,64.25 433.5,55.75 425,55.75 425,45"/>
<polygon id="0x20defa0" class="l71d20" points="435.75,245 435.75,253.5 444.25,253.5 444.25,245 455,245 455,255.75 446.5,255.75 446.5,264.25 455,264.25 455,275 444.25,275 444.25,266.5 435.75,266.5 435.75,275 425,275 425,264.25 433.5,264.25 433.5,255.75 425,255.75 425,245"/>
<polygon id="0x2107db0" class="l71d20" points="475.75,5 475.75,13.5 484.25,13.5 484.25,5 495,5 495,15.75 486.5,15.75 486.5,24.25 495,24.25 495,35 484.25,35 484.25,26.5 475.75,26.5 475.75,35 465,35 465,24.25 473.5,24.25 473.5,15.75 465,15.75 465,5"/>
<polygon id="0x2107e20" class="l71d20" points="475.75,45 475.75,53.5 484.25,53.5 484.25,45 495,45 495,55.75 486.5,55.75 486.5,64.25 495,64.25 495,75 484.25,75 484.25,66.5 475.75,66.5 475.75,75 465,75 465,64.25 473.5,64.25 473.5,55.75 465,55.75 465,45"/>
<polygon id="0x2154220" class="l71d20" points="475.75,245 475.75,253.5 484.25,253.5 484.25,245 495,245 495,255.75 486.5,255.75 486.5,264.25 495,264.25 495,275 484.25,275 484.25,266.5 475.75,266.5 475.75,275 465,275 465,264.25 473.5,264.25 473.5,255.75 465,255.75 465,245"/>
<polygon id="0x2154290" class="l71d20" points="475.75,285 475.75,293.5 484.25,293.5 484.25,285 495,285 495,295.75 486.5,295.75 486.5,304.25 495,304.25 495,315 484.25,315 484.25,306.5 475.75,306.5 475.75,315 465,315 465,304.25 473.5,304.25 473.5,295.75 465,295.75 465,285"/>
<polygon id="0x217a5b0" class="l71d20" points="515.75,5 515.75,13.5 524.25,13.5 524.25,5 535,5 535,15.75 526.5,15.75 526.5,24.25 535,24.25 535,35 524.25,35 524.25,26.5 515.75,26.5 515.75,35 505,35 505,24.25 513.5,24.25 513.5,15.75 505,15.75 505,5"/>
<polygon id="0x217a620" class="l71d20" points="515.75,45 515.75,53.5 524.25,53.5 524.25,45 535,45 535,55.75 526.5,55.75 526.5,64.25 535,64.25 535,75 524.25,75 524.25,66.5 515.75,66.5 515.75,75 505,75 505,64.25 513.5,64.25 513.5,55.75 505,55.75 505,45"/>
<polygon id="0x217bd50" class="l71d20" points="515.75,245 515.75,253.5 524.25,253.5 524.25,245 535,245 535,255.75 526.5,255.75 526.5,264.25 535,264.25 535,275 524.25,275 524.25,266.5 515.75,266.5 515.75,275 505,275 505,264.25 513.5,264.25 513.5,255.75 505,255.75 505,245"/>
<polygon id="0x217bdc0" class="l71d20" points="515.75,285 515.75,293.5 524.25,293.5 524.25,285 535,285 535,295.75 526.5,295.75 526.5,304.25 535,304.25 535,315 524.25,315 524.25,306.5 515.75,306.5 515.75,315 505,315 505,304.25 513.5,304.25 513.5,295.75 505,295.75 505,285"/>
<polygon id="0x2190f20" class="l71d20" points="555.75,45 555.75,53.5 564.25,53.5 564.25,45 575,45 575,55.75 566.5,55.75 566.5,64.25 575,64.25 575,75 564.25,75 564.25,66.5 555.75,66.5 555.75,75 545,75 545,64.25 553.5,64.25 553.5,55.75 545,55.75 545,45"/>
<polygon id="0x2190f90" class="l71d20" points="555.75,245 555.75,253.5 564.25,253.5 564.25,245 575,245 575,255.75 566.5,255.75 566.5,264.25 575,264.25 575,275 564.25,275 564.25,266.5 555.75,266.5 555.75,275 545,275 545,264.25 553.5,264.25 553.5,255.75 545,255.75 545,245"/>
<polygon id="0x217cda0" class="l71d20" points="595.75,5 595.75,13.5 604.25,13.5 604.25,5 615,5 615,15.75 606.5,15.75 606.5,24.25 615,24.25 615,35 604.25,35 604.25,26.5 595.75,26.5 595.75,35 585,35 585,24.25 593.5,24.25 593.5,15.75 585,15.75 585,5"/>
<polygon id="0x217ce10" class="l71d20" points="595.75,45 595.75,53.5 604.25,53.5 604.25,45 615,45 615,55.75 606.5,55.75 606.5,64.25 615,64.25 615,75 604.25,75 604.25,66.5 595.75,66.5 595.75,75 585,75 585,64.25 593.5,64.25 593.5,55.75 585,55.75 585,45"/>
<polygon id="0x21c1100" class="l71d20" points="595.75,85 595.75,93.5 604.25,93.5 604.25,85 615,85 615,95.75 606.5,95.75 606.5,104.25 615,104.25 615,115 604.25,115 604.25,106.5 595.75,106.5 595.75,115 585,115 585,104.25 593.5,104.25 593.5,95.75 585,95.75 585,85"/>
<polygon id="0x21c1170" class="l71d20" points="595.75,125 595.75,133.5 604.25,133.5 604.25,125 615,125 615,135.75 606.5,135.75 606.5,144.25 615,144.25 615,155 604.25,155 604.25,146.5 595.75,146.5 595.75,155 585,155 585,144.25 593.5,144.25 593.5,135.75 585,135.75 585,125"/>
<polygon id="0x21c7db0" class="l71d20" points="595.75,165 595.75,173.5 604.25,173.5 604.25,165 615,165 615,175.75 606.5,175.75 606.5,184.25 615,184.25 615,195 604.25,195 604.25,186.5 595.75,186.5 595.75,195 585,195 585,184.25 593.5,184.25 593.5,175.75 585,175.75 585,165"/>
<polygon id="0x21c7e20" class="l71d20" points="595.75,205 595.75,213.5 604.25,213.5 604.25,205 615,205 615,215.75 606.5,215.75 606.5,224.25 615,224.25 615,235 604.25,235 604.25,226.5 595.75,226.5 595.75,235 585,235 585,224.25 593.5,224.25 593.5,215.75 585,215.75 585,205"/>
<polygon id="0x21dfad0" class="l71d20" points="595.75,245 595.75,253.5 604.25,253.5 604.25,245 615,245 615,255.75 606.5,255.75 606.5,264.25 615,264.25 615,275 604.25,275 604.25,266.5 595.75,266.5 595.75,275 585,275 585,264.25 593.5,264.25 593.5,255.75 585,255.75 585,245"/>
<polygon id="0x21dfb40" class="l71d20" points="595.75,285 595.75,293.5 604.25,293.5 604.25,285 615,285 615,295.75 606.5,295.75 606.5,304.25 615,304.25 615,315 604.25,315 604.25,306.5 595.75,306.5 595.75,315 585,315 585,304.25 593.5,304.25 593.5,295.75 585,295.75 585,285"/>
<polygon id="0x1f80620" class="l71d20" points="635.75,5 635.75,13.5 644.25,13.5 644.25,5 655,5 655,15.75 646.5,15.75 646.5,24.25 655,24.25 655,35 644.25,35 644.25,26.5 635.75,26.5 635.75,35 625,35 625,24.25 633.5,24.25 633.5,15.75 625,15.75 625,5"/>
<polygon id="0x1f90e60" class="l71d20" points="635.75,85 635.75,93.5 644.25,93.5 644.25,85 655,85 655,95.75 646.5,95.75 646.5,104.25 655,104.25 655,115 644.25,115 644.25,106.5 635.75,106.5 635.75,115 625,115 625,104.25 633.5,104.25 633.5,95.75 625,95.75 625,85"/>
<polygon id="0x1ffa830" class="l71d20" points="635.75,125 635.75,133.5 644.25,133.5 644.25,125 655,125 655,135.75 646.5,135.75 646.5,144.25 655,144.25 655,155 644.25,155 644.25,146.5 635.75,146.5 635.75,155 625,155 625,144.25 633.5,144.25 633.5,135.75 625,135.75 625,125"/>
<polygon id="0x20c1b40" class="l71d20" points="635.75,165 635.75,173.5 644.25,173.5 644.25,165 655,165 655,175.75 646.5,175.75 646.5,184.25 655,184.25 655,195 644.25,195 644.25,186.5 635.75,186.5 635.75,195 625,195 625,184.25 633.5,184.25 633.5,175.75 625,175.75 625,165"/>
<polygon id="0x2157bc0" class="l71d20" points="635.75,205 635.75,213.5 644.25,213.5 644.25,205 655,205 655,215.75 646.5,215.75 646.5,224.25 655,224.25 655,235 644.25,235 644.25,226.5 635.75,226.5 635.75,235 625,235 625,224.25 633.5,224.25 633.5,215.75 625,215.75 625,205"/>
<polygon id="0x214dd30" class="l71d20" points="635.75,285 635.75,293.5 644.25,293.5 644.25,285 655,285 655,295.75 646.5,295.75 646.5,304.25 655,304.25 655,315 644.25,315 644.25,306.5 635.75,306.5 635.75,315 625,315 625,304.25 633.5,304.25 633.5,295.75 625,295.75 625,285"/>
<polygon id="0x21456c0" class="l71d20" points="395.75,385 395.75,393.5 404.25,393.5 404.25,385 415,385 415,395.75 406.5,395.75 406.5,404.25 415,404.25 415,415 404.25,415 404.25,406.5 395.75,406.5 395.75,415 385,415 385,404.25 393.5,404.25 393.5,395.75 385,395.75 385,385"/>
<polygon id="0x21b0b00" class="l71d20" points="395.75,585 395.75,593.5 404.25,593.5 404.25,585 415,585 415,595.75 406.5,595.75 406.5,604.25 415,604.25 415,615 404.25,615 404.25,606.5 395.75,606.5 395.75,615 385,615 385,604.25 393.5,604.25 393.5,595.75 385,595.75 385,585"/>
<polygon id="0x21df890" class="l71d20" points="435.75,345 435.75,353.5 444.25,353.5 444.25,345 455,345 455,355.75 446.5,355.75 446.5,364.25 455,364.25 455,375 444.25,375 444.25,366.5 435.75,366.5 435.75,375 425,375 425,364.25 433.5,364.25 433.5,355.75 425,355.75 425,345"/>
<polygon id="0x1f7d0b0" class="l71d20" points="435.75,425 435.75,433.5 444.25,433.5 444.25,425 455,425 455,435.75 446.5,435.75 446.5,444.25 455,444.25 455,455 444.25,455 444.25,446.5 435.75,446.5 435.75,455 425,455 425,444.25 433.5,444.25 433.5,435.75 425,435.75 425,425"/>
<polygon id="0x2049520" class="l71d20" points="435.75,545 435.75,553.5 444.25,553.5 444.25,545 455,545 455,555.75 446.5,555.75 446.5,564.25 455,564.25 455,575 444.25,575 444.25,566.5 435.75,566.5 435.75,575 425,575 425,564.25 433.5,564.25 433.5,555.75 425,555.75 425,545"/>
<polygon id="0x20992e0" class="l71d20" points="435.75,625 435.75,633.5 444.25,633.5 444.25,625 455,625 455,635.75 446.5,635.75 446.5,644.25 455,644.25 455,655 444.25,655 444.25,646.5 435.75,646.5 435.75,655 425,655 425,644.25 433.5,644.25 433.5,635.75 425,635.75 425,625"/>
<polygon id="0x2135590" class="l71d20" points="475.75,385 475.75,393.5 484.25,393.5 484.25,385 495,385 495,395.75 486.5,395.75 486.5,404.25 495,404.25 495,415 484.25,415 484.25,406.5 475.75,406.5 475.75,415 465,415 465,404.25 473.5,404.25 473.5,395.75 465,395.75 465,385"/>
<polygon id="0x1f86400" class="l71d20" points="475.75,465 475.75,473.5 484.25,473.5 484.25,465 495,465 495,475.75 486.5,475.75 486.5,484.25 495,484.25 495,495 484.25,495 484.25,486.5 475.75,486.5 475.75,495 465,495 465,484.25 473.5,484.25 473.5,475.75 465,475.75 465,465"/>
<polygon id="0x21df9b0" class="l71d20" points="475.75,505 475.75,513.5 484.25,513.5 484.25,505 495,505 495,515.75 486.5,515.75 486.5,524.25 495,524.25 495,535 484.25,535 484.25,526.5 475.75,526.5 475.75,535 465,535 465,524.25 473.5,524.25 473.5,515.75 465,515.75 465,505"/>
<polygon id="0x1fbba50" class="l71d20" points="475.75,585 475.75,593.5 484.25,593.5 484.25,585 495,585 495,595.75 486.5,595.75 486.5,604.25 495,604.25 495,615 484.25,615 484.25,606.5 475.75,606.5 475.75,615 465,615 465,604.25 473.5,604.25 473.5,595.75 465,595.75 465,585"/>
<polygon id="0x1f8c440" class="l71d20" points="515.75,385 515.75,393.5 524.25,393.5 524.25,385 535,385 535,395.75 526.5,395.75 526.5,404.25 535,404.25 535,415 524.25,415 524.25,406.5 515.75,406.5 515.75,415 505,415 505,404.25 513.5,404.25 513.5,395.75 505,395.75 505,385"/>
<polygon id="0x1f8c4b0" class="l71d20" points="515.75,465 515.75,473.5 524.25,473.5 524.25,465 535,465 535,475.75 526.5,475.75 526.5,484.25 535,484.25 535,495 524.25,495 524.25,486.5 515.75,486.5 515.75,495 505,495 505,484.25 513.5,484.25 513.5,475.75 505,475.75 505,465"/>
<polygon id="0x210aa80" class="l71d20" points="515.75,505 515.75,513.5 524.25,513.5 524.25,505 535,505 535,515.75 526.5,515.75 526.5,524.25 535,524.25 535,535 524.25,535 524.25,526.5 515.75,526.5 515.75,535 505,535 505,524.25 513.5,524.25 513.5,515.75 505,515.75 505,505"/>
<polygon id="0x210aaf0" class="l71d20" points="515.75,585 515.75,593.5 524.25,593.5 524.25,585 535,585 535,595.75 526.5,595.75 526.5,604.25 535,604.25 535,615 524.25,615 524.25,606.5 515.75,606.5 515.75,615 505,615 505,604.25 513.5,604.25 513.5,595.75 505,595.75 505,585"/>
<polygon id="0x1fd2600" class="l71d20" points="555.75,345 555.75,353.5 564.25,353.5 564.25,345 575,345 575,355.75 566.5,355.75 566.5,364.25 575,364.25 575,375 564.25,375 564.25,366.5 555.75,366.5 555.75,375 545,375 545,364.25 553.5,364.25 553.5,355.75 545,355.75 545,345"/>
<polygon id="0x205ee20" class="l71d20" points="555.75,425 555.75,433.5 564.25,433.5 564.25,425 575,425 575,435.75 566.5,435.75 566.5,444.25 575,444.25 575,455 564.25,455 564.25,446.5 555.75,446.5 555.75,455 545,455 545,444.25 553.5,444.25 553.5,435.75 545,435.75 545,425"/>
<polygon id="0x20431a0" class="l71d20" points="555.75,545 555.75,553.5 564.25,553.5 564.25,545 575,545 575,555.75 566.5,555.75 566.5,564.25 575,564.25 575,575 564.25,575 564.25,566.5 555.75,566.5 555.75,575 545,575 545,564.25 553.5,564.25 553.5,555.75 545,555.75 545,545"/>
<polygon id="0x20c5570" class="l71d20" points="555.75,625 555.75,633.5 564.25,633.5 564.25,625 575,625 575,635.75 566.5,635.75 566.5,644.25 575,644.25 575,655 564.25,655 564.25,646.5 555.75,646.5 555.75,655 545,655 545,644.25 553.5,644.25 553.5,635.75 545,635.75 545,625"/>
<polygon id="0x2174b20" class="l71d20" points="595.75,385 595.75,393.5 604.25,393.5 604.25,385 615,385 615,395.75 606.5,395.75 606.5,404.25 615,404.25 615,415 604.25,415 604.25,406.5 595.75,406.5 595.75,415 585,415 585,404.25 593.5,404.25 593.5,395.75 585,395.75 585,385"/>
<polygon id="0x2195c70" class="l71d20" points="595.75,585 595.75,593.5 604.25,593.5 604.25,585 615,585 615,595.75 606.5,595.75 606.5,604.25 615,604.25 615,615 604.25,615 604.25,606.5 595.75,606.5 595.75,615 585,615 585,604.25 593.5,604.25 593.5,595.75 585,595.75 585,585"/>
<polygon id="0x2004970" class="l235d4" points="0,0 40,0 40,40 0,40"/>
</g>
</svg>