<?xml version="1.0" encoding="UTF-8"?>
<svg xmlns="http://www.w3.org/2000/svg" xmlns:xlink="http://www.w3.org/1999/xlink" width="347.111984" height="347.111984" viewBox="-15.777817 -331.334167 347.111984 347.111984">
<defs>
<style type="text/css">
.l235d4 {stroke: #0067A5; fill: #0067A5; fill-opacity: 0.5;}
.l71d20 {stroke: #B3446C; fill: #B3446C; fill-opacity: 0.5;}
</style>
</defs>
<rect x="-15.777817" y="-331.334167" width="347.111984" height="347.111984" fill="#222222" stroke="none"/>
<g id="my_logo" transform="scale(1 -1)">
<polygon id="0x188a710" class="l71d20" points="11.514719,4.443651 35.556349,28.485281 28.485281,35.556349 4.443651,11.514719"/>
<polygon id="0x189b740" class="l71d20" points="11.514719,44.443651 35.556349,68.485281 28.485281,75.556349 4.443651,51.514719"/>
<polygon id="0x18ab090" class="l71d20" points="11.514719,84.443651 35.556349,108.485281 28.485281,115.556349 4.443651,91.514719"/>
<polygon id="0x18edc10" class="l71d20" points="11.514719,204.443651 35.556349,228.485281 28.485281,235.556349 4.443651,211.514719"/>
<polygon id="0x17aa110" class="l71d20" points="11.514719,244.443651 35.556349,268.485281 28.485281,275.556349 4.443651,251.514719"/>
<polygon id="0x17aadf0" class="l71d20" points="11.514719,284.443651 35.556349,308.485281 28.485281,315.556349 4.443651,291.514719"/>
<polygon id="0x19af1a0" class="l71d20" points="51.514719,44.443651 75.556349,68.485281 68.485281,75.556349 44.443651,51.514719"/>
<polygon id="0x1a3b840" class="l71d20" points="51.514719,244.443651 75.556349,268.485281 68.485281,275.556349 44.443651,251.514719"/>
<polygon id="0x19a0510" class="l71d20" points="91.514719,44.443651 115.556349,68.485281 108.485281,75.556349 84.443651,51.514719"/>
<polygon id="0x1a73eb0" class="l71d20" points="91.514719,84.443651 115.556349,108.485281 108.485281,115.556349 84.443651,91.514719"/>
<polygon id="0x1a72ef0" class="l71d20" points="91.514719,204.443651 115.556349,228.485281 108.485281,235.556349 84.443651,211.514719"/>
<polygon id="0x19f40b0" class="l71d20" points="91.514719,244.443651 115.556349,268.485281 108.485281,275.556349 84.443651,251.514719"/>
<polygon id="0x1a32ba0" class="l71d20" points="131.514719,44.443651 155.556349,68.485281 148.485281,75.556349 124.443651,51.514719"/>
<polygon id="0x1982b80" class="l71d20" points="131.514719,244.443651 155.556349,268.485281 148.485281,275.556349 124.443651,251.514719"/>
<polygon id="0x1a1d870" class="l71d20" points="171.514719,44.443651 195.556349,68.485281 188.485281,75.556349 164.443651,51.514719"/>
<polygon id="0x1a35970" class="l71d20" points="171.514719,244.443651 195.556349,268.485281 188.485281,275.556349 164.443651,251.514719"/>
<polygon id="0x1a38c10" class="l71d20" points="211.514719,44.443651 235.556349,68.485281 228.485281,75.556349 204.443651,51.514719"/>
<polygon id="0x1a1a5d0" class="l71d20" points="211.514719,84.443651 235.556349,108.485281 228.485281,115.556349 204.443651,91.514719"/>
<polygon id="0x1884520" class="l71d20" points="211.514719,204.443651 235.556349,228.485281 228.485281,235.556349 204.443651,211.514719"/>
<polygon id="0x19478f0" class="l71d20" points="211.514719,244.443651 235.556349,268.485281 228.485281,275.556349 204.443651,251.514719"/>
<polygon id="0x1979a60" class="l71d20" points="251.514719,44.443651 275.556349,68.485281 268.485281,75.556349 244.443651,51.514719"/>
<polygon id="0x19b5230" class="l71d20" points="251.514719,244.443651 275.556349,268.485281 268.485281,275.556349 244.443651,251.514719"/>
<polygon id="0x19c1620" class="l71d20" points="291.514719,4.443651 315.556349,28.485281 308.485281,35.556349 284.443651,11.514719"/>
<polygon id="0x19c6d20" class="l71d20" points="291.514719,44.443651 315.556349,68.485281 308.485281,75.556349 284.443651,51.514719"/>
<polygon id="0x1a08cb0" class="l71d20" points="291.514719,84.443651 315.556349,108.485281 308.485281,115.556349 284.443651,91.514719"/>
<polygon id="0x1a19420" class="l71d20" points="291.514719,204.443651 315.556349,228.485281 308.485281,235.556349 284.443651,211.514719"/>
<polygon id="0x1a0caf0" class="l71d20" points="291.514719,244.443651 315.556349,268.485281 308.485281,275.556349 284.443651,251.514719"/>
<polygon id="0x17a4450" class="l71d20" points="291.514719,284.443651 315.556349,308.485281 308.485281,315.556349 284.443651,291.514719"/>
<polygon id="0x184ce90" class="l235d4" points="0,0 40,0 40,40 0,40"/>
</g>
</svg>