<?xml version="1.0" encoding="UTF-8"?>
<svg xmlns="http://www.w3.org/2000/svg" xmlns:xlink="http://www.w3.org/1999/xlink" width="1138.5" height="418.5" viewBox="-51.75 -366.75 1138.5 418.5">
<defs>
<style type="text/css">
.l235d4 {stroke: #0067A5; fill: #0067A5; fill-opacity: 0.5;}
.l71d20 {stroke: #B3446C; fill: #B3446C; fill-opacity: 0.5;}
</style>
</defs>
<rect x="-51.75" y="-366.75" width="1138.5" height="418.5" fill="#222222" stroke="none"/>
<g id="my_logo" transform="scale(1 -1)">
<polygon id="0x159c750" class="l71d20" points="15.75,45 15.75,53.5 24.25,53.5 24.25,45 35,45 35,55.75 26.5,55.75 26.5,64.25 35,64.25 35,75 24.25,75 24.25,66.5 15.75,66.5 15.75,75 5,75 5,64.25 13.5,64.25 13.5,55.75 5,55.75 5,45"/>
<polygon id="0x159d310" class="l71d20" points="15.75,85 15.75,93.5 24.25,93.5 24.25,85 35,85 35,95.75 26.5,95.75 26.5,104.25 35,104.25 35,115 24.25,115 24.25,106.5 15.75,106.5 15.75,115 5,115 5,104.25 13.5,104.25 13.5,95.75 5,95.75 5,85"/>
<polygon id="0x159d470" class="l71d20" points="15.75,205 15.75,213.5 24.25,213.5 24.25,205 35,205 35,215.75 26.5,215.75 26.5,224.25 35,224.25 35,235 24.25,235 24.25,226.5 15.75,226.5 15.75,235 5,235 5,224.25 13.5,224.25 13.5,215.75 5,215.75 5,205"/>
<polygon id="0x159d4e0" class="l71d20" points="15.75,245 15.75,253.5 24.25,253.5 24.25,245 35,245 35,255.75 26.5,255.75 26.5,264.25 35,264.25 35,275 24.25,275 24.25,266.5 15.75,266.5 15.75,275 5,275 5,264.25 13.5,264.25 13.5,255.75 5,255.75 5,245"/>
<polygon id="0x159d550" class="l71d20" points="55.75,5 55.75,13.5 64.25,13.5 64.25,5 75,5 75,15.75 66.5,15.75 66.5,24.25 75,24.25 75,35 64.25,35 64.25,26.5 55.75,26.5 55.75,35 45,35 45,24.25 53.5,24.25 53.5,15.75 45,15.75 45,5"/>
<polygon id="0x159d5c0" class="l71d20" points="55.75,45 55.75,53.5 64.25,53.5 64.25,45 75,45 75,55.75 66.5,55.75 66.5,64.25 75,64.25 75,75 64.25,75 64.25,66.5 55.75,66.5 55.75,75 45,75 45,64.25 53.5,64.25 53.5,55.75 45,55.75 45,45"/>
<polygon id="0x159d680" class="l71d20" points="55.75,85 55.75,93.5 64.25,93.5 64.25,85 75,85 75,95.75 66.5,95.75 66.5,104.25 75,104.25 75,115 64.25,115 64.25,106.5 55.75,106.5 55.75,115 45,115 45,104.25 53.5,104.25 53.5,95.75 45,95.75 45,85"/>
<polygon id="0x159d6f0" class="l71d20" points="55.75,205 55.75,213.5 64.25,213.5 64.25,205 75,205 75,215.75 66.5,215.75 66.5,224.25 75,224.25 75,235 64.25,235 64.25,226.5 55.75,226.5 55.75,235 45,235 45,224.25 53.5,224.25 53.5,215.75 45,215.75 45,205"/>
<polygon id="0x159d760" class="l71d20" points="55.75,245 55.75,253.5 64.25,253.5 64.25,245 75,245 75,255.75 66.5,255.75 66.5,264.25 75,264.25 75,275 64.25,275 64.25,266.5 55.75,266.5 55.75,275 45,275 45,264.25 53.5,264.25 53.5,255.75 45,255.75 45,245"/>
<polygon id="0x159d7d0" class="l71d20" points="55.75,285 55.75,293.5 64.25,293.5 64.25,285 75,285 75,295.75 66.5,295.75 66.5,304.25 75,304.25 75,315 64.25,315 64.25,306.5 55.75,306.5 55.75,315 45,315 45,304.25 53.5,304.25 53.5,295.75 45,295.75 45,285"/>
<polygon id="0x159d990" class="l71d20" points="95.75,45 95.75,53.5 104.25,53.5 104.25,45 115,45 115,55.75 106.5,55.75 106.5,64.25 115,64.25 115,75 104.25,75 104.25,66.5 95.75,66.5 95.75,75 85,75 85,64.25 93.5,64.25 93.5,55.75 85,55.75 85,45"/>
<polygon id="0x159db50" class="l71d20" points="95.75,85 95.75,93.5 104.25,93.5 104.25,85 115,85 115,95.75 106.5,95.75 106.5,104.25 115,104.25 115,115 104.25,115 104.25,106.5 95.75,106.5 95.75,115 85,115 85,104.25 93.5,104.25 93.5,95.75 85,95.75 85,85"/>
<polygon id="0x159dd10" class="l71d20" points="95.75,125 95.75,133.5 104.25,133.5 104.25,125 115,125 115,135.75 106.5,135.75 106.5,144.25 115,144.25 115,155 104.25,155 104.25,146.5 95.75,146.5 95.75,155 85,155 85,144.25 93.5,144.25 93.5,135.75 85,135.75 85,125"/>
<polygon id="0x159ded0" class="l71d20" points="95.75,165 95.75,173.5 104.25,173.5 104.25,165 115,165 115,175.75 106.5,175.75 106.5,184.25 115,184.25 115,195 104.25,195 104.25,186.5 95.75,186.5 95.75,195 85,195 85,184.25 93.5,184.25 93.5,175.75 85,175.75 85,165"/>
<polygon id="0x159e090" class="l71d20" points="95.75,205 95.75,213.5 104.25,213.5 104.25,205 115,205 115,215.75 106.5,215.75 106.5,224.25 115,224.25 115,235 104.25,235 104.25,226.5 95.75,226.5 95.75,235 85,235 85,224.25 93.5,224.25 93.5,215.75 85,215.75 85,205"/>
<polygon id="0x159e250" class="l71d20" points="95.75,245 95.75,253.5 104.25,253.5 104.25,245 115,245 115,255.75 106.5,255.75 106.5,264.25 115,264.25 115,275 104.25,275 104.25,266.5 95.75,266.5 95.75,275 85,275 85,264.25 93.5,264.25 93.5,255.75 85,255.75 85,245"/>
<polygon id="0x159e410" class="l71d20" points="135.75,5 135.75,13.5 144.25,13.5 144.25,5 155,5 155,15.75 146.5,15.75 146.5,24.25 155,24.25 155,35 144.25,35 144.25,26.5 135.75,26.5 135.75,35 125,35 125,24.25 133.5,24.25 133.5,15.75 125,15.75 125,5"/>
<polygon id="0x159e5d0" class="l71d20" points="135.75,45 135.75,53.5 144.25,53.5 144.25,45 155,45 155,55.75 146.5,55.75 146.5,64.25 155,64.25 155,75 144.25,75 144.25,66.5 135.75,66.5 135.75,75 125,75 125,64.25 133.5,64.25 133.5,55.75 125,55.75 125,45"/>
<polygon id="0x159e790" class="l71d20" points="135.75,245 135.75,253.5 144.25,253.5 144.25,245 155,245 155,255.75 146.5,255.75 146.5,264.25 155,264.25 155,275 144.25,275 144.25,266.5 135.75,266.5 135.75,275 125,275 125,264.25 133.5,264.25 133.5,255.75 125,255.75 125,245"/>
<polygon id="0x159e950" class="l71d20" points="135.75,285 135.75,293.5 144.25,293.5 144.25,285 155,285 155,295.75 146.5,295.75 146.5,304.25 155,304.25 155,315 144.25,315 144.25,306.5 135.75,306.5 135.75,315 125,315 125,304.25 133.5,304.25 133.5,295.75 125,295.75 125,285"/>
<polygon id="0x159eb10" class="l71d20" points="175.75,5 175.75,13.5 184.25,13.5 184.25,5 195,5 195,15.75 186.5,15.75 186.5,24.25 195,24.25 195,35 184.25,35 184.25,26.5 175.75,26.5 175.75,35 165,35 165,24.25 173.5,24.25 173.5,15.75 165,15.75 165,5"/>
<polygon id="0x159ecd0" class="l71d20" points="175.75,45 175.75,53.5 184.25,53.5 184.25,45 195,45 195,55.75 186.5,55.75 186.5,64.25 195,64.25 195,75 184.25,75 184.25,66.5 175.75,66.5 175.75,75 165,75 165,64.25 173.5,64.25 173.5,55.75 165,55.75 165,45"/>
<polygon id="0x159ee90" class="l71d20" points="175.75,245 175.75,253.5 184.25,253.5 184.25,245 195,245 195,255.75 186.5,255.75 186.5,264.25 195,264.25 195,275 184.25,275 184.25,266.5 175.75,266.5 175.75,275 165,275 165,264.25 173.5,264.25 173.5,255.75 165,255.75 165,245"/>
<polygon id="0x159f050" class="l71d20" points="175.75,285 175.75,293.5 184.25,293.5 184.25,285 195,285 195,295.75 186.5,295.75 186.5,304.25 195,304.25 195,315 184.25,315 184.25,306.5 175.75,306.5 175.75,315 165,315 165,304.25 173.5,304.25 173.5,295.75 165,295.75 165,285"/>
<polygon id="0x159f210" class="l71d20" points="215.75,45 215.75,53.5 224.25,53.5 224.25,45 235,45 235,55.75 226.5,55.75 226.5,64.25 235,64.25 235,75 224.25,75 224.25,66.5 215.75,66.5 215.75,75 205,75 205,64.25 213.5,64.25 213.5,55.75 205,55.75 205,45"/>
<polygon id="0x159f3d0" class="l71d20" points="215.75,85 215.75,93.5 224.25,93.5 224.25,85 235,85 235,95.75 226.5,95.75 226.5,104.25 235,104.25 235,115 224.25,115 224.25,106.5 215.75,106.5 215.75,115 205,115 205,104.25 213.5,104.25 213.5,95.75 205,95.75 205,85"/>
<polygon id="0x159f590" class="l71d20" points="215.75,125 215.75,133.5 224.25,133.5 224.25,125 235,125 235,135.75 226.5,135.75 226.5,144.25 235,144.25 235,155 224.25,155 224.25,146.5 215.75,146.5 215.75,155 205,155 205,144.25 213.5,144.25 213.5,135.75 205,135.75 205,125"/>
<polygon id="0x159f750" class="l71d20" points="215.75,165 215.75,173.5 224.25,173.5 224.25,165 235,165 235,175.75 226.5,175.75 226.5,184.25 235,184.25 235,195 224.25,195 224.25,186.5 215.75,186.5 215.75,195 205,195 205,184.25 213.5,184.25 213.5,175.75 205,175.75 205,165"/>
<polygon id="0x159f910" class="l71d20" points="215.75,205 215.75,213.5 224.25,213.5 224.25,205 235,205 235,215.75 226.5,215.75 226.5,224.25 235,224.25 235,235 224.25,235 224.25,226.5 215.75,226.5 215.75,235 205,235 205,224.25 213.5,224.25 213.5,215.75 205,215.75 205,205"/>
<polygon id="0x159fad0" class="l71d20" points="215.75,245 215.75,253.5 224.25,253.5 224.25,245 235,245 235,255.75 226.5,255.75 226.5,264.25 235,264.25 235,275 224.25,275 224.25,266.5 215.75,266.5 215.75,275 205,275 205,264.25 213.5,264.25 213.5,255.75 205,255.75 205,245"/>
<polygon id="0x159fc90" class="l71d20" points="255.75,5 255.75,13.5 264.25,13.5 264.25,5 275,5 275,15.75 266.5,15.75 266.5,24.25 275,24.25 275,35 264.25,35 264.25,26.5 255.75,26.5 255.75,35 245,35 245,24.25 253.5,24.25 253.5,15.75 245,15.75 245,5"/>
<polygon id="0x159fe50" class="l71d20" points="255.75,45 255.75,53.5 264.25,53.5 264.25,45 275,45 275,55.75 266.5,55.75 266.5,64.25 275,64.25 275,75 264.25,75 264.25,66.5 255.75,66.5 255.75,75 245,75 245,64.25 253.5,64.25 253.5,55.75 245,55.75 245,45"/>
<polygon id="0x15a0010" class="l71d20" points="255.75,85 255.75,93.5 264.25,93.5 264.25,85 275,85 275,95.75 266.5,95.75 266.5,104.25 275,104.25 275,115 264.25,115 264.25,106.5 255.75,106.5 255.75,115 245,115 245,104.25 253.5,104.25 253.5,95.75 245,95.75 245,85"/>
<polygon id="0x15a01d0" class="l71d20" points="255.75,205 255.75,213.5 264.25,213.5 264.25,205 275,205 275,215.75 266.5,215.75 266.5,224.25 275,224.25 275,235 264.25,235 264.25,226.5 255.75,226.5 255.75,235 245,235 245,224.25 253.5,224.25 253.5,215.75 245,215.75 245,205"/>
<polygon id="0x15a0390" class="l71d20" points="255.75,245 255.75,253.5 264.25,253.5 264.25,245 275,245 275,255.75 266.5,255.75 266.5,264.25 275,264.25 275,275 264.25,275 264.25,266.5 255.75,266.5 255.75,275 245,275 245,264.25 253.5,264.25 253.5,255.75 245,255.75 245,245"/>
<polygon id="0x15a0550" class="l71d20" points="255.75,285 255.75,293.5 264.25,293.5 264.25,285 275,285 275,295.75 266.5,295.75 266.5,304.25 275,304.25 275,315 264.25,315 264.25,306.5 255.75,306.5 255.75,315 245,315 245,304.25 253.5,304.25 253.5,295.75 245,295.75 245,285"/>
<polygon id="0x15a0710" class="l71d20" points="295.75,45 295.75,53.5 304.25,53.5 304.25,45 315,45 315,55.75 306.5,55.75 306.5,64.25 315,64.25 315,75 304.25,75 304.25,66.5 295.75,66.5 295.75,75 285,75 285,64.25 293.5,64.25 293.5,55.75 285,55.75 285,45"/>
<polygon id="0x15a08d0" class="l71d20" points="295.75,85 295.75,93.5 304.25,93.5 304.25,85 315,85 315,95.75 306.5,95.75 306.5,104.25 315,104.25 315,115 304.25,115 304.25,106.5 295.75,106.5 295.75,115 285,115 285,104.25 293.5,104.25 293.5,95.75 285,95.75 285,85"/>
<polygon id="0x15a0a90" class="l71d20" points="295.75,205 295.75,213.5 304.25,213.5 304.25,205 315,205 315,215.75 306.5,215.75 306.5,224.25 315,224.25 315,235 304.25,235 304.25,226.5 295.75,226.5 295.75,235 285,235 285,224.25 293.5,224.25 293.5,215.75 285,215.75 285,205"/>
<polygon id="0x15a0c50" class="l71d20" points="295.75,245 295.75,253.5 304.25,253.5 304.25,245 315,245 315,255.75 306.5,255.75 306.5,264.25 315,264.25 315,275 304.25,275 304.25,266.5 295.75,266.5 295.75,275 285,275 285,264.25 293.5,264.25 293.5,255.75 285,255.75 285,245"/>
<polygon id="0x15a0e10" class="l71d20" points="375.75,45 375.75,53.5 384.25,53.5 384.25,45 395,45 395,55.75 386.5,55.75 386.5,64.25 395,64.25 395,75 384.25,75 384.25,66.5 375.75,66.5 375.75,75 365,75 365,64.25 373.5,64.25 373.5,55.75 365,55.75 365,45"/>
<polygon id="0x15a0fd0" class="l71d20" points="375.75,85 375.75,93.5 384.25,93.5 384.25,85 395,85 395,95.75 386.5,95.75 386.5,104.25 395,104.25 395,115 384.25,115 384.25,106.5 375.75,106.5 375.75,115 365,115 365,104.25 373.5,104.25 373.5,95.75 365,95.75 365,85"/>
<polygon id="0x15a1190" class="l71d20" points="375.75,205 375.75,213.5 384.25,213.5 384.25,205 395,205 395,215.75 386.5,215.75 386.5,224.25 395,224.25 395,235 384.25,235 384.25,226.5 375.75,226.5 375.75,235 365,235 365,224.25 373.5,224.25 373.5,215.75 365,215.75 365,205"/>
<polygon id="0x15a1350" class="l71d20" points="375.75,245 375.75,253.5 384.25,253.5 384.25,245 395,245 395,255.75 386.5,255.75 386.5,264.25 395,264.25 395,275 384.25,275 384.25,266.5 375.75,266.5 375.75,275 365,275 365,264.25 373.5,264.25 373.5,255.75 365,255.75 365,245"/>
<polygon id="0x15a1510" class="l71d20" points="455.75,5 455.75,13.5 464.25,13.5 464.25,5 475,5 475,15.75 466.5,15.75 466.5,24.25 475,24.25 475,35 464.25,35 464.25,26.5 455.75,26.5 455.75,35 445,35 445,24.25 453.5,24.25 453.5,15.75 445,15.75 445,5"/>
<polygon id="0x15a16d0" class="l71d20" points="455.75,125 455.75,133.5 464.25,133.5 464.25,125 475,125 475,135.75 466.5,135.75 466.5,144.25 475,144.25 475,155 464.25,155 464.25,146.5 455.75,146.5 455.75,155 445,155 445,144.25 453.5,144.25 453.5,135.75 445,135.75 445,125"/>
<polygon id="0x15a1890" class="l71d20" points="455.75,165 455.75,173.5 464.25,173.5 464.25,165 475,165 475,175.75 466.5,175.75 466.5,184.25 475,184.25 475,195 464.25,195 464.25,186.5 455.75,186.5 455.75,195 445,195 445,184.25 453.5,184.25 453.5,175.75 445,175.75 445,165"/>
<polygon id="0x15a1a50" class="l71d20" points="455.75,285 455.75,293.5 464.25,293.5 464.25,285 475,285 475,295.75 466.5,295.75 466.5,304.25 475,304.25 475,315 464.25,315 464.25,306.5 455.75,306.5 455.75,315 445,315 445,304.25 453.5,304.25 453.5,295.75 445,295.75 445,285"/>
<polygon id="0x15a1c10" class="l71d20" points="495.75,5 495.75,13.5 504.25,13.5 504.25,5 515,5 515,15.75 506.5,15.75 506.5,24.25 515,24.25 515,35 504.25,35 504.25,26.5 495.75,26.5 495.75,35 485,35 485,24.25 493.5,24.25 493.5,15.75 485,15.75 485,5"/>
<polygon id="0x15a1dd0" class="l71d20" points="495.75,85 495.75,93.5 504.25,93.5 504.25,85 515,85 515,95.75 506.5,95.75 506.5,104.25 515,104.25 515,115 504.25,115 504.25,106.5 495.75,106.5 495.75,115 485,115 485,104.25 493.5,104.25 493.5,95.75 485,95.75 485,85"/>
<polygon id="0x15a1f90" class="l71d20" points="495.75,205 495.75,213.5 504.25,213.5 504.25,205 515,205 515,215.75 506.5,215.75 506.5,224.25 515,224.25 515,235 504.25,235 504.25,226.5 495.75,226.5 495.75,235 485,235 485,224.25 493.5,224.25 493.5,215.75 485,215.75 485,205"/>
<polygon id="0x15a2150" class="l71d20" points="495.75,285 495.75,293.5 504.25,293.5 504.25,285 515,285 515,295.75 506.5,295.75 506.5,304.25 515,304.25 515,315 504.25,315 504.25,306.5 495.75,306.5 495.75,315 485,315 485,304.25 493.5,304.25 493.5,295.75 485,295.75 485,285"/>
<polygon id="0x15a2310" class="l71d20" points="535.75,5 535.75,13.5 544.25,13.5 544.25,5 555,5 555,15.75 546.5,15.75 546.5,24.25 555,24.25 555,35 544.25,35 544.25,26.5 535.75,26.5 535.75,35 525,35 525,24.25 533.5,24.25 533.5,15.75 525,15.75 525,5"/>
<polygon id="0x15a24d0" class="l71d20" points="535.75,85 535.75,93.5 544.25,93.5 544.25,85 555,85 555,95.75 546.5,95.75 546.5,104.25 555,104.25 555,115 544.25,115 544.25,106.5 535.75,106.5 535.75,115 525,115 525,104.25 533.5,104.25 533.5,95.75 525,95.75 525,85"/>
<polygon id="0x15a2690" class="l71d20" points="535.75,205 535.75,213.5 544.25,213.5 544.25,205 555,205 555,215.75 546.5,215.75 546.5,224.25 555,224.25 555,235 544.25,235 544.25,226.5 535.75,226.5 535.75,235 525,235 525,224.25 533.5,224.25 533.5,215.75 525,215.75 525,205"/>
<polygon id="0x15a2850" class="l71d20" points="535.75,285 535.75,293.5 544.25,293.5 544.25,285 555,285 555,295.75 546.5,295.75 546.5,304.25 555,304.25 555,315 544.25,315 544.25,306.5 535.75,306.5 535.75,315 525,315 525,304.25 533.5,304.25 533.5,295.75 525,295.75 525,285"/>
<polygon id="0x15a2a10" class="l71d20" points="575.75,5 575.75,13.5 584.25,13.5 584.25,5 595,5 595,15.75 586.5,15.75 586.5,24.25 595,24.25 595,35 584.25,35 584.25,26.5 575.75,26.5 575.75,35 565,35 565,24.25 573.5,24.25 573.5,15.75 565,15.75 565,5"/>
<polygon id="0x15a2bd0" class="l71d20" points="575.75,125 575.75,133.5 584.25,133.5 584.25,125 595,125 595,135.75 586.5,135.75 586.5,144.25 595,144.25 595,155 584.25,155 584.25,146.5 575.75,146.5 575.75,155 565,155 565,144.25 573.5,144.25 573.5,135.75 565,135.75 565,125"/>
<polygon id="0x15a2d90" class="l71d20" points="575.75,165 575.75,173.5 584.25,173.5 584.25,165 595,165 595,175.75 586.5,175.75 586.5,184.25 595,184.25 595,195 584.25,195 584.25,186.5 575.75,186.5 575.75,195 565,195 565,184.25 573.5,184.25 573.5,175.75 565,175.75 565,165"/>
<polygon id="0x15a2f50" class="l71d20" points="575.75,285 575.75,293.5 584.25,293.5 584.25,285 595,285 595,295.75 586.5,295.75 586.5,304.25 595,304.25 595,315 584.25,315 584.25,306.5 575.75,306.5 575.75,315 565,315 565,304.25 573.5,304.25 573.5,295.75 565,295.75 565,285"/>
<polygon id="0x15a3110" class="l71d20" points="655.75,45 655.75,53.5 664.25,53.5 664.25,45 675,45 675,55.75 666.5,55.75 666.5,64.25 675,64.25 675,75 664.25,75 664.25,66.5 655.75,66.5 655.75,75 645,75 645,64.25 653.5,64.25 653.5,55.75 645,55.75 645,45"/>
<polygon id="0x156a300" class="l71d20" points="655.75,85 655.75,93.5 664.25,93.5 664.25,85 675,85 675,95.75 666.5,95.75 666.5,104.25 675,104.25 675,115 664.25,115 664.25,106.5 655.75,106.5 655.75,115 645,115 645,104.25 653.5,104.25 653.5,95.75 645,95.75 645,85"/>
<polygon id="0x157cfb0" class="l71d20" points="655.75,205 655.75,213.5 664.25,213.5 664.25,205 675,205 675,215.75 666.5,215.75 666.5,224.25 675,224.25 675,235 664.25,235 664.25,226.5 655.75,226.5 655.75,235 645,235 645,224.25 653.5,224.25 653.5,215.75 645,215.75 645,205"/>
<polygon id="0x15a38e0" class="l71d20" points="655.75,245 655.75,253.5 664.25,253.5 664.25,245 675,245 675,255.75 666.5,255.75 666.5,264.25 675,264.25 675,275 664.25,275 664.25,266.5 655.75,266.5 655.75,275 645,275 645,264.25 653.5,264.25 653.5,255.75 645,255.75 645,245"/>
<polygon id="0x14eed00" class="l71d20" points="735.75,125 735.75,133.5 744.25,133.5 744.25,125 755,125 755,135.75 746.5,135.75 746.5,144.25 755,144.25 755,155 744.25,155 744.25,146.5 735.75,146.5 735.75,155 725,155 725,144.25 733.5,144.25 733.5,135.75 725,135.75 725,125"/>
<polygon id="0x1565700" class="l71d20" points="735.75,165 735.75,173.5 744.25,173.5 744.25,165 755,165 755,175.75 746.5,175.75 746.5,184.25 755,184.25 755,195 744.25,195 744.25,186.5 735.75,186.5 735.75,195 725,195 725,184.25 733.5,184.25 733.5,175.75 725,175.75 725,165"/>
<polygon id="0x12b1430" class="l71d20" points="815.75,45 815.75,53.5 824.25,53.5 824.25,45 835,45 835,55.75 826.5,55.75 826.5,64.25 835,64.25 835,75 824.25,75 824.25,66.5 815.75,66.5 815.75,75 805,75 805,64.25 813.5,64.25 813.5,55.75 805,55.75 805,45"/>
<polygon id="0x12db270" class="l71d20" points="815.75,245 815.75,253.5 824.25,253.5 824.25,245 835,245 835,255.75 826.5,255.75 826.5,264.25 835,264.25 835,275 824.25,275 824.25,266.5 815.75,266.5 815.75,275 805,275 805,264.25 813.5,264.25 813.5,255.75 805,255.75 805,245"/>
<polygon id="0x159d260" class="l71d20" points="855.75,5 855.75,13.5 864.25,13.5 864.25,5 875,5 875,15.75 866.5,15.75 866.5,24.25 875,24.25 875,35 864.25,35 864.25,26.5 855.75,26.5 855.75,35 845,35 845,24.25 853.5,24.25 853.5,15.75 845,15.75 845,5"/>
<polygon id="0x159cdf0" class="l71d20" points="855.75,45 855.75,53.5 864.25,53.5 864.25,45 875,45 875,55.75 866.5,55.75 866.5,64.25 875,64.25 875,75 864.25,75 864.25,66.5 855.75,66.5 855.75,75 845,75 845,64.25 853.5,64.25 853.5,55.75 845,55.75 845,45"/>
<polygon id="0x1365cf0" class="l71d20" points="855.75,125 855.75,133.5 864.25,133.5 864.25,125 875,125 875,135.75 866.5,135.75 866.5,144.25 875,144.25 875,155 864.25,155 864.25,146.5 855.75,146.5 855.75,155 845,155 845,144.25 853.5,144.25 853.5,135.75 845,135.75 845,125"/>
<polygon id="0x13c39d0" class="l71d20" points="855.75,165 855.75,173.5 864.25,173.5 864.25,165 875,165 875,175.75 866.5,175.75 866.5,184.25 875,184.25 875,195 864.25,195 864.25,186.5 855.75,186.5 855.75,195 845,195 845,184.25 853.5,184.25 853.5,175.75 845,175.75 845,165"/>
<polygon id="0x13d0430" class="l71d20" points="855.75,245 855.75,253.5 864.25,253.5 864.25,245 875,245 875,255.75 866.5,255.75 866.5,264.25 875,264.25 875,275 864.25,275 864.25,266.5 855.75,266.5 855.75,275 845,275 845,264.25 853.5,264.25 853.5,255.75 845,255.75 845,245"/>
<polygon id="0x13feb70" class="l71d20" points="855.75,285 855.75,293.5 864.25,293.5 864.25,285 875,285 875,295.75 866.5,295.75 866.5,304.25 875,304.25 875,315 864.25,315 864.25,306.5 855.75,306.5 855.75,315 845,315 845,304.25 853.5,304.25 853.5,295.75 845,295.75 845,285"/>
<polygon id="0x1305b30" class="l71d20" points="895.75,5 895.75,13.5 904.25,13.5 904.25,5 915,5 915,15.75 906.5,15.75 906.5,24.25 915,24.25 915,35 904.25,35 904.25,26.5 895.75,26.5 895.75,35 885,35 885,24.25 893.5,24.25 893.5,15.75 885,15.75 885,5"/>
<polygon id="0x14a93f0" class="l71d20" points="895.75,45 895.75,53.5 904.25,53.5 904.25,45 915,45 915,55.75 906.5,55.75 906.5,64.25 915,64.25 915,75 904.25,75 904.25,66.5 895.75,66.5 895.75,75 885,75 885,64.25 893.5,64.25 893.5,55.75 885,55.75 885,45"/>
<polygon id="0x1509810" class="l71d20" points="895.75,125 895.75,133.5 904.25,133.5 904.25,125 915,125 915,135.75 906.5,135.75 906.5,144.25 915,144.25 915,155 904.25,155 904.25,146.5 895.75,146.5 895.75,155 885,155 885,144.25 893.5,144.25 893.5,135.75 885,135.75 885,125"/>
<polygon id="0x154b960" class="l71d20" points="895.75,165 895.75,173.5 904.25,173.5 904.25,165 915,165 915,175.75 906.5,175.75 906.5,184.25 915,184.25 915,195 904.25,195 904.25,186.5 895.75,186.5 895.75,195 885,195 885,184.25 893.5,184.25 893.5,175.75 885,175.75 885,165"/>
<polygon id="0x1487d70" class="l71d20" points="895.75,245 895.75,253.5 904.25,253.5 904.25,245 915,245 915,255.75 906.5,255.75 906.5,264.25 915,264.25 915,275 904.25,275 904.25,266.5 895.75,266.5 895.75,275 885,275 885,264.25 893.5,264.25 893.5,255.75 885,255.75 885,245"/>
<polygon id="0x1487de0" class="l71d20" points="895.75,285 895.75,293.5 904.25,293.5 904.25,285 915,285 915,295.75 906.5,295.75 906.5,304.25 915,304.25 915,315 904.25,315 904.25,306.5 895.75,306.5 895.75,315 885,315 885,304.25 893.5,304.25 893.5,295.75 885,295.75 885,285"/>
<polygon id="0x149c180" class="l71d20" points="935.75,45 935.75,53.5 944.25,53.5 944.25,45 955,45 955,55.75 946.5,55.75 946.5,64.25 955,64.25 955,75 944.25,75 944.25,66.5 935.75,66.5 935.75,75 925,75 925,64.25 933.5,64.25 933.5,55.75 925,55.75 925,45"/>
<polygon id="0x149c1f0" class="l71d20" points="935.75,245 935.75,253.5 944.25,253.5 944.25,245 955,245 955,255.75 946.5,255.75 946.5,264.25 955,264.25 955,275 944.25,275 944.25,266.5 935.75,266.5 935.75,275 925,275 925,264.25 933.5,264.25 933.5,255.75 925,255.75 925,245"/>
<polygon id="0x14c5390" class="l71d20" points="1015.75,125 1015.75,133.5 1024.25,133.5 1024.25,125 1035,125 1035,135.75 1026.5,135.75 1026.5,144.25 1035,144.25 1035,155 1024.25,155 1024.25,146.5 1015.75,146.5 1015.75,155 1005,155 1005,144.25 1013.5,144.25 1013.5,135.75 1005,135.75 1005,125"/>
<polygon id="0x14c5400" class="l71d20" points="1015.75,165 1015.75,173.5 1024.25,173.5 1024.25,165 1035,165 1035,175.75 1026.5,175.75 1026.5,184.25 1035,184.25 1035,195 1024.25,195 1024.25,186.5 1015.75,186.5 1015.75,195 1005,195 1005,184.25 1013.5,184.25 1013.5,175.75 1005,175.75 1005,165"/>
<polygon id="0x139dbb0" class="l235d4" points="0,0 40,0 40,40 0,40"/>
</g>
</svg>