<?xml version="1.0" encoding="UTF-8"?>
<svg xmlns="http://www.w3.org/2000/svg" xmlns:xlink="http://www.w3.org/1999/xlink" width="339.377337" height="349.146709" viewBox="-15.870305 -333.276404 339.377337 349.146709">
<defs>
<style type="text/css">
.l1d22 {stroke: #0067A5; fill: #0067A5; fill-opacity: 0.5;}
.l235d4 {stroke: #0067A5; fill: #0067A5; fill-opacity: 0.5;}
</style>
</defs>
<rect x="-15.870305" y="-333.276404" width="339.377337" height="349.146709" fill="#222222" stroke="none"/>
<g id="my_logo" transform="scale(1 -1)">
<polygon id="0x285e550" class="l1d22" points="65.265951,88.593087 67.041083,90.476498 67.636727,92.995136 66.893291,95.474175 53.37192,117.373165 52.626299,120 53.37192,122.626835 66.893291,144.525825 67.636727,147.004864 67.041083,149.523502 65.265951,151.406913 56.754946,156.662534 54.275591,157.406099 51.756657,156.810232 49.873226,155.034627 44.254681,145.932582 42.436008,144.192481 40,143.558929 37.563992,144.192481 35.745319,145.932582 30.126774,155.034627 28.243343,156.810232 25.724409,157.406099 23.245054,156.662534 14.734049,151.406913 12.958917,149.523502 12.363273,147.004864 13.106709,144.525825 26.62808,122.626835 27.373701,120 26.62808,117.373165 13.106709,95.474175 12.363273,92.995136 12.958917,90.476498 14.734049,88.593087 23.245054,83.337466 25.724409,82.593901 28.243343,83.189768 30.126774,84.965373 35.745319,94.067418 37.563992,95.807519 40,96.441071 42.436008,95.807519 44.254681,94.067418 49.873226,84.965373 51.756657,83.189768 54.275591,82.593901 56.754946,83.337466"/>
<polygon id="0x27d06a0" class="l1d22" points="65.265951,168.593087 67.041083,170.476498 67.636727,172.995136 66.893291,175.474175 53.37192,197.373165 52.626299,200 53.37192,202.626835 66.893291,224.525825 67.636727,227.004864 67.041083,229.523502 65.265951,231.406913 56.754946,236.662534 54.275591,237.406099 51.756657,236.810232 49.873226,235.034627 44.254681,225.932582 42.436008,224.192481 40,223.558929 37.563992,224.192481 35.745319,225.932582 30.126774,235.034627 28.243343,236.810232 25.724409,237.406099 23.245054,236.662534 14.734049,231.406913 12.958917,229.523502 12.363273,227.004864 13.106709,224.525825 26.62808,202.626835 27.373701,200 26.62808,197.373165 13.106709,175.474175 12.363273,172.995136 12.958917,170.476498 14.734049,168.593087 23.245054,163.337466 25.724409,162.593901 28.243343,163.189768 30.126774,164.965373 35.745319,174.067418 37.563992,175.807519 40,176.441071 42.436008,175.807519 44.254681,174.067418 49.873226,164.965373 51.756657,163.189768 54.275591,162.593901 56.754946,163.337466"/>
<polygon id="0x27ba6e0" class="l1d22" points="145.265951,8.593087 147.041083,10.476498 147.636727,12.995136 146.893291,15.474175 133.37192,37.373165 132.626299,40 133.37192,42.626835 146.893291,64.525825 147.636727,67.004864 147.041083,69.523502 145.265951,71.406913 136.754946,76.662534 134.275591,77.406099 131.756657,76.810232 129.873226,75.034627 124.254681,65.932582 122.436008,64.192481 120,63.558929 117.563992,64.192481 115.745319,65.932582 110.126774,75.034627 108.243343,76.810232 105.724409,77.406099 103.245054,76.662534 94.734049,71.406913 92.958917,69.523502 92.363273,67.004864 93.106709,64.525825 106.62808,42.626835 107.373701,40 106.62808,37.373165 93.106709,15.474175 92.363273,12.995136 92.958917,10.476498 94.734049,8.593087 103.245054,3.337466 105.724409,2.593901 108.243343,3.189768 110.126774,4.965373 115.745319,14.067418 117.563992,15.807519 120,16.441071 122.436008,15.807519 124.254681,14.067418 129.873226,4.965373 131.756657,3.189768 134.275591,2.593901 136.754946,3.337466"/>
<polygon id="0x2780e30" class="l1d22" points="145.265951,88.593087 147.041083,90.476498 147.636727,92.995136 146.893291,95.474175 133.37192,117.373165 132.626299,120 133.37192,122.626835 146.893291,144.525825 147.636727,147.004864 147.041083,149.523502 145.265951,151.406913 136.754946,156.662534 134.275591,157.406099 131.756657,156.810232 129.873226,155.034627 124.254681,145.932582 122.436008,144.192481 120,143.558929 117.563992,144.192481 115.745319,145.932582 110.126774,155.034627 108.243343,156.810232 105.724409,157.406099 103.245054,156.662534 94.734049,151.406913 92.958917,149.523502 92.363273,147.004864 93.106709,144.525825 106.62808,122.626835 107.373701,120 106.62808,117.373165 93.106709,95.474175 92.363273,92.995136 92.958917,90.476498 94.734049,88.593087 103.245054,83.337466 105.724409,82.593901 108.243343,83.189768 110.126774,84.965373 115.745319,94.067418 117.563992,95.807519 120,96.441071 122.436008,95.807519 124.254681,94.067418 129.873226,84.965373 131.756657,83.189768 134.275591,82.593901 136.754946,83.337466"/>
<polygon id="0x292a0b0" class="l1d22" points="145.265951,168.593087 147.041083,170.476498 147.636727,172.995136 146.893291,175.474175 133.37192,197.373165 132.626299,200 133.37192,202.626835 146.893291,224.525825 147.636727,227.004864 147.041083,229.523502 145.265951,231.406913 136.754946,236.662534 134.275591,237.406099 131.756657,236.810232 129.873226,235.034627 124.254681,225.932582 122.436008,224.192481 120,223.558929 117.563992,224.192481 115.745319,225.932582 110.126774,235.034627 108.243343,236.810232 105.724409,237.406099 103.245054,236.662534 94.734049,231.406913 92.958917,229.523502 92.363273,227.004864 93.106709,224.525825 106.62808,202.626835 107.373701,200 106.62808,197.373165 93.106709,175.474175 92.363273,172.995136 92.958917,170.476498 94.734049,168.593087 103.245054,163.337466 105.724409,162.593901 108.243343,163.189768 110.126774,164.965373 115.745319,174.067418 117.563992,175.807519 120,176.441071 122.436008,175.807519 124.254681,174.067418 129.873226,164.965373 131.756657,163.189768 134.275591,162.593901 136.754946,163.337466"/>
<polygon id="0x298e930" class="l1d22" points="145.265951,248.593087 147.041083,250.476498 147.636727,252.995136 146.893291,255.474175 133.37192,277.373165 132.626299,280 133.37192,282.626835 146.893291,304.525825 147.636727,307.004864 147.041083,309.523502 145.265951,311.406913 136.754946,316.662534 134.275591,317.406099 131.756657,316.810232 129.873226,315.034627 124.254681,305.932582 122.436008,304.192481 120,303.558929 117.563992,304.192481 115.745319,305.932582 110.126774,315.034627 108.243343,316.810232 105.724409,317.406099 103.245054,316.662534 94.734049,311.406913 92.958917,309.523502 92.363273,307.004864 93.106709,304.525825 106.62808,282.626835 107.373701,280 106.62808,277.373165 93.106709,255.474175 92.363273,252.995136 92.958917,250.476498 94.734049,248.593087 103.245054,243.337466 105.724409,242.593901 108.243343,243.189768 110.126774,244.965373 115.745319,254.067418 117.563992,255.807519 120,256.441071 122.436008,255.807519 124.254681,254.067418 129.873226,244.965373 131.756657,243.189768 134.275591,242.593901 136.754946,243.337466"/>
<polygon id="0x29813f0" class="l1d22" points="225.265951,8.593087 227.041083,10.476498 227.636727,12.995136 226.893291,15.474175 213.37192,37.373165 212.626299,40 213.37192,42.626835 226.893291,64.525825 227.636727,67.004864 227.041083,69.523502 225.265951,71.406913 216.754946,76.662534 214.275591,77.406099 211.756657,76.810232 209.873226,75.034627 204.254681,65.932582 202.436008,64.192481 200,63.558929 197.563992,64.192481 195.745319,65.932582 190.126774,75.034627 188.243343,76.810232 185.724409,77.406099 183.245054,76.662534 174.734049,71.406913 172.958917,69.523502 172.363273,67.004864 173.106709,64.525825 186.62808,42.626835 187.373701,40 186.62808,37.373165 173.106709,15.474175 172.363273,12.995136 172.958917,10.476498 174.734049,8.593087 183.245054,3.337466 185.724409,2.593901 188.243343,3.189768 190.126774,4.965373 195.745319,14.067418 197.563992,15.807519 200,16.441071 202.436008,15.807519 204.254681,14.067418 209.873226,4.965373 211.756657,3.189768 214.275591,2.593901 216.754946,3.337466"/>
<polygon id="0x29c0680" class="l1d22" points="225.265951,88.593087 227.041083,90.476498 227.636727,92.995136 226.893291,95.474175 213.37192,117.373165 212.626299,120 213.37192,122.626835 226.893291,144.525825 227.636727,147.004864 227.041083,149.523502 225.265951,151.406913 216.754946,156.662534 214.275591,157.406099 211.756657,156.810232 209.873226,155.034627 204.254681,145.932582 202.436008,144.192481 200,143.558929 197.563992,144.192481 195.745319,145.932582 190.126774,155.034627 188.243343,156.810232 185.724409,157.406099 183.245054,156.662534 174.734049,151.406913 172.958917,149.523502 172.363273,147.004864 173.106709,144.525825 186.62808,122.626835 187.373701,120 186.62808,117.373165 173.106709,95.474175 172.363273,92.995136 172.958917,90.476498 174.734049,88.593087 183.245054,83.337466 185.724409,82.593901 188.243343,83.189768 190.126774,84.965373 195.745319,94.067418 197.563992,95.807519 200,96.441071 202.436008,95.807519 204.254681,94.067418 209.873226,84.965373 211.756657,83.189768 214.275591,82.593901 216.754946,83.337466"/>
<polygon id="0x29e6360" class="l1d22" points="225.265951,168.593087 227.041083,170.476498 227.636727,172.995136 226.893291,175.474175 213.37192,197.373165 212.626299,200 213.37192,202.626835 226.893291,224.525825 227.636727,227.004864 227.041083,229.523502 225.265951,231.406913 216.754946,236.662534 214.275591,237.406099 211.756657,236.810232 209.873226,235.034627 204.254681,225.932582 202.436008,224.192481 200,223.558929 197.563992,224.192481 195.745319,225.932582 190.126774,235.034627 188.243343,236.810232 185.724409,237.406099 183.245054,236.662534 174.734049,231.406913 172.958917,229.523502 172.363273,227.004864 173.106709,224.525825 186.62808,202.626835 187.373701,200 186.62808,197.373165 173.106709,175.474175 172.363273,172.995136 172.958917,170.476498 174.734049,168.593087 183.245054,163.337466 185.724409,162.593901 188.243343,163.189768 190.126774,164.965373 195.745319,174.067418 197.563992,175.807519 200,176.441071 202.436008,175.807519 204.254681,174.067418 209.873226,164.965373 211.756657,163.189768 214.275591,162.593901 216.754946,163.337466"/>
<polygon id="0x29b6630" class="l1d22" points="225.265951,248.593087 227.041083,250.476498 227.636727,252.995136 226.893291,255.474175 213.37192,277.373165 212.626299,280 213.37192,282.626835 226.893291,304.525825 227.636727,307.004864 227.041083,309.523502 225.265951,311.406913 216.754946,316.662534 214.275591,317.406099 211.756657,316.810232 209.873226,315.034627 204.254681,305.932582 202.436008,304.192481 200,303.558929 197.563992,304.192481 195.745319,305.932582 190.126774,315.034627 188.243343,316.810232 185.724409,317.406099 183.245054,316.662534 174.734049,311.406913 172.958917,309.523502 172.363273,307.004864 173.106709,304.525825 186.62808,282.626835 187.373701,280 186.62808,277.373165 173.106709,255.474175 172.363273,252.995136 172.958917,250.476498 174.734049,248.593087 183.245054,243.337466 185.724409,242.593901 188.243343,243.189768 190.126774,244.965373 195.745319,254.067418 197.563992,255.807519 200,256.441071 202.436008,255.807519 204.254681,254.067418 209.873226,244.965373 211.756657,243.189768 214.275591,242.593901 216.754946,243.337466"/>
<polygon id="0x29b55a0" class="l1d22" points="305.265951,88.593087 307.041083,90.476498 307.636727,92.995136 306.893291,95.474175 293.37192,117.373165 292.626299,120 293.37192,122.626835 306.893291,144.525825 307.636727,147.004864 307.041083,149.523502 305.265951,151.406913 296.754946,156.662534 294.275591,157.406099 291.756657,156.810232 289.873226,155.034627 284.254681,145.932582 282.436008,144.192481 280,143.558929 277.563992,144.192481 275.745319,145.932582 270.126774,155.034627 268.243343,156.810232 265.724409,157.406099 263.245054,156.662534 254.734049,151.406913 252.958917,149.523502 252.363273,147.004864 253.106709,144.525825 266.62808,122.626835 267.373701,120 266.62808,117.373165 253.106709,95.474175 252.363273,92.995136 252.958917,90.476498 254.734049,88.593087 263.245054,83.337466 265.724409,82.593901 268.243343,83.189768 270.126774,84.965373 275.745319,94.067418 277.563992,95.807519 280,96.441071 282.436008,95.807519 284.254681,94.067418 289.873226,84.965373 291.756657,83.189768 294.275591,82.593901 296.754946,83.337466"/>
<polygon id="0x297b110" class="l1d22" points="305.265951,168.593087 307.041083,170.476498 307.636727,172.995136 306.893291,175.474175 293.37192,197.373165 292.626299,200 293.37192,202.626835 306.893291,224.525825 307.636727,227.004864 307.041083,229.523502 305.265951,231.406913 296.754946,236.662534 294.275591,237.406099 291.756657,236.810232 289.873226,235.034627 284.254681,225.932582 282.436008,224.192481 280,223.558929 277.563992,224.192481 275.745319,225.932582 270.126774,235.034627 268.243343,236.810232 265.724409,237.406099 263.245054,236.662534 254.734049,231.406913 252.958917,229.523502 252.363273,227.004864 253.106709,224.525825 266.62808,202.626835 267.373701,200 266.62808,197.373165 253.106709,175.474175 252.363273,172.995136 252.958917,170.476498 254.734049,168.593087 263.245054,163.337466 265.724409,162.593901 268.243343,163.189768 270.126774,164.965373 275.745319,174.067418 277.563992,175.807519 280,176.441071 282.436008,175.807519 284.254681,174.067418 289.873226,164.965373 291.756657,163.189768 294.275591,162.593901 296.754946,163.337466"/>
<polygon id="0x27e1560" class="l235d4" points="0,0 80,0 80,80 0,80"/>
</g>
</svg>