<?xml version="1.0" encoding="UTF-8"?>
<svg xmlns="http://www.w3.org/2000/svg" xmlns:xlink="http://www.w3.org/1999/xlink" width="1138.5" height="778.5" viewBox="-51.75 -726.75 1138.5 778.5">
<defs>
<style type="text/css">
.l235d4 {stroke: #0067A5; fill: #0067A5; fill-opacity: 0.5;}
.l71d20 {stroke: #B3446C; fill: #B3446C; fill-opacity: 0.5;}
</style>
</defs>
<rect x="-51.75" y="-726.75" width="1138.5" height="778.5" fill="#222222" stroke="none"/>
<g id="my_logo" transform="scale(1 -1)">
<polygon id="0x213df50" class="l71d20" points="15.75,5 15.75,13.5 24.25,13.5 24.25,5 35,5 35,15.75 26.5,15.75 26.5,24.25 35,24.25 35,35 24.25,35 24.25,26.5 15.75,26.5 15.75,35 5,35 5,24.25 13.5,24.25 13.5,15.75 5,15.75 5,5"/>
<polygon id="0x22cff60" class="l71d20" points="15.75,125 15.75,133.5 24.25,133.5 24.25,125 35,125 35,135.75 26.5,135.75 26.5,144.25 35,144.25 35,155 24.25,155 24.25,146.5 15.75,146.5 15.75,155 5,155 5,144.25 13.5,144.25 13.5,135.75 5,135.75 5,125"/>
<polygon id="0x22d02d0" class="l71d20" points="15.75,165 15.75,173.5 24.25,173.5 24.25,165 35,165 35,175.75 26.5,175.75 26.5,184.25 35,184.25 35,195 24.25,195 24.25,186.5 15.75,186.5 15.75,195 5,195 5,184.25 13.5,184.25 13.5,175.75 5,175.75 5,165"/>
<polygon id="0x22d0340" class="l71d20" points="15.75,285 15.75,293.5 24.25,293.5 24.25,285 35,285 35,295.75 26.5,295.75 26.5,304.25 35,304.25 35,315 24.25,315 24.25,306.5 15.75,306.5 15.75,315 5,315 5,304.25 13.5,304.25 13.5,295.75 5,295.75 5,285"/>
<polygon id="0x22d03b0" class="l71d20" points="95.75,5 95.75,13.5 104.25,13.5 104.25,5 115,5 115,15.75 106.5,15.75 106.5,24.25 115,24.25 115,35 104.25,35 104.25,26.5 95.75,26.5 95.75,35 85,35 85,24.25 93.5,24.25 93.5,15.75 85,15.75 85,5"/>
<polygon id="0x22d0420" class="l71d20" points="95.75,45 95.75,53.5 104.25,53.5 104.25,45 115,45 115,55.75 106.5,55.75 106.5,64.25 115,64.25 115,75 104.25,75 104.25,66.5 95.75,66.5 95.75,75 85,75 85,64.25 93.5,64.25 93.5,55.75 85,55.75 85,45"/>
<polygon id="0x22d04e0" class="l71d20" points="95.75,125 95.75,133.5 104.25,133.5 104.25,125 115,125 115,135.75 106.5,135.75 106.5,144.25 115,144.25 115,155 104.25,155 104.25,146.5 95.75,146.5 95.75,155 85,155 85,144.25 93.5,144.25 93.5,135.75 85,135.75 85,125"/>
<polygon id="0x22d0550" class="l71d20" points="95.75,165 95.75,173.5 104.25,173.5 104.25,165 115,165 115,175.75 106.5,175.75 106.5,184.25 115,184.25 115,195 104.25,195 104.25,186.5 95.75,186.5 95.75,195 85,195 85,184.25 93.5,184.25 93.5,175.75 85,175.75 85,165"/>
<polygon id="0x22d05c0" class="l71d20" points="95.75,245 95.75,253.5 104.25,253.5 104.25,245 115,245 115,255.75 106.5,255.75 106.5,264.25 115,264.25 115,275 104.25,275 104.25,266.5 95.75,266.5 95.75,275 85,275 85,264.25 93.5,264.25 93.5,255.75 85,255.75 85,245"/>
<polygon id="0x22d06c0" class="l71d20" points="95.75,285 95.75,293.5 104.25,293.5 104.25,285 115,285 115,295.75 106.5,295.75 106.5,304.25 115,304.25 115,315 104.25,315 104.25,306.5 95.75,306.5 95.75,315 85,315 85,304.25 93.5,304.25 93.5,295.75 85,295.75 85,285"/>
<polygon id="0x22d0730" class="l71d20" points="135.75,5 135.75,13.5 144.25,13.5 144.25,5 155,5 155,15.75 146.5,15.75 146.5,24.25 155,24.25 155,35 144.25,35 144.25,26.5 135.75,26.5 135.75,35 125,35 125,24.25 133.5,24.25 133.5,15.75 125,15.75 125,5"/>
<polygon id="0x22d08f0" class="l71d20" points="135.75,45 135.75,53.5 144.25,53.5 144.25,45 155,45 155,55.75 146.5,55.75 146.5,64.25 155,64.25 155,75 144.25,75 144.25,66.5 135.75,66.5 135.75,75 125,75 125,64.25 133.5,64.25 133.5,55.75 125,55.75 125,45"/>
<polygon id="0x22d0ab0" class="l71d20" points="135.75,125 135.75,133.5 144.25,133.5 144.25,125 155,125 155,135.75 146.5,135.75 146.5,144.25 155,144.25 155,155 144.25,155 144.25,146.5 135.75,146.5 135.75,155 125,155 125,144.25 133.5,144.25 133.5,135.75 125,135.75 125,125"/>
<polygon id="0x22d0c70" class="l71d20" points="135.75,165 135.75,173.5 144.25,173.5 144.25,165 155,165 155,175.75 146.5,175.75 146.5,184.25 155,184.25 155,195 144.25,195 144.25,186.5 135.75,186.5 135.75,195 125,195 125,184.25 133.5,184.25 133.5,175.75 125,175.75 125,165"/>
<polygon id="0x22d0e30" class="l71d20" points="135.75,245 135.75,253.5 144.25,253.5 144.25,245 155,245 155,255.75 146.5,255.75 146.5,264.25 155,264.25 155,275 144.25,275 144.25,266.5 135.75,266.5 135.75,275 125,275 125,264.25 133.5,264.25 133.5,255.75 125,255.75 125,245"/>
<polygon id="0x22d0ff0" class="l71d20" points="135.75,285 135.75,293.5 144.25,293.5 144.25,285 155,285 155,295.75 146.5,295.75 146.5,304.25 155,304.25 155,315 144.25,315 144.25,306.5 135.75,306.5 135.75,315 125,315 125,304.25 133.5,304.25 133.5,295.75 125,295.75 125,285"/>
<polygon id="0x22d11b0" class="l71d20" points="175.75,5 175.75,13.5 184.25,13.5 184.25,5 195,5 195,15.75 186.5,15.75 186.5,24.25 195,24.25 195,35 184.25,35 184.25,26.5 175.75,26.5 175.75,35 165,35 165,24.25 173.5,24.25 173.5,15.75 165,15.75 165,5"/>
<polygon id="0x22d1370" class="l71d20" points="175.75,45 175.75,53.5 184.25,53.5 184.25,45 195,45 195,55.75 186.5,55.75 186.5,64.25 195,64.25 195,75 184.25,75 184.25,66.5 175.75,66.5 175.75,75 165,75 165,64.25 173.5,64.25 173.5,55.75 165,55.75 165,45"/>
<polygon id="0x22d1530" class="l71d20" points="175.75,125 175.75,133.5 184.25,133.5 184.25,125 195,125 195,135.75 186.5,135.75 186.5,144.25 195,144.25 195,155 184.25,155 184.25,146.5 175.75,146.5 175.75,155 165,155 165,144.25 173.5,144.25 173.5,135.75 165,135.75 165,125"/>
<polygon id="0x22d16f0" class="l71d20" points="175.75,165 175.75,173.5 184.25,173.5 184.25,165 195,165 195,175.75 186.5,175.75 186.5,184.25 195,184.25 195,195 184.25,195 184.25,186.5 175.75,186.5 175.75,195 165,195 165,184.25 173.5,184.25 173.5,175.75 165,175.75 165,165"/>
<polygon id="0x22d18b0" class="l71d20" points="175.75,245 175.75,253.5 184.25,253.5 184.25,245 195,245 195,255.75 186.5,255.75 186.5,264.25 195,264.25 195,275 184.25,275 184.25,266.5 175.75,266.5 175.75,275 165,275 165,264.25 173.5,264.25 173.5,255.75 165,255.75 165,245"/>
<polygon id="0x22d1a70" class="l71d20" points="175.75,285 175.75,293.5 184.25,293.5 184.25,285 195,285 195,295.75 186.5,295.75 186.5,304.25 195,304.25 195,315 184.25,315 184.25,306.5 175.75,306.5 175.75,315 165,315 165,304.25 173.5,304.25 173.5,295.75 165,295.75 165,285"/>
<polygon id="0x22d1c30" class="l71d20" points="215.75,5 215.75,13.5 224.25,13.5 224.25,5 235,5 235,15.75 226.5,15.75 226.5,24.25 235,24.25 235,35 224.25,35 224.25,26.5 215.75,26.5 215.75,35 205,35 205,24.25 213.5,24.25 213.5,15.75 205,15.75 205,5"/>
<polygon id="0x22d1df0" class="l71d20" points="215.75,45 215.75,53.5 224.25,53.5 224.25,45 235,45 235,55.75 226.5,55.75 226.5,64.25 235,64.25 235,75 224.25,75 224.25,66.5 215.75,66.5 215.75,75 205,75 205,64.25 213.5,64.25 213.5,55.75 205,55.75 205,45"/>
<polygon id="0x22d1fb0" class="l71d20" points="215.75,125 215.75,133.5 224.25,133.5 224.25,125 235,125 235,135.75 226.5,135.75 226.5,144.25 235,144.25 235,155 224.25,155 224.25,146.5 215.75,146.5 215.75,155 205,155 205,144.25 213.5,144.25 213.5,135.75 205,135.75 205,125"/>
<polygon id="0x22d2170" class="l71d20" points="215.75,165 215.75,173.5 224.25,173.5 224.25,165 235,165 235,175.75 226.5,175.75 226.5,184.25 235,184.25 235,195 224.25,195 224.25,186.5 215.75,186.5 215.75,195 205,195 205,184.25 213.5,184.25 213.5,175.75 205,175.75 205,165"/>
<polygon id="0x22d2330" class="l71d20" points="215.75,245 215.75,253.5 224.25,253.5 224.25,245 235,245 235,255.75 226.5,255.75 226.5,264.25 235,264.25 235,275 224.25,275 224.25,266.5 215.75,266.5 215.75,275 205,275 205,264.25 213.5,264.25 213.5,255.75 205,255.75 205,245"/>
<polygon id="0x22d24f0" class="l71d20" points="215.75,285 215.75,293.5 224.25,293.5 224.25,285 235,285 235,295.75 226.5,295.75 226.5,304.25 235,304.25 235,315 224.25,315 224.25,306.5 215.75,306.5 215.75,315 205,315 205,304.25 213.5,304.25 213.5,295.75 205,295.75 205,285"/>
<polygon id="0x22d26b0" class="l71d20" points="295.75,5 295.75,13.5 304.25,13.5 304.25,5 315,5 315,15.75 306.5,15.75 306.5,24.25 315,24.25 315,35 304.25,35 304.25,26.5 295.75,26.5 295.75,35 285,35 285,24.25 293.5,24.25 293.5,15.75 285,15.75 285,5"/>
<polygon id="0x22d2870" class="l71d20" points="295.75,125 295.75,133.5 304.25,133.5 304.25,125 315,125 315,135.75 306.5,135.75 306.5,144.25 315,144.25 315,155 304.25,155 304.25,146.5 295.75,146.5 295.75,155 285,155 285,144.25 293.5,144.25 293.5,135.75 285,135.75 285,125"/>
<polygon id="0x22d2a30" class="l71d20" points="295.75,165 295.75,173.5 304.25,173.5 304.25,165 315,165 315,175.75 306.5,175.75 306.5,184.25 315,184.25 315,195 304.25,195 304.25,186.5 295.75,186.5 295.75,195 285,195 285,184.25 293.5,184.25 293.5,175.75 285,175.75 285,165"/>
<polygon id="0x22d2bf0" class="l71d20" points="295.75,285 295.75,293.5 304.25,293.5 304.25,285 315,285 315,295.75 306.5,295.75 306.5,304.25 315,304.25 315,315 304.25,315 304.25,306.5 295.75,306.5 295.75,315 285,315 285,304.25 293.5,304.25 293.5,295.75 285,295.75 285,285"/>
<polygon id="0x22d2db0" class="l71d20" points="15.75,365 15.75,373.5 24.25,373.5 24.25,365 35,365 35,375.75 26.5,375.75 26.5,384.25 35,384.25 35,395 24.25,395 24.25,386.5 15.75,386.5 15.75,395 5,395 5,384.25 13.5,384.25 13.5,375.75 5,375.75 5,365"/>
<polygon id="0x22d3180" class="l71d20" points="15.75,405 15.75,413.5 24.25,413.5 24.25,405 35,405 35,415.75 26.5,415.75 26.5,424.25 35,424.25 35,435 24.25,435 24.25,426.5 15.75,426.5 15.75,435 5,435 5,424.25 13.5,424.25 13.5,415.75 5,415.75 5,405"/>
<polygon id="0x22d3340" class="l71d20" points="15.75,445 15.75,453.5 24.25,453.5 24.25,445 35,445 35,455.75 26.5,455.75 26.5,464.25 35,464.25 35,475 24.25,475 24.25,466.5 15.75,466.5 15.75,475 5,475 5,464.25 13.5,464.25 13.5,455.75 5,455.75 5,445"/>
<polygon id="0x22d3500" class="l71d20" points="15.75,485 15.75,493.5 24.25,493.5 24.25,485 35,485 35,495.75 26.5,495.75 26.5,504.25 35,504.25 35,515 24.25,515 24.25,506.5 15.75,506.5 15.75,515 5,515 5,504.25 13.5,504.25 13.5,495.75 5,495.75 5,485"/>
<polygon id="0x22d36c0" class="l71d20" points="15.75,525 15.75,533.5 24.25,533.5 24.25,525 35,525 35,535.75 26.5,535.75 26.5,544.25 35,544.25 35,555 24.25,555 24.25,546.5 15.75,546.5 15.75,555 5,555 5,544.25 13.5,544.25 13.5,535.75 5,535.75 5,525"/>
<polygon id="0x22d3880" class="l71d20" points="15.75,565 15.75,573.5 24.25,573.5 24.25,565 35,565 35,575.75 26.5,575.75 26.5,584.25 35,584.25 35,595 24.25,595 24.25,586.5 15.75,586.5 15.75,595 5,595 5,584.25 13.5,584.25 13.5,575.75 5,575.75 5,565"/>
<polygon id="0x22d3a40" class="l71d20" points="15.75,605 15.75,613.5 24.25,613.5 24.25,605 35,605 35,615.75 26.5,615.75 26.5,624.25 35,624.25 35,635 24.25,635 24.25,626.5 15.75,626.5 15.75,635 5,635 5,624.25 13.5,624.25 13.5,615.75 5,615.75 5,605"/>
<polygon id="0x22d3c00" class="l71d20" points="15.75,645 15.75,653.5 24.25,653.5 24.25,645 35,645 35,655.75 26.5,655.75 26.5,664.25 35,664.25 35,675 24.25,675 24.25,666.5 15.75,666.5 15.75,675 5,675 5,664.25 13.5,664.25 13.5,655.75 5,655.75 5,645"/>
<polygon id="0x22d3dc0" class="l71d20" points="55.75,445 55.75,453.5 64.25,453.5 64.25,445 75,445 75,455.75 66.5,455.75 66.5,464.25 75,464.25 75,475 64.25,475 64.25,466.5 55.75,466.5 55.75,475 45,475 45,464.25 53.5,464.25 53.5,455.75 45,455.75 45,445"/>
<polygon id="0x22d3f80" class="l71d20" points="55.75,565 55.75,573.5 64.25,573.5 64.25,565 75,565 75,575.75 66.5,575.75 66.5,584.25 75,584.25 75,595 64.25,595 64.25,586.5 55.75,586.5 55.75,595 45,595 45,584.25 53.5,584.25 53.5,575.75 45,575.75 45,565"/>
<polygon id="0x22d4140" class="l71d20" points="95.75,365 95.75,373.5 104.25,373.5 104.25,365 115,365 115,375.75 106.5,375.75 106.5,384.25 115,384.25 115,395 104.25,395 104.25,386.5 95.75,386.5 95.75,395 85,395 85,384.25 93.5,384.25 93.5,375.75 85,375.75 85,365"/>
<polygon id="0x22d4300" class="l71d20" points="95.75,405 95.75,413.5 104.25,413.5 104.25,405 115,405 115,415.75 106.5,415.75 106.5,424.25 115,424.25 115,435 104.25,435 104.25,426.5 95.75,426.5 95.75,435 85,435 85,424.25 93.5,424.25 93.5,415.75 85,415.75 85,405"/>
<polygon id="0x22d44c0" class="l71d20" points="95.75,485 95.75,493.5 104.25,493.5 104.25,485 115,485 115,495.75 106.5,495.75 106.5,504.25 115,504.25 115,515 104.25,515 104.25,506.5 95.75,506.5 95.75,515 85,515 85,504.25 93.5,504.25 93.5,495.75 85,495.75 85,485"/>
<polygon id="0x22d4680" class="l71d20" points="95.75,525 95.75,533.5 104.25,533.5 104.25,525 115,525 115,535.75 106.5,535.75 106.5,544.25 115,544.25 115,555 104.25,555 104.25,546.5 95.75,546.5 95.75,555 85,555 85,544.25 93.5,544.25 93.5,535.75 85,535.75 85,525"/>
<polygon id="0x22d4840" class="l71d20" points="95.75,605 95.75,613.5 104.25,613.5 104.25,605 115,605 115,615.75 106.5,615.75 106.5,624.25 115,624.25 115,635 104.25,635 104.25,626.5 95.75,626.5 95.75,635 85,635 85,624.25 93.5,624.25 93.5,615.75 85,615.75 85,605"/>
<polygon id="0x22d4a00" class="l71d20" points="95.75,645 95.75,653.5 104.25,653.5 104.25,645 115,645 115,655.75 106.5,655.75 106.5,664.25 115,664.25 115,675 104.25,675 104.25,666.5 95.75,666.5 95.75,675 85,675 85,664.25 93.5,664.25 93.5,655.75 85,655.75 85,645"/>
<polygon id="0x22d4bc0" class="l71d20" points="135.75,405 135.75,413.5 144.25,413.5 144.25,405 155,405 155,415.75 146.5,415.75 146.5,424.25 155,424.25 155,435 144.25,435 144.25,426.5 135.75,426.5 135.75,435 125,435 125,424.25 133.5,424.25 133.5,415.75 125,415.75 125,405"/>
<polygon id="0x22d4d80" class="l71d20" points="135.75,445 135.75,453.5 144.25,453.5 144.25,445 155,445 155,455.75 146.5,455.75 146.5,464.25 155,464.25 155,475 144.25,475 144.25,466.5 135.75,466.5 135.75,475 125,475 125,464.25 133.5,464.25 133.5,455.75 125,455.75 125,445"/>
<polygon id="0x22d4f40" class="l71d20" points="135.75,485 135.75,493.5 144.25,493.5 144.25,485 155,485 155,495.75 146.5,495.75 146.5,504.25 155,504.25 155,515 144.25,515 144.25,506.5 135.75,506.5 135.75,515 125,515 125,504.25 133.5,504.25 133.5,495.75 125,495.75 125,485"/>
<polygon id="0x22d5100" class="l71d20" points="135.75,525 135.75,533.5 144.25,533.5 144.25,525 155,525 155,535.75 146.5,535.75 146.5,544.25 155,544.25 155,555 144.25,555 144.25,546.5 135.75,546.5 135.75,555 125,555 125,544.25 133.5,544.25 133.5,535.75 125,535.75 125,525"/>
<polygon id="0x22d52c0" class="l71d20" points="135.75,565 135.75,573.5 144.25,573.5 144.25,565 155,565 155,575.75 146.5,575.75 146.5,584.25 155,584.25 155,595 144.25,595 144.25,586.5 135.75,586.5 135.75,595 125,595 125,584.25 133.5,584.25 133.5,575.75 125,575.75 125,565"/>
<polygon id="0x22d5480" class="l71d20" points="135.75,605 135.75,613.5 144.25,613.5 144.25,605 155,605 155,615.75 146.5,615.75 146.5,624.25 155,624.25 155,635 144.25,635 144.25,626.5 135.75,626.5 135.75,635 125,635 125,624.25 133.5,624.25 133.5,615.75 125,615.75 125,605"/>
<polygon id="0x22d5640" class="l71d20" points="175.75,405 175.75,413.5 184.25,413.5 184.25,405 195,405 195,415.75 186.5,415.75 186.5,424.25 195,424.25 195,435 184.25,435 184.25,426.5 175.75,426.5 175.75,435 165,435 165,424.25 173.5,424.25 173.5,415.75 165,415.75 165,405"/>
<polygon id="0x22d5800" class="l71d20" points="175.75,445 175.75,453.5 184.25,453.5 184.25,445 195,445 195,455.75 186.5,455.75 186.5,464.25 195,464.25 195,475 184.25,475 184.25,466.5 175.75,466.5 175.75,475 165,475 165,464.25 173.5,464.25 173.5,455.75 165,455.75 165,445"/>
<polygon id="0x22d59c0" class="l71d20" points="175.75,485 175.75,493.5 184.25,493.5 184.25,485 195,485 195,495.75 186.5,495.75 186.5,504.25 195,504.25 195,515 184.25,515 184.25,506.5 175.75,506.5 175.75,515 165,515 165,504.25 173.5,504.25 173.5,495.75 165,495.75 165,485"/>
<polygon id="0x22d5b80" class="l71d20" points="175.75,525 175.75,533.5 184.25,533.5 184.25,525 195,525 195,535.75 186.5,535.75 186.5,544.25 195,544.25 195,555 184.25,555 184.25,546.5 175.75,546.5 175.75,555 165,555 165,544.25 173.5,544.25 173.5,535.75 165,535.75 165,525"/>
<polygon id="0x22d5d40" class="l71d20" points="175.75,565 175.75,573.5 184.25,573.5 184.25,565 195,565 195,575.75 186.5,575.75 186.5,584.25 195,584.25 195,595 184.25,595 184.25,586.5 175.75,586.5 175.75,595 165,595 165,584.25 173.5,584.25 173.5,575.75 165,575.75 165,565"/>
<polygon id="0x22d5f00" class="l71d20" points="175.75,605 175.75,613.5 184.25,613.5 184.25,605 195,605 195,615.75 186.5,615.75 186.5,624.25 195,624.25 195,635 184.25,635 184.25,626.5 175.75,626.5 175.75,635 165,635 165,624.25 173.5,624.25 173.5,615.75 165,615.75 165,605"/>
<polygon id="0x2147cc0" class="l71d20" points="215.75,365 215.75,373.5 224.25,373.5 224.25,365 235,365 235,375.75 226.5,375.75 226.5,384.25 235,384.25 235,395 224.25,395 224.25,386.5 215.75,386.5 215.75,395 205,395 205,384.25 213.5,384.25 213.5,375.75 205,375.75 205,365"/>
<polygon id="0x2277500" class="l71d20" points="215.75,405 215.75,413.5 224.25,413.5 224.25,405 235,405 235,415.75 226.5,415.75 226.5,424.25 235,424.25 235,435 224.25,435 224.25,426.5 215.75,426.5 215.75,435 205,435 205,424.25 213.5,424.25 213.5,415.75 205,415.75 205,405"/>
<polygon id="0x20e9470" class="l71d20" points="215.75,485 215.75,493.5 224.25,493.5 224.25,485 235,485 235,495.75 226.5,495.75 226.5,504.25 235,504.25 235,515 224.25,515 224.25,506.5 215.75,506.5 215.75,515 205,515 205,504.25 213.5,504.25 213.5,495.75 205,495.75 205,485"/>
<polygon id="0x21bb550" class="l71d20" points="215.75,525 215.75,533.5 224.25,533.5 224.25,525 235,525 235,535.75 226.5,535.75 226.5,544.25 235,544.25 235,555 224.25,555 224.25,546.5 215.75,546.5 215.75,555 205,555 205,544.25 213.5,544.25 213.5,535.75 205,535.75 205,525"/>
<polygon id="0x2226590" class="l71d20" points="215.75,605 215.75,613.5 224.25,613.5 224.25,605 235,605 235,615.75 226.5,615.75 226.5,624.25 235,624.25 235,635 224.25,635 224.25,626.5 215.75,626.5 215.75,635 205,635 205,624.25 213.5,624.25 213.5,615.75 205,615.75 205,605"/>
<polygon id="0x200f390" class="l71d20" points="215.75,645 215.75,653.5 224.25,653.5 224.25,645 235,645 235,655.75 226.5,655.75 226.5,664.25 235,664.25 235,675 224.25,675 224.25,666.5 215.75,666.5 215.75,675 205,675 205,664.25 213.5,664.25 213.5,655.75 205,655.75 205,645"/>
<polygon id="0x2089580" class="l71d20" points="255.75,445 255.75,453.5 264.25,453.5 264.25,445 275,445 275,455.75 266.5,455.75 266.5,464.25 275,464.25 275,475 264.25,475 264.25,466.5 255.75,466.5 255.75,475 245,475 245,464.25 253.5,464.25 253.5,455.75 245,455.75 245,445"/>
<polygon id="0x20aacd0" class="l71d20" points="255.75,565 255.75,573.5 264.25,573.5 264.25,565 275,565 275,575.75 266.5,575.75 266.5,584.25 275,584.25 275,595 264.25,595 264.25,586.5 255.75,586.5 255.75,595 245,595 245,584.25 253.5,584.25 253.5,575.75 245,575.75 245,565"/>
<polygon id="0x2039c20" class="l71d20" points="295.75,365 295.75,373.5 304.25,373.5 304.25,365 315,365 315,375.75 306.5,375.75 306.5,384.25 315,384.25 315,395 304.25,395 304.25,386.5 295.75,386.5 295.75,395 285,395 285,384.25 293.5,384.25 293.5,375.75 285,375.75 285,365"/>
<polygon id="0x220a880" class="l71d20" points="295.75,405 295.75,413.5 304.25,413.5 304.25,405 315,405 315,415.75 306.5,415.75 306.5,424.25 315,424.25 315,435 304.25,435 304.25,426.5 295.75,426.5 295.75,435 285,435 285,424.25 293.5,424.25 293.5,415.75 285,415.75 285,405"/>
<polygon id="0x2216530" class="l71d20" points="295.75,445 295.75,453.5 304.25,453.5 304.25,445 315,445 315,455.75 306.5,455.75 306.5,464.25 315,464.25 315,475 304.25,475 304.25,466.5 295.75,466.5 295.75,475 285,475 285,464.25 293.5,464.25 293.5,455.75 285,455.75 285,445"/>
<polygon id="0x223d1a0" class="l71d20" points="295.75,485 295.75,493.5 304.25,493.5 304.25,485 315,485 315,495.75 306.5,495.75 306.5,504.25 315,504.25 315,515 304.25,515 304.25,506.5 295.75,506.5 295.75,515 285,515 285,504.25 293.5,504.25 293.5,495.75 285,495.75 285,485"/>
<polygon id="0x226eb70" class="l71d20" points="295.75,525 295.75,533.5 304.25,533.5 304.25,525 315,525 315,535.75 306.5,535.75 306.5,544.25 315,544.25 315,555 304.25,555 304.25,546.5 295.75,546.5 295.75,555 285,555 285,544.25 293.5,544.25 293.5,535.75 285,535.75 285,525"/>
<polygon id="0x21f8ca0" class="l71d20" points="295.75,565 295.75,573.5 304.25,573.5 304.25,565 315,565 315,575.75 306.5,575.75 306.5,584.25 315,584.25 315,595 304.25,595 304.25,586.5 295.75,586.5 295.75,595 285,595 285,584.25 293.5,584.25 293.5,575.75 285,575.75 285,565"/>
<polygon id="0x21f8d10" class="l71d20" points="295.75,605 295.75,613.5 304.25,613.5 304.25,605 315,605 315,615.75 306.5,615.75 306.5,624.25 315,624.25 315,635 304.25,635 304.25,626.5 295.75,626.5 295.75,635 285,635 285,624.25 293.5,624.25 293.5,615.75 285,615.75 285,605"/>
<polygon id="0x2262060" class="l71d20" points="295.75,645 295.75,653.5 304.25,653.5 304.25,645 315,645 315,655.75 306.5,655.75 306.5,664.25 315,664.25 315,675 304.25,675 304.25,666.5 295.75,666.5 295.75,675 285,675 285,664.25 293.5,664.25 293.5,655.75 285,655.75 285,645"/>
<polygon id="0x22620d0" class="l71d20" points="375.75,5 375.75,13.5 384.25,13.5 384.25,5 395,5 395,15.75 386.5,15.75 386.5,24.25 395,24.25 395,35 384.25,35 384.25,26.5 375.75,26.5 375.75,35 365,35 365,24.25 373.5,24.25 373.5,15.75 365,15.75 365,5"/>
<polygon id="0x2244db0" class="l71d20" points="375.75,85 375.75,93.5 384.25,93.5 384.25,85 395,85 395,95.75 386.5,95.75 386.5,104.25 395,104.25 395,115 384.25,115 384.25,106.5 375.75,106.5 375.75,115 365,115 365,104.25 373.5,104.25 373.5,95.75 365,95.75 365,85"/>
<polygon id="0x2244e20" class="l71d20" points="375.75,205 375.75,213.5 384.25,213.5 384.25,205 395,205 395,215.75 386.5,215.75 386.5,224.25 395,224.25 395,235 384.25,235 384.25,226.5 375.75,226.5 375.75,235 365,235 365,224.25 373.5,224.25 373.5,215.75 365,215.75 365,205"/>
<polygon id="0x22b1890" class="l71d20" points="375.75,285 375.75,293.5 384.25,293.5 384.25,285 395,285 395,295.75 386.5,295.75 386.5,304.25 395,304.25 395,315 384.25,315 384.25,306.5 375.75,306.5 375.75,315 365,315 365,304.25 373.5,304.25 373.5,295.75 365,295.75 365,285"/>
<polygon id="0x22b1900" class="l71d20" points="415.75,5 415.75,13.5 424.25,13.5 424.25,5 435,5 435,15.75 426.5,15.75 426.5,24.25 435,24.25 435,35 424.25,35 424.25,26.5 415.75,26.5 415.75,35 405,35 405,24.25 413.5,24.25 413.5,15.75 405,15.75 405,5"/>
<polygon id="0x20713e0" class="l71d20" points="415.75,45 415.75,53.5 424.25,53.5 424.25,45 435,45 435,55.75 426.5,55.75 426.5,64.25 435,64.25 435,75 424.25,75 424.25,66.5 415.75,66.5 415.75,75 405,75 405,64.25 413.5,64.25 413.5,55.75 405,55.75 405,45"/>
<polygon id="0x2082060" class="l71d20" points="415.75,85 415.75,93.5 424.25,93.5 424.25,85 435,85 435,95.75 426.5,95.75 426.5,104.25 435,104.25 435,115 424.25,115 424.25,106.5 415.75,106.5 415.75,115 405,115 405,104.25 413.5,104.25 413.5,95.75 405,95.75 405,85"/>
<polygon id="0x20ebc00" class="l71d20" points="415.75,205 415.75,213.5 424.25,213.5 424.25,205 435,205 435,215.75 426.5,215.75 426.5,224.25 435,224.25 435,235 424.25,235 424.25,226.5 415.75,226.5 415.75,235 405,235 405,224.25 413.5,224.25 413.5,215.75 405,215.75 405,205"/>
<polygon id="0x21b29e0" class="l71d20" points="415.75,245 415.75,253.5 424.25,253.5 424.25,245 435,245 435,255.75 426.5,255.75 426.5,264.25 435,264.25 435,275 424.25,275 424.25,266.5 415.75,266.5 415.75,275 405,275 405,264.25 413.5,264.25 413.5,255.75 405,255.75 405,245"/>
<polygon id="0x21b9580" class="l71d20" points="415.75,285 415.75,293.5 424.25,293.5 424.25,285 435,285 435,295.75 426.5,295.75 426.5,304.25 435,304.25 435,315 424.25,315 424.25,306.5 415.75,306.5 415.75,315 405,315 405,304.25 413.5,304.25 413.5,295.75 405,295.75 405,285"/>
<polygon id="0x22cf950" class="l71d20" points="455.75,5 455.75,13.5 464.25,13.5 464.25,5 475,5 475,15.75 466.5,15.75 466.5,24.25 475,24.25 475,35 464.25,35 464.25,26.5 455.75,26.5 455.75,35 445,35 445,24.25 453.5,24.25 453.5,15.75 445,15.75 445,5"/>
<polygon id="0x22cfa70" class="l71d20" points="455.75,85 455.75,93.5 464.25,93.5 464.25,85 475,85 475,95.75 466.5,95.75 466.5,104.25 475,104.25 475,115 464.25,115 464.25,106.5 455.75,106.5 455.75,115 445,115 445,104.25 453.5,104.25 453.5,95.75 445,95.75 445,85"/>
<polygon id="0x207d640" class="l71d20" points="455.75,205 455.75,213.5 464.25,213.5 464.25,205 475,205 475,215.75 466.5,215.75 466.5,224.25 475,224.25 475,235 464.25,235 464.25,226.5 455.75,226.5 455.75,235 445,235 445,224.25 453.5,224.25 453.5,215.75 445,215.75 445,205"/>
<polygon id="0x207d6b0" class="l71d20" points="455.75,285 455.75,293.5 464.25,293.5 464.25,285 475,285 475,295.75 466.5,295.75 466.5,304.25 475,304.25 475,315 464.25,315 464.25,306.5 455.75,306.5 455.75,315 445,315 445,304.25 453.5,304.25 453.5,295.75 445,295.75 445,285"/>
<polygon id="0x21fb970" class="l71d20" points="495.75,5 495.75,13.5 504.25,13.5 504.25,5 515,5 515,15.75 506.5,15.75 506.5,24.25 515,24.25 515,35 504.25,35 504.25,26.5 495.75,26.5 495.75,35 485,35 485,24.25 493.5,24.25 493.5,15.75 485,15.75 485,5"/>
<polygon id="0x21fb9e0" class="l71d20" points="495.75,125 495.75,133.5 504.25,133.5 504.25,125 515,125 515,135.75 506.5,135.75 506.5,144.25 515,144.25 515,155 504.25,155 504.25,146.5 495.75,146.5 495.75,155 485,155 485,144.25 493.5,144.25 493.5,135.75 485,135.75 485,125"/>
<polygon id="0x21fe3e0" class="l71d20" points="495.75,165 495.75,173.5 504.25,173.5 504.25,165 515,165 515,175.75 506.5,175.75 506.5,184.25 515,184.25 515,195 504.25,195 504.25,186.5 495.75,186.5 495.75,195 485,195 485,184.25 493.5,184.25 493.5,175.75 485,175.75 485,165"/>
<polygon id="0x21fe450" class="l71d20" points="495.75,285 495.75,293.5 504.25,293.5 504.25,285 515,285 515,295.75 506.5,295.75 506.5,304.25 515,304.25 515,315 504.25,315 504.25,306.5 495.75,306.5 495.75,315 485,315 485,304.25 493.5,304.25 493.5,295.75 485,295.75 485,285"/>
<polygon id="0x2217410" class="l71d20" points="535.75,5 535.75,13.5 544.25,13.5 544.25,5 555,5 555,15.75 546.5,15.75 546.5,24.25 555,24.25 555,35 544.25,35 544.25,26.5 535.75,26.5 535.75,35 525,35 525,24.25 533.5,24.25 533.5,15.75 525,15.75 525,5"/>
<polygon id="0x2217480" class="l71d20" points="535.75,125 535.75,133.5 544.25,133.5 544.25,125 555,125 555,135.75 546.5,135.75 546.5,144.25 555,144.25 555,155 544.25,155 544.25,146.5 535.75,146.5 535.75,155 525,155 525,144.25 533.5,144.25 533.5,135.75 525,135.75 525,125"/>
<polygon id="0x1fdaaa0" class="l71d20" points="535.75,165 535.75,173.5 544.25,173.5 544.25,165 555,165 555,175.75 546.5,175.75 546.5,184.25 555,184.25 555,195 544.25,195 544.25,186.5 535.75,186.5 535.75,195 525,195 525,184.25 533.5,184.25 533.5,175.75 525,175.75 525,165"/>
<polygon id="0x1fdab10" class="l71d20" points="535.75,285 535.75,293.5 544.25,293.5 544.25,285 555,285 555,295.75 546.5,295.75 546.5,304.25 555,304.25 555,315 544.25,315 544.25,306.5 535.75,306.5 535.75,315 525,315 525,304.25 533.5,304.25 533.5,295.75 525,295.75 525,285"/>
<polygon id="0x2230cc0" class="l71d20" points="575.75,5 575.75,13.5 584.25,13.5 584.25,5 595,5 595,15.75 586.5,15.75 586.5,24.25 595,24.25 595,35 584.25,35 584.25,26.5 575.75,26.5 575.75,35 565,35 565,24.25 573.5,24.25 573.5,15.75 565,15.75 565,5"/>
<polygon id="0x2230d30" class="l71d20" points="575.75,85 575.75,93.5 584.25,93.5 584.25,85 595,85 595,95.75 586.5,95.75 586.5,104.25 595,104.25 595,115 584.25,115 584.25,106.5 575.75,106.5 575.75,115 565,115 565,104.25 573.5,104.25 573.5,95.75 565,95.75 565,85"/>
<polygon id="0x227c480" class="l71d20" points="575.75,205 575.75,213.5 584.25,213.5 584.25,205 595,205 595,215.75 586.5,215.75 586.5,224.25 595,224.25 595,235 584.25,235 584.25,226.5 575.75,226.5 575.75,235 565,235 565,224.25 573.5,224.25 573.5,215.75 565,215.75 565,205"/>
<polygon id="0x227c4f0" class="l71d20" points="575.75,285 575.75,293.5 584.25,293.5 584.25,285 595,285 595,295.75 586.5,295.75 586.5,304.25 595,304.25 595,315 584.25,315 584.25,306.5 575.75,306.5 575.75,315 565,315 565,304.25 573.5,304.25 573.5,295.75 565,295.75 565,285"/>
<polygon id="0x206dda0" class="l71d20" points="615.75,5 615.75,13.5 624.25,13.5 624.25,5 635,5 635,15.75 626.5,15.75 626.5,24.25 635,24.25 635,35 624.25,35 624.25,26.5 615.75,26.5 615.75,35 605,35 605,24.25 613.5,24.25 613.5,15.75 605,15.75 605,5"/>
<polygon id="0x218a1d0" class="l71d20" points="615.75,45 615.75,53.5 624.25,53.5 624.25,45 635,45 635,55.75 626.5,55.75 626.5,64.25 635,64.25 635,75 624.25,75 624.25,66.5 615.75,66.5 615.75,75 605,75 605,64.25 613.5,64.25 613.5,55.75 605,55.75 605,45"/>
<polygon id="0x21dcf20" class="l71d20" points="615.75,85 615.75,93.5 624.25,93.5 624.25,85 635,85 635,95.75 626.5,95.75 626.5,104.25 635,104.25 635,115 624.25,115 624.25,106.5 615.75,106.5 615.75,115 605,115 605,104.25 613.5,104.25 613.5,95.75 605,95.75 605,85"/>
<polygon id="0x22b0fa0" class="l71d20" points="615.75,205 615.75,213.5 624.25,213.5 624.25,205 635,205 635,215.75 626.5,215.75 626.5,224.25 635,224.25 635,235 624.25,235 624.25,226.5 615.75,226.5 615.75,235 605,235 605,224.25 613.5,224.25 613.5,215.75 605,215.75 605,205"/>
<polygon id="0x22b1010" class="l71d20" points="615.75,245 615.75,253.5 624.25,253.5 624.25,245 635,245 635,255.75 626.5,255.75 626.5,264.25 635,264.25 635,275 624.25,275 624.25,266.5 615.75,266.5 615.75,275 605,275 605,264.25 613.5,264.25 613.5,255.75 605,255.75 605,245"/>
<polygon id="0x1fe54c0" class="l71d20" points="615.75,285 615.75,293.5 624.25,293.5 624.25,285 635,285 635,295.75 626.5,295.75 626.5,304.25 635,304.25 635,315 624.25,315 624.25,306.5 615.75,306.5 615.75,315 605,315 605,304.25 613.5,304.25 613.5,295.75 605,295.75 605,285"/>
<polygon id="0x1fe5530" class="l71d20" points="655.75,5 655.75,13.5 664.25,13.5 664.25,5 675,5 675,15.75 666.5,15.75 666.5,24.25 675,24.25 675,35 664.25,35 664.25,26.5 655.75,26.5 655.75,35 645,35 645,24.25 653.5,24.25 653.5,15.75 645,15.75 645,5"/>
<polygon id="0x2150610" class="l71d20" points="655.75,85 655.75,93.5 664.25,93.5 664.25,85 675,85 675,95.75 666.5,95.75 666.5,104.25 675,104.25 675,115 664.25,115 664.25,106.5 655.75,106.5 655.75,115 645,115 645,104.25 653.5,104.25 653.5,95.75 645,95.75 645,85"/>
<polygon id="0x21b6410" class="l71d20" points="655.75,205 655.75,213.5 664.25,213.5 664.25,205 675,205 675,215.75 666.5,215.75 666.5,224.25 675,224.25 675,235 664.25,235 664.25,226.5 655.75,226.5 655.75,235 645,235 645,224.25 653.5,224.25 653.5,215.75 645,215.75 645,205"/>
<polygon id="0x2271ef0" class="l71d20" points="655.75,285 655.75,293.5 664.25,293.5 664.25,285 675,285 675,295.75 666.5,295.75 666.5,304.25 675,304.25 675,315 664.25,315 664.25,306.5 655.75,306.5 655.75,315 645,315 645,304.25 653.5,304.25 653.5,295.75 645,295.75 645,285"/>
<polygon id="0x1f7c680" class="l71d20" points="375.75,405 375.75,413.5 384.25,413.5 384.25,405 395,405 395,415.75 386.5,415.75 386.5,424.25 395,424.25 395,435 384.25,435 384.25,426.5 375.75,426.5 375.75,435 365,435 365,424.25 373.5,424.25 373.5,415.75 365,415.75 365,405"/>
<polygon id="0x200fde0" class="l71d20" points="375.75,485 375.75,493.5 384.25,493.5 384.25,485 395,485 395,495.75 386.5,495.75 386.5,504.25 395,504.25 395,515 384.25,515 384.25,506.5 375.75,506.5 375.75,515 365,515 365,504.25 373.5,504.25 373.5,495.75 365,495.75 365,485"/>
<polygon id="0x22cfdf0" class="l71d20" points="375.75,525 375.75,533.5 384.25,533.5 384.25,525 395,525 395,535.75 386.5,535.75 386.5,544.25 395,544.25 395,555 384.25,555 384.25,546.5 375.75,546.5 375.75,555 365,555 365,544.25 373.5,544.25 373.5,535.75 365,535.75 365,525"/>
<polygon id="0x20b11f0" class="l71d20" points="375.75,605 375.75,613.5 384.25,613.5 384.25,605 395,605 395,615.75 386.5,615.75 386.5,624.25 395,624.25 395,635 384.25,635 384.25,626.5 375.75,626.5 375.75,635 365,635 365,624.25 373.5,624.25 373.5,615.75 365,615.75 365,605"/>
<polygon id="0x20b3cc0" class="l71d20" points="415.75,405 415.75,413.5 424.25,413.5 424.25,405 435,405 435,415.75 426.5,415.75 426.5,424.25 435,424.25 435,435 424.25,435 424.25,426.5 415.75,426.5 415.75,435 405,435 405,424.25 413.5,424.25 413.5,415.75 405,415.75 405,405"/>
<polygon id="0x2105420" class="l71d20" points="415.75,445 415.75,453.5 424.25,453.5 424.25,445 435,445 435,455.75 426.5,455.75 426.5,464.25 435,464.25 435,475 424.25,475 424.25,466.5 415.75,466.5 415.75,475 405,475 405,464.25 413.5,464.25 413.5,455.75 405,455.75 405,445"/>
<polygon id="0x21140a0" class="l71d20" points="415.75,485 415.75,493.5 424.25,493.5 424.25,485 435,485 435,495.75 426.5,495.75 426.5,504.25 435,504.25 435,515 424.25,515 424.25,506.5 415.75,506.5 415.75,515 405,515 405,504.25 413.5,504.25 413.5,495.75 405,495.75 405,485"/>
<polygon id="0x213ace0" class="l71d20" points="415.75,525 415.75,533.5 424.25,533.5 424.25,525 435,525 435,535.75 426.5,535.75 426.5,544.25 435,544.25 435,555 424.25,555 424.25,546.5 415.75,546.5 415.75,555 405,555 405,544.25 413.5,544.25 413.5,535.75 405,535.75 405,525"/>
<polygon id="0x21cb050" class="l71d20" points="415.75,565 415.75,573.5 424.25,573.5 424.25,565 435,565 435,575.75 426.5,575.75 426.5,584.25 435,584.25 435,595 424.25,595 424.25,586.5 415.75,586.5 415.75,595 405,595 405,584.25 413.5,584.25 413.5,575.75 405,575.75 405,565"/>
<polygon id="0x225e0a0" class="l71d20" points="415.75,605 415.75,613.5 424.25,613.5 424.25,605 435,605 435,615.75 426.5,615.75 426.5,624.25 435,624.25 435,635 424.25,635 424.25,626.5 415.75,626.5 415.75,635 405,635 405,624.25 413.5,624.25 413.5,615.75 405,615.75 405,605"/>
<polygon id="0x2282400" class="l71d20" points="455.75,485 455.75,493.5 464.25,493.5 464.25,485 475,485 475,495.75 466.5,495.75 466.5,504.25 475,504.25 475,515 464.25,515 464.25,506.5 455.75,506.5 455.75,515 445,515 445,504.25 453.5,504.25 453.5,495.75 445,495.75 445,485"/>
<polygon id="0x20ccf70" class="l71d20" points="455.75,525 455.75,533.5 464.25,533.5 464.25,525 475,525 475,535.75 466.5,535.75 466.5,544.25 475,544.25 475,555 464.25,555 464.25,546.5 455.75,546.5 455.75,555 445,555 445,544.25 453.5,544.25 453.5,535.75 445,535.75 445,525"/>
<polygon id="0x2121530" class="l71d20" points="495.75,365 495.75,373.5 504.25,373.5 504.25,365 515,365 515,375.75 506.5,375.75 506.5,384.25 515,384.25 515,395 504.25,395 504.25,386.5 495.75,386.5 495.75,395 485,395 485,384.25 493.5,384.25 493.5,375.75 485,375.75 485,365"/>
<polygon id="0x203a3a0" class="l71d20" points="495.75,405 495.75,413.5 504.25,413.5 504.25,405 515,405 515,415.75 506.5,415.75 506.5,424.25 515,424.25 515,435 504.25,435 504.25,426.5 495.75,426.5 495.75,435 485,435 485,424.25 493.5,424.25 493.5,415.75 485,415.75 485,405"/>
<polygon id="0x221aa20" class="l71d20" points="495.75,605 495.75,613.5 504.25,613.5 504.25,605 515,605 515,615.75 506.5,615.75 506.5,624.25 515,624.25 515,635 504.25,635 504.25,626.5 495.75,626.5 495.75,635 485,635 485,624.25 493.5,624.25 493.5,615.75 485,615.75 485,605"/>
<polygon id="0x221dbb0" class="l71d20" points="495.75,645 495.75,653.5 504.25,653.5 504.25,645 515,645 515,655.75 506.5,655.75 506.5,664.25 515,664.25 515,675 504.25,675 504.25,666.5 495.75,666.5 495.75,675 485,675 485,664.25 493.5,664.25 493.5,655.75 485,655.75 485,645"/>
<polygon id="0x22208b0" class="l71d20" points="535.75,365 535.75,373.5 544.25,373.5 544.25,365 555,365 555,375.75 546.5,375.75 546.5,384.25 555,384.25 555,395 544.25,395 544.25,386.5 535.75,386.5 535.75,395 525,395 525,384.25 533.5,384.25 533.5,375.75 525,375.75 525,365"/>
<polygon id="0x22b8570" class="l71d20" points="535.75,405 535.75,413.5 544.25,413.5 544.25,405 555,405 555,415.75 546.5,415.75 546.5,424.25 555,424.25 555,435 544.25,435 544.25,426.5 535.75,426.5 535.75,435 525,435 525,424.25 533.5,424.25 533.5,415.75 525,415.75 525,405"/>
<polygon id="0x22d7740" class="l71d20" points="535.75,605 535.75,613.5 544.25,613.5 544.25,605 555,605 555,615.75 546.5,615.75 546.5,624.25 555,624.25 555,635 544.25,635 544.25,626.5 535.75,626.5 535.75,635 525,635 525,624.25 533.5,624.25 533.5,615.75 525,615.75 525,605"/>
<polygon id="0x22d77b0" class="l71d20" points="535.75,645 535.75,653.5 544.25,653.5 544.25,645 555,645 555,655.75 546.5,655.75 546.5,664.25 555,664.25 555,675 544.25,675 544.25,666.5 535.75,666.5 535.75,675 525,675 525,664.25 533.5,664.25 533.5,655.75 525,655.75 525,645"/>
<polygon id="0x209c270" class="l71d20" points="575.75,485 575.75,493.5 584.25,493.5 584.25,485 595,485 595,495.75 586.5,495.75 586.5,504.25 595,504.25 595,515 584.25,515 584.25,506.5 575.75,506.5 575.75,515 565,515 565,504.25 573.5,504.25 573.5,495.75 565,495.75 565,485"/>
<polygon id="0x209c2e0" class="l71d20" points="575.75,525 575.75,533.5 584.25,533.5 584.25,525 595,525 595,535.75 586.5,535.75 586.5,544.25 595,544.25 595,555 584.25,555 584.25,546.5 575.75,546.5 575.75,555 565,555 565,544.25 573.5,544.25 573.5,535.75 565,535.75 565,525"/>
<polygon id="0x209e7d0" class="l71d20" points="615.75,405 615.75,413.5 624.25,413.5 624.25,405 635,405 635,415.75 626.5,415.75 626.5,424.25 635,424.25 635,435 624.25,435 624.25,426.5 615.75,426.5 615.75,435 605,435 605,424.25 613.5,424.25 613.5,415.75 605,415.75 605,405"/>
<polygon id="0x209e840" class="l71d20" points="615.75,445 615.75,453.5 624.25,453.5 624.25,445 635,445 635,455.75 626.5,455.75 626.5,464.25 635,464.25 635,475 624.25,475 624.25,466.5 615.75,466.5 615.75,475 605,475 605,464.25 613.5,464.25 613.5,455.75 605,455.75 605,445"/>
<polygon id="0x20d9eb0" class="l71d20" points="615.75,485 615.75,493.5 624.25,493.5 624.25,485 635,485 635,495.75 626.5,495.75 626.5,504.25 635,504.25 635,515 624.25,515 624.25,506.5 615.75,506.5 615.75,515 605,515 605,504.25 613.5,504.25 613.5,495.75 605,495.75 605,485"/>
<polygon id="0x20d9f20" class="l71d20" points="615.75,525 615.75,533.5 624.25,533.5 624.25,525 635,525 635,535.75 626.5,535.75 626.5,544.25 635,544.25 635,555 624.25,555 624.25,546.5 615.75,546.5 615.75,555 605,555 605,544.25 613.5,544.25 613.5,535.75 605,535.75 605,525"/>
<polygon id="0x2142600" class="l71d20" points="615.75,565 615.75,573.5 624.25,573.5 624.25,565 635,565 635,575.75 626.5,575.75 626.5,584.25 635,584.25 635,595 624.25,595 624.25,586.5 615.75,586.5 615.75,595 605,595 605,584.25 613.5,584.25 613.5,575.75 605,575.75 605,565"/>
<polygon id="0x2142670" class="l71d20" points="615.75,605 615.75,613.5 624.25,613.5 624.25,605 635,605 635,615.75 626.5,615.75 626.5,624.25 635,624.25 635,635 624.25,635 624.25,626.5 615.75,626.5 615.75,635 605,635 605,624.25 613.5,624.25 613.5,615.75 605,615.75 605,605"/>
<polygon id="0x211bcf0" class="l71d20" points="655.75,405 655.75,413.5 664.25,413.5 664.25,405 675,405 675,415.75 666.5,415.75 666.5,424.25 675,424.25 675,435 664.25,435 664.25,426.5 655.75,426.5 655.75,435 645,435 645,424.25 653.5,424.25 653.5,415.75 645,415.75 645,405"/>
<polygon id="0x211bd60" class="l71d20" points="655.75,485 655.75,493.5 664.25,493.5 664.25,485 675,485 675,495.75 666.5,495.75 666.5,504.25 675,504.25 675,515 664.25,515 664.25,506.5 655.75,506.5 655.75,515 645,515 645,504.25 653.5,504.25 653.5,495.75 645,495.75 645,485"/>
<polygon id="0x21eb180" class="l71d20" points="655.75,525 655.75,533.5 664.25,533.5 664.25,525 675,525 675,535.75 666.5,535.75 666.5,544.25 675,544.25 675,555 664.25,555 664.25,546.5 655.75,546.5 655.75,555 645,555 645,544.25 653.5,544.25 653.5,535.75 645,535.75 645,525"/>
<polygon id="0x21eb1f0" class="l71d20" points="655.75,605 655.75,613.5 664.25,613.5 664.25,605 675,605 675,615.75 666.5,615.75 666.5,624.25 675,624.25 675,635 664.25,635 664.25,626.5 655.75,626.5 655.75,635 645,635 645,624.25 653.5,624.25 653.5,615.75 645,615.75 645,605"/>
<polygon id="0x223e430" class="l71d20" points="735.75,85 735.75,93.5 744.25,93.5 744.25,85 755,85 755,95.75 746.5,95.75 746.5,104.25 755,104.25 755,115 744.25,115 744.25,106.5 735.75,106.5 735.75,115 725,115 725,104.25 733.5,104.25 733.5,95.75 725,95.75 725,85"/>
<polygon id="0x223e4a0" class="l71d20" points="735.75,205 735.75,213.5 744.25,213.5 744.25,205 755,205 755,215.75 746.5,215.75 746.5,224.25 755,224.25 755,235 744.25,235 744.25,226.5 735.75,226.5 735.75,235 725,235 725,224.25 733.5,224.25 733.5,215.75 725,215.75 725,205"/>
<polygon id="0x221d390" class="l71d20" points="775.75,5 775.75,13.5 784.25,13.5 784.25,5 795,5 795,15.75 786.5,15.75 786.5,24.25 795,24.25 795,35 784.25,35 784.25,26.5 775.75,26.5 775.75,35 765,35 765,24.25 773.5,24.25 773.5,15.75 765,15.75 765,5"/>
<polygon id="0x221d400" class="l71d20" points="775.75,45 775.75,53.5 784.25,53.5 784.25,45 795,45 795,55.75 786.5,55.75 786.5,64.25 795,64.25 795,75 784.25,75 784.25,66.5 775.75,66.5 775.75,75 765,75 765,64.25 773.5,64.25 773.5,55.75 765,55.75 765,45"/>
<polygon id="0x2278e50" class="l71d20" points="775.75,85 775.75,93.5 784.25,93.5 784.25,85 795,85 795,95.75 786.5,95.75 786.5,104.25 795,104.25 795,115 784.25,115 784.25,106.5 775.75,106.5 775.75,115 765,115 765,104.25 773.5,104.25 773.5,95.75 765,95.75 765,85"/>
<polygon id="0x2278ec0" class="l71d20" points="775.75,205 775.75,213.5 784.25,213.5 784.25,205 795,205 795,215.75 786.5,215.75 786.5,224.25 795,224.25 795,235 784.25,235 784.25,226.5 775.75,226.5 775.75,235 765,235 765,224.25 773.5,224.25 773.5,215.75 765,215.75 765,205"/>
<polygon id="0x228a360" class="l71d20" points="775.75,245 775.75,253.5 784.25,253.5 784.25,245 795,245 795,255.75 786.5,255.75 786.5,264.25 795,264.25 795,275 784.25,275 784.25,266.5 775.75,266.5 775.75,275 765,275 765,264.25 773.5,264.25 773.5,255.75 765,255.75 765,245"/>
<polygon id="0x228a3d0" class="l71d20" points="775.75,285 775.75,293.5 784.25,293.5 784.25,285 795,285 795,295.75 786.5,295.75 786.5,304.25 795,304.25 795,315 784.25,315 784.25,306.5 775.75,306.5 775.75,315 765,315 765,304.25 773.5,304.25 773.5,295.75 765,295.75 765,285"/>
<polygon id="0x2299ff0" class="l71d20" points="815.75,5 815.75,13.5 824.25,13.5 824.25,5 835,5 835,15.75 826.5,15.75 826.5,24.25 835,24.25 835,35 824.25,35 824.25,26.5 815.75,26.5 815.75,35 805,35 805,24.25 813.5,24.25 813.5,15.75 805,15.75 805,5"/>
<polygon id="0x229a060" class="l71d20" points="815.75,285 815.75,293.5 824.25,293.5 824.25,285 835,285 835,295.75 826.5,295.75 826.5,304.25 835,304.25 835,315 824.25,315 824.25,306.5 815.75,306.5 815.75,315 805,315 805,304.25 813.5,304.25 813.5,295.75 805,295.75 805,285"/>
<polygon id="0x200d890" class="l71d20" points="855.75,85 855.75,93.5 864.25,93.5 864.25,85 875,85 875,95.75 866.5,95.75 866.5,104.25 875,104.25 875,115 864.25,115 864.25,106.5 855.75,106.5 855.75,115 845,115 845,104.25 853.5,104.25 853.5,95.75 845,95.75 845,85"/>
<polygon id="0x200d900" class="l71d20" points="855.75,205 855.75,213.5 864.25,213.5 864.25,205 875,205 875,215.75 866.5,215.75 866.5,224.25 875,224.25 875,235 864.25,235 864.25,226.5 855.75,226.5 855.75,235 845,235 845,224.25 853.5,224.25 853.5,215.75 845,215.75 845,205"/>
<polygon id="0x2024600" class="l71d20" points="895.75,85 895.75,93.5 904.25,93.5 904.25,85 915,85 915,95.75 906.5,95.75 906.5,104.25 915,104.25 915,115 904.25,115 904.25,106.5 895.75,106.5 895.75,115 885,115 885,104.25 893.5,104.25 893.5,95.75 885,95.75 885,85"/>
<polygon id="0x2024670" class="l71d20" points="895.75,205 895.75,213.5 904.25,213.5 904.25,205 915,205 915,215.75 906.5,215.75 906.5,224.25 915,224.25 915,235 904.25,235 904.25,226.5 895.75,226.5 895.75,235 885,235 885,224.25 893.5,224.25 893.5,215.75 885,215.75 885,205"/>
<polygon id="0x2084fd0" class="l71d20" points="935.75,5 935.75,13.5 944.25,13.5 944.25,5 955,5 955,15.75 946.5,15.75 946.5,24.25 955,24.25 955,35 944.25,35 944.25,26.5 935.75,26.5 935.75,35 925,35 925,24.25 933.5,24.25 933.5,15.75 925,15.75 925,5"/>
<polygon id="0x2085040" class="l71d20" points="935.75,285 935.75,293.5 944.25,293.5 944.25,285 955,285 955,295.75 946.5,295.75 946.5,304.25 955,304.25 955,315 944.25,315 944.25,306.5 935.75,306.5 935.75,315 925,315 925,304.25 933.5,304.25 933.5,295.75 925,295.75 925,285"/>
<polygon id="0x20a9390" class="l71d20" points="975.75,5 975.75,13.5 984.25,13.5 984.25,5 995,5 995,15.75 986.5,15.75 986.5,24.25 995,24.25 995,35 984.25,35 984.25,26.5 975.75,26.5 975.75,35 965,35 965,24.25 973.5,24.25 973.5,15.75 965,15.75 965,5"/>
<polygon id="0x20a9400" class="l71d20" points="975.75,45 975.75,53.5 984.25,53.5 984.25,45 995,45 995,55.75 986.5,55.75 986.5,64.25 995,64.25 995,75 984.25,75 984.25,66.5 975.75,66.5 975.75,75 965,75 965,64.25 973.5,64.25 973.5,55.75 965,55.75 965,45"/>
<polygon id="0x20da840" class="l71d20" points="975.75,85 975.75,93.5 984.25,93.5 984.25,85 995,85 995,95.75 986.5,95.75 986.5,104.25 995,104.25 995,115 984.25,115 984.25,106.5 975.75,106.5 975.75,115 965,115 965,104.25 973.5,104.25 973.5,95.75 965,95.75 965,85"/>
<polygon id="0x20da8b0" class="l71d20" points="975.75,205 975.75,213.5 984.25,213.5 984.25,205 995,205 995,215.75 986.5,215.75 986.5,224.25 995,224.25 995,235 984.25,235 984.25,226.5 975.75,226.5 975.75,235 965,235 965,224.25 973.5,224.25 973.5,215.75 965,215.75 965,205"/>
<polygon id="0x213a090" class="l71d20" points="975.75,245 975.75,253.5 984.25,253.5 984.25,245 995,245 995,255.75 986.5,255.75 986.5,264.25 995,264.25 995,275 984.25,275 984.25,266.5 975.75,266.5 975.75,275 965,275 965,264.25 973.5,264.25 973.5,255.75 965,255.75 965,245"/>
<polygon id="0x213a100" class="l71d20" points="975.75,285 975.75,293.5 984.25,293.5 984.25,285 995,285 995,295.75 986.5,295.75 986.5,304.25 995,304.25 995,315 984.25,315 984.25,306.5 975.75,306.5 975.75,315 965,315 965,304.25 973.5,304.25 973.5,295.75 965,295.75 965,285"/>
<polygon id="0x22adcd0" class="l71d20" points="1015.75,85 1015.75,93.5 1024.25,93.5 1024.25,85 1035,85 1035,95.75 1026.5,95.75 1026.5,104.25 1035,104.25 1035,115 1024.25,115 1024.25,106.5 1015.75,106.5 1015.75,115 1005,115 1005,104.25 1013.5,104.25 1013.5,95.75 1005,95.75 1005,85"/>
<polygon id="0x22add40" class="l71d20" points="1015.75,205 1015.75,213.5 1024.25,213.5 1024.25,205 1035,205 1035,215.75 1026.5,215.75 1026.5,224.25 1035,224.25 1035,235 1024.25,235 1024.25,226.5 1015.75,226.5 1015.75,235 1005,235 1005,224.25 1013.5,224.25 1013.5,215.75 1005,215.75 1005,205"/>
<polygon id="0x20288c0" class="l71d20" points="735.75,405 735.75,413.5 744.25,413.5 744.25,405 755,405 755,415.75 746.5,415.75 746.5,424.25 755,424.25 755,435 744.25,435 744.25,426.5 735.75,426.5 735.75,435 725,435 725,424.25 733.5,424.25 733.5,415.75 725,415.75 725,405"/>
<polygon id="0x2028930" class="l71d20" points="735.75,445 735.75,453.5 744.25,453.5 744.25,445 755,445 755,455.75 746.5,455.75 746.5,464.25 755,464.25 755,475 744.25,475 744.25,466.5 735.75,466.5 735.75,475 725,475 725,464.25 733.5,464.25 733.5,455.75 725,455.75 725,445"/>
<polygon id="0x2049830" class="l71d20" points="735.75,565 735.75,573.5 744.25,573.5 744.25,565 755,565 755,575.75 746.5,575.75 746.5,584.25 755,584.25 755,595 744.25,595 744.25,586.5 735.75,586.5 735.75,595 725,595 725,584.25 733.5,584.25 733.5,575.75 725,575.75 725,565"/>
<polygon id="0x20498a0" class="l71d20" points="735.75,605 735.75,613.5 744.25,613.5 744.25,605 755,605 755,615.75 746.5,615.75 746.5,624.25 755,624.25 755,635 744.25,635 744.25,626.5 735.75,626.5 735.75,635 725,635 725,624.25 733.5,624.25 733.5,615.75 725,615.75 725,605"/>
<polygon id="0x209ff10" class="l71d20" points="775.75,405 775.75,413.5 784.25,413.5 784.25,405 795,405 795,415.75 786.5,415.75 786.5,424.25 795,424.25 795,435 784.25,435 784.25,426.5 775.75,426.5 775.75,435 765,435 765,424.25 773.5,424.25 773.5,415.75 765,415.75 765,405"/>
<polygon id="0x209ff80" class="l71d20" points="775.75,605 775.75,613.5 784.25,613.5 784.25,605 795,605 795,615.75 786.5,615.75 786.5,624.25 795,624.25 795,635 784.25,635 784.25,626.5 775.75,626.5 775.75,635 765,635 765,624.25 773.5,624.25 773.5,615.75 765,615.75 765,605"/>
<polygon id="0x21fa500" class="l71d20" points="815.75,405 815.75,413.5 824.25,413.5 824.25,405 835,405 835,415.75 826.5,415.75 826.5,424.25 835,424.25 835,435 824.25,435 824.25,426.5 815.75,426.5 815.75,435 805,435 805,424.25 813.5,424.25 813.5,415.75 805,415.75 805,405"/>
<polygon id="0x21fa570" class="l71d20" points="815.75,445 815.75,453.5 824.25,453.5 824.25,445 835,445 835,455.75 826.5,455.75 826.5,464.25 835,464.25 835,475 824.25,475 824.25,466.5 815.75,466.5 815.75,475 805,475 805,464.25 813.5,464.25 813.5,455.75 805,455.75 805,445"/>
<polygon id="0x22dd7c0" class="l71d20" points="815.75,485 815.75,493.5 824.25,493.5 824.25,485 835,485 835,495.75 826.5,495.75 826.5,504.25 835,504.25 835,515 824.25,515 824.25,506.5 815.75,506.5 815.75,515 805,515 805,504.25 813.5,504.25 813.5,495.75 805,495.75 805,485"/>
<polygon id="0x22dd980" class="l71d20" points="815.75,525 815.75,533.5 824.25,533.5 824.25,525 835,525 835,535.75 826.5,535.75 826.5,544.25 835,544.25 835,555 824.25,555 824.25,546.5 815.75,546.5 815.75,555 805,555 805,544.25 813.5,544.25 813.5,535.75 805,535.75 805,525"/>
<polygon id="0x22ddb40" class="l71d20" points="815.75,565 815.75,573.5 824.25,573.5 824.25,565 835,565 835,575.75 826.5,575.75 826.5,584.25 835,584.25 835,595 824.25,595 824.25,586.5 815.75,586.5 815.75,595 805,595 805,584.25 813.5,584.25 813.5,575.75 805,575.75 805,565"/>
<polygon id="0x22ddd00" class="l71d20" points="815.75,605 815.75,613.5 824.25,613.5 824.25,605 835,605 835,615.75 826.5,615.75 826.5,624.25 835,624.25 835,635 824.25,635 824.25,626.5 815.75,626.5 815.75,635 805,635 805,624.25 813.5,624.25 813.5,615.75 805,615.75 805,605"/>
<polygon id="0x22ddec0" class="l71d20" points="855.75,365 855.75,373.5 864.25,373.5 864.25,365 875,365 875,375.75 866.5,375.75 866.5,384.25 875,384.25 875,395 864.25,395 864.25,386.5 855.75,386.5 855.75,395 845,395 845,384.25 853.5,384.25 853.5,375.75 845,375.75 845,365"/>
<polygon id="0x22de080" class="l71d20" points="855.75,445 855.75,453.5 864.25,453.5 864.25,445 875,445 875,455.75 866.5,455.75 866.5,464.25 875,464.25 875,475 864.25,475 864.25,466.5 855.75,466.5 855.75,475 845,475 845,464.25 853.5,464.25 853.5,455.75 845,455.75 845,445"/>
<polygon id="0x22de240" class="l71d20" points="855.75,565 855.75,573.5 864.25,573.5 864.25,565 875,565 875,575.75 866.5,575.75 866.5,584.25 875,584.25 875,595 864.25,595 864.25,586.5 855.75,586.5 855.75,595 845,595 845,584.25 853.5,584.25 853.5,575.75 845,575.75 845,565"/>
<polygon id="0x22de400" class="l71d20" points="855.75,645 855.75,653.5 864.25,653.5 864.25,645 875,645 875,655.75 866.5,655.75 866.5,664.25 875,664.25 875,675 864.25,675 864.25,666.5 855.75,666.5 855.75,675 845,675 845,664.25 853.5,664.25 853.5,655.75 845,655.75 845,645"/>
<polygon id="0x22de5c0" class="l71d20" points="895.75,365 895.75,373.5 904.25,373.5 904.25,365 915,365 915,375.75 906.5,375.75 906.5,384.25 915,384.25 915,395 904.25,395 904.25,386.5 895.75,386.5 895.75,395 885,395 885,384.25 893.5,384.25 893.5,375.75 885,375.75 885,365"/>
<polygon id="0x22de780" class="l71d20" points="895.75,445 895.75,453.5 904.25,453.5 904.25,445 915,445 915,455.75 906.5,455.75 906.5,464.25 915,464.25 915,475 904.25,475 904.25,466.5 895.75,466.5 895.75,475 885,475 885,464.25 893.5,464.25 893.5,455.75 885,455.75 885,445"/>
<polygon id="0x22de940" class="l71d20" points="895.75,565 895.75,573.5 904.25,573.5 904.25,565 915,565 915,575.75 906.5,575.75 906.5,584.25 915,584.25 915,595 904.25,595 904.25,586.5 895.75,586.5 895.75,595 885,595 885,584.25 893.5,584.25 893.5,575.75 885,575.75 885,565"/>
<polygon id="0x22deb00" class="l71d20" points="895.75,645 895.75,653.5 904.25,653.5 904.25,645 915,645 915,655.75 906.5,655.75 906.5,664.25 915,664.25 915,675 904.25,675 904.25,666.5 895.75,666.5 895.75,675 885,675 885,664.25 893.5,664.25 893.5,655.75 885,655.75 885,645"/>
<polygon id="0x22decc0" class="l71d20" points="935.75,405 935.75,413.5 944.25,413.5 944.25,405 955,405 955,415.75 946.5,415.75 946.5,424.25 955,424.25 955,435 944.25,435 944.25,426.5 935.75,426.5 935.75,435 925,435 925,424.25 933.5,424.25 933.5,415.75 925,415.75 925,405"/>
<polygon id="0x22dee80" class="l71d20" points="935.75,445 935.75,453.5 944.25,453.5 944.25,445 955,445 955,455.75 946.5,455.75 946.5,464.25 955,464.25 955,475 944.25,475 944.25,466.5 935.75,466.5 935.75,475 925,475 925,464.25 933.5,464.25 933.5,455.75 925,455.75 925,445"/>
<polygon id="0x22df040" class="l71d20" points="935.75,485 935.75,493.5 944.25,493.5 944.25,485 955,485 955,495.75 946.5,495.75 946.5,504.25 955,504.25 955,515 944.25,515 944.25,506.5 935.75,506.5 935.75,515 925,515 925,504.25 933.5,504.25 933.5,495.75 925,495.75 925,485"/>
<polygon id="0x22df200" class="l71d20" points="935.75,525 935.75,533.5 944.25,533.5 944.25,525 955,525 955,535.75 946.5,535.75 946.5,544.25 955,544.25 955,555 944.25,555 944.25,546.5 935.75,546.5 935.75,555 925,555 925,544.25 933.5,544.25 933.5,535.75 925,535.75 925,525"/>
<polygon id="0x22df3c0" class="l71d20" points="935.75,565 935.75,573.5 944.25,573.5 944.25,565 955,565 955,575.75 946.5,575.75 946.5,584.25 955,584.25 955,595 944.25,595 944.25,586.5 935.75,586.5 935.75,595 925,595 925,584.25 933.5,584.25 933.5,575.75 925,575.75 925,565"/>
<polygon id="0x22df580" class="l71d20" points="935.75,605 935.75,613.5 944.25,613.5 944.25,605 955,605 955,615.75 946.5,615.75 946.5,624.25 955,624.25 955,635 944.25,635 944.25,626.5 935.75,626.5 935.75,635 925,635 925,624.25 933.5,624.25 933.5,615.75 925,615.75 925,605"/>
<polygon id="0x22df740" class="l71d20" points="975.75,405 975.75,413.5 984.25,413.5 984.25,405 995,405 995,415.75 986.5,415.75 986.5,424.25 995,424.25 995,435 984.25,435 984.25,426.5 975.75,426.5 975.75,435 965,435 965,424.25 973.5,424.25 973.5,415.75 965,415.75 965,405"/>
<polygon id="0x22df900" class="l71d20" points="975.75,605 975.75,613.5 984.25,613.5 984.25,605 995,605 995,615.75 986.5,615.75 986.5,624.25 995,624.25 995,635 984.25,635 984.25,626.5 975.75,626.5 975.75,635 965,635 965,624.25 973.5,624.25 973.5,615.75 965,615.75 965,605"/>
<polygon id="0x22dfac0" class="l71d20" points="1015.75,405 1015.75,413.5 1024.25,413.5 1024.25,405 1035,405 1035,415.75 1026.5,415.75 1026.5,424.25 1035,424.25 1035,435 1024.25,435 1024.25,426.5 1015.75,426.5 1015.75,435 1005,435 1005,424.25 1013.5,424.25 1013.5,415.75 1005,415.75 1005,405"/>
<polygon id="0x22dfc80" class="l71d20" points="1015.75,445 1015.75,453.5 1024.25,453.5 1024.25,445 1035,445 1035,455.75 1026.5,455.75 1026.5,464.25 1035,464.25 1035,475 1024.25,475 1024.25,466.5 1015.75,466.5 1015.75,475 1005,475 1005,464.25 1013.5,464.25 1013.5,455.75 1005,455.75 1005,445"/>
<polygon id="0x22dfe40" class="l71d20" points="1015.75,565 1015.75,573.5 1024.25,573.5 1024.25,565 1035,565 1035,575.75 1026.5,575.75 1026.5,584.25 1035,584.25 1035,595 1024.25,595 1024.25,586.5 1015.75,586.5 1015.75,595 1005,595 1005,584.25 1013.5,584.25 1013.5,575.75 1005,575.75 1005,565"/>
<polygon id="0x22e0000" class="l71d20" points="1015.75,605 1015.75,613.5 1024.25,613.5 1024.25,605 1035,605 1035,615.75 1026.5,615.75 1026.5,624.25 1035,624.25 1035,635 1024.25,635 1024.25,626.5 1015.75,626.5 1015.75,635 1005,635 1005,624.25 1013.5,624.25 1013.5,615.75 1005,615.75 1005,605"/>
<polygon id="0x2152cd0" class="l235d4" points="0,0 40,0 40,40 0,40"/>
</g>
</svg>