<?xml version="1.0" encoding="UTF-8"?>
<svg xmlns="http://www.w3.org/2000/svg" xmlns:xlink="http://www.w3.org/1999/xlink" width="1326.6" height="526.6" viewBox="-63.3 -463.3 1326.6 526.6">
<defs>
<style type="text/css">
.l235d4 {stroke: #0067A5; fill: #0067A5; fill-opacity: 0.5;}
.l72d10 {stroke: #BE0032; fill: #BE0032; fill-opacity: 0.5;}
</style>
</defs>
<rect x="-63.3" y="-463.3" width="1326.6" height="526.6" fill="#222222" stroke="none"/>
<g id="my_logo" transform="scale(1 -1)">
<polygon id="0x1e03490" class="l72d10" points="317,20 643,20 643,60 317,60"/>
<polygon id="0x1e86900" class="l72d10" points="797,20 883,20 883,60 797,60"/>
<polygon id="0x1be37a0" class="l72d10" points="957,20 1203,20 1203,60 957,60"/>
<polygon id="0x1e0c310" class="l72d10" points="-3,100 243,100 243,140 -3,140"/>
<polygon id="0x1d795f0" class="l72d10" points="317,100 403,100 403,140 317,140"/>
<polygon id="0x1d86130" class="l72d10" points="477,100 563,100 563,140 477,140"/>
<polygon id="0x1d865f0" class="l72d10" points="1037,100 1203,100 1203,140 1037,140"/>
<polygon id="0x1e1b450" class="l72d10" points="157,180 323,180 323,220 157,220"/>
<polygon id="0x1f76680" class="l72d10" points="477,180 643,180 643,220 477,220"/>
<polygon id="0x1eeacd0" class="l72d10" points="717,180 963,180 963,220 717,220"/>
<polygon id="0x1eecce0" class="l72d10" points="1037,180 1203,180 1203,220 1037,220"/>
<polygon id="0x1f256f0" class="l72d10" points="77,260 163,260 163,300 77,300"/>
<polygon id="0x1d39750" class="l72d10" points="237,260 403,260 403,300 237,300"/>
<polygon id="0x1d31c10" class="l72d10" points="477,260 563,260 563,300 477,300"/>
<polygon id="0x1f676a0" class="l72d10" points="877,260 1043,260 1043,300 877,300"/>
<polygon id="0x1fa1260" class="l72d10" points="1117,260 1203,260 1203,300 1117,300"/>
<polygon id="0x1f5ff50" class="l72d10" points="-3,340 83,340 83,380 -3,380"/>
<polygon id="0x1f0c310" class="l72d10" points="237,340 323,340 323,380 237,380"/>
<polygon id="0x1f4ac20" class="l72d10" points="397,340 483,340 483,380 397,380"/>
<polygon id="0x1f62d20" class="l72d10" points="637,340 723,340 723,380 637,380"/>
<polygon id="0x1f65fc0" class="l72d10" points="877,340 1123,340 1123,380 877,380"/>
<polygon id="0x1eeeba0" class="l72d10" points="20,-3 60,-3 60,83 20,83"/>
<polygon id="0x1ef42a0" class="l72d10" points="20,157 60,157 60,323 20,323"/>
<polygon id="0x1f36060" class="l72d10" points="100,-3 140,-3 140,83 100,83"/>
<polygon id="0x1f467d0" class="l72d10" points="100,157 140,157 140,243 100,243"/>
<polygon id="0x1f39ea0" class="l72d10" points="100,317 140,317 140,403 100,403"/>
<polygon id="0x1cd20a0" class="l72d10" points="180,-3 220,-3 220,83 180,83"/>
<polygon id="0x1da21f0" class="l72d10" points="180,237 220,237 220,403 180,403"/>
<polygon id="0x1d017b0" class="l72d10" points="260,-3 300,-3 300,163 260,163"/>
<polygon id="0x1ea5870" class="l72d10" points="340,157 380,157 380,243 340,243"/>
<polygon id="0x1ed3160" class="l72d10" points="340,317 380,317 380,403 340,403"/>
<polygon id="0x1f05a00" class="l72d10" points="420,77 460,77 460,323 420,323"/>
<polygon id="0x1d51a60" class="l72d10" points="500,317 540,317 540,403 500,403"/>
<polygon id="0x1d51ad0" class="l72d10" points="580,77 620,77 620,163 580,163"/>
<polygon id="0x1f98b40" class="l72d10" points="580,237 620,237 620,403 580,403"/>
<polygon id="0x1f98c00" class="l72d10" points="660,-3 700,-3 700,323 660,323"/>
<polygon id="0x1f98cc0" class="l72d10" points="740,-3 780,-3 780,163 740,163"/>
<polygon id="0x1f98d80" class="l72d10" points="740,237 780,237 780,403 740,403"/>
<polygon id="0x1f98e40" class="l72d10" points="820,77 860,77 860,163 820,163"/>
<polygon id="0x1f98f00" class="l72d10" points="820,237 860,237 860,403 820,403"/>
<polygon id="0x1f98fc0" class="l72d10" points="900,-3 940,-3 940,163 900,163"/>
<polygon id="0x1f99080" class="l72d10" points="980,77 1020,77 1020,243 980,243"/>
<polygon id="0x1f99140" class="l72d10" points="1060,237 1100,237 1100,323 1060,323"/>
<polygon id="0x1f99200" class="l72d10" points="1140,317 1180,317 1180,403 1140,403"/>
<polygon id="0x1f992c0" class="l235d4" points="0,0 1200,0 1200,400 0,400"/>
</g>
</svg>