<?xml version="1.0" encoding="UTF-8"?>
<svg xmlns="http://www.w3.org/2000/svg" xmlns:xlink="http://www.w3.org/1999/xlink" width="886.6" height="486.6" viewBox="-43.3 -443.3 886.6 486.6">
<defs>
<style type="text/css">
.l235d4 {stroke: #0067A5; fill: #0067A5; fill-opacity: 0.5;}
.l71d20 {stroke: #B3446C; fill: #B3446C; fill-opacity: 0.5;}
</style>
</defs>
<rect x="-43.3" y="-443.3" width="886.6" height="486.6" fill="#222222" stroke="none"/>
<g id="my_logo" transform="scale(1 -1)">
<polygon id="0x1753df0" class="l71d20" points="-3,20 323,20 323,60 -3,60"/>
<polygon id="0x1760f30" class="l71d20" points="397,20 483,20 483,60 397,60"/>
<polygon id="0x1796e30" class="l71d20" points="557,20 643,20 643,60 557,60"/>
<polygon id="0x15ba710" class="l71d20" points="77,100 403,100 403,140 77,140"/>
<polygon id="0x18460d0" class="l71d20" points="477,100 803,100 803,140 477,140"/>
<polygon id="0x18f05d0" class="l71d20" points="77,180 243,180 243,220 77,220"/>
<polygon id="0x1869c70" class="l71d20" points="317,180 723,180 723,220 317,220"/>
<polygon id="0x18a2f60" class="l71d20" points="-3,260 163,260 163,300 -3,300"/>
<polygon id="0x18c3200" class="l71d20" points="237,260 403,260 403,300 237,300"/>
<polygon id="0x18e2320" class="l71d20" points="637,260 723,260 723,300 637,300"/>
<polygon id="0x18f3d90" class="l71d20" points="-3,340 483,340 483,380 -3,380"/>
<polygon id="0x191a1f0" class="l71d20" points="557,340 803,340 803,380 557,380"/>
<polygon id="0x18b8aa0" class="l71d20" points="20,77 60,77 60,243 20,243"/>
<polygon id="0x18b6020" class="l71d20" points="180,237 220,237 220,323 180,323"/>
<polygon id="0x17818f0" class="l71d20" points="260,157 300,157 300,243 260,243"/>
<polygon id="0x178be20" class="l71d20" points="340,-3 380,-3 380,83 340,83"/>
<polygon id="0x1882b20" class="l71d20" points="420,77 460,77 460,163 420,163"/>
<polygon id="0x18492b0" class="l71d20" points="420,237 460,237 460,323 420,323"/>
<polygon id="0x186ee30" class="l71d20" points="500,-3 540,-3 540,83 500,83"/>
<polygon id="0x18dc450" class="l71d20" points="500,237 540,237 540,403 500,403"/>
<polygon id="0x18fc080" class="l71d20" points="580,237 620,237 620,323 580,323"/>
<polygon id="0x186f660" class="l71d20" points="660,-3 700,-3 700,83 660,83"/>
<polygon id="0x18af910" class="l71d20" points="740,-3 780,-3 780,83 740,83"/>
<polygon id="0x164d330" class="l71d20" points="740,157 780,157 780,323 740,323"/>
<polygon id="0x16f5d30" class="l235d4" points="0,0 80,0 80,80 0,80"/>
</g>
</svg>