<?xml version="1.0" encoding="UTF-8"?>
<svg xmlns="http://www.w3.org/2000/svg" xmlns:xlink="http://www.w3.org/1999/xlink" width="1326.6" height="686.6" viewBox="-63.3 -623.3 1326.6 686.6">
<defs>
<style type="text/css">
.l235d4 {stroke: #0067A5; fill: #0067A5; fill-opacity: 0.5;}
.l71d20 {stroke: #B3446C; fill: #B3446C; fill-opacity: 0.5;}
</style>
</defs>
<rect x="-63.3" y="-623.3" width="1326.6" height="686.6" fill="#222222" stroke="none"/>
<g id="my_logo" transform="scale(1 -1)">
<polygon id="0xd66030" class="l71d20" points="-3,20 163,20 163,60 -3,60"/>
<polygon id="0xd77420" class="l71d20" points="237,20 403,20 403,60 237,60"/>
<polygon id="0xdc99f0" class="l71d20" points="557,20 723,20 723,60 557,60"/>
<polygon id="0xbed5e0" class="l71d20" points="877,20 1123,20 1123,60 877,60"/>
<polygon id="0xe6bca0" class="l71d20" points="77,100 163,100 163,140 77,140"/>
<polygon id="0xf25190" class="l71d20" points="477,100 883,100 883,140 477,140"/>
<polygon id="0xe9c410" class="l71d20" points="957,100 1123,100 1123,140 957,140"/>
<polygon id="0xe79eb0" class="l71d20" points="477,180 883,180 883,220 477,220"/>
<polygon id="0xe7ccb0" class="l71d20" points="1117,180 1203,180 1203,220 1117,220"/>
<polygon id="0xeb3520" class="l71d20" points="77,260 163,260 163,300 77,300"/>
<polygon id="0xe92210" class="l71d20" points="237,260 323,260 323,300 237,300"/>
<polygon id="0xe9a3e0" class="l71d20" points="397,260 563,260 563,300 397,300"/>
<polygon id="0xeea3a0" class="l71d20" points="717,260 883,260 883,300 717,300"/>
<polygon id="0xf28950" class="l71d20" points="1037,260 1123,260 1123,300 1037,300"/>
<polygon id="0xf4edb0" class="l71d20" points="-3,340 163,340 163,380 -3,380"/>
<polygon id="0xf0ea60" class="l71d20" points="317,340 483,340 483,380 317,380"/>
<polygon id="0xef9b80" class="l71d20" points="637,340 723,340 723,380 637,380"/>
<polygon id="0xe454a0" class="l71d20" points="877,340 1043,340 1043,380 877,380"/>
<polygon id="0xf11830" class="l71d20" points="-3,420 83,420 83,460 -3,460"/>
<polygon id="0xf30c40" class="l71d20" points="157,420 323,420 323,460 157,460"/>
<polygon id="0xea2f90" class="l71d20" points="477,420 563,420 563,460 477,460"/>
<polygon id="0xee4fc0" class="l71d20" points="637,420 723,420 723,460 637,460"/>
<polygon id="0xef5730" class="l71d20" points="797,420 963,420 963,460 797,460"/>
<polygon id="0xee8e00" class="l71d20" points="1037,420 1123,420 1123,460 1037,460"/>
<polygon id="0xc808f0" class="l71d20" points="77,500 163,500 163,540 77,540"/>
<polygon id="0xd28770" class="l71d20" points="397,500 483,500 483,540 397,540"/>
<polygon id="0xdb96e0" class="l71d20" points="557,500 643,500 643,540 557,540"/>
<polygon id="0xdb4c20" class="l71d20" points="717,500 803,500 803,540 717,540"/>
<polygon id="0xe54150" class="l71d20" points="877,500 1043,500 1043,540 877,540"/>
<polygon id="0xeb44a0" class="l71d20" points="1117,500 1203,500 1203,540 1117,540"/>
<polygon id="0xd00a60" class="l71d20" points="20,77 60,77 60,323 20,323"/>
<polygon id="0xd65c10" class="l71d20" points="20,477 60,477 60,563 20,563"/>
<polygon id="0xd899c0" class="l71d20" points="100,157 140,157 140,243 100,243"/>
<polygon id="0xf47600" class="l71d20" points="100,397 140,397 140,483 100,483"/>
<polygon id="0xf476c0" class="l71d20" points="180,-3 220,-3 220,403 180,403"/>
<polygon id="0xf47780" class="l71d20" points="180,477 220,477 220,563 180,563"/>
<polygon id="0xf47840" class="l71d20" points="260,77 300,77 300,243 260,243"/>
<polygon id="0xf47900" class="l71d20" points="260,317 300,317 300,403 260,403"/>
<polygon id="0xf479c0" class="l71d20" points="260,477 300,477 300,563 260,563"/>
<polygon id="0xf47a80" class="l71d20" points="340,77 380,77 380,323 340,323"/>
<polygon id="0xf47b40" class="l71d20" points="340,397 380,397 380,563 340,563"/>
<polygon id="0xf47c00" class="l71d20" points="420,-3 460,-3 460,243 420,243"/>
<polygon id="0xf47cc0" class="l71d20" points="420,397 460,397 460,483 420,483"/>
<polygon id="0xf47d80" class="l71d20" points="500,-3 540,-3 540,83 500,83"/>
<polygon id="0xf47e40" class="l71d20" points="500,317 540,317 540,403 500,403"/>
<polygon id="0xf47f00" class="l71d20" points="500,477 540,477 540,563 500,563"/>
<polygon id="0xf47fc0" class="l71d20" points="580,237 620,237 620,483 580,483"/>
<polygon id="0xf48080" class="l71d20" points="660,237 700,237 700,323 660,323"/>
<polygon id="0xf48140" class="l71d20" points="660,477 700,477 700,563 660,563"/>
<polygon id="0xf48200" class="l71d20" points="740,-3 780,-3 780,83 740,83"/>
<polygon id="0xf482c0" class="l71d20" points="740,317 780,317 780,483 740,483"/>
<polygon id="0xf48380" class="l71d20" points="820,-3 860,-3 860,83 820,83"/>
<polygon id="0xf48440" class="l71d20" points="820,317 860,317 860,403 820,403"/>
<polygon id="0xf48500" class="l71d20" points="820,477 860,477 860,563 820,563"/>
<polygon id="0xf485c0" class="l71d20" points="900,77 940,77 940,323 900,323"/>
<polygon id="0xf48680" class="l71d20" points="980,157 1020,157 1020,323 980,323"/>
<polygon id="0xf48740" class="l71d20" points="980,397 1020,397 1020,483 980,483"/>
<polygon id="0xf48800" class="l71d20" points="1060,157 1100,157 1100,243 1060,243"/>
<polygon id="0xf488c0" class="l71d20" points="1060,317 1100,317 1100,403 1060,403"/>
<polygon id="0xf48980" class="l71d20" points="1060,477 1100,477 1100,563 1060,563"/>
<polygon id="0xf48a40" class="l71d20" points="1140,-3 1180,-3 1180,163 1140,163"/>
<polygon id="0xf48b00" class="l71d20" points="1140,237 1180,237 1180,483 1140,483"/>
<polygon id="0xf48bc0" class="l235d4" points="0,0 1200,0 1200,560 0,560"/>
</g>
</svg>