<?xml version="1.0" encoding="UTF-8"?>
<svg xmlns="http://www.w3.org/2000/svg" xmlns:xlink="http://www.w3.org/1999/xlink" width="1138.5" height="778.5" viewBox="-51.75 -726.75 1138.5 778.5">
<defs>
<style type="text/css">
.l235d4 {stroke: #0067A5; fill: #0067A5; fill-opacity: 0.5;}
.l71d20 {stroke: #B3446C; fill: #B3446C; fill-opacity: 0.5;}
</style>
</defs>
<rect x="-51.75" y="-726.75" width="1138.5" height="778.5" fill="#222222" stroke="none"/>
<g id="my_logo" transform="scale(1 -1)">
<polygon id="0x13a1e30" class="l71d20" points="15.75,5 15.75,13.5 24.25,13.5 24.25,5 35,5 35,15.75 26.5,15.75 26.5,24.25 35,24.25 35,35 24.25,35 24.25,26.5 15.75,26.5 15.75,35 5,35 5,24.25 13.5,24.25 13.5,15.75 5,15.75 5,5"/>
<polygon id="0x13a2a20" class="l71d20" points="15.75,45 15.75,53.5 24.25,53.5 24.25,45 35,45 35,55.75 26.5,55.75 26.5,64.25 35,64.25 35,75 24.25,75 24.25,66.5 15.75,66.5 15.75,75 5,75 5,64.25 13.5,64.25 13.5,55.75 5,55.75 5,45"/>
<polygon id="0x13a2b10" class="l71d20" points="15.75,85 15.75,93.5 24.25,93.5 24.25,85 35,85 35,95.75 26.5,95.75 26.5,104.25 35,104.25 35,115 24.25,115 24.25,106.5 15.75,106.5 15.75,115 5,115 5,104.25 13.5,104.25 13.5,95.75 5,95.75 5,85"/>
<polygon id="0x13a2b80" class="l71d20" points="15.75,125 15.75,133.5 24.25,133.5 24.25,125 35,125 35,135.75 26.5,135.75 26.5,144.25 35,144.25 35,155 24.25,155 24.25,146.5 15.75,146.5 15.75,155 5,155 5,144.25 13.5,144.25 13.5,135.75 5,135.75 5,125"/>
<polygon id="0x13a2bf0" class="l71d20" points="15.75,165 15.75,173.5 24.25,173.5 24.25,165 35,165 35,175.75 26.5,175.75 26.5,184.25 35,184.25 35,195 24.25,195 24.25,186.5 15.75,186.5 15.75,195 5,195 5,184.25 13.5,184.25 13.5,175.75 5,175.75 5,165"/>
<polygon id="0x13a2c60" class="l71d20" points="15.75,205 15.75,213.5 24.25,213.5 24.25,205 35,205 35,215.75 26.5,215.75 26.5,224.25 35,224.25 35,235 24.25,235 24.25,226.5 15.75,226.5 15.75,235 5,235 5,224.25 13.5,224.25 13.5,215.75 5,215.75 5,205"/>
<polygon id="0x13a2d20" class="l71d20" points="15.75,245 15.75,253.5 24.25,253.5 24.25,245 35,245 35,255.75 26.5,255.75 26.5,264.25 35,264.25 35,275 24.25,275 24.25,266.5 15.75,266.5 15.75,275 5,275 5,264.25 13.5,264.25 13.5,255.75 5,255.75 5,245"/>
<polygon id="0x13a2d90" class="l71d20" points="15.75,285 15.75,293.5 24.25,293.5 24.25,285 35,285 35,295.75 26.5,295.75 26.5,304.25 35,304.25 35,315 24.25,315 24.25,306.5 15.75,306.5 15.75,315 5,315 5,304.25 13.5,304.25 13.5,295.75 5,295.75 5,285"/>
<polygon id="0x13a2e00" class="l71d20" points="55.75,5 55.75,13.5 64.25,13.5 64.25,5 75,5 75,15.75 66.5,15.75 66.5,24.25 75,24.25 75,35 64.25,35 64.25,26.5 55.75,26.5 55.75,35 45,35 45,24.25 53.5,24.25 53.5,15.75 45,15.75 45,5"/>
<polygon id="0x13a3050" class="l71d20" points="55.75,45 55.75,53.5 64.25,53.5 64.25,45 75,45 75,55.75 66.5,55.75 66.5,64.25 75,64.25 75,75 64.25,75 64.25,66.5 55.75,66.5 55.75,75 45,75 45,64.25 53.5,64.25 53.5,55.75 45,55.75 45,45"/>
<polygon id="0x13a3210" class="l71d20" points="55.75,85 55.75,93.5 64.25,93.5 64.25,85 75,85 75,95.75 66.5,95.75 66.5,104.25 75,104.25 75,115 64.25,115 64.25,106.5 55.75,106.5 55.75,115 45,115 45,104.25 53.5,104.25 53.5,95.75 45,95.75 45,85"/>
<polygon id="0x13a33d0" class="l71d20" points="55.75,205 55.75,213.5 64.25,213.5 64.25,205 75,205 75,215.75 66.5,215.75 66.5,224.25 75,224.25 75,235 64.25,235 64.25,226.5 55.75,226.5 55.75,235 45,235 45,224.25 53.5,224.25 53.5,215.75 45,215.75 45,205"/>
<polygon id="0x13a3590" class="l71d20" points="55.75,245 55.75,253.5 64.25,253.5 64.25,245 75,245 75,255.75 66.5,255.75 66.5,264.25 75,264.25 75,275 64.25,275 64.25,266.5 55.75,266.5 55.75,275 45,275 45,264.25 53.5,264.25 53.5,255.75 45,255.75 45,245"/>
<polygon id="0x13a3750" class="l71d20" points="55.75,285 55.75,293.5 64.25,293.5 64.25,285 75,285 75,295.75 66.5,295.75 66.5,304.25 75,304.25 75,315 64.25,315 64.25,306.5 55.75,306.5 55.75,315 45,315 45,304.25 53.5,304.25 53.5,295.75 45,295.75 45,285"/>
<polygon id="0x13a3910" class="l71d20" points="95.75,85 95.75,93.5 104.25,93.5 104.25,85 115,85 115,95.75 106.5,95.75 106.5,104.25 115,104.25 115,115 104.25,115 104.25,106.5 95.75,106.5 95.75,115 85,115 85,104.25 93.5,104.25 93.5,95.75 85,95.75 85,85"/>
<polygon id="0x13a3ad0" class="l71d20" points="95.75,125 95.75,133.5 104.25,133.5 104.25,125 115,125 115,135.75 106.5,135.75 106.5,144.25 115,144.25 115,155 104.25,155 104.25,146.5 95.75,146.5 95.75,155 85,155 85,144.25 93.5,144.25 93.5,135.75 85,135.75 85,125"/>
<polygon id="0x13a3c90" class="l71d20" points="95.75,165 95.75,173.5 104.25,173.5 104.25,165 115,165 115,175.75 106.5,175.75 106.5,184.25 115,184.25 115,195 104.25,195 104.25,186.5 95.75,186.5 95.75,195 85,195 85,184.25 93.5,184.25 93.5,175.75 85,175.75 85,165"/>
<polygon id="0x13a3e50" class="l71d20" points="95.75,205 95.75,213.5 104.25,213.5 104.25,205 115,205 115,215.75 106.5,215.75 106.5,224.25 115,224.25 115,235 104.25,235 104.25,226.5 95.75,226.5 95.75,235 85,235 85,224.25 93.5,224.25 93.5,215.75 85,215.75 85,205"/>
<polygon id="0x13a4010" class="l71d20" points="135.75,5 135.75,13.5 144.25,13.5 144.25,5 155,5 155,15.75 146.5,15.75 146.5,24.25 155,24.25 155,35 144.25,35 144.25,26.5 135.75,26.5 135.75,35 125,35 125,24.25 133.5,24.25 133.5,15.75 125,15.75 125,5"/>
<polygon id="0x13a41d0" class="l71d20" points="135.75,285 135.75,293.5 144.25,293.5 144.25,285 155,285 155,295.75 146.5,295.75 146.5,304.25 155,304.25 155,315 144.25,315 144.25,306.5 135.75,306.5 135.75,315 125,315 125,304.25 133.5,304.25 133.5,295.75 125,295.75 125,285"/>
<polygon id="0x13a4390" class="l71d20" points="175.75,5 175.75,13.5 184.25,13.5 184.25,5 195,5 195,15.75 186.5,15.75 186.5,24.25 195,24.25 195,35 184.25,35 184.25,26.5 175.75,26.5 175.75,35 165,35 165,24.25 173.5,24.25 173.5,15.75 165,15.75 165,5"/>
<polygon id="0x13a4550" class="l71d20" points="175.75,285 175.75,293.5 184.25,293.5 184.25,285 195,285 195,295.75 186.5,295.75 186.5,304.25 195,304.25 195,315 184.25,315 184.25,306.5 175.75,306.5 175.75,315 165,315 165,304.25 173.5,304.25 173.5,295.75 165,295.75 165,285"/>
<polygon id="0x13a4710" class="l71d20" points="215.75,85 215.75,93.5 224.25,93.5 224.25,85 235,85 235,95.75 226.5,95.75 226.5,104.25 235,104.25 235,115 224.25,115 224.25,106.5 215.75,106.5 215.75,115 205,115 205,104.25 213.5,104.25 213.5,95.75 205,95.75 205,85"/>
<polygon id="0x13a48d0" class="l71d20" points="215.75,125 215.75,133.5 224.25,133.5 224.25,125 235,125 235,135.75 226.5,135.75 226.5,144.25 235,144.25 235,155 224.25,155 224.25,146.5 215.75,146.5 215.75,155 205,155 205,144.25 213.5,144.25 213.5,135.75 205,135.75 205,125"/>
<polygon id="0x13a4a90" class="l71d20" points="215.75,165 215.75,173.5 224.25,173.5 224.25,165 235,165 235,175.75 226.5,175.75 226.5,184.25 235,184.25 235,195 224.25,195 224.25,186.5 215.75,186.5 215.75,195 205,195 205,184.25 213.5,184.25 213.5,175.75 205,175.75 205,165"/>
<polygon id="0x13a4c50" class="l71d20" points="215.75,205 215.75,213.5 224.25,213.5 224.25,205 235,205 235,215.75 226.5,215.75 226.5,224.25 235,224.25 235,235 224.25,235 224.25,226.5 215.75,226.5 215.75,235 205,235 205,224.25 213.5,224.25 213.5,215.75 205,215.75 205,205"/>
<polygon id="0x13a4e10" class="l71d20" points="255.75,5 255.75,13.5 264.25,13.5 264.25,5 275,5 275,15.75 266.5,15.75 266.5,24.25 275,24.25 275,35 264.25,35 264.25,26.5 255.75,26.5 255.75,35 245,35 245,24.25 253.5,24.25 253.5,15.75 245,15.75 245,5"/>
<polygon id="0x13a4fd0" class="l71d20" points="255.75,45 255.75,53.5 264.25,53.5 264.25,45 275,45 275,55.75 266.5,55.75 266.5,64.25 275,64.25 275,75 264.25,75 264.25,66.5 255.75,66.5 255.75,75 245,75 245,64.25 253.5,64.25 253.5,55.75 245,55.75 245,45"/>
<polygon id="0x13a5190" class="l71d20" points="255.75,85 255.75,93.5 264.25,93.5 264.25,85 275,85 275,95.75 266.5,95.75 266.5,104.25 275,104.25 275,115 264.25,115 264.25,106.5 255.75,106.5 255.75,115 245,115 245,104.25 253.5,104.25 253.5,95.75 245,95.75 245,85"/>
<polygon id="0x13a5350" class="l71d20" points="255.75,205 255.75,213.5 264.25,213.5 264.25,205 275,205 275,215.75 266.5,215.75 266.5,224.25 275,224.25 275,235 264.25,235 264.25,226.5 255.75,226.5 255.75,235 245,235 245,224.25 253.5,224.25 253.5,215.75 245,215.75 245,205"/>
<polygon id="0x13a5510" class="l71d20" points="255.75,245 255.75,253.5 264.25,253.5 264.25,245 275,245 275,255.75 266.5,255.75 266.5,264.25 275,264.25 275,275 264.25,275 264.25,266.5 255.75,266.5 255.75,275 245,275 245,264.25 253.5,264.25 253.5,255.75 245,255.75 245,245"/>
<polygon id="0x13a56d0" class="l71d20" points="255.75,285 255.75,293.5 264.25,293.5 264.25,285 275,285 275,295.75 266.5,295.75 266.5,304.25 275,304.25 275,315 264.25,315 264.25,306.5 255.75,306.5 255.75,315 245,315 245,304.25 253.5,304.25 253.5,295.75 245,295.75 245,285"/>
<polygon id="0x13a5890" class="l71d20" points="295.75,5 295.75,13.5 304.25,13.5 304.25,5 315,5 315,15.75 306.5,15.75 306.5,24.25 315,24.25 315,35 304.25,35 304.25,26.5 295.75,26.5 295.75,35 285,35 285,24.25 293.5,24.25 293.5,15.75 285,15.75 285,5"/>
<polygon id="0x13a5c60" class="l71d20" points="295.75,45 295.75,53.5 304.25,53.5 304.25,45 315,45 315,55.75 306.5,55.75 306.5,64.25 315,64.25 315,75 304.25,75 304.25,66.5 295.75,66.5 295.75,75 285,75 285,64.25 293.5,64.25 293.5,55.75 285,55.75 285,45"/>
<polygon id="0x13a5e20" class="l71d20" points="295.75,85 295.75,93.5 304.25,93.5 304.25,85 315,85 315,95.75 306.5,95.75 306.5,104.25 315,104.25 315,115 304.25,115 304.25,106.5 295.75,106.5 295.75,115 285,115 285,104.25 293.5,104.25 293.5,95.75 285,95.75 285,85"/>
<polygon id="0x13a5fe0" class="l71d20" points="295.75,125 295.75,133.5 304.25,133.5 304.25,125 315,125 315,135.75 306.5,135.75 306.5,144.25 315,144.25 315,155 304.25,155 304.25,146.5 295.75,146.5 295.75,155 285,155 285,144.25 293.5,144.25 293.5,135.75 285,135.75 285,125"/>
<polygon id="0x13a61a0" class="l71d20" points="295.75,165 295.75,173.5 304.25,173.5 304.25,165 315,165 315,175.75 306.5,175.75 306.5,184.25 315,184.25 315,195 304.25,195 304.25,186.5 295.75,186.5 295.75,195 285,195 285,184.25 293.5,184.25 293.5,175.75 285,175.75 285,165"/>
<polygon id="0x13a6360" class="l71d20" points="295.75,205 295.75,213.5 304.25,213.5 304.25,205 315,205 315,215.75 306.5,215.75 306.5,224.25 315,224.25 315,235 304.25,235 304.25,226.5 295.75,226.5 295.75,235 285,235 285,224.25 293.5,224.25 293.5,215.75 285,215.75 285,205"/>
<polygon id="0x13a6520" class="l71d20" points="295.75,245 295.75,253.5 304.25,253.5 304.25,245 315,245 315,255.75 306.5,255.75 306.5,264.25 315,264.25 315,275 304.25,275 304.25,266.5 295.75,266.5 295.75,275 285,275 285,264.25 293.5,264.25 293.5,255.75 285,255.75 285,245"/>
<polygon id="0x13a66e0" class="l71d20" points="295.75,285 295.75,293.5 304.25,293.5 304.25,285 315,285 315,295.75 306.5,295.75 306.5,304.25 315,304.25 315,315 304.25,315 304.25,306.5 295.75,306.5 295.75,315 285,315 285,304.25 293.5,304.25 293.5,295.75 285,295.75 285,285"/>
<polygon id="0x13a68a0" class="l71d20" points="55.75,405 55.75,413.5 64.25,413.5 64.25,405 75,405 75,415.75 66.5,415.75 66.5,424.25 75,424.25 75,435 64.25,435 64.25,426.5 55.75,426.5 55.75,435 45,435 45,424.25 53.5,424.25 53.5,415.75 45,415.75 45,405"/>
<polygon id="0x13a6a60" class="l71d20" points="55.75,445 55.75,453.5 64.25,453.5 64.25,445 75,445 75,455.75 66.5,455.75 66.5,464.25 75,464.25 75,475 64.25,475 64.25,466.5 55.75,466.5 55.75,475 45,475 45,464.25 53.5,464.25 53.5,455.75 45,455.75 45,445"/>
<polygon id="0x13a6c20" class="l71d20" points="55.75,565 55.75,573.5 64.25,573.5 64.25,565 75,565 75,575.75 66.5,575.75 66.5,584.25 75,584.25 75,595 64.25,595 64.25,586.5 55.75,586.5 55.75,595 45,595 45,584.25 53.5,584.25 53.5,575.75 45,575.75 45,565"/>
<polygon id="0x13a6de0" class="l71d20" points="55.75,605 55.75,613.5 64.25,613.5 64.25,605 75,605 75,615.75 66.5,615.75 66.5,624.25 75,624.25 75,635 64.25,635 64.25,626.5 55.75,626.5 55.75,635 45,635 45,624.25 53.5,624.25 53.5,615.75 45,615.75 45,605"/>
<polygon id="0x13a6fa0" class="l71d20" points="95.75,405 95.75,413.5 104.25,413.5 104.25,405 115,405 115,415.75 106.5,415.75 106.5,424.25 115,424.25 115,435 104.25,435 104.25,426.5 95.75,426.5 95.75,435 85,435 85,424.25 93.5,424.25 93.5,415.75 85,415.75 85,405"/>
<polygon id="0x13a7160" class="l71d20" points="95.75,445 95.75,453.5 104.25,453.5 104.25,445 115,445 115,455.75 106.5,455.75 106.5,464.25 115,464.25 115,475 104.25,475 104.25,466.5 95.75,466.5 95.75,475 85,475 85,464.25 93.5,464.25 93.5,455.75 85,455.75 85,445"/>
<polygon id="0x13a7320" class="l71d20" points="95.75,565 95.75,573.5 104.25,573.5 104.25,565 115,565 115,575.75 106.5,575.75 106.5,584.25 115,584.25 115,595 104.25,595 104.25,586.5 95.75,586.5 95.75,595 85,595 85,584.25 93.5,584.25 93.5,575.75 85,575.75 85,565"/>
<polygon id="0x13a74e0" class="l71d20" points="95.75,605 95.75,613.5 104.25,613.5 104.25,605 115,605 115,615.75 106.5,615.75 106.5,624.25 115,624.25 115,635 104.25,635 104.25,626.5 95.75,626.5 95.75,635 85,635 85,624.25 93.5,624.25 93.5,615.75 85,615.75 85,605"/>
<polygon id="0x13a76a0" class="l71d20" points="135.75,365 135.75,373.5 144.25,373.5 144.25,365 155,365 155,375.75 146.5,375.75 146.5,384.25 155,384.25 155,395 144.25,395 144.25,386.5 135.75,386.5 135.75,395 125,395 125,384.25 133.5,384.25 133.5,375.75 125,375.75 125,365"/>
<polygon id="0x13a7860" class="l71d20" points="135.75,405 135.75,413.5 144.25,413.5 144.25,405 155,405 155,415.75 146.5,415.75 146.5,424.25 155,424.25 155,435 144.25,435 144.25,426.5 135.75,426.5 135.75,435 125,435 125,424.25 133.5,424.25 133.5,415.75 125,415.75 125,405"/>
<polygon id="0x13a7a20" class="l71d20" points="135.75,485 135.75,493.5 144.25,493.5 144.25,485 155,485 155,495.75 146.5,495.75 146.5,504.25 155,504.25 155,515 144.25,515 144.25,506.5 135.75,506.5 135.75,515 125,515 125,504.25 133.5,504.25 133.5,495.75 125,495.75 125,485"/>
<polygon id="0x13a7be0" class="l71d20" points="135.75,525 135.75,533.5 144.25,533.5 144.25,525 155,525 155,535.75 146.5,535.75 146.5,544.25 155,544.25 155,555 144.25,555 144.25,546.5 135.75,546.5 135.75,555 125,555 125,544.25 133.5,544.25 133.5,535.75 125,535.75 125,525"/>
<polygon id="0x13a7da0" class="l71d20" points="135.75,605 135.75,613.5 144.25,613.5 144.25,605 155,605 155,615.75 146.5,615.75 146.5,624.25 155,624.25 155,635 144.25,635 144.25,626.5 135.75,626.5 135.75,635 125,635 125,624.25 133.5,624.25 133.5,615.75 125,615.75 125,605"/>
<polygon id="0x13a7f60" class="l71d20" points="135.75,645 135.75,653.5 144.25,653.5 144.25,645 155,645 155,655.75 146.5,655.75 146.5,664.25 155,664.25 155,675 144.25,675 144.25,666.5 135.75,666.5 135.75,675 125,675 125,664.25 133.5,664.25 133.5,655.75 125,655.75 125,645"/>
<polygon id="0x13a8120" class="l71d20" points="175.75,365 175.75,373.5 184.25,373.5 184.25,365 195,365 195,375.75 186.5,375.75 186.5,384.25 195,384.25 195,395 184.25,395 184.25,386.5 175.75,386.5 175.75,395 165,395 165,384.25 173.5,384.25 173.5,375.75 165,375.75 165,365"/>
<polygon id="0x13a82e0" class="l71d20" points="175.75,405 175.75,413.5 184.25,413.5 184.25,405 195,405 195,415.75 186.5,415.75 186.5,424.25 195,424.25 195,435 184.25,435 184.25,426.5 175.75,426.5 175.75,435 165,435 165,424.25 173.5,424.25 173.5,415.75 165,415.75 165,405"/>
<polygon id="0x13a84a0" class="l71d20" points="175.75,485 175.75,493.5 184.25,493.5 184.25,485 195,485 195,495.75 186.5,495.75 186.5,504.25 195,504.25 195,515 184.25,515 184.25,506.5 175.75,506.5 175.75,515 165,515 165,504.25 173.5,504.25 173.5,495.75 165,495.75 165,485"/>
<polygon id="0x13a8660" class="l71d20" points="175.75,525 175.75,533.5 184.25,533.5 184.25,525 195,525 195,535.75 186.5,535.75 186.5,544.25 195,544.25 195,555 184.25,555 184.25,546.5 175.75,546.5 175.75,555 165,555 165,544.25 173.5,544.25 173.5,535.75 165,535.75 165,525"/>
<polygon id="0x13a8820" class="l71d20" points="175.75,605 175.75,613.5 184.25,613.5 184.25,605 195,605 195,615.75 186.5,615.75 186.5,624.25 195,624.25 195,635 184.25,635 184.25,626.5 175.75,626.5 175.75,635 165,635 165,624.25 173.5,624.25 173.5,615.75 165,615.75 165,605"/>
<polygon id="0x13a8890" class="l71d20" points="175.75,645 175.75,653.5 184.25,653.5 184.25,645 195,645 195,655.75 186.5,655.75 186.5,664.25 195,664.25 195,675 184.25,675 184.25,666.5 175.75,666.5 175.75,675 165,675 165,664.25 173.5,664.25 173.5,655.75 165,655.75 165,645"/>
<polygon id="0x11ad8a0" class="l71d20" points="215.75,405 215.75,413.5 224.25,413.5 224.25,405 235,405 235,415.75 226.5,415.75 226.5,424.25 235,424.25 235,435 224.25,435 224.25,426.5 215.75,426.5 215.75,435 205,435 205,424.25 213.5,424.25 213.5,415.75 205,415.75 205,405"/>
<polygon id="0x1349690" class="l71d20" points="215.75,445 215.75,453.5 224.25,453.5 224.25,445 235,445 235,455.75 226.5,455.75 226.5,464.25 235,464.25 235,475 224.25,475 224.25,466.5 215.75,466.5 215.75,475 205,475 205,464.25 213.5,464.25 213.5,455.75 205,455.75 205,445"/>
<polygon id="0x1345400" class="l71d20" points="215.75,565 215.75,573.5 224.25,573.5 224.25,565 235,565 235,575.75 226.5,575.75 226.5,584.25 235,584.25 235,595 224.25,595 224.25,586.5 215.75,586.5 215.75,595 205,595 205,584.25 213.5,584.25 213.5,575.75 205,575.75 205,565"/>
<polygon id="0x12f89c0" class="l71d20" points="215.75,605 215.75,613.5 224.25,613.5 224.25,605 235,605 235,615.75 226.5,615.75 226.5,624.25 235,624.25 235,635 224.25,635 224.25,626.5 215.75,626.5 215.75,635 205,635 205,624.25 213.5,624.25 213.5,615.75 205,615.75 205,605"/>
<polygon id="0x134ee30" class="l71d20" points="255.75,405 255.75,413.5 264.25,413.5 264.25,405 275,405 275,415.75 266.5,415.75 266.5,424.25 275,424.25 275,435 264.25,435 264.25,426.5 255.75,426.5 255.75,435 245,435 245,424.25 253.5,424.25 253.5,415.75 245,415.75 245,405"/>
<polygon id="0x110d160" class="l71d20" points="255.75,445 255.75,453.5 264.25,453.5 264.25,445 275,445 275,455.75 266.5,455.75 266.5,464.25 275,464.25 275,475 264.25,475 264.25,466.5 255.75,466.5 255.75,475 245,475 245,464.25 253.5,464.25 253.5,455.75 245,455.75 245,445"/>
<polygon id="0x12dcf80" class="l71d20" points="255.75,565 255.75,573.5 264.25,573.5 264.25,565 275,565 275,575.75 266.5,575.75 266.5,584.25 275,584.25 275,595 264.25,595 264.25,586.5 255.75,586.5 255.75,595 245,595 245,584.25 253.5,584.25 253.5,575.75 245,575.75 245,565"/>
<polygon id="0x117e0c0" class="l71d20" points="255.75,605 255.75,613.5 264.25,613.5 264.25,605 275,605 275,615.75 266.5,615.75 266.5,624.25 275,624.25 275,635 264.25,635 264.25,626.5 255.75,626.5 255.75,635 245,635 245,624.25 253.5,624.25 253.5,615.75 245,615.75 245,605"/>
<polygon id="0x117e130" class="l71d20" points="375.75,45 375.75,53.5 384.25,53.5 384.25,45 395,45 395,55.75 386.5,55.75 386.5,64.25 395,64.25 395,75 384.25,75 384.25,66.5 375.75,66.5 375.75,75 365,75 365,64.25 373.5,64.25 373.5,55.75 365,55.75 365,45"/>
<polygon id="0x11bc290" class="l71d20" points="375.75,245 375.75,253.5 384.25,253.5 384.25,245 395,245 395,255.75 386.5,255.75 386.5,264.25 395,264.25 395,275 384.25,275 384.25,266.5 375.75,266.5 375.75,275 365,275 365,264.25 373.5,264.25 373.5,255.75 365,255.75 365,245"/>
<polygon id="0x11bc300" class="l71d20" points="415.75,5 415.75,13.5 424.25,13.5 424.25,5 435,5 435,15.75 426.5,15.75 426.5,24.25 435,24.25 435,35 424.25,35 424.25,26.5 415.75,26.5 415.75,35 405,35 405,24.25 413.5,24.25 413.5,15.75 405,15.75 405,5"/>
<polygon id="0x11c1b80" class="l71d20" points="415.75,85 415.75,93.5 424.25,93.5 424.25,85 435,85 435,95.75 426.5,95.75 426.5,104.25 435,104.25 435,115 424.25,115 424.25,106.5 415.75,106.5 415.75,115 405,115 405,104.25 413.5,104.25 413.5,95.75 405,95.75 405,85"/>
<polygon id="0x11c1bf0" class="l71d20" points="415.75,125 415.75,133.5 424.25,133.5 424.25,125 435,125 435,135.75 426.5,135.75 426.5,144.25 435,144.25 435,155 424.25,155 424.25,146.5 415.75,146.5 415.75,155 405,155 405,144.25 413.5,144.25 413.5,135.75 405,135.75 405,125"/>
<polygon id="0x11e5dc0" class="l71d20" points="415.75,165 415.75,173.5 424.25,173.5 424.25,165 435,165 435,175.75 426.5,175.75 426.5,184.25 435,184.25 435,195 424.25,195 424.25,186.5 415.75,186.5 415.75,195 405,195 405,184.25 413.5,184.25 413.5,175.75 405,175.75 405,165"/>
<polygon id="0x11e5e30" class="l71d20" points="415.75,205 415.75,213.5 424.25,213.5 424.25,205 435,205 435,215.75 426.5,215.75 426.5,224.25 435,224.25 435,235 424.25,235 424.25,226.5 415.75,226.5 415.75,235 405,235 405,224.25 413.5,224.25 413.5,215.75 405,215.75 405,205"/>
<polygon id="0x1213330" class="l71d20" points="415.75,285 415.75,293.5 424.25,293.5 424.25,285 435,285 435,295.75 426.5,295.75 426.5,304.25 435,304.25 435,315 424.25,315 424.25,306.5 415.75,306.5 415.75,315 405,315 405,304.25 413.5,304.25 413.5,295.75 405,295.75 405,285"/>
<polygon id="0x12133a0" class="l71d20" points="455.75,45 455.75,53.5 464.25,53.5 464.25,45 475,45 475,55.75 466.5,55.75 466.5,64.25 475,64.25 475,75 464.25,75 464.25,66.5 455.75,66.5 455.75,75 445,75 445,64.25 453.5,64.25 453.5,55.75 445,55.75 445,45"/>
<polygon id="0x12a2370" class="l71d20" points="455.75,245 455.75,253.5 464.25,253.5 464.25,245 475,245 475,255.75 466.5,255.75 466.5,264.25 475,264.25 475,275 464.25,275 464.25,266.5 455.75,266.5 455.75,275 445,275 445,264.25 453.5,264.25 453.5,255.75 445,255.75 445,245"/>
<polygon id="0x12a23e0" class="l71d20" points="495.75,45 495.75,53.5 504.25,53.5 504.25,45 515,45 515,55.75 506.5,55.75 506.5,64.25 515,64.25 515,75 504.25,75 504.25,66.5 495.75,66.5 495.75,75 485,75 485,64.25 493.5,64.25 493.5,55.75 485,55.75 485,45"/>
<polygon id="0x12cb3a0" class="l71d20" points="495.75,245 495.75,253.5 504.25,253.5 504.25,245 515,245 515,255.75 506.5,255.75 506.5,264.25 515,264.25 515,275 504.25,275 504.25,266.5 495.75,266.5 495.75,275 485,275 485,264.25 493.5,264.25 493.5,255.75 485,255.75 485,245"/>
<polygon id="0x12cb410" class="l71d20" points="535.75,45 535.75,53.5 544.25,53.5 544.25,45 555,45 555,55.75 546.5,55.75 546.5,64.25 555,64.25 555,75 544.25,75 544.25,66.5 535.75,66.5 535.75,75 525,75 525,64.25 533.5,64.25 533.5,55.75 525,55.75 525,45"/>
<polygon id="0x13174b0" class="l71d20" points="535.75,245 535.75,253.5 544.25,253.5 544.25,245 555,245 555,255.75 546.5,255.75 546.5,264.25 555,264.25 555,275 544.25,275 544.25,266.5 535.75,266.5 535.75,275 525,275 525,264.25 533.5,264.25 533.5,255.75 525,255.75 525,245"/>
<polygon id="0x1317520" class="l71d20" points="575.75,45 575.75,53.5 584.25,53.5 584.25,45 595,45 595,55.75 586.5,55.75 586.5,64.25 595,64.25 595,75 584.25,75 584.25,66.5 575.75,66.5 575.75,75 565,75 565,64.25 573.5,64.25 573.5,55.75 565,55.75 565,45"/>
<polygon id="0x133d550" class="l71d20" points="575.75,245 575.75,253.5 584.25,253.5 584.25,245 595,245 595,255.75 586.5,255.75 586.5,264.25 595,264.25 595,275 584.25,275 584.25,266.5 575.75,266.5 575.75,275 565,275 565,264.25 573.5,264.25 573.5,255.75 565,255.75 565,245"/>
<polygon id="0x133d5c0" class="l71d20" points="615.75,5 615.75,13.5 624.25,13.5 624.25,5 635,5 635,15.75 626.5,15.75 626.5,24.25 635,24.25 635,35 624.25,35 624.25,26.5 615.75,26.5 615.75,35 605,35 605,24.25 613.5,24.25 613.5,15.75 605,15.75 605,5"/>
<polygon id="0x1384020" class="l71d20" points="615.75,85 615.75,93.5 624.25,93.5 624.25,85 635,85 635,95.75 626.5,95.75 626.5,104.25 635,104.25 635,115 624.25,115 624.25,106.5 615.75,106.5 615.75,115 605,115 605,104.25 613.5,104.25 613.5,95.75 605,95.75 605,85"/>
<polygon id="0x1384090" class="l71d20" points="615.75,125 615.75,133.5 624.25,133.5 624.25,125 635,125 635,135.75 626.5,135.75 626.5,144.25 635,144.25 635,155 624.25,155 624.25,146.5 615.75,146.5 615.75,155 605,155 605,144.25 613.5,144.25 613.5,135.75 605,135.75 605,125"/>
<polygon id="0x13a2300" class="l71d20" points="615.75,165 615.75,173.5 624.25,173.5 624.25,165 635,165 635,175.75 626.5,175.75 626.5,184.25 635,184.25 635,195 624.25,195 624.25,186.5 615.75,186.5 615.75,195 605,195 605,184.25 613.5,184.25 613.5,175.75 605,175.75 605,165"/>
<polygon id="0x13a2370" class="l71d20" points="615.75,205 615.75,213.5 624.25,213.5 624.25,205 635,205 635,215.75 626.5,215.75 626.5,224.25 635,224.25 635,235 624.25,235 624.25,226.5 615.75,226.5 615.75,235 605,235 605,224.25 613.5,224.25 613.5,215.75 605,215.75 605,205"/>
<polygon id="0x13a2650" class="l71d20" points="615.75,285 615.75,293.5 624.25,293.5 624.25,285 635,285 635,295.75 626.5,295.75 626.5,304.25 635,304.25 635,315 624.25,315 624.25,306.5 615.75,306.5 615.75,315 605,315 605,304.25 613.5,304.25 613.5,295.75 605,295.75 605,285"/>
<polygon id="0x13a26c0" class="l71d20" points="655.75,45 655.75,53.5 664.25,53.5 664.25,45 675,45 675,55.75 666.5,55.75 666.5,64.25 675,64.25 675,75 664.25,75 664.25,66.5 655.75,66.5 655.75,75 645,75 645,64.25 653.5,64.25 653.5,55.75 645,55.75 645,45"/>
<polygon id="0x1175200" class="l71d20" points="655.75,245 655.75,253.5 664.25,253.5 664.25,245 675,245 675,255.75 666.5,255.75 666.5,264.25 675,264.25 675,275 664.25,275 664.25,266.5 655.75,266.5 655.75,275 645,275 645,264.25 653.5,264.25 653.5,255.75 645,255.75 645,245"/>
<polygon id="0x125ccb0" class="l71d20" points="375.75,485 375.75,493.5 384.25,493.5 384.25,485 395,485 395,495.75 386.5,495.75 386.5,504.25 395,504.25 395,515 384.25,515 384.25,506.5 375.75,506.5 375.75,515 365,515 365,504.25 373.5,504.25 373.5,495.75 365,495.75 365,485"/>
<polygon id="0x12afa00" class="l71d20" points="375.75,525 375.75,533.5 384.25,533.5 384.25,525 395,525 395,535.75 386.5,535.75 386.5,544.25 395,544.25 395,555 384.25,555 384.25,546.5 375.75,546.5 375.75,555 365,555 365,544.25 373.5,544.25 373.5,535.75 365,535.75 365,525"/>
<polygon id="0x12d5e50" class="l71d20" points="415.75,405 415.75,413.5 424.25,413.5 424.25,405 435,405 435,415.75 426.5,415.75 426.5,424.25 435,424.25 435,435 424.25,435 424.25,426.5 415.75,426.5 415.75,435 405,435 405,424.25 413.5,424.25 413.5,415.75 405,415.75 405,405"/>
<polygon id="0x12074c0" class="l71d20" points="415.75,445 415.75,453.5 424.25,453.5 424.25,445 435,445 435,455.75 426.5,455.75 426.5,464.25 435,464.25 435,475 424.25,475 424.25,466.5 415.75,466.5 415.75,475 405,475 405,464.25 413.5,464.25 413.5,455.75 405,455.75 405,445"/>
<polygon id="0x1143950" class="l71d20" points="415.75,485 415.75,493.5 424.25,493.5 424.25,485 435,485 435,495.75 426.5,495.75 426.5,504.25 435,504.25 435,515 424.25,515 424.25,506.5 415.75,506.5 415.75,515 405,515 405,504.25 413.5,504.25 413.5,495.75 405,495.75 405,485"/>
<polygon id="0x1222b70" class="l71d20" points="415.75,525 415.75,533.5 424.25,533.5 424.25,525 435,525 435,535.75 426.5,535.75 426.5,544.25 435,544.25 435,555 424.25,555 424.25,546.5 415.75,546.5 415.75,555 405,555 405,544.25 413.5,544.25 413.5,535.75 405,535.75 405,525"/>
<polygon id="0x1288ef0" class="l71d20" points="415.75,565 415.75,573.5 424.25,573.5 424.25,565 435,565 435,575.75 426.5,575.75 426.5,584.25 435,584.25 435,595 424.25,595 424.25,586.5 415.75,586.5 415.75,595 405,595 405,584.25 413.5,584.25 413.5,575.75 405,575.75 405,565"/>
<polygon id="0x12f02d0" class="l71d20" points="415.75,605 415.75,613.5 424.25,613.5 424.25,605 435,605 435,615.75 426.5,615.75 426.5,624.25 435,624.25 435,635 424.25,635 424.25,626.5 415.75,626.5 415.75,635 405,635 405,624.25 413.5,624.25 413.5,615.75 405,615.75 405,605"/>
<polygon id="0x12f7960" class="l71d20" points="455.75,405 455.75,413.5 464.25,413.5 464.25,405 475,405 475,415.75 466.5,415.75 466.5,424.25 475,424.25 475,435 464.25,435 464.25,426.5 455.75,426.5 455.75,435 445,435 445,424.25 453.5,424.25 453.5,415.75 445,415.75 445,405"/>
<polygon id="0x13a28b0" class="l71d20" points="455.75,605 455.75,613.5 464.25,613.5 464.25,605 475,605 475,615.75 466.5,615.75 466.5,624.25 475,624.25 475,635 464.25,635 464.25,626.5 455.75,626.5 455.75,635 445,635 445,624.25 453.5,624.25 453.5,615.75 445,615.75 445,605"/>
<polygon id="0x1140600" class="l71d20" points="495.75,485 495.75,493.5 504.25,493.5 504.25,485 515,485 515,495.75 506.5,495.75 506.5,504.25 515,504.25 515,515 504.25,515 504.25,506.5 495.75,506.5 495.75,515 485,515 485,504.25 493.5,504.25 493.5,495.75 485,495.75 485,485"/>
<polygon id="0x1141df0" class="l71d20" points="495.75,525 495.75,533.5 504.25,533.5 504.25,525 515,525 515,535.75 506.5,535.75 506.5,544.25 515,544.25 515,555 504.25,555 504.25,546.5 495.75,546.5 495.75,555 485,555 485,544.25 493.5,544.25 493.5,535.75 485,535.75 485,525"/>
<polygon id="0x11d7f30" class="l71d20" points="535.75,485 535.75,493.5 544.25,493.5 544.25,485 555,485 555,495.75 546.5,495.75 546.5,504.25 555,504.25 555,515 544.25,515 544.25,506.5 535.75,506.5 535.75,515 525,515 525,504.25 533.5,504.25 533.5,495.75 525,495.75 525,485"/>
<polygon id="0x11e6bb0" class="l71d20" points="535.75,525 535.75,533.5 544.25,533.5 544.25,525 555,525 555,535.75 546.5,535.75 546.5,544.25 555,544.25 555,555 544.25,555 544.25,546.5 535.75,546.5 535.75,555 525,555 525,544.25 533.5,544.25 533.5,535.75 525,535.75 525,525"/>
<polygon id="0x120c410" class="l71d20" points="575.75,405 575.75,413.5 584.25,413.5 584.25,405 595,405 595,415.75 586.5,415.75 586.5,424.25 595,424.25 595,435 584.25,435 584.25,426.5 575.75,426.5 575.75,435 565,435 565,424.25 573.5,424.25 573.5,415.75 565,415.75 565,405"/>
<polygon id="0x129d5a0" class="l71d20" points="575.75,605 575.75,613.5 584.25,613.5 584.25,605 595,605 595,615.75 586.5,615.75 586.5,624.25 595,624.25 595,635 584.25,635 584.25,626.5 575.75,626.5 575.75,635 565,635 565,624.25 573.5,624.25 573.5,615.75 565,615.75 565,605"/>
<polygon id="0x117d350" class="l71d20" points="615.75,405 615.75,413.5 624.25,413.5 624.25,405 635,405 635,415.75 626.5,415.75 626.5,424.25 635,424.25 635,435 624.25,435 624.25,426.5 615.75,426.5 615.75,435 605,435 605,424.25 613.5,424.25 613.5,415.75 605,415.75 605,405"/>
<polygon id="0x11f4040" class="l71d20" points="615.75,445 615.75,453.5 624.25,453.5 624.25,445 635,445 635,455.75 626.5,455.75 626.5,464.25 635,464.25 635,475 624.25,475 624.25,466.5 615.75,466.5 615.75,475 605,475 605,464.25 613.5,464.25 613.5,455.75 605,455.75 605,445"/>
<polygon id="0x120dd90" class="l71d20" points="615.75,485 615.75,493.5 624.25,493.5 624.25,485 635,485 635,495.75 626.5,495.75 626.5,504.25 635,504.25 635,515 624.25,515 624.25,506.5 615.75,506.5 615.75,515 605,515 605,504.25 613.5,504.25 613.5,495.75 605,495.75 605,485"/>
<polygon id="0x110d880" class="l71d20" points="615.75,525 615.75,533.5 624.25,533.5 624.25,525 635,525 635,535.75 626.5,535.75 626.5,544.25 635,544.25 635,555 624.25,555 624.25,546.5 615.75,546.5 615.75,555 605,555 605,544.25 613.5,544.25 613.5,535.75 605,535.75 605,525"/>
<polygon id="0x1334790" class="l71d20" points="615.75,565 615.75,573.5 624.25,573.5 624.25,565 635,565 635,575.75 626.5,575.75 626.5,584.25 635,584.25 635,595 624.25,595 624.25,586.5 615.75,586.5 615.75,595 605,595 605,584.25 613.5,584.25 613.5,575.75 605,575.75 605,565"/>
<polygon id="0x12ed120" class="l71d20" points="615.75,605 615.75,613.5 624.25,613.5 624.25,605 635,605 635,615.75 626.5,615.75 626.5,624.25 635,624.25 635,635 624.25,635 624.25,626.5 615.75,626.5 615.75,635 605,635 605,624.25 613.5,624.25 613.5,615.75 605,615.75 605,605"/>
<polygon id="0x138ad00" class="l71d20" points="655.75,485 655.75,493.5 664.25,493.5 664.25,485 675,485 675,495.75 666.5,495.75 666.5,504.25 675,504.25 675,515 664.25,515 664.25,506.5 655.75,506.5 655.75,515 645,515 645,504.25 653.5,504.25 653.5,495.75 645,495.75 645,485"/>
<polygon id="0x136f9d0" class="l71d20" points="655.75,525 655.75,533.5 664.25,533.5 664.25,525 675,525 675,535.75 666.5,535.75 666.5,544.25 675,544.25 675,555 664.25,555 664.25,546.5 655.75,546.5 655.75,555 645,555 645,544.25 653.5,544.25 653.5,535.75 645,535.75 645,525"/>
<polygon id="0x1154900" class="l71d20" points="735.75,85 735.75,93.5 744.25,93.5 744.25,85 755,85 755,95.75 746.5,95.75 746.5,104.25 755,104.25 755,115 744.25,115 744.25,106.5 735.75,106.5 735.75,115 725,115 725,104.25 733.5,104.25 733.5,95.75 725,95.75 725,85"/>
<polygon id="0x11bea40" class="l71d20" points="735.75,205 735.75,213.5 744.25,213.5 744.25,205 755,205 755,215.75 746.5,215.75 746.5,224.25 755,224.25 755,235 744.25,235 744.25,226.5 735.75,226.5 735.75,235 725,235 725,224.25 733.5,224.25 733.5,215.75 725,215.75 725,205"/>
<polygon id="0x12854c0" class="l71d20" points="775.75,5 775.75,13.5 784.25,13.5 784.25,5 795,5 795,15.75 786.5,15.75 786.5,24.25 795,24.25 795,35 784.25,35 784.25,26.5 775.75,26.5 775.75,35 765,35 765,24.25 773.5,24.25 773.5,15.75 765,15.75 765,5"/>
<polygon id="0x128c060" class="l71d20" points="775.75,85 775.75,93.5 784.25,93.5 784.25,85 795,85 795,95.75 786.5,95.75 786.5,104.25 795,104.25 795,115 784.25,115 784.25,106.5 775.75,106.5 775.75,115 765,115 765,104.25 773.5,104.25 773.5,95.75 765,95.75 765,85"/>
<polygon id="0x1346370" class="l71d20" points="775.75,125 775.75,133.5 784.25,133.5 784.25,125 795,125 795,135.75 786.5,135.75 786.5,144.25 795,144.25 795,155 784.25,155 784.25,146.5 775.75,146.5 775.75,155 765,155 765,144.25 773.5,144.25 773.5,135.75 765,135.75 765,125"/>
<polygon id="0x1308c50" class="l71d20" points="775.75,165 775.75,173.5 784.25,173.5 784.25,165 795,165 795,175.75 786.5,175.75 786.5,184.25 795,184.25 795,195 784.25,195 784.25,186.5 775.75,186.5 775.75,195 765,195 765,184.25 773.5,184.25 773.5,175.75 765,175.75 765,165"/>
<polygon id="0x13a2410" class="l71d20" points="775.75,205 775.75,213.5 784.25,213.5 784.25,205 795,205 795,215.75 786.5,215.75 786.5,224.25 795,224.25 795,235 784.25,235 784.25,226.5 775.75,226.5 775.75,235 765,235 765,224.25 773.5,224.25 773.5,215.75 765,215.75 765,205"/>
<polygon id="0x13a2530" class="l71d20" points="775.75,285 775.75,293.5 784.25,293.5 784.25,285 795,285 795,295.75 786.5,295.75 786.5,304.25 795,304.25 795,315 784.25,315 784.25,306.5 775.75,306.5 775.75,315 765,315 765,304.25 773.5,304.25 773.5,295.75 765,295.75 765,285"/>
<polygon id="0x12ce070" class="l71d20" points="815.75,85 815.75,93.5 824.25,93.5 824.25,85 835,85 835,95.75 826.5,95.75 826.5,104.25 835,104.25 835,115 824.25,115 824.25,106.5 815.75,106.5 815.75,115 805,115 805,104.25 813.5,104.25 813.5,95.75 805,95.75 805,85"/>
<polygon id="0x12ce0e0" class="l71d20" points="815.75,125 815.75,133.5 824.25,133.5 824.25,125 835,125 835,135.75 826.5,135.75 826.5,144.25 835,144.25 835,155 824.25,155 824.25,146.5 815.75,146.5 815.75,155 805,155 805,144.25 813.5,144.25 813.5,135.75 805,135.75 805,125"/>
<polygon id="0x12d0ae0" class="l71d20" points="815.75,165 815.75,173.5 824.25,173.5 824.25,165 835,165 835,175.75 826.5,175.75 826.5,184.25 835,184.25 835,195 824.25,195 824.25,186.5 815.75,186.5 815.75,195 805,195 805,184.25 813.5,184.25 813.5,175.75 805,175.75 805,165"/>
<polygon id="0x12d0b50" class="l71d20" points="815.75,205 815.75,213.5 824.25,213.5 824.25,205 835,205 835,215.75 826.5,215.75 826.5,224.25 835,224.25 835,235 824.25,235 824.25,226.5 815.75,226.5 815.75,235 805,235 805,224.25 813.5,224.25 813.5,215.75 805,215.75 805,205"/>
<polygon id="0x12e97d0" class="l71d20" points="855.75,125 855.75,133.5 864.25,133.5 864.25,125 875,125 875,135.75 866.5,135.75 866.5,144.25 875,144.25 875,155 864.25,155 864.25,146.5 855.75,146.5 855.75,155 845,155 845,144.25 853.5,144.25 853.5,135.75 845,135.75 845,125"/>
<polygon id="0x1282310" class="l71d20" points="855.75,165 855.75,173.5 864.25,173.5 864.25,165 875,165 875,175.75 866.5,175.75 866.5,184.25 875,184.25 875,195 864.25,195 864.25,186.5 855.75,186.5 855.75,195 845,195 845,184.25 853.5,184.25 853.5,175.75 845,175.75 845,165"/>
<polygon id="0x13a2480" class="l71d20" points="895.75,125 895.75,133.5 904.25,133.5 904.25,125 915,125 915,135.75 906.5,135.75 906.5,144.25 915,144.25 915,155 904.25,155 904.25,146.5 895.75,146.5 895.75,155 885,155 885,144.25 893.5,144.25 893.5,135.75 885,135.75 885,125"/>
<polygon id="0x13463e0" class="l71d20" points="895.75,165 895.75,173.5 904.25,173.5 904.25,165 915,165 915,175.75 906.5,175.75 906.5,184.25 915,184.25 915,195 904.25,195 904.25,186.5 895.75,186.5 895.75,195 885,195 885,184.25 893.5,184.25 893.5,175.75 885,175.75 885,165"/>
<polygon id="0x1285530" class="l71d20" points="935.75,85 935.75,93.5 944.25,93.5 944.25,85 955,85 955,95.75 946.5,95.75 946.5,104.25 955,104.25 955,115 944.25,115 944.25,106.5 935.75,106.5 935.75,115 925,115 925,104.25 933.5,104.25 933.5,95.75 925,95.75 925,85"/>
<polygon id="0x1154970" class="l71d20" points="935.75,125 935.75,133.5 944.25,133.5 944.25,125 955,125 955,135.75 946.5,135.75 946.5,144.25 955,144.25 955,155 944.25,155 944.25,146.5 935.75,146.5 935.75,155 925,155 925,144.25 933.5,144.25 933.5,135.75 925,135.75 925,125"/>
<polygon id="0x12df950" class="l71d20" points="935.75,165 935.75,173.5 944.25,173.5 944.25,165 955,165 955,175.75 946.5,175.75 946.5,184.25 955,184.25 955,195 944.25,195 944.25,186.5 935.75,186.5 935.75,195 925,195 925,184.25 933.5,184.25 933.5,175.75 925,175.75 925,165"/>
<polygon id="0x12e9840" class="l71d20" points="935.75,205 935.75,213.5 944.25,213.5 944.25,205 955,205 955,215.75 946.5,215.75 946.5,224.25 955,224.25 955,235 944.25,235 944.25,226.5 935.75,226.5 935.75,235 925,235 925,224.25 933.5,224.25 933.5,215.75 925,215.75 925,205"/>
<polygon id="0x116c350" class="l71d20" points="975.75,5 975.75,13.5 984.25,13.5 984.25,5 995,5 995,15.75 986.5,15.75 986.5,24.25 995,24.25 995,35 984.25,35 984.25,26.5 975.75,26.5 975.75,35 965,35 965,24.25 973.5,24.25 973.5,15.75 965,15.75 965,5"/>
<polygon id="0x134ffe0" class="l71d20" points="975.75,85 975.75,93.5 984.25,93.5 984.25,85 995,85 995,95.75 986.5,95.75 986.5,104.25 995,104.25 995,115 984.25,115 984.25,106.5 975.75,106.5 975.75,115 965,115 965,104.25 973.5,104.25 973.5,95.75 965,95.75 965,85"/>
<polygon id="0x1353410" class="l71d20" points="975.75,125 975.75,133.5 984.25,133.5 984.25,125 995,125 995,135.75 986.5,135.75 986.5,144.25 995,144.25 995,155 984.25,155 984.25,146.5 975.75,146.5 975.75,155 965,155 965,144.25 973.5,144.25 973.5,135.75 965,135.75 965,125"/>
<polygon id="0x1178b70" class="l71d20" points="975.75,165 975.75,173.5 984.25,173.5 984.25,165 995,165 995,175.75 986.5,175.75 986.5,184.25 995,184.25 995,195 984.25,195 984.25,186.5 975.75,186.5 975.75,195 965,195 965,184.25 973.5,184.25 973.5,175.75 965,175.75 965,165"/>
<polygon id="0x100a710" class="l71d20" points="975.75,205 975.75,213.5 984.25,213.5 984.25,205 995,205 995,215.75 986.5,215.75 986.5,224.25 995,224.25 995,235 984.25,235 984.25,226.5 975.75,226.5 975.75,235 965,235 965,224.25 973.5,224.25 973.5,215.75 965,215.75 965,205"/>
<polygon id="0x11f0860" class="l71d20" points="975.75,285 975.75,293.5 984.25,293.5 984.25,285 995,285 995,295.75 986.5,295.75 986.5,304.25 995,304.25 995,315 984.25,315 984.25,306.5 975.75,306.5 975.75,315 965,315 965,304.25 973.5,304.25 973.5,295.75 965,295.75 965,285"/>
<polygon id="0x11f08d0" class="l71d20" points="1015.75,85 1015.75,93.5 1024.25,93.5 1024.25,85 1035,85 1035,95.75 1026.5,95.75 1026.5,104.25 1035,104.25 1035,115 1024.25,115 1024.25,106.5 1015.75,106.5 1015.75,115 1005,115 1005,104.25 1013.5,104.25 1013.5,95.75 1005,95.75 1005,85"/>
<polygon id="0x127e670" class="l71d20" points="1015.75,205 1015.75,213.5 1024.25,213.5 1024.25,205 1035,205 1035,215.75 1026.5,215.75 1026.5,224.25 1035,224.25 1035,235 1024.25,235 1024.25,226.5 1015.75,226.5 1015.75,235 1005,235 1005,224.25 1013.5,224.25 1013.5,215.75 1005,215.75 1005,205"/>
<polygon id="0x127e6e0" class="l71d20" points="735.75,365 735.75,373.5 744.25,373.5 744.25,365 755,365 755,375.75 746.5,375.75 746.5,384.25 755,384.25 755,395 744.25,395 744.25,386.5 735.75,386.5 735.75,395 725,395 725,384.25 733.5,384.25 733.5,375.75 725,375.75 725,365"/>
<polygon id="0x12e88b0" class="l71d20" points="735.75,405 735.75,413.5 744.25,413.5 744.25,405 755,405 755,415.75 746.5,415.75 746.5,424.25 755,424.25 755,435 744.25,435 744.25,426.5 735.75,426.5 735.75,435 725,435 725,424.25 733.5,424.25 733.5,415.75 725,415.75 725,405"/>
<polygon id="0x12e8920" class="l71d20" points="735.75,445 735.75,453.5 744.25,453.5 744.25,445 755,445 755,455.75 746.5,455.75 746.5,464.25 755,464.25 755,475 744.25,475 744.25,466.5 735.75,466.5 735.75,475 725,475 725,464.25 733.5,464.25 733.5,455.75 725,455.75 725,445"/>
<polygon id="0x134e450" class="l71d20" points="735.75,565 735.75,573.5 744.25,573.5 744.25,565 755,565 755,575.75 746.5,575.75 746.5,584.25 755,584.25 755,595 744.25,595 744.25,586.5 735.75,586.5 735.75,595 725,595 725,584.25 733.5,584.25 733.5,575.75 725,575.75 725,565"/>
<polygon id="0x134e4c0" class="l71d20" points="735.75,605 735.75,613.5 744.25,613.5 744.25,605 755,605 755,615.75 746.5,615.75 746.5,624.25 755,624.25 755,635 744.25,635 744.25,626.5 735.75,626.5 735.75,635 725,635 725,624.25 733.5,624.25 733.5,615.75 725,615.75 725,605"/>
<polygon id="0x1383730" class="l71d20" points="735.75,645 735.75,653.5 744.25,653.5 744.25,645 755,645 755,655.75 746.5,655.75 746.5,664.25 755,664.25 755,675 744.25,675 744.25,666.5 735.75,666.5 735.75,675 725,675 725,664.25 733.5,664.25 733.5,655.75 725,655.75 725,645"/>
<polygon id="0x13837a0" class="l71d20" points="775.75,365 775.75,373.5 784.25,373.5 784.25,365 795,365 795,375.75 786.5,375.75 786.5,384.25 795,384.25 795,395 784.25,395 784.25,386.5 775.75,386.5 775.75,395 765,395 765,384.25 773.5,384.25 773.5,375.75 765,375.75 765,365"/>
<polygon id="0x10ad8b0" class="l71d20" points="775.75,405 775.75,413.5 784.25,413.5 784.25,405 795,405 795,415.75 786.5,415.75 786.5,424.25 795,424.25 795,435 784.25,435 784.25,426.5 775.75,426.5 775.75,435 765,435 765,424.25 773.5,424.25 773.5,415.75 765,415.75 765,405"/>
<polygon id="0x10ad920" class="l71d20" points="775.75,485 775.75,493.5 784.25,493.5 784.25,485 795,485 795,495.75 786.5,495.75 786.5,504.25 795,504.25 795,515 784.25,515 784.25,506.5 775.75,506.5 775.75,515 765,515 765,504.25 773.5,504.25 773.5,495.75 765,495.75 765,485"/>
<polygon id="0x10b82e0" class="l71d20" points="775.75,525 775.75,533.5 784.25,533.5 784.25,525 795,525 795,535.75 786.5,535.75 786.5,544.25 795,544.25 795,555 784.25,555 784.25,546.5 775.75,546.5 775.75,555 765,555 765,544.25 773.5,544.25 773.5,535.75 765,535.75 765,525"/>
<polygon id="0x10b8350" class="l71d20" points="775.75,605 775.75,613.5 784.25,613.5 784.25,605 795,605 795,615.75 786.5,615.75 786.5,624.25 795,624.25 795,635 784.25,635 784.25,626.5 775.75,626.5 775.75,635 765,635 765,624.25 773.5,624.25 773.5,615.75 765,615.75 765,605"/>
<polygon id="0x13a9c20" class="l71d20" points="775.75,645 775.75,653.5 784.25,653.5 784.25,645 795,645 795,655.75 786.5,655.75 786.5,664.25 795,664.25 795,675 784.25,675 784.25,666.5 775.75,666.5 775.75,675 765,675 765,664.25 773.5,664.25 773.5,655.75 765,655.75 765,645"/>
<polygon id="0x13a9c90" class="l71d20" points="815.75,405 815.75,413.5 824.25,413.5 824.25,405 835,405 835,415.75 826.5,415.75 826.5,424.25 835,424.25 835,435 824.25,435 824.25,426.5 815.75,426.5 815.75,435 805,435 805,424.25 813.5,424.25 813.5,415.75 805,415.75 805,405"/>
<polygon id="0x114fed0" class="l71d20" points="815.75,485 815.75,493.5 824.25,493.5 824.25,485 835,485 835,495.75 826.5,495.75 826.5,504.25 835,504.25 835,515 824.25,515 824.25,506.5 815.75,506.5 815.75,515 805,515 805,504.25 813.5,504.25 813.5,495.75 805,495.75 805,485"/>
<polygon id="0x114ff40" class="l71d20" points="815.75,525 815.75,533.5 824.25,533.5 824.25,525 835,525 835,535.75 826.5,535.75 826.5,544.25 835,544.25 835,555 824.25,555 824.25,546.5 815.75,546.5 815.75,555 805,555 805,544.25 813.5,544.25 813.5,535.75 805,535.75 805,525"/>
<polygon id="0x1149b10" class="l71d20" points="815.75,605 815.75,613.5 824.25,613.5 824.25,605 835,605 835,615.75 826.5,615.75 826.5,624.25 835,624.25 835,635 824.25,635 824.25,626.5 815.75,626.5 815.75,635 805,635 805,624.25 813.5,624.25 813.5,615.75 805,615.75 805,605"/>
<polygon id="0x1149b80" class="l71d20" points="855.75,485 855.75,493.5 864.25,493.5 864.25,485 875,485 875,495.75 866.5,495.75 866.5,504.25 875,504.25 875,515 864.25,515 864.25,506.5 855.75,506.5 855.75,515 845,515 845,504.25 853.5,504.25 853.5,495.75 845,495.75 845,485"/>
<polygon id="0x116e500" class="l71d20" points="855.75,525 855.75,533.5 864.25,533.5 864.25,525 875,525 875,535.75 866.5,535.75 866.5,544.25 875,544.25 875,555 864.25,555 864.25,546.5 855.75,546.5 855.75,555 845,555 845,544.25 853.5,544.25 853.5,535.75 845,535.75 845,525"/>
<polygon id="0x116e570" class="l71d20" points="895.75,485 895.75,493.5 904.25,493.5 904.25,485 915,485 915,495.75 906.5,495.75 906.5,504.25 915,504.25 915,515 904.25,515 904.25,506.5 895.75,506.5 895.75,515 885,515 885,504.25 893.5,504.25 893.5,495.75 885,495.75 885,485"/>
<polygon id="0x1186580" class="l71d20" points="895.75,525 895.75,533.5 904.25,533.5 904.25,525 915,525 915,535.75 906.5,535.75 906.5,544.25 915,544.25 915,555 904.25,555 904.25,546.5 895.75,546.5 895.75,555 885,555 885,544.25 893.5,544.25 893.5,535.75 885,535.75 885,525"/>
<polygon id="0x11865f0" class="l71d20" points="935.75,405 935.75,413.5 944.25,413.5 944.25,405 955,405 955,415.75 946.5,415.75 946.5,424.25 955,424.25 955,435 944.25,435 944.25,426.5 935.75,426.5 935.75,435 925,435 925,424.25 933.5,424.25 933.5,415.75 925,415.75 925,405"/>
<polygon id="0x11a7410" class="l71d20" points="935.75,485 935.75,493.5 944.25,493.5 944.25,485 955,485 955,495.75 946.5,495.75 946.5,504.25 955,504.25 955,515 944.25,515 944.25,506.5 935.75,506.5 935.75,515 925,515 925,504.25 933.5,504.25 933.5,495.75 925,495.75 925,485"/>
<polygon id="0x11a7480" class="l71d20" points="935.75,525 935.75,533.5 944.25,533.5 944.25,525 955,525 955,535.75 946.5,535.75 946.5,544.25 955,544.25 955,555 944.25,555 944.25,546.5 935.75,546.5 935.75,555 925,555 925,544.25 933.5,544.25 933.5,535.75 925,535.75 925,525"/>
<polygon id="0x11af4d0" class="l71d20" points="935.75,605 935.75,613.5 944.25,613.5 944.25,605 955,605 955,615.75 946.5,615.75 946.5,624.25 955,624.25 955,635 944.25,635 944.25,626.5 935.75,626.5 935.75,635 925,635 925,624.25 933.5,624.25 933.5,615.75 925,615.75 925,605"/>
<polygon id="0x11af540" class="l71d20" points="975.75,365 975.75,373.5 984.25,373.5 984.25,365 995,365 995,375.75 986.5,375.75 986.5,384.25 995,384.25 995,395 984.25,395 984.25,386.5 975.75,386.5 975.75,395 965,395 965,384.25 973.5,384.25 973.5,375.75 965,375.75 965,365"/>
<polygon id="0x1214b60" class="l71d20" points="975.75,405 975.75,413.5 984.25,413.5 984.25,405 995,405 995,415.75 986.5,415.75 986.5,424.25 995,424.25 995,435 984.25,435 984.25,426.5 975.75,426.5 975.75,435 965,435 965,424.25 973.5,424.25 973.5,415.75 965,415.75 965,405"/>
<polygon id="0x1214bd0" class="l71d20" points="975.75,485 975.75,493.5 984.25,493.5 984.25,485 995,485 995,495.75 986.5,495.75 986.5,504.25 995,504.25 995,515 984.25,515 984.25,506.5 975.75,506.5 975.75,515 965,515 965,504.25 973.5,504.25 973.5,495.75 965,495.75 965,485"/>
<polygon id="0x1202ec0" class="l71d20" points="975.75,525 975.75,533.5 984.25,533.5 984.25,525 995,525 995,535.75 986.5,535.75 986.5,544.25 995,544.25 995,555 984.25,555 984.25,546.5 975.75,546.5 975.75,555 965,555 965,544.25 973.5,544.25 973.5,535.75 965,535.75 965,525"/>
<polygon id="0x1202f30" class="l71d20" points="975.75,605 975.75,613.5 984.25,613.5 984.25,605 995,605 995,615.75 986.5,615.75 986.5,624.25 995,624.25 995,635 984.25,635 984.25,626.5 975.75,626.5 975.75,635 965,635 965,624.25 973.5,624.25 973.5,615.75 965,615.75 965,605"/>
<polygon id="0x11ee540" class="l71d20" points="975.75,645 975.75,653.5 984.25,653.5 984.25,645 995,645 995,655.75 986.5,655.75 986.5,664.25 995,664.25 995,675 984.25,675 984.25,666.5 975.75,666.5 975.75,675 965,675 965,664.25 973.5,664.25 973.5,655.75 965,655.75 965,645"/>
<polygon id="0x11ee5b0" class="l71d20" points="1015.75,365 1015.75,373.5 1024.25,373.5 1024.25,365 1035,365 1035,375.75 1026.5,375.75 1026.5,384.25 1035,384.25 1035,395 1024.25,395 1024.25,386.5 1015.75,386.5 1015.75,395 1005,395 1005,384.25 1013.5,384.25 1013.5,375.75 1005,375.75 1005,365"/>
<polygon id="0x12bdc60" class="l71d20" points="1015.75,405 1015.75,413.5 1024.25,413.5 1024.25,405 1035,405 1035,415.75 1026.5,415.75 1026.5,424.25 1035,424.25 1035,435 1024.25,435 1024.25,426.5 1015.75,426.5 1015.75,435 1005,435 1005,424.25 1013.5,424.25 1013.5,415.75 1005,415.75 1005,405"/>
<polygon id="0x12bdcd0" class="l71d20" points="1015.75,445 1015.75,453.5 1024.25,453.5 1024.25,445 1035,445 1035,455.75 1026.5,455.75 1026.5,464.25 1035,464.25 1035,475 1024.25,475 1024.25,466.5 1015.75,466.5 1015.75,475 1005,475 1005,464.25 1013.5,464.25 1013.5,455.75 1005,455.75 1005,445"/>
<polygon id="0x1330720" class="l71d20" points="1015.75,565 1015.75,573.5 1024.25,573.5 1024.25,565 1035,565 1035,575.75 1026.5,575.75 1026.5,584.25 1035,584.25 1035,595 1024.25,595 1024.25,586.5 1015.75,586.5 1015.75,595 1005,595 1005,584.25 1013.5,584.25 1013.5,575.75 1005,575.75 1005,565"/>
<polygon id="0x1330790" class="l71d20" points="1015.75,605 1015.75,613.5 1024.25,613.5 1024.25,605 1035,605 1035,615.75 1026.5,615.75 1026.5,624.25 1035,624.25 1035,635 1024.25,635 1024.25,626.5 1015.75,626.5 1015.75,635 1005,635 1005,624.25 1013.5,624.25 1013.5,615.75 1005,615.75 1005,605"/>
<polygon id="0x12efa90" class="l71d20" points="1015.75,645 1015.75,653.5 1024.25,653.5 1024.25,645 1035,645 1035,655.75 1026.5,655.75 1026.5,664.25 1035,664.25 1035,675 1024.25,675 1024.25,666.5 1015.75,666.5 1015.75,675 1005,675 1005,664.25 1013.5,664.25 1013.5,655.75 1005,655.75 1005,645"/>
<polygon id="0x11c8d90" class="l235d4" points="0,0 40,0 40,40 0,40"/>
</g>
</svg>